<svg width="60" height="60" viewBox="0 0 60 60" fill="none" xmlns="http://www.w3.org/2000/svg">
<path d="M20.3153 30.4822C20.1829 30.4822 20.056 30.4297 19.9623 30.3362C19.8853 30.2586 19.8359 30.1579 19.8217 30.0495C19.8074 29.9412 19.829 29.8311 19.8833 29.7362L20.6253 28.4522L18.2793 29.8002C18.1748 29.8605 18.052 29.881 17.9337 29.8579C17.8153 29.8348 17.7092 29.7697 17.635 29.6746C17.5609 29.5795 17.5236 29.4608 17.5301 29.3403C17.5365 29.2199 17.5863 29.1058 17.6703 29.0192L19.1553 27.4812L18.2793 27.9872C18.1727 28.05 18.0467 28.0711 17.9256 28.0464C17.8044 28.0217 17.6967 27.953 17.6232 27.8535C17.5498 27.7541 17.5157 27.6309 17.5278 27.5079C17.5398 27.3848 17.5969 27.2706 17.6883 27.1872L18.4393 26.4872L18.2793 26.5792C18.1745 26.6389 18.0517 26.6587 17.9335 26.635C17.8153 26.6113 17.7096 26.5457 17.6359 26.4502C17.5623 26.3548 17.5256 26.2359 17.5326 26.1155C17.5397 25.9952 17.59 25.8814 17.6743 25.7952L19.0253 24.4252L18.2793 24.8552C18.1771 24.9136 18.0577 24.9341 17.9419 24.9131C17.8262 24.8921 17.7215 24.8309 17.6464 24.7404C17.5713 24.6499 17.5305 24.5357 17.5312 24.4181C17.5319 24.3005 17.574 24.1868 17.6503 24.0972L19.6703 21.7552L18.2793 22.5552C18.1761 22.6146 18.0552 22.6353 17.9381 22.6135C17.8211 22.5917 17.7157 22.5289 17.6409 22.4363C17.566 22.3438 17.5266 22.2276 17.5298 22.1086C17.533 21.9896 17.5786 21.8756 17.6583 21.7872L19.4783 19.7712L18.2783 20.4632C18.1777 20.5213 18.0601 20.5426 17.9456 20.5235C17.8311 20.5043 17.7268 20.4459 17.6506 20.3583C17.5745 20.2707 17.5312 20.1593 17.5282 20.0432C17.5252 19.9271 17.5627 19.8136 17.6343 19.7222L19.1993 17.7222L18.2783 18.2532C18.1922 18.3028 18.0933 18.3256 17.9943 18.3187C17.8952 18.3118 17.8004 18.2756 17.722 18.2147C17.6436 18.1538 17.5851 18.0709 17.554 17.9766C17.5228 17.8823 17.5205 17.7808 17.5473 17.6852L17.8073 16.7652C17.7183 16.7211 17.6445 16.6514 17.5953 16.5652C17.529 16.4504 17.511 16.3139 17.5453 16.1858C17.5796 16.0577 17.6634 15.9485 17.7783 15.8822L18.2853 15.5902C18.3714 15.5402 18.4705 15.5171 18.5699 15.5238C18.6693 15.5305 18.7645 15.5667 18.8431 15.6279C18.9218 15.689 18.9804 15.7723 19.0114 15.8669C19.0424 15.9616 19.0445 16.0634 19.0173 16.1592L18.8443 16.7702L20.9233 15.5702C21.0237 15.5126 21.141 15.4916 21.2551 15.5109C21.3693 15.5301 21.4732 15.5883 21.5492 15.6757C21.6252 15.763 21.6686 15.874 21.6719 15.9897C21.6751 16.1054 21.6382 16.2187 21.5673 16.3102L19.9993 18.3202L21.7193 17.3272C21.8224 17.2678 21.9434 17.2471 22.0604 17.2689C22.1774 17.2907 22.2828 17.3535 22.3577 17.4461C22.4325 17.5386 22.4719 17.6549 22.4687 17.7738C22.4655 17.8928 22.4199 18.0068 22.3403 18.0952L20.5203 20.1102L21.7203 19.4162C21.8225 19.3579 21.942 19.3375 22.0578 19.3586C22.1736 19.3797 22.2782 19.4411 22.3533 19.5317C22.4283 19.6224 22.469 19.7367 22.468 19.8544C22.4671 19.9721 22.4247 20.0857 22.3483 20.1752L20.3283 22.5182L21.7283 21.7122C21.833 21.6518 21.9562 21.6314 22.0748 21.6548C22.1935 21.6782 22.2996 21.7439 22.3736 21.8396C22.4476 21.9353 22.4844 22.0545 22.4771 22.1753C22.4699 22.296 22.4191 22.41 22.3343 22.4962L20.9833 23.8652L21.7323 23.4332C21.8388 23.3704 21.9648 23.3493 22.0859 23.374C22.2071 23.3987 22.3148 23.4674 22.3883 23.5669C22.4617 23.6663 22.4958 23.7895 22.4838 23.9125C22.4717 24.0356 22.4146 24.1498 22.3233 24.2332L21.5703 24.9332L21.7353 24.8332C21.8396 24.773 21.9622 24.7524 22.0805 24.7754C22.1988 24.7983 22.3049 24.8633 22.3791 24.9582C22.4534 25.0531 22.4908 25.1717 22.4846 25.292C22.4784 25.4124 22.4289 25.5264 22.3453 25.6132L20.8603 27.1492L21.7393 26.6422C21.8346 26.5872 21.9454 26.5651 22.0545 26.5795C22.1636 26.5939 22.265 26.6439 22.3428 26.7217C22.4206 26.7995 22.4706 26.9008 22.4849 27.01C22.4993 27.1191 22.4773 27.2299 22.4223 27.3252L21.6803 28.6092L21.7433 28.5732C21.8002 28.537 21.8638 28.5127 21.9303 28.5018C21.9969 28.4908 22.0649 28.4935 22.1304 28.5095C22.1959 28.5256 22.2575 28.5547 22.3115 28.5951C22.3654 28.6356 22.4106 28.6866 22.4444 28.7449C22.4781 28.8033 22.4997 28.8679 22.5078 28.9349C22.516 29.0018 22.5105 29.0697 22.4917 29.1345C22.4729 29.1992 22.4412 29.2595 22.3985 29.3117C22.3558 29.3639 22.303 29.4069 22.2433 29.4382L20.5613 30.4092C20.4872 30.455 20.4023 30.4802 20.3153 30.4822Z" fill="#8F5C4B"/>
<path d="M4.38381 30.49C4.28722 30.49 4.1927 30.462 4.11168 30.4094C4.03066 30.3568 3.96661 30.2819 3.92726 30.1937C3.88791 30.1055 3.87496 30.0078 3.88996 29.9123C3.90497 29.8169 3.94729 29.7279 4.01181 29.656L4.51181 29.099L3.28081 29.81C3.17737 29.8694 3.0561 29.8899 2.93889 29.8677C2.82168 29.8456 2.71626 29.7822 2.64165 29.6892C2.56705 29.5961 2.52818 29.4794 2.53206 29.3602C2.53594 29.2409 2.58231 29.127 2.66281 29.039L4.41581 27.131L3.28081 27.785C3.17344 27.8463 3.04717 27.8657 2.92637 27.8393C2.80557 27.813 2.69881 27.7428 2.62671 27.6424C2.55462 27.5419 2.52229 27.4183 2.53597 27.2955C2.54966 27.1726 2.60838 27.0591 2.70081 26.977L3.05281 26.669C2.9717 26.6703 2.89139 26.6529 2.81805 26.6182C2.74471 26.5835 2.68031 26.5325 2.62981 26.469C2.55655 26.3705 2.52208 26.2485 2.53296 26.1263C2.54384 26.004 2.59931 25.89 2.68881 25.806L3.44981 25.096L3.28081 25.196C3.17431 25.2579 3.04872 25.2782 2.92812 25.2532C2.80753 25.2282 2.70041 25.1595 2.62731 25.0604C2.55421 24.9613 2.52026 24.8387 2.53198 24.7161C2.5437 24.5935 2.60026 24.4795 2.69081 24.396L3.38481 23.752L3.28481 23.812C3.18117 23.8714 3.05969 23.8918 2.94234 23.8694C2.825 23.847 2.71956 23.7833 2.64511 23.6898C2.57066 23.5964 2.53212 23.4794 2.53647 23.36C2.54081 23.2407 2.58776 23.1268 2.66881 23.039L4.35581 21.223L3.28481 21.84C3.17829 21.9028 3.05228 21.9239 2.93113 21.8992C2.80997 21.8745 2.70226 21.8058 2.62879 21.7063C2.55532 21.6069 2.52131 21.4837 2.53331 21.3607C2.54532 21.2376 2.6025 21.1234 2.69381 21.04L3.43481 20.349L3.28481 20.435C3.18402 20.4929 3.0662 20.5139 2.95161 20.4943C2.83703 20.4747 2.73284 20.4159 2.65697 20.3278C2.58109 20.2397 2.53828 20.128 2.53588 20.0118C2.53347 19.8956 2.57164 19.7821 2.64381 19.691L4.17781 17.75L3.27781 18.267C3.19175 18.3166 3.09289 18.3394 2.99382 18.3325C2.89475 18.3256 2.79996 18.2894 2.72155 18.2285C2.64313 18.1676 2.58464 18.0847 2.55352 17.9904C2.5224 17.8961 2.52006 17.7946 2.54681 17.699L2.80881 16.768C2.72711 16.7283 2.65777 16.6671 2.60823 16.591C2.5587 16.5148 2.53084 16.4266 2.52765 16.3358C2.52446 16.2451 2.54607 16.1551 2.59014 16.0757C2.63422 15.9963 2.6991 15.9303 2.77781 15.885L3.28481 15.593C3.37089 15.5431 3.46989 15.5201 3.56915 15.5268C3.66841 15.5335 3.76341 15.5696 3.84201 15.6306C3.92061 15.6916 3.97923 15.7746 4.01037 15.8691C4.0415 15.9636 4.04375 16.0652 4.01681 16.161L3.84081 16.787L5.94081 15.573C6.04152 15.515 6.15927 15.494 6.27383 15.5134C6.38839 15.5328 6.49261 15.5915 6.56857 15.6794C6.64454 15.7674 6.68752 15.879 6.69012 15.9952C6.69272 16.1113 6.65478 16.2248 6.58281 16.316L5.04481 18.256L6.71781 17.291C6.82432 17.2292 6.94991 17.2088 7.0705 17.2338C7.1911 17.2588 7.29822 17.3275 7.37132 17.4266C7.44442 17.5257 7.47837 17.6484 7.46665 17.771C7.45493 17.8936 7.39837 18.0075 7.30781 18.091L6.56881 18.781L6.72081 18.694C6.82445 18.6346 6.94594 18.6142 7.06328 18.6367C7.18063 18.6591 7.28607 18.7227 7.36052 18.8162C7.43497 18.9096 7.47351 19.0266 7.46916 19.146C7.46481 19.2654 7.41786 19.3792 7.33681 19.467L5.65681 21.281L6.73181 20.661C6.83832 20.5992 6.96391 20.5788 7.0845 20.6038C7.2051 20.6288 7.31222 20.6975 7.38532 20.7966C7.45842 20.8957 7.49237 21.0183 7.48065 21.141C7.46893 21.2636 7.41237 21.3775 7.32181 21.461L6.62981 22.104L6.73481 22.043C6.84135 21.9793 6.9678 21.9574 7.08954 21.9817C7.21129 22.0061 7.31963 22.0748 7.39349 22.1746C7.46734 22.2744 7.50142 22.3981 7.4891 22.5217C7.47677 22.6452 7.41893 22.7598 7.32681 22.843L6.56681 23.553L6.73781 23.453C6.84533 23.3905 6.97226 23.3704 7.09383 23.3964C7.21541 23.4225 7.32292 23.4929 7.39537 23.594C7.46782 23.6951 7.50001 23.8195 7.48567 23.943C7.47133 24.0665 7.41149 24.1802 7.31781 24.262L6.96781 24.568C7.04548 24.5707 7.12184 24.5887 7.19254 24.621C7.26323 24.6532 7.32687 24.6991 7.37981 24.756C7.45427 24.8492 7.49297 24.9659 7.48894 25.0851C7.4849 25.2043 7.4384 25.3181 7.35781 25.406L5.60581 27.313L6.74481 26.655C6.84786 26.5956 6.96871 26.5748 7.08568 26.5965C7.20264 26.6182 7.30805 26.6808 7.38297 26.7732C7.4579 26.8656 7.49743 26.9817 7.49447 27.1006C7.49151 27.2195 7.44625 27.3335 7.36681 27.422L6.84181 28.005C6.92154 27.9783 7.00678 27.9724 7.08941 27.988C7.17204 28.0036 7.2493 28.0401 7.31381 28.094C7.39267 28.1583 7.45005 28.2451 7.47828 28.3428C7.50651 28.4406 7.50425 28.5446 7.47181 28.641L7.26381 29.257C7.33418 29.2999 7.39237 29.3602 7.43281 29.432C7.4988 29.5468 7.51659 29.683 7.48228 29.8108C7.44798 29.9387 7.36438 30.0477 7.24981 30.114L6.74381 30.406C6.65583 30.4566 6.55454 30.4792 6.4534 30.4708C6.35227 30.4624 6.25608 30.4234 6.17761 30.3591C6.09915 30.2947 6.04213 30.208 6.01412 30.1105C5.98611 30.0129 5.98845 29.9092 6.02081 29.813L6.10081 29.576L4.63381 30.423C4.55801 30.4674 4.47165 30.4905 4.38381 30.49Z" fill="#8F5C4B"/>
<path d="M5.26729 43.4699C5.15993 43.4689 5.05575 43.4333 4.97017 43.3685C4.88459 43.3036 4.82215 43.213 4.79209 43.1099C4.76203 43.0068 4.76595 42.8968 4.80326 42.7961C4.84058 42.6955 4.90931 42.6095 4.99929 42.5509L10.5933 38.9149L2.88129 43.3639C2.76951 43.4261 2.63815 43.443 2.51425 43.4113C2.39034 43.3796 2.2833 43.3016 2.21515 43.1933C2.14701 43.0851 2.12293 42.9548 2.14788 42.8294C2.17284 42.7039 2.24491 42.5928 2.34929 42.5189L11.7723 36.0889L1.39229 42.0819C1.28034 42.1482 1.14694 42.1683 1.02042 42.1379C0.893901 42.1074 0.784234 42.0289 0.714716 41.9189C0.645198 41.8089 0.621306 41.6761 0.648115 41.5488C0.674924 41.4214 0.750322 41.3095 0.858293 41.2369L8.74429 35.8189L1.27929 40.1289C1.16842 40.1936 1.03691 40.2132 0.912013 40.1835C0.787112 40.1539 0.678383 40.0774 0.608341 39.9699C0.538299 39.8623 0.512311 39.7319 0.535757 39.6057C0.559204 39.4795 0.630289 39.3671 0.734293 39.2919L7.79929 34.1419L1.27929 37.9049C1.16899 37.9672 1.03917 37.9853 0.916041 37.9555C0.792915 37.9258 0.685665 37.8504 0.61596 37.7447C0.546255 37.6389 0.51929 37.5106 0.540512 37.3858C0.561734 37.2609 0.629562 37.1487 0.730293 37.0719L5.27029 33.6799L1.27929 35.9799C1.17221 36.0391 1.04712 36.0571 0.927717 36.0302C0.808313 36.0034 0.702887 35.9338 0.631408 35.8344C0.559928 35.7351 0.52736 35.613 0.539871 35.4913C0.552382 35.3695 0.609104 35.2566 0.699293 35.1739L4.30529 32.0299L1.27929 33.7759C1.17058 33.837 1.04297 33.8552 0.921507 33.827C0.800044 33.7988 0.693489 33.7263 0.622744 33.6236C0.551999 33.521 0.52217 33.3956 0.539106 33.272C0.556043 33.1485 0.618524 33.0358 0.714293 32.9559L1.19729 32.5629C1.09908 32.5981 0.99231 32.6017 0.891945 32.5732C0.79158 32.5447 0.702646 32.4855 0.637603 32.4039C0.57256 32.3224 0.534666 32.2225 0.529231 32.1183C0.523796 32.0141 0.551091 31.9108 0.607293 31.8229L1.47229 30.4649C1.35479 30.5034 1.22719 30.4971 1.11412 30.447C1.00105 30.3969 0.910534 30.3068 0.86006 30.1939C0.809586 30.081 0.802731 29.9534 0.840819 29.8358C0.878907 29.7181 0.959237 29.6188 1.06629 29.5569L2.72529 28.5999C2.82206 28.5448 2.93444 28.5237 3.04462 28.5397C3.15479 28.5558 3.25646 28.6081 3.33351 28.6885C3.41055 28.7689 3.45857 28.8727 3.46994 28.9834C3.48131 29.0942 3.4554 29.2056 3.39629 29.2999L2.54629 30.6379L6.08929 28.5939C6.19801 28.5329 6.32562 28.5146 6.44708 28.5428C6.56854 28.571 6.6751 28.6435 6.74584 28.7462C6.81659 28.8489 6.84642 28.9743 6.82948 29.0978C6.81254 29.2213 6.75006 29.3341 6.65429 29.4139L6.21229 29.7729L8.26229 28.5909C8.36978 28.5294 8.49626 28.51 8.61724 28.5364C8.73822 28.5628 8.8451 28.6332 8.91717 28.7339C8.98924 28.8346 9.02138 28.9585 9.00736 29.0815C8.99334 29.2045 8.93417 29.318 8.84129 29.3999L5.23629 32.5449L12.0933 28.5859C12.2036 28.5236 12.3334 28.5055 12.4565 28.5353C12.5797 28.565 12.6869 28.6404 12.7566 28.7461C12.8263 28.8519 12.8533 28.9802 12.8321 29.1051C12.8109 29.2299 12.743 29.3421 12.6423 29.4189L8.09929 32.8129L15.4263 28.5819C15.5372 28.5172 15.6687 28.4977 15.7936 28.5273C15.9185 28.5569 16.0272 28.6334 16.0972 28.741C16.1673 28.8485 16.1933 28.9789 16.1698 29.1051C16.1464 29.2313 16.0753 29.3437 15.9713 29.4189L8.91029 34.5679L19.2883 28.5769C19.4002 28.513 19.5324 28.4947 19.6574 28.5258C19.7824 28.557 19.8906 28.6353 19.9593 28.7442C20.0281 28.8532 20.0521 28.9845 20.0264 29.1108C20.0007 29.237 19.9272 29.3485 19.8213 29.4219L11.9303 34.8439L22.7923 28.5729C22.9043 28.5079 23.0372 28.4889 23.163 28.5199C23.2888 28.5509 23.3976 28.6295 23.4665 28.7392C23.5355 28.8488 23.5592 28.981 23.5327 29.1078C23.5061 29.2346 23.4314 29.3461 23.3243 29.4189L13.9053 35.8449L26.5053 28.5679C26.618 28.5049 26.7508 28.488 26.8757 28.5207C27.0006 28.5533 27.1081 28.6331 27.1755 28.7432C27.243 28.8533 27.2652 28.9852 27.2376 29.1114C27.21 29.2375 27.1346 29.3481 27.0273 29.4199L21.4273 33.0629L27.7273 29.4299C27.8392 29.3694 27.9701 29.3538 28.0931 29.3864C28.2161 29.419 28.3221 29.4972 28.3894 29.6052C28.4568 29.7132 28.4804 29.8428 28.4554 29.9676C28.4305 30.0924 28.3589 30.203 28.2553 30.2769L21.0663 35.0999L27.7253 31.2559C27.8376 31.1908 27.9708 31.172 28.0968 31.2033C28.2227 31.2346 28.3315 31.3137 28.4002 31.4239C28.4689 31.534 28.4921 31.6665 28.4649 31.7934C28.4376 31.9203 28.3621 32.0317 28.2543 32.1039L23.5083 35.2979L27.7283 32.8619C27.8393 32.7982 27.9704 32.7795 28.0948 32.8096C28.2191 32.8397 28.3272 32.9163 28.3968 33.0237C28.4664 33.131 28.4921 33.261 28.4688 33.3868C28.4454 33.5126 28.3748 33.6246 28.2713 33.6999L22.7883 37.6639L27.7323 34.8109C27.8408 34.7494 27.9684 34.7306 28.09 34.7583C28.2117 34.786 28.3185 34.8582 28.3897 34.9606C28.4608 35.0631 28.4911 35.1885 28.4746 35.3121C28.458 35.4358 28.3959 35.5487 28.3003 35.6289L23.5803 39.5099L27.7373 37.1099C27.8437 37.0521 27.9674 37.0349 28.0855 37.0614C28.2036 37.0879 28.3081 37.1564 28.3796 37.2541C28.451 37.3518 28.4846 37.4722 28.4741 37.5928C28.4636 37.7134 28.4096 37.8261 28.3223 37.9099L25.8093 40.1829L27.7413 39.0669C27.8443 39.0075 27.9652 38.9867 28.0822 39.0084C28.1991 39.0301 28.3045 39.0927 28.3795 39.1851C28.4544 39.2775 28.4939 39.3936 28.4909 39.5125C28.488 39.6314 28.4427 39.7454 28.3633 39.8339L27.3493 40.9629L27.7493 40.7339C27.8352 40.6842 27.9339 40.6612 28.0329 40.6678C28.1319 40.6744 28.2268 40.7103 28.3053 40.7709C28.384 40.8315 28.4429 40.9142 28.4744 41.0084C28.5059 41.1026 28.5087 41.2041 28.4823 41.2999L28.2243 42.2329C28.3131 42.2769 28.3867 42.3465 28.4353 42.4329C28.5013 42.5477 28.5191 42.6839 28.4848 42.8117C28.4505 42.9396 28.3669 43.0486 28.2523 43.1149L27.7523 43.4029C27.6665 43.4524 27.5679 43.4752 27.469 43.4686C27.3702 43.4619 27.2755 43.4261 27.1971 43.3655C27.1187 43.305 27.06 43.2225 27.0285 43.1286C26.997 43.0346 26.9942 42.9335 27.0203 42.8379L27.1923 42.2099L25.1223 43.3999C25.0194 43.4587 24.8989 43.479 24.7824 43.4572C24.6659 43.4354 24.5609 43.3729 24.4862 43.2809C24.4114 43.1889 24.3718 43.0733 24.3744 42.9548C24.377 42.8363 24.4216 42.7226 24.5003 42.6339L25.5153 41.5059L22.2313 43.3999C22.1249 43.4577 22.0012 43.4749 21.8831 43.4484C21.7649 43.4219 21.6605 43.3534 21.589 43.2557C21.5175 43.158 21.484 43.0376 21.4945 42.917C21.505 42.7964 21.559 42.6838 21.6463 42.5999L24.1613 40.3249L18.8293 43.3999C18.7208 43.4605 18.5937 43.4784 18.4727 43.4504C18.3517 43.4223 18.2454 43.3502 18.1747 43.2481C18.1039 43.1461 18.0737 43.0213 18.0899 42.8981C18.1061 42.775 18.1675 42.6622 18.2623 42.5819L22.9813 38.6999L14.8413 43.3999C14.7303 43.4636 14.5992 43.4823 14.4748 43.4522C14.3505 43.4221 14.2424 43.3455 14.1728 43.2381C14.1032 43.1308 14.0775 43.0008 14.1008 42.875C14.1242 42.7492 14.1948 42.6372 14.2983 42.5619L19.7833 38.5999L11.4613 43.3999C11.3493 43.462 11.2177 43.4787 11.0937 43.4466C10.9697 43.4145 10.8628 43.336 10.7949 43.2274C10.7271 43.1188 10.7035 42.9882 10.7291 42.8627C10.7546 42.7373 10.8274 42.6264 10.9323 42.5529L15.6723 39.3619L8.67229 43.3999C8.56026 43.462 8.42869 43.4787 8.30471 43.4466C8.18073 43.4145 8.07379 43.336 8.00595 43.2274C7.93811 43.1188 7.91453 42.9882 7.94009 42.8627C7.96564 42.7373 8.03838 42.6264 8.14329 42.5529L15.3283 37.7339L5.51729 43.3999C5.44158 43.4448 5.35534 43.469 5.26729 43.4699Z" fill="#DB9E36"/>
<path d="M29.2219 43.4999C29.1139 43.5001 29.0088 43.4653 28.9222 43.4007C28.8356 43.3361 28.7723 43.2453 28.7417 43.1417C28.7111 43.0381 28.7148 42.9275 28.7523 42.8262C28.7899 42.7249 28.8592 42.6385 28.9499 42.5799L36.9069 37.4419L27.2799 42.9999C27.1665 43.0624 27.0334 43.0784 26.9084 43.0447C26.7835 43.011 26.6765 42.9301 26.6099 42.8192C26.5433 42.7082 26.5224 42.5757 26.5515 42.4496C26.5806 42.3235 26.6574 42.2136 26.7659 42.1429L27.8069 41.4939L27.2799 41.7939C27.1666 41.8574 27.0331 41.8743 26.9075 41.8411C26.782 41.8079 26.6743 41.7271 26.6073 41.6159C26.5402 41.5047 26.5191 41.3717 26.5483 41.2452C26.5776 41.1187 26.6549 41.0085 26.7639 40.9379L30.0469 38.8689L27.2799 40.4689C27.167 40.5332 27.0335 40.551 26.9076 40.5186C26.7818 40.4861 26.6736 40.4059 26.6058 40.295C26.5381 40.1841 26.5162 40.0512 26.5448 39.9245C26.5734 39.7977 26.6501 39.6871 26.7589 39.6159L32.9999 35.5899L27.2839 38.8899C27.2277 38.9239 27.1653 38.9464 27.1004 38.9563C27.0355 38.9661 26.9693 38.9631 26.9055 38.9474C26.8418 38.9316 26.7818 38.9035 26.7289 38.8646C26.676 38.8256 26.6313 38.7767 26.5974 38.7204C26.5634 38.6642 26.5409 38.6019 26.5311 38.537C26.5212 38.4721 26.5242 38.4058 26.54 38.3421C26.5557 38.2783 26.5838 38.2183 26.6228 38.1655C26.6617 38.1126 26.7107 38.0679 26.7669 38.0339L27.3359 37.6749L27.2839 37.7039C27.1715 37.7679 27.0387 37.7858 26.9134 37.7539C26.7881 37.722 26.6801 37.6429 26.6119 37.533C26.5437 37.4232 26.5207 37.2912 26.5477 37.1648C26.5748 37.0383 26.6497 36.9273 26.7569 36.8549L32.9039 32.7549L27.2799 35.9999C27.1683 36.064 27.0363 36.0826 26.9113 36.0517C26.7864 36.0209 26.6781 35.9432 26.6091 35.8346C26.54 35.726 26.5155 35.5949 26.5406 35.4687C26.5657 35.3425 26.6385 35.2308 26.7439 35.1569L33.4099 30.5129L27.2799 34.0519C27.1684 34.1152 27.037 34.1332 26.9126 34.1023C26.7883 34.0714 26.6805 33.994 26.6116 33.8859C26.5427 33.7779 26.5179 33.6475 26.5423 33.5217C26.5668 33.3959 26.6386 33.2843 26.7429 33.2099L31.8659 29.6099L27.2799 32.2659C27.1688 32.3287 27.038 32.3467 26.9141 32.3161C26.7903 32.2856 26.6828 32.2088 26.6137 32.1016C26.5445 31.9944 26.519 31.8648 26.5423 31.7394C26.5656 31.614 26.6359 31.5022 26.7389 31.4269L31.6279 27.9269L27.2799 30.4369C27.1677 30.4998 27.0356 30.5171 26.911 30.4851C26.7864 30.4531 26.6789 30.3743 26.611 30.2651C26.543 30.1559 26.5197 30.0247 26.5459 29.8988C26.5722 29.7728 26.6459 29.6619 26.7519 29.5889L27.1459 29.3229C27.035 29.3493 26.9184 29.337 26.8154 29.2879C26.7125 29.2389 26.6294 29.1562 26.5799 29.0535C26.5304 28.9508 26.5175 28.8343 26.5433 28.7232C26.5692 28.6122 26.6322 28.5133 26.7219 28.4429L32.0119 24.2959L27.2799 27.0229C27.1707 27.0841 27.0426 27.1021 26.9207 27.0734C26.7989 27.0446 26.6923 26.9713 26.622 26.8678C26.5516 26.7643 26.5227 26.6381 26.5408 26.5143C26.5589 26.3905 26.6228 26.2779 26.7199 26.1989L30.8649 22.9089L27.2799 24.9789C27.1702 25.0404 27.0415 25.0582 26.9192 25.029C26.797 24.9997 26.6903 24.9255 26.6203 24.8211C26.5503 24.7167 26.5222 24.5897 26.5416 24.4656C26.561 24.3414 26.6264 24.229 26.7249 24.1509L29.2189 22.2219L27.2799 23.3409C27.1709 23.4026 27.0428 23.4211 26.9208 23.3928C26.7989 23.3645 26.692 23.2916 26.6212 23.1883C26.5505 23.085 26.5211 22.9589 26.5388 22.835C26.5565 22.7111 26.6201 22.5983 26.7169 22.5189L28.8839 20.7769L27.2839 21.7029C27.1751 21.7643 27.0472 21.7826 26.9255 21.7544C26.8038 21.7262 26.6971 21.6534 26.6263 21.5505C26.5556 21.4475 26.526 21.3218 26.5433 21.198C26.5606 21.0743 26.6236 20.9615 26.7199 20.8819L28.0389 19.8129L27.2839 20.2489C27.1765 20.3112 27.0498 20.3313 26.9284 20.3053C26.807 20.2793 26.6996 20.2091 26.6272 20.1083C26.5547 20.0075 26.5223 19.8834 26.5363 19.76C26.5503 19.6367 26.6097 19.5229 26.7029 19.4409L28.1429 18.1719L27.2839 18.6719C27.1878 18.7271 27.0761 18.7488 26.9664 18.7336C26.8566 18.7184 26.755 18.6672 26.6776 18.588C26.6001 18.5088 26.5511 18.4061 26.5383 18.296C26.5255 18.186 26.5496 18.0748 26.6069 17.9799L27.5399 16.4439C27.4237 16.499 27.2907 16.5072 27.1686 16.4668C27.0465 16.4264 26.9446 16.3405 26.8842 16.2269C26.8238 16.1133 26.8095 15.9809 26.8443 15.857C26.8791 15.7332 26.9602 15.6275 27.0709 15.5619L28.7299 14.6049C28.826 14.5498 28.9377 14.5281 29.0474 14.5433C29.1572 14.5585 29.2588 14.6097 29.3362 14.6889C29.4137 14.7681 29.4627 14.8708 29.4755 14.9809C29.4883 15.0909 29.4641 15.2021 29.4069 15.2969L28.4759 16.8299L31.9759 14.8109C32.0832 14.7498 32.2092 14.7305 32.3299 14.7568C32.4505 14.7831 32.5571 14.853 32.6292 14.9532C32.7014 15.0534 32.7339 15.1767 32.7205 15.2995C32.7072 15.4222 32.6489 15.5356 32.5569 15.6179L31.1179 16.8869L33.0469 15.7739C33.1557 15.7126 33.2836 15.6943 33.4053 15.7225C33.527 15.7507 33.6337 15.8235 33.7045 15.9264C33.7752 16.0294 33.8048 16.1551 33.7875 16.2789C33.7702 16.4026 33.7072 16.5154 33.6109 16.5949L32.2899 17.6649L34.0319 16.6589C34.1411 16.5945 34.2706 16.574 34.3944 16.6014C34.5181 16.6289 34.6268 16.7024 34.6984 16.8069C34.7701 16.9115 34.7994 17.0393 34.7803 17.1647C34.7613 17.29 34.6954 17.4034 34.5959 17.4819L32.4199 19.2199L35.1359 17.6519C35.2456 17.5905 35.3743 17.5727 35.4966 17.6019C35.6188 17.6312 35.7255 17.7054 35.7955 17.8098C35.8655 17.9142 35.8936 18.0411 35.8742 18.1653C35.8548 18.2895 35.7894 18.4018 35.6909 18.4799L33.1999 20.4049L36.2409 18.6489C36.3503 18.585 36.4799 18.565 36.6035 18.5929C36.727 18.6209 36.8354 18.6947 36.9067 18.7995C36.9779 18.9042 37.0067 19.0322 36.9873 19.1574C36.9678 19.2826 36.9016 19.3957 36.8019 19.4739L32.6539 22.7649L37.6259 19.8949C37.7353 19.8331 37.8641 19.8148 37.9864 19.8436C38.1088 19.8724 38.2158 19.9462 38.2862 20.0504C38.3565 20.1545 38.3851 20.2814 38.3661 20.4057C38.3472 20.5299 38.2821 20.6425 38.1839 20.7209L32.8999 24.8669L39.1489 21.2599C39.2609 21.1979 39.3925 21.1812 39.5165 21.2133C39.6405 21.2454 39.7474 21.3238 39.8152 21.4325C39.8831 21.5411 39.9067 21.6716 39.8811 21.7971C39.8555 21.9226 39.7828 22.0335 39.6779 22.1069L39.5329 22.2069L39.9389 21.9729C40.05 21.9085 40.1817 21.8893 40.3065 21.9193C40.4314 21.9494 40.54 22.0263 40.6097 22.1342C40.6794 22.2421 40.7049 22.3726 40.6809 22.4988C40.6569 22.625 40.5853 22.7371 40.4809 22.8119L35.5929 26.3119L41.1809 23.0859C41.2923 23.0227 41.4238 23.0047 41.5482 23.0356C41.6725 23.0665 41.7803 23.1439 41.8492 23.252C41.9181 23.36 41.9429 23.4904 41.9185 23.6162C41.894 23.7419 41.8222 23.8536 41.7179 23.9279L36.5929 27.5279L43.0999 23.7659C43.2113 23.7043 43.342 23.6874 43.4654 23.7188C43.5888 23.7502 43.6955 23.8275 43.7639 23.9349C43.8323 24.0423 43.8571 24.1717 43.8333 24.2968C43.8095 24.4218 43.7389 24.5331 43.6359 24.6079L36.9759 29.2499L45.8759 24.1109C45.9883 24.047 46.121 24.0291 46.2463 24.061C46.3716 24.0929 46.4797 24.172 46.5479 24.2819C46.6161 24.3917 46.6391 24.5237 46.6121 24.6501C46.585 24.7766 46.51 24.8876 46.4029 24.9599L40.2439 29.0599L48.3009 24.4099C48.3571 24.376 48.4194 24.3535 48.4844 24.3436C48.5493 24.3337 48.6155 24.3368 48.6793 24.3525C48.743 24.3683 48.803 24.3964 48.8559 24.4353C48.9088 24.4743 48.9534 24.5232 48.9874 24.5794C49.0213 24.6357 49.0439 24.698 49.0537 24.7629C49.0636 24.8278 49.0606 24.8941 49.0448 24.9578C49.0291 25.0215 49.0009 25.0816 48.962 25.1344C48.9231 25.1873 48.8741 25.232 48.8179 25.2659L48.2719 25.6099L49.9879 24.6199C50.101 24.5507 50.237 24.5293 50.3659 24.5603C50.4949 24.5913 50.6062 24.6723 50.6754 24.7854C50.7446 24.8986 50.7661 25.0345 50.735 25.1635C50.704 25.2924 50.623 25.4037 50.5099 25.4729L44.2759 29.4999L51.9909 25.0459C52.104 24.9838 52.2367 24.9677 52.3614 25.0011C52.486 25.0346 52.5929 25.1149 52.6597 25.2254C52.7265 25.3358 52.748 25.4678 52.7197 25.5937C52.6914 25.7196 52.6155 25.8297 52.5079 25.9009L49.2159 27.9759L52.9629 25.8129C53.0764 25.7475 53.2111 25.7292 53.338 25.7621C53.4648 25.7949 53.5737 25.8762 53.6412 25.9886C53.7087 26.1009 53.7294 26.2352 53.6989 26.3626C53.6683 26.4901 53.589 26.6004 53.4779 26.6699L52.4329 27.3199L53.8429 26.5069C53.9555 26.4458 54.0873 26.4303 54.2111 26.4635C54.3348 26.4967 54.4411 26.5762 54.508 26.6855C54.5748 26.7949 54.5972 26.9257 54.5704 27.051C54.5435 27.1763 54.4696 27.2865 54.3639 27.3589L46.3999 32.4999L55.0859 27.4859C55.1984 27.423 55.3308 27.406 55.4555 27.4383C55.5802 27.4707 55.6877 27.5499 55.7554 27.6596C55.8231 27.7692 55.8459 27.9008 55.8189 28.0268C55.792 28.1528 55.7175 28.2635 55.6109 28.3359L46.6459 34.2599L56.4759 28.5849C56.5882 28.5199 56.7214 28.501 56.8474 28.5323C56.9733 28.5637 57.0821 28.6428 57.1508 28.7529C57.2195 28.863 57.2427 28.9956 57.2155 29.1225C57.1882 29.2494 57.1127 29.3607 57.0049 29.4329L48.3049 35.2859L57.7189 29.8519C57.8306 29.7913 57.9612 29.7754 58.0842 29.8076C58.2072 29.8398 58.3133 29.9176 58.3809 30.0253C58.4486 30.1329 58.4727 30.2623 58.4483 30.387C58.424 30.5118 58.353 30.6226 58.2499 30.6969L50.8159 35.7519L57.7239 31.7649C57.8347 31.7019 57.9654 31.6836 58.0893 31.7137C58.2132 31.7439 58.3209 31.8202 58.3903 31.9271C58.4598 32.034 58.4858 32.1634 58.4631 32.2888C58.4403 32.4143 58.3705 32.5263 58.2679 32.6019L51.1389 37.7839L57.7279 33.9839C57.8396 33.9176 57.9727 33.8974 58.0991 33.9275C58.2254 33.9576 58.3351 34.0357 58.4049 34.1452C58.4747 34.2548 58.4991 34.3872 58.473 34.5144C58.4468 34.6417 58.3722 34.7538 58.2649 34.8269L56.5219 36.0399L57.7319 35.3399C57.8384 35.2772 57.9644 35.2561 58.0856 35.2808C58.2067 35.3055 58.3145 35.3742 58.3879 35.4736C58.4614 35.5731 58.4954 35.6962 58.4834 35.8193C58.4714 35.9423 58.4142 36.0566 58.3229 36.1399L57.5129 36.8939L57.7349 36.7659C57.7918 36.7298 57.8554 36.7055 57.922 36.6945C57.9885 36.6836 58.0566 36.6862 58.1221 36.7023C58.1876 36.7183 58.2492 36.7474 58.3031 36.7879C58.3571 36.8283 58.4023 36.8793 58.436 36.9377C58.4698 36.9961 58.4914 37.0607 58.4995 37.1276C58.5076 37.1946 58.5021 37.2624 58.4833 37.3272C58.4645 37.392 58.4329 37.4523 58.3902 37.5045C58.3475 37.5567 58.2947 37.5997 58.2349 37.6309L54.1999 39.9589C54.0934 40.0217 53.9674 40.0428 53.8462 40.0181C53.7251 39.9934 53.6173 39.9247 53.5439 39.8253C53.4704 39.7258 53.4364 39.6027 53.4484 39.4796C53.4604 39.3566 53.5176 39.2423 53.6089 39.1589L54.4189 38.4049L46.7939 42.8049C46.6823 42.869 46.5503 42.8876 46.4253 42.8567C46.3004 42.8259 46.1921 42.7482 46.1231 42.6396C46.054 42.531 46.0295 42.3999 46.0546 42.2737C46.0797 42.1475 46.1525 42.0358 46.2579 41.9619L47.9999 40.7529L43.3999 43.4049C43.2891 43.468 43.1584 43.4863 43.0345 43.4562C42.9106 43.426 42.8029 43.3497 42.7334 43.2428C42.664 43.1359 42.638 43.0065 42.6607 42.8811C42.6835 42.7556 42.7533 42.6436 42.8559 42.5679L49.9839 37.3859L39.5499 43.4119C39.4379 43.4749 39.3061 43.4924 39.1816 43.4607C39.0571 43.4291 38.9496 43.3507 38.8813 43.2419C38.813 43.1332 38.7892 43.0023 38.8149 42.8764C38.8405 42.7506 38.9135 42.6394 39.0189 42.5659L46.4469 37.5149L36.2229 43.4149C36.1672 43.4497 36.1052 43.4732 36.0405 43.4841C35.9757 43.4949 35.9094 43.4929 35.8455 43.4781C35.7163 43.4483 35.6042 43.3684 35.5339 43.2559C35.4636 43.1435 35.4409 43.0077 35.4707 42.8785C35.5005 42.7493 35.5804 42.6372 35.6929 42.5669L44.3929 36.7149L32.7739 43.4239C32.6614 43.4869 32.529 43.5039 32.4043 43.4716C32.2796 43.4392 32.1721 43.36 32.1044 43.2503C32.0367 43.1407 32.0139 43.0091 32.0408 42.8831C32.0678 42.7571 32.1423 42.6463 32.2489 42.5739L41.2229 36.6449L29.4719 43.4289C29.3964 43.4745 29.3101 43.499 29.2219 43.4999Z" fill="#DB9E36"/>
<path d="M54.7149 42.4812C54.6145 42.4812 54.5164 42.451 54.4333 42.3945C54.3503 42.338 54.2862 42.2578 54.2494 42.1643C54.2126 42.0709 54.2048 41.9685 54.227 41.8705C54.2492 41.7726 54.3004 41.6836 54.3739 41.6152L55.1069 40.9332L53.1069 42.0852C53.0014 42.1468 52.8769 42.1677 52.757 42.1439C52.6371 42.12 52.5301 42.0531 52.4562 41.9557C52.3824 41.8583 52.3467 41.7372 52.3561 41.6153C52.3654 41.4934 52.4191 41.3792 52.5069 41.2942L53.3579 40.4642L52.5329 40.9402C52.4392 40.9941 52.3306 41.0162 52.2232 41.0031C52.1159 40.9901 52.0157 40.9426 51.9377 40.8678C51.8596 40.793 51.8079 40.6949 51.7903 40.5882C51.7726 40.4816 51.7901 40.3721 51.8399 40.2762L52.3399 39.3232L51.8639 39.5982C51.7904 39.6407 51.7071 39.6637 51.6222 39.6651C51.5372 39.6665 51.4533 39.6463 51.3783 39.6062C51.3034 39.5662 51.2398 39.5077 51.1937 39.4363C51.1477 39.3649 51.1205 39.283 51.1149 39.1982L51.0889 38.7532C51.0134 38.743 50.9412 38.7155 50.8781 38.6728C50.8149 38.6302 50.7625 38.5735 50.7249 38.5072C50.6922 38.4502 50.6709 38.3874 50.6624 38.3223C50.6539 38.2571 50.6583 38.191 50.6754 38.1275C50.6925 38.0641 50.7219 38.0047 50.762 37.9526C50.8021 37.9005 50.852 37.8569 50.9089 37.8242L51.3009 37.6002C51.3745 37.5579 51.4576 37.535 51.5424 37.5337C51.6273 37.5324 51.711 37.5527 51.7858 37.5928C51.8607 37.6328 51.9241 37.6911 51.9701 37.7624C52.0161 37.8337 52.0433 37.9155 52.0489 38.0002L52.0679 38.3262L53.3329 37.5972C53.4266 37.5432 53.5353 37.5211 53.6426 37.5342C53.75 37.5472 53.8502 37.5947 53.9282 37.6695C54.0063 37.7443 54.058 37.8424 54.0756 37.9491C54.0932 38.0557 54.0758 38.1652 54.0259 38.2612L53.5259 39.2142L56.3259 37.5972C56.4315 37.5355 56.556 37.5146 56.6759 37.5384C56.7958 37.5623 56.9028 37.6292 56.9766 37.7266C57.0505 37.824 57.0862 37.9451 57.0768 38.067C57.0675 38.1889 57.0138 38.3031 56.9259 38.3882L56.0739 39.2182L58.4129 37.8672C58.5195 37.8044 58.6455 37.7833 58.7666 37.808C58.8878 37.8327 58.9955 37.9014 59.069 38.0008C59.1424 38.1003 59.1764 38.2234 59.1644 38.3465C59.1524 38.4695 59.0952 38.5838 59.0039 38.6672L58.2719 39.3492L58.7189 39.0912C58.8157 39.0356 58.9283 39.0141 59.0388 39.0299C59.1492 39.0457 59.2512 39.0981 59.3285 39.1786C59.4057 39.2591 59.4539 39.3631 59.4652 39.4741C59.4765 39.5851 59.4504 39.6967 59.3909 39.7912L58.8909 40.5832C58.99 40.5702 59.0907 40.5865 59.1806 40.63C59.2705 40.6735 59.3457 40.7424 59.3969 40.8282C59.4632 40.943 59.4812 41.0795 59.4469 41.2075C59.4126 41.3356 59.3288 41.4448 59.2139 41.5112L57.6669 42.4032C57.5702 42.4587 57.4576 42.4802 57.3471 42.4644C57.2367 42.4486 57.1347 42.3962 57.0574 42.3157C56.9802 42.2352 56.932 42.1312 56.9207 42.0202C56.9094 41.9092 56.9355 41.7976 56.9949 41.7032L57.4569 40.9772L54.9669 42.4142C54.8906 42.4589 54.8035 42.482 54.7149 42.4812Z" fill="#C1DAF0"/>
<path d="M35.3998 24.4702C35.3007 24.4702 35.2039 24.4407 35.1216 24.3856C35.0393 24.3305 34.9752 24.2521 34.9375 24.1605C34.8998 24.0689 34.8901 23.9682 34.9098 23.8711C34.9294 23.774 34.9774 23.6849 35.0478 23.6152L36.8678 21.8062L33.0678 24.0062C32.9588 24.0678 32.8307 24.0863 32.7087 24.0581C32.5868 24.0298 32.4798 23.9568 32.4091 23.8535C32.3384 23.7502 32.3089 23.6242 32.3266 23.5002C32.3444 23.3763 32.4079 23.2635 32.5048 23.1842L34.0748 21.9192L32.3488 22.9192C32.2402 22.9818 32.1121 23.0014 31.9898 22.9741C31.8675 22.9467 31.76 22.8745 31.6884 22.7716C31.6169 22.6688 31.5865 22.5428 31.6035 22.4186C31.6204 22.2944 31.6833 22.1812 31.7798 22.1012L33.9128 20.3372L32.2828 21.2782C32.1753 21.3397 32.0488 21.3591 31.9278 21.3327C31.8068 21.3063 31.7 21.2359 31.6279 21.1352C31.5558 21.0345 31.5237 20.9106 31.5377 20.7876C31.5517 20.6646 31.6109 20.5511 31.7038 20.4692L33.8798 18.5642L32.2798 19.4862C32.1797 19.5441 32.0627 19.5655 31.9486 19.5469C31.8345 19.5282 31.7304 19.4706 31.654 19.3838C31.5776 19.2971 31.5337 19.1865 31.5296 19.071C31.5255 18.9555 31.5616 18.8421 31.6318 18.7502L33.1808 16.7002L32.2808 17.2202C32.1945 17.27 32.0954 17.293 31.9961 17.2861C31.8967 17.2792 31.8017 17.2428 31.7231 17.1816C31.6446 17.1203 31.5862 17.037 31.5553 16.9424C31.5244 16.8477 31.5225 16.746 31.5498 16.6502L31.8038 15.7592C31.7235 15.7184 31.6557 15.6566 31.6076 15.5805C31.5595 15.5043 31.5328 15.4166 31.5305 15.3265C31.5281 15.2365 31.5501 15.1475 31.5942 15.0689C31.6382 14.9904 31.7027 14.9251 31.7808 14.8802L32.2808 14.5922C32.367 14.542 32.4663 14.5188 32.5658 14.5256C32.6653 14.5323 32.7606 14.5686 32.8393 14.6299C32.918 14.6912 32.9766 14.7746 33.0075 14.8695C33.0384 14.9644 33.0402 15.0663 33.0128 15.1622L32.8488 15.7382L34.8328 14.6002C34.9325 14.5422 35.0492 14.5205 35.1631 14.5387C35.277 14.5569 35.3811 14.614 35.4578 14.7002C35.5341 14.7868 35.5781 14.8972 35.5823 15.0126C35.5865 15.128 35.5506 15.2412 35.4808 15.3332L33.9338 17.3672L37.7998 15.1382C37.9071 15.0778 38.033 15.0591 38.1532 15.0858C38.2734 15.1125 38.3796 15.1826 38.4514 15.2827C38.5231 15.3828 38.5554 15.5059 38.542 15.6283C38.5286 15.7508 38.4705 15.864 38.3788 15.9462L36.1998 17.8522L38.5708 16.4832C38.6794 16.419 38.8084 16.3984 38.9317 16.4253C39.0549 16.4523 39.1635 16.5249 39.2355 16.6285C39.3075 16.7322 39.3376 16.8592 39.3199 16.9841C39.3021 17.1091 39.2378 17.2227 39.1398 17.3022L37.0088 19.0642L39.1648 17.8192C39.2739 17.7548 39.4035 17.7342 39.5272 17.7617C39.651 17.7892 39.7597 17.8626 39.8313 17.9672C39.903 18.0717 39.9322 18.1996 39.9132 18.3249C39.8942 18.4502 39.8282 18.5636 39.7288 18.6422L38.1558 19.9082L39.6978 19.0192C39.8028 18.9608 39.9253 18.9422 40.043 18.9668C40.1606 18.9914 40.2654 19.0575 40.3383 19.1531C40.4111 19.2486 40.4471 19.3672 40.4397 19.4872C40.4322 19.6071 40.3819 19.7204 40.2978 19.8062L38.4768 21.6162L40.3648 20.5262C40.4678 20.4668 40.5887 20.446 40.7056 20.4677C40.8226 20.4893 40.928 20.552 41.0029 20.6444C41.0778 20.7368 41.1174 20.8528 41.1144 20.9718C41.1115 21.0907 41.0662 21.2046 40.9868 21.2932L40.3788 21.9722L40.8788 21.6842C40.958 21.6385 41.0483 21.6153 41.1398 21.6174C41.2312 21.6194 41.3204 21.6465 41.3975 21.6957C41.4747 21.7449 41.5368 21.8143 41.5773 21.8964C41.6177 21.9784 41.6348 22.07 41.6268 22.1612L41.5468 23.0612C41.6631 23.0121 41.7937 23.0088 41.9124 23.052C42.031 23.0952 42.1289 23.1818 42.1864 23.2942C42.2439 23.4067 42.2567 23.5367 42.2223 23.6582C42.1878 23.7797 42.1087 23.8836 42.0008 23.9492L41.2128 24.4042C41.1335 24.4499 41.0432 24.473 40.9518 24.471C40.8603 24.469 40.7711 24.4419 40.694 24.3927C40.6168 24.3435 40.5547 24.2741 40.5143 24.192C40.4738 24.1099 40.4567 24.0183 40.4648 23.9272L40.5448 23.0322L38.1678 24.4002C38.0648 24.459 37.9444 24.4793 37.8278 24.4575C37.7113 24.4357 37.6063 24.3732 37.5316 24.2812C37.4569 24.1892 37.4173 24.0736 37.4199 23.9551C37.4225 23.8366 37.4671 23.7229 37.5458 23.6342L38.1528 22.9562L35.6498 24.4002C35.5742 24.4456 35.4879 24.4698 35.3998 24.4702Z" fill="#9DBF69"/>
<path d="M5.29146 25.47C5.19195 25.4701 5.09464 25.4406 5.012 25.3852C4.92935 25.3298 4.86513 25.2509 4.82754 25.1588C4.78996 25.0667 4.78072 24.9654 4.80101 24.868C4.82131 24.7706 4.87021 24.6814 4.94146 24.612L6.13446 23.445L2.87946 25.324C2.77789 25.3826 2.65894 25.4036 2.54342 25.3834C2.4279 25.3632 2.32315 25.3031 2.24749 25.2135C2.17183 25.1239 2.13007 25.0105 2.12952 24.8933C2.12896 24.776 2.16965 24.6623 2.24446 24.572L3.66646 22.859L2.28046 23.659C2.18583 23.7134 2.07599 23.7353 1.96772 23.7214C1.85945 23.7076 1.75869 23.6586 1.68083 23.5821C1.60296 23.5056 1.55228 23.4058 1.5365 23.2977C1.52072 23.1897 1.54073 23.0795 1.59346 22.984L2.02846 22.197C1.92366 22.186 1.82501 22.1421 1.7466 22.0717C1.6682 22.0013 1.61404 21.9079 1.59186 21.8049C1.56968 21.7019 1.58062 21.5945 1.62311 21.4981C1.6656 21.4016 1.73747 21.3211 1.82846 21.268L2.98946 20.598C3.08401 20.5434 3.19382 20.5213 3.30211 20.535C3.41041 20.5487 3.51124 20.5975 3.58922 20.6739C3.6672 20.7503 3.71804 20.8501 3.73397 20.9581C3.7499 21.0661 3.73005 21.1763 3.67746 21.272L3.33346 21.895L5.57946 20.595C5.68098 20.5363 5.7999 20.5151 5.91542 20.5352C6.03095 20.5553 6.13573 20.6154 6.21146 20.705C6.28681 20.7949 6.3281 20.9086 6.3281 21.026C6.3281 21.1433 6.28681 21.257 6.21146 21.347L4.80046 23.063L9.06746 20.6C9.17287 20.5392 9.29684 20.5189 9.41612 20.543C9.53541 20.567 9.64183 20.6338 9.71543 20.7307C9.78903 20.8276 9.82476 20.948 9.81593 21.0694C9.8071 21.1907 9.75431 21.3047 9.66746 21.39L8.47446 22.556L11.8665 20.6C11.9702 20.5405 12.0918 20.5202 12.2092 20.5428C12.3266 20.5653 12.4321 20.6292 12.5064 20.7228C12.5808 20.8164 12.6192 20.9335 12.6146 21.053C12.61 21.1725 12.5628 21.2863 12.4815 21.374L11.0945 22.856L15.0005 20.6C15.0995 20.5432 15.2149 20.5221 15.3276 20.5401C15.4403 20.558 15.5435 20.614 15.62 20.6986C15.6965 20.7833 15.7417 20.8916 15.7481 21.0055C15.7546 21.1195 15.7219 21.2322 15.6555 21.325L14.1775 23.369L18.9775 20.6C19.0799 20.5411 19.1999 20.5203 19.3162 20.5415C19.4324 20.5626 19.5374 20.6243 19.6126 20.7155C19.6877 20.8067 19.7281 20.9215 19.7266 21.0397C19.7252 21.1579 19.6819 21.2717 19.6045 21.361L18.1435 23.037L22.1875 20.7C22.29 20.6417 22.4098 20.6216 22.5257 20.6431C22.6417 20.6646 22.7462 20.7264 22.821 20.8176C22.8958 20.9088 22.936 21.0234 22.9344 21.1413C22.9328 21.2592 22.8896 21.3728 22.8125 21.462L21.4445 23.027L22.7205 22.291C22.8199 22.2342 22.9359 22.2133 23.0489 22.2317C23.162 22.2502 23.2652 22.3069 23.3415 22.3924C23.4177 22.4779 23.4623 22.587 23.4677 22.7014C23.4732 22.8158 23.4392 22.9286 23.3715 23.021L23.0115 23.507C23.1172 23.5163 23.2172 23.559 23.297 23.6289C23.3769 23.6988 23.4324 23.7923 23.4555 23.8959C23.4787 23.9995 23.4683 24.1077 23.4259 24.205C23.3834 24.3023 23.3111 24.3835 23.2195 24.437L21.5525 25.4C21.453 25.4573 21.3368 25.4786 21.2234 25.4603C21.1101 25.4421 21.0064 25.3854 20.93 25.2998C20.8535 25.2141 20.8088 25.1048 20.8034 24.9901C20.7981 24.8754 20.8323 24.7624 20.9005 24.67L21.1275 24.364L19.3325 25.4C19.23 25.4582 19.1103 25.4784 18.9944 25.457C18.8785 25.4356 18.7739 25.374 18.6991 25.283C18.6242 25.192 18.5839 25.0775 18.5853 24.9596C18.5866 24.8418 18.6295 24.7282 18.7065 24.639L20.0745 23.074L16.0445 25.4C15.942 25.4589 15.822 25.4796 15.7058 25.4584C15.5895 25.4373 15.4845 25.3756 15.4093 25.2844C15.3342 25.1932 15.2938 25.0784 15.2953 24.9602C15.2968 24.842 15.34 24.7282 15.4175 24.639L16.8805 22.962L12.6555 25.4C12.5566 25.4558 12.4417 25.4764 12.3297 25.4583C12.2176 25.4402 12.115 25.3845 12.0388 25.3004C11.9626 25.2163 11.9173 25.1087 11.9103 24.9954C11.9033 24.8821 11.9351 24.7698 12.0005 24.677L13.4795 22.633L8.67946 25.4C8.5757 25.4601 8.4538 25.4809 8.33597 25.4586C8.21814 25.4364 8.11223 25.3725 8.03756 25.2787C7.96288 25.1849 7.92442 25.0673 7.92917 24.9475C7.93393 24.8277 7.98158 24.7136 8.06346 24.626L9.45146 23.144L5.54146 25.4C5.46593 25.4453 5.37957 25.4695 5.29146 25.47Z" fill="#A6725C"/>
<path d="M10.9611 17.4699C10.859 17.4699 10.7594 17.4386 10.6756 17.3803C10.5918 17.322 10.5279 17.2395 10.4924 17.1438C10.4569 17.0481 10.4516 16.9438 10.4771 16.845C10.5026 16.7461 10.5577 16.6575 10.6351 16.5909L11.1601 16.1399L8.97209 17.3999C8.86835 17.4593 8.74675 17.4796 8.62934 17.4571C8.51193 17.4345 8.40647 17.3707 8.3321 17.2771C8.25772 17.1835 8.21935 17.0663 8.22393 16.9469C8.22852 16.8274 8.27576 16.7135 8.35709 16.6259L9.74109 15.1499L5.84109 17.3999C5.73876 17.4582 5.61913 17.4785 5.50329 17.4572C5.38745 17.436 5.28284 17.3745 5.20789 17.2836C5.13294 17.1928 5.09246 17.0784 5.0936 16.9606C5.09473 16.8429 5.1374 16.7293 5.21409 16.6399L6.67709 14.9589L2.72609 17.2419C2.62263 17.302 2.50106 17.323 2.38344 17.3011C2.26582 17.2792 2.15995 17.2159 2.08505 17.1226C2.01014 17.0293 1.97118 16.9122 1.97522 16.7926C1.97927 16.6731 2.02605 16.5589 2.10709 16.4709L3.37109 15.0999L2.28009 15.7289C2.18596 15.7829 2.07683 15.8048 1.96915 15.7913C1.86148 15.7779 1.76111 15.7297 1.6832 15.6542C1.60529 15.5786 1.55407 15.4798 1.53728 15.3726C1.52048 15.2654 1.53902 15.1556 1.59009 15.0599L2.05109 14.1999C1.94428 14.1927 1.8426 14.1514 1.761 14.0822C1.6794 14.0129 1.62219 13.9192 1.59779 13.815C1.57338 13.7108 1.58307 13.6015 1.62543 13.5032C1.66778 13.4049 1.74057 13.3227 1.83309 13.2689L2.99409 12.5989C3.08822 12.5445 3.19753 12.5222 3.30546 12.5355C3.41338 12.5488 3.51403 12.5969 3.59216 12.6725C3.67028 12.7481 3.72162 12.8472 3.73839 12.9546C3.75516 13.0621 3.73644 13.172 3.68509 13.2679L3.30009 13.9859L5.70009 12.5999C5.80353 12.5405 5.9248 12.52 6.04201 12.5422C6.15922 12.5643 6.26464 12.6277 6.33925 12.7207C6.41385 12.8138 6.45272 12.9305 6.44884 13.0497C6.44496 13.169 6.39859 13.2829 6.31809 13.3709L5.06009 14.7399L8.77109 12.5999C8.87342 12.5416 8.99305 12.5213 9.10889 12.5425C9.22472 12.5638 9.32934 12.6253 9.40429 12.7161C9.47924 12.807 9.51971 12.9214 9.51858 13.0391C9.51744 13.1569 9.47477 13.2705 9.39809 13.3599L7.93509 15.0399L12.1671 12.5999C12.2708 12.5411 12.3921 12.5214 12.5091 12.5442C12.6261 12.567 12.7311 12.6308 12.8052 12.7242C12.8793 12.8176 12.9176 12.9344 12.9132 13.0535C12.9087 13.1726 12.8619 13.2863 12.7811 13.3739L11.4001 14.8479L15.3001 12.5979C15.4078 12.537 15.5342 12.5181 15.655 12.545C15.7758 12.5719 15.8823 12.6427 15.954 12.7435C16.0256 12.8444 16.0573 12.9683 16.0429 13.0912C16.0285 13.2141 15.9691 13.3273 15.8761 13.4089L15.3511 13.8599L17.5351 12.5999C17.6366 12.5412 17.7555 12.5201 17.8711 12.5402C17.9866 12.5603 18.0914 12.6204 18.1671 12.7099C18.2424 12.7999 18.2837 12.9135 18.2837 13.0309C18.2837 13.1483 18.2424 13.2619 18.1671 13.3519L16.6801 15.1409L21.0801 12.5999C21.1798 12.5428 21.2962 12.5219 21.4096 12.5406C21.523 12.5593 21.6265 12.6164 21.7027 12.7025C21.7789 12.7885 21.8231 12.8982 21.8279 13.013C21.8327 13.1278 21.7978 13.2408 21.7291 13.3329L20.2401 15.3089L22.7141 13.8809C22.8141 13.8241 22.9307 13.8035 23.0441 13.8226C23.1575 13.8417 23.2609 13.8994 23.3368 13.9858C23.4127 14.0723 23.4564 14.1823 23.4607 14.2972C23.4649 14.4122 23.4294 14.5251 23.3601 14.6169L22.8261 15.3169C22.9436 15.2828 23.0695 15.2929 23.18 15.3454C23.2905 15.3979 23.378 15.4891 23.4258 15.6017C23.4736 15.7143 23.4784 15.8405 23.4394 15.9565C23.4004 16.0724 23.3202 16.1701 23.2141 16.2309L21.1831 17.3999C21.083 17.4572 20.9663 17.4783 20.8525 17.4594C20.7387 17.4405 20.635 17.3828 20.5589 17.2962C20.4827 17.2096 20.4389 17.0994 20.4347 16.9841C20.4306 16.8689 20.4664 16.7558 20.5361 16.6639L21.0461 15.9979L18.6161 17.3979C18.5163 17.4549 18.4 17.4759 18.2866 17.4572C18.1732 17.4385 18.0697 17.3814 17.9935 17.2953C17.9173 17.2093 17.8731 17.0996 17.8683 16.9848C17.8635 16.87 17.8984 16.757 17.9671 16.6649L19.4571 14.6879L14.7621 17.3999C14.6605 17.4585 14.5416 17.4796 14.4261 17.4594C14.3105 17.4392 14.2058 17.379 14.1301 17.2894C14.0545 17.1998 14.0127 17.0865 14.0121 16.9692C14.0116 16.8519 14.0523 16.7382 14.1271 16.6479L15.6141 14.8589L11.2141 17.3999C11.1376 17.4457 11.0502 17.4698 10.9611 17.4699Z" fill="#A6725C"/>
<path d="M56.1221 30.4698C56.0391 30.4698 55.9574 30.4491 55.8844 30.4096C55.8114 30.3701 55.7494 30.313 55.7039 30.2436C55.6585 30.1741 55.631 30.0944 55.6241 30.0117C55.6171 29.929 55.6309 29.8459 55.6641 29.7698L56.3701 28.1618L53.1161 30.0398C53.0113 30.0968 52.8896 30.1144 52.773 30.0895C52.6564 30.0646 52.5525 29.9989 52.4801 29.9041C52.4076 29.8094 52.3715 29.6919 52.3781 29.5728C52.3847 29.4538 52.4336 29.341 52.5161 29.2548L53.4101 28.3548L52.3611 28.9598C52.256 29.0182 52.1335 29.0368 52.0159 29.0122C51.8982 28.9876 51.7934 28.9215 51.7205 28.8259C51.6477 28.7304 51.6117 28.6118 51.6191 28.4918C51.6266 28.3719 51.677 28.2586 51.7611 28.1728L52.0681 27.8728C51.9523 27.8828 51.8369 27.8497 51.7441 27.7798C51.6665 27.7242 51.6064 27.6476 51.571 27.559C51.5355 27.4704 51.5262 27.3736 51.5441 27.2798L51.7981 26.0228C51.7145 25.9796 51.6451 25.9133 51.5981 25.8318C51.532 25.7172 51.514 25.581 51.5482 25.4532C51.5823 25.3254 51.6657 25.2163 51.7801 25.1498L52.1911 24.9118C52.2744 24.8634 52.37 24.8402 52.4662 24.8448C52.5625 24.8495 52.6554 24.8819 52.7337 24.9381C52.812 24.9943 52.8723 25.0719 52.9075 25.1617C52.9427 25.2514 52.9512 25.3494 52.9321 25.4438L52.7401 26.3908L54.7491 25.2318C54.8542 25.1711 54.9778 25.1507 55.0968 25.1745C55.2159 25.1982 55.3222 25.2644 55.3961 25.3608C55.4698 25.4572 55.506 25.577 55.4979 25.6981C55.4898 25.8192 55.438 25.9331 55.3521 26.0188L55.1901 26.1788L56.1581 25.6198C56.263 25.5622 56.3851 25.5441 56.5022 25.5688C56.6193 25.5936 56.7236 25.6595 56.7963 25.7546C56.8689 25.8498 56.905 25.9678 56.898 26.0873C56.891 26.2068 56.8413 26.3198 56.7581 26.4058L55.8581 27.3058L57.1811 26.5418C57.2723 26.4891 57.3779 26.4665 57.4827 26.4773C57.5876 26.4882 57.6863 26.5319 57.7648 26.6022C57.8434 26.6725 57.8977 26.7659 57.92 26.8689C57.9423 26.9719 57.9315 27.0793 57.8891 27.1758L57.1841 28.7828L57.7171 28.4758C57.8313 28.416 57.9643 28.4027 58.0881 28.4387C58.212 28.4746 58.3172 28.557 58.3817 28.6686C58.4462 28.7803 58.4651 28.9126 58.4345 29.0378C58.4038 29.1631 58.3259 29.2716 58.2171 29.3408L56.3721 30.3998C56.2963 30.4448 56.2101 30.4689 56.1221 30.4698Z" fill="#D7E8F7"/>
<path d="M12.9789 47.469C12.877 47.4689 12.7775 47.4377 12.6938 47.3796C12.6101 47.3214 12.5462 47.239 12.5106 47.1435C12.4751 47.048 12.4695 46.9439 12.4948 46.8451C12.52 46.7464 12.5749 46.6577 12.6519 46.591L13.6069 45.765L11.3999 47.039C11.2913 47.1008 11.1634 47.1197 11.0416 47.092C10.9197 47.0642 10.8127 46.9918 10.7415 46.889C10.6704 46.7863 10.6403 46.6606 10.6572 46.5368C10.6741 46.4129 10.7368 46.2999 10.8329 46.22L12.8269 44.586L10.0269 46.204C9.9182 46.265 9.7906 46.2833 9.66914 46.2551C9.54767 46.2269 9.44112 46.1544 9.37037 46.0517C9.29963 45.9491 9.2698 45.8237 9.28674 45.7001C9.30367 45.5766 9.36615 45.4638 9.46192 45.384L12.1779 43.175L8.99992 45.005C8.88919 45.069 8.75817 45.0881 8.63378 45.0584C8.50939 45.0287 8.4011 44.9525 8.33118 44.8455C8.26125 44.7384 8.23501 44.6086 8.25784 44.4828C8.28067 44.357 8.35084 44.2447 8.45392 44.169L9.05392 43.731L8.54592 44.024C8.43571 44.0871 8.3056 44.106 8.18201 44.0767C8.05842 44.0474 7.95062 43.9721 7.88049 43.8662C7.81035 43.7603 7.78315 43.6317 7.80441 43.5065C7.82566 43.3813 7.89378 43.2688 7.99492 43.192L8.98592 42.445L8.30492 42.839C8.19743 42.9005 8.07095 42.9199 7.94997 42.8935C7.82899 42.8671 7.72212 42.7967 7.65005 42.696C7.57798 42.5953 7.54584 42.4714 7.55986 42.3484C7.57387 42.2254 7.63305 42.1119 7.72592 42.03L9.89492 40.13L8.52192 40.922C8.41555 40.9798 8.29181 40.997 8.17369 40.9705C8.05557 40.944 7.95109 40.8755 7.87963 40.7778C7.80817 40.6801 7.77459 40.5597 7.78513 40.4391C7.79566 40.3185 7.8496 40.2058 7.93692 40.122L9.04892 39.122C8.97444 39.0772 8.91292 39.0137 8.87044 38.9379C8.82797 38.862 8.806 38.7764 8.80671 38.6895C8.80741 38.6026 8.83077 38.5173 8.87448 38.4422C8.91818 38.367 8.98072 38.3046 9.05592 38.261L11.7369 36.713C11.8433 36.6552 11.967 36.638 12.0851 36.6645C12.2033 36.691 12.3078 36.7595 12.3792 36.8572C12.4507 36.9549 12.4843 37.0753 12.4737 37.1959C12.4632 37.3165 12.4092 37.4291 12.3219 37.513L12.1219 37.69L13.8099 36.717C13.9173 36.6566 14.0431 36.638 14.1634 36.6646C14.2836 36.6913 14.3898 36.7614 14.4615 36.8615C14.5333 36.9616 14.5655 37.0847 14.5521 37.2071C14.5387 37.3296 14.4806 37.4428 14.3889 37.525L12.2199 39.425L15.5729 37.489C15.6831 37.4259 15.8132 37.407 15.9368 37.4363C16.0604 37.4656 16.1682 37.5409 16.2384 37.6468C16.3085 37.7527 16.3357 37.8813 16.3144 38.0065C16.2932 38.1317 16.2251 38.2442 16.1239 38.321L15.1239 39.071L16.4709 38.294C16.5816 38.2315 16.7119 38.2136 16.8353 38.2437C16.9588 38.2739 17.0661 38.3499 17.1355 38.4564C17.2049 38.5628 17.2312 38.6917 17.209 38.8168C17.1868 38.942 17.1177 39.0539 17.0159 39.13L16.4219 39.566L17.0929 39.179C17.2016 39.1179 17.3292 39.0997 17.4507 39.1279C17.5722 39.1561 17.6787 39.2286 17.7495 39.3313C17.8202 39.4339 17.85 39.5593 17.8331 39.6829C17.8162 39.8064 17.7537 39.9192 17.6579 39.999L14.9499 42.2L17.6289 40.654C17.7377 40.5907 17.8663 40.5708 17.9892 40.5982C18.112 40.6256 18.22 40.6984 18.2915 40.8019C18.3631 40.9054 18.393 41.0321 18.3753 41.1566C18.3576 41.2812 18.2935 41.3946 18.1959 41.474L16.1999 43.111L17.6629 42.267C17.7705 42.2063 17.8968 42.1875 18.0173 42.2143C18.1379 42.2411 18.2443 42.3117 18.316 42.4123C18.3877 42.5129 18.4196 42.6365 18.4055 42.7592C18.3915 42.882 18.3325 42.9952 18.2399 43.077L17.1919 43.983C17.2959 43.9599 17.4046 43.9706 17.5021 44.0136C17.5996 44.0566 17.6808 44.1296 17.7339 44.222C17.8 44.3366 17.8179 44.4728 17.7838 44.6006C17.7497 44.7284 17.6663 44.8375 17.5519 44.904L13.2259 47.404C13.1508 47.4471 13.0656 47.4695 12.9789 47.469Z" fill="#9DBF69"/>
<path d="M48.9074 47.4648C48.8076 47.4648 48.7101 47.4349 48.6274 47.3791C48.5447 47.3232 48.4806 47.2438 48.4434 47.1512C48.4062 47.0586 48.3976 46.957 48.4186 46.8594C48.4396 46.7619 48.4894 46.6728 48.5614 46.6038L50.6684 44.5748L46.8524 46.7748C46.7427 46.8374 46.6134 46.8562 46.4904 46.8273C46.3674 46.7985 46.2599 46.7241 46.1895 46.6193C46.1191 46.5144 46.091 46.3868 46.1108 46.262C46.1306 46.1373 46.1969 46.0246 46.2964 45.9468L47.6514 44.8998L45.7764 45.9818C45.6684 46.0434 45.5413 46.0624 45.4199 46.0353C45.2985 46.0082 45.1916 45.9369 45.12 45.8352C45.0484 45.7335 45.0173 45.6088 45.0327 45.4854C45.0482 45.362 45.109 45.2487 45.2034 45.1678L48.5034 42.3678L44.7494 44.5348C44.6392 44.5979 44.5091 44.6168 44.3855 44.5875C44.2619 44.5582 44.1541 44.4829 44.084 44.377C44.0139 44.2711 43.9867 44.1425 44.0079 44.0173C44.0292 43.892 44.0973 43.7796 44.1984 43.7028L45.4454 42.7638L44.3764 43.3798C44.2684 43.4414 44.1413 43.4604 44.0199 43.4333C43.8985 43.4062 43.7916 43.3349 43.72 43.2332C43.6484 43.1315 43.6173 43.0068 43.6327 42.8834C43.6482 42.76 43.709 42.6467 43.8034 42.5658L46.1854 40.5448L44.3574 41.5998C44.2531 41.66 44.1304 41.6806 44.0121 41.6576C43.8938 41.6346 43.7878 41.5697 43.7136 41.4748C43.6393 41.3799 43.6019 41.2613 43.6081 41.141C43.6143 41.0206 43.6638 40.9065 43.7474 40.8198L45.3224 39.1838C45.2319 39.1862 45.1424 39.1643 45.0633 39.1203C44.9841 39.0763 44.9182 39.0119 44.8724 38.9338C44.8061 38.8189 44.7882 38.6825 44.8225 38.5544C44.8568 38.4263 44.9406 38.3171 45.0554 38.2508L47.7364 36.7028C47.8407 36.6426 47.9632 36.622 48.0814 36.6448C48.1996 36.6677 48.3056 36.7324 48.3799 36.8272C48.4542 36.9219 48.4919 37.0403 48.4859 37.1605C48.4799 37.2808 48.4308 37.3949 48.3474 37.4818L46.9194 38.9668L50.4844 36.9078C50.5925 36.8452 50.7201 36.8253 50.8421 36.852C50.9641 36.8788 51.0717 36.9502 51.1437 37.0523C51.2156 37.1544 51.2468 37.2797 51.231 37.4036C51.2153 37.5275 51.1537 37.641 51.0584 37.7218L48.6744 39.7448L52.0094 37.8198C52.1196 37.7566 52.2497 37.7378 52.3733 37.7671C52.4969 37.7964 52.6047 37.8716 52.6749 37.9775C52.745 38.0834 52.7722 38.2121 52.7509 38.3373C52.7297 38.4625 52.6616 38.575 52.5604 38.6518L51.3144 39.5908L52.8194 38.7228C52.9275 38.6602 53.0551 38.6403 53.1771 38.667C53.2991 38.6938 53.4067 38.7652 53.4787 38.8673C53.5506 38.9694 53.5818 39.0947 53.566 39.2186C53.5503 39.3425 53.4887 39.456 53.3934 39.5368L50.0934 42.3368L53.5644 40.3368C53.6741 40.2754 53.8029 40.2575 53.9251 40.2868C54.0473 40.316 54.1541 40.3902 54.224 40.4946C54.294 40.5991 54.3221 40.726 54.3027 40.8502C54.2833 40.9743 54.2179 41.0867 54.1194 41.1648L52.7644 42.2138L53.7174 41.6638C53.8232 41.6001 53.9488 41.5778 54.07 41.6012C54.1913 41.6246 54.2995 41.692 54.374 41.7905C54.4485 41.8889 54.484 42.0115 54.4735 42.1345C54.4631 42.2575 54.4075 42.3723 54.3174 42.4568L52.2114 44.4838L53.0984 43.9728C53.2127 43.913 53.3456 43.8997 53.4695 43.9356C53.5934 43.9716 53.6985 44.054 53.7631 44.1656C53.8276 44.2773 53.8465 44.4095 53.8158 44.5348C53.7851 44.66 53.7073 44.7686 53.5984 44.8378L49.1574 47.3998C49.0814 47.4434 48.9951 47.4659 48.9074 47.4648Z" fill="#9DBF69"/>
<path d="M0.273363 33.9C0.484363 40.943 -1.71764 44.447 7.43936 43.44C8.72036 48.793 17.0394 48.269 18.4584 43.332H26.4134C31.9934 43.371 37.7784 43.304 43.4224 43.332C44.7004 49.228 54.2004 48.01 54.6724 42.3C56.3094 42.132 59.4314 43.011 59.7254 40.686C59.6564 39.662 60.1124 37.999 58.7254 37.76C59.4934 20.9 57.5004 26.5 42.6414 23.618C38.2884 13.836 40.2784 14.192 29.1854 14.577C23.9274 14.992 27.0854 24.827 26.2744 28.563H22.7244V25.094C24.0934 24.532 24.3384 21.133 22.7244 20.683V17.23C24.0594 16.598 24.2024 13.671 23.0714 12.755C22.2624 12.273 20.7774 12.536 19.9004 12.536C14.3724 12.551 8.84136 12.513 3.31436 12.536C0.900363 12.261 0.310363 16.619 2.27636 17.363V20.893C0.827363 21.441 0.617363 24.885 2.27636 25.278V28.749C-0.118637 29.274 0.160363 32.024 0.273363 33.9ZM14.4134 46.532C7.70036 48.34 6.65536 36.043 13.7584 37.475C17.9424 38.5 18.5384 45.023 14.4134 46.532ZM50.4254 46.577C45.2034 47.977 42.4554 39.761 47.3144 37.531C52.7454 35.643 55.7294 44.583 50.4254 46.577ZM57.6814 41.7H54.7154C54.67 40.4244 54.1497 39.2117 53.2564 38.3H57.3644C57.4379 38.3576 57.5227 38.3991 57.6134 38.4217C57.704 38.4443 57.7984 38.4474 57.8904 38.431C58.4284 38.779 58.2774 39.615 58.2764 40.162C58.2764 40.618 58.4084 41.324 58.0964 41.707L57.6814 41.7ZM58.4814 41.7C58.9814 41.581 58.5954 41.689 58.4814 41.7ZM55.0414 26.093C56.8844 26.477 57.2414 27.993 57.2684 29.551C53.9194 29.733 52.2484 29.751 52.7274 25.793C53.5034 25.8527 54.2758 25.9528 55.0414 26.093ZM36.1294 15.428C38.8544 15.928 39.5504 21.264 40.8614 23.528C31.8444 23.698 32.5334 24.45 32.7294 15.417C33.8624 15.405 35.0004 15.369 36.1294 15.428ZM28.7484 15.428C29.5834 15.3004 30.4322 15.2889 31.2704 15.394C30.1354 29.881 34.5704 22.045 51.2704 25.621C50.6064 30.64 53.1274 30.665 57.2704 30.448V37.694C55.7034 37.709 54.1384 37.703 52.5704 37.704C48.9944 35.049 42.7394 38.023 43.3054 42.668H27.7264V20.341C27.7264 19.22 27.2004 15.8 28.7484 15.428ZM18.7244 28.563V25.347H21.2764V28.563H18.7244ZM4.42436 17.463H6.27436V20.644C5.42536 20.633 4.57436 20.622 3.72636 20.644V17.483C3.97436 17.475 4.21536 17.464 4.42236 17.464L4.42436 17.463ZM19.9354 20.652H18.7244V17.464H21.2744V20.585C20.7774 20.607 20.2944 20.653 19.9334 20.653L19.9354 20.652ZM17.2784 20.652H7.72836V17.464H17.2764L17.2784 20.652ZM3.52136 24.668C2.38736 24.668 2.72136 22.736 2.72136 22.014C2.28436 20.714 5.52136 21.57 6.41436 21.347C11.4494 21.457 16.7564 21.186 21.8384 21.422C22.5684 21.677 22.3784 24.25 22.1294 24.653C15.9274 24.666 9.72636 24.627 3.52136 24.668ZM10.3264 25.347H17.2764V28.563C14.0924 28.563 10.9084 28.563 7.72436 28.563V25.347H10.3264ZM2.72636 14.078C2.77436 13.43 2.60436 13.49 3.14736 13.464C9.40036 13.7 16.0004 12.992 22.0884 13.722C22.3054 13.992 22.5014 16.451 22.0884 16.536H3.95236C2.50736 16.946 2.60036 15.031 2.72936 14.078H2.72636ZM3.72636 25.368C4.60636 25.327 5.41036 25.354 6.27836 25.347V28.5C5.42883 28.4412 4.57638 28.4375 3.72636 28.489V25.368ZM1.72636 30.925C1.87236 29.313 2.82636 29.437 3.98536 29.437H26.2744V42.668H18.6334C19.8644 34.779 6.71236 35 7.30036 42.563C5.54436 42.274 2.78336 43.412 1.82336 41.437C1.58382 37.9379 1.55176 34.4278 1.72736 30.925H1.72636Z" fill="#592B02"/>
</svg>
