<svg width="60" height="60" viewBox="0 0 60 60" fill="none" xmlns="http://www.w3.org/2000/svg">
<g clip-path="url(#clip0_75_27129)">
<path d="M29.9259 12.0708C29.8521 12.0708 29.7797 12.0511 29.716 12.0139C29.6523 11.9767 29.5996 11.9232 29.5633 11.859C29.5271 11.7948 29.5085 11.722 29.5095 11.6483C29.5106 11.5745 29.5312 11.5023 29.5693 11.4391L30.4534 9.9808L28.5668 11.0691C28.4812 11.1176 28.3812 11.1343 28.2845 11.1161C28.1878 11.098 28.1006 11.0462 28.0385 10.9699C27.9763 10.8937 27.9431 10.7979 27.9448 10.6995C27.9464 10.6012 27.9829 10.5066 28.0476 10.4325L29.6126 8.6733L28.5668 9.27747C28.478 9.33146 28.3722 9.35033 28.2702 9.33037C28.1682 9.31041 28.0774 9.25307 28.0155 9.16959C27.9536 9.0861 27.9252 8.98251 27.9358 8.87913C27.9463 8.77576 27.9951 8.68006 28.0726 8.6108L28.4959 8.21247C28.4174 8.23971 28.3324 8.24282 28.2521 8.2214C28.1717 8.19999 28.0996 8.15502 28.0451 8.09228C27.9905 8.02955 27.9559 7.95192 27.9458 7.86938C27.9357 7.78685 27.9506 7.70318 27.9884 7.62914L28.3993 6.8308C28.3081 6.82977 28.2198 6.79885 28.1479 6.7428C28.0759 6.68675 28.0244 6.60866 28.0011 6.5205C27.9779 6.43234 27.9841 6.33899 28.019 6.25475C28.0539 6.17051 28.1155 6.10003 28.1943 6.05414L29.1618 5.49997C29.2396 5.45535 29.3298 5.43706 29.4189 5.44784C29.508 5.45861 29.5913 5.49788 29.6563 5.55978C29.7213 5.62168 29.7645 5.70291 29.7796 5.79139C29.7947 5.87986 29.7809 5.97085 29.7401 6.0508L29.3784 6.75414L31.1718 5.71664C31.2605 5.66264 31.3663 5.64378 31.4683 5.66374C31.5703 5.6837 31.6611 5.74104 31.723 5.82452C31.7849 5.90801 31.8133 6.0116 31.8028 6.11497C31.7922 6.21835 31.7434 6.31405 31.6659 6.3833L31.2668 6.7583L31.4334 6.66164C31.5191 6.61263 31.6194 6.59564 31.7165 6.6137C31.8135 6.63175 31.901 6.68368 31.9634 6.76022C32.0257 6.83677 32.0588 6.93296 32.0568 7.03166C32.0549 7.13035 32.0179 7.22514 31.9526 7.29914L30.3868 9.05747L31.4418 8.44914C31.5218 8.40306 31.6148 8.38486 31.7063 8.3974C31.7977 8.40993 31.8825 8.45249 31.9471 8.51839C32.0118 8.58429 32.0527 8.6698 32.0635 8.76149C32.0743 8.85318 32.0543 8.94586 32.0068 9.02497L31.1243 10.4816L31.4534 10.2925C31.5008 10.2623 31.5539 10.2421 31.6093 10.233C31.6648 10.2238 31.7215 10.226 31.7761 10.2394C31.8307 10.2528 31.882 10.277 31.9269 10.3108C31.9719 10.3445 32.0096 10.3869 32.0377 10.4356C32.0658 10.4842 32.0838 10.5381 32.0906 10.5939C32.0974 10.6496 32.0928 10.7062 32.0771 10.7602C32.0615 10.8142 32.0351 10.8644 31.9995 10.9079C31.9639 10.9514 31.9199 10.9873 31.8701 11.0133L30.1343 12.0133C30.0713 12.0509 29.9993 12.0707 29.9259 12.0708Z" fill="#DDA019"/>
<path d="M29.2066 54.5475C29.1174 54.5474 29.0307 54.5188 28.959 54.4657C28.8874 54.4127 28.8346 54.3381 28.8085 54.2529C28.7824 54.1676 28.7843 54.0763 28.8139 53.9922C28.8436 53.9081 28.8994 53.8358 28.9732 53.7858L31.1507 52.3092L27.5224 54.4033C27.4308 54.4552 27.323 54.4704 27.2206 54.446C27.1182 54.4216 27.0288 54.3593 26.9705 54.2717C26.9121 54.1841 26.8891 54.0777 26.906 53.9738C26.9229 53.8699 26.9785 53.7762 27.0616 53.7117L32.2049 49.785L24.7674 54.0833C24.6752 54.1354 24.5666 54.1504 24.4637 54.1252C24.3608 54.1001 24.2714 54.0367 24.2136 53.948C24.1557 53.8593 24.1339 53.7519 24.1524 53.6476C24.1709 53.5433 24.2284 53.45 24.3132 53.3867L28.3816 50.4108L22.7416 53.6667C22.6488 53.7181 22.5398 53.7321 22.437 53.7059C22.3342 53.6798 22.2452 53.6154 22.1882 53.5259C22.1313 53.4364 22.1106 53.3285 22.1304 53.2243C22.1502 53.1201 22.2091 53.0273 22.2949 52.965L24.5291 51.4067L21.3207 53.2575C21.2279 53.3102 21.1183 53.3252 21.0147 53.2995C20.911 53.2737 20.8212 53.2092 20.7638 53.1191C20.7064 53.0291 20.6858 52.9205 20.7061 52.8156C20.7265 52.7108 20.7863 52.6178 20.8732 52.5558L22.6882 51.2833L20.0599 52.8C19.9686 52.8509 19.8616 52.8656 19.7599 52.8412C19.6583 52.8169 19.5696 52.7552 19.5113 52.6685C19.4529 52.5818 19.4294 52.4763 19.4452 52.373C19.461 52.2697 19.515 52.1762 19.5966 52.1108L22.8332 49.5942L18.5066 52.0942C18.4138 52.1477 18.3039 52.1634 18.1998 52.138C18.0958 52.1127 18.0054 52.0482 17.9476 51.958C17.8898 51.8678 17.869 51.7589 17.8894 51.6537C17.9099 51.5485 17.97 51.4553 18.0574 51.3933L18.5674 51.0317L17.6057 51.5867C17.5139 51.6393 17.4055 51.655 17.3025 51.6306C17.1995 51.6061 17.1097 51.5434 17.0512 51.4552C16.9928 51.3669 16.9701 51.2598 16.9878 51.1554C17.0055 51.051 17.0623 50.9573 17.1466 50.8933L18.3782 49.9667L16.6532 50.9617C16.5616 51.0128 16.4539 51.0275 16.3519 51.0027C16.2499 50.978 16.1609 50.9156 16.1029 50.8281C16.0449 50.7406 16.0221 50.6344 16.039 50.5308C16.0559 50.4271 16.1113 50.3337 16.1941 50.2692L16.7166 49.8733L15.8716 50.3608C15.7846 50.4117 15.6821 50.4293 15.5832 50.4104C15.4842 50.3915 15.3955 50.3373 15.3333 50.258C15.2712 50.1787 15.2399 50.0796 15.2453 49.979C15.2506 49.8784 15.2922 49.7831 15.3624 49.7108L16.9916 48.0167L14.7499 49.3075C14.6649 49.3567 14.5652 49.3742 14.4684 49.3571C14.3717 49.3399 14.2841 49.2891 14.2212 49.2136C14.1583 49.1381 14.1241 49.0429 14.1246 48.9446C14.1252 48.8464 14.1604 48.7515 14.2241 48.6767L15.0116 47.7542L13.9507 48.3658C13.8716 48.4114 13.7797 48.4297 13.6891 48.418C13.5985 48.4062 13.5143 48.365 13.4495 48.3007C13.3846 48.2364 13.3426 48.1526 13.3301 48.0621C13.3175 47.9716 13.335 47.8795 13.3799 47.8L13.6591 47.3083L13.3541 47.4825C13.293 47.5178 13.2241 47.5371 13.1536 47.5384C13.0831 47.5398 13.0134 47.5233 12.951 47.4904C12.8887 47.4575 12.8357 47.4093 12.797 47.3504C12.7583 47.2914 12.7352 47.2236 12.7299 47.1533L12.7032 46.7883C12.6159 46.7792 12.5337 46.7426 12.4684 46.684C12.403 46.6253 12.3579 46.5475 12.3394 46.4616C12.3209 46.3758 12.33 46.2863 12.3655 46.2059C12.4009 46.1256 12.4607 46.0585 12.5366 46.0142L12.8699 45.8225C12.9312 45.7871 13.0006 45.7679 13.0714 45.7667C13.1422 45.7655 13.2121 45.7824 13.2746 45.8158C13.3371 45.8491 13.39 45.8978 13.4284 45.9574C13.4668 46.0169 13.4894 46.0852 13.4941 46.1558L13.5149 46.4333L14.5657 45.8258C14.6447 45.7804 14.7363 45.7621 14.8265 45.7737C14.9168 45.7853 15.0009 45.8261 15.0657 45.89C15.1305 45.9542 15.1725 46.0379 15.1851 46.1282C15.1977 46.2185 15.1804 46.3105 15.1357 46.39L14.8574 46.8825L16.6907 45.8242C16.7758 45.775 16.8755 45.7574 16.9722 45.7746C17.069 45.7918 17.1565 45.8426 17.2194 45.9181C17.2823 45.9935 17.3165 46.0888 17.316 46.187C17.3155 46.2853 17.2803 46.3802 17.2166 46.455L16.4299 47.3783L19.1207 45.8242C19.2077 45.7733 19.3102 45.7557 19.4091 45.7746C19.5081 45.7935 19.5969 45.8476 19.659 45.927C19.7211 46.0063 19.7524 46.1054 19.7471 46.206C19.7417 46.3066 19.7001 46.4019 19.6299 46.4742L17.9999 48.1667L22.0607 45.8225C22.1524 45.7713 22.26 45.7567 22.3621 45.7814C22.4641 45.8062 22.553 45.8686 22.6111 45.9561C22.6691 46.0436 22.6919 46.1498 22.675 46.2534C22.6581 46.357 22.6027 46.4505 22.5199 46.515L21.9999 46.9092L23.8832 45.8258C23.9751 45.7732 24.0835 45.7575 24.1865 45.7819C24.2895 45.8063 24.3793 45.869 24.4378 45.9573C24.4962 46.0455 24.5189 46.1527 24.5012 46.2571C24.4835 46.3614 24.4267 46.4551 24.3424 46.5192L23.1107 47.4467L25.9174 45.8258C26.0103 45.7705 26.121 45.7534 26.2262 45.7782C26.3314 45.803 26.4229 45.8677 26.4813 45.9586C26.5397 46.0496 26.5605 46.1597 26.5392 46.2657C26.518 46.3717 26.4564 46.4652 26.3674 46.5267L25.8566 46.8883L27.6966 45.8258C27.7879 45.774 27.8954 45.7585 27.9976 45.7826C28.0998 45.8066 28.1892 45.8683 28.2479 45.9554C28.3065 46.0425 28.3301 46.1485 28.314 46.2523C28.2978 46.356 28.2431 46.4499 28.1607 46.515L24.9199 49.0308L30.4716 45.8258C30.5645 45.7731 30.674 45.7581 30.7776 45.7839C30.8813 45.8096 30.9711 45.8741 31.0285 45.9642C31.0859 46.0542 31.1066 46.1629 31.0862 46.2677C31.0658 46.3725 31.006 46.4655 30.9191 46.5275L29.1091 47.7975L32.5257 45.8258C32.6187 45.7725 32.7288 45.757 32.8329 45.7827C32.937 45.8083 33.0272 45.8732 33.0847 45.9636C33.1423 46.0541 33.1627 46.1633 33.1418 46.2685C33.1209 46.3737 33.0602 46.4667 32.9724 46.5283L30.7432 48.0833L34.6599 45.8242C34.7521 45.7721 34.8607 45.7571 34.9636 45.7823C35.0665 45.8074 35.1559 45.8708 35.2137 45.9595C35.2716 46.0482 35.2935 46.1556 35.2749 46.2599C35.2564 46.3641 35.1989 46.4574 35.1141 46.5208L31.0399 49.5L37.4024 45.8258C37.4941 45.7729 37.6024 45.7568 37.7055 45.7809C37.8086 45.8049 37.8986 45.8673 37.9574 45.9553C38.0161 46.0433 38.0392 46.1504 38.0219 46.2548C38.0045 46.3593 37.9481 46.4532 37.8641 46.5175L32.7182 50.4417L40.7182 45.8225C40.8118 45.7671 40.9232 45.7504 41.0289 45.776C41.1345 45.8017 41.2259 45.8675 41.2837 45.9596C41.3414 46.0517 41.3609 46.1628 41.3379 46.269C41.3149 46.3752 41.2514 46.4683 41.1607 46.5283L38.9882 48L42.7632 45.82C42.8565 45.7633 42.9682 45.7454 43.0745 45.7702C43.1808 45.795 43.2731 45.8605 43.3316 45.9526C43.3901 46.0447 43.4101 46.1561 43.3873 46.2628C43.3646 46.3695 43.3009 46.4631 43.2099 46.5233L40.0307 48.7292L45.0691 45.82C45.1626 45.7683 45.2725 45.7546 45.3759 45.7817C45.4793 45.8087 45.5684 45.8745 45.6246 45.9653C45.6809 46.0562 45.7002 46.1652 45.6783 46.2698C45.6565 46.3745 45.5953 46.4667 45.5074 46.5275L44.8332 46.9758L46.8332 45.82C46.9245 45.765 47.0334 45.7472 47.1375 45.77C47.2416 45.7929 47.3329 45.8547 47.3928 45.9429C47.4527 46.031 47.4765 46.1388 47.4594 46.2439C47.4422 46.3491 47.3855 46.4437 47.3007 46.5083L43.0916 49.8392L45.2307 48.6042C45.2782 48.574 45.3312 48.5538 45.3866 48.5446C45.4421 48.5355 45.4988 48.5377 45.5534 48.5511C45.608 48.5645 45.6593 48.5887 45.7043 48.6224C45.7492 48.6562 45.7869 48.6986 45.815 48.7473C45.8431 48.7959 45.8611 48.8498 45.8679 48.9055C45.8747 48.9613 45.8701 49.0179 45.8544 49.0719C45.8388 49.1259 45.8124 49.1761 45.7768 49.2196C45.7412 49.2631 45.6972 49.2989 45.6474 49.325L38.5524 53.4217C38.4612 53.4749 38.3533 53.4916 38.2503 53.4683C38.1473 53.445 38.057 53.3835 37.9976 53.2962C37.9382 53.2089 37.9142 53.1023 37.9304 52.998C37.9466 52.8936 38.0018 52.7993 38.0849 52.7342L42.2966 49.405L33.7699 54.3275C33.6767 54.3753 33.5689 54.3862 33.4679 54.3581C33.367 54.33 33.2804 54.2649 33.2253 54.1758C33.1702 54.0866 33.1507 53.98 33.1708 53.8772C33.1908 53.7743 33.2488 53.6828 33.3332 53.6208L34.0082 53.1717L31.7624 54.4675C31.6695 54.5194 31.5602 54.5338 31.4569 54.5077C31.3537 54.4816 31.2644 54.4169 31.2074 54.327C31.1503 54.2371 31.1298 54.1288 31.1501 54.0243C31.1705 53.9198 31.23 53.827 31.3166 53.765L34.4949 51.56L29.4166 54.4917C29.3528 54.5287 29.2803 54.548 29.2066 54.5475Z" fill="#DDA019"/>
<path d="M17.6608 18.7498C17.5727 18.7498 17.4867 18.7219 17.4154 18.67C17.3442 18.6181 17.2912 18.5449 17.2641 18.461C17.2371 18.377 17.2373 18.2867 17.2649 18.2029C17.2925 18.1191 17.3459 18.0463 17.4175 17.9948L22.1867 14.5673L16.065 18.1007C15.9713 18.1563 15.8594 18.1731 15.7535 18.1472C15.6476 18.1214 15.556 18.0551 15.4984 17.9625C15.4408 17.8699 15.4218 17.7584 15.4455 17.652C15.4692 17.5455 15.5336 17.4526 15.625 17.3932L16.6358 16.7182L16.0633 17.0473C15.9711 17.0994 15.8625 17.1143 15.7597 17.0892C15.6568 17.0641 15.5673 17.0007 15.5095 16.912C15.4517 16.8233 15.4298 16.7159 15.4483 16.6116C15.4668 16.5073 15.5243 16.414 15.6092 16.3507L18.28 14.3982L17.0075 15.1323C16.9163 15.1838 16.809 15.1991 16.7071 15.1751C16.6051 15.1511 16.5159 15.0896 16.4573 15.0028C16.3986 14.916 16.3748 14.8103 16.3906 14.7067C16.4064 14.6032 16.4607 14.5094 16.5425 14.444L18.37 13.0082C18.3105 12.9717 18.2609 12.921 18.2258 12.8607C18.1706 12.765 18.1556 12.6512 18.1842 12.5445C18.2128 12.4377 18.2826 12.3467 18.3783 12.2915L21.8167 10.3065C21.9079 10.255 22.0151 10.2397 22.1171 10.2637C22.2191 10.2877 22.3083 10.3492 22.3669 10.436C22.4255 10.5228 22.4493 10.6285 22.4335 10.7321C22.4177 10.8356 22.3635 10.9294 22.2817 10.9948L21.655 11.4873L24.5608 9.81065C24.6529 9.76008 24.7607 9.74614 24.8626 9.77162C24.9645 9.79711 25.053 9.86014 25.1104 9.9481C25.1678 10.0361 25.1899 10.1425 25.1722 10.246C25.1545 10.3495 25.0984 10.4426 25.015 10.5065L22.3417 12.4598L27.1192 9.70232C27.2127 9.6499 27.3228 9.63554 27.4266 9.66221C27.5304 9.68889 27.62 9.75455 27.6766 9.84554C27.7333 9.93653 27.7527 10.0459 27.7308 10.1508C27.7089 10.2557 27.6475 10.3482 27.5592 10.409L26.5592 11.0807L28.9992 9.66648C29.0916 9.61468 29.2003 9.60003 29.3031 9.62551C29.406 9.651 29.4952 9.7147 29.5528 9.80366C29.6103 9.89263 29.6318 10.0002 29.6129 10.1044C29.5939 10.2087 29.536 10.3018 29.4508 10.3648L24.6825 13.7932L31.8025 9.68232C31.8953 9.62881 32.0052 9.61309 32.1092 9.63844C32.2133 9.66379 32.3036 9.72825 32.3614 9.81845C32.4193 9.90864 32.4401 10.0176 32.4197 10.1228C32.3992 10.2279 32.3391 10.3212 32.2517 10.3832L27.8808 13.4798L34.3092 9.76899C34.4014 9.71568 34.5106 9.69975 34.6143 9.72448C34.7179 9.74921 34.8082 9.81271 34.8665 9.90193C34.9247 9.99115 34.9466 10.0993 34.9276 10.2042C34.9086 10.309 34.8501 10.4026 34.7642 10.4657L29.7567 14.1323L36.84 10.044C36.9332 9.99288 37.0425 9.97934 37.1453 10.0061C37.2482 10.0329 37.337 10.0981 37.3934 10.1881C37.4498 10.2782 37.4697 10.3865 37.4489 10.4908C37.4282 10.595 37.3683 10.6874 37.2817 10.749L35.2742 12.1123L38.1625 10.4457C38.2557 10.3924 38.3659 10.3771 38.4701 10.4031C38.5743 10.4291 38.6644 10.4943 38.7217 10.5851C38.779 10.6759 38.799 10.7853 38.7776 10.8906C38.7561 10.9958 38.6949 11.0886 38.6067 11.1498L36.3325 12.7123L39.3325 10.9807C39.4257 10.9295 39.535 10.916 39.6378 10.9428C39.7407 10.9696 39.8295 11.0347 39.8859 11.1248C39.9423 11.2149 39.9622 11.3232 39.9414 11.4274C39.9207 11.5317 39.8608 11.6241 39.7742 11.6857L39.08 12.1565L40.2025 11.509C40.2944 11.4551 40.4034 11.4385 40.5072 11.4625C40.6109 11.4865 40.7016 11.5493 40.7605 11.6381C40.8193 11.7268 40.842 11.8347 40.8238 11.9397C40.8056 12.0446 40.7479 12.1386 40.6625 12.2023L37.5042 14.5882L41.3142 12.3882C41.407 12.3346 41.5168 12.3189 41.6209 12.3443C41.725 12.3696 41.8153 12.4341 41.8731 12.5243C41.9309 12.6145 41.9518 12.7235 41.9313 12.8286C41.9109 12.9338 41.8507 13.027 41.7633 13.089L41.29 13.4223L41.9567 13.039C42.0453 12.9908 42.1484 12.9765 42.2469 12.9986C42.3453 13.0207 42.4324 13.0777 42.4919 13.1592C42.5515 13.2406 42.5794 13.3409 42.5707 13.4414C42.5619 13.5419 42.5169 13.6358 42.4442 13.7057L39.9283 15.974L42.895 14.2615C42.9838 14.2099 43.0884 14.193 43.1889 14.2138C43.2894 14.2347 43.3787 14.2919 43.4396 14.3745C43.5005 14.4571 43.5288 14.5593 43.519 14.6614C43.5093 14.7636 43.4621 14.8586 43.3867 14.9282L42.12 16.1048L43.4875 15.3157C43.5682 15.2686 43.6623 15.25 43.7548 15.2628C43.8473 15.2757 43.9329 15.3193 43.9976 15.3865C44.0624 15.4538 44.1027 15.5409 44.1121 15.6338C44.1214 15.7268 44.0993 15.8202 44.0492 15.899L43.2908 17.109L43.9375 16.7365C44.0106 16.6946 44.0946 16.6758 44.1785 16.6827C44.2625 16.6895 44.3424 16.7216 44.4077 16.7747C44.473 16.8279 44.5207 16.8996 44.5445 16.9804C44.5683 17.0612 44.567 17.1473 44.5408 17.2273L44.3808 17.714C44.4395 17.7498 44.488 17.8 44.5217 17.8598C44.5767 17.9554 44.5915 18.069 44.5629 18.1755C44.5343 18.282 44.4646 18.3729 44.3692 18.4282L43.9525 18.6673C43.8794 18.7095 43.7953 18.7285 43.7112 18.7218C43.6271 18.7151 43.547 18.683 43.4815 18.6298C43.416 18.5766 43.3682 18.5048 43.3444 18.4239C43.3207 18.3429 43.322 18.2566 43.3483 18.1765L43.4058 18.004L42.2533 18.6707C42.1727 18.7177 42.0785 18.7363 41.986 18.7235C41.8935 18.7106 41.808 18.667 41.7432 18.5998C41.6784 18.5325 41.6381 18.4454 41.6288 18.3525C41.6194 18.2595 41.6416 18.1662 41.6917 18.0873L42.4508 16.8765L39.3417 18.6715C39.2529 18.7238 39.1479 18.7414 39.0469 18.7208C38.946 18.7002 38.8562 18.643 38.795 18.5601C38.7338 18.4772 38.7054 18.3746 38.7154 18.2721C38.7254 18.1695 38.7731 18.0743 38.8492 18.0048L40.1208 16.8332L36.925 18.6748C36.8364 18.723 36.7333 18.7373 36.6348 18.7152C36.5364 18.6931 36.4493 18.6361 36.3898 18.5546C36.3302 18.4732 36.3022 18.3729 36.311 18.2724C36.3198 18.1719 36.3647 18.078 36.4375 18.0082L38.9508 15.7423L33.86 18.6815C33.7672 18.735 33.6574 18.7507 33.5533 18.7254C33.4492 18.7 33.3589 18.6356 33.3011 18.5454C33.2433 18.4552 33.2224 18.3462 33.2429 18.241C33.2633 18.1359 33.3235 18.0426 33.4108 17.9807L33.8917 17.6407L32.0825 18.6798C31.9906 18.7337 31.8816 18.7503 31.7778 18.7263C31.6741 18.7023 31.5834 18.6395 31.5246 18.5507C31.4657 18.462 31.443 18.3541 31.4612 18.2491C31.4794 18.1442 31.5372 18.0502 31.6225 17.9865L34.7817 15.6007L29.4442 18.684C29.3507 18.7372 29.2403 18.7523 29.1361 18.726C29.0318 18.6997 28.9417 18.6342 28.8847 18.543C28.8276 18.4518 28.808 18.3421 28.83 18.2369C28.8519 18.1316 28.9138 18.0389 29.0025 17.9782L29.6983 17.5073L27.6592 18.6832C27.566 18.7364 27.4558 18.7517 27.3516 18.7257C27.2474 18.6997 27.1573 18.6345 27.1 18.5437C27.0427 18.4529 27.0227 18.3435 27.0441 18.2383C27.0655 18.133 27.1268 18.0402 27.215 17.979L29.4833 16.4165L25.555 18.684C25.4616 18.7372 25.3512 18.7523 25.2469 18.726C25.1426 18.6997 25.0525 18.6342 24.9955 18.543C24.9384 18.4518 24.9189 18.3421 24.9408 18.2369C24.9628 18.1316 25.0246 18.0389 25.1133 17.9782L27.1192 16.6207L23.5433 18.6857C23.4511 18.739 23.3419 18.7549 23.2382 18.7302C23.1346 18.7054 23.0443 18.6419 22.9861 18.5527C22.9278 18.4635 22.9059 18.3553 22.9249 18.2505C22.944 18.1456 23.0024 18.052 23.0883 17.989L28.0975 14.3223L20.53 18.6907C20.4372 18.7442 20.3274 18.7599 20.2233 18.7345C20.1192 18.7092 20.0289 18.6447 19.9711 18.5545C19.9133 18.4643 19.8924 18.3553 19.9129 18.2502C19.9333 18.145 19.9935 18.0518 20.0808 17.9898L24.4517 14.8932L17.8683 18.6932C17.8055 18.7302 17.7338 18.7498 17.6608 18.7498Z" fill="#DB9E36"/>
<path d="M17.5983 26.2498C17.509 26.2499 17.4221 26.2212 17.3503 26.1681C17.2785 26.1149 17.2257 26.0401 17.1997 25.9547C17.1736 25.8693 17.1757 25.7778 17.2056 25.6936C17.2355 25.6095 17.2917 25.5372 17.3658 25.4873L20.9291 23.0882L16.0841 25.8873C15.9919 25.9394 15.8833 25.9544 15.7805 25.9292C15.6776 25.9041 15.5881 25.8407 15.5303 25.752C15.4725 25.6633 15.4506 25.5559 15.4691 25.4516C15.4876 25.3474 15.5451 25.2541 15.63 25.1907L21.4508 20.9407L16.1258 24.0148C16.0335 24.0674 15.9245 24.0826 15.8213 24.0575C15.7181 24.0324 15.6283 23.9688 15.5704 23.8797C15.5125 23.7907 15.4909 23.6828 15.5098 23.5783C15.5288 23.4738 15.587 23.3804 15.6725 23.3173L18.8391 21.0198L14.5341 23.5048C14.4417 23.5579 14.3324 23.5735 14.2287 23.5484C14.1251 23.5234 14.0351 23.4595 13.9771 23.37C13.9191 23.2806 13.8976 23.1723 13.9171 23.0674C13.9365 22.9626 13.9954 22.8692 14.0816 22.8065L16.5191 21.0457L13.615 22.7223C13.5232 22.7757 13.4145 22.7921 13.3111 22.768C13.2077 22.744 13.1174 22.6814 13.0586 22.593C12.9998 22.5046 12.9769 22.3971 12.9947 22.2925C13.0124 22.1878 13.0695 22.0939 13.1541 22.0298L15.5583 20.204L12.99 21.6865C12.8977 21.7398 12.7885 21.7557 12.6849 21.731C12.5812 21.7063 12.491 21.6428 12.4327 21.5536C12.3744 21.4643 12.3526 21.3562 12.3716 21.2513C12.3906 21.1465 12.4491 21.0529 12.535 20.9898L13.025 20.6307L12.7625 20.7815C12.6727 20.8323 12.5673 20.848 12.4667 20.8256C12.3661 20.8032 12.2773 20.7442 12.2176 20.6601C12.1579 20.5761 12.1315 20.4729 12.1435 20.3704C12.1554 20.268 12.205 20.1737 12.2825 20.1057L13.6416 18.939L12.8608 19.3898C12.7721 19.4414 12.6674 19.4584 12.5669 19.4375C12.4664 19.4167 12.3771 19.3594 12.3162 19.2768C12.2553 19.1942 12.227 19.0921 12.2368 18.9899C12.2465 18.8877 12.2937 18.7927 12.3691 18.7232L13.2108 17.9415C13.1471 17.9051 13.0941 17.8524 13.0573 17.7889C13.0204 17.7254 13.001 17.6533 13.001 17.5798C13.001 17.5064 13.0204 17.4343 13.0573 17.3708C13.0941 17.3073 13.1471 17.2546 13.2108 17.2182L15.3175 15.9998C15.4062 15.9483 15.5109 15.9313 15.6114 15.9522C15.7119 15.973 15.8011 16.0302 15.8621 16.1129C15.923 16.1955 15.9513 16.2976 15.9415 16.3998C15.9317 16.502 15.8846 16.5969 15.8091 16.6665L15.6425 16.8215L17.0758 15.9932C17.1657 15.9414 17.2716 15.925 17.3729 15.9472C17.4742 15.9694 17.5636 16.0286 17.6236 16.1132C17.6836 16.1977 17.7099 16.3017 17.6974 16.4046C17.6849 16.5076 17.6344 16.6021 17.5558 16.6698L16.1975 17.8365L19.1975 16.1073C19.2898 16.054 19.3989 16.0381 19.5026 16.0628C19.6063 16.0876 19.6965 16.1511 19.7548 16.2403C19.813 16.3295 19.8349 16.4377 19.8159 16.5425C19.7969 16.6474 19.7384 16.741 19.6525 16.804L19.1583 17.1673L20.8708 16.1782C20.9626 16.1248 21.0713 16.1085 21.1747 16.1325C21.2781 16.1565 21.3684 16.2191 21.4272 16.3075C21.486 16.3959 21.5089 16.5034 21.4911 16.608C21.4734 16.7127 21.4163 16.8066 21.3316 16.8707L18.9283 18.6948L23.1608 16.2498C23.2533 16.1968 23.3626 16.1812 23.4662 16.2063C23.5698 16.2313 23.6599 16.2952 23.7179 16.3847C23.7759 16.4741 23.7973 16.5824 23.7779 16.6873C23.7584 16.7921 23.6995 16.8855 23.6133 16.9482L21.1766 18.7082L25.3558 16.2965C25.4482 16.244 25.5571 16.2287 25.6603 16.2538C25.7636 16.2789 25.8533 16.3425 25.9112 16.4316C25.9691 16.5207 25.9908 16.6285 25.9718 16.7331C25.9528 16.8376 25.8946 16.931 25.8091 16.994L22.6425 19.2932L27.7866 16.324C27.879 16.2701 27.9886 16.2538 28.0927 16.2785C28.1968 16.3032 28.2874 16.3669 28.3458 16.4566C28.4041 16.5462 28.4258 16.6549 28.4063 16.76C28.3867 16.8652 28.3275 16.9588 28.2408 17.0215L22.4191 21.2715L30.9758 16.3323C31.0692 16.2806 31.1788 16.2667 31.2821 16.2935C31.3855 16.3202 31.4746 16.3856 31.5311 16.4761C31.5876 16.5666 31.6073 16.6754 31.586 16.78C31.5647 16.8846 31.5041 16.977 31.4166 17.0382L27.8566 19.4348L33.2641 16.3132C33.3566 16.2614 33.4653 16.2467 33.5681 16.2722C33.6709 16.2977 33.7602 16.3614 33.8177 16.4504C33.8753 16.5393 33.8968 16.6469 33.8778 16.7511C33.8589 16.8554 33.801 16.9485 33.7158 17.0115L27.69 21.3573L36.5325 16.2498C36.6266 16.1963 36.7379 16.1815 36.8427 16.2085C36.9475 16.2356 37.0377 16.3024 37.0942 16.3948C37.1506 16.4872 37.1689 16.5979 37.1451 16.7036C37.1213 16.8092 37.0573 16.9014 36.9666 16.9607L36.8675 17.024L38.3041 16.1957C38.3979 16.1454 38.5073 16.1328 38.6099 16.1606C38.7126 16.1883 38.8008 16.2543 38.8564 16.3449C38.912 16.4356 38.9308 16.5441 38.909 16.6482C38.8872 16.7523 38.8265 16.8441 38.7391 16.9048L37.6666 17.6023L40.2416 16.1165C40.3346 16.0646 40.4439 16.0502 40.5471 16.0763C40.6503 16.1024 40.7396 16.1671 40.7967 16.257C40.8537 16.3469 40.8742 16.4552 40.8539 16.5597C40.8336 16.6642 40.7741 16.757 40.6875 16.819L35.39 20.4998L43.285 15.9415C43.3775 15.8884 43.4868 15.8728 43.5904 15.8979C43.694 15.923 43.7841 15.9868 43.8421 16.0763C43.9 16.1658 43.9215 16.2741 43.9021 16.3789C43.8826 16.4837 43.8237 16.5771 43.7375 16.6398L37.2058 21.3498L45.57 16.5215C45.6639 16.469 45.7745 16.4549 45.8786 16.4821C45.9827 16.5094 46.0723 16.5758 46.1285 16.6676C46.1847 16.7593 46.2033 16.8693 46.1802 16.9744C46.1572 17.0795 46.0944 17.1717 46.005 17.2315L45.3991 17.6257L46.2816 17.1165C46.3744 17.0644 46.4836 17.0498 46.5868 17.0755C46.69 17.1013 46.7794 17.1656 46.8367 17.2552C46.894 17.3449 46.9149 17.453 46.8951 17.5575C46.8752 17.662 46.8162 17.755 46.73 17.8173L42.3583 20.9065L46.9941 18.2307C47.0863 18.1791 47.1945 18.1643 47.2971 18.1895C47.3996 18.2146 47.4888 18.2778 47.5466 18.3661C47.6044 18.4545 47.6264 18.5615 47.6084 18.6655C47.5903 18.7696 47.5334 18.8628 47.4491 18.9265L43.6516 21.7265L47.2675 19.6432C47.3602 19.5911 47.4694 19.5764 47.5726 19.6022C47.6758 19.628 47.7652 19.6923 47.8226 19.7819C47.8799 19.8715 47.9008 19.9797 47.8809 20.0842C47.8611 20.1887 47.802 20.2817 47.7158 20.344L46.9116 20.9132L47.0783 20.8182C47.1687 20.7669 47.2751 20.7513 47.3764 20.7743C47.4778 20.7974 47.5669 20.8576 47.6261 20.943C47.6854 21.0283 47.7107 21.1328 47.6969 21.2358C47.6831 21.3389 47.6313 21.433 47.5517 21.4998L44.3758 24.1082C44.4272 24.1584 44.4648 24.2212 44.4848 24.2902C44.5048 24.3593 44.5066 24.4324 44.49 24.5023L44.3233 25.1948C44.3933 25.2263 44.4532 25.2765 44.4965 25.3398C44.5397 25.4031 44.5647 25.4772 44.5686 25.5538C44.5725 25.6304 44.5551 25.7066 44.5184 25.774C44.4818 25.8414 44.4272 25.8973 44.3608 25.9357L43.9575 26.169C43.887 26.2099 43.8062 26.2292 43.7249 26.2246C43.6436 26.22 43.5654 26.1917 43.5 26.1432C43.4346 26.0944 43.385 26.0275 43.3573 25.9507C43.3296 25.874 43.325 25.7908 43.3441 25.7115L43.4541 25.2507L41.8583 26.1673C41.7679 26.2178 41.662 26.2328 41.5611 26.2094C41.4603 26.186 41.3718 26.126 41.3128 26.0409C41.2538 25.9558 41.2286 25.8518 41.2421 25.7492C41.2556 25.6466 41.3069 25.5526 41.3858 25.4857L43.1283 24.0515L39.4616 26.1698C39.3689 26.222 39.2597 26.2366 39.1565 26.2108C39.0533 26.185 38.9639 26.1207 38.9066 26.0311C38.8492 25.9415 38.8284 25.8334 38.8482 25.7289C38.8681 25.6243 38.9271 25.5314 39.0133 25.469L39.8141 24.9023L37.6133 26.1748C37.5212 26.2276 37.4123 26.2432 37.3091 26.2185C37.2058 26.1937 37.1159 26.1305 37.0577 26.0416C36.9995 25.9528 36.9774 25.8451 36.9959 25.7405C37.0145 25.6359 37.0723 25.5424 37.1575 25.479L40.9566 22.6782L34.895 26.1782C34.8022 26.2303 34.6931 26.2449 34.5899 26.2191C34.4867 26.1934 34.3972 26.1291 34.3399 26.0395C34.2826 25.9498 34.2617 25.8417 34.2816 25.7372C34.3014 25.6327 34.3605 25.5397 34.4466 25.4773L38.8175 22.3882L32.2508 26.1798C32.1569 26.2323 32.0463 26.2464 31.9422 26.2192C31.838 26.192 31.7485 26.1255 31.6923 26.0338C31.6361 25.942 31.6175 25.8321 31.6406 25.727C31.6636 25.6218 31.7264 25.5297 31.8158 25.4698L32.4241 25.074L30.5075 26.1815C30.415 26.2346 30.3057 26.2502 30.2021 26.2251C30.0985 26.2 30.0084 26.1362 29.9504 26.0467C29.8924 25.9572 29.871 25.8489 29.8904 25.7441C29.9099 25.6393 29.9688 25.5459 30.055 25.4832L36.5841 20.7732L27.2075 26.1848C27.1145 26.2368 27.0052 26.2512 26.902 26.225C26.7988 26.1989 26.7095 26.1343 26.6524 26.0444C26.5954 25.9545 26.5749 25.8462 26.5952 25.7416C26.6155 25.6371 26.6751 25.5443 26.7616 25.4823L32.06 21.799L24.4591 26.1873C24.3651 26.242 24.2534 26.2578 24.1479 26.2312C24.0424 26.2046 23.9515 26.1379 23.8946 26.0451C23.8377 25.9524 23.8193 25.8411 23.8433 25.735C23.8674 25.6289 23.932 25.5365 24.0233 25.4773L25.0991 24.7773L22.655 26.189C22.6083 26.2176 22.5565 26.2367 22.5024 26.2452C22.4484 26.2537 22.3932 26.2515 22.34 26.2387C22.2868 26.2259 22.2366 26.2027 22.1924 26.1706C22.1481 26.1384 22.1106 26.0978 22.0821 26.0511C22.0535 26.0044 22.0344 25.9526 22.0259 25.8985C22.0174 25.8445 22.0196 25.7893 22.0324 25.7361C22.0452 25.6829 22.0683 25.6327 22.1005 25.5885C22.1327 25.5442 22.1733 25.5067 22.22 25.4782L22.3225 25.4123L20.9741 26.1907C20.8817 26.2425 20.773 26.2571 20.6702 26.2317C20.5674 26.2062 20.4781 26.1425 20.4206 26.0535C20.363 25.9645 20.3415 25.857 20.3605 25.7528C20.3794 25.6485 20.4373 25.5554 20.5225 25.4923L26.5458 21.1482L17.8066 26.194C17.7434 26.2308 17.6715 26.2501 17.5983 26.2498Z" fill="#DDA019"/>
<path d="M13.7308 33.75C13.6421 33.7501 13.5557 33.7219 13.4841 33.6695C13.4125 33.6171 13.3595 33.5432 13.3328 33.4586C13.3061 33.374 13.3071 33.2831 13.3357 33.1991C13.3643 33.1151 13.4189 33.0424 13.4917 32.9916L18.7558 29.3108L12.7283 32.79C12.636 32.8425 12.5271 32.8578 12.4238 32.8326C12.3206 32.8075 12.2309 32.7439 12.173 32.6548C12.1151 32.5658 12.0934 32.4579 12.1124 32.3534C12.1313 32.2489 12.1895 32.1555 12.275 32.0925L17.3275 28.4166L12.5283 31.1825C12.4374 31.2334 12.3306 31.2484 12.2291 31.2245C12.1276 31.2005 12.0387 31.1394 11.9801 31.0531C11.9215 30.9669 11.8973 30.8618 11.9124 30.7586C11.9275 30.6554 11.9808 30.5616 12.0617 30.4958L16.1975 27.2108L10.7183 30.3775C10.6267 30.4286 10.519 30.4433 10.417 30.4185C10.315 30.3938 10.2261 30.3314 10.168 30.2439C10.11 30.1564 10.0872 30.0502 10.1041 29.9466C10.121 29.8429 10.1764 29.7495 10.2592 29.685L12.96 27.6408L9.90085 29.4033C9.8087 29.4561 9.69987 29.4717 9.59659 29.4469C9.49332 29.4222 9.4034 29.3589 9.34521 29.2701C9.28701 29.1812 9.26493 29.0735 9.28348 28.969C9.30203 28.8644 9.35981 28.7709 9.44501 28.7075L10.5833 27.8666L9.51918 28.4816C9.42783 28.5345 9.31981 28.5508 9.21694 28.5271C9.11407 28.5034 9.02402 28.4416 8.96498 28.3541C8.90594 28.2666 8.88231 28.1599 8.89887 28.0557C8.91543 27.9514 8.97093 27.8574 9.05418 27.7925L10.0133 27.0425L9.41168 27.3891C9.32639 27.4382 9.22648 27.4556 9.12963 27.438C9.03279 27.4205 8.94527 27.3693 8.88258 27.2934C8.81989 27.2176 8.78608 27.122 8.78713 27.0236C8.78819 26.9252 8.82404 26.8303 8.88835 26.7558L10.2417 25.1925C10.1446 25.2319 10.0362 25.2332 9.93817 25.1963C9.84011 25.1594 9.75957 25.0869 9.71259 24.9932C9.6656 24.8996 9.65563 24.7916 9.68465 24.691C9.71367 24.5903 9.77956 24.5042 9.86918 24.45L11.9633 23.2408C12.0485 23.1922 12.1482 23.1752 12.2447 23.1928C12.3412 23.2104 12.4283 23.2615 12.4909 23.3371C12.5534 23.4126 12.5873 23.5079 12.5865 23.6059C12.5857 23.704 12.5504 23.7987 12.4867 23.8733L11.1375 25.4325L14.7667 23.3375C14.858 23.2856 14.9655 23.2702 15.0677 23.2942C15.17 23.3182 15.2593 23.3799 15.318 23.467C15.3766 23.5541 15.4003 23.6602 15.3841 23.7639C15.3679 23.8677 15.3132 23.9615 15.2308 24.0266L14.2767 24.7716L16.545 23.4616C16.6372 23.4088 16.746 23.3932 16.8493 23.418C16.9525 23.4428 17.0425 23.506 17.1007 23.5949C17.1589 23.6837 17.1809 23.7914 17.1624 23.896C17.1438 24.0005 17.086 24.0941 17.0008 24.1575L15.8625 25L18.3475 23.5658C18.4392 23.5146 18.5468 23.5 18.6489 23.5247C18.7509 23.5495 18.8398 23.6119 18.8978 23.6994C18.9559 23.7869 18.9787 23.8931 18.9618 23.9967C18.9449 24.1003 18.8895 24.1938 18.8067 24.2583L16.1067 26.3025L20.6667 23.6666C20.7578 23.6144 20.8653 23.5985 20.9676 23.6222C21.07 23.6458 21.1596 23.7072 21.2186 23.7941C21.2775 23.881 21.3015 23.987 21.2857 24.0908C21.2699 24.1947 21.2155 24.2887 21.1333 24.3541L17 27.6416L23.72 23.7625C23.8124 23.7099 23.9213 23.6947 24.0245 23.7198C24.1278 23.7449 24.2175 23.8085 24.2754 23.8976C24.3333 23.9866 24.355 24.0945 24.336 24.199C24.317 24.3036 24.2589 24.3969 24.1733 24.46L19.1242 28.1375L26.6667 23.7808C26.7597 23.7274 26.8697 23.712 26.9738 23.7376C27.0779 23.7633 27.1682 23.8281 27.2257 23.9186C27.2832 24.0091 27.3037 24.1183 27.2827 24.2235C27.2618 24.3287 27.2011 24.4217 27.1133 24.4833L21.8483 28.1666L29.4409 23.7833C29.5336 23.7289 29.6438 23.7124 29.7483 23.7373C29.8529 23.7623 29.9438 23.8266 30.002 23.917C30.0603 24.0074 30.0813 24.1168 30.0607 24.2224C30.0401 24.3279 29.9796 24.4214 29.8917 24.4833L24.0217 28.6783L32.5 23.7808C32.5935 23.7284 32.7036 23.714 32.8074 23.7407C32.9113 23.7674 33.0008 23.833 33.0575 23.924C33.1141 24.015 33.1335 24.1243 33.1117 24.2293C33.0898 24.3342 33.0283 24.4267 32.94 24.4875L29.6017 26.7241L34.7009 23.7808C34.7934 23.7271 34.9032 23.7111 35.0072 23.7361C35.1113 23.7611 35.2018 23.8252 35.2598 23.9152C35.3179 24.0051 35.3392 24.1139 35.3192 24.219C35.2992 24.3242 35.2395 24.4176 35.1525 24.48L29.1525 28.7916L37.965 23.7025C38.0578 23.6489 38.1677 23.6332 38.2718 23.6586C38.3758 23.6839 38.4662 23.7484 38.524 23.8386C38.5818 23.9288 38.6026 24.0378 38.5822 24.1429C38.5617 24.2481 38.5016 24.3413 38.4142 24.4033L32.75 28.4083L41.1284 23.575C41.221 23.5221 41.3304 23.5068 41.4341 23.5322C41.5377 23.5576 41.6276 23.6218 41.6853 23.7116C41.743 23.8013 41.7641 23.9098 41.7442 24.0146C41.7243 24.1194 41.6649 24.2126 41.5784 24.275L35.495 28.6083L44.5884 23.3583C44.682 23.305 44.7926 23.2901 44.8971 23.3167C45.0015 23.3432 45.0916 23.4092 45.1484 23.5007C45.2052 23.5923 45.2243 23.7023 45.2018 23.8076C45.1793 23.913 45.1168 24.0055 45.0275 24.0658L41.4692 26.435L47.1025 23.185C47.1957 23.1308 47.3062 23.1147 47.4109 23.1403C47.5156 23.1659 47.6063 23.231 47.664 23.322C47.7217 23.413 47.7419 23.5229 47.7203 23.6285C47.6988 23.7341 47.6371 23.8272 47.5484 23.8883L41.78 27.8825L48.9167 23.7591C49.0104 23.7067 49.1207 23.6925 49.2247 23.7194C49.3286 23.7464 49.4182 23.8125 49.4746 23.9038C49.531 23.9952 49.55 24.1048 49.5276 24.2098C49.5051 24.3148 49.443 24.4071 49.3542 24.4675L47.6292 25.5983L49.685 24.4116C49.7782 24.3583 49.8884 24.3431 49.9926 24.3691C50.0968 24.3951 50.1869 24.4603 50.2442 24.5511C50.3015 24.6419 50.3215 24.7513 50.3001 24.8565C50.2786 24.9617 50.2174 25.0546 50.1292 25.1158L46.4934 27.6158L50.3092 25.4125C50.4029 25.3568 50.5148 25.3401 50.6207 25.3659C50.7266 25.3917 50.8182 25.4581 50.8758 25.5506C50.9334 25.6432 50.9524 25.7547 50.9287 25.8611C50.905 25.9676 50.8406 26.0605 50.7492 26.12L50.1567 26.515L50.5567 26.2841C50.65 26.2288 50.7611 26.2121 50.8666 26.2375C50.972 26.2628 51.0634 26.3283 51.1213 26.42C51.1793 26.5117 51.1992 26.6223 51.1768 26.7284C51.1545 26.8345 51.0917 26.9278 51.0017 26.9883L49.9184 27.7383L50.5692 27.3633C50.6615 27.31 50.7706 27.2941 50.8743 27.3188C50.978 27.3435 51.0682 27.407 51.1265 27.4962C51.1847 27.5855 51.2066 27.6936 51.1876 27.7985C51.1686 27.9033 51.1101 27.9969 51.0242 28.06L49.4909 29.1875L49.9909 28.8975C50.0812 28.8446 50.1882 28.8277 50.2905 28.8501C50.3927 28.8725 50.4828 28.9326 50.5428 29.0184C50.6028 29.1042 50.6283 29.2095 50.6142 29.3132C50.6001 29.417 50.5474 29.5116 50.4667 29.5783L47.8084 31.79C47.8561 31.8443 47.889 31.9101 47.9036 31.981C47.9182 32.0519 47.9141 32.1253 47.8917 32.1941L47.7192 32.7158C47.781 32.7533 47.832 32.8062 47.8672 32.8693C47.9024 32.9325 47.9206 33.0037 47.9199 33.076C47.9192 33.1483 47.8998 33.2192 47.8634 33.2817C47.827 33.3442 47.775 33.3961 47.7125 33.4325L47.2909 33.6766C47.2177 33.7189 47.1334 33.738 47.0492 33.7313C46.965 33.7246 46.8848 33.6925 46.8192 33.6391C46.7537 33.5858 46.7059 33.5138 46.6822 33.4327C46.6586 33.3516 46.6601 33.2652 46.6867 33.185L46.7575 32.9708L45.5325 33.6775C45.4422 33.7303 45.3352 33.7473 45.2329 33.7249C45.1306 33.7024 45.0405 33.6424 44.9806 33.5565C44.9206 33.4707 44.8951 33.3655 44.9092 33.2617C44.9233 33.158 44.976 33.0633 45.0567 32.9966L46.1875 32.0558L43.3759 33.6791C43.2836 33.7325 43.1744 33.7486 43.0707 33.7239C42.967 33.6993 42.8767 33.6358 42.8184 33.5466C42.76 33.4573 42.7381 33.3491 42.7571 33.2441C42.7762 33.1391 42.8348 33.0455 42.9209 32.9825L44.455 31.855L41.2884 33.6808C41.1951 33.7361 41.0839 33.7528 40.9785 33.7274C40.873 33.7021 40.7816 33.6366 40.7237 33.5449C40.6658 33.4533 40.6459 33.3426 40.6682 33.2365C40.6905 33.1304 40.7534 33.0372 40.8434 32.9766L41.9267 32.2325L39.415 33.6825C39.3216 33.7335 39.2122 33.7468 39.1092 33.7197C39.0063 33.6926 38.9176 33.6271 38.8615 33.5367C38.8053 33.4463 38.7858 33.3378 38.8071 33.2335C38.8284 33.1292 38.8887 33.037 38.9759 32.9758L39.57 32.5791L37.6533 33.6833C37.5601 33.7386 37.4489 33.7553 37.3435 33.7299C37.238 33.7046 37.1466 33.6391 37.0887 33.5474C37.0308 33.4558 37.0109 33.3451 37.0332 33.239C37.0555 33.1329 37.1184 33.0397 37.2084 32.9791L40.8475 30.4791L35.2984 33.6825C35.2047 33.7334 35.0951 33.7465 34.9921 33.7191C34.8891 33.6917 34.8005 33.6259 34.7445 33.5351C34.6886 33.4444 34.6695 33.3356 34.6913 33.2313C34.7131 33.1269 34.7741 33.0349 34.8617 32.9741L36.5834 31.84L33.3975 33.6791C33.3044 33.7317 33.1947 33.7465 33.091 33.7204C32.9874 33.6943 32.8977 33.6294 32.8405 33.5391C32.7834 33.4487 32.7631 33.3399 32.784 33.2351C32.8048 33.1302 32.8652 33.0374 32.9525 32.9758L38.7217 28.9816L30.5834 33.6808C30.4897 33.7341 30.3791 33.749 30.2746 33.7224C30.1702 33.6959 30.0802 33.6299 30.0233 33.5384C29.9665 33.4468 29.9474 33.3368 29.9699 33.2315C29.9924 33.1261 30.0549 33.0336 30.1442 32.9733L33.705 30.6033L28.3717 33.6825C28.279 33.7353 28.1696 33.7506 28.066 33.7252C27.9624 33.6998 27.8724 33.6356 27.8147 33.5459C27.757 33.4561 27.736 33.3476 27.7559 33.2428C27.7758 33.138 27.8351 33.0448 27.9217 32.9825L34 28.6491L25.2767 33.685C25.1839 33.7371 25.0748 33.7517 24.9716 33.7259C24.8684 33.7001 24.7789 33.6358 24.7216 33.5462C24.6643 33.4566 24.6434 33.3485 24.6633 33.244C24.6831 33.1394 24.7422 33.0465 24.8284 32.9841L30.495 28.98L22.3425 33.6875C22.2499 33.7411 22.1402 33.7571 22.0361 33.7321C21.9321 33.7071 21.8416 33.643 21.7835 33.5531C21.7255 33.4632 21.7042 33.3544 21.7242 33.2492C21.7442 33.1441 21.8038 33.0506 21.8908 32.9883L27.8909 28.675L19.2058 33.6891C19.1123 33.7415 19.0022 33.7559 18.8984 33.7292C18.7946 33.7026 18.7051 33.6369 18.6484 33.5459C18.5917 33.4549 18.5723 33.3456 18.5942 33.2406C18.6161 33.1357 18.6776 33.0432 18.7658 32.9825L22.0992 30.7466L17 33.6908C16.9073 33.7452 16.7971 33.7617 16.6925 33.7368C16.5879 33.7118 16.497 33.6474 16.4388 33.557C16.3806 33.4667 16.3596 33.3573 16.3801 33.2517C16.4007 33.1462 16.4613 33.0527 16.5492 32.9908L22.4192 28.7958L13.9392 33.6933C13.876 33.7304 13.8041 33.7499 13.7308 33.75Z" fill="#DB9E36"/>
<path d="M34.3422 47.0327C34.2533 47.0327 34.1668 47.0044 34.0953 46.9518C34.0237 46.8993 33.9708 46.8252 33.9443 46.7404C33.9178 46.6557 33.919 46.5647 33.9479 46.4807C33.9767 46.3967 34.0317 46.3241 34.1047 46.2735L38.2013 43.436L32.0722 46.9744C31.9789 47.0268 31.869 47.0414 31.7652 47.015C31.6615 46.9886 31.5719 46.9233 31.515 46.8327C31.4581 46.742 31.4383 46.633 31.4596 46.5281C31.481 46.4232 31.5418 46.3306 31.6297 46.2694L36.9013 42.686L29.4722 46.9744C29.3788 47.0285 29.268 47.0444 29.1632 47.0185C29.0584 46.9927 28.9677 46.9272 28.9103 46.8358C28.8528 46.7444 28.8331 46.6343 28.8552 46.5286C28.8773 46.423 28.9395 46.33 29.0288 46.2694L34.4455 42.5727L26.8238 46.9719C26.7303 47.0243 26.6202 47.0386 26.5164 47.012C26.4126 46.9853 26.323 46.9196 26.2664 46.8286C26.2097 46.7376 26.1903 46.6283 26.2122 46.5234C26.234 46.4184 26.2955 46.326 26.3838 46.2652L30.7505 43.3419L24.488 46.9577C24.3953 47.0105 24.2859 47.0259 24.1823 47.0004C24.0787 46.975 23.9887 46.9108 23.931 46.8211C23.8733 46.7313 23.8523 46.6229 23.8722 46.5181C23.8921 46.4132 23.9514 46.32 24.038 46.2577L30.8422 41.4169L21.3605 46.8902C21.2676 46.9429 21.158 46.9579 21.0544 46.9322C20.9508 46.9064 20.861 46.8419 20.8036 46.7518C20.7462 46.6618 20.7255 46.5532 20.7459 46.4483C20.7662 46.3435 20.826 46.2505 20.913 46.1885L27.2205 41.7627L18.5005 46.7969C18.407 46.8472 18.2978 46.86 18.1952 46.8325C18.0926 46.8051 18.0044 46.7395 17.9485 46.6491C17.8927 46.5588 17.8734 46.4506 17.8947 46.3465C17.916 46.2425 17.9762 46.1505 18.063 46.0894L21.1963 44.0219L16.5346 46.7127C16.4405 46.7706 16.3272 46.7887 16.2197 46.7631C16.1122 46.7375 16.0192 46.6702 15.9613 46.576C15.9034 46.4819 15.8853 46.3686 15.9109 46.261C15.9365 46.1535 16.0038 46.0606 16.098 46.0027L18.1088 44.6919L14.7697 46.6194C14.6771 46.6698 14.5688 46.6833 14.4667 46.6571C14.3646 46.631 14.2762 46.567 14.2193 46.4783C14.1625 46.3895 14.1414 46.2824 14.1603 46.1787C14.1792 46.075 14.2368 45.9823 14.3213 45.9194L20.4172 41.616L12.1672 46.3785C12.0741 46.4311 11.9643 46.4459 11.8607 46.4198C11.757 46.3937 11.6673 46.3288 11.6102 46.2385C11.553 46.1481 11.5328 46.0393 11.5536 45.9345C11.5745 45.8296 11.6348 45.7368 11.7222 45.6752L16.4722 42.4194L10.8055 45.6919C10.7126 45.7445 10.603 45.7596 10.4994 45.7338C10.3958 45.7081 10.306 45.6435 10.2486 45.5535C10.1912 45.4635 10.1705 45.3548 10.1909 45.25C10.2112 45.1452 10.271 45.0522 10.358 44.9902L14.898 41.811L9.92215 44.6802C9.82948 44.7331 9.72006 44.7483 9.61644 44.7229C9.51282 44.6975 9.4229 44.6333 9.3652 44.5436C9.30751 44.4538 9.28644 44.3454 9.30634 44.2406C9.32624 44.1357 9.38558 44.0425 9.47215 43.9802L13.0622 41.4252L9.47882 43.4952C9.38634 43.5483 9.27705 43.5639 9.17342 43.5388C9.06979 43.5137 8.97972 43.4499 8.92174 43.3604C8.86377 43.2709 8.84229 43.1626 8.86175 43.0578C8.8812 42.953 8.9401 42.8596 9.02632 42.7969L11.3938 41.0835L9.45298 42.2002C9.36583 42.2511 9.26316 42.2686 9.16404 42.2495C9.06493 42.2305 8.97612 42.176 8.9141 42.0964C8.85208 42.0168 8.82108 41.9173 8.82685 41.8166C8.83263 41.7158 8.87478 41.6206 8.94548 41.5485L10.043 40.4169C9.95652 40.4057 9.87574 40.3678 9.81199 40.3083C9.74824 40.2488 9.70475 40.1709 9.68764 40.0854C9.67053 39.9999 9.68065 39.9112 9.71659 39.8318C9.75253 39.7524 9.81248 39.6862 9.88798 39.6427L12.0005 38.4269C12.0876 38.3759 12.1903 38.3584 12.2894 38.3775C12.3885 38.3966 12.4773 38.451 12.5394 38.5306C12.6014 38.6103 12.6324 38.7097 12.6266 38.8105C12.6208 38.9112 12.5787 39.0065 12.508 39.0785L11.6288 39.9819L17.9622 36.3285C18.0546 36.2755 18.1639 36.2598 18.2675 36.2849C18.3712 36.31 18.4612 36.3738 18.5192 36.4633C18.5772 36.5528 18.5987 36.6611 18.5792 36.7659C18.5598 36.8708 18.5009 36.9641 18.4147 37.0269L16.0438 38.7435L20.2305 36.3269C20.3232 36.2724 20.4334 36.256 20.538 36.2809C20.6426 36.3058 20.7335 36.3702 20.7917 36.4606C20.8499 36.551 20.8709 36.6604 20.8503 36.7659C20.8298 36.8714 20.7692 36.9649 20.6813 37.0269L17.0838 39.5835L22.7272 36.326C22.82 36.2733 22.9296 36.2583 23.0332 36.284C23.1369 36.3098 23.2266 36.3743 23.2841 36.4644C23.3415 36.5544 23.3621 36.663 23.3418 36.7679C23.3214 36.8727 23.2616 36.9657 23.1747 37.0277L18.6422 40.2027L25.3638 36.3227C25.457 36.2694 25.5672 36.2542 25.6714 36.2801C25.7756 36.3061 25.8657 36.3713 25.923 36.4621C25.9803 36.5529 26.0003 36.6624 25.9789 36.7676C25.9574 36.8728 25.8962 36.9657 25.808 37.0269L21.058 40.2819L27.9188 36.321C28.0116 36.2689 28.1207 36.2543 28.2239 36.2801C28.3271 36.3058 28.4166 36.3701 28.4739 36.4598C28.5312 36.5494 28.5521 36.6575 28.5323 36.762C28.5124 36.8665 28.4533 36.9595 28.3672 37.0219L22.2705 41.326L30.9422 36.3194C31.0362 36.2647 31.1479 36.2489 31.2534 36.2755C31.3589 36.3021 31.4498 36.3689 31.5067 36.4616C31.5636 36.5543 31.582 36.6656 31.558 36.7717C31.5339 36.8778 31.4693 36.9703 31.378 37.0294L29.3672 38.3402L32.8713 36.3177C32.9651 36.2633 33.0764 36.2476 33.1816 36.274C33.2868 36.3003 33.3776 36.3667 33.4346 36.4589C33.4917 36.5511 33.5106 36.6619 33.4872 36.7678C33.4639 36.8737 33.4002 36.9663 33.3097 37.026L30.1788 39.091L34.9863 36.316C35.0792 36.2633 35.1888 36.2483 35.2924 36.2741C35.396 36.2998 35.4858 36.3643 35.5432 36.4544C35.6006 36.5444 35.6213 36.653 35.601 36.7579C35.5806 36.8627 35.5208 36.9557 35.4338 37.0177L29.1238 41.4435L38.0097 36.3144C38.1023 36.2615 38.2117 36.2462 38.3154 36.2716C38.419 36.297 38.5089 36.3612 38.5666 36.451C38.6243 36.5407 38.6454 36.6492 38.6255 36.754C38.6056 36.8588 38.5462 36.952 38.4597 37.0144L31.6597 41.8552L41.2613 36.3119C41.3551 36.2562 41.4669 36.2394 41.5728 36.2653C41.6788 36.2911 41.7704 36.3575 41.8279 36.45C41.8855 36.5426 41.9045 36.6541 41.8808 36.7605C41.8572 36.867 41.7927 36.9599 41.7013 37.0194L37.3338 39.9427L43.6255 36.3102C43.7188 36.256 43.8296 36.2402 43.9344 36.266C44.0392 36.2919 44.1299 36.3574 44.1874 36.4488C44.2448 36.5401 44.2646 36.6502 44.2425 36.7559C44.2204 36.8616 44.1581 36.9545 44.0688 37.0152L38.6522 40.7119L46.278 36.3085C46.3713 36.2561 46.4812 36.2415 46.5849 36.2679C46.6886 36.2943 46.7782 36.3595 46.8351 36.4502C46.892 36.5408 46.9119 36.6499 46.8905 36.7548C46.8692 36.8597 46.8083 36.9523 46.7205 37.0135L41.4447 40.6019L46.5605 37.6494C46.6534 37.5974 46.7627 37.583 46.866 37.6092C46.9692 37.6353 47.0585 37.6999 47.1155 37.7898C47.1726 37.8797 47.1931 37.988 47.1727 38.0926C47.1524 38.1971 47.0929 38.2899 47.0063 38.3519L42.9088 41.1894L47.6688 38.4394C47.7604 38.3875 47.8683 38.3723 47.9707 38.3967C48.073 38.4211 48.1624 38.4834 48.2208 38.571C48.2791 38.6586 48.3022 38.765 48.2853 38.8689C48.2684 38.9728 48.2128 39.0664 48.1297 39.131L43.1547 42.9169L49.3822 39.321C49.4752 39.2685 49.585 39.2537 49.6886 39.2798C49.7923 39.3058 49.882 39.3707 49.9391 39.4611C49.9963 39.5514 50.0165 39.6602 49.9957 39.7651C49.9748 39.8699 49.9145 39.9627 49.8272 40.0244L48.3272 41.0619L50.0263 40.0835C50.1166 40.0309 50.2233 40.0141 50.3254 40.0365C50.4275 40.0588 50.5174 40.1187 50.5774 40.2043C50.6374 40.2899 50.663 40.3948 50.6492 40.4984C50.6354 40.602 50.5832 40.6966 50.503 40.7635L47.0955 43.6135L50.5713 41.6077C50.6607 41.5567 50.7658 41.5407 50.8663 41.5626C50.9668 41.5845 51.0557 41.6427 51.1158 41.7262C51.1759 41.8097 51.203 41.9125 51.1919 42.0148C51.1807 42.117 51.1321 42.2116 51.0555 42.2802L49.3463 43.7919L50.4297 43.166C50.5249 43.1162 50.6357 43.1051 50.7389 43.1351C50.8421 43.165 50.9297 43.2337 50.9835 43.3267C51.0373 43.4197 51.0531 43.53 51.0275 43.6343C51.0019 43.7387 50.937 43.8292 50.8463 43.8869L46.1713 46.5835C46.0819 46.6345 45.9769 46.6505 45.8764 46.6286C45.7758 46.6068 45.687 46.5485 45.6269 46.465C45.5668 46.3815 45.5397 46.2787 45.5508 46.1764C45.5619 46.0742 45.6105 45.9796 45.6872 45.911L47.3972 44.4002L43.3522 46.7335C43.2619 46.7852 43.1556 46.8013 43.0541 46.7786C42.9526 46.756 42.8632 46.6961 42.8036 46.6109C42.7439 46.5257 42.7183 46.4212 42.7318 46.3181C42.7453 46.215 42.7968 46.1206 42.8763 46.0535L46.283 43.2044L39.9455 46.8627C39.854 46.9053 39.7501 46.9132 39.6532 46.8851C39.5563 46.8569 39.4729 46.7945 39.4186 46.7095C39.3642 46.6244 39.3425 46.5226 39.3576 46.4228C39.3727 46.323 39.4234 46.232 39.5005 46.1669L41.0005 45.1294L37.8897 46.926C37.798 46.9779 37.6902 46.9931 37.5878 46.9687C37.4854 46.9443 37.3961 46.882 37.3377 46.7944C37.2793 46.7068 37.2563 46.6004 37.2732 46.4965C37.2901 46.3926 37.3457 46.2989 37.4288 46.2344L42.4055 42.4477L34.5505 46.9769C34.4872 47.0137 34.4153 47.0329 34.3422 47.0327Z" fill="#DB9E36"/>
<path d="M13.2391 38.5539C13.1719 38.554 13.1057 38.5377 13.0461 38.5066C12.9865 38.4755 12.9353 38.4304 12.8969 38.3753C12.8585 38.3201 12.834 38.2564 12.8256 38.1897C12.8171 38.123 12.8249 38.0553 12.8483 37.9923L13.1075 37.2923C13.048 37.2532 12.9996 37.1996 12.9668 37.1365C12.9339 37.0734 12.9178 37.003 12.9199 36.9319C12.922 36.8608 12.9422 36.7914 12.9787 36.7304C13.0152 36.6693 13.0667 36.6186 13.1283 36.5831L13.5658 36.3331C13.6396 36.2903 13.7248 36.2712 13.8098 36.2783C13.8948 36.2855 13.9756 36.3185 14.0412 36.3731C14.1068 36.4276 14.1541 36.501 14.1767 36.5832C14.1993 36.6655 14.1961 36.7527 14.1675 36.8331L14.0333 37.1964L15.5375 36.3331C15.6327 36.2833 15.7435 36.2722 15.8467 36.3021C15.9499 36.3321 16.0376 36.4008 16.0913 36.4938C16.1451 36.5868 16.1609 36.6971 16.1353 36.8014C16.1097 36.9058 16.0448 36.9963 15.9541 37.0539L13.4475 38.4998C13.384 38.5358 13.3121 38.5544 13.2391 38.5539Z" fill="#DB9E36"/>
<path d="M26.9484 39.5165C26.8602 39.5164 26.7742 39.4883 26.703 39.4362C26.6317 39.3842 26.5788 39.3108 26.5519 39.2267C26.525 39.1427 26.5256 39.0522 26.5534 38.9685C26.5812 38.8847 26.6349 38.8119 26.7068 38.7607L30.2301 36.2498L24.6726 39.459C24.5799 39.5134 24.4697 39.5299 24.3651 39.505C24.2605 39.48 24.1696 39.4156 24.1114 39.3253C24.0532 39.2349 24.0322 39.1255 24.0527 39.0199C24.0733 38.9144 24.1339 38.8209 24.2218 38.759L27.7993 36.2023L22.2751 39.3898C22.1818 39.4423 22.0719 39.4568 21.9682 39.4305C21.8645 39.4041 21.7749 39.3388 21.718 39.2482C21.6611 39.1575 21.6412 39.0484 21.6626 38.9436C21.6839 38.8387 21.7448 38.746 21.8326 38.6848L23.6234 37.464L20.4209 39.3123C20.3274 39.3666 20.2163 39.3823 20.1114 39.3562C20.0064 39.3301 19.9157 39.2641 19.8585 39.1724C19.8012 39.0806 19.7819 38.9702 19.8046 38.8644C19.8273 38.7586 19.8902 38.6659 19.9801 38.6057L21.0293 37.899L18.7259 39.2282C18.6326 39.2834 18.5215 39.3002 18.416 39.2748C18.3106 39.2494 18.2192 39.184 18.1613 39.0923C18.1034 39.0006 18.0834 38.89 18.1058 38.7839C18.1281 38.6778 18.191 38.5845 18.2809 38.524L20.2151 37.1948L16.8759 39.1223C16.7847 39.1749 16.677 39.1909 16.5744 39.1673C16.4718 39.1436 16.3819 39.082 16.3229 38.9948C16.2639 38.9076 16.2401 38.8013 16.2563 38.6973C16.2725 38.5932 16.3274 38.4992 16.4101 38.434L20.9734 34.8623L13.9359 38.9257C13.8446 38.9786 13.7366 38.9948 13.6337 38.9711C13.5308 38.9475 13.4408 38.8856 13.3817 38.7981C13.3227 38.7106 13.2991 38.604 13.3156 38.4997C13.3322 38.3955 13.3877 38.3014 13.4709 38.2365L17.7426 34.9073L11.1743 38.699C11.0832 38.7509 10.976 38.7666 10.8739 38.743C10.7718 38.7194 10.6824 38.6582 10.6234 38.5715C10.5645 38.4849 10.5403 38.3793 10.5557 38.2756C10.5712 38.172 10.6251 38.078 10.7068 38.0123L14.9168 34.6665L8.58344 38.324C8.49171 38.3762 8.38359 38.3917 8.28091 38.3672C8.17823 38.3428 8.08865 38.2803 8.03025 38.1924C7.97185 38.1045 7.94899 37.9977 7.96629 37.8936C7.98358 37.7895 8.03975 37.6958 8.12344 37.6315L11.5218 35.054L7.2401 37.5248C7.14979 37.5759 7.04366 37.5914 6.94249 37.5684C6.84132 37.5454 6.75239 37.4854 6.69309 37.4003C6.63379 37.3151 6.60839 37.2109 6.62186 37.108C6.63534 37.0052 6.68671 36.911 6.76594 36.844L10.1726 34.024L6.3501 36.2307C6.25815 36.2837 6.1494 36.2997 6.04607 36.2753C5.94274 36.2509 5.85262 36.188 5.79412 36.0994C5.73562 36.0108 5.71315 35.9032 5.7313 35.7986C5.74945 35.694 5.80684 35.6002 5.89177 35.5365L6.7301 34.9098L6.09427 35.2757C6.0047 35.3269 5.8993 35.3431 5.79848 35.3211C5.69766 35.2991 5.6086 35.2404 5.54854 35.1565C5.48848 35.0726 5.4617 34.9694 5.47338 34.8668C5.48506 34.7643 5.53438 34.6698 5.61177 34.6015L7.0701 33.3257L6.20677 33.8257C6.11805 33.8758 6.01405 33.8916 5.91442 33.8703C5.8148 33.8489 5.72647 33.7917 5.66612 33.7096C5.60578 33.6275 5.57761 33.5262 5.58694 33.4247C5.59627 33.3232 5.64246 33.2287 5.71677 33.159L6.5426 32.4015C6.48108 32.3638 6.43042 32.3107 6.39557 32.2475C6.36072 32.1843 6.34289 32.1131 6.34381 32.041C6.34473 31.9688 6.36439 31.8981 6.40084 31.8358C6.4373 31.7736 6.4893 31.7218 6.55177 31.6857L8.66677 30.4607C8.75549 30.4106 8.85949 30.3947 8.95912 30.4161C9.05874 30.4375 9.14708 30.4946 9.20742 30.5767C9.26776 30.6588 9.29593 30.7602 9.2866 30.8616C9.27727 30.9631 9.23108 31.0576 9.15677 31.1273L9.07344 31.204L10.3376 30.474C10.4272 30.4228 10.5326 30.4066 10.6334 30.4286C10.7342 30.4506 10.8233 30.5092 10.8833 30.5932C10.9434 30.6771 10.9702 30.7803 10.9585 30.8828C10.9468 30.9854 10.8975 31.0799 10.8201 31.1482L9.36177 32.4273L12.3784 30.6865C12.4704 30.6346 12.5785 30.6195 12.6811 30.6443C12.7838 30.6691 12.8731 30.7319 12.9312 30.82C12.9893 30.9082 13.0118 31.0151 12.9941 31.1191C12.9764 31.2232 12.9199 31.3167 12.8359 31.3807L12.0026 32.0065L14.0468 30.8265C14.1372 30.7743 14.244 30.758 14.3459 30.7808C14.4478 30.8035 14.5374 30.8637 14.5971 30.9495C14.6567 31.0352 14.682 31.1402 14.6679 31.2436C14.6538 31.3471 14.6013 31.4415 14.5209 31.5082L11.1118 34.3282L16.8618 31.0115C16.9535 30.9603 17.0611 30.9457 17.1631 30.9704C17.2651 30.9952 17.3541 31.0576 17.4121 31.1451C17.4701 31.2326 17.493 31.3388 17.4761 31.4424C17.4592 31.546 17.4038 31.6395 17.3209 31.704L13.9168 34.2815L19.3701 31.1332C19.4613 31.0787 19.5698 31.0611 19.6736 31.084C19.7773 31.1069 19.8684 31.1685 19.9282 31.2563C19.988 31.3441 20.012 31.4514 19.9953 31.5563C19.9786 31.6612 19.9225 31.7558 19.8384 31.8207L15.6309 35.1665L22.5309 31.1832C22.6223 31.1303 22.7303 31.114 22.8332 31.1377C22.936 31.1614 23.0261 31.2232 23.0851 31.3107C23.1442 31.3982 23.1678 31.5048 23.1513 31.6091C23.1347 31.7133 23.0792 31.8074 22.9959 31.8723L18.7234 35.2015L25.6843 31.1832C25.7755 31.1306 25.8833 31.1146 25.9858 31.1382C26.0884 31.1619 26.1783 31.2235 26.2373 31.3107C26.2963 31.3979 26.3201 31.5042 26.3039 31.6082C26.2878 31.7123 26.2328 31.8063 26.1501 31.8715L21.5834 35.4407L28.9626 31.1807C29.0558 31.1274 29.166 31.1121 29.2702 31.1381C29.3744 31.1641 29.4645 31.2293 29.5218 31.3201C29.5791 31.4109 29.5991 31.5204 29.5777 31.6256C29.5562 31.7308 29.495 31.8237 29.4068 31.8848L27.4768 33.2115L31.0001 31.1807C31.0938 31.1221 31.207 31.1032 31.3146 31.128C31.4223 31.1528 31.5157 31.2195 31.5743 31.3132C31.6328 31.4069 31.6518 31.52 31.6269 31.6277C31.6021 31.7354 31.5355 31.8288 31.4418 31.8873L30.3851 32.599L32.8418 31.1823C32.9351 31.1299 33.045 31.1153 33.1487 31.1417C33.2524 31.1681 33.342 31.2333 33.3989 31.324C33.4558 31.4147 33.4757 31.5237 33.4543 31.6286C33.433 31.7335 33.3721 31.8261 33.2843 31.8873L31.4968 33.1073L34.8301 31.1823C34.9228 31.1279 35.033 31.1114 35.1376 31.1364C35.2422 31.1613 35.3331 31.2257 35.3913 31.3161C35.4495 31.4065 35.4705 31.5159 35.45 31.6214C35.4294 31.7269 35.3688 31.8204 35.2809 31.8823L31.7059 34.4365L37.3426 31.1823C37.4353 31.1295 37.5447 31.1142 37.6483 31.1396C37.7519 31.165 37.8419 31.2292 37.8996 31.3189C37.9572 31.4087 37.9783 31.5171 37.9584 31.622C37.9385 31.7268 37.8792 31.82 37.7926 31.8823L34.2651 34.3973L39.8951 31.1473C39.9874 31.094 40.0966 31.0781 40.2002 31.1028C40.3039 31.1276 40.3941 31.1911 40.4524 31.2803C40.5107 31.3695 40.5325 31.4777 40.5135 31.5825C40.4945 31.6874 40.436 31.7809 40.3501 31.844L36.1001 34.9673L42.9734 30.9998C43.0654 30.9468 43.1741 30.9308 43.2775 30.9552C43.3808 30.9796 43.4709 31.0425 43.5294 31.1311C43.5879 31.2197 43.6104 31.3273 43.5922 31.4319C43.5741 31.5365 43.5167 31.6303 43.4318 31.694L38.6918 35.2382L46.4618 30.7498C46.5538 30.6975 46.6623 30.6822 46.7652 30.707C46.8682 30.7317 46.9578 30.7948 47.0159 30.8832C47.0741 30.9717 47.0963 31.079 47.0782 31.1833C47.0601 31.2876 47.003 31.3811 46.9184 31.4448L42.0001 35.0982L50.1551 30.3915C50.2487 30.3405 50.3584 30.3274 50.4614 30.3548C50.5644 30.3822 50.653 30.4481 50.7089 30.5388C50.7649 30.6296 50.7839 30.7383 50.7621 30.8427C50.7403 30.947 50.6794 31.0391 50.5918 31.0998L50.0659 31.4448L51.4993 30.6182C51.592 30.5661 51.7012 30.5514 51.8044 30.5772C51.9076 30.603 51.997 30.6673 52.0543 30.7569C52.1117 30.8465 52.1326 30.9547 52.1127 31.0592C52.0929 31.1637 52.0338 31.2566 51.9476 31.319L48.1743 33.9857L52.7176 31.3632C52.8093 31.3102 52.9176 31.2941 53.0207 31.3182C53.1238 31.3422 53.2138 31.4046 53.2726 31.4926C53.3313 31.5807 53.3544 31.6878 53.3371 31.7922C53.3197 31.8966 53.2633 31.9905 53.1793 32.0548L49.1026 35.1757L53.6026 32.5773C53.695 32.5248 53.8039 32.5095 53.9071 32.5346C54.0103 32.5598 54.1001 32.6234 54.158 32.7124C54.2159 32.8015 54.2376 32.9094 54.2186 33.0139C54.1996 33.1184 54.1414 33.2118 54.0559 33.2748L52.7468 34.2248L53.8926 33.5632C53.9826 33.5112 54.0887 33.4947 54.1902 33.517C54.2917 33.5392 54.3812 33.5986 54.4412 33.6834C54.5012 33.7682 54.5273 33.8724 54.5145 33.9755C54.5016 34.0786 54.4507 34.1731 54.3718 34.2407L52.6134 35.749L53.8051 35.0607C53.8938 35.0106 53.9978 34.9947 54.0975 35.0161C54.1971 35.0375 54.2854 35.0946 54.3458 35.1767C54.4061 35.2588 54.4343 35.3602 54.4249 35.4616C54.4156 35.5631 54.3694 35.6576 54.2951 35.7273L53.4826 36.4715C53.5481 36.5085 53.6024 36.5623 53.6401 36.6273C53.6954 36.7229 53.7105 36.8366 53.6821 36.9433C53.6536 37.05 53.584 37.1411 53.4884 37.1965L51.2909 38.4648C51.2022 38.5149 51.0982 38.5308 50.9986 38.5094C50.899 38.488 50.8106 38.4309 50.7503 38.3488C50.69 38.2667 50.6618 38.1653 50.6711 38.0639C50.6804 37.9624 50.7266 37.8679 50.8009 37.7982L50.9234 37.6865L49.1476 38.7115C49.0577 38.7633 48.9518 38.7797 48.8505 38.7575C48.7492 38.7353 48.6598 38.6761 48.5998 38.5915C48.5398 38.5069 48.5135 38.403 48.526 38.3001C48.5386 38.1971 48.5891 38.1025 48.6676 38.0348L50.4268 36.5265L46.2326 38.9432C46.1403 38.9957 46.0313 39.011 45.9281 38.9858C45.8249 38.9607 45.7351 38.8971 45.6772 38.8081C45.6193 38.719 45.5977 38.6111 45.6166 38.5066C45.6356 38.4021 45.6938 38.3087 45.7793 38.2457L47.0893 37.2948L43.9718 39.0948C43.8801 39.1478 43.7718 39.1639 43.6687 39.1398C43.5656 39.1158 43.4756 39.0534 43.4168 38.9654C43.358 38.8773 43.335 38.7702 43.3523 38.6658C43.3696 38.5614 43.4261 38.4675 43.5101 38.4032L47.5834 35.2848L40.6618 39.2848C40.569 39.3369 40.4599 39.3516 40.3567 39.3258C40.2535 39.3 40.164 39.2357 40.1067 39.1461C40.0494 39.0565 40.0285 38.9483 40.0483 38.8438C40.0682 38.7393 40.1273 38.6464 40.2134 38.584L43.9868 35.9173L37.9609 39.3957C37.8672 39.4481 37.7569 39.4623 37.6529 39.4353C37.549 39.4084 37.4595 39.3423 37.403 39.251C37.3466 39.1596 37.3276 39.05 37.3501 38.945C37.3725 38.84 37.4346 38.7477 37.5234 38.6873L38.0576 38.3332L36.1293 39.4457C36.0373 39.4969 35.9293 39.5114 35.8271 39.4862C35.7248 39.4611 35.6359 39.3982 35.5782 39.3101C35.5204 39.2221 35.4981 39.1155 35.5158 39.0117C35.5335 38.9079 35.5898 38.8146 35.6734 38.7507L40.5943 35.0998L33.0443 39.4582C32.9524 39.5101 32.8442 39.5251 32.7416 39.5004C32.639 39.4756 32.5496 39.4128 32.4915 39.3246C32.4334 39.2365 32.4109 39.1296 32.4286 39.0255C32.4463 38.9215 32.5028 38.828 32.5868 38.764L37.3259 35.2173L29.9801 39.4582C29.8878 39.5115 29.7786 39.5274 29.675 39.5027C29.5713 39.4779 29.4811 39.4144 29.4228 39.3252C29.3645 39.236 29.3427 39.1278 29.3617 39.023C29.3807 38.9181 29.4392 38.8246 29.5251 38.7615L33.7751 35.6382L27.1576 39.4582C27.0943 39.4958 27.0221 39.5159 26.9484 39.5165Z" fill="#DDA019"/>
<path d="M25.5061 39.7541C25.4171 39.7541 25.3303 39.7256 25.2587 39.6728C25.187 39.6199 25.1342 39.5455 25.1079 39.4604C25.0816 39.3753 25.0833 39.284 25.1126 39.2C25.142 39.1159 25.1976 39.0435 25.2711 38.9933L29.6753 35.9866L24.3653 39.0508C24.2725 39.1022 24.1635 39.1162 24.0607 39.09C23.9579 39.0639 23.8689 38.9995 23.812 38.91C23.755 38.8205 23.7343 38.7126 23.7541 38.6084C23.7739 38.5042 23.8328 38.4114 23.9186 38.3491L30.4686 33.7708L23.2428 37.9424C23.1495 37.9949 23.0396 38.0094 22.9359 37.9831C22.8321 37.9567 22.7425 37.8914 22.6856 37.8008C22.6287 37.7101 22.6089 37.601 22.6302 37.4962C22.6516 37.3913 22.7125 37.2986 22.8003 37.2374L28.2903 33.5158L22.4636 36.8791C22.3695 36.9327 22.2583 36.9475 22.1534 36.9204C22.0486 36.8934 21.9584 36.8266 21.9019 36.7342C21.8455 36.6418 21.8272 36.531 21.851 36.4254C21.8748 36.3197 21.9388 36.2275 22.0295 36.1683L23.6128 35.1416L22.0078 36.0674C21.9147 36.118 21.8058 36.1312 21.7034 36.1044C21.6009 36.0775 21.5125 36.0127 21.4561 35.923C21.3997 35.8333 21.3796 35.7255 21.3999 35.6215C21.4202 35.5175 21.4793 35.4252 21.5653 35.3633L27.3103 31.4466L21.5003 34.8024C21.4059 34.86 21.2925 34.8777 21.1851 34.8517C21.0776 34.8257 20.9849 34.758 20.9274 34.6637C20.8698 34.5693 20.8521 34.4559 20.8781 34.3485C20.9041 34.241 20.9717 34.1483 21.0661 34.0908L21.2436 33.9766C21.1492 34.0213 21.0414 34.0289 20.9416 33.9979C20.8418 33.9668 20.7574 33.8994 20.7049 33.809C20.6525 33.7187 20.6359 33.6119 20.6585 33.5099C20.6811 33.4078 20.7413 33.318 20.827 33.2583L26.627 29.2174L21.0836 32.4166C20.9913 32.4691 20.8823 32.4844 20.7791 32.4593C20.6759 32.4342 20.5861 32.3706 20.5282 32.2815C20.4703 32.1924 20.4487 32.0846 20.4676 31.98C20.4866 31.8755 20.5448 31.7822 20.6303 31.7191L26.547 27.4174L21.1995 30.5049C21.1077 30.5564 20.9998 30.5713 20.8974 30.5465C20.7951 30.5217 20.706 30.4592 20.6479 30.3713C20.5899 30.2835 20.5672 30.177 20.5845 30.0732C20.6018 29.9693 20.6578 29.8759 20.7411 29.8116L25.2736 26.4083L21.8186 28.4033C21.7299 28.452 21.6265 28.4669 21.5277 28.445C21.4289 28.4232 21.3414 28.3661 21.2816 28.2844C21.2218 28.2028 21.1938 28.1021 21.2027 28.0013C21.2117 27.9005 21.257 27.8064 21.3303 27.7366L24.052 25.2699C23.9551 25.3158 23.8443 25.3227 23.7425 25.289C23.6408 25.2553 23.5559 25.1837 23.5056 25.0891C23.4552 24.9944 23.4433 24.884 23.4723 24.7808C23.5013 24.6776 23.5689 24.5895 23.6611 24.5349L27.0153 22.5983C27.104 22.5495 27.2074 22.5346 27.3062 22.5565C27.405 22.5784 27.4925 22.6355 27.5523 22.7171C27.6121 22.7987 27.6401 22.8994 27.6312 23.0002C27.6222 23.101 27.5769 23.1951 27.5036 23.2649L24.7836 25.7291L30.8478 22.2291C30.9396 22.1776 31.0475 22.1627 31.1498 22.1875C31.2521 22.2123 31.3412 22.2749 31.3993 22.3627C31.4573 22.4505 31.48 22.557 31.4627 22.6609C31.4454 22.7647 31.3895 22.8581 31.3061 22.9224L26.7753 26.3241L32.9836 22.7408C33.076 22.6882 33.1849 22.673 33.2881 22.6981C33.3914 22.7232 33.4811 22.7868 33.539 22.8759C33.5969 22.9649 33.6186 23.0728 33.5996 23.1773C33.5806 23.2819 33.5225 23.3752 33.437 23.4383L27.5203 27.7416L34.7053 23.5933C34.7983 23.5399 34.9083 23.5244 35.0124 23.5501C35.1165 23.5758 35.2068 23.6406 35.2643 23.7311C35.3218 23.8216 35.3423 23.9308 35.3213 24.0359C35.3004 24.1411 35.2397 24.2342 35.152 24.2958L29.352 28.3374L35.9353 24.5366C36.0297 24.479 36.143 24.4613 36.2505 24.4873C36.3579 24.5133 36.4506 24.581 36.5082 24.6753C36.5658 24.7697 36.5835 24.8831 36.5575 24.9905C36.5315 25.098 36.4638 25.1907 36.3695 25.2483L36.2211 25.3433L36.5545 25.1524C36.6476 25.1006 36.7571 25.0865 36.8603 25.1129C36.9636 25.1394 37.0528 25.2044 37.1096 25.2946C37.1664 25.3848 37.1864 25.4933 37.1656 25.5978C37.1448 25.7024 37.0848 25.795 36.9978 25.8566L31.2478 29.7733L37.3936 26.2258C37.4876 26.1733 37.5982 26.1592 37.7023 26.1864C37.8064 26.2136 37.8959 26.2801 37.9521 26.3718C38.0084 26.4636 38.0269 26.5735 38.0039 26.6786C37.9808 26.7838 37.918 26.8759 37.8286 26.9358L36.2453 27.9608L37.8736 27.0208C37.9669 26.9683 38.0768 26.9537 38.1805 26.9801C38.2843 27.0065 38.3739 27.0718 38.4308 27.1624C38.4877 27.2531 38.5075 27.3622 38.4862 27.467C38.4648 27.5719 38.4039 27.6646 38.3161 27.7258L32.8245 31.4491L38.4078 28.2283C38.5008 28.1749 38.6108 28.1594 38.7149 28.1851C38.819 28.2108 38.9093 28.2756 38.9668 28.3661C39.0243 28.4566 39.0448 28.5658 39.0238 28.6709C39.0029 28.7761 38.9422 28.8692 38.8545 28.9308L32.3028 33.5141L38.8103 29.7574C38.9036 29.7032 39.0144 29.6874 39.1192 29.7133C39.224 29.7391 39.3147 29.8046 39.3722 29.896C39.4296 29.9874 39.4494 30.0975 39.4273 30.2031C39.4052 30.3088 39.3429 30.4018 39.2536 30.4624L34.842 33.4666L38.9253 31.1091C39.0183 31.0557 39.1283 31.0403 39.2324 31.0659C39.3365 31.0916 39.4268 31.1564 39.4843 31.2469C39.5418 31.3374 39.5623 31.4466 39.5413 31.5518C39.5204 31.657 39.4597 31.75 39.372 31.8116L36.1486 34.0558L38.8511 32.4958C38.9421 32.4432 39.0495 32.4269 39.152 32.4501C39.2544 32.4734 39.3443 32.5345 39.4036 32.6212C39.4629 32.7079 39.4873 32.8138 39.4719 32.9177C39.4564 33.0217 39.4023 33.1159 39.3203 33.1816L35.5136 36.2283L38.3161 34.6099C38.4048 34.5598 38.5088 34.544 38.6085 34.5653C38.7081 34.5867 38.7964 34.6439 38.8568 34.726C38.9171 34.8081 38.9453 34.9094 38.9359 35.0109C38.9266 35.1123 38.8804 35.2069 38.8061 35.2766L36.8436 37.0833L36.8953 37.0533C36.9427 37.0231 36.9957 37.0029 37.0512 36.9937C37.1066 36.9846 37.1634 36.9868 37.2179 37.0002C37.2725 37.0136 37.3238 37.0378 37.3688 37.0715C37.4138 37.1053 37.4514 37.1477 37.4796 37.1964C37.5077 37.245 37.5257 37.2989 37.5324 37.3546C37.5392 37.4104 37.5346 37.467 37.519 37.521C37.5033 37.575 37.4769 37.6252 37.4413 37.6687C37.4058 37.7122 37.3617 37.748 37.312 37.7741L33.9853 39.6908C33.8966 39.7409 33.7926 39.7567 33.6929 39.7354C33.5933 39.714 33.505 39.6568 33.4446 39.5747C33.3843 39.4926 33.3561 39.3913 33.3655 39.2898C33.3748 39.1883 33.421 39.0938 33.4953 39.0241L35.4603 37.2191L31.1736 39.6933C31.0827 39.7449 30.9757 39.7604 30.8739 39.7368C30.772 39.7133 30.6827 39.6522 30.6238 39.5659C30.5648 39.4796 30.5405 39.3742 30.5556 39.2708C30.5707 39.1673 30.6241 39.0733 30.7053 39.0074L34.5078 35.9633L28.0453 39.6949C27.9523 39.7483 27.8423 39.7638 27.7381 39.7381C27.634 39.7124 27.5438 39.6476 27.4863 39.5571C27.4287 39.4666 27.4083 39.3574 27.4292 39.2522C27.4502 39.1471 27.5108 39.054 27.5986 38.9924L30.827 36.7424L25.7145 39.6933C25.6517 39.7318 25.5798 39.7528 25.5061 39.7541Z" fill="#592B02"/>
<path d="M32.3509 47.5559C32.2904 47.556 32.2305 47.543 32.1756 47.5176C32.1206 47.4923 32.0718 47.4553 32.0326 47.4092C31.97 47.3343 31.9357 47.2397 31.9357 47.1421C31.9357 47.0445 31.97 46.95 32.0326 46.875L33.1992 45.4584L31.9051 46.2042C31.8188 46.2531 31.7179 46.2697 31.6205 46.2509C31.5231 46.2321 31.4356 46.1792 31.3738 46.1017C31.3119 46.0241 31.2797 45.9271 31.283 45.8279C31.2863 45.7288 31.3249 45.6341 31.3917 45.5609L32.7909 44.0525L31.9042 44.565C31.8182 44.6145 31.7173 44.6317 31.6197 44.6134C31.5222 44.5952 31.4343 44.5427 31.372 44.4654C31.3097 44.3881 31.2771 44.2912 31.2799 44.1919C31.2828 44.0927 31.3209 43.9978 31.3876 43.9242L32.8742 42.2884L31.7076 42.9634C31.622 43.0129 31.5216 43.0305 31.4244 43.0129C31.3271 42.9952 31.2392 42.9436 31.1765 42.8671C31.1138 42.7907 31.0803 42.6945 31.082 42.5956C31.0837 42.4968 31.1206 42.4017 31.1859 42.3275L32.7992 40.4942L30.1734 42C30.126 42.0302 30.0729 42.0504 30.0175 42.0595C29.962 42.0687 29.9053 42.0665 29.8507 42.0531C29.7962 42.0397 29.7448 42.0155 29.6999 41.9817C29.6549 41.948 29.6173 41.9056 29.5891 41.8569C29.561 41.8083 29.543 41.7544 29.5362 41.6986C29.5295 41.6428 29.534 41.5863 29.5497 41.5323C29.5654 41.4783 29.5918 41.4281 29.6274 41.3846C29.6629 41.3411 29.7069 41.3052 29.7567 41.2792L34.5701 38.5C34.6556 38.4504 34.756 38.4329 34.8533 38.4505C34.9506 38.4681 35.0384 38.5198 35.1011 38.5962C35.1638 38.6727 35.1973 38.7689 35.1956 38.8678C35.1939 38.9666 35.1571 39.0616 35.0917 39.1359L33.4792 40.9692L34.7676 40.2259C34.8536 40.1763 34.9545 40.1592 35.0521 40.1774C35.1496 40.1957 35.2375 40.2482 35.2998 40.3255C35.3621 40.4027 35.3947 40.4997 35.3919 40.5989C35.389 40.6982 35.3509 40.7931 35.2842 40.8667L33.7984 42.5017L34.7676 41.9425C34.8538 41.8936 34.9547 41.877 35.0521 41.8958C35.1495 41.9146 35.237 41.9675 35.2989 42.045C35.3607 42.1226 35.3929 42.2196 35.3896 42.3188C35.3863 42.4179 35.3478 42.5126 35.2809 42.5859L33.8801 44.0959L34.7676 43.5842C34.852 43.5362 34.9506 43.5193 35.0462 43.5363C35.1418 43.5533 35.2285 43.6032 35.2913 43.6773C35.354 43.7514 35.3889 43.8451 35.3899 43.9423C35.3909 44.0394 35.358 44.1338 35.2967 44.2092L34.1301 45.6259L34.7651 45.2592C34.8607 45.2048 34.974 45.1905 35.0802 45.2193C35.1864 45.2481 35.2768 45.3178 35.3318 45.4131C35.3869 45.5083 35.402 45.6215 35.3738 45.7279C35.3457 45.8343 35.2767 45.9252 35.1817 45.9809L32.5592 47.5C32.4961 47.537 32.4241 47.5563 32.3509 47.5559Z" fill="#FFD34E"/>
<path d="M25.8336 50.1668C25.7524 50.1667 25.673 50.1428 25.6052 50.0982C25.5373 50.0535 25.484 49.99 25.4518 49.9155C25.4196 49.8409 25.4098 49.7586 25.4238 49.6786C25.4377 49.5986 25.4747 49.5244 25.5303 49.4651L26.0653 48.896L25.3545 49.306C25.2663 49.359 25.1617 49.3776 25.0606 49.3581C24.9596 49.3386 24.8694 49.2825 24.8073 49.2004C24.7452 49.1184 24.7157 49.0163 24.7244 48.9137C24.7331 48.8112 24.7794 48.7155 24.8545 48.6451L25.5545 47.9718L25.2311 48.1576C25.1455 48.2067 25.0453 48.2237 24.9483 48.2058C24.8513 48.1878 24.7638 48.136 24.7014 48.0596C24.639 47.9832 24.6057 47.8872 24.6075 47.7885C24.6093 47.6899 24.646 47.5951 24.7111 47.521L26.2828 45.7501L25.2336 46.356C25.145 46.4071 25.0406 46.4238 24.9403 46.4029C24.8401 46.382 24.7511 46.325 24.6903 46.2426C24.6293 46.1602 24.6009 46.0582 24.6104 45.9561C24.6199 45.854 24.6668 45.759 24.742 45.6893L25.3561 45.1218L25.2336 45.1918C25.1406 45.243 25.0315 45.2568 24.9287 45.2303C24.8259 45.2039 24.737 45.1391 24.6803 45.0493C24.6236 44.9595 24.6033 44.8515 24.6236 44.7472C24.6439 44.643 24.7032 44.5504 24.7895 44.4885L25.2411 44.1785L25.2336 44.1826C25.1423 44.2355 25.0343 44.2518 24.9314 44.2281C24.8285 44.2045 24.7385 44.1426 24.6794 44.0551C24.6204 43.9676 24.5968 43.861 24.6133 43.7567C24.6299 43.6525 24.6854 43.5584 24.7686 43.4935L27.1311 41.6376L25.2336 42.7335C25.1458 42.7841 25.0425 42.801 24.9431 42.781C24.8437 42.7609 24.755 42.7053 24.6937 42.6245C24.6323 42.5438 24.6025 42.4434 24.6099 42.3423C24.6173 42.2412 24.6613 42.1462 24.7336 42.0751L26.4761 40.3668L25.2336 41.0835C25.1553 41.1286 25.0643 41.147 24.9746 41.1359C24.8848 41.1248 24.8011 41.0848 24.7361 41.022C24.6711 40.9591 24.6283 40.8768 24.6142 40.7875C24.6 40.6982 24.6153 40.6067 24.6578 40.5268L25.247 39.426C25.1578 39.4498 25.0633 39.4437 24.978 39.4086C24.8926 39.3735 24.8211 39.3114 24.7745 39.2318C24.7192 39.1361 24.7042 39.0224 24.7328 38.9156C24.7614 38.8089 24.8313 38.7179 24.927 38.6626L26.082 37.996C26.1603 37.9493 26.2519 37.93 26.3424 37.941C26.4328 37.952 26.5171 37.9927 26.582 38.0568C26.647 38.1198 26.6898 38.2023 26.7037 38.2918C26.7177 38.3812 26.7022 38.4728 26.6595 38.5526L26.0828 39.636L28.917 38.0001C29.0048 37.9495 29.1081 37.9326 29.2075 37.9526C29.3069 37.9727 29.3956 38.0283 29.4569 38.1091C29.5183 38.1898 29.5481 38.2902 29.5407 38.3913C29.5333 38.4925 29.4893 38.5874 29.417 38.6585L27.6736 40.3668L31.7728 38.0001C31.864 37.9476 31.9718 37.9316 32.0744 37.9552C32.177 37.9789 32.2668 38.0405 32.3258 38.1277C32.3848 38.2149 32.4086 38.3212 32.3925 38.4252C32.3763 38.5293 32.3213 38.6233 32.2386 38.6885L29.8761 40.5451L34.0986 38.1076C34.1917 38.0564 34.3007 38.0426 34.4036 38.0691C34.5064 38.0956 34.5952 38.1603 34.6519 38.2501C34.7087 38.3399 34.7289 38.448 34.7086 38.5522C34.6884 38.6564 34.629 38.749 34.5428 38.811L28.7703 42.7726C28.7954 42.8486 28.7982 42.9301 28.7782 43.0075C28.7583 43.0849 28.7165 43.155 28.6578 43.2093L28.0436 43.776L28.1028 43.7426C28.1885 43.6931 28.2891 43.6757 28.3864 43.6935C28.4838 43.7114 28.5716 43.7633 28.6342 43.84C28.6968 43.9167 28.73 44.0132 28.7279 44.1122C28.7258 44.2111 28.6886 44.3061 28.6228 44.3801L27.0545 46.1426L28.1028 45.5385C28.1909 45.4854 28.2956 45.4668 28.3966 45.4863C28.4977 45.5058 28.5879 45.562 28.65 45.644C28.7121 45.7261 28.7416 45.8282 28.7329 45.9307C28.7242 46.0332 28.6778 46.1289 28.6028 46.1993L27.9003 46.876L28.1061 46.7568C28.1928 46.7067 28.2945 46.6894 28.3929 46.7082C28.4912 46.7269 28.5795 46.7804 28.6416 46.8589C28.7037 46.9374 28.7354 47.0356 28.7311 47.1356C28.7267 47.2356 28.6865 47.3307 28.6178 47.4035L28.0828 47.971L28.0995 47.9626C28.1469 47.9325 28.1999 47.9123 28.2554 47.9031C28.3108 47.894 28.3675 47.8962 28.4221 47.9096C28.4767 47.9229 28.528 47.9472 28.573 47.9809C28.6179 48.0146 28.6556 48.0571 28.6837 48.1058C28.7119 48.1544 28.7298 48.2082 28.7366 48.264C28.7434 48.3198 28.7388 48.3764 28.7232 48.4304C28.7075 48.4843 28.6811 48.5346 28.6455 48.5781C28.6099 48.6216 28.5659 48.6574 28.5161 48.6835L26.0478 50.1085C25.9832 50.1474 25.909 50.1676 25.8336 50.1668Z" fill="#FFD34E"/>
<path d="M54.7509 33.9109C54.4842 31.3092 52.0509 30.2192 49.7275 30.4392C53.3575 28.0042 50.6567 22.2592 46.4309 23.0692C49.405 21.1717 48.0775 16.1826 44.5267 15.9809C42.5184 11.1009 37.2834 9.3334 32.2709 9.6834C32.1209 8.1084 33.05 5.0784 30.4559 5.5909C27.3842 5.0834 27.6267 7.49173 27.7309 9.72673C22.8334 9.46673 17.5984 11.3101 15.5642 16.0651C12.16 16.4201 10.5267 21.1001 13.4275 23.1201C9.39502 22.4934 6.69585 28.0917 10.2159 30.4826C3.18836 30.3242 4.09252 39.4176 10.9259 38.7434C7.30419 40.3984 8.13836 46.1259 12.1317 46.5426C18.9892 57.6917 40.7717 57.3476 47.775 46.4917C51.6784 46.0376 52.8484 40.3067 49.1267 38.7234C51.9175 38.6784 55.0884 37.1667 54.7509 33.9109ZM50.2234 27.2684C49.8542 32.1967 43.14 30.2834 39.7592 30.9926C39.5957 28.5125 38.4641 26.196 36.6084 24.5426C40.785 25.3334 49.2434 21.1751 50.2217 27.2684H50.2234ZM31.1334 46.2684C30.4017 46.2684 29.6703 46.2667 28.9392 46.2634C29.1942 45.0726 28.1842 41.9251 30.0109 41.9742C31.6975 42.4909 30.8617 44.7542 31.1317 46.2642L31.1334 46.2684ZM32.2725 44.3026C32.7975 41.9642 30.4175 40.5917 28.5567 41.9959C26.2459 43.3826 29.5117 49.6267 26.4667 49.6134C24.5959 47.3892 25.8759 41.8159 25.7559 38.8076C26.7175 38.1676 28.7175 38.7651 30.0117 38.5667C35.19 38.0867 34.4425 39.3034 34.3984 43.7517C35.0959 47.8026 32.0842 48.7501 32.2709 44.2984L32.2725 44.3026ZM35.3067 38.5917C32.3532 37.889 29.3049 37.6725 26.2817 37.9509C26.0255 37.964 25.7747 38.0299 25.5452 38.1447C25.3158 38.2594 25.1125 38.4204 24.9484 38.6176C20.2967 34.9792 20.355 27.5342 25.3934 24.2209C34.3625 18.4417 43.5942 32.2301 35.305 38.5876L35.3067 38.5917ZM29.2084 5.9609C29.2084 5.96923 29.1925 5.97923 29.1625 5.98923C29.1625 5.97173 29.0917 5.75007 29.2084 5.9609ZM28.9375 7.9484C29.0117 7.3409 28.7592 6.61007 29.0984 6.0759C31.7017 5.44673 31.0009 8.00507 31.0642 9.6984C30.3409 9.71173 29.6475 9.71923 28.9375 9.71923V7.9484ZM21.1875 11.2409C28.1167 9.6384 39.3542 8.2934 43.1392 15.9226C34.3439 16.5121 25.5194 16.5246 16.7225 15.9601C17.6157 13.9157 19.1938 12.2469 21.185 11.2409H21.1875ZM13.1484 20.3867C13.0118 19.6298 13.1472 18.849 13.5305 18.1822C13.9139 17.5154 14.5205 17.0055 15.2434 16.7426C15.085 17.0351 16.1709 16.9259 16.3967 16.6176C25.409 17.1245 34.4428 17.1164 43.4542 16.5934C43.5509 17.0867 44.0859 17.0242 44.565 16.7767C45.0511 16.9585 45.4918 17.244 45.8564 17.6133C46.2209 17.9826 46.5007 18.4269 46.6762 18.9152C46.8517 19.4036 46.9188 19.9244 46.8726 20.4413C46.8265 20.9582 46.6684 21.4588 46.4092 21.9084C43.8167 24.7042 38.9434 23.0909 35.4484 23.6584C33.8547 22.6509 32.0066 22.119 30.1212 22.1252C28.2357 22.1314 26.3912 22.6754 24.8042 23.6934C21.0984 23.0434 14.3425 25.2401 13.1484 20.3867ZM12.6484 23.9342C16.3092 24.0809 19.9875 24.5384 23.6709 24.5126C22.6954 25.3085 21.8902 26.2926 21.3032 27.4063C20.7163 28.5201 20.3595 29.7405 20.2542 30.9951C16.9325 30.2934 11.4517 32.0109 9.92085 28.0934C9.36919 26.2267 10.5767 23.9834 12.6517 23.9342H12.6484ZM6.45752 34.6842C6.49835 27.9342 16.0834 32.6342 20.2217 31.8509C20.2478 33.1287 20.5293 34.3883 21.0495 35.5557C21.5697 36.7231 22.3182 37.7746 23.2509 38.6484C18.6342 37.7584 7.77086 40.4884 6.46085 34.6884L6.45752 34.6842ZM10.9717 39.7926C15.0242 38.2042 20.0359 40.0976 24.3967 39.5742C24.3725 41.7717 24.4059 43.9601 24.3967 46.1576C20.1609 45.6826 5.55002 47.8434 10.975 39.7967L10.9717 39.7926ZM37.1909 53.1459C29.2217 54.8126 18.3842 54.3067 13.6009 46.7142C17.1959 46.8876 20.7759 47.0301 24.3725 47.0776C23.4817 51.4526 29.6459 51.0651 28.9442 47.0634C29.7853 47.069 30.6256 47.069 31.465 47.0634C32.26 48.0901 34.0284 47.8292 34.9259 47.0434C38.8425 46.9842 42.6442 46.8467 46.575 46.6751C44.8342 50.2151 40.86 52.2617 37.1909 53.1459ZM49.0842 45.0626C44.945 46.7776 39.9225 45.7817 35.4725 46.2201C35.7917 44.0342 35.5175 41.7376 35.6042 39.5217C39.9334 39.9834 54.315 36.4167 49.0842 45.0659V45.0626ZM52.9917 36.4792C48.5984 39.6401 41.775 37.9667 36.51 38.7051C37.4809 37.8463 38.2685 36.8003 38.8253 35.6299C39.3822 34.4594 39.697 33.1885 39.7509 31.8934C44.0717 32.1776 55.9592 28.2301 52.9917 36.4792Z" fill="#592B02"/>
</g>
<defs>
<clipPath id="clip0_75_27129">
<rect width="50" height="50" fill="white" transform="translate(5 5)"/>
</clipPath>
</defs>
</svg>
