<svg width="60" height="60" viewBox="0 0 60 60" fill="none" xmlns="http://www.w3.org/2000/svg">
<path d="M44.5157 55.7339C44.4228 55.7339 44.3318 55.708 44.2528 55.6592C44.1738 55.6104 44.11 55.5405 44.0685 55.4575C44.027 55.3744 44.0094 55.2814 44.0177 55.189C44.0261 55.0965 44.06 55.0081 44.1157 54.9339L44.7687 54.0489L43.0857 55.0199C42.9838 55.0783 42.8645 55.099 42.7488 55.0782C42.6331 55.0575 42.5285 54.9967 42.4532 54.9065C42.3779 54.8163 42.3367 54.7024 42.337 54.5849C42.3373 54.4674 42.379 54.3537 42.4547 54.2639L43.8547 52.6239L41.0547 54.2429C40.9472 54.3044 40.8207 54.3238 40.6998 54.2974C40.5788 54.2709 40.4719 54.2006 40.3998 54.0999C40.3278 53.9992 40.2956 53.8753 40.3096 53.7523C40.3237 53.6292 40.3828 53.5158 40.4757 53.4339L41.5657 52.4819L39.4267 53.7169C39.3698 53.7502 39.3069 53.772 39.2416 53.7809C39.1762 53.7898 39.1098 53.7858 39.046 53.7689C38.9823 53.7521 38.9225 53.7228 38.8701 53.6827C38.8177 53.6427 38.7738 53.5926 38.7408 53.5355C38.7078 53.4784 38.6865 53.4154 38.678 53.35C38.6695 53.2846 38.674 53.2182 38.6913 53.1545C38.7086 53.0909 38.7383 53.0313 38.7787 52.9792C38.8191 52.9271 38.8694 52.8835 38.9267 52.8509L45.5097 49.0509C45.6172 48.9894 45.7437 48.97 45.8646 48.9964C45.9856 49.0228 46.0925 49.0932 46.1646 49.1939C46.2366 49.2946 46.2688 49.4184 46.2548 49.5415C46.2407 49.6645 46.1816 49.778 46.0887 49.8599L44.9997 50.8099L45.8697 50.3099C45.9716 50.2514 46.0909 50.2307 46.2066 50.2515C46.3223 50.2722 46.4269 50.333 46.5022 50.4232C46.5775 50.5135 46.6187 50.6273 46.6184 50.7448C46.6181 50.8623 46.5764 50.976 46.5007 51.0659L45.1007 52.7059L46.3487 51.9859C46.4482 51.9286 46.5644 51.9072 46.6777 51.9255C46.7911 51.9437 46.8947 52.0004 46.9712 52.086C47.0477 52.1717 47.0924 52.281 47.0977 52.3957C47.1031 52.5104 47.0688 52.6235 47.0007 52.7159L46.3477 53.6009L46.7207 53.3859C46.835 53.3261 46.9679 53.3128 47.0918 53.3487C47.2156 53.3846 47.3208 53.467 47.3853 53.5787C47.4499 53.6903 47.4688 53.8226 47.4381 53.9479C47.4074 54.0731 47.3295 54.1817 47.2207 54.2509L44.7727 55.6639C44.6952 55.7105 44.6062 55.7348 44.5157 55.7339Z" fill="#9DBF69"/>
<path d="M33.1564 59.464C33.0575 59.464 32.9608 59.4346 32.8785 59.3796C32.7963 59.3246 32.7322 59.2465 32.6944 59.155C32.6566 59.0636 32.6468 58.963 32.6662 58.866C32.6856 58.769 32.7334 58.6799 32.8034 58.61L33.5684 57.846L32.1684 58.653C32.0581 58.7167 31.9276 58.7359 31.8036 58.7066C31.6796 58.6773 31.5714 58.6018 31.5012 58.4955C31.431 58.3891 31.4041 58.26 31.4258 58.1345C31.4476 58.009 31.5165 57.8965 31.6184 57.82L38.3464 52.784L31.5534 56.706C31.4427 56.7685 31.3124 56.7865 31.189 56.7563C31.0655 56.7261 30.9582 56.6501 30.8888 56.5436C30.8194 56.4372 30.7931 56.3083 30.8154 56.1832C30.8376 56.0581 30.9066 55.9461 31.0084 55.87L37.0594 51.448L31.0424 54.921C30.9316 54.9841 30.8009 55.0024 30.677 54.9722C30.5531 54.9421 30.4454 54.8658 30.376 54.7589C30.3065 54.652 30.2805 54.5226 30.3032 54.3972C30.326 54.2717 30.3958 54.1597 30.4984 54.084L36.2934 49.884L30.5494 53.2C30.4384 53.2637 30.3073 53.2824 30.1829 53.2523C30.0586 53.2222 29.9505 53.1456 29.8809 53.0383C29.8114 52.9309 29.7856 52.8009 29.8089 52.6751C29.8323 52.5493 29.9029 52.4373 30.0064 52.362L35.6904 48.251L30.4634 51.269C30.3532 51.3322 30.2231 51.351 30.0995 51.3217C29.9759 51.2924 29.8681 51.2172 29.798 51.1113C29.7278 51.0054 29.7006 50.8767 29.7219 50.7515C29.7431 50.6263 29.8113 50.5139 29.9124 50.437L36.4124 45.553L30.9394 48.713C30.8283 48.7774 30.6966 48.7966 30.5718 48.7666C30.4469 48.7366 30.3383 48.6597 30.2686 48.5518C30.1989 48.4439 30.1734 48.3133 30.1974 48.1871C30.2214 48.0609 30.293 47.9488 30.3974 47.874L34.3704 45.022L31.2894 46.8C31.178 46.8633 31.0465 46.8813 30.9221 46.8504C30.7978 46.8195 30.69 46.742 30.6211 46.634C30.5522 46.526 30.5274 46.3956 30.5519 46.2698C30.5763 46.144 30.6481 46.0324 30.7524 45.958L32.6434 44.633L31.5764 45.248C31.4692 45.3083 31.3435 45.3269 31.2234 45.3003C31.1034 45.2737 30.9973 45.2038 30.9255 45.1039C30.8537 45.004 30.8213 44.8812 30.8344 44.7589C30.8474 44.6366 30.9051 44.5235 30.9964 44.441L33.4094 42.317L31.9644 43.151C31.8664 43.2078 31.7519 43.2297 31.6399 43.2129C31.5278 43.1962 31.4247 43.1419 31.3476 43.0589C31.2704 42.9759 31.2237 42.8692 31.2151 42.7562C31.2066 42.6432 31.2366 42.5307 31.3004 42.437L31.7364 41.795C31.6524 41.7515 31.5829 41.6844 31.5364 41.602C31.4701 41.4872 31.4521 41.3507 31.4865 41.2226C31.5208 41.0945 31.6046 40.9853 31.7194 40.919L32.8284 40.278C32.9264 40.2212 33.0409 40.1994 33.153 40.2161C33.265 40.2328 33.3681 40.2872 33.4452 40.3701C33.5224 40.4531 33.5691 40.5598 33.5777 40.6728C33.5862 40.7858 33.5562 40.8984 33.4924 40.992L33.3544 41.192L37.2694 38.933C37.3766 38.8728 37.5023 38.8542 37.6224 38.8808C37.7425 38.9074 37.8485 38.9773 37.9203 39.0771C37.9921 39.177 38.0245 39.2998 38.0115 39.4221C37.9984 39.5444 37.9407 39.6576 37.8494 39.74L35.4374 41.863L42.0094 38.069C42.1209 38.0058 42.2523 37.9878 42.3767 38.0187C42.501 38.0496 42.6088 38.127 42.6777 38.2351C42.7466 38.3431 42.7714 38.4735 42.747 38.5992C42.7225 38.725 42.6507 38.8366 42.5464 38.911L40.6594 40.234L42.6104 39.1C42.7215 39.0356 42.8532 39.0164 42.9781 39.0464C43.1029 39.0764 43.2115 39.1534 43.2812 39.2613C43.3509 39.3691 43.3764 39.4997 43.3524 39.6259C43.3284 39.7521 43.2568 39.8642 43.1524 39.939L39.1804 42.8L43.0624 40.559C43.1726 40.4972 43.302 40.4794 43.4248 40.5091C43.5476 40.5388 43.6546 40.6139 43.7242 40.7193C43.7939 40.8247 43.8211 40.9525 43.8003 41.0771C43.7796 41.2018 43.7124 41.3139 43.6124 41.391L37.1124 46.276L43.6244 42.518C43.7354 42.4543 43.8665 42.4356 43.9909 42.4657C44.1152 42.4958 44.2233 42.5724 44.2929 42.6798C44.3625 42.7872 44.3882 42.9171 44.3649 43.0429C44.3415 43.1687 44.2709 43.2808 44.1674 43.356L38.4854 47.46L44.1114 44.212C44.2222 44.149 44.3529 44.1307 44.4768 44.1608C44.6007 44.1909 44.7084 44.2673 44.7779 44.3742C44.8473 44.4811 44.8734 44.6105 44.8506 44.7359C44.8278 44.8613 44.758 44.9733 44.6554 45.049L38.8554 49.249L44.6004 45.933C44.7109 45.8723 44.8402 45.8556 44.9625 45.8862C45.0848 45.9168 45.191 45.9924 45.2599 46.098C45.3288 46.2035 45.3552 46.3312 45.334 46.4554C45.3128 46.5797 45.2454 46.6913 45.1454 46.768L39.1004 51.2L45.1194 47.726C45.2298 47.6623 45.3603 47.6432 45.4843 47.6725C45.6082 47.7017 45.7164 47.7773 45.7866 47.8836C45.8568 47.9899 45.8838 48.119 45.862 48.2445C45.8402 48.3701 45.7713 48.4826 45.6694 48.559L36.9154 55.111C36.953 55.1398 36.9867 55.1734 37.0154 55.211C37.0893 55.3072 37.1257 55.4271 37.1177 55.5481C37.1098 55.6692 37.0582 55.7832 36.9724 55.869L35.0444 57.794C35.0602 57.8143 35.0746 57.8357 35.0874 57.858C35.1534 57.9728 35.1712 58.109 35.1369 58.2369C35.1026 58.3647 35.019 58.4737 34.9044 58.54L33.4044 59.403C33.3286 59.4449 33.243 59.466 33.1564 59.464Z" fill="#9DBF69"/>
<path d="M26.271 59.387C26.1765 59.3872 26.084 59.3606 26.004 59.3103C25.924 59.2601 25.86 59.1882 25.8191 59.103C25.7783 59.0179 25.7625 58.9229 25.7734 58.8291C25.7844 58.7353 25.8216 58.6465 25.881 58.573L26.815 57.41L25.377 58.24C25.2719 58.2984 25.1494 58.317 25.0318 58.2924C24.9141 58.2678 24.8093 58.2017 24.7364 58.1061C24.6636 58.0105 24.6276 57.8919 24.635 57.772C24.6425 57.6521 24.6929 57.5388 24.777 57.453L26.444 55.793L24.41 56.965C24.3024 57.0267 24.1757 57.0462 24.0545 57.0197C23.9333 56.9932 23.8263 56.9226 23.7543 56.8217C23.6822 56.7207 23.6503 56.5966 23.6646 56.4734C23.679 56.3502 23.7386 56.2367 23.832 56.155L25.875 54.376L23.491 55.752C23.3824 55.8128 23.255 55.8309 23.1338 55.8028C23.0125 55.7747 22.9061 55.7024 22.8354 55.6C22.7646 55.4976 22.7346 55.3725 22.7512 55.2492C22.7677 55.1258 22.8297 55.0131 22.925 54.933L25.625 52.72L22.543 54.5C22.433 54.5635 22.3029 54.5828 22.1793 54.554C22.0556 54.5251 21.9475 54.4503 21.877 54.3446C21.8065 54.239 21.7788 54.1105 21.7996 53.9852C21.8204 53.8599 21.8881 53.7472 21.989 53.67L24.87 51.47L20.949 53.733C20.8387 53.7953 20.7088 53.8134 20.5857 53.7836C20.4626 53.7539 20.3553 53.6785 20.2856 53.5728C20.2159 53.467 20.189 53.3387 20.2102 53.2138C20.2314 53.089 20.2992 52.9768 20.4 52.9L25.409 49.094L14 55.679C13.8868 55.7453 13.7521 55.7645 13.625 55.7325C13.4978 55.7004 13.3883 55.6197 13.3201 55.5077C13.2519 55.3956 13.2304 55.2613 13.2603 55.1336C13.2902 55.0059 13.3691 54.8951 13.48 54.825L13.557 54.776L13.366 54.886C13.2537 54.9511 13.1205 54.9699 12.9945 54.9386C12.8685 54.9073 12.7597 54.8282 12.691 54.718C12.6223 54.6079 12.5991 54.4754 12.6264 54.3485C12.6536 54.2216 12.7291 54.1102 12.837 54.038L19.567 49.514L13.634 52.939C13.5234 52.9941 13.3963 53.0063 13.2772 52.9732C13.1582 52.9401 13.0556 52.8641 12.9892 52.7599C12.9229 52.6557 12.8975 52.5306 12.9179 52.4087C12.9384 52.2868 13.0032 52.1769 13.1 52.1L20.845 46.65L14.369 50.389C14.258 50.4527 14.1268 50.4714 14.0025 50.4413C13.8781 50.4112 13.77 50.3346 13.7005 50.2272C13.6309 50.1199 13.6051 49.9899 13.6285 49.8641C13.6518 49.7383 13.7225 49.6263 13.826 49.551L19.54 45.42L15.048 48.01C14.9373 48.0725 14.807 48.0904 14.6835 48.0603C14.5601 48.0301 14.4528 47.9541 14.3834 47.8476C14.314 47.7412 14.2877 47.6123 14.3099 47.4872C14.3321 47.362 14.4012 47.2501 14.503 47.174L17.849 44.728L15.62 46.014C15.5106 46.0767 15.3816 46.0957 15.2588 46.0673C15.136 46.0389 15.0285 45.9653 14.9577 45.861C14.8869 45.7567 14.8581 45.6295 14.8771 45.5049C14.896 45.3803 14.9614 45.2675 15.06 45.189L17.8 43.016L16.218 43.929C16.1115 43.9909 15.9859 44.0112 15.8653 43.9862C15.7447 43.9612 15.6376 43.8925 15.5645 43.7934C15.4913 43.6943 15.4574 43.5717 15.4691 43.4491C15.4808 43.3264 15.5374 43.2125 15.628 43.129L17.547 41.349L16.84 41.756C16.7452 41.8107 16.6352 41.8328 16.5267 41.819C16.4182 41.8051 16.3172 41.7561 16.2392 41.6794C16.1613 41.6027 16.1106 41.5025 16.095 41.3942C16.0795 41.286 16.0998 41.1756 16.153 41.08L17.41 38.824C17.3783 38.7924 17.3511 38.7568 17.329 38.718C17.2627 38.6032 17.2447 38.4667 17.279 38.3386C17.3133 38.2105 17.3971 38.1013 17.512 38.035L18.131 37.678C18.2256 37.624 18.3352 37.6024 18.4433 37.6165C18.5513 37.6306 18.6517 37.6795 18.7294 37.7559C18.807 37.8323 18.8576 37.932 18.8734 38.0398C18.8892 38.1475 18.8694 38.2575 18.817 38.353L17.908 39.985L20.89 38.265C20.9964 38.204 21.1216 38.1843 21.2417 38.2097C21.3618 38.235 21.4683 38.3036 21.5411 38.4025C21.6138 38.5013 21.6477 38.6234 21.6362 38.7456C21.6248 38.8677 21.5688 38.9814 21.479 39.065L19.563 40.844L23.183 38.754C23.2921 38.6928 23.4203 38.6748 23.5421 38.7036C23.6639 38.7323 23.7705 38.8057 23.8409 38.9092C23.9112 39.0127 23.9402 39.1388 23.9221 39.2626C23.9039 39.3865 23.84 39.499 23.743 39.578L21 41.752L25.383 39.222C25.4936 39.1595 25.6239 39.1416 25.7474 39.1717C25.8708 39.2019 25.9782 39.2779 26.0476 39.3844C26.117 39.4908 26.1432 39.6197 26.121 39.7448C26.0988 39.87 26.0298 39.9819 25.928 40.058L22.584 42.5L27.493 39.666C27.6039 39.6023 27.7351 39.5836 27.8594 39.6137C27.9838 39.6438 28.0919 39.7204 28.1614 39.8278C28.231 39.9351 28.2568 40.0651 28.2334 40.1909C28.2101 40.3167 28.1394 40.4287 28.036 40.504L22.318 44.638L30.005 40.2C30.1165 40.1349 30.2489 40.1154 30.3744 40.1457C30.5 40.176 30.6089 40.2537 30.6785 40.3625C30.748 40.4714 30.7727 40.6029 30.7475 40.7295C30.7222 40.8562 30.6489 40.9682 30.543 41.042L22.8 46.493L31.756 41.322C31.8683 41.2569 32.0015 41.2381 32.1274 41.2694C32.2534 41.3007 32.3622 41.3798 32.4309 41.49C32.4996 41.6001 32.5228 41.7326 32.4955 41.8595C32.4683 41.9864 32.3928 42.0978 32.285 42.17L25.549 46.7L31.843 43.066C31.956 43.0028 32.0891 42.986 32.2143 43.0189C32.3394 43.0519 32.447 43.1321 32.5142 43.2428C32.5814 43.3534 32.6031 43.4858 32.5747 43.6121C32.5463 43.7384 32.4701 43.8488 32.362 43.92L31.897 44.22C31.9958 44.1988 32.0987 44.2076 32.1924 44.2454C32.2862 44.2832 32.3665 44.3482 32.423 44.432C32.4935 44.5378 32.521 44.6665 32.5 44.7919C32.479 44.9173 32.4111 45.0299 32.31 45.107L27.3 48.91L31.049 46.746C31.1589 46.6825 31.289 46.6632 31.4127 46.692C31.5363 46.7209 31.6444 46.7957 31.7149 46.9014C31.7854 47.007 31.8131 47.1355 31.7923 47.2608C31.7715 47.3861 31.7038 47.4988 31.603 47.576L28.723 49.776L30.469 48.768C30.5777 48.7059 30.7058 48.6868 30.8279 48.7146C30.95 48.7425 31.0573 48.8151 31.1284 48.9181C31.1996 49.0212 31.2294 49.1472 31.2121 49.2713C31.1948 49.3953 31.1316 49.5083 31.035 49.588L28.327 51.803L29.853 50.923C29.9604 50.8624 30.0865 50.8437 30.2069 50.8705C30.3273 50.8972 30.4336 50.9676 30.5053 51.0679C30.577 51.1683 30.6091 51.2916 30.5953 51.4142C30.5816 51.5368 30.5231 51.65 30.431 51.732L28.39 53.513L29.255 53.013C29.36 52.9546 29.4825 52.936 29.6002 52.9606C29.7178 52.9852 29.8226 53.0513 29.8955 53.1469C29.9683 53.2425 30.0043 53.3611 29.9969 53.481C29.9894 53.6009 29.9391 53.7142 29.855 53.8L28.189 55.46L28.624 55.209C28.725 55.1506 28.8432 55.1294 28.9581 55.149C29.0731 55.1687 29.1776 55.2278 29.2536 55.3164C29.3295 55.4049 29.3721 55.5172 29.374 55.6338C29.3759 55.7504 29.337 55.8641 29.264 55.955L28.242 57.227C28.3545 57.2195 28.4663 57.2502 28.5591 57.3142C28.652 57.3782 28.7205 57.4717 28.7535 57.5795C28.7865 57.6874 28.7821 57.8032 28.741 57.9082C28.6999 58.0132 28.6244 58.1013 28.527 58.158L26.519 59.318C26.4437 59.3623 26.3582 59.386 26.271 59.387Z" fill="#9DBF69"/>
<path d="M42.9726 40.122C42.8626 40.122 42.7556 40.0857 42.6683 40.0187C42.5809 39.9517 42.5182 39.8577 42.4897 39.7514C42.4612 39.6451 42.4686 39.5323 42.5107 39.4307C42.5528 39.329 42.6273 39.244 42.7226 39.189L45.8396 37.389C45.9539 37.3292 46.0869 37.3159 46.2107 37.3518C46.3346 37.3878 46.4397 37.4702 46.5043 37.5818C46.5688 37.6935 46.5877 37.8257 46.557 37.951C46.5264 38.0762 46.4485 38.1848 46.3396 38.254L43.2226 40.054C43.1468 40.0985 43.0605 40.122 42.9726 40.122Z" fill="#FFD34E"/>
<path d="M29.0611 45.3419C28.9529 45.3418 28.8476 45.3067 28.761 45.2417C28.6745 45.1767 28.6114 45.0854 28.5812 44.9814C28.551 44.8775 28.5553 44.7666 28.5935 44.6653C28.6317 44.5641 28.7018 44.4779 28.7931 44.4199L29.5931 43.9129L28.1681 44.7349C28.0551 44.7981 27.922 44.8149 27.7968 44.782C27.6716 44.749 27.5641 44.6687 27.4969 44.5581C27.4296 44.4475 27.4079 44.3151 27.4363 44.1888C27.4647 44.0625 27.541 43.9521 27.6491 43.8809L30.7631 41.8999L27.0991 44.0119C26.9869 44.0784 26.8531 44.0984 26.7264 44.0676C26.5996 44.0369 26.4899 43.9578 26.4206 43.8473C26.3513 43.7368 26.328 43.6036 26.3555 43.4761C26.3831 43.3486 26.4594 43.2369 26.5681 43.1649L38.1751 35.3249L23.1511 43.9999C23.038 44.0662 22.9033 44.0854 22.7761 44.0533C22.6489 44.0213 22.5395 43.9406 22.4713 43.8285C22.403 43.7165 22.3816 43.5822 22.4115 43.4545C22.4414 43.3268 22.5203 43.216 22.6311 43.1459L33.0991 36.4149L21.1191 43.3309C21.0065 43.392 20.8747 43.4076 20.7509 43.3743C20.6272 43.3411 20.5209 43.2616 20.454 43.1523C20.3872 43.043 20.3649 42.9121 20.3917 42.7868C20.4185 42.6615 20.4924 42.5513 20.5981 42.4789L35.2271 33.0059L19.8991 41.8569C19.7859 41.9174 19.6537 41.932 19.53 41.8977C19.4063 41.8634 19.3005 41.7828 19.2345 41.6727C19.1686 41.5625 19.1476 41.4312 19.1758 41.306C19.204 41.1807 19.2793 41.0711 19.3861 40.9999L24.1511 38.0469L19.1571 40.9299C19.0435 40.9939 18.9094 41.011 18.7834 40.9775C18.6574 40.9441 18.5495 40.8627 18.4826 40.7508C18.4157 40.6389 18.3951 40.5053 18.4253 40.3785C18.4555 40.2517 18.534 40.1417 18.6441 40.0719L23.5701 37.0189L17.9991 40.2339C17.8859 40.2986 17.7519 40.3165 17.6257 40.2838C17.4994 40.2511 17.391 40.1704 17.3234 40.0589C17.2558 39.9473 17.2345 39.8138 17.264 39.6868C17.2934 39.5598 17.3714 39.4493 17.4811 39.3789L29.0741 32.0499L15.7991 39.7139C15.6852 39.7818 15.549 39.8016 15.4204 39.7691C15.2919 39.7366 15.1815 39.6543 15.1136 39.5404C15.0457 39.4265 15.0259 39.2903 15.0584 39.1617C15.0909 39.0331 15.1732 38.9228 15.2871 38.8549L19.1711 36.4679L14.7601 39.0139C14.6466 39.0793 14.5119 39.0976 14.385 39.0648C14.2582 39.0319 14.1493 38.9506 14.0818 38.8383C14.0143 38.726 13.9936 38.5916 14.0241 38.4642C14.0547 38.3367 14.134 38.2264 14.2451 38.1569L25.9301 30.8569L13.9301 37.7849C13.817 37.8462 13.6845 37.8615 13.5604 37.8276C13.4362 37.7937 13.3299 37.7133 13.2635 37.603C13.1972 37.4927 13.1759 37.3611 13.2041 37.2355C13.2324 37.11 13.3079 37.0001 13.4151 36.9289L25.0391 29.6799L13.6091 36.2799C13.496 36.3412 13.3635 36.3565 13.2394 36.3226C13.1152 36.2887 13.0089 36.2083 12.9425 36.098C12.8762 35.9877 12.8549 35.8561 12.8831 35.7305C12.9114 35.605 12.9869 35.4951 13.0941 35.4239L25.5611 27.6149L13.0111 34.8599C12.8983 34.9219 12.7659 34.9381 12.6415 34.9049C12.5171 34.8718 12.4103 34.792 12.3432 34.682C12.2762 34.5721 12.2542 34.4406 12.2817 34.3148C12.3093 34.189 12.3843 34.0787 12.4911 34.0069L28.6361 23.6919L11.4991 33.5879C11.3861 33.6511 11.253 33.6679 11.1278 33.635C11.0026 33.602 10.8951 33.5217 10.8279 33.4111C10.7606 33.3005 10.7389 33.1681 10.7673 33.0418C10.7957 32.9155 10.872 32.8051 10.9801 32.7339L27.8491 21.9459L10.1221 32.1799C10.0086 32.2484 9.87251 32.2691 9.74376 32.2373C9.61502 32.2055 9.50417 32.1239 9.43562 32.0104C9.36706 31.8969 9.3464 31.7608 9.37819 31.632C9.40998 31.5033 9.4916 31.3924 9.60512 31.3239L24.1911 22.1349L9.68112 30.5119C9.56753 30.5759 9.43344 30.593 9.30743 30.5595C9.18142 30.5261 9.07346 30.4447 9.00656 30.3328C8.93965 30.2209 8.9191 30.0873 8.94928 29.9605C8.97946 29.8337 9.05798 29.7237 9.16812 29.6539L17.1231 24.7359L9.96912 28.8669C9.85597 28.9332 9.72129 28.9524 9.59412 28.9203C9.46695 28.8883 9.35746 28.8076 9.28925 28.6955C9.22105 28.5835 9.19958 28.4492 9.22948 28.3215C9.25939 28.1938 9.33826 28.083 9.44912 28.0129L25.4371 17.7679L9.77012 26.8139C9.65687 26.8831 9.52076 26.9045 9.39174 26.8734C9.26271 26.8422 9.15134 26.7611 9.08212 26.6479C9.0129 26.5346 8.9915 26.3985 9.02263 26.2695C9.05376 26.1405 9.13487 26.0291 9.24812 25.9599L24.1361 16.3599L8.76612 25.2309C8.65287 25.3 8.51681 25.3212 8.38788 25.29C8.25895 25.2588 8.14771 25.1776 8.07862 25.0644C8.00953 24.9511 7.98826 24.8151 8.01948 24.6862C8.0507 24.5572 8.13187 24.446 8.24512 24.3769L22.2501 15.3769L8.27912 23.4469C8.16611 23.5101 8.03301 23.5269 7.90782 23.494C7.78263 23.461 7.67511 23.3807 7.60788 23.2701C7.54064 23.1595 7.51894 23.0271 7.54733 22.9008C7.57573 22.7745 7.652 22.6641 7.76012 22.5929L20.6871 14.3079L9.30812 20.8769C9.19519 20.9412 9.06167 20.959 8.93586 20.9265C8.81004 20.894 8.7018 20.8139 8.63407 20.703C8.56633 20.5921 8.54443 20.4592 8.573 20.3324C8.60157 20.2057 8.67837 20.095 8.78712 20.0239L19.4101 13.1839L10.0341 18.5999C9.92155 18.6652 9.78797 18.684 9.66175 18.6523C9.53553 18.6207 9.42662 18.5411 9.35815 18.4304C9.28967 18.3198 9.26703 18.1868 9.29504 18.0597C9.32304 17.9327 9.39948 17.8215 9.50812 17.7499L19.8481 10.8769L9.69912 16.7379C9.5859 16.8026 9.45189 16.8205 9.32566 16.7878C9.19942 16.7551 9.09096 16.6744 9.02339 16.5629C8.95582 16.4513 8.93449 16.3178 8.96396 16.1908C8.99342 16.0638 9.07135 15.9533 9.18112 15.8829L12.1971 13.9649L9.85112 15.3169C9.73882 15.382 9.60561 15.4008 9.47966 15.3695C9.3537 15.3382 9.24487 15.2591 9.17617 15.1489C9.10747 15.0388 9.08429 14.9063 9.11153 14.7794C9.13876 14.6525 9.21428 14.5411 9.32212 14.4689L17.6221 8.89889L13.3741 11.3519C13.2619 11.4184 13.1281 11.4384 13.0014 11.4076C12.8746 11.3769 12.7649 11.2978 12.6956 11.1873C12.6263 11.0768 12.603 10.9436 12.6305 10.8161C12.6581 10.6886 12.7344 10.5769 12.8431 10.5049L13.6531 9.95389C13.5466 10.0017 13.4268 10.0107 13.3143 9.97942C13.2019 9.94813 13.1039 9.87848 13.0374 9.78255C12.9709 9.68661 12.9401 9.57044 12.9503 9.45416C12.9604 9.33788 13.011 9.22882 13.0931 9.14589L13.9991 8.22989C13.896 8.1886 13.81 8.11349 13.7551 8.01689C13.6887 7.90217 13.6706 7.76579 13.7047 7.63771C13.7389 7.50964 13.8225 7.40036 13.9371 7.33389L16.2081 6.02289C16.313 5.96241 16.4363 5.94205 16.555 5.96558C16.6738 5.98911 16.78 6.05493 16.8539 6.15083C16.9278 6.24672 16.9644 6.36618 16.9569 6.48701C16.9494 6.60785 16.8983 6.72186 16.8131 6.80789L16.4211 7.20789L24.8361 2.34889C24.9483 2.2824 25.0821 2.2624 25.2089 2.29314C25.3356 2.32389 25.4453 2.40296 25.5146 2.51347C25.5839 2.62398 25.6073 2.75719 25.5797 2.88468C25.5521 3.01218 25.4759 3.12385 25.3671 3.19589L24.5861 3.72689L29.9811 0.609886C30.0934 0.544801 30.2266 0.525936 30.3526 0.557279C30.4785 0.588622 30.5874 0.667717 30.6561 0.777842C30.7248 0.887967 30.7479 1.02049 30.7207 1.1474C30.6935 1.2743 30.618 1.38565 30.5101 1.45789L22.2101 7.02589L31.9841 1.38189C32.0975 1.31306 32.2336 1.2921 32.3624 1.3236C32.4913 1.35511 32.6023 1.43651 32.6711 1.54989C32.7399 1.66327 32.7609 1.79934 32.7294 1.92818C32.6979 2.05702 32.6165 2.16806 32.5031 2.23689L29.4821 4.15889L33.0921 2.07489C33.2044 2.0129 33.3362 1.99643 33.4603 2.02889C33.5844 2.06135 33.6913 2.14025 33.7588 2.24928C33.8264 2.35831 33.8494 2.48913 33.8232 2.61469C33.7971 2.74025 33.7236 2.85094 33.6181 2.92389L23.2811 9.79989L36.7901 1.99989C36.8462 1.96568 36.9085 1.94285 36.9734 1.9327C37.0383 1.92255 37.1045 1.92529 37.1684 1.94075C37.2322 1.95621 37.2924 1.98409 37.3454 2.02281C37.3985 2.06152 37.4434 2.11031 37.4776 2.16639C37.5118 2.22246 37.5347 2.28472 37.5448 2.34962C37.555 2.41452 37.5522 2.48078 37.5368 2.54462C37.5213 2.60846 37.4934 2.66863 37.4547 2.72169C37.416 2.77476 37.3672 2.81968 37.3111 2.85389L26.6841 9.68989L38.8641 2.65789C38.9773 2.59158 39.1119 2.57238 39.2391 2.60443C39.3663 2.63648 39.4758 2.71721 39.544 2.82923C39.6122 2.94125 39.6337 3.07558 39.6038 3.20327C39.5738 3.33097 39.495 3.4418 39.3841 3.51189L26.4561 11.7999L39.9991 3.97689C40.1123 3.91058 40.2469 3.89138 40.3741 3.92343C40.5013 3.95548 40.6108 4.03621 40.679 4.14823C40.7472 4.26025 40.7687 4.39458 40.7388 4.52227C40.7088 4.64997 40.63 4.7608 40.5191 4.83089L26.5191 13.8229L41.1991 5.35089C41.3122 5.28166 41.4482 5.26021 41.5771 5.29125C41.7061 5.32229 41.8174 5.40327 41.8866 5.51639C41.9558 5.6295 41.9773 5.76548 41.9463 5.89441C41.9152 6.02334 41.8342 6.13466 41.7211 6.20389L26.8301 15.8099L43.6511 6.09989C43.7643 6.03358 43.8989 6.01438 44.0261 6.04643C44.1533 6.07848 44.2628 6.15921 44.331 6.27123C44.3992 6.38325 44.4207 6.51758 44.3908 6.64527C44.3608 6.77297 44.282 6.8838 44.1711 6.95389L28.1791 17.1999L45.4601 7.22189C45.5737 7.1579 45.7078 7.1408 45.8338 7.17425C45.9598 7.20769 46.0678 7.28903 46.1347 7.40093C46.2016 7.51282 46.2221 7.64643 46.192 7.77326C46.1618 7.90009 46.0832 8.01012 45.9731 8.07989L38.0251 12.9919L46.1131 8.32289C46.2266 8.25433 46.3627 8.23367 46.4915 8.26546C46.6202 8.29725 46.7311 8.37887 46.7996 8.49239C46.8682 8.6059 46.8888 8.742 46.857 8.87074C46.8253 8.99948 46.7436 9.11033 46.6301 9.17889L32.0471 18.3669L46.4701 10.0399C46.5831 9.97672 46.7162 9.95985 46.8414 9.99282C46.9666 10.0258 47.0741 10.106 47.1414 10.2167C47.2086 10.3273 47.2303 10.4597 47.2019 10.586C47.1735 10.7123 47.0972 10.8227 46.9891 10.8939L30.1091 21.6869L47.4491 11.6759C47.5623 11.6096 47.6969 11.5904 47.8241 11.6224C47.9513 11.6545 48.0608 11.7352 48.129 11.8472C48.1972 11.9592 48.2187 12.0936 48.1888 12.2213C48.1588 12.349 48.08 12.4598 47.9691 12.5299L31.8281 22.8399L49.1221 12.8549C49.1784 12.821 49.2408 12.7985 49.3057 12.7888C49.3707 12.779 49.4369 12.7821 49.5007 12.798C49.5644 12.8138 49.6244 12.842 49.6773 12.881C49.7301 12.9201 49.7747 12.9691 49.8086 13.0254C49.8425 13.0817 49.865 13.1441 49.8747 13.209C49.8845 13.274 49.8814 13.3402 49.8655 13.4039C49.8497 13.4677 49.8215 13.5277 49.7825 13.5805C49.7434 13.6334 49.6944 13.678 49.6381 13.7119L37.1651 21.5239L50.0221 14.0999C50.1356 14.0344 50.2703 14.0162 50.3972 14.049C50.5241 14.0818 50.633 14.1632 50.7005 14.2755C50.768 14.3878 50.7887 14.5222 50.7581 14.6496C50.7276 14.777 50.6482 14.8874 50.5371 14.9569L38.9201 22.1999L50.3201 15.6189C50.4336 15.5534 50.5683 15.5352 50.6952 15.568C50.8221 15.6008 50.931 15.6822 50.9985 15.7945C51.066 15.9068 51.0867 16.0412 51.0561 16.1686C51.0256 16.296 50.9462 16.4064 50.8351 16.4759L39.1471 23.7759L49.9801 17.5209C50.0938 17.458 50.2274 17.4419 50.3528 17.4759C50.4781 17.5098 50.5854 17.5912 50.6518 17.7028C50.7182 17.8144 50.7385 17.9475 50.7085 18.0739C50.6786 18.2003 50.6006 18.31 50.4911 18.3799L46.5991 20.7749L50.0861 18.7619C50.1996 18.6933 50.3357 18.6727 50.4645 18.7045C50.5932 18.7362 50.7041 18.8179 50.7726 18.9314C50.8412 19.0449 50.8618 19.181 50.83 19.3097C50.7983 19.4385 50.7166 19.5493 50.6031 19.6179L39.0151 26.9469L50.7961 20.1469C50.9095 20.0844 51.0426 20.0684 51.1676 20.1021C51.2925 20.1358 51.3996 20.2167 51.4661 20.3277C51.5327 20.4387 51.5536 20.5711 51.5245 20.6973C51.4954 20.8234 51.4186 20.9333 51.3101 21.0039L46.3921 24.0519L51.4231 21.1519C51.5369 21.0837 51.6731 21.0636 51.8017 21.0958C51.9304 21.1281 52.041 21.2101 52.1091 21.3239C52.1773 21.4377 52.1975 21.5739 52.1652 21.7025C52.1329 21.8312 52.0509 21.9417 51.9371 22.0099L47.1581 24.9709L51.7061 22.3459C51.8192 22.2767 51.9552 22.2552 52.0841 22.2862C52.2131 22.3173 52.3244 22.3983 52.3936 22.5114C52.4628 22.6245 52.4843 22.7605 52.4533 22.8894C52.4222 23.0183 52.3412 23.1297 52.2281 23.1989L37.5991 32.6659L50.7191 25.0919C50.8319 25.0298 50.9643 25.0137 51.0887 25.0468C51.2131 25.08 51.32 25.1598 51.387 25.2697C51.454 25.3797 51.476 25.5112 51.4485 25.637C51.4209 25.7627 51.346 25.873 51.2391 25.9449L40.7711 32.6739L49.9641 27.3659C50.0766 27.2956 50.2123 27.2729 50.3416 27.3027C50.4708 27.3325 50.5828 27.4124 50.6531 27.5249C50.7234 27.6373 50.7461 27.7731 50.7163 27.9023C50.6865 28.0315 50.6066 28.1436 50.4941 28.2139L38.8861 36.0549L50.3151 29.4549C50.4285 29.3861 50.5646 29.3651 50.6934 29.3966C50.8223 29.4281 50.9333 29.5095 51.0021 29.6229C51.0709 29.7363 51.0919 29.8723 51.0604 30.0012C51.0289 30.13 50.9475 30.2411 50.8341 30.3099L47.7341 32.2819L50.0621 30.9389C50.1752 30.8767 50.308 30.8606 50.4326 30.8941C50.5572 30.9275 50.6641 31.0079 50.7309 31.1183C50.7977 31.2287 50.8192 31.3607 50.7909 31.4866C50.7626 31.6125 50.6867 31.7226 50.5791 31.7939L47.4241 33.7939C47.5206 33.8101 47.6102 33.8543 47.6817 33.921C47.7533 33.9876 47.8038 34.0738 47.8269 34.1689C47.85 34.2639 47.8447 34.3637 47.8117 34.4557C47.7787 34.5478 47.7194 34.6282 47.6411 34.6869L42.3411 38.6569L46.2341 36.4099C46.3447 36.3465 46.4753 36.3278 46.5992 36.3575C46.7232 36.3872 46.8311 36.4632 46.9009 36.5698C46.9707 36.6764 46.9972 36.8056 46.975 36.9311C46.9527 37.0566 46.8834 37.1688 46.7811 37.2449L40.4361 41.9269C40.4677 42.0345 40.4622 42.1496 40.4205 42.2537C40.3788 42.3578 40.3033 42.4449 40.2061 42.5009L37.6491 43.9779C37.5385 44.0412 37.4079 44.06 37.284 44.0302C37.1601 44.0005 37.0522 43.9246 36.9824 43.818C36.9125 43.7114 36.886 43.5822 36.9083 43.4567C36.9305 43.3312 36.9999 43.219 37.1021 43.1429L39.0141 41.7319L35.6071 43.6999C35.4968 43.7622 35.367 43.7803 35.2439 43.7505C35.1207 43.7208 35.0135 43.6454 34.9438 43.5396C34.8741 43.4339 34.8471 43.3056 34.8683 43.1807C34.8896 43.0559 34.9574 42.9437 35.0581 42.8669L40.3521 38.8999L29.3111 45.2739C29.2352 45.3181 29.149 45.3416 29.0611 45.3419Z" fill="#FFD34E"/>
<path d="M20.1621 4.28195C20.052 4.28195 19.945 4.24563 19.8577 4.17862C19.7704 4.11162 19.7076 4.01768 19.6791 3.91136C19.6507 3.80505 19.658 3.69231 19.7002 3.59062C19.7423 3.48894 19.8168 3.40399 19.9121 3.34895L22.1801 2.03995C22.2949 1.97469 22.4308 1.95748 22.5582 1.99208C22.6856 2.02667 22.7942 2.11026 22.8602 2.22461C22.9262 2.33895 22.9444 2.47476 22.9106 2.60241C22.8769 2.73006 22.794 2.83918 22.6801 2.90595L20.4121 4.21495C20.3361 4.25884 20.2499 4.28195 20.1621 4.28195Z" fill="#FFD34E"/>
<path d="M29.7812 39.464C29.6755 39.4638 29.5725 39.4301 29.4871 39.3677C29.4018 39.3054 29.3383 39.2175 29.306 39.1169C29.2737 39.0162 29.2741 38.9079 29.3072 38.8075C29.3403 38.707 29.4044 38.6197 29.4902 38.558L36.6782 33.4L26.8992 39.045C26.7868 39.1079 26.6544 39.1249 26.5296 39.0926C26.4049 39.0602 26.2975 38.981 26.2298 38.8713C26.162 38.7617 26.1393 38.6302 26.1662 38.5041C26.1931 38.3781 26.2676 38.2674 26.3742 38.195L31.4842 34.82L25.0522 38.534C24.9404 38.5979 24.8081 38.6162 24.6831 38.585C24.5581 38.5539 24.4499 38.4756 24.3812 38.3666C24.3125 38.2577 24.2884 38.1263 24.3142 38.0001C24.3399 37.8738 24.4133 37.7624 24.5192 37.689L34.9642 30.534L22.7992 37.556C22.6869 37.6211 22.5537 37.6399 22.4278 37.6086C22.3018 37.5772 22.193 37.4981 22.1243 37.388C22.0556 37.2779 22.0324 37.1454 22.0596 37.0185C22.0869 36.8916 22.1624 36.7802 22.2702 36.708L33.3392 29.279L20.9692 36.421C20.8561 36.4873 20.7214 36.5065 20.5942 36.4744C20.4671 36.4424 20.3576 36.3616 20.2894 36.2496C20.2212 36.1376 20.1997 36.0033 20.2296 35.8756C20.2595 35.7479 20.3384 35.6371 20.4492 35.567L27.0602 31.335L19.8142 35.518C19.7007 35.5865 19.5646 35.6072 19.4359 35.5754C19.3071 35.5436 19.1963 35.462 19.1277 35.3485C19.0592 35.235 19.0385 35.0989 19.0703 34.9701C19.1021 34.8414 19.1837 34.7305 19.2972 34.662L24.4552 31.4L18.8622 34.629C18.7494 34.6886 18.6181 34.7028 18.4952 34.6687C18.3723 34.6347 18.267 34.555 18.2009 34.4458C18.1349 34.3367 18.113 34.2064 18.1398 34.0817C18.1667 33.957 18.2401 33.8473 18.3452 33.775L24.3372 29.975L17.9782 33.646C17.8654 33.7116 17.7313 33.7305 17.6047 33.6986C17.4782 33.6667 17.3691 33.5866 17.3008 33.4753C17.2325 33.3641 17.2104 33.2305 17.2393 33.1032C17.2681 32.9759 17.3456 32.8649 17.4552 32.794L28.8922 25.319L16.9212 32.226C16.8082 32.2955 16.6723 32.3172 16.5433 32.2865C16.4142 32.2557 16.3027 32.175 16.2332 32.062C16.1637 31.949 16.142 31.813 16.1727 31.684C16.2035 31.555 16.2842 31.4435 16.3972 31.374L28.0062 23.786L16.0292 30.7C15.973 30.7339 15.9107 30.7565 15.8458 30.7663C15.7808 30.7762 15.7146 30.7731 15.6509 30.7574C15.5871 30.7417 15.5271 30.7135 15.4742 30.6746C15.4214 30.6356 15.3767 30.5867 15.3427 30.5305C15.3088 30.4743 15.2862 30.4119 15.2764 30.347C15.2665 30.2821 15.2696 30.2159 15.2853 30.1521C15.301 30.0884 15.3292 30.0283 15.3681 29.9755C15.4071 29.9226 15.456 29.8779 15.5122 29.844L21.3482 26.155L15.4912 29.537C15.3787 29.6022 15.2451 29.6211 15.1189 29.5894C14.9926 29.5578 14.8837 29.4782 14.8153 29.3675C14.7468 29.2569 14.7241 29.1239 14.7522 28.9968C14.7802 28.8697 14.8566 28.7586 14.9652 28.687L27.5522 20.347L14.8522 27.681C14.7963 27.7154 14.7341 27.7384 14.6693 27.7488C14.6044 27.7592 14.5382 27.7567 14.4743 27.7415C14.4104 27.7262 14.3501 27.6986 14.2969 27.6601C14.2437 27.6215 14.1986 27.5729 14.1642 27.517C14.1298 27.461 14.1068 27.3989 14.0964 27.334C14.086 27.2692 14.0885 27.2029 14.1037 27.139C14.119 27.0751 14.1466 27.0149 14.1852 26.9617C14.2237 26.9085 14.2723 26.8634 14.3282 26.829L24.8542 19.937L14.4802 25.927C14.3678 25.9899 14.2354 26.0069 14.1106 25.9746C13.9859 25.9422 13.8785 25.863 13.8108 25.7533C13.743 25.6437 13.7203 25.5122 13.7472 25.3861C13.7741 25.2601 13.8486 25.1494 13.9552 25.077L24.3602 18.2L14.2992 24.011C14.1862 24.0805 14.0503 24.1022 13.9213 24.0715C13.7922 24.0407 13.6807 23.96 13.6112 23.847C13.5417 23.734 13.52 23.598 13.5507 23.469C13.5815 23.34 13.6622 23.2285 13.7752 23.159L21.1842 18.332L14.3242 22.292C14.2123 22.3583 14.0789 22.3784 13.9524 22.348C13.8258 22.3175 13.7162 22.2389 13.6467 22.1289C13.5771 22.0189 13.5532 21.8862 13.5801 21.7588C13.6069 21.6315 13.6823 21.5196 13.7902 21.447L24.0372 14.382L14.6992 19.773C14.5864 19.8405 14.4516 19.8609 14.3239 19.8298C14.1961 19.7986 14.0858 19.7184 14.0168 19.6065C13.9478 19.4946 13.9256 19.3601 13.9551 19.2319C13.9845 19.1038 14.0633 18.9925 14.1742 18.922L18.3272 16.186L15.2392 17.969C15.1273 18.0319 14.9954 18.0494 14.8709 18.0177C14.7465 17.9861 14.6389 17.9078 14.5706 17.799C14.5024 17.6902 14.4786 17.5593 14.5042 17.4334C14.5298 17.3076 14.6029 17.1964 14.7082 17.123L18.8622 14.3L16.2102 15.831C16.0982 15.896 15.9653 15.915 15.8395 15.884C15.7138 15.853 15.6049 15.7743 15.536 15.6647C15.467 15.555 15.4433 15.4229 15.4699 15.2961C15.4964 15.1693 15.5711 15.0578 15.6782 14.985L17.2992 13.881C17.2091 13.8908 17.118 13.8749 17.0365 13.8353C16.9549 13.7957 16.8862 13.7339 16.8382 13.657C16.7683 13.5501 16.7418 13.4206 16.7643 13.2949C16.7868 13.1692 16.8566 13.0569 16.9592 12.981L19.4352 11.152C19.388 11.1134 19.348 11.0666 19.3172 11.014C19.2509 10.8991 19.233 10.7627 19.2673 10.6346C19.3016 10.5065 19.3854 10.3973 19.5002 10.331L24.3092 7.55297C24.42 7.489 24.551 7.46989 24.6754 7.49956C24.7998 7.52924 24.908 7.60544 24.978 7.7125C25.0479 7.81957 25.0741 7.94936 25.0513 8.07518C25.0285 8.201 24.9583 8.3133 24.8552 8.38897L24.6812 8.51797L27.7922 6.71797C27.9043 6.65295 28.0372 6.63394 28.1629 6.66496C28.2887 6.69598 28.3975 6.77459 28.4665 6.88425C28.5354 6.9939 28.5591 7.12604 28.5326 7.25283C28.5061 7.37962 28.4314 7.49116 28.3242 7.56397L27.2242 8.31697L30.1882 6.60597C30.3004 6.53948 30.4342 6.51948 30.561 6.55023C30.6877 6.58097 30.7974 6.66004 30.8667 6.77055C30.936 6.88106 30.9594 7.01428 30.9318 7.14177C30.9043 7.26926 30.828 7.38093 30.7192 7.45297L26.5652 10.275L32.5252 6.83397C32.5811 6.79943 32.6432 6.77624 32.7081 6.76571C32.7729 6.75519 32.8392 6.75754 32.9031 6.77262C32.9671 6.78771 33.0274 6.81525 33.0807 6.85366C33.134 6.89206 33.1792 6.94059 33.2137 6.99647C33.2483 7.05235 33.2715 7.11448 33.282 7.17932C33.2925 7.24416 33.2902 7.31044 33.2751 7.37437C33.26 7.43831 33.2324 7.49864 33.194 7.55193C33.1556 7.60523 33.1071 7.65043 33.0512 7.68497L28.8992 10.422L34.3562 7.27197C34.4682 7.20563 34.6016 7.18554 34.7281 7.21599C34.8546 7.24643 34.9643 7.325 35.0338 7.435C35.1033 7.54501 35.1272 7.67778 35.1004 7.80512C35.0736 7.93246 34.9982 8.04433 34.8902 8.11697L24.6372 15.183L36.7272 8.19997C36.8401 8.13434 36.9741 8.11545 37.1007 8.14734C37.2273 8.17923 37.3364 8.25937 37.4047 8.37062C37.473 8.48188 37.4951 8.61544 37.4662 8.74275C37.4373 8.87007 37.3598 8.98104 37.2502 9.05197L29.8432 13.879L38.2282 9.03797C38.3407 8.97506 38.4731 8.95801 38.5978 8.99036C38.7226 9.02271 38.83 9.10197 38.8977 9.2116C38.9654 9.32123 38.9882 9.45278 38.9613 9.57879C38.9344 9.70481 38.8598 9.81557 38.7532 9.88797L28.3532 16.763L39.7972 10.156C39.9098 10.094 40.0419 10.0777 40.1661 10.1105C40.2903 10.1433 40.3971 10.2227 40.4644 10.3321C40.5317 10.4416 40.5542 10.5728 40.5274 10.6984C40.5005 10.8241 40.4264 10.9346 40.3202 11.007L29.7902 17.9L41.1212 11.358C41.2338 11.2927 41.3674 11.2739 41.4936 11.3055C41.6198 11.3372 41.7287 11.4168 41.7972 11.5274C41.8657 11.6381 41.8883 11.771 41.8603 11.8981C41.8323 12.0252 41.7559 12.1363 41.6472 12.208L29.0592 20.549L42.4142 12.839C42.5277 12.7703 42.6639 12.7495 42.7927 12.7812C42.9216 12.8129 43.0325 12.8945 43.1012 13.008C43.1699 13.1215 43.1907 13.2576 43.159 13.3865C43.1273 13.5153 43.0457 13.6263 42.9322 13.695L37.0992 17.38L43.1472 13.888C43.2602 13.8185 43.3962 13.7967 43.5252 13.8275C43.6542 13.8582 43.7657 13.939 43.8352 14.052C43.9047 14.165 43.9265 14.3009 43.8957 14.4299C43.865 14.559 43.7842 14.6705 43.6712 14.74L32.0612 22.33L44.0332 15.418C44.1462 15.3485 44.2822 15.3267 44.4112 15.3575C44.5402 15.3882 44.6517 15.469 44.7212 15.582C44.7907 15.695 44.8125 15.8309 44.7817 15.9599C44.751 16.089 44.6702 16.2005 44.5572 16.27L33.1212 23.745L44.7302 17.045C44.8434 16.9803 44.9775 16.9624 45.1037 16.9951C45.2299 17.0277 45.3384 17.1085 45.406 17.22C45.4735 17.3315 45.4948 17.465 45.4654 17.5921C45.4359 17.7191 45.358 17.8296 45.2482 17.9L39.2482 21.705L45.1422 18.305C45.2553 18.2428 45.3881 18.2267 45.5127 18.2602C45.6374 18.2936 45.7442 18.3739 45.811 18.4844C45.8778 18.5948 45.8993 18.7268 45.871 18.8527C45.8427 18.9786 45.7668 19.0887 45.6592 19.16L40.5052 22.423L45.4332 19.579C45.5462 19.5158 45.6793 19.4989 45.8045 19.5319C45.9297 19.5649 46.0372 19.6451 46.1045 19.7557C46.1717 19.8664 46.1934 19.9988 46.165 20.1251C46.1366 20.2514 46.0603 20.3618 45.9522 20.433L39.3452 24.663L45.6372 21.03C45.7497 20.9631 45.8839 20.9431 46.011 20.9741C46.1382 21.0051 46.2481 21.0847 46.3172 21.1958C46.3863 21.3069 46.4091 21.4407 46.3806 21.5684C46.3522 21.6961 46.2749 21.8076 46.1652 21.879L35.0992 29.3L45.6992 23.18C45.811 23.1178 45.9424 23.1008 46.0663 23.1326C46.1902 23.1643 46.2972 23.2423 46.3654 23.3505C46.4335 23.4588 46.4576 23.589 46.4326 23.7145C46.4077 23.8399 46.3356 23.951 46.2312 24.025L35.7912 31.18L45.4222 25.62C45.5347 25.5571 45.6671 25.54 45.7918 25.5724C45.9166 25.6047 46.024 25.684 46.0917 25.7936C46.1594 25.9032 46.1822 26.0348 46.1553 26.1608C46.1284 26.2868 46.0538 26.3976 45.9472 26.47L40.8352 29.846L44.9442 27.473C45.0555 27.4077 45.1877 27.3879 45.3132 27.4178C45.4387 27.4477 45.5478 27.525 45.6177 27.6335C45.6875 27.7419 45.7127 27.8732 45.6881 27.9998C45.6634 28.1265 45.5907 28.2387 45.4852 28.313L38.2992 33.471L43.6882 30.359C43.7985 30.2967 43.9284 30.2786 44.0515 30.3083C44.1746 30.3381 44.2819 30.4134 44.3516 30.5192C44.4213 30.625 44.4482 30.7532 44.427 30.8781C44.4058 31.003 44.338 31.1152 44.2372 31.192L40.5662 33.942L41.4402 33.442C41.555 33.3767 41.6909 33.3595 41.8184 33.3941C41.9458 33.4287 42.0543 33.5123 42.1204 33.6266C42.1864 33.741 42.2045 33.8768 42.1707 34.0044C42.137 34.1321 42.0541 34.2412 41.9402 34.308L33.8102 39C33.6999 39.0637 33.5694 39.0828 33.4454 39.0535C33.3214 39.0242 33.2132 38.9487 33.143 38.8424C33.0728 38.7361 33.0459 38.607 33.0677 38.4815C33.0894 38.3559 33.1583 38.2434 33.2602 38.167L36.9332 35.417L30.0332 39.4C29.9565 39.4435 29.8694 39.4656 29.7812 39.464Z" fill="#DB9E36"/>
<path d="M8.971 28.3661C8.57889 29.4527 8.61444 30.6477 9.07047 31.709C9.52649 32.7704 10.3689 33.6187 11.427 34.0821C13.257 36.0601 12.627 39.8761 16.203 40.1051C15.103 47.3051 6.203 61.0171 20.583 53.7831C22.819 54.6311 23.508 57.9761 25.57 59.2421C28.717 60.5001 29.485 56.6481 29.964 54.4201C33.05 67.4541 36.947 52.0421 40.014 54.1841C53.314 60.9501 44.903 46.3101 43.852 40.0421C46.267 39.6921 47.309 37.4191 47.564 35.2601C48.515 33.4421 51.089 32.9951 51.279 30.6471C49.931 25.1471 54.925 24.4001 51.352 19.6781C50.499 17.3011 52.394 14.3961 49.742 12.6521C48.661 11.8241 47.673 11.3941 47.381 9.89713C47.313 6.50413 44.164 6.19713 41.759 5.12713C40.625 3.71813 39.678 1.92713 37.607 1.85313C31.04 3.06413 32.575 -2.02187 25.671 2.17213C18.75 0.560128 20.78 5.46013 14.705 6.50013C12.205 7.71913 13.255 10.8171 11.067 12.2571C8.646 13.4251 8.491 15.9571 9.026 18.2651C8.75 20.5761 6.232 22.3331 7.656 24.8171C8.248 26.0741 9.206 26.7811 8.971 28.3661ZM27.671 57.5111C26.634 60.4591 24.517 55.3281 23.441 54.4471C17.671 47.7931 9.041 67.3201 17.522 40.4471C19.05 41.0211 19.279 42.7971 20.676 43.5871C22.43 44.8431 24.421 43.4491 26.257 44.0341C27.678 45.0181 29.33 46.0341 31.143 45.3811C29.981 49.4271 28.822 53.4705 27.666 57.5111H27.671ZM44.1 46.3351C44.8 48.7601 45.635 51.1881 46.2 53.6481C46.177 57.8361 38.842 49.3381 36.476 54.7561C32.093 62.0051 32.338 56.3631 30.75 51.6941C31.432 49.2981 32.1153 46.9001 32.8 44.5001C34.583 43.0001 36.662 44.7001 38.648 43.8281C40.483 43.3371 40.766 41.0911 42.4 40.4281L44.1 46.3351ZM8.772 22.4491C9.547 20.4491 11.125 18.8491 10.202 16.5351C9.909 12.5161 13.502 14.1071 14.84 7.91513C15.662 6.93913 16.803 7.07813 17.892 6.70113C20.333 6.12613 20.577 2.52013 23.406 3.03513C25.676 3.88513 27.406 2.58813 29.306 1.63513C31.606 1.29713 33.055 4.03513 35.484 3.24613C37.114 2.94613 38.417 2.89813 39.45 4.42613C40.534 7.17813 43.592 6.37813 45.309 8.25813C46.14 10.9191 46.497 12.3441 49.023 13.8831C50.191 15.1561 49.682 16.4221 49.528 17.9171C49.252 20.5411 52.752 22.6031 50.501 25.1421C48.457 27.1421 50.646 29.8071 49.279 31.9561C44.739 34.3561 47.169 38.0561 43.313 39.0481C41.013 39.1081 40.036 41.0481 38.702 42.5301C37.432 43.4471 36.175 42.6551 34.802 42.6781C32.422 42.5781 30.658 45.6491 28.32 43.7971C26.511 41.9451 24.192 43.2651 22.08 42.8521C20.846 42.3781 20.552 41.2411 19.725 40.3621C18.207 38.6291 15.134 39.5491 14.313 37.0331C14.2654 36.081 13.9673 35.1583 13.449 34.3582C12.9307 33.558 12.2105 32.9088 11.361 32.4761C8.968 30.7341 11.335 27.8361 9.966 25.6661C9.359 24.5771 8.573 23.8321 8.772 22.4491Z" fill="#592B02"/>
<path d="M33.4904 38.8439C49.5584 35.9609 51.2264 11.9559 35.3344 7.43792C8.20036 0.712923 5.41836 43.3539 33.4904 38.8439ZM16.8164 14.9369C24.2004 1.10592 45.7624 8.06192 45.2754 23.1999C43.5154 49.8289 5.25836 38.0229 16.8164 14.9369Z" fill="#592B02"/>
<path d="M25.4313 30.2568C29.2913 28.9438 32.9833 20.9158 36.3143 17.6998C40.8413 9.98179 27.1143 27.6938 26.1643 29.1158C25.1643 28.3648 23.3643 25.3068 22.3203 27.1458L25.4313 30.2568Z" fill="#592B02"/>
</svg>
