<svg width="41" height="40" viewBox="0 0 41 40" fill="none" xmlns="http://www.w3.org/2000/svg">
<g clip-path="url(#clip0_137_28162)">
<g clip-path="url(#clip1_137_28162)">
<path d="M40.1213 29.2C40.0729 29.0956 40.0277 29.009 39.9858 28.9396C39.2918 27.6897 37.9655 26.1555 36.0079 24.3366L35.9666 24.295L35.9458 24.2746L35.9249 24.2536H35.9039C35.0154 23.4067 34.4528 22.8372 34.2172 22.5456C33.7861 21.9902 33.6895 21.428 33.9251 20.8584C34.0916 20.428 34.7169 19.5191 35.7995 18.1305C36.369 17.3945 36.82 16.8047 37.1531 16.3603C39.5552 13.1668 40.5967 11.1261 40.2772 10.2374L40.1531 10.0297C40.0697 9.90467 39.8545 9.7903 39.5078 9.68598C39.1603 9.58189 38.7162 9.56468 38.1745 9.63405L32.1767 9.67548C32.0795 9.64105 31.9408 9.64426 31.76 9.68598C31.5795 9.72771 31.4892 9.74864 31.4892 9.74864L31.3848 9.8008L31.3019 9.86346C31.2325 9.90489 31.1561 9.97776 31.0728 10.0819C30.9898 10.1857 30.9204 10.3075 30.865 10.4464C30.212 12.1264 29.4696 13.6883 28.6363 15.1322C28.1226 15.9932 27.6508 16.7393 27.2199 17.3711C26.7896 18.0027 26.4286 18.468 26.1372 18.7663C25.8454 19.0648 25.5821 19.304 25.3456 19.4847C25.1095 19.6654 24.9292 19.7418 24.8044 19.7139C24.6793 19.6859 24.5615 19.6582 24.45 19.6305C24.2557 19.5055 24.0995 19.3354 23.9817 19.1203C23.8634 18.9051 23.7837 18.6342 23.7421 18.3079C23.7006 17.9814 23.6761 17.7006 23.6691 17.4645C23.6626 17.2286 23.6656 16.8951 23.6797 16.4647C23.6941 16.0341 23.7006 15.7428 23.7006 15.59C23.7006 15.0623 23.7109 14.4896 23.7316 13.8718C23.7526 13.2539 23.7696 12.7644 23.7838 12.4038C23.7979 12.0428 23.8045 11.6608 23.8045 11.2582C23.8045 10.8555 23.78 10.5397 23.7316 10.3105C23.6837 10.0816 23.6103 9.85945 23.5135 9.64404C23.4161 9.42885 23.2735 9.26239 23.0865 9.14422C22.8991 9.0262 22.6661 8.93253 22.3889 8.86294C21.6529 8.69641 20.7158 8.60632 19.5771 8.59232C16.9947 8.5646 15.3354 8.73135 14.5996 9.09236C14.308 9.24488 14.0442 9.45329 13.8083 9.71691C13.5583 10.0225 13.5234 10.1892 13.7039 10.2167C14.5371 10.3415 15.1269 10.64 15.474 11.1121L15.5991 11.3622C15.6964 11.5427 15.7936 11.8622 15.8908 12.3202C15.9879 12.7783 16.0506 13.2851 16.0782 13.8402C16.1475 14.8539 16.1475 15.7217 16.0782 16.4435C16.0087 17.1657 15.943 17.7279 15.8803 18.1305C15.8177 18.5332 15.724 18.8595 15.5991 19.1093C15.474 19.3592 15.3908 19.512 15.3491 19.5674C15.3074 19.6229 15.2727 19.6578 15.2451 19.6715C15.0647 19.7407 14.877 19.7759 14.6827 19.7759C14.4882 19.7759 14.2523 19.6786 13.9747 19.4841C13.6971 19.2896 13.409 19.0225 13.1105 18.6823C12.8119 18.342 12.4752 17.8665 12.1002 17.2556C11.7255 16.6448 11.3367 15.9229 10.934 15.0898L10.6009 14.4857C10.3926 14.097 10.1081 13.5311 9.74712 12.7885C9.3859 12.0455 9.06662 11.3269 8.78906 10.6327C8.67811 10.3411 8.51143 10.1191 8.28931 9.96639L8.18508 9.90372C8.11578 9.84829 8.00454 9.78942 7.85194 9.72669C7.69912 9.66403 7.53966 9.61909 7.37291 9.59145L1.66649 9.63288C1.08336 9.63288 0.687711 9.76498 0.47938 10.0288L0.396003 10.1536C0.354352 10.2232 0.333344 10.3342 0.333344 10.487C0.333344 10.6397 0.374995 10.8272 0.458371 11.0492C1.2914 13.007 2.19731 14.8952 3.17609 16.714C4.15486 18.5328 5.0054 19.9979 5.72719 21.108C6.44913 22.2189 7.185 23.2673 7.9348 24.2528C8.6846 25.2387 9.18092 25.8704 9.42376 26.148C9.66688 26.4261 9.85785 26.634 9.99667 26.7728L10.5174 27.2725C10.8506 27.6058 11.3399 28.005 11.9856 28.47C12.6314 28.9353 13.3463 29.3934 14.1308 29.845C14.9154 30.2959 15.8281 30.6638 16.8695 30.9484C17.9108 31.2332 18.9243 31.3475 19.9102 31.2924H22.3053C22.791 31.2504 23.159 31.0977 23.4091 30.8341L23.492 30.7297C23.5477 30.6468 23.5999 30.5181 23.648 30.3448C23.6968 30.1713 23.721 29.9801 23.721 29.7721C23.7068 29.1752 23.7522 28.6373 23.8561 28.1583C23.9599 27.6795 24.0782 27.3185 24.2105 27.0754C24.3428 26.8324 24.492 26.6275 24.6581 26.4613C24.8246 26.2948 24.9432 26.1939 25.0128 26.1592C25.0819 26.1242 25.1371 26.1005 25.1788 26.0863C25.512 25.9753 25.9042 26.0828 26.3558 26.4094C26.8071 26.7356 27.2304 27.1385 27.6264 27.6173C28.0221 28.0966 28.4976 28.6343 29.0528 29.2312C29.6085 29.8283 30.0943 30.2722 30.5106 30.5642L30.927 30.8141C31.2051 30.9808 31.5661 31.1336 32.0105 31.2724C32.454 31.4111 32.8427 31.4459 33.1764 31.3765L38.5077 31.2933C39.0351 31.2933 39.4454 31.206 39.7364 31.0328C40.0281 30.8592 40.2013 30.668 40.2572 30.4601C40.3129 30.2519 40.3159 30.0157 40.2678 29.7516C40.2184 29.4882 40.1697 29.304 40.1213 29.2Z" fill="#592B02"/>
</g>
</g>
<defs>
<clipPath id="clip0_137_28162">
<rect width="40" height="40" fill="white" transform="translate(0.333344)"/>
</clipPath>
<clipPath id="clip1_137_28162">
<rect width="40" height="40" fill="white" transform="translate(0.333344)"/>
</clipPath>
</defs>
</svg>
