<svg width="120" height="140" viewBox="0 0 120 140" fill="none" xmlns="http://www.w3.org/2000/svg">
<mask id="path-1-inside-1_120_27932" fill="white">
<path fill-rule="evenodd" clip-rule="evenodd" d="M0 41.4612V98.54C0 103.155 2.36796 107.417 6.21749 109.73L53.7797 138.269C55.7015 139.421 57.8445 139.998 59.988 140C59.9944 140 60.0007 140 60.0071 140C62.1506 139.998 64.2938 139.421 66.2158 138.269L113.782 109.73C117.632 107.417 120 103.155 120 98.54V41.4615C120 36.8457 117.632 32.5823 113.782 30.2714L66.2158 1.7304C62.366 -0.576789 57.629 -0.576789 53.7797 1.7304L6.21749 30.2711C2.36796 32.5823 0 36.8457 0 41.4612Z"/>
</mask>
<path fill-rule="evenodd" clip-rule="evenodd" d="M0 41.4612V98.54C0 103.155 2.36796 107.417 6.21749 109.73L53.7797 138.269C55.7015 139.421 57.8445 139.998 59.988 140C59.9944 140 60.0007 140 60.0071 140C62.1506 139.998 64.2938 139.421 66.2158 138.269L113.782 109.73C117.632 107.417 120 103.155 120 98.54V41.4615C120 36.8457 117.632 32.5823 113.782 30.2714L66.2158 1.7304C62.366 -0.576789 57.629 -0.576789 53.7797 1.7304L6.21749 30.2711C2.36796 32.5823 0 36.8457 0 41.4612Z" fill="#FFFAD5"/>
<path d="M6.21749 109.73L5.44495 111.016L5.44572 111.017L6.21749 109.73ZM53.7797 138.269L53.0079 139.556L53.0085 139.556L53.7797 138.269ZM59.988 140L59.9868 141.5H59.988V140ZM60.0071 140L60.0071 141.5L60.0083 141.5L60.0071 140ZM66.2158 138.269L66.987 139.556L66.9875 139.556L66.2158 138.269ZM113.782 109.73L114.554 111.017L114.555 111.016L113.782 109.73ZM113.782 30.2714L114.554 28.9853L114.554 28.9852L113.782 30.2714ZM66.2158 1.7304L66.9876 0.44417L66.9869 0.443758L66.2158 1.7304ZM53.7797 1.7304L53.0086 0.443807L53.0079 0.444197L53.7797 1.7304ZM6.21749 30.2711L5.44568 28.9849L5.44538 28.9851L6.21749 30.2711ZM-1.5 41.4612V98.54H1.5V41.4612H-1.5ZM-1.5 98.54C-1.5 103.664 1.12891 108.423 5.44495 111.016L6.99004 108.445C3.60701 106.412 1.5 102.647 1.5 98.54H-1.5ZM5.44572 111.017L53.0079 139.556L54.5515 136.983L6.98927 108.444L5.44572 111.017ZM53.0085 139.556C55.1644 140.848 57.5738 141.498 59.9868 141.5L59.9892 138.5C58.1153 138.499 56.2386 137.995 54.5509 136.983L53.0085 139.556ZM59.988 141.5C59.988 141.5 59.988 141.5 59.988 141.5C59.988 141.5 59.9881 141.5 59.9881 141.5C59.9881 141.5 59.9881 141.5 59.9881 141.5C59.9881 141.5 59.9881 141.5 59.9881 141.5C59.9882 141.5 59.9882 141.5 59.9882 141.5C59.9882 141.5 59.9882 141.5 59.9882 141.5C59.9882 141.5 59.9882 141.5 59.9883 141.5C59.9883 141.5 59.9883 141.5 59.9883 141.5C59.9883 141.5 59.9883 141.5 59.9883 141.5C59.9883 141.5 59.9884 141.5 59.9884 141.5C59.9884 141.5 59.9884 141.5 59.9884 141.5C59.9884 141.5 59.9884 141.5 59.9884 141.5C59.9885 141.5 59.9885 141.5 59.9885 141.5C59.9885 141.5 59.9885 141.5 59.9885 141.5C59.9885 141.5 59.9885 141.5 59.9886 141.5C59.9886 141.5 59.9886 141.5 59.9886 141.5C59.9886 141.5 59.9886 141.5 59.9886 141.5C59.9886 141.5 59.9887 141.5 59.9887 141.5C59.9887 141.5 59.9887 141.5 59.9887 141.5C59.9887 141.5 59.9887 141.5 59.9887 141.5C59.9888 141.5 59.9888 141.5 59.9888 141.5C59.9888 141.5 59.9888 141.5 59.9888 141.5C59.9888 141.5 59.9888 141.5 59.9889 141.5C59.9889 141.5 59.9889 141.5 59.9889 141.5C59.9889 141.5 59.9889 141.5 59.9889 141.5C59.9889 141.5 59.989 141.5 59.989 141.5C59.989 141.5 59.989 141.5 59.989 141.5C59.989 141.5 59.989 141.5 59.989 141.5C59.9891 141.5 59.9891 141.5 59.9891 141.5C59.9891 141.5 59.9891 141.5 59.9891 141.5C59.9891 141.5 59.9891 141.5 59.9892 141.5C59.9892 141.5 59.9892 141.5 59.9892 141.5C59.9892 141.5 59.9892 141.5 59.9892 141.5C59.9892 141.5 59.9893 141.5 59.9893 141.5C59.9893 141.5 59.9893 141.5 59.9893 141.5C59.9893 141.5 59.9893 141.5 59.9893 141.5C59.9894 141.5 59.9894 141.5 59.9894 141.5C59.9894 141.5 59.9894 141.5 59.9894 141.5C59.9894 141.5 59.9894 141.5 59.9895 141.5C59.9895 141.5 59.9895 141.5 59.9895 141.5C59.9895 141.5 59.9895 141.5 59.9895 141.5C59.9895 141.5 59.9896 141.5 59.9896 141.5C59.9896 141.5 59.9896 141.5 59.9896 141.5C59.9896 141.5 59.9896 141.5 59.9896 141.5C59.9897 141.5 59.9897 141.5 59.9897 141.5C59.9897 141.5 59.9897 141.5 59.9897 141.5C59.9897 141.5 59.9897 141.5 59.9898 141.5C59.9898 141.5 59.9898 141.5 59.9898 141.5C59.9898 141.5 59.9898 141.5 59.9898 141.5C59.9898 141.5 59.9899 141.5 59.9899 141.5C59.9899 141.5 59.9899 141.5 59.9899 141.5C59.9899 141.5 59.9899 141.5 59.9899 141.5C59.99 141.5 59.99 141.5 59.99 141.5C59.99 141.5 59.99 141.5 59.99 141.5C59.99 141.5 59.99 141.5 59.9901 141.5C59.9901 141.5 59.9901 141.5 59.9901 141.5C59.9901 141.5 59.9901 141.5 59.9901 141.5C59.9901 141.5 59.9902 141.5 59.9902 141.5C59.9902 141.5 59.9902 141.5 59.9902 141.5C59.9902 141.5 59.9902 141.5 59.9902 141.5C59.9903 141.5 59.9903 141.5 59.9903 141.5C59.9903 141.5 59.9903 141.5 59.9903 141.5C59.9903 141.5 59.9903 141.5 59.9904 141.5C59.9904 141.5 59.9904 141.5 59.9904 141.5C59.9904 141.5 59.9904 141.5 59.9904 141.5C59.9904 141.5 59.9905 141.5 59.9905 141.5C59.9905 141.5 59.9905 141.5 59.9905 141.5C59.9905 141.5 59.9905 141.5 59.9905 141.5C59.9906 141.5 59.9906 141.5 59.9906 141.5C59.9906 141.5 59.9906 141.5 59.9906 141.5C59.9906 141.5 59.9906 141.5 59.9907 141.5C59.9907 141.5 59.9907 141.5 59.9907 141.5C59.9907 141.5 59.9907 141.5 59.9907 141.5C59.9907 141.5 59.9908 141.5 59.9908 141.5C59.9908 141.5 59.9908 141.5 59.9908 141.5C59.9908 141.5 59.9908 141.5 59.9908 141.5C59.9908 141.5 59.9909 141.5 59.9909 141.5C59.9909 141.5 59.9909 141.5 59.9909 141.5C59.9909 141.5 59.9909 141.5 59.9909 141.5C59.991 141.5 59.991 141.5 59.991 141.5C59.991 141.5 59.991 141.5 59.991 141.5C59.991 141.5 59.991 141.5 59.9911 141.5C59.9911 141.5 59.9911 141.5 59.9911 141.5C59.9911 141.5 59.9911 141.5 59.9911 141.5C59.9911 141.5 59.9912 141.5 59.9912 141.5C59.9912 141.5 59.9912 141.5 59.9912 141.5C59.9912 141.5 59.9912 141.5 59.9912 141.5C59.9913 141.5 59.9913 141.5 59.9913 141.5C59.9913 141.5 59.9913 141.5 59.9913 141.5C59.9913 141.5 59.9913 141.5 59.9914 141.5C59.9914 141.5 59.9914 141.5 59.9914 141.5C59.9914 141.5 59.9914 141.5 59.9914 141.5C59.9914 141.5 59.9915 141.5 59.9915 141.5C59.9915 141.5 59.9915 141.5 59.9915 141.5C59.9915 141.5 59.9915 141.5 59.9915 141.5C59.9916 141.5 59.9916 141.5 59.9916 141.5C59.9916 141.5 59.9916 141.5 59.9916 141.5C59.9916 141.5 59.9916 141.5 59.9917 141.5C59.9917 141.5 59.9917 141.5 59.9917 141.5C59.9917 141.5 59.9917 141.5 59.9917 141.5C59.9917 141.5 59.9918 141.5 59.9918 141.5C59.9918 141.5 59.9918 141.5 59.9918 141.5C59.9918 141.5 59.9918 141.5 59.9918 141.5C59.9919 141.5 59.9919 141.5 59.9919 141.5C59.9919 141.5 59.9919 141.5 59.9919 141.5C59.9919 141.5 59.9919 141.5 59.992 141.5C59.992 141.5 59.992 141.5 59.992 141.5C59.992 141.5 59.992 141.5 59.992 141.5C59.992 141.5 59.9921 141.5 59.9921 141.5C59.9921 141.5 59.9921 141.5 59.9921 141.5C59.9921 141.5 59.9921 141.5 59.9921 141.5C59.9922 141.5 59.9922 141.5 59.9922 141.5C59.9922 141.5 59.9922 141.5 59.9922 141.5C59.9922 141.5 59.9922 141.5 59.9923 141.5C59.9923 141.5 59.9923 141.5 59.9923 141.5C59.9923 141.5 59.9923 141.5 59.9923 141.5C59.9923 141.5 59.9924 141.5 59.9924 141.5C59.9924 141.5 59.9924 141.5 59.9924 141.5C59.9924 141.5 59.9924 141.5 59.9924 141.5C59.9925 141.5 59.9925 141.5 59.9925 141.5C59.9925 141.5 59.9925 141.5 59.9925 141.5C59.9925 141.5 59.9925 141.5 59.9926 141.5C59.9926 141.5 59.9926 141.5 59.9926 141.5C59.9926 141.5 59.9926 141.5 59.9926 141.5C59.9926 141.5 59.9927 141.5 59.9927 141.5C59.9927 141.5 59.9927 141.5 59.9927 141.5C59.9927 141.5 59.9927 141.5 59.9927 141.5C59.9928 141.5 59.9928 141.5 59.9928 141.5C59.9928 141.5 59.9928 141.5 59.9928 141.5C59.9928 141.5 59.9928 141.5 59.9929 141.5C59.9929 141.5 59.9929 141.5 59.9929 141.5C59.9929 141.5 59.9929 141.5 59.9929 141.5C59.9929 141.5 59.993 141.5 59.993 141.5C59.993 141.5 59.993 141.5 59.993 141.5C59.993 141.5 59.993 141.5 59.993 141.5C59.9931 141.5 59.9931 141.5 59.9931 141.5C59.9931 141.5 59.9931 141.5 59.9931 141.5C59.9931 141.5 59.9931 141.5 59.9932 141.5C59.9932 141.5 59.9932 141.5 59.9932 141.5C59.9932 141.5 59.9932 141.5 59.9932 141.5C59.9932 141.5 59.9933 141.5 59.9933 141.5C59.9933 141.5 59.9933 141.5 59.9933 141.5C59.9933 141.5 59.9933 141.5 59.9933 141.5C59.9934 141.5 59.9934 141.5 59.9934 141.5C59.9934 141.5 59.9934 141.5 59.9934 141.5C59.9934 141.5 59.9934 141.5 59.9935 141.5C59.9935 141.5 59.9935 141.5 59.9935 141.5C59.9935 141.5 59.9935 141.5 59.9935 141.5C59.9935 141.5 59.9936 141.5 59.9936 141.5C59.9936 141.5 59.9936 141.5 59.9936 141.5C59.9936 141.5 59.9936 141.5 59.9936 141.5C59.9937 141.5 59.9937 141.5 59.9937 141.5C59.9937 141.5 59.9937 141.5 59.9937 141.5C59.9937 141.5 59.9937 141.5 59.9938 141.5C59.9938 141.5 59.9938 141.5 59.9938 141.5C59.9938 141.5 59.9938 141.5 59.9938 141.5C59.9938 141.5 59.9939 141.5 59.9939 141.5C59.9939 141.5 59.9939 141.5 59.9939 141.5C59.9939 141.5 59.9939 141.5 59.9939 141.5C59.994 141.5 59.994 141.5 59.994 141.5C59.994 141.5 59.994 141.5 59.994 141.5C59.994 141.5 59.994 141.5 59.994 141.5C59.9941 141.5 59.9941 141.5 59.9941 141.5C59.9941 141.5 59.9941 141.5 59.9941 141.5C59.9941 141.5 59.9941 141.5 59.9942 141.5C59.9942 141.5 59.9942 141.5 59.9942 141.5C59.9942 141.5 59.9942 141.5 59.9942 141.5C59.9942 141.5 59.9943 141.5 59.9943 141.5C59.9943 141.5 59.9943 141.5 59.9943 141.5C59.9943 141.5 59.9943 141.5 59.9943 141.5C59.9944 141.5 59.9944 141.5 59.9944 141.5C59.9944 141.5 59.9944 141.5 59.9944 141.5C59.9944 141.5 59.9944 141.5 59.9945 141.5C59.9945 141.5 59.9945 141.5 59.9945 141.5C59.9945 141.5 59.9945 141.5 59.9945 141.5C59.9945 141.5 59.9946 141.5 59.9946 141.5C59.9946 141.5 59.9946 141.5 59.9946 141.5C59.9946 141.5 59.9946 141.5 59.9946 141.5C59.9947 141.5 59.9947 141.5 59.9947 141.5C59.9947 141.5 59.9947 141.5 59.9947 141.5C59.9947 141.5 59.9947 141.5 59.9948 141.5C59.9948 141.5 59.9948 141.5 59.9948 141.5C59.9948 141.5 59.9948 141.5 59.9948 141.5C59.9948 141.5 59.9949 141.5 59.9949 141.5C59.9949 141.5 59.9949 141.5 59.9949 141.5C59.9949 141.5 59.9949 141.5 59.9949 141.5C59.995 141.5 59.995 141.5 59.995 141.5C59.995 141.5 59.995 141.5 59.995 141.5C59.995 141.5 59.995 141.5 59.9951 141.5C59.9951 141.5 59.9951 141.5 59.9951 141.5C59.9951 141.5 59.9951 141.5 59.9951 141.5C59.9951 141.5 59.9952 141.5 59.9952 141.5C59.9952 141.5 59.9952 141.5 59.9952 141.5C59.9952 141.5 59.9952 141.5 59.9952 141.5C59.9953 141.5 59.9953 141.5 59.9953 141.5C59.9953 141.5 59.9953 141.5 59.9953 141.5C59.9953 141.5 59.9953 141.5 59.9954 141.5C59.9954 141.5 59.9954 141.5 59.9954 141.5C59.9954 141.5 59.9954 141.5 59.9954 141.5C59.9954 141.5 59.9955 141.5 59.9955 141.5C59.9955 141.5 59.9955 141.5 59.9955 141.5C59.9955 141.5 59.9955 141.5 59.9955 141.5C59.9956 141.5 59.9956 141.5 59.9956 141.5C59.9956 141.5 59.9956 141.5 59.9956 141.5C59.9956 141.5 59.9956 141.5 59.9957 141.5C59.9957 141.5 59.9957 141.5 59.9957 141.5C59.9957 141.5 59.9957 141.5 59.9957 141.5C59.9957 141.5 59.9958 141.5 59.9958 141.5C59.9958 141.5 59.9958 141.5 59.9958 141.5C59.9958 141.5 59.9958 141.5 59.9958 141.5C59.9959 141.5 59.9959 141.5 59.9959 141.5C59.9959 141.5 59.9959 141.5 59.9959 141.5C59.9959 141.5 59.9959 141.5 59.996 141.5C59.996 141.5 59.996 141.5 59.996 141.5C59.996 141.5 59.996 141.5 59.996 141.5C59.996 141.5 59.9961 141.5 59.9961 141.5C59.9961 141.5 59.9961 141.5 59.9961 141.5C59.9961 141.5 59.9961 141.5 59.9961 141.5C59.9962 141.5 59.9962 141.5 59.9962 141.5C59.9962 141.5 59.9962 141.5 59.9962 141.5C59.9962 141.5 59.9962 141.5 59.9963 141.5C59.9963 141.5 59.9963 141.5 59.9963 141.5C59.9963 141.5 59.9963 141.5 59.9963 141.5C59.9963 141.5 59.9964 141.5 59.9964 141.5C59.9964 141.5 59.9964 141.5 59.9964 141.5C59.9964 141.5 59.9964 141.5 59.9964 141.5C59.9965 141.5 59.9965 141.5 59.9965 141.5C59.9965 141.5 59.9965 141.5 59.9965 141.5C59.9965 141.5 59.9965 141.5 59.9966 141.5C59.9966 141.5 59.9966 141.5 59.9966 141.5C59.9966 141.5 59.9966 141.5 59.9966 141.5C59.9966 141.5 59.9967 141.5 59.9967 141.5C59.9967 141.5 59.9967 141.5 59.9967 141.5C59.9967 141.5 59.9967 141.5 59.9967 141.5C59.9968 141.5 59.9968 141.5 59.9968 141.5C59.9968 141.5 59.9968 141.5 59.9968 141.5C59.9968 141.5 59.9968 141.5 59.9969 141.5C59.9969 141.5 59.9969 141.5 59.9969 141.5C59.9969 141.5 59.9969 141.5 59.9969 141.5C59.9969 141.5 59.997 141.5 59.997 141.5C59.997 141.5 59.997 141.5 59.997 141.5C59.997 141.5 59.997 141.5 59.997 141.5C59.9971 141.5 59.9971 141.5 59.9971 141.5C59.9971 141.5 59.9971 141.5 59.9971 141.5C59.9971 141.5 59.9971 141.5 59.9971 141.5C59.9972 141.5 59.9972 141.5 59.9972 141.5C59.9972 141.5 59.9972 141.5 59.9972 141.5C59.9972 141.5 59.9972 141.5 59.9973 141.5C59.9973 141.5 59.9973 141.5 59.9973 141.5C59.9973 141.5 59.9973 141.5 59.9973 141.5C59.9973 141.5 59.9974 141.5 59.9974 141.5C59.9974 141.5 59.9974 141.5 59.9974 141.5C59.9974 141.5 59.9974 141.5 59.9974 141.5C59.9975 141.5 59.9975 141.5 59.9975 141.5C59.9975 141.5 59.9975 141.5 59.9975 141.5C59.9975 141.5 59.9975 141.5 59.9976 141.5C59.9976 141.5 59.9976 141.5 59.9976 141.5C59.9976 141.5 59.9976 141.5 59.9976 141.5C59.9976 141.5 59.9977 141.5 59.9977 141.5C59.9977 141.5 59.9977 141.5 59.9977 141.5C59.9977 141.5 59.9977 141.5 59.9977 141.5C59.9978 141.5 59.9978 141.5 59.9978 141.5C59.9978 141.5 59.9978 141.5 59.9978 141.5C59.9978 141.5 59.9978 141.5 59.9979 141.5C59.9979 141.5 59.9979 141.5 59.9979 141.5C59.9979 141.5 59.9979 141.5 59.9979 141.5C59.9979 141.5 59.998 141.5 59.998 141.5C59.998 141.5 59.998 141.5 59.998 141.5C59.998 141.5 59.998 141.5 59.998 141.5C59.9981 141.5 59.9981 141.5 59.9981 141.5C59.9981 141.5 59.9981 141.5 59.9981 141.5C59.9981 141.5 59.9981 141.5 59.9982 141.5C59.9982 141.5 59.9982 141.5 59.9982 141.5C59.9982 141.5 59.9982 141.5 59.9982 141.5C59.9982 141.5 59.9983 141.5 59.9983 141.5C59.9983 141.5 59.9983 141.5 59.9983 141.5C59.9983 141.5 59.9983 141.5 59.9983 141.5C59.9984 141.5 59.9984 141.5 59.9984 141.5C59.9984 141.5 59.9984 141.5 59.9984 141.5C59.9984 141.5 59.9984 141.5 59.9985 141.5C59.9985 141.5 59.9985 141.5 59.9985 141.5C59.9985 141.5 59.9985 141.5 59.9985 141.5C59.9985 141.5 59.9986 141.5 59.9986 141.5C59.9986 141.5 59.9986 141.5 59.9986 141.5C59.9986 141.5 59.9986 141.5 59.9986 141.5C59.9987 141.5 59.9987 141.5 59.9987 141.5C59.9987 141.5 59.9987 141.5 59.9987 141.5C59.9987 141.5 59.9987 141.5 59.9988 141.5C59.9988 141.5 59.9988 141.5 59.9988 141.5C59.9988 141.5 59.9988 141.5 59.9988 141.5C59.9988 141.5 59.9989 141.5 59.9989 141.5C59.9989 141.5 59.9989 141.5 59.9989 141.5C59.9989 141.5 59.9989 141.5 59.9989 141.5C59.999 141.5 59.999 141.5 59.999 141.5C59.999 141.5 59.999 141.5 59.999 141.5C59.999 141.5 59.999 141.5 59.9991 141.5C59.9991 141.5 59.9991 141.5 59.9991 141.5C59.9991 141.5 59.9991 141.5 59.9991 141.5C59.9991 141.5 59.9992 141.5 59.9992 141.5C59.9992 141.5 59.9992 141.5 59.9992 141.5C59.9992 141.5 59.9992 141.5 59.9992 141.5C59.9993 141.5 59.9993 141.5 59.9993 141.5C59.9993 141.5 59.9993 141.5 59.9993 141.5C59.9993 141.5 59.9993 141.5 59.9994 141.5C59.9994 141.5 59.9994 141.5 59.9994 141.5C59.9994 141.5 59.9994 141.5 59.9994 141.5C59.9994 141.5 59.9995 141.5 59.9995 141.5C59.9995 141.5 59.9995 141.5 59.9995 141.5C59.9995 141.5 59.9995 141.5 59.9995 141.5C59.9996 141.5 59.9996 141.5 59.9996 141.5C59.9996 141.5 59.9996 141.5 59.9996 141.5C59.9996 141.5 59.9996 141.5 59.9997 141.5C59.9997 141.5 59.9997 141.5 59.9997 141.5C59.9997 141.5 59.9997 141.5 59.9997 141.5C59.9997 141.5 59.9998 141.5 59.9998 141.5C59.9998 141.5 59.9998 141.5 59.9998 141.5C59.9998 141.5 59.9998 141.5 59.9998 141.5C59.9999 141.5 59.9999 141.5 59.9999 141.5C59.9999 141.5 59.9999 141.5 59.9999 141.5C59.9999 141.5 59.9999 141.5 60 141.5C60 141.5 60 141.5 60 141.5C60 141.5 60 141.5 60 141.5C60 141.5 60.0001 141.5 60.0001 141.5C60.0001 141.5 60.0001 141.5 60.0001 141.5C60.0001 141.5 60.0001 141.5 60.0001 141.5C60.0002 141.5 60.0002 141.5 60.0002 141.5C60.0002 141.5 60.0002 141.5 60.0002 141.5C60.0002 141.5 60.0002 141.5 60.0002 141.5C60.0003 141.5 60.0003 141.5 60.0003 141.5C60.0003 141.5 60.0003 141.5 60.0003 141.5C60.0003 141.5 60.0003 141.5 60.0004 141.5C60.0004 141.5 60.0004 141.5 60.0004 141.5C60.0004 141.5 60.0004 141.5 60.0004 141.5C60.0004 141.5 60.0005 141.5 60.0005 141.5C60.0005 141.5 60.0005 141.5 60.0005 141.5C60.0005 141.5 60.0005 141.5 60.0005 141.5C60.0006 141.5 60.0006 141.5 60.0006 141.5C60.0006 141.5 60.0006 141.5 60.0006 141.5C60.0006 141.5 60.0006 141.5 60.0007 141.5C60.0007 141.5 60.0007 141.5 60.0007 141.5C60.0007 141.5 60.0007 141.5 60.0007 141.5C60.0007 141.5 60.0008 141.5 60.0008 141.5C60.0008 141.5 60.0008 141.5 60.0008 141.5C60.0008 141.5 60.0008 141.5 60.0008 141.5C60.0009 141.5 60.0009 141.5 60.0009 141.5C60.0009 141.5 60.0009 141.5 60.0009 141.5C60.0009 141.5 60.0009 141.5 60.001 141.5C60.001 141.5 60.001 141.5 60.001 141.5C60.001 141.5 60.001 141.5 60.001 141.5C60.001 141.5 60.0011 141.5 60.0011 141.5C60.0011 141.5 60.0011 141.5 60.0011 141.5C60.0011 141.5 60.0011 141.5 60.0011 141.5C60.0012 141.5 60.0012 141.5 60.0012 141.5C60.0012 141.5 60.0012 141.5 60.0012 141.5C60.0012 141.5 60.0012 141.5 60.0013 141.5C60.0013 141.5 60.0013 141.5 60.0013 141.5C60.0013 141.5 60.0013 141.5 60.0013 141.5C60.0013 141.5 60.0014 141.5 60.0014 141.5C60.0014 141.5 60.0014 141.5 60.0014 141.5C60.0014 141.5 60.0014 141.5 60.0014 141.5C60.0015 141.5 60.0015 141.5 60.0015 141.5C60.0015 141.5 60.0015 141.5 60.0015 141.5C60.0015 141.5 60.0015 141.5 60.0016 141.5C60.0016 141.5 60.0016 141.5 60.0016 141.5C60.0016 141.5 60.0016 141.5 60.0016 141.5C60.0016 141.5 60.0017 141.5 60.0017 141.5C60.0017 141.5 60.0017 141.5 60.0017 141.5C60.0017 141.5 60.0017 141.5 60.0017 141.5C60.0018 141.5 60.0018 141.5 60.0018 141.5C60.0018 141.5 60.0018 141.5 60.0018 141.5C60.0018 141.5 60.0018 141.5 60.0019 141.5C60.0019 141.5 60.0019 141.5 60.0019 141.5C60.0019 141.5 60.0019 141.5 60.0019 141.5C60.0019 141.5 60.002 141.5 60.002 141.5C60.002 141.5 60.002 141.5 60.002 141.5C60.002 141.5 60.002 141.5 60.002 141.5C60.0021 141.5 60.0021 141.5 60.0021 141.5C60.0021 141.5 60.0021 141.5 60.0021 141.5C60.0021 141.5 60.0021 141.5 60.0022 141.5C60.0022 141.5 60.0022 141.5 60.0022 141.5C60.0022 141.5 60.0022 141.5 60.0022 141.5C60.0022 141.5 60.0023 141.5 60.0023 141.5C60.0023 141.5 60.0023 141.5 60.0023 141.5C60.0023 141.5 60.0023 141.5 60.0023 141.5C60.0024 141.5 60.0024 141.5 60.0024 141.5C60.0024 141.5 60.0024 141.5 60.0024 141.5C60.0024 141.5 60.0024 141.5 60.0025 141.5C60.0025 141.5 60.0025 141.5 60.0025 141.5C60.0025 141.5 60.0025 141.5 60.0025 141.5C60.0025 141.5 60.0026 141.5 60.0026 141.5C60.0026 141.5 60.0026 141.5 60.0026 141.5C60.0026 141.5 60.0026 141.5 60.0026 141.5C60.0027 141.5 60.0027 141.5 60.0027 141.5C60.0027 141.5 60.0027 141.5 60.0027 141.5C60.0027 141.5 60.0027 141.5 60.0028 141.5C60.0028 141.5 60.0028 141.5 60.0028 141.5C60.0028 141.5 60.0028 141.5 60.0028 141.5C60.0028 141.5 60.0029 141.5 60.0029 141.5C60.0029 141.5 60.0029 141.5 60.0029 141.5C60.0029 141.5 60.0029 141.5 60.0029 141.5C60.003 141.5 60.003 141.5 60.003 141.5C60.003 141.5 60.003 141.5 60.003 141.5C60.003 141.5 60.003 141.5 60.0031 141.5C60.0031 141.5 60.0031 141.5 60.0031 141.5C60.0031 141.5 60.0031 141.5 60.0031 141.5C60.0031 141.5 60.0032 141.5 60.0032 141.5C60.0032 141.5 60.0032 141.5 60.0032 141.5C60.0032 141.5 60.0032 141.5 60.0032 141.5C60.0033 141.5 60.0033 141.5 60.0033 141.5C60.0033 141.5 60.0033 141.5 60.0033 141.5C60.0033 141.5 60.0033 141.5 60.0033 141.5C60.0034 141.5 60.0034 141.5 60.0034 141.5C60.0034 141.5 60.0034 141.5 60.0034 141.5C60.0034 141.5 60.0034 141.5 60.0035 141.5C60.0035 141.5 60.0035 141.5 60.0035 141.5C60.0035 141.5 60.0035 141.5 60.0035 141.5C60.0035 141.5 60.0036 141.5 60.0036 141.5C60.0036 141.5 60.0036 141.5 60.0036 141.5C60.0036 141.5 60.0036 141.5 60.0036 141.5C60.0037 141.5 60.0037 141.5 60.0037 141.5C60.0037 141.5 60.0037 141.5 60.0037 141.5C60.0037 141.5 60.0037 141.5 60.0038 141.5C60.0038 141.5 60.0038 141.5 60.0038 141.5C60.0038 141.5 60.0038 141.5 60.0038 141.5C60.0038 141.5 60.0039 141.5 60.0039 141.5C60.0039 141.5 60.0039 141.5 60.0039 141.5C60.0039 141.5 60.0039 141.5 60.0039 141.5C60.004 141.5 60.004 141.5 60.004 141.5C60.004 141.5 60.004 141.5 60.004 141.5C60.004 141.5 60.004 141.5 60.0041 141.5C60.0041 141.5 60.0041 141.5 60.0041 141.5C60.0041 141.5 60.0041 141.5 60.0041 141.5C60.0041 141.5 60.0042 141.5 60.0042 141.5C60.0042 141.5 60.0042 141.5 60.0042 141.5C60.0042 141.5 60.0042 141.5 60.0042 141.5C60.0043 141.5 60.0043 141.5 60.0043 141.5C60.0043 141.5 60.0043 141.5 60.0043 141.5C60.0043 141.5 60.0043 141.5 60.0044 141.5C60.0044 141.5 60.0044 141.5 60.0044 141.5C60.0044 141.5 60.0044 141.5 60.0044 141.5C60.0044 141.5 60.0045 141.5 60.0045 141.5C60.0045 141.5 60.0045 141.5 60.0045 141.5C60.0045 141.5 60.0045 141.5 60.0045 141.5C60.0046 141.5 60.0046 141.5 60.0046 141.5C60.0046 141.5 60.0046 141.5 60.0046 141.5C60.0046 141.5 60.0046 141.5 60.0047 141.5C60.0047 141.5 60.0047 141.5 60.0047 141.5C60.0047 141.5 60.0047 141.5 60.0047 141.5C60.0047 141.5 60.0048 141.5 60.0048 141.5C60.0048 141.5 60.0048 141.5 60.0048 141.5C60.0048 141.5 60.0048 141.5 60.0048 141.5C60.0049 141.5 60.0049 141.5 60.0049 141.5C60.0049 141.5 60.0049 141.5 60.0049 141.5C60.0049 141.5 60.0049 141.5 60.005 141.5C60.005 141.5 60.005 141.5 60.005 141.5C60.005 141.5 60.005 141.5 60.005 141.5C60.005 141.5 60.0051 141.5 60.0051 141.5C60.0051 141.5 60.0051 141.5 60.0051 141.5C60.0051 141.5 60.0051 141.5 60.0051 141.5C60.0052 141.5 60.0052 141.5 60.0052 141.5C60.0052 141.5 60.0052 141.5 60.0052 141.5C60.0052 141.5 60.0052 141.5 60.0053 141.5C60.0053 141.5 60.0053 141.5 60.0053 141.5C60.0053 141.5 60.0053 141.5 60.0053 141.5C60.0053 141.5 60.0054 141.5 60.0054 141.5C60.0054 141.5 60.0054 141.5 60.0054 141.5C60.0054 141.5 60.0054 141.5 60.0054 141.5C60.0055 141.5 60.0055 141.5 60.0055 141.5C60.0055 141.5 60.0055 141.5 60.0055 141.5C60.0055 141.5 60.0055 141.5 60.0056 141.5C60.0056 141.5 60.0056 141.5 60.0056 141.5C60.0056 141.5 60.0056 141.5 60.0056 141.5C60.0056 141.5 60.0057 141.5 60.0057 141.5C60.0057 141.5 60.0057 141.5 60.0057 141.5C60.0057 141.5 60.0057 141.5 60.0057 141.5C60.0058 141.5 60.0058 141.5 60.0058 141.5C60.0058 141.5 60.0058 141.5 60.0058 141.5C60.0058 141.5 60.0058 141.5 60.0059 141.5C60.0059 141.5 60.0059 141.5 60.0059 141.5C60.0059 141.5 60.0059 141.5 60.0059 141.5C60.0059 141.5 60.006 141.5 60.006 141.5C60.006 141.5 60.006 141.5 60.006 141.5C60.006 141.5 60.006 141.5 60.006 141.5C60.0061 141.5 60.0061 141.5 60.0061 141.5C60.0061 141.5 60.0061 141.5 60.0061 141.5C60.0061 141.5 60.0061 141.5 60.0062 141.5C60.0062 141.5 60.0062 141.5 60.0062 141.5C60.0062 141.5 60.0062 141.5 60.0062 141.5C60.0062 141.5 60.0063 141.5 60.0063 141.5C60.0063 141.5 60.0063 141.5 60.0063 141.5C60.0063 141.5 60.0063 141.5 60.0063 141.5C60.0064 141.5 60.0064 141.5 60.0064 141.5C60.0064 141.5 60.0064 141.5 60.0064 141.5C60.0064 141.5 60.0064 141.5 60.0064 141.5C60.0065 141.5 60.0065 141.5 60.0065 141.5C60.0065 141.5 60.0065 141.5 60.0065 141.5C60.0065 141.5 60.0065 141.5 60.0066 141.5C60.0066 141.5 60.0066 141.5 60.0066 141.5C60.0066 141.5 60.0066 141.5 60.0066 141.5C60.0066 141.5 60.0067 141.5 60.0067 141.5C60.0067 141.5 60.0067 141.5 60.0067 141.5C60.0067 141.5 60.0067 141.5 60.0067 141.5C60.0068 141.5 60.0068 141.5 60.0068 141.5C60.0068 141.5 60.0068 141.5 60.0068 141.5C60.0068 141.5 60.0068 141.5 60.0069 141.5C60.0069 141.5 60.0069 141.5 60.0069 141.5C60.0069 141.5 60.0069 141.5 60.0069 141.5C60.0069 141.5 60.007 141.5 60.007 141.5C60.007 141.5 60.007 141.5 60.007 141.5C60.007 141.5 60.007 141.5 60.007 141.5C60.0071 141.5 60.0071 141.5 60.0071 141.5C60.0071 141.5 60.0071 141.5 60.0071 141.5V138.5C60.0071 138.5 60.0071 138.5 60.0071 138.5C60.0071 138.5 60.0071 138.5 60.007 138.5C60.007 138.5 60.007 138.5 60.007 138.5C60.007 138.5 60.007 138.5 60.007 138.5C60.007 138.5 60.0069 138.5 60.0069 138.5C60.0069 138.5 60.0069 138.5 60.0069 138.5C60.0069 138.5 60.0069 138.5 60.0069 138.5C60.0068 138.5 60.0068 138.5 60.0068 138.5C60.0068 138.5 60.0068 138.5 60.0068 138.5C60.0068 138.5 60.0068 138.5 60.0067 138.5C60.0067 138.5 60.0067 138.5 60.0067 138.5C60.0067 138.5 60.0067 138.5 60.0067 138.5C60.0067 138.5 60.0066 138.5 60.0066 138.5C60.0066 138.5 60.0066 138.5 60.0066 138.5C60.0066 138.5 60.0066 138.5 60.0066 138.5C60.0065 138.5 60.0065 138.5 60.0065 138.5C60.0065 138.5 60.0065 138.5 60.0065 138.5C60.0065 138.5 60.0065 138.5 60.0064 138.5C60.0064 138.5 60.0064 138.5 60.0064 138.5C60.0064 138.5 60.0064 138.5 60.0064 138.5C60.0064 138.5 60.0064 138.5 60.0063 138.5C60.0063 138.5 60.0063 138.5 60.0063 138.5C60.0063 138.5 60.0063 138.5 60.0063 138.5C60.0063 138.5 60.0062 138.5 60.0062 138.5C60.0062 138.5 60.0062 138.5 60.0062 138.5C60.0062 138.5 60.0062 138.5 60.0062 138.5C60.0061 138.5 60.0061 138.5 60.0061 138.5C60.0061 138.5 60.0061 138.5 60.0061 138.5C60.0061 138.5 60.0061 138.5 60.006 138.5C60.006 138.5 60.006 138.5 60.006 138.5C60.006 138.5 60.006 138.5 60.006 138.5C60.006 138.5 60.0059 138.5 60.0059 138.5C60.0059 138.5 60.0059 138.5 60.0059 138.5C60.0059 138.5 60.0059 138.5 60.0059 138.5C60.0058 138.5 60.0058 138.5 60.0058 138.5C60.0058 138.5 60.0058 138.5 60.0058 138.5C60.0058 138.5 60.0058 138.5 60.0057 138.5C60.0057 138.5 60.0057 138.5 60.0057 138.5C60.0057 138.5 60.0057 138.5 60.0057 138.5C60.0057 138.5 60.0056 138.5 60.0056 138.5C60.0056 138.5 60.0056 138.5 60.0056 138.5C60.0056 138.5 60.0056 138.5 60.0056 138.5C60.0055 138.5 60.0055 138.5 60.0055 138.5C60.0055 138.5 60.0055 138.5 60.0055 138.5C60.0055 138.5 60.0055 138.5 60.0054 138.5C60.0054 138.5 60.0054 138.5 60.0054 138.5C60.0054 138.5 60.0054 138.5 60.0054 138.5C60.0054 138.5 60.0053 138.5 60.0053 138.5C60.0053 138.5 60.0053 138.5 60.0053 138.5C60.0053 138.5 60.0053 138.5 60.0053 138.5C60.0052 138.5 60.0052 138.5 60.0052 138.5C60.0052 138.5 60.0052 138.5 60.0052 138.5C60.0052 138.5 60.0052 138.5 60.0051 138.5C60.0051 138.5 60.0051 138.5 60.0051 138.5C60.0051 138.5 60.0051 138.5 60.0051 138.5C60.0051 138.5 60.005 138.5 60.005 138.5C60.005 138.5 60.005 138.5 60.005 138.5C60.005 138.5 60.005 138.5 60.005 138.5C60.0049 138.5 60.0049 138.5 60.0049 138.5C60.0049 138.5 60.0049 138.5 60.0049 138.5C60.0049 138.5 60.0049 138.5 60.0048 138.5C60.0048 138.5 60.0048 138.5 60.0048 138.5C60.0048 138.5 60.0048 138.5 60.0048 138.5C60.0048 138.5 60.0047 138.5 60.0047 138.5C60.0047 138.5 60.0047 138.5 60.0047 138.5C60.0047 138.5 60.0047 138.5 60.0047 138.5C60.0046 138.5 60.0046 138.5 60.0046 138.5C60.0046 138.5 60.0046 138.5 60.0046 138.5C60.0046 138.5 60.0046 138.5 60.0045 138.5C60.0045 138.5 60.0045 138.5 60.0045 138.5C60.0045 138.5 60.0045 138.5 60.0045 138.5C60.0045 138.5 60.0044 138.5 60.0044 138.5C60.0044 138.5 60.0044 138.5 60.0044 138.5C60.0044 138.5 60.0044 138.5 60.0044 138.5C60.0043 138.5 60.0043 138.5 60.0043 138.5C60.0043 138.5 60.0043 138.5 60.0043 138.5C60.0043 138.5 60.0043 138.5 60.0042 138.5C60.0042 138.5 60.0042 138.5 60.0042 138.5C60.0042 138.5 60.0042 138.5 60.0042 138.5C60.0042 138.5 60.0041 138.5 60.0041 138.5C60.0041 138.5 60.0041 138.5 60.0041 138.5C60.0041 138.5 60.0041 138.5 60.0041 138.5C60.004 138.5 60.004 138.5 60.004 138.5C60.004 138.5 60.004 138.5 60.004 138.5C60.004 138.5 60.004 138.5 60.0039 138.5C60.0039 138.5 60.0039 138.5 60.0039 138.5C60.0039 138.5 60.0039 138.5 60.0039 138.5C60.0039 138.5 60.0038 138.5 60.0038 138.5C60.0038 138.5 60.0038 138.5 60.0038 138.5C60.0038 138.5 60.0038 138.5 60.0038 138.5C60.0037 138.5 60.0037 138.5 60.0037 138.5C60.0037 138.5 60.0037 138.5 60.0037 138.5C60.0037 138.5 60.0037 138.5 60.0036 138.5C60.0036 138.5 60.0036 138.5 60.0036 138.5C60.0036 138.5 60.0036 138.5 60.0036 138.5C60.0036 138.5 60.0035 138.5 60.0035 138.5C60.0035 138.5 60.0035 138.5 60.0035 138.5C60.0035 138.5 60.0035 138.5 60.0035 138.5C60.0034 138.5 60.0034 138.5 60.0034 138.5C60.0034 138.5 60.0034 138.5 60.0034 138.5C60.0034 138.5 60.0034 138.5 60.0033 138.5C60.0033 138.5 60.0033 138.5 60.0033 138.5C60.0033 138.5 60.0033 138.5 60.0033 138.5C60.0033 138.5 60.0033 138.5 60.0032 138.5C60.0032 138.5 60.0032 138.5 60.0032 138.5C60.0032 138.5 60.0032 138.5 60.0032 138.5C60.0032 138.5 60.0031 138.5 60.0031 138.5C60.0031 138.5 60.0031 138.5 60.0031 138.5C60.0031 138.5 60.0031 138.5 60.0031 138.5C60.003 138.5 60.003 138.5 60.003 138.5C60.003 138.5 60.003 138.5 60.003 138.5C60.003 138.5 60.003 138.5 60.0029 138.5C60.0029 138.5 60.0029 138.5 60.0029 138.5C60.0029 138.5 60.0029 138.5 60.0029 138.5C60.0029 138.5 60.0028 138.5 60.0028 138.5C60.0028 138.5 60.0028 138.5 60.0028 138.5C60.0028 138.5 60.0028 138.5 60.0028 138.5C60.0027 138.5 60.0027 138.5 60.0027 138.5C60.0027 138.5 60.0027 138.5 60.0027 138.5C60.0027 138.5 60.0027 138.5 60.0026 138.5C60.0026 138.5 60.0026 138.5 60.0026 138.5C60.0026 138.5 60.0026 138.5 60.0026 138.5C60.0026 138.5 60.0025 138.5 60.0025 138.5C60.0025 138.5 60.0025 138.5 60.0025 138.5C60.0025 138.5 60.0025 138.5 60.0025 138.5C60.0024 138.5 60.0024 138.5 60.0024 138.5C60.0024 138.5 60.0024 138.5 60.0024 138.5C60.0024 138.5 60.0024 138.5 60.0023 138.5C60.0023 138.5 60.0023 138.5 60.0023 138.5C60.0023 138.5 60.0023 138.5 60.0023 138.5C60.0023 138.5 60.0022 138.5 60.0022 138.5C60.0022 138.5 60.0022 138.5 60.0022 138.5C60.0022 138.5 60.0022 138.5 60.0022 138.5C60.0021 138.5 60.0021 138.5 60.0021 138.5C60.0021 138.5 60.0021 138.5 60.0021 138.5C60.0021 138.5 60.0021 138.5 60.002 138.5C60.002 138.5 60.002 138.5 60.002 138.5C60.002 138.5 60.002 138.5 60.002 138.5C60.002 138.5 60.0019 138.5 60.0019 138.5C60.0019 138.5 60.0019 138.5 60.0019 138.5C60.0019 138.5 60.0019 138.5 60.0019 138.5C60.0018 138.5 60.0018 138.5 60.0018 138.5C60.0018 138.5 60.0018 138.5 60.0018 138.5C60.0018 138.5 60.0018 138.5 60.0017 138.5C60.0017 138.5 60.0017 138.5 60.0017 138.5C60.0017 138.5 60.0017 138.5 60.0017 138.5C60.0017 138.5 60.0016 138.5 60.0016 138.5C60.0016 138.5 60.0016 138.5 60.0016 138.5C60.0016 138.5 60.0016 138.5 60.0016 138.5C60.0015 138.5 60.0015 138.5 60.0015 138.5C60.0015 138.5 60.0015 138.5 60.0015 138.5C60.0015 138.5 60.0015 138.5 60.0014 138.5C60.0014 138.5 60.0014 138.5 60.0014 138.5C60.0014 138.5 60.0014 138.5 60.0014 138.5C60.0014 138.5 60.0013 138.5 60.0013 138.5C60.0013 138.5 60.0013 138.5 60.0013 138.5C60.0013 138.5 60.0013 138.5 60.0013 138.5C60.0012 138.5 60.0012 138.5 60.0012 138.5C60.0012 138.5 60.0012 138.5 60.0012 138.5C60.0012 138.5 60.0012 138.5 60.0011 138.5C60.0011 138.5 60.0011 138.5 60.0011 138.5C60.0011 138.5 60.0011 138.5 60.0011 138.5C60.0011 138.5 60.001 138.5 60.001 138.5C60.001 138.5 60.001 138.5 60.001 138.5C60.001 138.5 60.001 138.5 60.001 138.5C60.0009 138.5 60.0009 138.5 60.0009 138.5C60.0009 138.5 60.0009 138.5 60.0009 138.5C60.0009 138.5 60.0009 138.5 60.0008 138.5C60.0008 138.5 60.0008 138.5 60.0008 138.5C60.0008 138.5 60.0008 138.5 60.0008 138.5C60.0008 138.5 60.0007 138.5 60.0007 138.5C60.0007 138.5 60.0007 138.5 60.0007 138.5C60.0007 138.5 60.0007 138.5 60.0007 138.5C60.0006 138.5 60.0006 138.5 60.0006 138.5C60.0006 138.5 60.0006 138.5 60.0006 138.5C60.0006 138.5 60.0006 138.5 60.0005 138.5C60.0005 138.5 60.0005 138.5 60.0005 138.5C60.0005 138.5 60.0005 138.5 60.0005 138.5C60.0005 138.5 60.0004 138.5 60.0004 138.5C60.0004 138.5 60.0004 138.5 60.0004 138.5C60.0004 138.5 60.0004 138.5 60.0004 138.5C60.0003 138.5 60.0003 138.5 60.0003 138.5C60.0003 138.5 60.0003 138.5 60.0003 138.5C60.0003 138.5 60.0003 138.5 60.0002 138.5C60.0002 138.5 60.0002 138.5 60.0002 138.5C60.0002 138.5 60.0002 138.5 60.0002 138.5C60.0002 138.5 60.0002 138.5 60.0001 138.5C60.0001 138.5 60.0001 138.5 60.0001 138.5C60.0001 138.5 60.0001 138.5 60.0001 138.5C60.0001 138.5 60 138.5 60 138.5C60 138.5 60 138.5 60 138.5C60 138.5 60 138.5 60 138.5C59.9999 138.5 59.9999 138.5 59.9999 138.5C59.9999 138.5 59.9999 138.5 59.9999 138.5C59.9999 138.5 59.9999 138.5 59.9998 138.5C59.9998 138.5 59.9998 138.5 59.9998 138.5C59.9998 138.5 59.9998 138.5 59.9998 138.5C59.9998 138.5 59.9997 138.5 59.9997 138.5C59.9997 138.5 59.9997 138.5 59.9997 138.5C59.9997 138.5 59.9997 138.5 59.9997 138.5C59.9996 138.5 59.9996 138.5 59.9996 138.5C59.9996 138.5 59.9996 138.5 59.9996 138.5C59.9996 138.5 59.9996 138.5 59.9995 138.5C59.9995 138.5 59.9995 138.5 59.9995 138.5C59.9995 138.5 59.9995 138.5 59.9995 138.5C59.9995 138.5 59.9994 138.5 59.9994 138.5C59.9994 138.5 59.9994 138.5 59.9994 138.5C59.9994 138.5 59.9994 138.5 59.9994 138.5C59.9993 138.5 59.9993 138.5 59.9993 138.5C59.9993 138.5 59.9993 138.5 59.9993 138.5C59.9993 138.5 59.9993 138.5 59.9992 138.5C59.9992 138.5 59.9992 138.5 59.9992 138.5C59.9992 138.5 59.9992 138.5 59.9992 138.5C59.9992 138.5 59.9991 138.5 59.9991 138.5C59.9991 138.5 59.9991 138.5 59.9991 138.5C59.9991 138.5 59.9991 138.5 59.9991 138.5C59.999 138.5 59.999 138.5 59.999 138.5C59.999 138.5 59.999 138.5 59.999 138.5C59.999 138.5 59.999 138.5 59.9989 138.5C59.9989 138.5 59.9989 138.5 59.9989 138.5C59.9989 138.5 59.9989 138.5 59.9989 138.5C59.9989 138.5 59.9988 138.5 59.9988 138.5C59.9988 138.5 59.9988 138.5 59.9988 138.5C59.9988 138.5 59.9988 138.5 59.9988 138.5C59.9987 138.5 59.9987 138.5 59.9987 138.5C59.9987 138.5 59.9987 138.5 59.9987 138.5C59.9987 138.5 59.9987 138.5 59.9986 138.5C59.9986 138.5 59.9986 138.5 59.9986 138.5C59.9986 138.5 59.9986 138.5 59.9986 138.5C59.9986 138.5 59.9985 138.5 59.9985 138.5C59.9985 138.5 59.9985 138.5 59.9985 138.5C59.9985 138.5 59.9985 138.5 59.9985 138.5C59.9984 138.5 59.9984 138.5 59.9984 138.5C59.9984 138.5 59.9984 138.5 59.9984 138.5C59.9984 138.5 59.9984 138.5 59.9983 138.5C59.9983 138.5 59.9983 138.5 59.9983 138.5C59.9983 138.5 59.9983 138.5 59.9983 138.5C59.9983 138.5 59.9982 138.5 59.9982 138.5C59.9982 138.5 59.9982 138.5 59.9982 138.5C59.9982 138.5 59.9982 138.5 59.9982 138.5C59.9981 138.5 59.9981 138.5 59.9981 138.5C59.9981 138.5 59.9981 138.5 59.9981 138.5C59.9981 138.5 59.9981 138.5 59.998 138.5C59.998 138.5 59.998 138.5 59.998 138.5C59.998 138.5 59.998 138.5 59.998 138.5C59.998 138.5 59.9979 138.5 59.9979 138.5C59.9979 138.5 59.9979 138.5 59.9979 138.5C59.9979 138.5 59.9979 138.5 59.9979 138.5C59.9978 138.5 59.9978 138.5 59.9978 138.5C59.9978 138.5 59.9978 138.5 59.9978 138.5C59.9978 138.5 59.9978 138.5 59.9977 138.5C59.9977 138.5 59.9977 138.5 59.9977 138.5C59.9977 138.5 59.9977 138.5 59.9977 138.5C59.9977 138.5 59.9976 138.5 59.9976 138.5C59.9976 138.5 59.9976 138.5 59.9976 138.5C59.9976 138.5 59.9976 138.5 59.9976 138.5C59.9975 138.5 59.9975 138.5 59.9975 138.5C59.9975 138.5 59.9975 138.5 59.9975 138.5C59.9975 138.5 59.9975 138.5 59.9974 138.5C59.9974 138.5 59.9974 138.5 59.9974 138.5C59.9974 138.5 59.9974 138.5 59.9974 138.5C59.9974 138.5 59.9973 138.5 59.9973 138.5C59.9973 138.5 59.9973 138.5 59.9973 138.5C59.9973 138.5 59.9973 138.5 59.9973 138.5C59.9972 138.5 59.9972 138.5 59.9972 138.5C59.9972 138.5 59.9972 138.5 59.9972 138.5C59.9972 138.5 59.9972 138.5 59.9971 138.5C59.9971 138.5 59.9971 138.5 59.9971 138.5C59.9971 138.5 59.9971 138.5 59.9971 138.5C59.9971 138.5 59.9971 138.5 59.997 138.5C59.997 138.5 59.997 138.5 59.997 138.5C59.997 138.5 59.997 138.5 59.997 138.5C59.997 138.5 59.9969 138.5 59.9969 138.5C59.9969 138.5 59.9969 138.5 59.9969 138.5C59.9969 138.5 59.9969 138.5 59.9969 138.5C59.9968 138.5 59.9968 138.5 59.9968 138.5C59.9968 138.5 59.9968 138.5 59.9968 138.5C59.9968 138.5 59.9968 138.5 59.9967 138.5C59.9967 138.5 59.9967 138.5 59.9967 138.5C59.9967 138.5 59.9967 138.5 59.9967 138.5C59.9967 138.5 59.9966 138.5 59.9966 138.5C59.9966 138.5 59.9966 138.5 59.9966 138.5C59.9966 138.5 59.9966 138.5 59.9966 138.5C59.9965 138.5 59.9965 138.5 59.9965 138.5C59.9965 138.5 59.9965 138.5 59.9965 138.5C59.9965 138.5 59.9965 138.5 59.9964 138.5C59.9964 138.5 59.9964 138.5 59.9964 138.5C59.9964 138.5 59.9964 138.5 59.9964 138.5C59.9964 138.5 59.9963 138.5 59.9963 138.5C59.9963 138.5 59.9963 138.5 59.9963 138.5C59.9963 138.5 59.9963 138.5 59.9963 138.5C59.9962 138.5 59.9962 138.5 59.9962 138.5C59.9962 138.5 59.9962 138.5 59.9962 138.5C59.9962 138.5 59.9962 138.5 59.9961 138.5C59.9961 138.5 59.9961 138.5 59.9961 138.5C59.9961 138.5 59.9961 138.5 59.9961 138.5C59.9961 138.5 59.996 138.5 59.996 138.5C59.996 138.5 59.996 138.5 59.996 138.5C59.996 138.5 59.996 138.5 59.996 138.5C59.9959 138.5 59.9959 138.5 59.9959 138.5C59.9959 138.5 59.9959 138.5 59.9959 138.5C59.9959 138.5 59.9959 138.5 59.9958 138.5C59.9958 138.5 59.9958 138.5 59.9958 138.5C59.9958 138.5 59.9958 138.5 59.9958 138.5C59.9958 138.5 59.9957 138.5 59.9957 138.5C59.9957 138.5 59.9957 138.5 59.9957 138.5C59.9957 138.5 59.9957 138.5 59.9957 138.5C59.9956 138.5 59.9956 138.5 59.9956 138.5C59.9956 138.5 59.9956 138.5 59.9956 138.5C59.9956 138.5 59.9956 138.5 59.9955 138.5C59.9955 138.5 59.9955 138.5 59.9955 138.5C59.9955 138.5 59.9955 138.5 59.9955 138.5C59.9955 138.5 59.9954 138.5 59.9954 138.5C59.9954 138.5 59.9954 138.5 59.9954 138.5C59.9954 138.5 59.9954 138.5 59.9954 138.5C59.9953 138.5 59.9953 138.5 59.9953 138.5C59.9953 138.5 59.9953 138.5 59.9953 138.5C59.9953 138.5 59.9953 138.5 59.9952 138.5C59.9952 138.5 59.9952 138.5 59.9952 138.5C59.9952 138.5 59.9952 138.5 59.9952 138.5C59.9952 138.5 59.9951 138.5 59.9951 138.5C59.9951 138.5 59.9951 138.5 59.9951 138.5C59.9951 138.5 59.9951 138.5 59.9951 138.5C59.995 138.5 59.995 138.5 59.995 138.5C59.995 138.5 59.995 138.5 59.995 138.5C59.995 138.5 59.995 138.5 59.9949 138.5C59.9949 138.5 59.9949 138.5 59.9949 138.5C59.9949 138.5 59.9949 138.5 59.9949 138.5C59.9949 138.5 59.9948 138.5 59.9948 138.5C59.9948 138.5 59.9948 138.5 59.9948 138.5C59.9948 138.5 59.9948 138.5 59.9948 138.5C59.9947 138.5 59.9947 138.5 59.9947 138.5C59.9947 138.5 59.9947 138.5 59.9947 138.5C59.9947 138.5 59.9947 138.5 59.9946 138.5C59.9946 138.5 59.9946 138.5 59.9946 138.5C59.9946 138.5 59.9946 138.5 59.9946 138.5C59.9946 138.5 59.9945 138.5 59.9945 138.5C59.9945 138.5 59.9945 138.5 59.9945 138.5C59.9945 138.5 59.9945 138.5 59.9945 138.5C59.9944 138.5 59.9944 138.5 59.9944 138.5C59.9944 138.5 59.9944 138.5 59.9944 138.5C59.9944 138.5 59.9944 138.5 59.9943 138.5C59.9943 138.5 59.9943 138.5 59.9943 138.5C59.9943 138.5 59.9943 138.5 59.9943 138.5C59.9943 138.5 59.9942 138.5 59.9942 138.5C59.9942 138.5 59.9942 138.5 59.9942 138.5C59.9942 138.5 59.9942 138.5 59.9942 138.5C59.9941 138.5 59.9941 138.5 59.9941 138.5C59.9941 138.5 59.9941 138.5 59.9941 138.5C59.9941 138.5 59.9941 138.5 59.994 138.5C59.994 138.5 59.994 138.5 59.994 138.5C59.994 138.5 59.994 138.5 59.994 138.5C59.994 138.5 59.994 138.5 59.9939 138.5C59.9939 138.5 59.9939 138.5 59.9939 138.5C59.9939 138.5 59.9939 138.5 59.9939 138.5C59.9939 138.5 59.9938 138.5 59.9938 138.5C59.9938 138.5 59.9938 138.5 59.9938 138.5C59.9938 138.5 59.9938 138.5 59.9938 138.5C59.9937 138.5 59.9937 138.5 59.9937 138.5C59.9937 138.5 59.9937 138.5 59.9937 138.5C59.9937 138.5 59.9937 138.5 59.9936 138.5C59.9936 138.5 59.9936 138.5 59.9936 138.5C59.9936 138.5 59.9936 138.5 59.9936 138.5C59.9936 138.5 59.9935 138.5 59.9935 138.5C59.9935 138.5 59.9935 138.5 59.9935 138.5C59.9935 138.5 59.9935 138.5 59.9935 138.5C59.9934 138.5 59.9934 138.5 59.9934 138.5C59.9934 138.5 59.9934 138.5 59.9934 138.5C59.9934 138.5 59.9934 138.5 59.9933 138.5C59.9933 138.5 59.9933 138.5 59.9933 138.5C59.9933 138.5 59.9933 138.5 59.9933 138.5C59.9933 138.5 59.9932 138.5 59.9932 138.5C59.9932 138.5 59.9932 138.5 59.9932 138.5C59.9932 138.5 59.9932 138.5 59.9932 138.5C59.9931 138.5 59.9931 138.5 59.9931 138.5C59.9931 138.5 59.9931 138.5 59.9931 138.5C59.9931 138.5 59.9931 138.5 59.993 138.5C59.993 138.5 59.993 138.5 59.993 138.5C59.993 138.5 59.993 138.5 59.993 138.5C59.993 138.5 59.9929 138.5 59.9929 138.5C59.9929 138.5 59.9929 138.5 59.9929 138.5C59.9929 138.5 59.9929 138.5 59.9929 138.5C59.9928 138.5 59.9928 138.5 59.9928 138.5C59.9928 138.5 59.9928 138.5 59.9928 138.5C59.9928 138.5 59.9928 138.5 59.9927 138.5C59.9927 138.5 59.9927 138.5 59.9927 138.5C59.9927 138.5 59.9927 138.5 59.9927 138.5C59.9927 138.5 59.9926 138.5 59.9926 138.5C59.9926 138.5 59.9926 138.5 59.9926 138.5C59.9926 138.5 59.9926 138.5 59.9926 138.5C59.9925 138.5 59.9925 138.5 59.9925 138.5C59.9925 138.5 59.9925 138.5 59.9925 138.5C59.9925 138.5 59.9925 138.5 59.9924 138.5C59.9924 138.5 59.9924 138.5 59.9924 138.5C59.9924 138.5 59.9924 138.5 59.9924 138.5C59.9924 138.5 59.9923 138.5 59.9923 138.5C59.9923 138.5 59.9923 138.5 59.9923 138.5C59.9923 138.5 59.9923 138.5 59.9923 138.5C59.9922 138.5 59.9922 138.5 59.9922 138.5C59.9922 138.5 59.9922 138.5 59.9922 138.5C59.9922 138.5 59.9922 138.5 59.9921 138.5C59.9921 138.5 59.9921 138.5 59.9921 138.5C59.9921 138.5 59.9921 138.5 59.9921 138.5C59.9921 138.5 59.992 138.5 59.992 138.5C59.992 138.5 59.992 138.5 59.992 138.5C59.992 138.5 59.992 138.5 59.992 138.5C59.9919 138.5 59.9919 138.5 59.9919 138.5C59.9919 138.5 59.9919 138.5 59.9919 138.5C59.9919 138.5 59.9919 138.5 59.9918 138.5C59.9918 138.5 59.9918 138.5 59.9918 138.5C59.9918 138.5 59.9918 138.5 59.9918 138.5C59.9918 138.5 59.9917 138.5 59.9917 138.5C59.9917 138.5 59.9917 138.5 59.9917 138.5C59.9917 138.5 59.9917 138.5 59.9917 138.5C59.9916 138.5 59.9916 138.5 59.9916 138.5C59.9916 138.5 59.9916 138.5 59.9916 138.5C59.9916 138.5 59.9916 138.5 59.9915 138.5C59.9915 138.5 59.9915 138.5 59.9915 138.5C59.9915 138.5 59.9915 138.5 59.9915 138.5C59.9915 138.5 59.9914 138.5 59.9914 138.5C59.9914 138.5 59.9914 138.5 59.9914 138.5C59.9914 138.5 59.9914 138.5 59.9914 138.5C59.9913 138.5 59.9913 138.5 59.9913 138.5C59.9913 138.5 59.9913 138.5 59.9913 138.5C59.9913 138.5 59.9913 138.5 59.9912 138.5C59.9912 138.5 59.9912 138.5 59.9912 138.5C59.9912 138.5 59.9912 138.5 59.9912 138.5C59.9912 138.5 59.9911 138.5 59.9911 138.5C59.9911 138.5 59.9911 138.5 59.9911 138.5C59.9911 138.5 59.9911 138.5 59.9911 138.5C59.991 138.5 59.991 138.5 59.991 138.5C59.991 138.5 59.991 138.5 59.991 138.5C59.991 138.5 59.991 138.5 59.9909 138.5C59.9909 138.5 59.9909 138.5 59.9909 138.5C59.9909 138.5 59.9909 138.5 59.9909 138.5C59.9909 138.5 59.9908 138.5 59.9908 138.5C59.9908 138.5 59.9908 138.5 59.9908 138.5C59.9908 138.5 59.9908 138.5 59.9908 138.5C59.9908 138.5 59.9907 138.5 59.9907 138.5C59.9907 138.5 59.9907 138.5 59.9907 138.5C59.9907 138.5 59.9907 138.5 59.9907 138.5C59.9906 138.5 59.9906 138.5 59.9906 138.5C59.9906 138.5 59.9906 138.5 59.9906 138.5C59.9906 138.5 59.9906 138.5 59.9905 138.5C59.9905 138.5 59.9905 138.5 59.9905 138.5C59.9905 138.5 59.9905 138.5 59.9905 138.5C59.9905 138.5 59.9904 138.5 59.9904 138.5C59.9904 138.5 59.9904 138.5 59.9904 138.5C59.9904 138.5 59.9904 138.5 59.9904 138.5C59.9903 138.5 59.9903 138.5 59.9903 138.5C59.9903 138.5 59.9903 138.5 59.9903 138.5C59.9903 138.5 59.9903 138.5 59.9902 138.5C59.9902 138.5 59.9902 138.5 59.9902 138.5C59.9902 138.5 59.9902 138.5 59.9902 138.5C59.9902 138.5 59.9901 138.5 59.9901 138.5C59.9901 138.5 59.9901 138.5 59.9901 138.5C59.9901 138.5 59.9901 138.5 59.9901 138.5C59.99 138.5 59.99 138.5 59.99 138.5C59.99 138.5 59.99 138.5 59.99 138.5C59.99 138.5 59.99 138.5 59.9899 138.5C59.9899 138.5 59.9899 138.5 59.9899 138.5C59.9899 138.5 59.9899 138.5 59.9899 138.5C59.9899 138.5 59.9898 138.5 59.9898 138.5C59.9898 138.5 59.9898 138.5 59.9898 138.5C59.9898 138.5 59.9898 138.5 59.9898 138.5C59.9897 138.5 59.9897 138.5 59.9897 138.5C59.9897 138.5 59.9897 138.5 59.9897 138.5C59.9897 138.5 59.9897 138.5 59.9896 138.5C59.9896 138.5 59.9896 138.5 59.9896 138.5C59.9896 138.5 59.9896 138.5 59.9896 138.5C59.9896 138.5 59.9895 138.5 59.9895 138.5C59.9895 138.5 59.9895 138.5 59.9895 138.5C59.9895 138.5 59.9895 138.5 59.9895 138.5C59.9894 138.5 59.9894 138.5 59.9894 138.5C59.9894 138.5 59.9894 138.5 59.9894 138.5C59.9894 138.5 59.9894 138.5 59.9893 138.5C59.9893 138.5 59.9893 138.5 59.9893 138.5C59.9893 138.5 59.9893 138.5 59.9893 138.5C59.9893 138.5 59.9892 138.5 59.9892 138.5C59.9892 138.5 59.9892 138.5 59.9892 138.5C59.9892 138.5 59.9892 138.5 59.9892 138.5C59.9891 138.5 59.9891 138.5 59.9891 138.5C59.9891 138.5 59.9891 138.5 59.9891 138.5C59.9891 138.5 59.9891 138.5 59.989 138.5C59.989 138.5 59.989 138.5 59.989 138.5C59.989 138.5 59.989 138.5 59.989 138.5C59.989 138.5 59.9889 138.5 59.9889 138.5C59.9889 138.5 59.9889 138.5 59.9889 138.5C59.9889 138.5 59.9889 138.5 59.9889 138.5C59.9888 138.5 59.9888 138.5 59.9888 138.5C59.9888 138.5 59.9888 138.5 59.9888 138.5C59.9888 138.5 59.9888 138.5 59.9887 138.5C59.9887 138.5 59.9887 138.5 59.9887 138.5C59.9887 138.5 59.9887 138.5 59.9887 138.5C59.9887 138.5 59.9886 138.5 59.9886 138.5C59.9886 138.5 59.9886 138.5 59.9886 138.5C59.9886 138.5 59.9886 138.5 59.9886 138.5C59.9885 138.5 59.9885 138.5 59.9885 138.5C59.9885 138.5 59.9885 138.5 59.9885 138.5C59.9885 138.5 59.9885 138.5 59.9884 138.5C59.9884 138.5 59.9884 138.5 59.9884 138.5C59.9884 138.5 59.9884 138.5 59.9884 138.5C59.9884 138.5 59.9883 138.5 59.9883 138.5C59.9883 138.5 59.9883 138.5 59.9883 138.5C59.9883 138.5 59.9883 138.5 59.9883 138.5C59.9882 138.5 59.9882 138.5 59.9882 138.5C59.9882 138.5 59.9882 138.5 59.9882 138.5C59.9882 138.5 59.9882 138.5 59.9881 138.5C59.9881 138.5 59.9881 138.5 59.9881 138.5C59.9881 138.5 59.9881 138.5 59.9881 138.5C59.9881 138.5 59.988 138.5 59.988 138.5C59.988 138.5 59.988 138.5 59.988 138.5V141.5ZM60.0083 141.5C62.4213 141.498 64.8308 140.848 66.987 139.556L65.4447 136.983C63.7567 137.995 61.8799 138.499 60.0059 138.5L60.0083 141.5ZM66.9875 139.556L114.554 111.017L113.01 108.444L65.4441 136.983L66.9875 139.556ZM114.555 111.016C118.871 108.423 121.5 103.664 121.5 98.54H118.5C118.5 102.647 116.393 106.412 113.01 108.445L114.555 111.016ZM121.5 98.54V41.4615H118.5V98.54H121.5ZM121.5 41.4615C121.5 36.3373 118.871 31.5767 114.554 28.9853L113.01 31.5574C116.393 33.5879 118.5 37.3541 118.5 41.4615H121.5ZM114.554 28.9852L66.9876 0.44417L65.4441 3.01662L113.01 31.5576L114.554 28.9852ZM66.9869 0.443758C62.6624 -2.14789 57.3326 -2.14795 53.0086 0.443807L54.5509 3.01698C57.9254 0.994368 62.0696 0.994311 65.4447 3.01703L66.9869 0.443758ZM53.0079 0.444197L5.44568 28.9849L6.9893 31.5573L54.5515 3.0166L53.0079 0.444197ZM5.44538 28.9851C1.12872 31.5768 -1.5 36.3373 -1.5 41.4612H1.5C1.5 37.3541 3.6072 33.5879 6.98961 31.5571L5.44538 28.9851Z" fill="#592B02" mask="url(#path-1-inside-1_120_27932)"/>
</svg>
