<svg width="90" height="80" viewBox="0 0 90 80" fill="none" xmlns="http://www.w3.org/2000/svg">
<g clip-path="url(#clip0_124_27936)">
<path d="M27.2507 79.2934C27.1052 79.2936 26.9636 79.2463 26.8475 79.1585C26.7314 79.0708 26.6472 78.9475 26.6078 78.8074C26.5684 78.6673 26.5758 78.5182 26.6291 78.3828C26.6823 78.2474 26.7784 78.1331 26.9027 78.0574L35.8653 72.5654L24.3667 79.2C24.2153 79.2809 24.0386 79.3003 23.8733 79.2542C23.708 79.2081 23.5668 79.1 23.4792 78.9524C23.3916 78.8048 23.3642 78.6292 23.4029 78.462C23.4415 78.2947 23.5432 78.1489 23.6867 78.0547L35.5533 70.7827L21.4813 78.9107C21.33 78.998 21.1504 79.0224 20.9812 78.9786C20.8121 78.9348 20.6669 78.8263 20.5769 78.6766C20.4869 78.5268 20.4593 78.3477 20.5 78.1778C20.5408 78.0079 20.6466 77.8607 20.7947 77.768L47.028 61.3547L19.0213 77.524C18.8698 77.6153 18.6883 77.6426 18.5166 77.5999C18.3449 77.5573 18.1972 77.4482 18.106 77.2967C18.0148 77.1452 17.9875 76.9636 18.0301 76.792C18.0727 76.6203 18.1818 76.4726 18.3333 76.3814L46.3853 58.8414L17.472 75.5334C17.3204 75.6158 17.1426 75.6363 16.9762 75.5904C16.8098 75.5445 16.6677 75.4358 16.5798 75.2873C16.4919 75.1387 16.465 74.9619 16.5048 74.7939C16.5447 74.6259 16.6481 74.48 16.7933 74.3867L21.5133 71.5334L16.752 74.2814C16.6008 74.3634 16.4236 74.3838 16.2577 74.3382C16.0918 74.2926 15.9499 74.1847 15.8617 74.0369C15.7736 73.8892 15.7459 73.7131 15.7846 73.5454C15.8233 73.3778 15.9253 73.2316 16.0693 73.1374L39.536 58.6387L15.7573 72.3694C15.6059 72.4492 15.4295 72.4678 15.2647 72.4211C15.1 72.3744 14.9595 72.2662 14.8724 72.1187C14.7853 71.9713 14.7583 71.796 14.797 71.6292C14.8356 71.4624 14.937 71.3168 15.08 71.2227L22.8827 66.496L15.104 70.9867C14.9525 71.0705 14.7743 71.092 14.6071 71.0467C14.44 71.0015 14.297 70.8929 14.2085 70.7441C14.12 70.5953 14.0928 70.4179 14.1328 70.2494C14.1728 70.0809 14.2767 69.9346 14.4227 69.8414L31.6907 59.2827L14.3787 69.276C14.2273 69.3569 14.0506 69.3763 13.8853 69.3302C13.72 69.2841 13.5788 69.176 13.4912 69.0284C13.4036 68.8809 13.3762 68.7052 13.4149 68.538C13.4535 68.3707 13.5552 68.2249 13.6987 68.1307L26.66 60.244L13.768 67.6867C13.616 67.7772 13.4342 67.8037 13.2626 67.7601C13.0911 67.7166 12.9439 67.6068 12.8533 67.4547C12.7628 67.3027 12.7364 67.1209 12.7799 66.9493C12.8234 66.7778 12.9333 66.6306 13.0853 66.54L32.3547 54.7307L13.1333 65.8254C12.9817 65.9078 12.804 65.9283 12.6376 65.8824C12.4712 65.8365 12.3291 65.7278 12.2411 65.5793C12.1532 65.4307 12.1263 65.2539 12.1662 65.0859C12.206 64.9179 12.3094 64.772 12.4547 64.6787L17.6667 61.528L12.7027 64.4C12.5509 64.4813 12.3736 64.5008 12.2079 64.4543C12.0421 64.4078 11.9008 64.299 11.8134 64.1507C11.7261 64.0023 11.6995 63.8259 11.7392 63.6584C11.779 63.4909 11.882 63.3453 12.0267 63.252L14.016 62.052L12.3307 63.0254C12.1784 63.1154 11.9967 63.1412 11.8254 63.0972C11.6541 63.0532 11.5073 62.9429 11.4173 62.7907C11.3273 62.6385 11.3015 62.4567 11.3455 62.2854C11.3895 62.1142 11.4998 61.9674 11.652 61.8774L15.9773 59.2654L11.9773 61.572C11.8259 61.6574 11.6471 61.6802 11.4791 61.6356C11.3111 61.591 11.1671 61.4825 11.0779 61.3333C10.9887 61.1841 10.9613 61.006 11.0016 60.8369C11.0418 60.6678 11.1465 60.5211 11.2933 60.428L35.2507 45.5614L11.5213 59.26C11.3701 59.3421 11.193 59.3624 11.0271 59.3169C10.8611 59.2713 10.7192 59.1634 10.6311 59.0156C10.5429 58.8679 10.5153 58.6917 10.554 58.5241C10.5927 58.3564 10.6947 58.2102 10.8387 58.116L24.7053 49.608L11.224 57.392C11.0721 57.4786 10.8923 57.502 10.7233 57.4573C10.5544 57.4125 10.4097 57.3032 10.3205 57.1529C10.2314 57.0025 10.2048 56.8231 10.2466 56.6534C10.2884 56.4837 10.3952 56.3371 10.544 56.2454L13.8227 54.252L11.0347 55.8667C10.8842 55.9483 10.708 55.9688 10.5428 55.9241C10.3775 55.8793 10.2358 55.7727 10.147 55.6263C10.0582 55.4799 10.0292 55.305 10.0658 55.1378C10.1025 54.9705 10.2021 54.8238 10.344 54.728L33.4453 40.0187L10.8053 53.0854C10.6546 53.1683 10.4776 53.1897 10.3114 53.1451C10.1452 53.1005 10.0027 52.9934 9.91362 52.8462C9.82459 52.6989 9.79593 52.523 9.83365 52.3551C9.87137 52.1872 9.97255 52.0404 10.116 51.9454L26.264 41.7654L10.7213 50.744C10.571 50.828 10.3941 50.8506 10.2275 50.807C10.0609 50.7635 9.91766 50.6572 9.82771 50.5103C9.73776 50.3635 9.7081 50.1876 9.74494 50.0194C9.78178 49.8512 9.88226 49.7038 10.0253 49.608L29.1333 37.1774L10.7333 47.7987C10.6585 47.8441 10.5754 47.8744 10.4889 47.8877C10.4023 47.9011 10.314 47.8972 10.229 47.8764C10.1439 47.8556 10.0638 47.8183 9.99314 47.7665C9.92252 47.7147 9.86278 47.6496 9.81735 47.5747C9.77191 47.4999 9.74166 47.4168 9.72833 47.3302C9.71499 47.2437 9.71884 47.1554 9.73964 47.0703C9.78164 46.8985 9.89017 46.7505 10.0413 46.6587L20.5453 39.972L10.84 45.572C10.6895 45.6595 10.5108 45.6847 10.342 45.6422C10.1732 45.5997 10.0278 45.4928 9.93671 45.3445C9.84565 45.1962 9.81622 45.0181 9.85471 44.8483C9.8932 44.6786 9.99655 44.5306 10.1427 44.436L21.076 37.3374L11.0493 43.1267C10.8997 43.2106 10.7236 43.2336 10.5575 43.1909C10.3913 43.1482 10.2481 43.0431 10.1574 42.8976C10.0668 42.752 10.0357 42.577 10.0707 42.4091C10.1057 42.2412 10.2041 42.0933 10.3453 41.996L21.5893 34.4454L11.4213 40.312C11.2716 40.3947 11.0959 40.4166 10.9304 40.3734C10.765 40.3301 10.6225 40.2249 10.5324 40.0795C10.4424 39.9341 10.4116 39.7597 10.4465 39.5923C10.4814 39.4249 10.5793 39.2773 10.72 39.18L16.2347 35.5307L11.8347 38.0734C11.6872 38.1578 11.5131 38.1828 11.3479 38.1432C11.1826 38.1036 11.0388 38.0023 10.9457 37.8602C10.8525 37.7181 10.8172 37.5457 10.8469 37.3784C10.8766 37.2111 10.969 37.0615 11.1053 36.96L19.8307 30.5134L12.7027 34.6347C12.557 34.7194 12.3847 34.7458 12.2203 34.7085C12.056 34.6713 11.9118 34.5732 11.8169 34.434C11.7219 34.2948 11.6832 34.1248 11.7086 33.9582C11.7339 33.7916 11.8213 33.6408 11.9533 33.536L17.5893 29.0334L13.8427 31.2C13.7037 31.2803 13.5403 31.3078 13.3827 31.2773C13.2251 31.2468 13.0837 31.1605 12.9847 31.0342C12.8856 30.9079 12.8354 30.75 12.8434 30.5897C12.8513 30.4293 12.9169 30.2773 13.028 30.1614L16.0947 26.9774L15.0453 27.584C14.9191 27.6564 14.7726 27.6854 14.6282 27.6667C14.4839 27.648 14.3497 27.5826 14.246 27.4804C14.1424 27.3783 14.075 27.245 14.0541 27.101C14.0333 26.9569 14.0602 26.81 14.1307 26.6827L15.064 24.9947C15.0215 24.9529 14.9852 24.9053 14.956 24.8534C14.8675 24.7004 14.8433 24.5186 14.8888 24.3478C14.9343 24.177 15.0458 24.0313 15.1987 23.9427L16.024 23.4667C16.1502 23.3942 16.2966 23.3649 16.441 23.3834C16.5854 23.4019 16.7197 23.4671 16.8235 23.5691C16.9273 23.6711 16.9949 23.8043 17.016 23.9483C17.037 24.0923 17.0103 24.2393 16.94 24.3667L16.4653 25.2214L19.5133 23.4667C19.6523 23.3874 19.8152 23.3607 19.9723 23.3915C20.1293 23.4223 20.2701 23.5087 20.3687 23.6347C20.4674 23.7607 20.5175 23.918 20.5097 24.0778C20.502 24.2377 20.437 24.3895 20.3267 24.5054L17.2667 27.684L24.588 23.4587C24.7335 23.3761 24.9047 23.3512 25.0676 23.389C25.2306 23.4267 25.3734 23.5243 25.4677 23.6625C25.5621 23.8006 25.601 23.9692 25.5769 24.1347C25.5527 24.3002 25.4672 24.4506 25.3373 24.556L19.7027 29.056L29.4027 23.456C29.5501 23.3716 29.7243 23.3466 29.8895 23.3862C30.0547 23.4258 30.1986 23.5271 30.2917 23.6692C30.3848 23.8113 30.4201 23.9837 30.3905 24.151C30.3608 24.3183 30.2683 24.4679 30.132 24.5694L21.4 31.016L34.4973 23.4547C34.6471 23.3721 34.8228 23.3501 34.9883 23.3934C35.1537 23.4367 35.2962 23.5419 35.3863 23.6872C35.4763 23.8326 35.5071 24.007 35.4722 24.1744C35.4373 24.3419 35.3393 24.4895 35.1987 24.5867L29.6707 28.2454L37.972 23.4534C38.1217 23.3666 38.2994 23.3414 38.4673 23.3832C38.6352 23.425 38.7803 23.5305 38.8719 23.6773C38.9635 23.8241 38.9944 24.0008 38.9581 24.1701C38.9218 24.3393 38.8211 24.4877 38.6773 24.584L27.4347 32.1334L42.476 23.4494C42.6261 23.3667 42.8022 23.345 42.9678 23.3888C43.1335 23.4325 43.2759 23.5383 43.3656 23.6843C43.4553 23.8302 43.4854 24.0051 43.4496 24.1726C43.4138 24.3402 43.3149 24.4875 43.1733 24.584L32.2467 31.6814L46.5133 23.448C46.6639 23.3665 46.84 23.3459 47.0053 23.3907C47.1705 23.4354 47.3122 23.542 47.401 23.6884C47.4898 23.8348 47.5189 24.0097 47.4822 24.177C47.4455 24.3442 47.3459 24.4909 47.204 24.5867L36.708 31.2707L50.2613 23.4454C50.4118 23.3579 50.5905 23.3327 50.7593 23.3752C50.9281 23.4177 51.0736 23.5246 51.1646 23.6729C51.2557 23.8213 51.2851 23.9993 51.2467 24.1691C51.2082 24.3388 51.1048 24.4868 50.9587 24.5814L31.8507 37.008L55.3387 23.444C55.4895 23.3611 55.6665 23.3397 55.8326 23.3843C55.9988 23.4289 56.1414 23.536 56.2304 23.6832C56.3194 23.8305 56.3481 24.0065 56.3104 24.1743C56.2726 24.3422 56.1715 24.489 56.028 24.584L39.868 34.7707L59.4893 23.4374C59.5642 23.3919 59.6473 23.3617 59.7338 23.3484C59.8204 23.335 59.9087 23.3389 59.9937 23.3597C60.0788 23.3805 60.1589 23.4178 60.2295 23.4696C60.3002 23.5213 60.3599 23.5865 60.4053 23.6614C60.4508 23.7362 60.481 23.8193 60.4944 23.9058C60.5077 23.9924 60.5039 24.0807 60.4831 24.1658C60.4623 24.2508 60.4249 24.3309 60.3731 24.4016C60.3214 24.4722 60.2562 24.5319 60.1813 24.5774L37.0733 39.2907L64.528 23.44C64.6797 23.3576 64.8574 23.3371 65.0238 23.383C65.1902 23.4289 65.3323 23.5376 65.4202 23.6861C65.5081 23.8347 65.535 24.0116 65.4952 24.1795C65.4554 24.3475 65.3519 24.4934 65.2067 24.5867L61.9333 26.58L67.3747 23.4387C67.5266 23.3482 67.7082 23.3217 67.8796 23.3651C68.051 23.4085 68.1982 23.5182 68.2887 23.67C68.3792 23.8219 68.4057 24.0035 68.3623 24.175C68.3189 24.3464 68.2092 24.4935 68.0573 24.584L54.172 33.0974L70.9053 23.4374C71.0568 23.352 71.2356 23.3293 71.4036 23.3739C71.5716 23.4184 71.7156 23.5269 71.8048 23.6761C71.894 23.8253 71.9214 24.0034 71.8811 24.1725C71.8409 24.3416 71.7362 24.4883 71.5893 24.5814L47.6573 39.4307L74.1907 24.1147C74.3422 24.0348 74.5185 24.0163 74.6833 24.063C74.848 24.1097 74.9885 24.2179 75.0756 24.3654C75.1627 24.5128 75.1897 24.6881 75.1511 24.8549C75.1124 25.0217 75.0111 25.1673 74.868 25.2614L70.5293 27.88L74.648 25.5027C74.8 25.4181 74.979 25.3962 75.1469 25.4417C75.3148 25.4872 75.4582 25.5965 75.5466 25.7463C75.635 25.8962 75.6613 26.0746 75.62 26.2435C75.5787 26.4125 75.4729 26.5586 75.3253 26.6507L73.2987 27.872L75.092 26.8374C75.2437 26.7549 75.4214 26.7345 75.5878 26.7804C75.7542 26.8263 75.8963 26.9349 75.9842 27.0835C76.0721 27.232 76.099 27.4089 76.0592 27.5769C76.0194 27.7448 75.9159 27.8908 75.7707 27.984L70.5707 31.124L75.556 28.2467C75.7076 28.1588 75.8878 28.1341 76.0575 28.178C76.2272 28.2219 76.3727 28.3309 76.4627 28.4814C76.5528 28.6321 76.5798 28.8122 76.5379 28.9828C76.4959 29.1533 76.3884 29.3003 76.2387 29.392L56.9933 41.1907L76.18 30.1134C76.3314 30.0325 76.5081 30.0131 76.6734 30.0592C76.8387 30.1053 76.9799 30.2134 77.0675 30.361C77.1551 30.5086 77.1824 30.6842 77.1438 30.8515C77.1051 31.0187 77.0035 31.1645 76.86 31.2587L63.8453 39.1787L76.7333 31.7334C76.8849 31.6496 77.0631 31.6281 77.2302 31.6733C77.3974 31.7186 77.5403 31.8271 77.6289 31.976C77.7174 32.1248 77.7445 32.3022 77.7046 32.4707C77.6646 32.6392 77.5606 32.7855 77.4147 32.8787L60.1653 43.432L77.312 33.532C77.4642 33.442 77.646 33.4162 77.8173 33.4602C77.9886 33.5042 78.1353 33.6145 78.2253 33.7667C78.3153 33.9189 78.3412 34.1007 78.2972 34.272C78.2532 34.4433 78.1429 34.59 77.9907 34.68L70.2147 39.3894L77.728 35.052C77.8795 34.9667 78.0582 34.9439 78.2263 34.9885C78.3943 35.0331 78.5382 35.1416 78.6274 35.2908C78.7166 35.44 78.744 35.6181 78.7038 35.7872C78.6636 35.9563 78.5589 36.103 78.412 36.196L54.9453 50.6947L78.2267 37.2507C78.3783 37.1682 78.556 37.1478 78.7224 37.1937C78.8889 37.2396 79.031 37.3483 79.1189 37.4968C79.2068 37.6454 79.2337 37.8222 79.1939 37.9902C79.154 38.1581 79.0506 38.3041 78.9053 38.3974L74.1733 41.2574L78.504 38.7574C78.6554 38.6701 78.835 38.6457 79.0041 38.6895C79.1733 38.7333 79.3185 38.8418 79.4085 38.9915C79.4985 39.1413 79.5261 39.3204 79.4853 39.4903C79.4446 39.6602 79.3388 39.8073 79.1907 39.9L51.1333 57.444L78.88 41.424C79.0315 41.3328 79.2131 41.3055 79.3848 41.3481C79.5564 41.3908 79.7041 41.4998 79.7953 41.6514C79.8866 41.8029 79.9139 41.9845 79.8712 42.1561C79.8286 42.3278 79.7195 42.4755 79.568 42.5667L53.3333 58.9814L79.1333 44.088C79.2852 44.0015 79.465 43.9781 79.634 44.0228C79.803 44.0675 79.9477 44.1769 80.0368 44.3272C80.126 44.4776 80.1525 44.6569 80.1107 44.8267C80.0689 44.9964 79.9621 45.1429 79.8133 45.2347L67.9333 52.5107L79.232 45.988C79.3841 45.8975 79.5659 45.8711 79.7374 45.9146C79.9089 45.9581 80.0562 46.068 80.1467 46.22C80.2372 46.3721 80.2636 46.5539 80.2201 46.7254C80.1766 46.897 80.0667 47.0442 79.9147 47.1347L70.94 52.6334L79.2813 47.8174C79.4332 47.7267 79.6149 47.7 79.7865 47.7433C79.958 47.7865 80.1053 47.8962 80.196 48.048C80.2867 48.1999 80.3134 48.3816 80.2701 48.5531C80.2269 48.7247 80.1172 48.872 79.9653 48.9627L69.032 55.7134L79.272 49.804C79.4232 49.7208 79.6007 49.6994 79.7673 49.7443C79.9339 49.7893 80.0766 49.8971 80.1654 50.0451C80.2541 50.1931 80.282 50.3697 80.2432 50.5379C80.2044 50.706 80.102 50.8526 79.9573 50.9467L70.0013 57.1254L79.2013 51.816C79.2763 51.7707 79.3594 51.7405 79.446 51.7273C79.5326 51.7141 79.621 51.7181 79.706 51.739C79.7911 51.7599 79.8712 51.7974 79.9418 51.8493C80.0123 51.9012 80.072 51.9664 80.1173 52.0414C80.1627 52.1163 80.1928 52.1995 80.2061 52.286C80.2193 52.3726 80.2153 52.461 80.1944 52.546C80.1735 52.6311 80.136 52.7112 80.0841 52.7818C80.0322 52.8524 79.967 52.912 79.892 52.9574L66.236 61.6L79.0227 54.2187C79.1736 54.1324 79.3523 54.1086 79.5206 54.1521C79.6889 54.1957 79.8336 54.3034 79.9237 54.4521C80.0137 54.6008 80.0422 54.7788 80.0029 54.9482C79.9636 55.1175 79.8597 55.2649 79.7133 55.3587L68.3987 62.5587L78.7227 56.5987C78.8726 56.5148 79.0492 56.4921 79.2155 56.5352C79.3818 56.5784 79.525 56.684 79.6153 56.8302C79.7056 56.9764 79.736 57.1518 79.7001 57.3198C79.6642 57.4878 79.5648 57.6355 79.4227 57.732L65.4067 66.9867L78.192 59.6C78.3423 59.5161 78.5193 59.4935 78.6859 59.537C78.8524 59.5806 78.9957 59.6869 79.0856 59.8337C79.1756 59.9806 79.2053 60.1565 79.1684 60.3247C79.1316 60.4929 79.0311 60.6403 78.888 60.736L71.912 65.2694L77.6453 61.96C77.7941 61.8769 77.9689 61.8539 78.1341 61.8957C78.2993 61.9375 78.4421 62.041 78.5334 62.1848C78.6247 62.3286 78.6575 62.5019 78.625 62.6692C78.5925 62.8364 78.4972 62.9849 78.3587 63.084L68.7227 69.7334L76.7227 65.1134C76.8728 65.0263 77.0509 65.0013 77.2192 65.0435C77.3875 65.0856 77.5327 65.1918 77.624 65.3393C77.7153 65.4868 77.7455 65.6641 77.7081 65.8336C77.6708 66.003 77.5689 66.1512 77.424 66.2467L76.0253 67.172C76.1728 67.1004 76.3415 67.0857 76.4992 67.1306C76.6568 67.1755 76.7924 67.277 76.88 67.4155C76.9676 67.5541 77.0011 67.7201 76.974 67.8818C76.947 68.0435 76.8613 68.1895 76.7333 68.292L69.9693 73.7334L74.2093 71.2854C74.3544 71.2026 74.5252 71.1772 74.688 71.2142C74.8508 71.2513 74.9938 71.3481 75.0886 71.4856C75.1835 71.623 75.2233 71.791 75.2003 71.9564C75.1772 72.1218 75.0929 72.2725 74.964 72.3787L72.912 74.0467C73.0439 74.0295 73.1779 74.0513 73.2975 74.1093C73.4172 74.1674 73.5172 74.2592 73.5853 74.3734C73.6739 74.5263 73.698 74.7082 73.6525 74.8789C73.607 75.0497 73.4956 75.1954 73.3427 75.284L66.5573 79.2C66.4124 79.2814 66.2422 79.3058 66.0803 79.2682C65.9183 79.2306 65.7763 79.1339 65.6819 78.997C65.5876 78.8601 65.5478 78.6929 65.5704 78.5282C65.593 78.3635 65.6763 78.2132 65.804 78.1067L67.6267 76.6254L63.164 79.2C63.0187 79.2822 62.8479 79.3069 62.6853 79.2692C62.5227 79.2315 62.3801 79.1342 62.2858 78.9965C62.1915 78.8588 62.1522 78.6907 62.1759 78.5254C62.1995 78.3602 62.2842 78.2098 62.4133 78.104L69.18 72.656L57.8467 79.2C57.6968 79.2853 57.5198 79.3091 57.3527 79.2667C57.1857 79.2242 57.0416 79.1186 56.9506 78.9722C56.8597 78.8257 56.8291 78.6497 56.8651 78.4811C56.9012 78.3126 57.0011 78.1645 57.144 78.068L58.5133 77.1627L54.9787 79.2C54.8297 79.2841 54.6542 79.3078 54.4883 79.2661C54.3225 79.2244 54.179 79.1205 54.0875 78.976C53.9961 78.8314 53.9637 78.6573 53.997 78.4895C54.0304 78.3218 54.1269 78.1733 54.2667 78.0747L63.9027 71.4307L50.444 79.2C50.2941 79.2805 50.119 79.3006 49.9548 79.2562C49.7905 79.2118 49.6494 79.1063 49.5605 78.9612C49.4715 78.8162 49.4413 78.6426 49.4762 78.476C49.5111 78.3095 49.6083 78.1626 49.748 78.0654L56.72 73.532L46.9133 79.2C46.7636 79.2827 46.5879 79.3046 46.4224 79.2614C46.257 79.2181 46.1145 79.1129 46.0244 78.9675C45.9344 78.8221 45.9036 78.6477 45.9385 78.4803C45.9734 78.3129 46.0713 78.1653 46.212 78.068L60.2347 68.8L42.224 79.2C42.0733 79.2843 41.8959 79.3068 41.729 79.2628C41.562 79.2188 41.4187 79.1119 41.329 78.9643C41.2394 78.8168 41.2104 78.6403 41.2483 78.4719C41.2862 78.3035 41.3879 78.1563 41.532 78.0614L52.8493 70.8614L38.4053 79.2C38.2544 79.2863 38.0757 79.3102 37.9074 79.2666C37.7391 79.223 37.5945 79.1154 37.5044 78.9667C37.4143 78.818 37.3859 78.64 37.4251 78.4706C37.4644 78.3012 37.5683 78.1539 37.7147 78.06L51.3653 69.4227L34.4307 79.2C34.2797 79.2807 34.1035 79.3002 33.9385 79.2544C33.7735 79.2087 33.6325 79.1013 33.5446 78.9544C33.4567 78.8075 33.4286 78.6325 33.4662 78.4655C33.5039 78.2985 33.6043 78.1524 33.7467 78.0574L43.7173 71.8667L31.0173 79.2C30.8667 79.2777 30.6922 79.295 30.5293 79.2486C30.3664 79.2022 30.2272 79.0955 30.1401 78.9501C30.053 78.8048 30.0245 78.6318 30.0604 78.4662C30.0963 78.3006 30.1939 78.1549 30.3333 78.0587L41.2547 71.3107L27.584 79.2C27.4831 79.26 27.3681 79.2922 27.2507 79.2934Z" fill="#FFD34E"/>
<path d="M24.156 13.9999C24.0139 14 23.8755 13.9547 23.761 13.8706C23.6465 13.7865 23.5618 13.6679 23.5194 13.5323C23.477 13.3967 23.479 13.2511 23.5252 13.1167C23.5713 12.9823 23.6592 12.8662 23.776 12.7853L27.8 9.99995L21.3733 13.7013C21.2263 13.7843 21.0532 13.8085 20.889 13.7688C20.7248 13.7291 20.5818 13.6287 20.4889 13.4876C20.396 13.3466 20.36 13.1756 20.3883 13.0091C20.4166 12.8426 20.507 12.693 20.6413 12.5906L27.336 7.58795L21.5827 10.9106C21.4345 10.9965 21.259 11.0221 21.0925 10.9821C20.926 10.9421 20.7812 10.8395 20.6883 10.6956C20.5954 10.5518 20.5614 10.3777 20.5933 10.2094C20.6253 10.0412 20.7208 9.89169 20.86 9.79195L22.52 8.59195L21.8187 8.99195C21.6732 9.07454 21.502 9.09944 21.3391 9.06169C21.1761 9.02394 21.0333 8.92631 20.9389 8.78817C20.8446 8.65003 20.8057 8.48148 20.8298 8.31595C20.854 8.15043 20.9395 8.00004 21.0693 7.89461L23.02 6.33461L22.0867 6.86795C21.9537 6.94402 21.7985 6.97195 21.6473 6.94704C21.4961 6.92213 21.3581 6.8459 21.2566 6.73118C21.155 6.61646 21.096 6.47025 21.0896 6.31715C21.0832 6.16406 21.1297 6.01343 21.2213 5.89061L22.9467 3.59995C22.7906 3.665 22.6157 3.66834 22.4573 3.6093C22.2989 3.55026 22.1689 3.43325 22.0935 3.28195C22.0181 3.13065 22.003 2.95635 22.0512 2.79434C22.0995 2.63232 22.2075 2.49469 22.3533 2.40928L25.1 0.827948C25.2332 0.750524 25.389 0.721601 25.5411 0.746093C25.6932 0.770585 25.8321 0.846982 25.9342 0.962298C26.0363 1.07761 26.0954 1.22474 26.1013 1.37865C26.1072 1.53257 26.0596 1.68379 25.9667 1.80661L24.2467 4.09461L29.9613 0.799948C30.1068 0.717353 30.278 0.69246 30.441 0.730207C30.6039 0.767955 30.7467 0.865585 30.8411 1.00373C30.9354 1.14187 30.9744 1.31042 30.9502 1.47594C30.926 1.64146 30.8406 1.79186 30.7107 1.89728L28.7613 3.45728L33.3653 0.799948C33.5134 0.714332 33.6886 0.688869 33.8549 0.728823C34.0212 0.768776 34.1657 0.871091 34.2587 1.01461C34.3518 1.15837 34.386 1.33246 34.3543 1.50077C34.3225 1.66908 34.2271 1.81871 34.088 1.91861L32.4293 3.11061L36.4293 0.799948C36.5764 0.716905 36.7495 0.692774 36.9137 0.732431C37.0778 0.772087 37.2208 0.872575 37.3138 1.01359C37.4067 1.15461 37.4427 1.32565 37.4144 1.49215C37.3861 1.65866 37.2957 1.80822 37.1613 1.91061L30.468 6.91195L41.0613 0.799948C41.2101 0.716848 41.3849 0.693833 41.5501 0.735629C41.7153 0.777424 41.8581 0.880858 41.9494 1.0247C42.0407 1.16853 42.0735 1.34186 42.041 1.50909C42.0085 1.67632 41.9132 1.82476 41.7747 1.92395L37.7507 4.71195L44.5333 0.799948C44.6828 0.714752 44.8595 0.690654 45.0263 0.732696C45.1932 0.774738 45.3373 0.879662 45.4286 1.02552C45.5199 1.17139 45.5512 1.34689 45.5161 1.51533C45.4809 1.68376 45.382 1.83209 45.24 1.92928L43.7093 2.95728L47.448 0.799948C47.595 0.71375 47.7695 0.68712 47.9355 0.72553C48.1015 0.76394 48.2465 0.864473 48.3407 1.00648C48.435 1.14848 48.4712 1.32117 48.4421 1.48907C48.4129 1.65698 48.3206 1.80734 48.184 1.90928L40.984 7.35061L52.3253 0.799948C52.4731 0.7159 52.6474 0.69147 52.8126 0.731652C52.9777 0.771835 53.1213 0.873594 53.2139 1.01612C53.3066 1.15865 53.3413 1.33119 53.3109 1.49844C53.2806 1.6657 53.1875 1.81505 53.0507 1.91595L46.8253 6.44928L56.6107 0.799948C56.7594 0.719802 56.933 0.699115 57.0964 0.742068C57.2598 0.785022 57.4008 0.888412 57.4909 1.03134C57.581 1.17426 57.6135 1.34606 57.5817 1.51201C57.55 1.67795 57.4565 1.82566 57.32 1.92528L54.164 4.08528L59.8613 0.799948C60.0085 0.715035 60.1825 0.689491 60.3478 0.728534C60.5131 0.767577 60.6573 0.868261 60.7509 1.01002C60.8445 1.15179 60.8805 1.32393 60.8514 1.49131C60.8224 1.65869 60.7306 1.80866 60.5947 1.91061L53.544 7.19995L64.5107 0.867948C64.6586 0.785062 64.8325 0.761621 64.997 0.802394C65.1615 0.843167 65.3044 0.945092 65.3964 1.08743C65.4885 1.22977 65.5229 1.40184 65.4926 1.56863C65.4623 1.73542 65.3696 1.88441 65.2333 1.98528L59.516 6.10261L66.6267 1.99995C66.7752 1.91433 66.9509 1.88919 67.1175 1.92975C67.284 1.9703 67.4285 2.07344 67.521 2.21775C67.6135 2.36206 67.6468 2.53644 67.6141 2.70469C67.5814 2.87294 67.4852 3.02213 67.3453 3.12128L64.012 5.47861L67.5334 3.44661C67.6815 3.36071 67.857 3.33512 68.0235 3.37515C68.1901 3.41518 68.3348 3.51775 68.4277 3.6616C68.5206 3.80545 68.5547 3.97955 68.5227 4.1478C68.4907 4.31605 68.3952 4.46554 68.256 4.56528L66.1667 6.06528L67.8373 5.09995C67.9825 5.01817 68.153 4.99369 68.3152 5.03132C68.4775 5.06895 68.6198 5.16597 68.7141 5.30327C68.8084 5.44057 68.8479 5.60821 68.8249 5.77317C68.8018 5.93814 68.7177 6.08849 68.5894 6.19461L65.772 8.47461L68.0907 7.14128C68.2298 7.06094 68.3933 7.03356 68.5511 7.06418C68.7088 7.09481 68.8502 7.18137 68.9492 7.30794C69.0481 7.43451 69.0981 7.59258 69.0898 7.75305C69.0815 7.91352 69.0155 8.06559 68.904 8.18128L66.8067 10.3453L68.3787 9.43861C68.4879 9.37577 68.6127 9.34516 68.7386 9.35034C68.8644 9.35551 68.9863 9.39625 69.09 9.46783C69.1937 9.53942 69.2749 9.63892 69.3244 9.75481C69.3738 9.8707 69.3894 9.99823 69.3693 10.1226L69.04 12.1666C69.1815 12.1784 69.3155 12.235 69.4225 12.3283C69.5296 12.4215 69.6041 12.5465 69.6352 12.685C69.6663 12.8235 69.6523 12.9683 69.5954 13.0983C69.5385 13.2284 69.4415 13.3368 69.3187 13.4079L68.5187 13.8706C68.4096 13.9333 68.285 13.9639 68.1592 13.9588C68.0335 13.9536 67.9118 13.913 67.8081 13.8416C67.7045 13.7702 67.6232 13.6709 67.5736 13.5552C67.5241 13.4396 67.5083 13.3122 67.528 13.1879L67.832 11.2946L63.36 13.8746C63.2209 13.955 63.0574 13.9823 62.8996 13.9517C62.7419 13.9211 62.6005 13.8345 62.5015 13.708C62.4025 13.5814 62.3526 13.4233 62.3609 13.2628C62.3692 13.1024 62.4352 12.9503 62.5467 12.8346L64.6413 10.6666L59.08 13.8786C58.9348 13.9619 58.7637 13.9874 58.6005 13.9503C58.4373 13.9132 58.2941 13.8161 58.1992 13.6782C58.1044 13.5404 58.0648 13.3719 58.0884 13.2062C58.112 13.0405 58.1971 12.8898 58.3267 12.7839L61.1467 10.5026L55.2933 13.8813C55.1452 13.9672 54.9697 13.9928 54.8031 13.9527C54.6366 13.9127 54.4919 13.8101 54.399 13.6663C54.306 13.5224 54.272 13.3483 54.304 13.1801C54.336 13.0119 54.4315 12.8624 54.5707 12.7626L56.6587 11.2599L52.1147 13.8839C51.9662 13.9696 51.7904 13.9947 51.6239 13.9542C51.4574 13.9136 51.3129 13.8105 51.2204 13.6661C51.1279 13.5218 51.0945 13.3475 51.1272 13.1792C51.16 13.011 51.2562 12.8618 51.396 12.7626L54.7333 10.3999L48.7 13.8826C48.5521 13.9655 48.3782 13.9889 48.2137 13.9482C48.0492 13.9074 47.9063 13.8055 47.8143 13.6631C47.7222 13.5208 47.6878 13.3487 47.7181 13.1819C47.7484 13.0151 47.8411 12.8662 47.9773 12.7653L53.696 8.64661L44.62 13.8866C44.4729 13.9715 44.2989 13.9971 44.1336 13.958C43.9682 13.919 43.824 13.8183 43.7304 13.6765C43.6368 13.5348 43.6009 13.3626 43.6299 13.1953C43.659 13.0279 43.7508 12.8779 43.8867 12.7759L50.9373 7.48528L39.8413 13.8853C39.6923 13.9682 39.5172 13.9908 39.3519 13.9485C39.1867 13.9062 39.044 13.8022 38.9532 13.6578C38.8623 13.5135 38.8302 13.3399 38.8635 13.1726C38.8967 13.0053 38.9928 12.8572 39.132 12.7586L42.2853 10.5986L36.5853 13.8879C36.4377 13.9701 36.2643 13.9931 36.1003 13.9523C35.9363 13.9116 35.7939 13.81 35.7019 13.6682C35.6099 13.5264 35.5752 13.355 35.6048 13.1886C35.6344 13.0222 35.7261 12.8733 35.8613 12.7719L42.0867 8.23861L32.2933 13.8919C32.1463 13.9781 31.9719 14.0048 31.8059 13.9664C31.6398 13.928 31.4948 13.8274 31.4006 13.6854C31.3064 13.5434 31.2701 13.3707 31.2993 13.2028C31.3284 13.0349 31.4208 12.8846 31.5573 12.7826L38.7573 7.34395L27.408 13.8959C27.2581 13.9897 27.0771 14.02 26.9048 13.9802C26.7325 13.9405 26.5831 13.8339 26.4893 13.6839C26.3956 13.534 26.3653 13.353 26.4051 13.1807C26.4448 13.0084 26.5514 12.859 26.7013 12.7653L28.236 11.7359L24.488 13.8986C24.3884 13.9615 24.2737 13.9965 24.156 13.9999Z" fill="#FFFAD5"/>
<path d="M77.7827 32.5453C77.646 32.5454 77.5126 32.5035 77.4005 32.4252C77.2885 32.347 77.2032 32.2362 77.1562 32.1078C77.1092 31.9795 77.1027 31.8398 77.1378 31.7077C77.1728 31.5756 77.2476 31.4574 77.352 31.3693L77.5507 31.2013L76.308 31.9173C76.1685 31.9968 76.0049 32.0232 75.8474 31.9918C75.6899 31.9603 75.5491 31.8731 75.4508 31.7461C75.3525 31.619 75.3033 31.4608 75.3124 31.3005C75.3214 31.1401 75.3881 30.9884 75.5 30.8733L78.9467 27.3706L74 30.2266C73.8568 30.3096 73.6879 30.3364 73.526 30.3017C73.3642 30.2671 73.221 30.1734 73.1244 30.039C73.0278 29.9047 72.9846 29.7391 73.0032 29.5747C73.0219 29.4102 73.1011 29.2586 73.2254 29.1493L75.9134 26.7746L72.4187 28.7919C72.2767 28.8732 72.1098 28.8995 71.9497 28.8657C71.7896 28.8319 71.6476 28.7404 71.5506 28.6087C71.4536 28.4769 71.4084 28.3141 71.4237 28.1512C71.4389 27.9883 71.5136 27.8367 71.6334 27.7253L74.1867 25.3613L70.3414 27.5826C70.1993 27.6721 70.0287 27.7047 69.8637 27.6738C69.6986 27.643 69.5513 27.5511 69.4511 27.4164C69.3509 27.2816 69.3052 27.1141 69.3232 26.9472C69.3412 26.7802 69.4215 26.6262 69.548 26.5159L72.0707 24.1159L66.4707 27.3466C66.3177 27.4336 66.1364 27.4566 65.9665 27.4104C65.7966 27.3643 65.6519 27.2528 65.5638 27.1004C65.4758 26.9479 65.4517 26.7668 65.4967 26.5966C65.5417 26.4264 65.6522 26.281 65.804 26.1919L76.26 20.1559C76.4021 20.0664 76.5727 20.0339 76.7377 20.0647C76.9027 20.0955 77.0501 20.1874 77.1503 20.3222C77.2505 20.4569 77.2961 20.6244 77.2782 20.7914C77.2602 20.9583 77.1799 21.1123 77.0534 21.2226L74.532 23.6226L78.6654 21.2333C78.8074 21.1508 78.9748 21.1236 79.1356 21.157C79.2964 21.1904 79.4392 21.2819 79.5367 21.4141C79.6342 21.5462 79.6794 21.7097 79.6638 21.8732C79.6482 22.0367 79.5728 22.1886 79.452 22.2999L76.9054 24.6666L81 22.3013C81.143 22.2198 81.3111 22.194 81.472 22.2291C81.6328 22.2641 81.775 22.3574 81.8712 22.4909C81.9673 22.6245 82.0107 22.789 81.9929 22.9526C81.9751 23.1162 81.8973 23.2675 81.7747 23.3773L79.0867 25.7506L82.5347 23.7613C82.6743 23.6808 82.8383 23.6535 82.9963 23.6846C83.1544 23.7157 83.2959 23.803 83.3947 23.9303C83.4934 24.0576 83.5426 24.2164 83.5333 24.3773C83.524 24.5381 83.4568 24.6902 83.344 24.8053L79.896 28.3079L83.2907 26.3506C83.4348 26.2685 83.6042 26.243 83.7661 26.2792C83.9279 26.3153 84.0705 26.4105 84.1659 26.5461C84.2613 26.6817 84.3028 26.848 84.2823 27.0125C84.2617 27.177 84.1806 27.328 84.0547 27.4359L83.388 28.0026C83.5309 28.0115 83.6672 28.0662 83.7766 28.1585C83.886 28.2509 83.9628 28.3761 83.9956 28.5155C84.0283 28.6549 84.0153 28.8011 83.9585 28.9326C83.9017 29.064 83.804 29.1736 83.68 29.2453L78.1187 32.4559C78.0168 32.5154 77.9007 32.5463 77.7827 32.5453Z" fill="#FFFAD5"/>
<path d="M57.844 32.4786C57.7041 32.4786 57.5677 32.4346 57.4542 32.3527C57.3407 32.2709 57.2558 32.1555 57.2116 32.0227C57.1673 31.89 57.166 31.7467 57.2077 31.6131C57.2494 31.4796 57.3321 31.3625 57.444 31.2786L64.0934 26.3999L54.2 32.1119C54.0516 32.1953 53.877 32.2187 53.7118 32.1775C53.5467 32.1362 53.4036 32.0333 53.3119 31.8899C53.2202 31.7466 53.1868 31.5735 53.2185 31.4063C53.2503 31.2391 53.3448 31.0904 53.4827 30.9906L59.6667 26.6226L52.2134 30.9332C52.0646 31.0134 51.891 31.0341 51.7276 30.9911C51.5642 30.9482 51.4232 30.8448 51.3331 30.7019C51.243 30.5589 51.2106 30.3871 51.2423 30.2212C51.274 30.0552 51.3676 29.9075 51.504 29.8079L55.416 27.1279L50.8827 29.7426C50.7335 29.8278 50.5572 29.8522 50.3905 29.8107C50.2238 29.7691 50.0796 29.6648 49.988 29.5195C49.8963 29.3742 49.8643 29.1991 49.8986 29.0307C49.9329 28.8624 50.0308 28.7138 50.172 28.6159L54.7334 25.4666L49.4534 28.5146C49.3053 28.5983 49.1308 28.6222 48.9657 28.5815C48.8006 28.5407 48.6572 28.4384 48.5651 28.2955C48.4729 28.1525 48.4388 27.9798 48.4699 27.8125C48.5009 27.6453 48.5947 27.4963 48.732 27.3959L54.2907 23.4186L47.304 27.4519C47.1559 27.5378 46.9803 27.5634 46.8138 27.5234C46.6473 27.4834 46.5026 27.3808 46.4097 27.2369C46.3167 27.0931 46.2827 26.919 46.3147 26.7507C46.3467 26.5825 46.4421 26.433 46.5814 26.3332L50.8174 23.2919L43.7854 27.3519C43.6323 27.4389 43.4511 27.4619 43.2812 27.4157C43.1113 27.3696 42.9665 27.2582 42.8785 27.1057C42.7905 26.9533 42.7663 26.7722 42.8113 26.602C42.8563 26.4318 42.9668 26.2863 43.1187 26.1972L61.7854 15.4239C61.9335 15.338 62.109 15.3124 62.2756 15.3525C62.4421 15.3925 62.5868 15.495 62.6797 15.6389C62.7727 15.7828 62.8067 15.9568 62.7747 16.1251C62.7427 16.2933 62.6472 16.4428 62.508 16.5426L58.272 19.5839L65.4827 15.4212C65.6308 15.3376 65.8052 15.3136 65.9704 15.3544C66.1355 15.3951 66.2788 15.4974 66.371 15.6404C66.4632 15.7833 66.4972 15.9561 66.4662 16.1233C66.4351 16.2905 66.3414 16.4396 66.204 16.5399L60.6454 20.5199L68.636 15.9079C68.7849 15.8259 68.9594 15.8039 69.1239 15.8463C69.2885 15.8886 69.4306 15.9922 69.5213 16.1359C69.6121 16.2796 69.6445 16.4524 69.612 16.6192C69.5796 16.786 69.4847 16.9341 69.3467 17.0332L64.7854 20.1732L69.7774 17.2919C69.9261 17.2118 70.0997 17.1911 70.2631 17.234C70.4265 17.277 70.5675 17.3804 70.6576 17.5233C70.7477 17.6662 70.7801 17.838 70.7484 18.004C70.7167 18.1699 70.6232 18.3176 70.4867 18.4172L66.5734 21.0986L71.6947 18.1412C71.8432 18.0556 72.0189 18.0305 72.1855 18.071C72.352 18.1116 72.4965 18.2147 72.589 18.359C72.6815 18.5034 72.7148 18.6777 72.6821 18.846C72.6494 19.0142 72.5532 19.1634 72.4134 19.2626L66.2254 23.6306L73.9787 19.1532C74.1263 19.068 74.301 19.0425 74.4669 19.082C74.6327 19.1216 74.7771 19.2232 74.8704 19.366C74.9636 19.5087 74.9986 19.6818 74.9681 19.8495C74.9377 20.0173 74.8441 20.167 74.7067 20.2679L62.2667 29.3946C62.3189 29.5412 62.3181 29.7014 62.2645 29.8476C62.2109 29.9937 62.1079 30.1164 61.9734 30.1946L58.1774 32.3866C58.0764 32.4464 57.9613 32.4781 57.844 32.4786Z" fill="#FFFAD5"/>
<path d="M33.3587 32.6147C33.2165 32.615 33.0779 32.5699 32.9631 32.4859C32.8484 32.4019 32.7635 32.2834 32.7209 32.1477C32.6783 32.012 32.6803 31.8663 32.7264 31.7317C32.7725 31.5972 32.8604 31.481 32.9773 31.4L42.7947 24.584L30.5533 31.6507C30.4029 31.7334 30.2264 31.7549 30.0605 31.7107C29.8946 31.6666 29.7522 31.5601 29.6628 31.4135C29.5735 31.2669 29.5441 31.0916 29.5808 30.9239C29.6176 30.7562 29.7176 30.6091 29.86 30.5133L29.9173 30.476L29.3627 30.796C29.2139 30.8814 29.0378 30.9061 28.8713 30.8651C28.7047 30.824 28.5603 30.7203 28.4683 30.5755C28.3762 30.4307 28.3435 30.256 28.377 30.0877C28.4105 29.9194 28.5075 29.7705 28.648 29.672L36.14 24.4533L27.74 29.3067C27.5903 29.3934 27.4127 29.4186 27.2447 29.3768C27.0768 29.335 26.9317 29.2296 26.8401 29.0827C26.7485 28.9359 26.7176 28.7592 26.7539 28.59C26.7902 28.4208 26.8909 28.2723 27.0347 28.176L29.2413 26.7L26.4653 28.3C26.3171 28.3846 26.142 28.4091 25.9762 28.3684C25.8104 28.3277 25.6665 28.225 25.5742 28.0814C25.4819 27.9378 25.4482 27.7643 25.48 27.5966C25.5119 27.4289 25.6068 27.2798 25.7453 27.18L30.6787 23.6707L24.2787 27.368C24.13 27.4511 23.9551 27.4741 23.7899 27.4323C23.6248 27.3905 23.4819 27.2871 23.3906 27.1432C23.2993 26.9994 23.2666 26.8261 23.2991 26.6589C23.3316 26.4916 23.4268 26.3432 23.5653 26.244L25.868 24.644L21.2013 27.3427C21.0483 27.4297 20.8671 27.4526 20.6972 27.4065C20.5273 27.3604 20.3825 27.2489 20.2945 27.0965C20.2065 26.944 20.1823 26.7629 20.2273 26.5927C20.2723 26.4225 20.3828 26.277 20.5347 26.188L39.1333 15.448C39.2824 15.3613 39.4592 15.3357 39.6267 15.3765C39.7942 15.4174 39.9394 15.5216 40.0317 15.6673C40.124 15.8129 40.1563 15.9887 40.1218 16.1576C40.0873 16.3265 39.9887 16.4756 39.8467 16.5733L37.5427 18.1733L42.2627 15.448C42.411 15.3634 42.586 15.3389 42.7518 15.3796C42.9176 15.4203 43.0615 15.523 43.1538 15.6666C43.2461 15.8102 43.2798 15.9837 43.248 16.1514C43.2161 16.3191 43.1212 16.4682 42.9827 16.568L38.0493 20.076L46.0667 15.4413C46.2167 15.3522 46.3956 15.3255 46.5651 15.3668C46.7346 15.4082 46.8811 15.5143 46.9733 15.6624C47.0654 15.8106 47.0958 15.9889 47.0579 16.1592C47.02 16.3295 46.9169 16.4782 46.7707 16.5733L44.5587 18.052L49.0827 15.44C49.2316 15.3516 49.4091 15.3246 49.5776 15.3647C49.746 15.4048 49.8923 15.509 49.9853 15.655C50.0784 15.8011 50.1109 15.9777 50.0761 16.1473C50.0413 16.317 49.9418 16.4664 49.7987 16.564L42.3013 21.7853L53.3 15.436C53.4509 15.3476 53.6304 15.322 53.8 15.3647C53.9696 15.4075 54.1156 15.5151 54.2065 15.6645C54.2974 15.8138 54.3261 15.9929 54.2862 16.1632C54.2463 16.3334 54.1411 16.4812 53.9933 16.5747L53.9613 16.5933L55.972 15.4333C56.1212 15.3426 56.3 15.314 56.47 15.3536C56.64 15.3933 56.7877 15.4981 56.8813 15.6455C56.9749 15.7928 57.007 15.9711 56.9706 16.1418C56.9342 16.3126 56.8322 16.4622 56.6867 16.5587L46.8667 23.3773L60.636 15.4293C60.7891 15.3423 60.9703 15.3194 61.1402 15.3655C61.3101 15.4116 61.4548 15.5231 61.5429 15.6755C61.6309 15.828 61.655 16.0091 61.61 16.1793C61.565 16.3495 61.4546 16.495 61.3027 16.584L33.692 32.5253C33.5905 32.5834 33.4756 32.6142 33.3587 32.6147Z" fill="#FFFAD5"/>
<path d="M21.012 17.0839C20.8657 17.0834 20.7236 17.0348 20.6076 16.9455C20.4917 16.8562 20.4083 16.7313 20.3704 16.59C20.3325 16.4486 20.3422 16.2988 20.3979 16.1634C20.4536 16.0281 20.5522 15.9149 20.6787 15.8412L21.3347 15.4626C21.4105 15.4143 21.4954 15.382 21.5841 15.3674C21.6728 15.3528 21.7636 15.3563 21.8509 15.3777C21.9383 15.3991 22.0204 15.4379 22.0923 15.4918C22.1642 15.5458 22.2245 15.6137 22.2695 15.6916C22.3145 15.7694 22.3433 15.8555 22.3541 15.9448C22.365 16.0341 22.3576 16.1246 22.3326 16.2109C22.3075 16.2973 22.2653 16.3777 22.2083 16.4473C22.1514 16.5169 22.081 16.5742 22.0013 16.6159L21.3453 16.9946C21.2441 17.0535 21.1291 17.0843 21.012 17.0839Z" fill="#FFFAD5"/>
<path d="M12.5733 32.484C12.4295 32.4839 12.2895 32.4373 12.1743 32.3511C12.0591 32.2649 11.9749 32.1437 11.9342 32.0057C11.8936 31.8677 11.8987 31.7202 11.9487 31.5853C11.9988 31.4505 12.0912 31.3354 12.212 31.2573L13.6627 30.324L10.1613 32.344C10.0109 32.4315 9.83215 32.4567 9.66336 32.4142C9.49457 32.3716 9.34911 32.2648 9.25804 32.1164C9.16698 31.9681 9.13755 31.79 9.17604 31.6203C9.21453 31.4505 9.31788 31.3026 9.46401 31.208L13.3667 28.6573L8.50134 31.4667C8.35265 31.5535 8.17611 31.5795 8.00871 31.5391C7.84131 31.4987 7.69603 31.3951 7.60331 31.2499C7.51059 31.1048 7.47762 30.9295 7.5113 30.7606C7.54499 30.5917 7.64271 30.4424 7.78401 30.344L16.7493 24.032L7.13334 29.588C6.9843 29.6709 6.80916 29.6935 6.64395 29.6512C6.47874 29.6089 6.33602 29.5049 6.24516 29.3605C6.1543 29.2162 6.1222 29.0426 6.15547 28.8753C6.18873 28.708 6.28484 28.5599 6.42401 28.4613L10.656 25.5733L6.71868 27.8467C6.5802 27.9268 6.41751 27.9545 6.2603 27.9247C6.1031 27.8949 5.96187 27.8095 5.8624 27.6841C5.76294 27.5588 5.71188 27.4018 5.71853 27.242C5.72519 27.0821 5.78913 26.93 5.89868 26.8133L8.29868 24.2427L7.68268 24.5973C7.6068 24.6456 7.52195 24.6779 7.43323 24.6925C7.34451 24.7071 7.25375 24.7036 7.16642 24.6822C7.07909 24.6608 6.99699 24.622 6.92505 24.5681C6.85312 24.5141 6.79284 24.4462 6.74785 24.3683C6.70285 24.2905 6.67407 24.2044 6.66322 24.1151C6.65238 24.0258 6.65971 23.9353 6.68476 23.849C6.70981 23.7626 6.75207 23.6822 6.809 23.6126C6.86592 23.543 6.93634 23.4857 7.01601 23.444L11.516 20.8453C11.6543 20.7661 11.8165 20.739 11.973 20.7691C12.1296 20.7991 12.2702 20.8843 12.3693 21.0091C12.4685 21.1339 12.5197 21.2901 12.5135 21.4494C12.5074 21.6087 12.4444 21.7605 12.336 21.8773L9.93334 24.4507L25.5093 15.4667C25.6583 15.3857 25.8325 15.3646 25.9964 15.4075C26.1604 15.4505 26.3019 15.5542 26.392 15.6977C26.4822 15.8413 26.5144 16.0137 26.4819 16.1801C26.4495 16.3465 26.3549 16.4942 26.2173 16.5933L21.988 19.4667L28.9387 15.4533C29.0874 15.3665 29.2639 15.3405 29.4313 15.3809C29.5987 15.4213 29.744 15.5249 29.8367 15.67C29.9294 15.8151 29.9624 15.9905 29.9287 16.1594C29.895 16.3283 29.7973 16.4775 29.656 16.576L20.6893 22.888L33.5733 15.4493C33.7234 15.3667 33.8995 15.345 34.0652 15.3887C34.2308 15.4324 34.3732 15.5383 34.4629 15.6842C34.5526 15.8302 34.5827 16.0051 34.5469 16.1726C34.5111 16.3401 34.4122 16.4874 34.2707 16.584L30.3587 19.1413L36.7587 15.4467C36.9088 15.3651 37.0846 15.3444 37.2496 15.3887C37.4146 15.433 37.5563 15.539 37.6455 15.6848C37.7346 15.8305 37.7644 16.005 37.7286 16.1721C37.6929 16.3391 37.5943 16.4861 37.4533 16.5827L17 29.7613C16.9833 29.8568 16.9457 29.9474 16.8899 30.0267C16.8342 30.106 16.7616 30.172 16.6773 30.22L12.9067 32.4C12.805 32.457 12.6899 32.486 12.5733 32.484Z" fill="#FFFAD5"/>
<path d="M40.816 71.2933C40.6723 71.2934 40.5324 71.247 40.4172 71.1611C40.302 71.0751 40.2177 70.9543 40.1767 70.8165C40.1358 70.6787 40.1405 70.5314 40.1901 70.3965C40.2397 70.2617 40.3316 70.1464 40.452 70.068L40.476 70.052L38.476 71.2027C38.3273 71.2858 38.1524 71.3088 37.9873 71.267C37.8221 71.2252 37.6792 71.1218 37.5879 70.9779C37.4967 70.8341 37.4639 70.6607 37.4964 70.4935C37.5289 70.3263 37.6242 70.1778 37.7627 70.0787L47.336 63.44L33.8947 71.2C33.7449 71.2815 33.5695 71.3025 33.4046 71.2587C33.2398 71.2148 33.098 71.1094 33.0085 70.9643C32.919 70.8191 32.8886 70.6451 32.9235 70.4781C32.9583 70.3111 33.0559 70.1639 33.196 70.0667L40.6787 65.168L30.7653 70.8933C30.616 70.9761 30.4405 70.9983 30.2752 70.9555C30.1099 70.9127 29.9673 70.8081 29.8769 70.6633C29.7864 70.5185 29.755 70.3444 29.7891 70.1771C29.8231 70.0098 29.9201 69.8619 30.06 69.764L44.8053 59.812L29.384 68.716C29.2333 68.8002 29.0559 68.8227 28.889 68.7788C28.722 68.7348 28.5787 68.6278 28.489 68.4803C28.3994 68.3328 28.3704 68.1563 28.4083 67.9878C28.4462 67.8194 28.5479 67.6723 28.692 67.5773L35.4533 63.2587L29.3733 66.7693C29.2232 66.8508 29.0474 66.8716 28.8824 66.8273C28.7174 66.783 28.5757 66.677 28.4866 66.5312C28.3974 66.3854 28.3677 66.211 28.4034 66.0439C28.4392 65.8768 28.5377 65.7299 28.6787 65.6333L38.796 59.0787L29.3733 64.5173C29.223 64.6013 29.0461 64.6239 28.8795 64.5803C28.7129 64.5368 28.5697 64.4304 28.4797 64.2836C28.3898 64.1368 28.3601 63.9609 28.3969 63.7927C28.4338 63.6245 28.5343 63.4771 28.6773 63.3813L39.336 56.456L29.3733 62.2067C29.2233 62.2893 29.0472 62.311 28.8815 62.2673C28.7159 62.2235 28.5735 62.1177 28.4838 61.9718C28.3941 61.8258 28.364 61.6509 28.3998 61.4834C28.4356 61.3159 28.5345 61.1685 28.676 61.072L39.8347 53.8013L29.3733 59.84C29.2224 59.9263 29.0437 59.9501 28.8754 59.9065C28.7071 59.863 28.5625 59.7553 28.4724 59.6066C28.3823 59.4579 28.3539 59.2799 28.3931 59.1105C28.4324 58.9412 28.5363 58.7939 28.6827 58.7L34.1867 55.192L29.3733 57.9707C29.2234 58.0545 29.0469 58.0773 28.8805 58.0341C28.7142 57.991 28.571 57.8853 28.4807 57.7392C28.3904 57.593 28.3601 57.4176 28.3959 57.2496C28.4318 57.0815 28.5312 56.9339 28.6733 56.8373L38.54 50.32L29.38 55.608C29.2299 55.695 29.0518 55.7201 28.8835 55.6779C28.7152 55.6357 28.57 55.5296 28.4787 55.3821C28.3874 55.2345 28.3572 55.0572 28.3946 54.8878C28.4319 54.7184 28.5338 54.5702 28.6787 54.4747L35.4 50.0107L29.3707 53.4907C29.2213 53.5734 29.0459 53.5957 28.8806 53.5529C28.7153 53.5101 28.5727 53.4055 28.4822 53.2606C28.3918 53.1158 28.3603 52.9418 28.3944 52.7744C28.4285 52.6071 28.5255 52.4593 28.6653 52.3613L33.652 49.0067L29.3733 51.4773C29.2264 51.5615 29.0529 51.5866 28.8881 51.5476C28.7234 51.5085 28.5796 51.4082 28.4861 51.267C28.3926 51.1258 28.3563 50.9543 28.3847 50.7873C28.413 50.6204 28.5038 50.4704 28.6387 50.368L36.152 44.6973L29.3733 48.6107C29.2296 48.6909 29.0613 48.7152 28.9008 48.6788C28.7403 48.6424 28.5989 48.5479 28.5039 48.4135C28.4088 48.279 28.3669 48.1142 28.3861 47.9508C28.4054 47.7873 28.4844 47.6367 28.608 47.528L34.008 42.916L29.3733 45.5907C29.2313 45.6729 29.064 45.6998 28.9034 45.6664C28.7427 45.6329 28.6001 45.5414 28.5027 45.4093C28.4054 45.2771 28.3604 45.1137 28.3761 44.9503C28.3919 44.787 28.4673 44.6352 28.588 44.524L31.0133 42.292L29.3733 43.2373C29.2435 43.3122 29.0922 43.341 28.9439 43.3193C28.7956 43.2975 28.6589 43.2265 28.556 43.1175C28.453 43.0086 28.3898 42.8681 28.3765 42.7188C28.3632 42.5695 28.4006 42.4201 28.4827 42.2947L29.5707 40.6347C29.4151 40.6707 29.2517 40.6496 29.1102 40.5753C28.9688 40.5011 28.8588 40.3784 28.8002 40.2299C28.7415 40.0813 28.7382 39.9166 28.7908 39.7657C28.8434 39.6149 28.9484 39.4879 29.0867 39.408L31.296 38.1333C31.4259 38.0585 31.5772 38.0296 31.7255 38.0514C31.8738 38.0731 32.0105 38.1442 32.1134 38.2531C32.2163 38.3621 32.2796 38.5025 32.2929 38.6518C32.3062 38.8011 32.2687 38.9506 32.1867 39.076L31.1333 40.6827L35.5547 38.1333C35.6967 38.052 35.8636 38.0258 36.0237 38.0596C36.1837 38.0934 36.3258 38.1848 36.4228 38.3166C36.5198 38.4484 36.565 38.6112 36.5497 38.7741C36.5344 38.937 36.4598 39.0886 36.34 39.2L33.9173 41.4307L39.6307 38.1333C39.7744 38.0531 39.9427 38.0288 40.1032 38.0652C40.2638 38.1016 40.4052 38.1961 40.5002 38.3305C40.5952 38.4649 40.6371 38.6297 40.6179 38.7932C40.5987 38.9567 40.5196 39.1073 40.396 39.216L35 43.8267L44.8667 38.1333C45.0136 38.0491 45.1871 38.024 45.3519 38.0631C45.5167 38.1022 45.6604 38.2025 45.7539 38.3437C45.8474 38.4849 45.8837 38.6564 45.8554 38.8233C45.827 38.9903 45.7362 39.1402 45.6013 39.2427L38.0893 44.9133L49.828 38.1333C49.9774 38.0506 50.1528 38.0283 50.3181 38.0711C50.4834 38.1139 50.626 38.2185 50.7165 38.3634C50.8069 38.5082 50.8384 38.6822 50.8043 38.8495C50.7702 39.0169 50.6732 39.1647 50.5334 39.2627L45.5453 42.6173L53.3147 38.1333C53.4645 38.0481 53.6416 38.0242 53.8086 38.0667C53.9757 38.1092 54.1198 38.2147 54.2107 38.3612C54.3016 38.5077 54.3323 38.6837 54.2962 38.8522C54.2602 39.0208 54.1602 39.1689 54.0174 39.2653L47.2893 43.7333L56.9813 38.1333C57.1311 38.0507 57.3068 38.0287 57.4723 38.072C57.6377 38.1153 57.7802 38.2205 57.8703 38.3658C57.9603 38.5112 57.9911 38.6857 57.9562 38.8531C57.9213 39.0205 57.8234 39.1681 57.6827 39.2653L47.8307 45.7733L59.8093 38.8587C59.96 38.7744 60.1375 38.7519 60.3044 38.7959C60.4713 38.8399 60.6147 38.9468 60.7043 39.0944C60.794 39.2419 60.8229 39.4184 60.7851 39.5868C60.7472 39.7552 60.6455 39.9024 60.5013 39.9973L55 43.504L60.5814 40.2827C60.7314 40.2 60.9075 40.1783 61.0732 40.222C61.2388 40.2658 61.3812 40.3716 61.4709 40.5176C61.5606 40.6635 61.5907 40.8384 61.5549 41.0059C61.5191 41.1735 61.4202 41.3208 61.2787 41.4173L50.1174 48.6907L60.6267 42.624C60.7766 42.5435 60.9517 42.5234 61.1159 42.5678C61.2802 42.6122 61.4213 42.7178 61.5102 42.8628C61.5992 43.0079 61.6294 43.1815 61.5945 43.348C61.5596 43.5146 61.4624 43.6615 61.3227 43.7587L50.664 50.692L60.6267 44.9333C60.7773 44.8476 60.9553 44.8239 61.123 44.8672C61.2908 44.9105 61.4351 45.0173 61.5254 45.1652C61.6157 45.3131 61.6449 45.4903 61.6068 45.6593C61.5687 45.8283 61.4664 45.9758 61.3214 46.0707L51.204 52.6253L60.6267 47.1867C60.7774 47.1024 60.9548 47.0799 61.1217 47.1239C61.2887 47.1679 61.432 47.2748 61.5217 47.4224C61.6113 47.5699 61.6403 47.7464 61.6024 47.9148C61.5645 48.0832 61.4628 48.2304 61.3187 48.3253L54.532 52.6573L60.6267 49.14C60.7761 49.0573 60.9515 49.035 61.1168 49.0778C61.2821 49.1206 61.4247 49.2252 61.5151 49.37C61.6056 49.5149 61.637 49.6889 61.603 49.8562C61.5689 50.0235 61.4719 50.1714 61.332 50.2693L46.5893 60.2187L60.6267 52.1147C60.7767 52.032 60.9529 52.0103 61.1185 52.054C61.2841 52.0978 61.4266 52.2036 61.5163 52.3496C61.606 52.4955 61.636 52.6704 61.6002 52.8379C61.5644 53.0055 61.4655 53.1528 61.324 53.2493L53.8347 58.152L60.6267 54.232C60.7757 54.1453 60.9526 54.1197 61.1201 54.1605C61.2876 54.2014 61.4327 54.3056 61.5251 54.4513C61.6174 54.5969 61.6497 54.7727 61.6152 54.9416C61.5807 55.1105 61.482 55.2596 61.34 55.3573L51.7654 62L60.6267 56.88C60.7772 56.7925 60.9559 56.7673 61.1247 56.8098C61.2935 56.8523 61.4389 56.9592 61.53 57.1075C61.621 57.2559 61.6505 57.4339 61.612 57.6037C61.5735 57.7735 61.4701 57.9214 61.324 58.016L60.8187 58.3453C60.9529 58.318 61.0921 58.3319 61.2183 58.3852C61.3444 58.4385 61.4514 58.5287 61.5254 58.644C61.6171 58.7907 61.6481 58.9673 61.6121 59.1364C61.576 59.3056 61.4756 59.4541 61.332 59.5507L59.9614 60.4747L60.628 60.0907C60.7754 60.0081 60.9486 59.9845 61.1127 60.0247C61.2768 60.065 61.4194 60.166 61.5119 60.3074C61.6044 60.4488 61.6397 60.62 61.6107 60.7864C61.5818 60.9529 61.4908 61.1021 61.356 61.204L57.5133 64.0307L60.628 62.2347C60.7744 62.1538 60.9457 62.1309 61.1082 62.1704C61.2706 62.21 61.4123 62.3091 61.505 62.4482C61.5978 62.5873 61.635 62.7562 61.6091 62.9213C61.5832 63.0865 61.4962 63.2359 61.3653 63.34L59.28 64.9333L60.6267 64.1573C60.7667 64.0795 60.9301 64.0547 61.087 64.0875C61.2438 64.1203 61.3836 64.2084 61.4807 64.3359C61.5778 64.4633 61.6258 64.6214 61.6159 64.7813C61.606 64.9412 61.5388 65.0922 61.4267 65.2067L59.1333 67.492L60.6227 66.6333C60.7558 66.5574 60.9111 66.5296 61.0623 66.5547C61.2135 66.5798 61.3514 66.6562 61.4528 66.7712C61.5543 66.8861 61.613 67.0324 61.6192 67.1856C61.6254 67.3387 61.5786 67.4893 61.4867 67.612L60.6707 68.6893C60.8074 68.7095 60.9345 68.7718 61.0344 68.8674C61.1342 68.963 61.2018 69.0873 61.2279 69.2231C61.254 69.3589 61.2372 69.4994 61.1799 69.6252C61.1226 69.751 61.0276 69.8559 60.908 69.9253L58.7014 71.2C58.5682 71.276 58.413 71.3037 58.2618 71.2786C58.1106 71.2535 57.9726 71.1771 57.8712 71.0622C57.7697 70.9473 57.711 70.8009 57.7048 70.6478C57.6987 70.4946 57.7455 70.344 57.8373 70.2213L58.4307 69.436L55.364 71.2027C55.224 71.2805 55.0606 71.3053 54.9037 71.2725C54.7469 71.2397 54.6071 71.1515 54.51 71.0241C54.4129 70.8967 54.3649 70.7386 54.3748 70.5787C54.3847 70.4188 54.4519 70.2678 54.564 70.1533L56.8667 67.8667L51.0987 71.2C50.9523 71.2809 50.781 71.3038 50.6185 71.2642C50.4561 71.2247 50.3144 71.1255 50.2217 70.9864C50.1289 70.8474 50.0917 70.6785 50.1176 70.5133C50.1435 70.3481 50.2305 70.1987 50.3613 70.0947L52.4494 68.4947L47.7547 71.2C47.6074 71.2809 47.435 71.3032 47.2719 71.2624C47.1089 71.2217 46.9673 71.1208 46.8754 70.9801C46.7836 70.8393 46.7482 70.6691 46.7765 70.5034C46.8048 70.3378 46.8947 70.1889 47.028 70.0867L50.8667 67.2653L44.044 71.2C43.8946 71.2827 43.7192 71.305 43.5539 71.2622C43.3886 71.2194 43.246 71.1148 43.1556 70.97C43.0651 70.8251 43.0337 70.6511 43.0677 70.4838C43.1018 70.3165 43.1988 70.1686 43.3387 70.0707L44.7147 69.1373L41.1493 71.2C41.0484 71.2599 40.9334 71.2921 40.816 71.2933Z" fill="#FFFAD5"/>
<path d="M39.8573 62.8C39.7189 62.8004 39.5839 62.7577 39.4708 62.6778C39.3578 62.5979 39.2724 62.4849 39.2265 62.3543C39.1807 62.2237 39.1766 62.0821 39.2148 61.9491C39.2531 61.8161 39.3318 61.6982 39.44 61.612L42.6614 59.0373L38.3853 61.5067C38.2391 61.5901 38.0666 61.6152 37.9026 61.5767C37.7387 61.5382 37.5953 61.4391 37.5014 61.2993C37.4075 61.1595 37.3701 60.9893 37.3965 60.823C37.423 60.6566 37.5114 60.5065 37.644 60.4027L40.7013 58.0413L37.368 59.9627C37.2204 60.0479 37.0457 60.0734 36.8798 60.0339C36.714 59.9943 36.5696 59.8927 36.4764 59.7499C36.3831 59.6072 36.3481 59.4341 36.3786 59.2664C36.409 59.0986 36.5026 58.9489 36.64 58.848L38.68 57.3547L37.368 58.1107C37.2241 58.1925 37.0549 58.2178 36.8934 58.1817C36.7318 58.1457 36.5894 58.0508 36.494 57.9156C36.3985 57.7804 36.3568 57.6145 36.3768 57.4501C36.3969 57.2858 36.4774 57.1349 36.6027 57.0267L41.8493 52.552L41.368 52.828C41.2345 52.9044 41.0787 52.9322 40.927 52.9068C40.7753 52.8814 40.6371 52.8044 40.5357 52.6887C40.4343 52.5731 40.376 52.4259 40.3707 52.2722C40.3655 52.1185 40.4135 51.9677 40.5067 51.8453L42.6894 49.0027L41.6094 49.6253C41.5335 49.6736 41.4486 49.7059 41.3599 49.7205C41.2712 49.7351 41.1804 49.7316 41.0931 49.7102C41.0058 49.6888 40.9237 49.65 40.8517 49.5961C40.7798 49.5421 40.7195 49.4742 40.6745 49.3963C40.6295 49.3185 40.6007 49.2324 40.5899 49.1431C40.5791 49.0538 40.5864 48.9633 40.6114 48.877C40.6365 48.7906 40.6787 48.7102 40.7357 48.6406C40.7926 48.571 40.863 48.5137 40.9427 48.472L44.9254 46.172C45.0589 46.0949 45.215 46.0664 45.3671 46.0915C45.5193 46.1166 45.658 46.1936 45.7597 46.3095C45.8615 46.4254 45.9199 46.5729 45.925 46.727C45.9302 46.8811 45.8818 47.0322 45.788 47.1547L43.6054 49.9973L47.4854 47.7573C47.6295 47.6738 47.7996 47.6473 47.9623 47.683C48.1249 47.7187 48.2684 47.8139 48.3643 47.95C48.4603 48.0861 48.5019 48.2532 48.4808 48.4184C48.4598 48.5836 48.3777 48.7349 48.2507 48.8427L43.0134 53.308L48.632 50.0653C48.7797 49.98 48.9544 49.9545 49.1202 49.9941C49.2861 50.0337 49.4304 50.1353 49.5237 50.278C49.6169 50.4208 49.6519 50.5938 49.6215 50.7616C49.591 50.9294 49.4975 51.0791 49.36 51.18L47.32 52.6733L48.64 51.912C48.7863 51.8285 48.9588 51.8035 49.1227 51.8419C49.2867 51.8804 49.43 51.9795 49.5239 52.1193C49.6178 52.2592 49.6553 52.4293 49.6289 52.5957C49.6024 52.762 49.514 52.9122 49.3813 53.016L46.3227 55.3773L49.648 53.4587C49.7935 53.3745 49.9655 53.3484 50.1294 53.3856C50.2933 53.4228 50.4371 53.5206 50.532 53.6593C50.6269 53.7981 50.6659 53.9675 50.6412 54.1338C50.6165 54.3001 50.5299 54.4509 50.3987 54.556L47.1773 57.1307L51.4534 54.6667C51.5917 54.5865 51.7542 54.5587 51.9113 54.5884C52.0684 54.6181 52.2097 54.7032 52.3092 54.8283C52.4088 54.9534 52.4601 55.1102 52.4537 55.2699C52.4474 55.4297 52.3838 55.5818 52.2747 55.6987L49.836 58.316L52.6267 56.7053C52.7687 56.6228 52.9361 56.5957 53.0969 56.6291C53.2577 56.6624 53.4006 56.754 53.498 56.8861C53.5955 57.0183 53.6408 57.1818 53.6251 57.3453C53.6095 57.5087 53.5341 57.6607 53.4134 57.772L52.6053 58.5173L52.628 58.5053C52.7804 58.4256 52.9576 58.4079 53.1228 58.4558C53.2879 58.5037 53.4282 58.6135 53.5142 58.7624C53.6003 58.9113 53.6255 59.0876 53.5846 59.2547C53.5436 59.4217 53.4398 59.5664 53.2947 59.6587L48.104 62.6547C47.962 62.7371 47.7946 62.7643 47.6338 62.7309C47.473 62.6976 47.3301 62.606 47.2327 62.4738C47.1352 62.3417 47.0899 62.1782 47.1056 62.0147C47.1212 61.8512 47.1966 61.6993 47.3174 61.588L48.1174 60.844L46.6414 61.696C46.503 61.7761 46.3405 61.8039 46.1834 61.7742C46.0263 61.7446 45.885 61.6594 45.7855 61.5343C45.6859 61.4092 45.6346 61.2525 45.641 61.0927C45.6473 60.933 45.7109 60.7808 45.82 60.664L48.2587 58.0453L40.1853 62.712C40.0854 62.7691 39.9724 62.7995 39.8573 62.8Z" fill="#FFD34E"/>
<path d="M40.572 63.22C40.4453 63.22 40.3213 63.1838 40.2144 63.1158C40.1075 63.0478 40.0222 62.9508 39.9685 62.8361C39.9148 62.7214 39.8949 62.5937 39.9111 62.4681C39.9273 62.3424 39.9789 62.224 40.06 62.1267L42.06 59.7267L38.668 61.6854C38.5307 61.7646 38.3697 61.7924 38.2139 61.7637C38.058 61.7349 37.9174 61.6516 37.8174 61.5287C37.7174 61.4057 37.6645 61.2511 37.6681 61.0927C37.6718 60.9342 37.7318 60.7823 37.8373 60.664L40.4013 57.792L37.3733 59.5387C37.2389 59.6159 37.0818 59.6438 36.9291 59.6178C36.7763 59.5917 36.6374 59.5132 36.5362 59.3957C36.435 59.2783 36.3779 59.1293 36.3747 58.9744C36.3715 58.8194 36.4224 58.6682 36.5187 58.5467L38.608 55.9174L37.6907 56.4507C37.6148 56.4989 37.5299 56.5313 37.4412 56.5459C37.3525 56.5605 37.2617 56.557 37.1744 56.5356C37.0871 56.5142 37.005 56.4754 36.933 56.4214C36.8611 56.3675 36.8008 56.2995 36.7558 56.2217C36.7108 56.1439 36.6821 56.0577 36.6712 55.9685C36.6604 55.8792 36.6677 55.7887 36.6927 55.7023C36.7178 55.616 36.7601 55.5356 36.817 55.466C36.8739 55.3964 36.9443 55.339 37.024 55.2974L40.9773 53.0147C41.1117 52.9367 41.2692 52.9081 41.4224 52.9339C41.5756 52.9597 41.7151 53.0382 41.8166 53.1558C41.9181 53.2735 41.9753 53.4229 41.9784 53.5782C41.9814 53.7336 41.9301 53.8851 41.8333 54.0067L39.744 56.636L43.3267 54.568C43.4638 54.4896 43.6243 54.4624 43.7795 54.4913C43.9348 54.5202 44.0748 54.6033 44.1745 54.7258C44.2743 54.8482 44.3273 55.0021 44.3242 55.16C44.321 55.318 44.2619 55.4696 44.1573 55.588L41.5947 58.4587L44.632 56.7054C44.7675 56.6281 44.9259 56.6007 45.0795 56.6282C45.2331 56.6556 45.3722 56.736 45.4726 56.8555C45.573 56.9749 45.6283 57.1258 45.6289 57.2818C45.6296 57.4378 45.5754 57.5891 45.476 57.7094L43.476 60.1094L44.64 59.4427C44.7159 59.3945 44.8007 59.3621 44.8894 59.3475C44.9782 59.3329 45.0689 59.3364 45.1563 59.3578C45.2436 59.3792 45.3257 59.418 45.3976 59.4719C45.4696 59.5259 45.5298 59.5938 45.5748 59.6717C45.6198 59.7495 45.6486 59.8357 45.6594 59.9249C45.6703 60.0142 45.663 60.1047 45.6379 60.191C45.6129 60.2774 45.5706 60.3578 45.5137 60.4274C45.4568 60.497 45.3863 60.5543 45.3067 60.596L40.9067 63.1414C40.8042 63.197 40.6886 63.2242 40.572 63.22Z" fill="#CE9A31"/>
<path d="M48.7333 63.2573C48.6008 63.2573 48.4712 63.2178 48.3612 63.1438C48.2512 63.0698 48.1658 62.9646 48.1159 62.8418C48.0659 62.719 48.0537 62.5841 48.0808 62.4544C48.1079 62.3246 48.1731 62.2059 48.268 62.1133L48.6587 61.7333L47.6213 62.332C47.4826 62.4122 47.3196 62.4398 47.1622 62.4096C47.0048 62.3795 46.8635 62.2936 46.7642 62.1678C46.6649 62.042 46.6143 61.8846 46.6216 61.7245C46.6289 61.5644 46.6937 61.4123 46.804 61.296L49.0707 58.912L45.5333 60.9547C45.3931 61.0335 45.2291 61.059 45.0716 61.0264C44.914 60.9939 44.7736 60.9054 44.6761 60.7774C44.5787 60.6494 44.5308 60.4905 44.5413 60.33C44.5518 60.1695 44.62 60.0182 44.7333 59.904L46.812 57.8453L45.3613 58.6827C45.2226 58.7629 45.0596 58.7904 44.9022 58.7603C44.7448 58.7301 44.6035 58.6443 44.5042 58.5185C44.4049 58.3926 44.3543 58.2352 44.3616 58.0751C44.3689 57.915 44.4337 57.7629 44.544 57.6467L45.6747 56.4547L45.3533 56.6387C45.2774 56.6869 45.1926 56.7193 45.1039 56.7339C45.0152 56.7485 44.9244 56.745 44.8371 56.7236C44.7497 56.7022 44.6676 56.6633 44.5957 56.6094C44.5238 56.5555 44.4635 56.4875 44.4185 56.4097C44.3735 56.3318 44.3447 56.2457 44.3339 56.1564C44.323 56.0672 44.3304 55.9766 44.3554 55.8903C44.3805 55.8039 44.4227 55.7236 44.4796 55.654C44.5366 55.5844 44.607 55.527 44.6867 55.4853L48.9733 53.0107C49.1119 52.9305 49.2748 52.9028 49.4321 52.9328C49.5894 52.9628 49.7306 53.0484 49.83 53.174C49.9294 53.2996 49.9802 53.4568 49.9732 53.6168C49.9663 53.7767 49.9019 53.9289 49.792 54.0453L48.6627 55.2373L50.62 54.108C50.7602 54.0291 50.9242 54.0036 51.0818 54.0362C51.2393 54.0688 51.3797 54.1572 51.4772 54.2852C51.5746 54.4132 51.6225 54.5721 51.612 54.7326C51.6015 54.8932 51.5333 55.0445 51.42 55.1587L49.3413 57.216L52.408 55.444C52.5467 55.3638 52.7097 55.3362 52.8672 55.3664C53.0246 55.3965 53.1658 55.4824 53.2651 55.6082C53.3644 55.734 53.415 55.8914 53.4077 56.0515C53.4004 56.2116 53.3356 56.3637 53.2253 56.48L50.9587 58.864L52.6227 57.9053C52.7634 57.8231 52.9294 57.7952 53.0892 57.827C53.2491 57.8588 53.3917 57.9481 53.4903 58.078C53.5888 58.2078 53.6363 58.3693 53.6238 58.5318C53.6114 58.6943 53.5398 58.8467 53.4227 58.96L52.74 59.6267C52.8844 59.6319 53.0232 59.684 53.1355 59.775C53.2478 59.866 53.3275 59.991 53.3625 60.1312C53.3976 60.2714 53.3861 60.4192 53.3299 60.5523C53.2736 60.6855 53.1756 60.7967 53.0507 60.8693L49.068 63.1693C48.9664 63.2283 48.8508 63.2587 48.7333 63.2573Z" fill="#DB9E36"/>
<path d="M46.7693 17.96C46.6322 17.96 46.4984 17.9177 46.3861 17.8388C46.2739 17.76 46.1887 17.6484 46.1422 17.5194C46.0957 17.3904 46.0901 17.2501 46.1262 17.1178C46.1623 16.9855 46.2384 16.8675 46.344 16.78L46.6493 16.5267L44.32 17.8667C44.178 17.948 44.0111 17.9742 43.851 17.9404C43.691 17.9066 43.5489 17.8151 43.4519 17.6834C43.3549 17.5516 43.3097 17.3888 43.325 17.2259C43.3403 17.063 43.4149 16.9114 43.5347 16.8L44.832 15.6L40.908 17.8667C40.7708 17.9451 40.6101 17.9721 40.4548 17.9431C40.2994 17.914 40.1595 17.8307 40.0598 17.708C39.9602 17.5853 39.9074 17.4312 39.9109 17.2732C39.9143 17.1152 39.9738 16.9636 40.0787 16.8453L41.9933 14.712L36.5333 17.8667C36.3953 17.9459 36.2335 17.9731 36.0771 17.9434C35.9207 17.9137 35.7801 17.829 35.6808 17.7047C35.5814 17.5803 35.5298 17.4245 35.5353 17.2655C35.5408 17.1064 35.603 16.9545 35.7107 16.8373L37.5773 14.8107L32.2893 17.8667C32.1447 17.9487 31.9745 17.9738 31.8124 17.9368C31.6502 17.8999 31.5077 17.8037 31.4128 17.667C31.318 17.5304 31.2776 17.3633 31.2996 17.1984C31.3217 17.0336 31.4046 16.8829 31.532 16.776L31.6933 16.6427L29.572 17.8667C29.4323 17.9426 29.2701 17.9661 29.1146 17.9329C28.9591 17.8997 28.8206 17.8121 28.724 17.6858C28.6275 17.5594 28.5792 17.4028 28.588 17.244C28.5968 17.0853 28.6621 16.9349 28.772 16.82L30.4653 15.1173L25.6947 17.8667C25.5529 17.9428 25.3884 17.965 25.2315 17.9293C25.0746 17.8935 24.9359 17.8023 24.841 17.6723C24.7461 17.5423 24.7015 17.3824 24.7152 17.2221C24.729 17.0618 24.8003 16.9119 24.916 16.8L25.9827 15.852L22.4733 17.8667C22.3402 17.9426 22.185 17.9704 22.0338 17.9453C21.8826 17.9202 21.7446 17.8437 21.6432 17.7288C21.5417 17.6139 21.483 17.4676 21.4768 17.3144C21.4707 17.1613 21.5175 17.0107 21.6093 16.888L23.596 14.26L19.212 16.7933C19.0878 16.8667 18.9431 16.8978 18.7998 16.8819C18.6564 16.866 18.522 16.8041 18.4168 16.7054C18.3116 16.6066 18.2413 16.4765 18.2164 16.3344C18.1915 16.1923 18.2133 16.046 18.2787 15.9173L19.3707 13.7293L19.0827 13.8947C18.9303 13.9744 18.7531 13.9921 18.5879 13.9442C18.4228 13.8963 18.2825 13.7864 18.1965 13.6376C18.1104 13.4887 18.0852 13.3124 18.1261 13.1453C18.167 12.9783 18.2709 12.8336 18.416 12.7413L20.6293 11.4667C20.7534 11.3937 20.8978 11.3628 21.0409 11.3787C21.184 11.3946 21.3182 11.4564 21.4232 11.5549C21.5283 11.6533 21.5986 11.7831 21.6238 11.9249C21.6489 12.0667 21.6275 12.2128 21.5627 12.3413L20.4667 14.5333L25.7813 11.4667C25.9145 11.3907 26.0697 11.3629 26.2209 11.388C26.3721 11.4132 26.5101 11.4896 26.6115 11.6045C26.7129 11.7194 26.7717 11.8658 26.7779 12.0189C26.784 12.1721 26.7372 12.3227 26.6453 12.4453L24.6573 15.0667L30.9067 11.4667C31.0484 11.3915 31.2125 11.37 31.3688 11.4061C31.5252 11.4422 31.6632 11.5334 31.7577 11.6631C31.8522 11.7927 31.8968 11.9521 31.8832 12.1119C31.8697 12.2718 31.799 12.4214 31.684 12.5333L30.6173 13.4813L34.1267 11.4667C34.2664 11.3908 34.4286 11.3673 34.5841 11.4004C34.7396 11.4336 34.8781 11.5213 34.9747 11.6476C35.0712 11.7739 35.1195 11.9306 35.1107 12.0893C35.1019 12.2481 35.0366 12.3985 34.9267 12.5133L33.2333 14.216L38.0053 11.4667C38.15 11.3859 38.3195 11.362 38.4808 11.3994C38.6422 11.4368 38.7838 11.5329 38.8782 11.669C38.9725 11.8051 39.0128 11.9715 38.9912 12.1357C38.9696 12.2999 38.8877 12.4502 38.7613 12.5573L38.604 12.6907L40.7213 11.4667C40.8594 11.3875 41.0212 11.3602 41.1776 11.39C41.334 11.4197 41.4745 11.5044 41.5739 11.6287C41.6733 11.753 41.7249 11.9088 41.7194 12.0679C41.7139 12.2269 41.6517 12.3788 41.544 12.496L39.6667 14.52L44.9667 11.4667C45.1039 11.3883 45.2645 11.3612 45.4199 11.3903C45.5753 11.4193 45.7152 11.5026 45.8149 11.6253C45.9145 11.748 45.9673 11.9021 45.9638 12.0601C45.9604 12.2181 45.9009 12.3698 45.796 12.488L43.88 14.6213L49.3467 11.4707C49.4887 11.3894 49.6556 11.3631 49.8157 11.3969C49.9757 11.4307 50.1178 11.5222 50.2148 11.6539C50.3118 11.7857 50.357 11.9485 50.3417 12.1114C50.3264 12.2743 50.2518 12.4259 50.132 12.5373L48.8347 13.7373L52.7587 11.4707C52.9032 11.3876 53.0737 11.3616 53.2364 11.398C53.3991 11.4344 53.5423 11.5304 53.6377 11.6672C53.7331 11.8039 53.7738 11.9714 53.7518 12.1367C53.7298 12.302 53.6466 12.453 53.5187 12.56L53.212 12.8133L55.5333 11.4667C55.668 11.3889 55.8256 11.3606 55.9789 11.3867C56.1322 11.4129 56.2716 11.4918 56.3729 11.6098C56.4741 11.7279 56.5309 11.8776 56.5335 12.0331C56.536 12.1886 56.4841 12.3401 56.3867 12.4613L54.3973 14.9333L60.3973 11.4667C60.5422 11.3842 60.7126 11.359 60.8751 11.3961C61.0376 11.4331 61.1804 11.5296 61.2752 11.6666C61.3701 11.8036 61.4102 11.9712 61.3876 12.1363C61.3651 12.3014 61.2815 12.4521 61.1534 12.5587L61.0307 12.6587L63.0974 11.4667C63.2353 11.3883 63.3965 11.3617 63.5523 11.3917C63.708 11.4216 63.848 11.506 63.9471 11.6298C64.0462 11.7536 64.0979 11.9087 64.0929 12.0672C64.088 12.2257 64.0267 12.3773 63.92 12.4947L62.0454 14.5253L67.3467 11.4667C67.4853 11.3874 67.6477 11.3605 67.8044 11.3909C67.9612 11.4212 68.1018 11.5068 68.2008 11.6321C68.2998 11.7574 68.3505 11.914 68.3437 12.0736C68.337 12.2331 68.2732 12.3849 68.164 12.5013L66.3334 14.436L70.3747 12.104C70.5061 12.0284 70.6594 11.9999 70.8092 12.0231C70.959 12.0464 71.0965 12.12 71.1988 12.2318C71.3012 12.3436 71.3624 12.487 71.3723 12.6383C71.3822 12.7896 71.3402 12.9398 71.2533 13.064L69.7494 15.208L71.2747 14.328C71.3506 14.2798 71.4354 14.2474 71.5241 14.2328C71.6129 14.2182 71.7036 14.2217 71.7909 14.2431C71.8783 14.2645 71.9604 14.3033 72.0323 14.3573C72.1042 14.4112 72.1645 14.4791 72.2095 14.557C72.2545 14.6348 72.2833 14.721 72.2941 14.8102C72.305 14.8995 72.2977 14.99 72.2726 15.0764C72.2475 15.1627 72.2053 15.2431 72.1484 15.3127C72.0914 15.3823 72.021 15.4397 71.9414 15.4813L67.8 17.8667C67.6687 17.9424 67.5155 17.9711 67.3657 17.9481C67.2159 17.925 67.0784 17.8516 66.9759 17.74C66.8734 17.6283 66.812 17.485 66.8018 17.3338C66.7917 17.1826 66.8334 17.0324 66.92 16.908L68.4254 14.764L63.0534 17.8667C62.9148 17.9459 62.7523 17.9728 62.5956 17.9425C62.4388 17.9121 62.2982 17.8265 62.1992 17.7012C62.1003 17.5759 62.0496 17.4193 62.0563 17.2598C62.0631 17.1003 62.1268 16.9485 62.236 16.832L64.0667 14.896L58.9133 17.8667C58.7754 17.9459 58.6137 17.9732 58.4575 17.9436C58.3012 17.9141 58.1606 17.8296 58.0611 17.7055C57.9617 17.5814 57.9098 17.4258 57.915 17.2669C57.9202 17.1079 57.982 16.956 58.0893 16.8387L59.964 14.808L54.6653 17.8667C54.5205 17.9491 54.35 17.9743 54.1876 17.9373C54.0251 17.9003 53.8823 17.8038 53.7875 17.6667C53.6926 17.5297 53.6525 17.3621 53.6751 17.197C53.6976 17.0319 53.7812 16.8812 53.9093 16.7747L54.0307 16.6747L51.9653 17.8667C51.8307 17.9445 51.6731 17.9728 51.5198 17.9466C51.3665 17.9205 51.2271 17.8416 51.1258 17.7235C51.0246 17.6055 50.9678 17.4558 50.9652 17.3003C50.9627 17.1448 51.0146 16.9933 51.112 16.872L53.1027 14.404L47.1027 17.8707C47.0015 17.9296 46.8864 17.9604 46.7693 17.96Z" fill="#BF6B04"/>
<path d="M10.7853 32.6934L10.7147 32.548C10.945 32.5824 11.1797 32.5733 11.4067 32.5214L11.0333 32.6974C11.3067 32.6894 11.5667 32.6627 11.8253 32.6334C7.13332 47.1014 8.56799 65.392 17.9733 77.608C29.8093 82.008 44.1133 78.196 56.7733 79.4107C62.8413 79.0547 70.9933 81.344 74.176 74.5214C77.6495 68.1613 79.7991 61.1637 80.4953 53.9504C81.1915 46.7372 80.4197 39.4577 78.2267 32.5507C78.4362 32.6247 78.6615 32.6421 78.88 32.6014L78.7973 32.6974C84.784 32.3774 86.9 24.464 81.212 21.8467C77.8067 20.2814 74.3627 18.7974 70.9307 17.2894C71.5202 16.9859 71.9977 16.5027 72.2941 15.9097C72.5906 15.3166 72.6904 14.6446 72.5793 13.991C72.4682 13.3374 72.1519 12.7361 71.6761 12.2743C71.2004 11.8126 70.59 11.5143 69.9333 11.4227C70.0813 -0.762639 64.5467 0.53336 54.648 0.828027C45.2667 0.826693 35.8693 0.65336 26.4893 0.826693C20.4733 0.636027 20.5627 7.13336 20.108 11.5294C17.332 12.0387 16.2733 16.1227 18.94 17.4534C14.684 19.9667 8.39466 20.5334 5.75599 25.0147C5.42727 25.8514 5.30383 26.7546 5.39603 27.6488C5.48823 28.543 5.79337 29.402 6.2859 30.154C6.77843 30.906 7.44399 31.529 8.22684 31.9708C9.00968 32.4126 9.88701 32.6604 10.7853 32.6934ZM74.1587 70.6934C72.768 74.0707 70.6467 78.38 66.344 77.928C55.5467 77.9334 44.7489 77.9334 33.9507 77.928C28.328 77.368 20.3987 80.1734 17.4933 73.7027C14.0897 67.3752 12.0196 60.4171 11.4109 53.258C10.8023 46.099 11.668 38.8913 13.9547 32.08C27.4933 19.692 25.976 37.3414 37.9547 31.4267C39.9427 30.1494 41.2787 27.884 43.7453 27.456C46.608 26.96 48.44 28.552 50.412 30.328C62.6787 39.3867 62.0387 19.0787 76.0387 32.2694C80.3095 44.8511 79.6374 58.586 74.1587 70.6907V70.6934ZM22.7253 5.76269C20.7173 -1.99997 56.496 3.28003 63.0373 1.83736C68.0707 1.75603 67.264 7.83736 67.9213 11.3267C52.6244 11.3267 37.3284 11.3191 22.0333 11.304L22.7253 5.76269ZM25 12.6734C28.6787 13.9 80.1107 9.20669 69.2667 16.628C53.7831 16.6485 38.296 16.6511 22.8053 16.636C21.3653 16.7334 19.576 16.5774 19.3387 14.84C18.916 11.9134 23.288 12.6734 25 12.6734ZM21.1987 18.0067L21.132 18.0374L21.1933 18.0067H21.1987ZM8.89599 23.5294C23.524 14.3894 41.3467 19.096 57.7773 18.0294C63.94 15.9894 93.3187 23.896 79.0133 31.2947C71.0587 28.9907 69.044 21.1067 60.1547 29.9854C52.5333 35.3587 47.7547 19.9307 39.1613 28.46C34.4307 33.936 30.1547 30.0974 25.7987 26.6214C20.1467 23.6414 16.7187 29.7107 12.1187 31.2534C8.10266 31.828 5.38666 26.0254 8.89599 23.5294Z" fill="#592B02"/>
<path d="M58.104 37.9561C49.4027 37.9427 40.6933 37.8827 31.9933 37.9561C27.6173 37.9361 27.8173 42.5507 28.0213 45.7547C29.3787 51.5227 24.5013 70.6587 31.5853 71.3801C40.5813 71.5801 49.644 71.4734 58.6293 71.3174C63.2587 70.6121 61.7467 65.1081 61.9787 61.7614C60.556 56.0081 65.72 38.4801 58.104 37.9561ZM60.0213 67.7187C59.98 72.6081 39.108 68.8321 34.4213 69.9574C31.196 70.5734 29.368 69.1081 29.976 65.7401C30.1093 57.5987 29.7373 49.4187 29.976 41.2934C30.8773 37.5734 36.348 40.0667 39.1653 39.3774C69.0853 38.6801 58.1347 37.6001 60.0213 67.7187Z" fill="#592B02"/>
<path d="M53.0547 54.9987C52.0293 54.3107 50.9987 53.6307 49.972 52.944C50.92 49.104 47.456 44.984 43.6547 46.6587C40.788 47.98 39.4467 49.916 40.0347 53.116C31.2667 56.6294 38.176 67.4507 44.876 61.224C49.008 66.3054 57.0973 59.9387 53.0547 54.9987ZM41.9587 51.832C42.0813 50.8694 41.6573 49.6987 42.2453 48.8707C42.7787 48.4787 43.9787 47.7347 44.7387 47.216C45.9512 47.5821 46.9732 48.4066 47.5875 49.5143C48.2017 50.622 48.3597 51.9256 48.028 53.148L45.164 55.0667L41.964 52.9334C41.9653 52.56 41.9667 52.1987 41.9653 51.832H41.9587ZM41.5587 61.6987C41.4272 61.795 41.2905 61.884 41.1493 61.9654C36.932 60.052 36.5173 56.3467 40.8427 54.276L44.0027 56.3814C44.0147 57.6107 44.0187 58.8334 44.0027 60.0627L41.5587 61.6987ZM51.8853 60.14C51.0613 60.836 50.0267 61.3173 49.168 61.976C48.0627 61.344 47.0347 60.564 45.968 59.8787C45.968 58.644 45.968 57.4094 45.968 56.1747L48.8427 54.2667C51.4773 55.556 52.7333 57.176 51.8973 60.1427L51.8853 60.14Z" fill="#592B02"/>
</g>
<defs>
<clipPath id="clip0_124_27936">
<rect width="80" height="80" fill="white" transform="translate(5)"/>
</clipPath>
</defs>
</svg>
