<svg width="48" height="49" viewBox="0 0 48 49" fill="none" xmlns="http://www.w3.org/2000/svg">
<path d="M22.4583 46.2067C12.8913 45.1468 5.79112 38.2725 6.59959 30.8525C7.40807 23.4325 15.8191 18.2767 25.386 19.3366C34.953 20.3966 42.0532 27.2709 41.2447 34.6909C40.4363 42.1108 32.0253 47.2667 22.4583 46.2067Z" fill="#FFD34E"/>
<path d="M9.16642 24.9474C8.9767 32.0282 15.8866 38.4154 25.0797 39.4329C31.8064 40.1786 37.9574 37.848 41.2992 33.8217C41.2906 34.1109 41.2755 34.4 41.2453 34.6892C40.4368 42.1091 32.0263 47.2637 22.4581 46.205C12.892 45.144 5.79014 38.272 6.59864 30.852C6.83795 28.6497 7.75209 26.6475 9.16426 24.9474H9.16642Z" fill="#F0B900"/>
<path d="M12.0806 29.1889C11.9642 30.252 12.7252 31.2086 13.7795 31.326C14.8295 31.4412 15.7824 30.6759 15.8988 29.6129C16.0153 28.5498 15.2477 27.5932 14.1999 27.4758C13.1457 27.3584 12.197 28.1258 12.0806 29.1889Z" fill="#592B02"/>
<path d="M3.70591 12.9184C5.3768 13.1032 6.58199 14.6185 6.39873 16.3034C6.39442 16.3338 6.38149 16.3577 6.37718 16.3882C8.25288 17.5926 9.80304 19.0579 10.9888 20.7884C12.4463 19.8231 14.0934 19.0405 15.8829 18.473C14.5764 17.4947 13.52 16.2012 12.8042 14.6707C11.6529 12.2097 11.5149 9.44868 12.4247 6.8855C14.2961 1.5961 20.0914 -1.17143 25.3369 0.722147C27.3851 1.45914 29.1012 2.8266 30.2957 4.61365C32.3762 2.62877 35.2717 1.54175 38.3332 1.8809C43.8654 2.49398 47.8777 7.53119 47.2697 13.1163C46.6984 18.3622 42.257 22.245 37.1344 22.1885C40.8794 25.1495 43.1971 29.191 43.2359 33.4955L44.0918 34.026L45.0857 34.6413C45.5083 34.9 45.4522 35.4217 44.9822 35.5826L43.8784 35.9652L42.9297 36.2957C41.8474 41.0242 37.9968 44.7983 32.8311 46.7158C32.8246 46.7266 32.8225 46.7397 32.816 46.7462L32.7858 46.7375C29.6338 47.9006 26.0031 48.3767 22.2086 47.955C11.5731 46.7767 3.65417 39.0023 4.56831 30.628C4.92189 27.38 6.55396 24.519 9.03766 22.2906C8.03297 20.8036 6.70273 19.5296 5.08143 18.4861C4.50147 18.8883 3.79215 19.097 3.04187 19.0122C1.37098 18.8274 0.165787 17.3121 0.349045 15.6338C0.532304 13.9489 2.03503 12.7336 3.70591 12.9184ZM40.7263 34.6347C41.1403 30.8345 39.2861 27.1735 36.0284 24.4473C36.5674 30.9932 35.871 37.3936 33.9328 43.5591C37.7058 41.6112 40.3102 38.4393 40.7263 34.6326V34.6347ZM36.3949 19.6709C40.584 20.1362 44.3678 17.0751 44.8291 12.851C45.2905 8.62689 42.2549 4.81148 38.0658 4.34624C35.4808 4.05927 33.0575 5.1115 31.4685 6.95072C31.13 7.34205 30.8239 7.77033 30.563 8.23122C30.0714 9.10953 29.7416 10.1009 29.6251 11.164L28.8598 18.1861C29.1724 18.2643 29.4785 18.347 29.7825 18.4383C30.5005 18.6557 31.2012 18.8948 31.8825 19.1687L36.3949 19.6688V19.6709ZM23.002 45.5418C25.0933 45.7244 27.1177 45.6114 29.0085 45.2418L28.8188 45.17C31.7272 37.6871 32.5896 29.7671 31.3823 21.6341C31.3521 21.6189 31.3241 21.608 31.2939 21.5928C30.5436 21.2797 29.7588 21.0058 28.9503 20.7732C28.5622 20.6558 28.1655 20.5558 27.7559 20.4601C27.2385 20.3405 26.7124 20.2449 26.1713 20.1601C26.0311 20.1383 25.891 20.1231 25.7465 20.1014C25.8047 20.4818 25.8414 20.8645 25.8931 21.2449C25.9492 21.6993 25.9966 22.158 26.0397 22.6124C26.7857 30.4323 25.7702 38.1175 22.9976 45.5396L23.002 45.5418ZM26.4429 17.7034L27.1846 10.8966C27.3549 9.33563 27.881 7.90512 28.6528 6.65288C27.7861 5.03758 26.3545 3.7223 24.5068 3.05705C23.9312 2.85052 23.3534 2.7179 22.767 2.65268C19.3325 2.27223 15.9454 4.30059 14.7338 7.72467C13.3173 11.7249 15.3892 16.149 19.3562 17.5795L19.5653 17.6534C21.4712 17.3904 23.4741 17.3578 25.5158 17.5839C25.8263 17.6187 26.1368 17.66 26.4408 17.7056L26.4429 17.7034ZM7.00672 30.8976C6.34915 36.924 11.3791 42.6047 18.6943 44.7396C21.6954 37.074 22.6527 29.0953 21.5359 20.9862C21.4863 20.6449 21.4324 20.2971 21.3764 19.9536C20.6735 19.9949 19.9814 20.0731 19.3088 20.184C12.6964 21.2754 7.60177 25.4343 7.00672 30.8954V30.8976Z" fill="#592B02"/>
<path d="M19.3569 17.5769L19.566 17.6508C21.4719 17.3878 23.4749 17.3552 25.5166 17.5813C25.827 17.616 26.1375 17.6573 26.4415 17.703L27.1831 10.8961C27.3535 9.33519 27.8795 7.90468 28.6514 6.65244C27.7847 5.03714 26.3531 3.72186 24.5054 3.05661C23.9298 2.85007 23.352 2.71746 22.7655 2.65224C19.3311 2.27178 15.944 4.30015 14.7323 7.72423C13.3159 11.7244 15.3878 16.1486 19.3548 17.5791L19.3569 17.5769Z" fill="#CEEAF2"/>
<path d="M29.623 11.1639L28.8576 18.186C29.1702 18.2642 29.4763 18.3469 29.7803 18.4382C30.4983 18.6556 31.199 18.8947 31.8803 19.1686L36.3927 19.6687C40.5818 20.1339 44.3656 17.0729 44.8269 12.8488C45.2883 8.62462 42.2527 4.80921 38.0636 4.34397C35.4786 4.057 33.0553 5.10923 31.4663 6.94845C31.1278 7.33978 30.8217 7.76806 30.5608 8.22895C30.0692 9.10726 29.7394 10.0986 29.623 11.1617V11.1639Z" fill="#CEEAF2"/>
<path d="M38.2466 7.14399C37.533 8.12447 38.0159 9.70499 39.3268 10.6724C40.6355 11.642 42.2762 11.6333 42.9898 10.6529C43.7034 9.67237 43.2205 8.09186 41.9096 7.12442C40.601 6.15481 38.9603 6.1635 38.2466 7.14399Z" fill="white"/>
<path d="M22.0637 4.7071C21.4083 5.60715 21.8524 7.0594 23.0555 7.95074C24.2585 8.84209 25.7656 8.8334 26.421 7.93118C27.0764 7.03113 26.6323 5.57889 25.4292 4.68754C24.2262 3.79619 22.7192 3.80488 22.0637 4.7071Z" fill="white"/>
</svg>
