<svg width="135" height="75" viewBox="0 0 135 75" fill="none" xmlns="http://www.w3.org/2000/svg">
<g clip-path="url(#clip0_145_28235)">
<g clip-path="url(#clip1_145_28235)">
<path d="M123.288 38.0252C130.889 34.808 135.044 27.4627 132.569 21.6189C130.093 15.7752 121.924 13.646 114.323 16.8632C106.722 20.0804 102.567 27.4258 105.042 33.2695C107.518 39.1132 115.687 41.2425 123.288 38.0252Z" fill="#FFD34E"/>
<path d="M129.016 17.4308C130.901 23.1493 126.783 30.0525 119.481 33.1446C114.137 35.4068 108.516 35.0243 104.786 32.5679C104.864 32.8008 104.947 33.0318 105.043 33.261C107.519 39.1052 115.688 41.2325 123.288 38.0147C130.89 34.7969 135.043 27.452 132.567 21.6078C131.831 19.8723 130.592 18.4677 129.016 17.4308Z" fill="#F0B900"/>
<path d="M127.657 21.6005C128.012 22.4378 127.622 23.4044 126.783 23.7593C125.949 24.1123 124.978 23.7223 124.623 22.8851C124.268 22.0478 124.664 21.0793 125.498 20.7263C126.335 20.3714 127.302 20.7633 127.657 21.6005Z" fill="#592B02"/>
<path d="M130.564 6.2896C129.236 6.85146 128.617 8.38181 129.179 9.70885C129.19 9.73288 129.207 9.74767 129.218 9.77169C127.972 11.2133 127.056 12.788 126.503 14.4903C125.07 14.0633 123.526 13.8304 121.918 13.8101C122.752 12.6919 123.304 11.3778 123.519 9.95652C123.865 7.66839 123.303 5.38765 121.931 3.52277C119.102 -0.323429 113.663 -1.15144 109.819 1.68192C108.316 2.78717 107.24 4.32121 106.696 6.0715C104.503 4.96625 101.857 4.79437 99.4253 5.82569C95.03 7.68687 92.9646 12.7769 94.8285 17.1739C96.5796 21.3048 101.176 23.3748 105.37 22.0681C103.016 25.4005 102.099 29.2615 103.12 32.7768L102.547 33.42L101.879 34.1649C101.594 34.4791 101.77 34.8912 102.193 34.906L103.194 34.9448L104.054 34.9799C106.099 38.5637 110.181 40.691 114.895 40.9812C114.904 40.9886 114.908 40.9978 114.915 41.0015L114.937 40.9867C117.811 41.1586 120.91 40.6522 123.924 39.3751C132.374 35.7969 136.98 27.5186 134.186 20.9222C133.103 18.3642 131.063 16.4365 128.478 15.2333C128.941 13.775 129.723 12.411 130.799 11.1616C131.374 11.3464 132.006 11.3409 132.602 11.0895C133.929 10.5276 134.549 8.99728 133.989 7.67393C133.426 6.34689 131.895 5.72773 130.568 6.2896H130.564ZM105.453 33.0855C104.185 30.0932 104.815 26.6554 106.825 23.6335C107.981 29.097 110.117 34.139 113.214 38.682C109.638 38.0258 106.724 36.0833 105.453 33.0855ZM105.359 19.8335C102.031 21.2419 98.1753 19.682 96.7645 16.3551C95.3555 13.0283 96.9161 9.17471 100.244 7.7645C102.299 6.89397 104.545 7.15458 106.302 8.26168C106.676 8.49825 107.032 8.76994 107.358 9.0823C107.976 9.67743 108.49 10.4019 108.845 11.2411L111.187 16.7729C110.949 16.9133 110.72 17.0575 110.49 17.2053C109.954 17.5584 109.436 17.9262 108.944 18.3161L105.359 19.8335ZM122.679 37.6063C121.006 38.2698 119.316 38.6764 117.67 38.8409L117.809 38.7374C113.593 33.359 110.949 27.1212 109.956 20.2032C109.976 20.1829 109.998 20.1681 110.019 20.1478C110.559 19.7079 111.136 19.292 111.744 18.9039C112.034 18.7117 112.336 18.5342 112.648 18.355C113.044 18.1295 113.454 17.9225 113.876 17.721C113.985 17.6693 114.096 17.6212 114.211 17.5676C114.257 17.891 114.318 18.2126 114.37 18.5342C114.434 18.9187 114.507 19.305 114.582 19.6838C115.879 26.2359 118.589 32.2445 122.679 37.6063ZM113.055 15.7822L110.782 10.4204C110.261 9.1895 109.481 8.15633 108.54 7.32646C108.858 5.79796 109.712 4.37481 111.067 3.37861C111.491 3.0681 111.933 2.81859 112.399 2.62083C115.126 1.46567 118.404 2.2826 120.237 4.77404C122.378 7.68318 121.755 11.7974 118.844 13.9376L118.691 14.0485C117.062 14.3036 115.409 14.7694 113.785 15.4569C113.538 15.5623 113.294 15.6713 113.055 15.784V15.7822ZM132.245 21.7446C134.257 26.4909 131.511 32.3536 126.023 35.8948C121.685 30.3907 118.952 24.1289 117.889 17.2497C117.846 16.9595 117.805 16.662 117.766 16.3699C118.353 16.2295 118.942 16.1241 119.521 16.0502C125.22 15.3109 130.422 17.4456 132.243 21.7446H132.245Z" fill="#592B02"/>
<path d="M118.845 13.9358L118.691 14.0467C117.062 14.3017 115.409 14.7675 113.785 15.455C113.538 15.5604 113.294 15.6694 113.055 15.7822L110.782 10.4204C110.261 9.18947 109.481 8.1563 108.54 7.32644C108.858 5.79794 109.712 4.37479 111.067 3.37858C111.491 3.06808 111.933 2.81857 112.399 2.6208C115.126 1.46565 118.404 2.28257 120.237 4.77401C122.378 7.68315 121.755 11.7973 118.845 13.9376V13.9358Z" fill="#CEEAF2"/>
<path d="M108.845 11.2411L111.187 16.7729C110.949 16.9133 110.72 17.0575 110.49 17.2053C109.954 17.5584 109.436 17.9262 108.944 18.3161L105.359 19.8336C102.031 21.2419 98.1753 19.682 96.7645 16.3552C95.3554 13.0283 96.9161 9.17472 100.244 7.7645C102.299 6.89398 104.545 7.15458 106.302 8.26168C106.676 8.49826 107.032 8.76995 107.358 9.0823C107.975 9.67744 108.49 10.402 108.845 11.2411Z" fill="#CEEAF2"/>
<path d="M100.777 10.0896C101.602 10.7125 101.591 12.1172 100.751 13.2298C99.9116 14.3406 98.5617 14.738 97.7371 14.1151C96.9124 13.4923 96.9235 12.0876 97.7629 10.9749C98.6024 9.86414 99.9523 9.46677 100.777 10.0896Z" fill="white"/>
<path d="M113.461 7.01131C114.232 5.99052 114.242 4.69933 113.484 4.12736C112.726 3.55539 111.487 3.91924 110.716 4.94003C109.945 5.96082 109.935 7.252 110.693 7.82397C111.451 8.39594 112.69 8.0321 113.461 7.01131Z" fill="white"/>
<path d="M17.8343 70.8377C17.9785 71.0891 17.8916 71.4107 17.6383 71.5549C16.8598 71.9984 16.0573 72.4088 15.2511 72.7729C15.1808 72.8043 15.1069 72.8191 15.0347 72.8191C14.835 72.8191 14.6427 72.7045 14.554 72.5086C14.4338 72.2443 14.554 71.9319 14.8184 71.8118C15.5932 71.4625 16.3679 71.0688 17.1168 70.64C17.3701 70.4958 17.69 70.5827 17.8343 70.8359V70.8377ZM12.1964 62.1288C11.4623 61.676 10.7467 61.1881 10.0681 60.6724C9.83695 60.4968 9.50597 60.543 9.3303 60.774C9.15464 61.0051 9.19902 61.3359 9.432 61.5115C10.1365 62.0456 10.8817 62.5558 11.6454 63.0252C11.7304 63.0788 11.8266 63.1028 11.9209 63.1028C12.0984 63.1028 12.2704 63.0141 12.3702 62.8533C12.5218 62.6057 12.446 62.2822 12.1982 62.1288H12.1964ZM4.73162 55.1369C4.56705 54.8966 4.23976 54.8356 3.99937 55.0001C3.75899 55.1646 3.69797 55.4918 3.86254 55.7302C4.3618 56.4584 4.91652 57.1737 5.50823 57.8557C5.61178 57.9758 5.75786 58.0368 5.90579 58.0368C6.02783 58.0368 6.15172 57.9943 6.25157 57.9074C6.47161 57.717 6.4938 57.3844 6.30334 57.1644C5.73752 56.5138 5.20868 55.83 4.72977 55.135L4.73162 55.1369ZM19.2784 65.195C18.855 65.0786 18.4352 64.9529 18.0173 64.8199C17.6161 64.6905 17.2185 64.55 16.8228 64.4022C16.551 64.2987 16.2478 64.4373 16.1442 64.709C16.0407 64.9807 16.1793 65.2838 16.4512 65.3873C16.8635 65.5425 17.2777 65.6885 17.6956 65.8216C18.1283 65.9621 18.5628 66.0914 19.001 66.2116C19.0473 66.2245 19.0953 66.2301 19.1416 66.2301C19.3727 66.2301 19.5854 66.0767 19.6482 65.8438C19.7259 65.5647 19.5613 65.2745 19.2803 65.1969L19.2784 65.195ZM31.1681 52.1058C30.8833 52.0448 30.6041 52.2278 30.5449 52.5124C30.3693 53.3441 30.1474 54.1813 29.8848 55.0001C29.796 55.2774 29.9495 55.5731 30.225 55.6618C30.2786 55.6784 30.3323 55.6877 30.3859 55.6877C30.6078 55.6877 30.8149 55.5454 30.887 55.3217C31.1607 54.4678 31.3918 53.5955 31.5749 52.7305C31.634 52.4458 31.4528 52.1668 31.1681 52.1076V52.1058ZM28.559 59.5209C28.3038 59.3805 27.9839 59.4729 27.8452 59.7279C27.4329 60.4765 26.9799 61.2158 26.4973 61.9292C26.3345 62.1695 26.3974 62.4966 26.6378 62.6593C26.7284 62.7202 26.8301 62.7498 26.9318 62.7498C27.1001 62.7498 27.2665 62.6685 27.3682 62.5188C27.8693 61.7795 28.3389 61.0125 28.7679 60.2362C28.9085 59.9811 28.816 59.6614 28.5608 59.5209H28.559ZM19.5003 28.572C18.6183 28.3133 17.7178 28.1396 16.8247 28.0508C16.5362 28.0287 16.2773 28.2338 16.2496 28.5221C16.2219 28.8105 16.4327 29.0692 16.723 29.0969C17.5495 29.1783 18.3853 29.3409 19.2044 29.5812C19.2544 29.596 19.3043 29.6015 19.3524 29.6015C19.5798 29.6015 19.7906 29.4518 19.8572 29.2226C19.9385 28.9435 19.7795 28.6515 19.5003 28.5702V28.572ZM30.2786 40.1883C30.3397 40.1883 30.4007 40.1772 30.4599 40.155C30.7317 40.0552 30.8722 39.7521 30.7724 39.4804C30.458 38.6265 30.0882 37.7966 29.6721 37.0148C29.5353 36.7579 29.2173 36.6618 28.9602 36.7967C28.7032 36.9335 28.6071 37.2514 28.7439 37.5083C29.1378 38.2476 29.4891 39.0331 29.7849 39.8427C29.8626 40.0552 30.0642 40.1864 30.2786 40.1864V40.1883ZM26.9466 66.2689C26.0849 66.2559 25.2158 66.2079 24.3634 66.1266C24.2765 66.1192 24.1914 66.1321 24.1156 66.1617C24.0934 66.0711 24.0454 65.9843 23.9732 65.9122C23.7662 65.7089 23.4333 65.7107 23.2299 65.9196C22.629 66.5313 21.9929 67.1228 21.3401 67.6791C21.1183 67.8676 21.0924 68.1985 21.2791 68.4202C21.3827 68.5422 21.5306 68.6051 21.6804 68.6051C21.8006 68.6051 21.9226 68.5644 22.0206 68.4794C22.6382 67.9545 23.2429 67.3982 23.8161 66.8215C23.8808 67.01 24.0509 67.1523 24.2617 67.1727C25.1419 67.2577 26.0405 67.3076 26.9318 67.3205H26.9392C27.2258 67.3205 27.4606 67.0895 27.4662 66.803C27.4699 66.5129 27.2387 66.2726 26.9484 66.2689H26.9466ZM9.9405 73.4456C9.77408 73.4826 9.60767 73.5177 9.4394 73.5528C8.77373 73.6877 8.08771 73.7968 7.4017 73.8763C7.11324 73.9095 6.90615 74.1701 6.93943 74.4585C6.97086 74.7265 7.1983 74.9242 7.46087 74.9242C7.48121 74.9242 7.50155 74.9242 7.52189 74.9205C8.23749 74.8374 8.95309 74.7246 9.6465 74.5841C9.82216 74.549 9.99598 74.5121 10.1698 74.4732C10.4527 74.4104 10.6321 74.1295 10.5692 73.8448C10.5063 73.5621 10.2253 73.3828 9.9405 73.4456ZM25.7077 33.4403C25.8094 33.5401 25.9425 33.59 26.0757 33.59C26.2088 33.59 26.3493 33.5364 26.451 33.4311C26.6544 33.2241 26.6507 32.8896 26.4436 32.6881C25.7983 32.056 25.0975 31.4719 24.3634 30.9507C24.1267 30.7807 23.7976 30.838 23.6293 31.0746C23.4611 31.3112 23.5165 31.6401 23.7532 31.8083C24.4429 32.2981 25.0993 32.847 25.7077 33.4403ZM2.25383 73.952C1.4051 73.8818 0.545275 73.7672 -0.305306 73.6157C-0.590066 73.5639 -0.865581 73.7543 -0.915506 74.0408C-0.967281 74.3272 -0.776824 74.6008 -0.490215 74.6507C0.391801 74.8096 1.28491 74.9261 2.16693 75C2.18172 75 2.19651 75.0018 2.21131 75.0018C2.48127 75.0018 2.71241 74.7948 2.7346 74.5195C2.75864 74.2311 2.54414 73.9761 2.25383 73.952ZM61.0124 26.4946C61.0752 26.7293 61.2879 26.8846 61.5209 26.8846C61.5653 26.8846 61.6115 26.8791 61.6577 26.8661C61.9388 26.7903 62.1052 26.5039 62.0294 26.2229C61.7834 25.3025 61.4691 24.4412 61.0956 23.6631C60.9698 23.4007 60.6555 23.2898 60.3929 23.4154C60.1304 23.5411 60.0194 23.8553 60.1452 24.1159C60.4909 24.8367 60.7812 25.6352 61.0105 26.4928L61.0124 26.4946ZM1.06672 47.7328C0.781959 47.792 0.598899 48.071 0.65807 48.3557C0.839281 49.2281 1.08891 50.1023 1.39586 50.9543C1.47352 51.1687 1.67507 51.3018 1.89141 51.3018C1.95058 51.3018 2.0116 51.2925 2.07077 51.2704C2.34444 51.1724 2.48497 50.8711 2.38697 50.5976C2.09666 49.7918 1.86183 48.9656 1.68986 48.1413C1.63069 47.8567 1.35148 47.6755 1.06672 47.7347V47.7328ZM9.18238 30.7271C9.26928 30.7271 9.35989 30.7049 9.44125 30.6587C10.1846 30.2373 10.9612 29.8935 11.7452 29.6366C12.0207 29.5461 12.1724 29.2485 12.0799 28.9731C11.9893 28.6977 11.6916 28.548 11.4161 28.6386C10.5655 28.9177 9.72601 29.291 8.92165 29.7457C8.66833 29.888 8.57957 30.2096 8.72195 30.4628C8.81811 30.6347 8.99747 30.7308 9.18053 30.7308L9.18238 30.7271ZM-14.081 66.9435C-14.2974 66.7494 -14.6302 66.7698 -14.8244 66.9879C-15.0167 67.2041 -14.9982 67.5368 -14.78 67.7308C-14.1162 68.3204 -13.4154 68.886 -12.6961 69.4127C-12.6018 69.4811 -12.4927 69.5144 -12.3854 69.5144C-12.2227 69.5144 -12.0637 69.4405 -11.9601 69.3C-11.7882 69.0653 -11.8399 68.7363 -12.0729 68.5644C-12.7663 68.0561 -13.4412 67.5109 -14.081 66.9435ZM0.878112 43.5391C0.900301 43.541 0.92064 43.5428 0.94098 43.5428C1.20355 43.5428 1.43099 43.3469 1.46242 43.0789C1.56227 42.2454 1.73054 41.4063 1.95983 40.5801C2.03749 40.301 1.87477 40.0108 1.59371 39.9332C1.3145 39.8537 1.02419 40.0182 0.944678 40.2992C0.700598 41.1752 0.521238 42.0679 0.415839 42.9551C0.380707 43.2434 0.587804 43.5059 0.876262 43.541L0.878112 43.5391ZM-5.27936 72.2387C-6.08371 71.9356 -6.88252 71.5918 -7.65359 71.2203C-7.91616 71.0947 -8.23051 71.2037 -8.35625 71.4643C-8.48198 71.7249 -8.37289 72.041 -8.11217 72.1666C-7.31336 72.5529 -6.48497 72.9078 -5.65288 73.222C-5.59186 73.246 -5.52899 73.2553 -5.46797 73.2553C-5.25532 73.2553 -5.05562 73.1259 -4.97611 72.9152C-4.87256 72.6435 -5.01124 72.3404 -5.28306 72.2369L-5.27936 72.2387ZM-19.0236 61.0347C-19.1734 60.7851 -19.497 60.7057 -19.7466 60.8554C-19.9963 61.0051 -20.0758 61.3285 -19.926 61.578C-19.4674 62.3377 -18.9608 63.0862 -18.4208 63.7996C-18.3173 63.9364 -18.1601 64.0085 -18.0011 64.0085C-17.8902 64.0085 -17.7792 63.9734 -17.6849 63.9013C-17.4538 63.7257 -17.4075 63.3967 -17.5814 63.1638C-18.0991 62.4781 -18.5854 61.761 -19.0255 61.0328L-19.0236 61.0347ZM4.02896 35.9318C4.48754 35.2073 4.99789 34.5197 5.54706 33.8858C5.73752 33.6658 5.71348 33.335 5.49529 33.1428C5.27525 32.9524 4.94426 32.9764 4.7538 33.1964C4.16949 33.8691 3.62586 34.601 3.13955 35.3699C2.98423 35.6157 3.05819 35.941 3.30412 36.0963C3.39102 36.1517 3.48903 36.1776 3.58518 36.1776C3.75899 36.1776 3.93096 36.0907 4.03081 35.9318H4.02896ZM61.225 38.8594C60.9421 38.7855 60.6573 38.961 60.5889 39.2438C60.3837 40.0774 60.147 40.9183 59.8826 41.739C59.7938 42.0162 59.9473 42.3119 60.2228 42.4006C60.2764 42.4173 60.3301 42.4265 60.3837 42.4265C60.6056 42.4265 60.8127 42.2842 60.8848 42.0606C61.1548 41.2159 61.3988 40.3528 61.6096 39.4952C61.6799 39.2124 61.5061 38.9278 61.225 38.8594ZM62.1588 31.0413H62.157C61.8667 31.0413 61.6318 31.2742 61.63 31.5644C61.6281 32.0301 61.6096 32.4977 61.5782 32.9561C61.5505 33.3498 61.5172 33.7434 61.4765 34.1371C61.4469 34.4254 61.6577 34.6842 61.9462 34.7138C61.9647 34.7138 61.9831 34.7156 61.9998 34.7156C62.2661 34.7156 62.4953 34.5142 62.5231 34.2425C62.5638 33.8377 62.5989 33.4329 62.6285 33.0282C62.6618 32.5458 62.6803 32.0541 62.6821 31.5681C62.6821 31.2779 62.4491 31.0413 62.1588 31.0395V31.0413ZM60.5575 43.5927C60.3596 43.5391 60.1618 43.4837 59.9639 43.4246C59.3168 43.236 58.6844 43.0346 58.0797 42.822C57.8061 42.7241 57.5047 42.8701 57.4085 43.1455C57.3123 43.419 57.4566 43.7203 57.7321 43.8145C58.3534 44.0326 59.0043 44.2396 59.6681 44.4337C59.8715 44.4928 60.0749 44.5501 60.2783 44.6074C60.3245 44.6204 60.3707 44.6259 60.417 44.6259C60.6481 44.6259 60.8608 44.4725 60.9236 44.2378C60.9994 43.9587 60.8349 43.6685 60.5557 43.5909L60.5575 43.5927ZM68.2238 44.9678C67.3603 44.8921 66.4912 44.7904 65.6425 44.6647C65.354 44.6222 65.0878 44.82 65.0452 45.1083C65.0027 45.3948 65.2006 45.6628 65.489 45.7053C66.3599 45.8347 67.2494 45.9382 68.1332 46.0158C68.148 46.0158 68.1647 46.0176 68.1795 46.0176C68.4494 46.0176 68.6787 45.8106 68.7027 45.5371C68.7286 45.2488 68.5141 44.9919 68.2238 44.9678ZM91.0379 41.0292C90.2502 41.3878 89.444 41.7279 88.6415 42.0402C88.3697 42.1456 88.2365 42.4505 88.3419 42.7204C88.4233 42.9292 88.6211 43.0549 88.8319 43.0549C88.8948 43.0549 88.9595 43.0438 89.0224 43.0198C89.8434 42.7 90.6681 42.3526 91.4743 41.9866C91.7387 41.8665 91.8552 41.5541 91.735 41.2898C91.6148 41.0255 91.3023 40.9091 91.0379 41.0292ZM98.5378 37.3069C98.3714 37.0684 98.0441 37.0093 97.8056 37.1756C97.1011 37.6654 96.3688 38.1423 95.6292 38.5951C95.3814 38.7466 95.3019 39.0701 95.4535 39.3178C95.5534 39.4804 95.7253 39.5691 95.9029 39.5691C95.9953 39.5691 96.0915 39.5451 96.1765 39.4915C96.9346 39.0294 97.6854 38.5396 98.4065 38.0388C98.6451 37.8724 98.7042 37.5453 98.5378 37.3069ZM76.0159 44.9678C75.1561 45.0418 74.2833 45.0917 73.4198 45.1176C73.1295 45.1268 72.9002 45.3689 72.9094 45.6591C72.9168 45.9456 73.1517 46.1711 73.4346 46.1711H73.4494C74.3332 46.1452 75.2263 46.0934 76.1065 46.0176C76.3968 45.9918 76.6113 45.7386 76.5854 45.4484C76.5595 45.1582 76.3044 44.9401 76.0159 44.9697V44.9678ZM58.6696 46.3097C58.407 46.184 58.0927 46.2949 57.9669 46.5573C57.5953 47.3336 57.1903 48.108 56.7669 48.8566C56.6226 49.1098 56.7114 49.4295 56.9647 49.5737C57.0461 49.6199 57.1367 49.6421 57.2236 49.6421C57.4067 49.6421 57.5842 49.5459 57.6822 49.3759C58.1185 48.607 58.5327 47.8123 58.9155 47.012C59.0412 46.7496 58.9303 46.4353 58.6677 46.3097H58.6696ZM83.6952 43.6408C82.8557 43.8607 82.0032 44.0585 81.1619 44.2285C80.8772 44.2858 80.6922 44.5631 80.7496 44.8477C80.7995 45.0972 81.0195 45.2691 81.2655 45.2691C81.3006 45.2691 81.3357 45.2654 81.3709 45.258C82.2325 45.0843 83.1053 44.8828 83.9633 44.6573C84.2443 44.5834 84.4126 44.2969 84.3386 44.016C84.2647 43.7351 83.9781 43.5687 83.697 43.6408H83.6952ZM32.1314 47.4001C32.1314 46.5 32.0815 45.5962 31.9854 44.7165C31.9539 44.4282 31.6951 44.2212 31.4047 44.2507C31.1163 44.2821 30.9073 44.5427 30.9388 44.8311C31.0312 45.672 31.0793 46.537 31.0793 47.3983C31.0793 47.6885 31.316 47.925 31.6063 47.925C31.8966 47.925 32.1333 47.6885 32.1314 47.3983V47.4001ZM47.2422 36.5158C47.3457 36.5158 47.4511 36.4844 47.5436 36.4216C47.7821 36.2552 47.8395 35.9281 47.6749 35.6896C47.1904 34.9947 46.767 34.2554 46.4175 33.4921C46.2973 33.2278 45.9848 33.1113 45.7204 33.2333C45.456 33.3535 45.3395 33.6658 45.4615 33.9301C45.8369 34.7507 46.2918 35.5455 46.8132 36.2922C46.9149 36.4382 47.0795 36.5177 47.2459 36.5177L47.2422 36.5158ZM41.9797 62.918C41.2105 63.2914 40.4117 63.6388 39.6073 63.9549C39.3373 64.0621 39.2024 64.367 39.3096 64.6369C39.391 64.8439 39.5888 64.9714 39.7996 64.9714C39.8643 64.9714 39.929 64.9603 39.9919 64.9363C40.8222 64.611 41.6469 64.2524 42.4401 63.868C42.7008 63.7405 42.8118 63.4263 42.6842 63.1657C42.5585 62.9032 42.2423 62.796 41.9815 62.9217L41.9797 62.918ZM57.2273 20.5045C57.4066 20.5045 57.5805 20.4139 57.6785 20.2494C57.8282 19.9999 57.7469 19.6764 57.4973 19.5286C56.9943 19.2273 56.4525 18.9815 55.8885 18.7948C55.5557 18.6858 55.2118 18.5989 54.8697 18.5398C54.5831 18.4917 54.3113 18.6821 54.2613 18.9686C54.2114 19.255 54.4037 19.5267 54.6903 19.5766C54.9825 19.6284 55.2765 19.7005 55.5613 19.7947C56.0513 19.9555 56.5209 20.1699 56.9573 20.4305C57.0424 20.4804 57.1348 20.5045 57.2273 20.5045ZM34.6554 65.4667C33.816 65.6553 32.958 65.8124 32.1074 65.9343C31.8189 65.975 31.6211 66.243 31.6618 66.5295C31.6988 66.7919 31.9243 66.9805 32.1814 66.9805C32.2073 66.9805 32.2313 66.9805 32.2572 66.9749C33.1336 66.8492 34.0175 66.6866 34.8847 66.4925C35.1676 66.4297 35.347 66.1487 35.2841 65.8641C35.2213 65.5813 34.9402 65.4021 34.6554 65.4667ZM45.5152 26.1398C45.5817 25.857 45.4061 25.5742 45.1231 25.5077C44.8402 25.443 44.5573 25.6167 44.4908 25.8995C44.3003 26.709 44.2041 27.5555 44.2041 28.4149V28.6386C44.2115 28.9251 44.4464 29.1542 44.733 29.1542H44.7441C45.0344 29.1487 45.2655 28.9084 45.26 28.6183V28.4168C45.2581 27.6368 45.345 26.8717 45.517 26.1398H45.5152ZM53.9008 53.1722C53.3738 53.8561 52.8154 54.5251 52.244 55.1646C52.0498 55.3809 52.0683 55.7135 52.2847 55.9076C52.3845 55.9982 52.5103 56.0425 52.636 56.0425C52.7802 56.0425 52.9245 55.9834 53.028 55.8669C53.616 55.2108 54.1911 54.5196 54.7347 53.8172C54.9122 53.5881 54.8697 53.2572 54.6404 53.0798C54.4111 52.9024 54.0801 52.9449 53.9026 53.1741L53.9008 53.1722ZM48.5088 58.7465C48.1557 59.0348 47.7988 59.3176 47.4345 59.593C47.1091 59.8388 46.7799 60.0773 46.4471 60.3083C46.2086 60.4746 46.1494 60.8018 46.3158 61.0402C46.4175 61.1862 46.5821 61.2657 46.7485 61.2657C46.852 61.2657 46.9574 61.2343 47.048 61.1714C47.3938 60.9311 47.7341 60.6853 48.0687 60.4321C48.4441 60.1493 48.8139 59.8573 49.1782 59.5579C49.4019 59.3731 49.4352 59.0422 49.2503 58.8186C49.0654 58.595 48.7344 58.5617 48.5088 58.7465ZM53.1131 41.6909C53.2961 41.6909 53.4736 41.5966 53.5698 41.4266C53.714 41.1752 53.6271 40.8536 53.3756 40.7076C52.612 40.2696 51.8908 39.7964 51.2307 39.3011C50.9977 39.1274 50.6686 39.1736 50.4947 39.4065C50.3209 39.6393 50.3672 39.9683 50.6001 40.1439C51.2954 40.6651 52.0517 41.1623 52.8523 41.6207C52.9355 41.6687 53.0243 41.6909 53.1131 41.6909ZM49.4463 19.5064C48.6364 19.9407 47.8838 20.4897 47.2126 21.1384C47.0037 21.3399 46.9963 21.6725 47.1997 21.8814C47.3032 21.9886 47.4401 22.0422 47.5787 22.0422C47.7174 22.0422 47.8413 21.9941 47.943 21.8943C48.5458 21.314 49.2189 20.8224 49.9456 20.4324C50.2007 20.2956 50.2969 19.9759 50.1601 19.7208C50.0232 19.4639 49.7033 19.3678 49.4482 19.5064H49.4463Z" fill="#592B02"/>
</g>
</g>
<defs>
<clipPath id="clip0_145_28235">
<rect width="135" height="75" fill="white"/>
</clipPath>
<clipPath id="clip1_145_28235">
<rect width="155" height="75" fill="white" transform="translate(-20)"/>
</clipPath>
</defs>
</svg>
