<svg width="155" height="65" viewBox="0 0 155 65" fill="none" xmlns="http://www.w3.org/2000/svg">
<g clip-path="url(#clip0_24_25524)">
<path d="M145.415 33.8928C146.651 27.186 140.552 20.4515 131.791 18.851C123.03 17.2505 114.925 21.39 113.688 28.0969C112.452 34.8037 118.551 41.5382 127.312 43.1387C136.073 44.7392 144.178 40.5997 145.415 33.8928Z" fill="#FFD34E"/>
<path d="M144.684 28.0414C142.988 34.2875 135.181 38.0526 126.763 36.5144C120.603 35.3893 115.764 31.7251 113.86 27.3198C113.792 27.5739 113.729 27.8319 113.68 28.0938C112.445 34.8015 118.545 41.5345 127.304 43.1348C136.064 44.7351 144.169 40.5937 145.405 33.8879C145.771 31.8958 145.488 29.9036 144.684 28.0434V28.0414Z" fill="#F0B900"/>
<path d="M140.985 30.9821C140.807 31.9442 139.881 32.5785 138.915 32.402C137.954 32.2274 137.311 31.3041 137.488 30.342C137.666 29.3798 138.597 28.7455 139.558 28.9221C140.525 29.0986 141.162 30.02 140.985 30.9821Z" fill="#592B02"/>
<path d="M152.691 18.9554C151.161 18.6761 149.694 19.6848 149.413 21.2075C149.407 21.2346 149.415 21.2599 149.409 21.287C147.429 21.8457 145.669 22.7186 144.161 23.9193C143.124 22.6895 141.869 21.5702 140.431 20.6003C141.848 20.0882 143.124 19.2367 144.161 18.0864C145.829 16.2358 146.679 13.8577 146.546 11.3748C146.277 6.2518 141.869 2.29853 136.723 2.5701C134.711 2.67485 132.831 3.41584 131.303 4.667C129.982 2.38 127.7 0.66524 124.895 0.153139C119.831 -0.772135 114.947 2.57786 114.015 7.62516C113.142 12.3679 116.058 16.938 120.614 18.2416C116.514 19.8438 113.396 22.7671 112.228 26.5244L111.33 26.763L110.285 27.0385C109.843 27.1529 109.755 27.6262 110.13 27.8881L111.006 28.5146L111.761 29.0539C111.476 33.4785 113.895 37.7984 117.969 40.8419C117.973 40.8535 117.969 40.8652 117.975 40.871H118.005C120.493 42.7216 123.588 44.0969 127.061 44.7312C136.8 46.5099 145.866 41.7982 147.262 34.2273C147.803 31.2924 147.108 28.3556 145.492 25.7504C146.774 24.7146 148.289 23.9503 150 23.4654C150.409 23.9717 150.982 24.3402 151.668 24.4663C153.197 24.7456 154.665 23.7389 154.946 22.22C155.226 20.6973 154.215 19.2367 152.683 18.9573L152.691 18.9554ZM114.154 28.181C114.787 24.7456 117.395 22.0319 121 20.5072C118.798 26.0918 117.732 31.8801 117.827 37.7868C114.994 35.0866 113.52 31.6221 114.154 28.181ZM121.933 16.23C118.096 15.5298 115.547 11.8519 116.251 8.03251C116.954 4.21309 120.649 1.67586 124.486 2.37612C126.854 2.80869 128.725 4.36828 129.65 6.39922C129.847 6.83179 130.007 7.2857 130.116 7.75901C130.321 8.65906 130.352 9.61149 130.175 10.5736L129.005 16.9225C128.707 16.9089 128.415 16.9012 128.121 16.8992C127.429 16.8992 126.743 16.9225 126.067 16.9846L121.933 16.23ZM126.996 42.4092C125.094 42.0155 123.329 41.3831 121.748 40.5606L121.935 40.549C121.327 33.2322 122.647 26.0724 125.856 19.2755C125.885 19.2696 125.915 19.2696 125.946 19.2638C126.692 19.1882 127.462 19.1552 128.238 19.1649C128.614 19.1649 128.99 19.1824 129.38 19.2056C129.871 19.2386 130.362 19.2929 130.863 19.3608C130.991 19.3783 131.12 19.4015 131.256 19.4209C131.106 19.7391 130.97 20.065 130.826 20.3831C130.656 20.7652 130.492 21.1551 130.334 21.5411C127.614 28.1868 126.493 35.1816 126.996 42.4112V42.4092ZM131.274 17.1378L132.408 10.9849C132.669 9.5727 132.577 8.18382 132.223 6.88223C133.417 5.69896 135.031 4.92499 136.843 4.82994C137.409 4.80084 137.956 4.8377 138.492 4.93469C141.635 5.50886 144.106 8.178 144.28 11.497C144.483 15.3726 141.481 18.6974 137.588 18.8991L137.383 18.9088C135.764 18.1756 133.996 17.617 132.125 17.2756C131.841 17.2232 131.554 17.1766 131.274 17.1378ZM145.032 33.8199C144.028 39.2687 138.075 42.9097 131.026 42.8457C130.383 35.3446 131.634 28.1092 134.76 21.3064C134.895 21.0213 135.033 20.7303 135.173 20.4451C135.785 20.6663 136.38 20.9185 136.947 21.1939C142.522 23.896 145.944 28.8812 145.034 33.818L145.032 33.8199Z" fill="#592B02"/>
<path d="M137.587 18.8992L137.383 18.9089C135.763 18.1757 133.996 17.617 132.125 17.2756C131.841 17.2232 131.554 17.1767 131.273 17.1379L132.408 10.9849C132.669 9.57276 132.577 8.18388 132.223 6.88229C133.417 5.69902 135.031 4.92505 136.843 4.83C137.408 4.80091 137.956 4.83776 138.492 4.93475C141.635 5.50893 144.106 8.17806 144.28 11.497C144.482 15.3727 141.481 18.6975 137.587 18.8992Z" fill="#CEEAF2"/>
<path d="M130.176 10.5754L129.006 16.9243C128.708 16.9107 128.416 16.903 128.121 16.901C127.43 16.901 126.744 16.9243 126.067 16.9864L121.934 16.2318C118.097 15.5316 115.548 11.8537 116.252 8.03431C116.955 4.21489 120.65 1.67766 124.487 2.37792C126.855 2.81049 128.726 4.37007 129.651 6.40102C129.848 6.83359 130.008 7.2875 130.117 7.7608C130.322 8.66086 130.353 9.61329 130.176 10.5754Z" fill="#CEEAF2"/>
<path d="M123.586 4.77769C123.96 5.82323 123.116 7.07827 121.699 7.58067C120.283 8.08307 118.833 7.6408 118.457 6.59526C118.08 5.54972 118.926 4.29469 120.343 3.79229C121.76 3.28988 123.21 3.73215 123.586 4.77769Z" fill="white"/>
<path d="M136.846 9.50703C138.146 9.04595 138.922 7.89248 138.578 6.93068C138.234 5.96888 136.9 5.56296 135.6 6.02404C134.299 6.48511 133.523 7.63858 133.867 8.60038C134.211 9.56218 135.545 9.9681 136.846 9.50703Z" fill="white"/>
<path d="M20.0766 14.6103C20.1974 14.8916 20.0668 15.2155 19.7842 15.3338C18.9619 15.683 18.1784 16.1117 17.4535 16.6063C17.358 16.6723 17.2489 16.7033 17.1398 16.7033C16.9624 16.7033 16.789 16.6199 16.6818 16.4628C16.5083 16.2106 16.5727 15.8673 16.826 15.6946C17.6114 15.1593 18.4591 14.6957 19.3477 14.3174C19.6303 14.1971 19.9557 14.329 20.0766 14.6084V14.6103ZM18.5877 51.7512C18.6345 51.4506 18.4279 51.1674 18.1258 51.1208C17.6854 51.0529 17.243 50.9714 16.8026 50.8783C16.7714 50.8357 16.7403 50.793 16.711 50.7522C16.5317 50.5059 16.1849 50.4496 15.9374 50.6281C15.9198 50.6417 15.9023 50.6553 15.8867 50.6688C15.7483 50.6339 15.61 50.599 15.4716 50.5621C15.1754 50.4865 14.8714 50.6591 14.7934 50.954C14.7155 51.2488 14.8909 51.5514 15.1871 51.629C15.5086 51.7144 15.8341 51.7939 16.1595 51.8676C16.6038 52.4593 17.0696 53.0431 17.549 53.6037C17.6581 53.7317 17.816 53.7996 17.9719 53.7996C18.0986 53.7996 18.2252 53.757 18.3305 53.6677C18.5643 53.4718 18.5935 53.1227 18.3948 52.8899C18.1979 52.659 18.0031 52.4243 17.8121 52.1857C17.8608 52.1935 17.9076 52.2013 17.9563 52.209C18.2583 52.2556 18.5429 52.05 18.5896 51.7493L18.5877 51.7512ZM12.7102 43.6565C12.5933 43.3753 12.2678 43.2434 11.9852 43.3598C11.7027 43.4781 11.5702 43.8001 11.6871 44.0813C12.0476 44.9387 12.4452 45.7942 12.8719 46.6225C12.9694 46.8126 13.1643 46.9231 13.3669 46.9231C13.4527 46.9231 13.5384 46.9037 13.6203 46.863C13.8931 46.7253 14.0003 46.3916 13.8619 46.1201C13.4488 45.317 13.061 44.4868 12.7121 43.6565H12.7102ZM31.5509 62.2551C30.711 61.9448 29.8692 61.5898 29.0487 61.196C28.7739 61.0641 28.4407 61.1805 28.3082 61.454C28.1757 61.7294 28.2926 62.0592 28.5674 62.1911C29.419 62.5985 30.292 62.969 31.1651 63.289C31.2294 63.3123 31.2937 63.3239 31.358 63.3239C31.5841 63.3239 31.7945 63.1862 31.8783 62.9631C31.9836 62.678 31.8374 62.3599 31.5509 62.2551ZM26.223 51.0665C25.346 51.2217 24.4418 51.3303 23.5356 51.3846C23.2297 51.4021 22.9978 51.6659 23.0153 51.9685C23.0328 52.2614 23.2784 52.4864 23.5688 52.4864C23.5805 52.4864 23.5921 52.4864 23.6038 52.4864C24.5548 52.4282 25.5019 52.3157 26.4198 52.1528C26.7219 52.0984 26.9226 51.8114 26.868 51.5126C26.8135 51.212 26.529 51.0141 26.2249 51.0665H26.223ZM33.7492 48.2111C33.5835 48.3159 33.4159 48.4167 33.2464 48.5157C32.6442 48.8668 32.0148 49.1927 31.3756 49.4836C31.0969 49.6097 30.9741 49.9375 31.1008 50.2149C31.1943 50.4186 31.395 50.5389 31.6055 50.5389C31.6815 50.5389 31.7595 50.5233 31.8355 50.4884C32.5117 50.1819 33.1762 49.8405 33.8096 49.4681C33.9889 49.3634 34.1662 49.2567 34.3396 49.1461C34.5988 48.9832 34.6768 48.6437 34.5131 48.3857C34.3494 48.1277 34.0083 48.0501 33.7492 48.2131V48.2111ZM27.7742 13.1438C27.135 13.0779 26.49 13.043 25.8605 13.043C25.5507 13.0565 25.233 13.0507 24.9193 13.0662C24.6133 13.0818 24.3775 13.3417 24.3931 13.6462C24.4087 13.9508 24.6659 14.1836 24.9758 14.17C25.2642 14.1545 25.5546 14.1486 25.8449 14.1486C26.4413 14.1467 27.0512 14.1797 27.6592 14.2418C27.6787 14.2437 27.6982 14.2456 27.7177 14.2456C27.9983 14.2456 28.238 14.0342 28.2692 13.751C28.3004 13.4484 28.0802 13.1768 27.7742 13.1458V13.1438ZM2.04454 41.8778C1.85161 41.6392 1.50278 41.6043 1.26503 41.7963C1.02728 41.9883 0.990252 42.3355 1.18318 42.5722C1.77951 43.3035 2.41286 44.0096 3.0696 44.6672C3.17873 44.7758 3.32099 44.8301 3.46325 44.8301C3.60551 44.8301 3.74582 44.7758 3.853 44.671C4.07127 44.4557 4.07321 44.1066 3.8569 43.8912C3.22745 43.2589 2.61748 42.58 2.04454 41.8778ZM-2.15312 34.9353C-2.27589 34.654 -2.60134 34.526 -2.88196 34.6482C-3.16259 34.7704 -3.29316 35.0944 -3.17038 35.3737C-2.79427 36.2369 -2.38113 37.0865 -1.93876 37.9012C-1.83742 38.0855 -1.64644 38.1902 -1.44961 38.1902C-1.35997 38.1902 -1.27033 38.1689 -1.18653 38.1243C-0.917598 37.9788 -0.816262 37.6432 -0.96242 37.3755C-1.3892 36.5919 -1.7887 35.7694 -2.15117 34.9353H-2.15312ZM-5.44071 22.2782C-5.13475 22.2763 -4.88725 22.0261 -4.89115 21.7215V21.6207C-4.89115 20.7516 -4.85802 19.8729 -4.78981 19.0117C-4.76643 18.7071 -4.99444 18.4414 -5.30039 18.4181C-5.6044 18.4006 -5.87333 18.6218 -5.89672 18.9263C-5.96688 19.8167 -6.00195 20.7225 -6.00195 21.6207V21.7312C-6 22.0338 -5.75056 22.2782 -5.44655 22.2782H-5.44265H-5.44071ZM-4.43904 27.1316C-4.48775 26.8309 -4.77617 26.6272 -5.07628 26.6757C-5.37835 26.7262 -5.58297 27.0094 -5.53425 27.31C-5.38224 28.2314 -5.19126 29.1567 -4.96715 30.0568C-4.90479 30.3089 -4.67873 30.4757 -4.42929 30.4757C-4.38447 30.4757 -4.33965 30.4699 -4.29483 30.4602C-3.99666 30.3865 -3.81543 30.0878 -3.88948 29.791C-4.10579 28.92 -4.29093 28.0239 -4.43904 27.1296V27.1316ZM9.79092 30.9471C9.80456 30.9471 9.81626 30.9471 9.82795 30.9471C10.1164 30.9471 10.36 30.724 10.3814 30.4331C10.4438 29.5214 10.5548 28.6213 10.7127 27.7562C10.7673 27.4555 10.5685 27.1684 10.2664 27.1141C9.96436 27.0579 9.67594 27.2577 9.62138 27.5583C9.45573 28.4623 9.33881 29.405 9.2745 30.3574C9.25306 30.662 9.48496 30.9258 9.79092 30.9452V30.9471ZM35.8324 15.813C35.0237 15.3319 34.1662 14.9032 33.2854 14.5385C33.0028 14.4222 32.6773 14.556 32.5604 14.8373C32.4435 15.1185 32.576 15.4425 32.8605 15.5589C33.6926 15.9022 34.5014 16.3076 35.2634 16.7615C35.353 16.8139 35.4504 16.8391 35.5479 16.8391C35.7369 16.8391 35.9201 16.7441 36.0253 16.5714C36.1832 16.3096 36.0974 15.9701 35.8344 15.8149L35.8324 15.813ZM10.5626 35.8334C10.5237 35.5308 10.243 35.3174 9.94098 35.3582C9.63697 35.397 9.4226 35.6744 9.46353 35.977C9.58435 36.9003 9.75 37.8314 9.95657 38.745C10.015 39.0011 10.243 39.1757 10.4964 39.1757C10.5373 39.1757 10.5782 39.1718 10.6192 39.1621C10.9173 39.0961 11.1063 38.7993 11.0381 38.5025C10.8394 37.6219 10.6776 36.7238 10.5626 35.8354V35.8334ZM10.4009 48.6437C9.59215 48.2364 8.80094 47.7844 8.04872 47.2994C7.79148 47.1326 7.44849 47.2063 7.2809 47.4624C7.11525 47.7184 7.18736 48.0598 7.4446 48.2267C8.22995 48.7329 9.05623 49.2043 9.90005 49.6291C9.97995 49.6698 10.0657 49.6892 10.1495 49.6892C10.3522 49.6892 10.547 49.5787 10.6445 49.3866C10.7828 49.1151 10.6737 48.7814 10.3989 48.6456L10.4009 48.6437ZM12.3458 22.6565C12.7394 21.8418 13.1954 21.0678 13.6963 20.3521C13.8717 20.1018 13.8093 19.7585 13.5599 19.5839C13.3085 19.4093 12.9635 19.4695 12.7881 19.7197C12.2522 20.484 11.767 21.3103 11.348 22.1754C11.2155 22.4489 11.3305 22.7807 11.6072 22.9126C11.6851 22.9494 11.767 22.9669 11.8488 22.9669C12.0554 22.9669 12.2522 22.8524 12.3497 22.6546L12.3458 22.6565ZM22.2339 56.7423C22.0019 56.5444 21.6512 56.5716 21.4524 56.8024C21.2536 57.0332 21.2789 57.3824 21.5128 57.5803C22.23 58.1913 22.9744 58.7752 23.7266 59.3164C23.824 59.3862 23.939 59.4211 24.0501 59.4211C24.2216 59.4211 24.3911 59.3416 24.5003 59.1922C24.6796 58.9459 24.623 58.6006 24.3756 58.4221C23.6467 57.8984 22.9257 57.3339 22.2339 56.7423ZM80.4788 28.4021C79.6155 28.8114 78.7795 29.2711 77.9942 29.7677C77.735 29.9307 77.659 30.2721 77.8246 30.5301C77.9299 30.6949 78.1091 30.7861 78.2923 30.7861C78.3937 30.7861 78.4969 30.759 78.5905 30.7008C79.3369 30.2275 80.1339 29.7891 80.9563 29.4011C81.233 29.2692 81.3499 28.9414 81.2194 28.6659C81.0869 28.3905 80.7556 28.2741 80.4808 28.4041L80.4788 28.4021ZM73.6464 33.3971C73.0326 34.0663 72.4324 34.8053 71.8672 35.5968C71.6899 35.8451 71.7483 36.1884 71.9978 36.3669C72.0952 36.4367 72.2082 36.4697 72.3193 36.4697C72.4928 36.4697 72.6623 36.3901 72.7714 36.2388C73.3112 35.4843 73.8822 34.7801 74.4649 34.1439C74.6715 33.9189 74.6559 33.5697 74.4298 33.3641C74.2038 33.1585 73.853 33.174 73.6464 33.399V33.3971ZM39.498 63.8962C38.5919 63.8477 37.6818 63.7546 36.7951 63.6188C36.493 63.5722 36.2085 63.7798 36.1617 64.0805C36.115 64.3811 36.3235 64.6643 36.6256 64.7109C37.5473 64.8525 38.4944 64.9495 39.4376 65.0019C39.4474 65.0019 39.4571 65.0019 39.4688 65.0019C39.7611 65.0019 40.0067 64.773 40.0223 64.48C40.0379 64.1755 39.804 63.9156 39.498 63.8981V63.8962ZM69.7567 40.1746C69.4819 40.0369 69.1487 40.1494 69.0123 40.421C68.6439 41.1523 68.262 41.9476 67.8079 42.9272C67.6793 43.2046 67.8021 43.5324 68.0788 43.6604C68.1548 43.6953 68.2327 43.7109 68.3107 43.7109C68.5212 43.7109 68.7219 43.5925 68.8154 43.3908C69.2636 42.4209 69.6417 41.6353 70.0042 40.9156C70.1406 40.6421 70.0315 40.3104 69.7567 40.1746ZM88.576 26.0046C87.625 26.152 86.6954 26.3363 85.8126 26.5477C85.5145 26.6195 85.3313 26.9182 85.4034 27.213C85.4658 27.4652 85.6918 27.6359 85.9413 27.6359C85.9841 27.6359 86.029 27.632 86.0718 27.6204C86.9254 27.4148 87.8238 27.2383 88.7455 27.0947C89.0476 27.0482 89.2542 26.765 89.2074 26.4643C89.1606 26.1636 88.8781 25.9561 88.5741 26.0046H88.576ZM96.9655 25.5041C96.0281 25.4866 95.0947 25.4886 94.167 25.5138C93.8611 25.5216 93.6194 25.7757 93.6292 26.0822C93.637 26.3809 93.8845 26.6195 94.1826 26.6195H94.1982C95.1083 26.5943 96.0242 26.5923 96.944 26.6098C97.2753 26.604 97.5034 26.3731 97.5092 26.0686C97.515 25.764 97.2714 25.5119 96.9655 25.506V25.5041ZM110.872 26.8949C110.872 26.8949 110.823 26.8872 110.815 26.8872C110.515 26.8484 110.256 27.0559 110.209 27.3527C110.163 27.6495 110.383 27.9327 110.681 27.9831C110.712 27.989 110.745 27.9909 110.776 27.9909C111.041 27.9909 111.275 27.8008 111.322 27.5331C111.375 27.2324 111.172 26.9473 110.872 26.8949ZM105.314 26.1248C104.394 26.0162 103.469 25.9153 102.543 25.83C102.237 25.8009 101.968 26.0259 101.939 26.3285C101.91 26.633 102.136 26.9007 102.44 26.9298C103.357 27.0152 104.271 27.1122 105.182 27.2208C105.203 27.2227 105.226 27.2247 105.248 27.2247C105.525 27.2247 105.764 27.0191 105.797 26.7378C105.834 26.4352 105.616 26.1597 105.312 26.1229L105.314 26.1248ZM66.2353 47.6777C65.9585 47.5438 65.6272 47.6622 65.4947 47.9357C65.0562 48.8435 64.6489 49.6388 64.2494 50.3701C64.1033 50.6378 64.2027 50.9734 64.4716 51.1189C64.5554 51.1654 64.647 51.1868 64.7366 51.1868C64.9335 51.1868 65.1244 51.082 65.2238 50.8997C65.6331 50.1529 66.0482 49.3401 66.4944 48.4168C66.627 48.1413 66.512 47.8115 66.2353 47.6796V47.6777ZM41.895 21.7526C41.4137 20.9476 40.8466 20.1697 40.2132 19.4404C40.0125 19.2115 39.6617 19.1843 39.4318 19.3841C39.1999 19.5839 39.1746 19.9331 39.3753 20.1639C39.9658 20.8428 40.4939 21.5664 40.9421 22.317C41.0454 22.4897 41.2305 22.5867 41.4195 22.5867C41.515 22.5867 41.6144 22.5615 41.7021 22.5091C41.9652 22.3539 42.0509 22.0144 41.895 21.7526ZM61.262 54.8859C60.6968 55.5726 60.0791 56.2379 59.4262 56.8625C59.206 57.074 59.1982 57.4231 59.4106 57.6423C59.5198 57.7548 59.6659 57.813 59.8101 57.813C59.9485 57.813 60.0869 57.7626 60.194 57.6598C60.88 57.0061 61.527 56.3078 62.1214 55.5862C62.3143 55.3515 62.2812 55.0023 62.0434 54.8103C61.8057 54.6182 61.4569 54.6512 61.2639 54.8878L61.262 54.8859ZM39.498 42.6207C38.9894 43.3636 38.4301 44.0755 37.8377 44.7389C37.635 44.9659 37.6545 45.315 37.8825 45.5187C37.9877 45.6118 38.1203 45.6584 38.2508 45.6584C38.4028 45.6584 38.5548 45.5963 38.6659 45.4741C39.2915 44.7758 39.88 44.027 40.4159 43.2434C40.5894 42.9912 40.5231 42.6479 40.2698 42.4771C40.0164 42.3064 39.6715 42.3705 39.5 42.6226L39.498 42.6207ZM43.38 34.8441C43.0818 34.7782 42.7837 34.9644 42.7174 35.2612C42.5206 36.1283 42.2653 36.9973 41.9574 37.8411C41.8522 38.1282 42.0022 38.4444 42.2887 38.5491C42.3511 38.5724 42.4154 38.5821 42.4777 38.5821C42.7038 38.5821 42.9181 38.4424 42.998 38.2193C43.3215 37.3309 43.5905 36.4192 43.797 35.5056C43.8653 35.2088 43.6762 34.912 43.3781 34.8461L43.38 34.8441ZM43.2787 26.6253C42.9786 26.6874 42.7856 26.9783 42.848 27.2771C43.0253 28.1403 43.1403 29.0326 43.1871 29.9307C43.2027 30.2255 43.4482 30.4544 43.7405 30.4544C43.7503 30.4544 43.76 30.4544 43.7698 30.4544C44.0757 30.4389 44.3096 30.179 44.294 29.8744C44.2433 28.92 44.1225 27.9734 43.9335 27.0559C43.8711 26.7572 43.5788 26.5671 43.2787 26.6272V26.6253ZM55.1214 60.1194C54.3575 60.5753 53.5507 61.0001 52.7224 61.3822C52.4457 61.5103 52.3249 61.8381 52.4535 62.1155C52.5471 62.3172 52.7478 62.4355 52.9563 62.4355C53.0342 62.4355 53.1141 62.42 53.1901 62.3851C54.0515 61.9855 54.8934 61.5432 55.6924 61.066C55.9555 60.9089 56.0393 60.5695 55.8834 60.3095C55.7255 60.0496 55.3845 59.9642 55.1233 60.1194H55.1214ZM47.5972 63.1552C46.7183 63.3647 45.8199 63.5354 44.9254 63.6595C44.6214 63.7022 44.4109 63.9815 44.4538 64.2841C44.4928 64.5596 44.7305 64.7594 45.0014 64.7594C45.0267 64.7594 45.054 64.7594 45.0793 64.7536C46.0089 64.6236 46.9424 64.4471 47.8544 64.2298C48.1526 64.158 48.3358 63.8613 48.2636 63.5645C48.1915 63.2677 47.8914 63.0873 47.5952 63.1571L47.5972 63.1552Z" fill="#592B02"/>
</g>
<defs>
<clipPath id="clip0_24_25524">
<rect width="161" height="65" fill="white" transform="translate(-6)"/>
</clipPath>
</defs>
</svg>
