<svg width="147" height="213" viewBox="0 0 147 213" fill="none" xmlns="http://www.w3.org/2000/svg">
<g clip-path="url(#clip0_129_28073)">
<g clip-path="url(#clip1_129_28073)">
<path fill-rule="evenodd" clip-rule="evenodd" d="M-21.0643 234.139C-35.8625 228.327 -24.0321 227.813 -7.49202 211.378C12.5267 191.489 27.0812 179.953 38.0075 164.118C38.6386 163.199 39.3327 162.251 40.0696 161.279C40.5525 159.441 41.137 157.224 41.6331 154.938C39.9457 150.513 38.0584 147.811 37.6707 147.474C29.5848 140.5 24.7063 136.418 28.1726 122.636C40.9029 125.932 36.6566 137.462 40.3946 144.772C41.2189 146.388 41.9492 147.946 42.5967 149.443C42.6172 149.224 42.6436 149.009 42.6638 148.795C43.426 140.999 41.855 135.349 41.4986 134.743C36.1047 125.543 32.7997 120.103 40.5454 108.19C51.5329 115.413 43.7806 124.952 44.9582 133.067C46.4569 143.42 45.5514 150.901 44.0419 156.265C68.5288 126.21 68.9638 120.192 76.2166 85.2267C81.0977 61.6956 82.7085 56.8119 82.5843 61.0165C82.3528 68.8885 79.1956 102.618 73.7934 117.362C71.5136 123.584 68.802 130.972 64.3064 138.58C68.1732 135.589 73.438 132.514 80.7145 129.851C88.4196 127.033 93.1295 115.683 104.705 121.916C97.8995 134.387 91.5457 134.063 80.8824 133.688C80.1784 133.661 74.4594 134.963 67.9617 139.335C66.548 140.283 65.0905 141.432 63.6765 142.619C65.7399 142.68 67.942 142.835 70.2934 143.11C78.4476 144.063 87.7852 136.062 95.313 146.839C83.5989 154.892 78.0724 151.745 68.7147 146.603C68.2616 146.358 65.1129 145.539 60.423 145.495C60.0391 145.841 59.6706 146.184 59.3076 146.517C37.2835 179.595 -2.27446 217.835 -21.066 234.133L-21.0643 234.139Z" fill="#9DBF69"/>
<path fill-rule="evenodd" clip-rule="evenodd" d="M91.1153 58.4443C96.043 63.5415 116.501 52.2911 127.064 32.5139C129.181 28.5498 121.107 34.0345 120.996 27.1939C120.943 23.4844 119.178 23.3057 116.635 24.9989C104.709 32.9493 98.4672 47.0873 91.1142 58.4463L91.1153 58.4443Z" fill="#FFFCEA"/>
<path fill-rule="evenodd" clip-rule="evenodd" d="M85.7232 51.381C92.5397 54.8487 107.562 35.7616 111.353 11.878C111.945 8.13874 108.162 10.2912 106.482 11.2929C106.985 9.74935 106.847 6.3261 102.875 9.37378C101.507 5.61178 100.068 5.25578 98.0791 7.87517C88.7344 20.1807 81.7485 46.4986 85.7232 51.381Z" fill="#FFFCEA"/>
<path fill-rule="evenodd" clip-rule="evenodd" d="M77.4727 49.9307C84.889 48.1737 85.6366 23.0564 73.0621 2.40968C70.5442 -1.7281 71.2112 8.75819 64.8119 5.09997C61.341 3.11545 60.2119 4.65057 60.3927 7.92977C61.2508 23.3361 70.9566 36.8838 77.4707 49.9296L77.4727 49.9307Z" fill="#FFFCEA"/>
<path fill-rule="evenodd" clip-rule="evenodd" d="M74.8664 54.9718C80.3524 50.1725 69.7527 28.5539 49.8853 16.66C45.9016 14.2755 51.1585 22.8658 44.1063 22.6195C40.2864 22.4836 40.0144 24.288 41.6381 26.9877C49.2496 39.6696 63.5169 46.8228 74.8675 54.9698L74.8664 54.9718Z" fill="#FFFCEA"/>
<path fill-rule="evenodd" clip-rule="evenodd" d="M65.7697 60.8527C68.4887 53.3598 46.7394 40.1897 21.4595 39.2645C17.5096 39.1196 20.2228 42.7672 21.4856 44.3836C19.8212 44.0548 16.2807 44.6244 19.9567 48.3551C16.2283 50.2429 16.0492 51.7787 19.0219 53.5113C33.0014 61.6514 61.2121 65.5808 65.7697 60.8527Z" fill="#FFFCEA"/>
<path fill-rule="evenodd" clip-rule="evenodd" d="M68.4751 70.5614C68.4091 62.9297 44.5103 58.3481 21.5291 65.9368C17.9402 67.1266 21.5922 69.4963 23.2585 70.5257C21.6574 70.7848 18.6747 72.4796 23.2209 74.6007C20.5039 77.5373 20.8574 78.9765 24.1012 79.5417C39.3571 82.1936 65.9695 76.3255 68.4782 70.5605L68.4751 70.5614Z" fill="#FFFCEA"/>
<path fill-rule="evenodd" clip-rule="evenodd" d="M64.9513 79.3797C60.3145 73.3181 37.0379 82.7936 23.2712 102.615C20.5112 106.591 29.833 101.74 29.0927 109.059C28.6957 113.031 30.5566 113.448 33.4834 111.952C47.2311 104.94 55.6701 90.6046 64.9513 79.3797Z" fill="#FFFCEA"/>
<path fill-rule="evenodd" clip-rule="evenodd" d="M66.8401 83.5281C73.4918 86.5498 69.6429 110.289 54.0883 127.379C50.9698 130.808 56.1312 117.735 49.4556 119.998C45.8323 121.226 42.4155 122.912 43.1838 119.864C46.7795 105.539 58.3517 94.5867 66.8401 83.5281Z" fill="#FFFCEA"/>
<path fill-rule="evenodd" clip-rule="evenodd" d="M76.4271 87.6445C82.1258 85.0854 90.981 108.801 90.5644 135.749C90.5004 139.962 87.8998 136.907 86.7574 135.499C86.9271 137.285 86.3462 141.023 83.7269 136.949C82.163 140.836 81.0126 140.96 79.8496 137.719C74.4015 122.485 72.7113 92.2937 76.4271 87.6445Z" fill="#FFFCEA"/>
<path fill-rule="evenodd" clip-rule="evenodd" d="M90.2606 84.7055C97.0433 81.2024 112.252 100.187 116.273 124.059C116.902 127.787 113.097 125.665 111.405 124.665C111.926 126.207 111.817 129.635 107.82 126.608C106.488 130.378 105.053 130.742 103.041 128.138C93.5704 115.89 86.338 89.6182 90.2594 84.7075L90.2606 84.7055Z" fill="#FFFCEA"/>
<path fill-rule="evenodd" clip-rule="evenodd" d="M95.3337 77.1455C91.22 82.916 109.292 102.509 133.774 110.746C138.683 112.397 130.421 104.805 137.805 103.773C141.808 103.215 141.498 101.37 138.934 98.9781C126.886 87.7432 109.763 83.2041 95.3357 77.1466L95.3337 77.1455Z" fill="#FFFCEA"/>
<path fill-rule="evenodd" clip-rule="evenodd" d="M97.6673 69.5036C98.4477 77.098 122.664 79.4346 144.833 69.732C148.299 68.2156 144.442 66.1982 142.685 65.3274C144.256 64.9163 147.066 62.9498 142.343 61.2623C144.772 58.0841 144.289 56.6803 141.009 56.4211C125.575 55.202 99.6321 63.5307 97.6684 69.5017L97.6673 69.5036Z" fill="#FFFCEA"/>
<path fill-rule="evenodd" clip-rule="evenodd" d="M95.7925 54.0406C106.94 72.7603 95.3297 88.4657 82.4389 90.1291C70.8666 91.6242 53.2129 81.4826 57.1363 67.3853C62.9891 46.3442 85.535 36.8112 95.7917 54.0375L95.7925 54.0406Z" fill="#F5C747"/>
<path fill-rule="evenodd" clip-rule="evenodd" d="M79.8111 81.0423C80.7731 82.6536 79.7716 84.0099 78.6605 84.156C77.6614 84.2829 76.1336 83.4073 76.477 82.1903C76.9798 80.3772 78.9288 79.5514 79.8111 81.0423Z" fill="#FFD34E"/>
<path fill-rule="evenodd" clip-rule="evenodd" d="M71.5438 77.3543C72.5024 78.9714 71.501 80.3277 70.3932 80.4679C69.3919 80.5988 67.8702 79.7215 68.2064 78.5081C68.7125 76.6891 70.6582 75.8692 71.5438 77.3543Z" fill="#FFD34E"/>
<path fill-rule="evenodd" clip-rule="evenodd" d="M78.2966 72.4869C79.2552 74.104 78.2538 75.4603 77.146 75.6005C76.1447 75.7314 74.623 74.8541 74.9592 73.6407C75.4653 71.8217 77.411 71.0018 78.2966 72.4869Z" fill="#FFD34E"/>
<path fill-rule="evenodd" clip-rule="evenodd" d="M67.014 65.0703C67.976 66.6816 66.9745 68.0379 65.8634 68.184C64.8621 68.3148 63.3405 67.4375 63.6766 66.2242C64.1827 64.4052 66.1284 63.5853 67.014 65.0703Z" fill="#FFD34E"/>
<path fill-rule="evenodd" clip-rule="evenodd" d="M73.767 60.2029C74.7256 61.8201 73.7275 63.1705 72.6163 63.3166C71.6151 63.4474 70.0934 62.5702 70.4295 61.3568C70.9357 59.5378 72.8813 58.7179 73.767 60.2029Z" fill="#FFD34E"/>
<path fill-rule="evenodd" clip-rule="evenodd" d="M81.2586 63.4556C82.2172 65.0727 81.2157 66.429 80.1079 66.5693C79.1066 66.7001 77.581 65.8206 77.9211 64.6094C78.4272 62.7905 80.3729 61.9705 81.2586 63.4556Z" fill="#FFD34E"/>
<path fill-rule="evenodd" clip-rule="evenodd" d="M88.0114 58.5882C88.97 60.2053 87.9686 61.5616 86.8548 61.6985C85.8595 61.8327 84.3319 60.9521 84.668 59.7387C85.1781 57.9219 87.1238 57.102 88.0114 58.5882Z" fill="#FFD34E"/>
<path fill-rule="evenodd" clip-rule="evenodd" d="M86.6751 74.1005C87.637 75.7118 86.6356 77.0681 85.5244 77.2142C84.5232 77.345 83.0015 76.4678 83.3376 75.2544C83.8438 73.4354 85.7917 72.6115 86.6751 74.1005Z" fill="#FFD34E"/>
<path fill-rule="evenodd" clip-rule="evenodd" d="M93.4279 69.2331C94.3898 70.8444 93.3884 72.2007 92.2772 72.3468C91.276 72.4776 89.7504 71.5981 90.0904 70.387C90.5965 68.568 92.5422 67.7481 93.4279 69.2331Z" fill="#FFD34E"/>
<path fill-rule="evenodd" clip-rule="evenodd" d="M86.8549 65.5746C87.8227 67.1893 86.8212 68.5455 85.7042 68.6883C84.703 68.8192 83.1813 67.9419 83.5174 66.7285C84.0235 64.9095 85.9692 64.0896 86.8549 65.5746Z" fill="#FFD34E"/>
<path fill-rule="evenodd" clip-rule="evenodd" d="M79.7915 53.7973C80.7501 55.4145 79.7487 56.7708 78.6408 56.911C77.6396 57.0419 76.1179 56.1646 76.454 54.9512C76.9602 53.1322 78.9059 52.3123 79.7915 53.7973Z" fill="#FFD34E"/>
<path fill-rule="evenodd" clip-rule="evenodd" d="M71.2702 70.0425C72.2288 71.6597 71.2273 73.0159 70.1162 73.1621C69.1172 73.289 67.5933 72.4156 67.9327 71.1964C68.4355 69.3833 70.3845 68.5575 71.2702 70.0425Z" fill="#FFD34E"/>
</g>
</g>
<defs>
<clipPath id="clip0_129_28073">
<rect width="147" height="213" fill="white"/>
</clipPath>
<clipPath id="clip1_129_28073">
<rect width="136.265" height="260.565" fill="white" transform="matrix(-0.869518 -0.493901 -0.493901 0.869518 173.178 45.3012)"/>
</clipPath>
</defs>
</svg>
