<svg width="1440" height="674" viewBox="0 0 1440 674" fill="none" xmlns="http://www.w3.org/2000/svg">
<g clip-path="url(#clip0_112_27918)">
<rect width="1440" height="674" fill="url(#paint0_linear_112_27918)"/>
<path opacity="0.7" d="M1440 698.128L1439.39 698.475L1407.67 680.179V643.568L1439.39 625.272L1440 625.618V584.979L1439.39 585.325L1407.67 567.029V530.418L1439.39 512.122L1440 512.468V471.824L1439.39 472.171L1407.67 453.875V417.264L1439.39 398.968L1440 399.314V358.67L1439.39 359.016L1407.67 340.72V304.109L1439.39 285.813L1440 286.16V245.516L1439.39 245.862L1407.67 227.566V190.955L1439.39 172.659L1440 173.005V132.361L1439.39 132.707L1407.67 114.412V77.8003L1439.39 59.5045L1440 59.8507V19.2068L1439.39 19.553L1407.67 1.25714V-35.3199L1439.39 -53.6158L1440 -53.2696V-84H1438.43V-55.2835L1406.71 -36.9876L1374.98 -55.2884V-84H1373.05V-55.2835L1341.33 -36.9876L1309.6 -55.2884V-84H1307.67V-55.2835L1275.94 -36.9828L1244.22 -55.2835V-84H1242.28V-55.2835L1210.56 -36.9876L1178.84 -55.2884V-84H1176.9V-55.2835L1145.18 -36.9876L1113.46 -55.2884V-84H1111.52V-55.2835L1079.8 -36.9828L1048.08 -55.2835V-84H1046.14V-55.2835L1014.42 -36.9876L982.697 -55.2884V-84H980.759V-55.2835L949.037 -36.9876L917.315 -55.2884V-84H915.378V-55.2835L883.656 -36.9876L851.934 -55.2884V-84H849.996V-55.2835L818.275 -36.9828L786.553 -55.2835V-84H784.615V-55.2835L752.893 -36.9876L721.171 -55.2884V-84H719.234V-55.2835L687.512 -36.9876L655.79 -55.2884V-84H653.852V-55.2835L622.131 -36.9876L590.409 -55.2884V-84H588.471V-55.2835L556.749 -36.9828L525.027 -55.2835V-84H523.09V-55.2835L491.368 -36.9876L459.646 -55.2884V-84H457.708V-55.2835L425.987 -36.9876L394.265 -55.2884V-84H392.327V-55.2835L360.605 -36.9828L328.883 -55.2835V-84H326.946V-55.2835L295.224 -36.9876L263.502 -55.2884V-84H261.564V-55.2835L229.843 -36.9876L198.121 -55.2884V-84H196.183V-55.2835L164.461 -36.9876L132.739 -55.2884V-84H130.802V-55.2835L99.0799 -36.9828L67.3581 -55.2835V-84H65.4204V-55.2835L33.6986 -36.9876L1.93289 -55.2884V-84H0V-54.7325H0.966443L0.483221 -53.8986L32.698 -35.3199V1.28152L0.483221 19.8651L0.966443 20.6989H0V58.4171H0.966443L0.483221 59.2509L32.698 77.8296V114.436L0.483221 133.015L0.966443 133.848H0V171.567H0.966443L0.483221 172.4L32.698 190.979V227.585L0.483221 246.164L0.966443 246.998H0V284.716H0.966443L0.483221 285.55L32.698 304.129V340.735L0.483221 359.309L0.966443 360.143H0V397.861H0.966443L0.483221 398.695L32.698 417.273V453.875L0.483221 472.458L0.966443 473.292H0V511.01H0.966443L0.483221 511.844L32.698 530.423V567.029L0.483221 585.608L0.966443 586.442H0V624.155H0.966443L0.483221 624.989L32.698 643.568V680.174L0.483221 698.757L0.966443 699.591H0V737.31H0.966443L0.483221 738.143L33.1812 757L33.6644 756.166L34.1477 757L66.3575 738.421L98.5674 757L99.0506 756.166L99.5339 757L131.744 738.421L163.954 757L164.437 756.166L164.92 757L197.13 738.421L229.34 757L229.823 756.166L230.306 757L262.516 738.421L294.726 757L295.209 756.166L295.692 757L327.902 738.421L360.112 757L360.595 756.166L361.079 757L393.289 738.421L425.498 757L425.982 756.166L426.465 757L458.675 738.421L490.885 757L491.368 756.166L491.851 757L524.061 738.421L556.271 757L556.754 756.166L557.237 757L589.447 738.421L621.657 757L622.14 756.166L622.624 757L654.833 738.421L687.038 757L687.522 756.166L688.005 757L720.215 738.421L752.425 757L752.908 756.166L753.391 757L785.601 738.421L817.811 757L818.294 756.166L818.777 757L850.987 738.421L883.197 757L883.68 756.166L884.164 757L916.373 738.421L948.583 757L949.067 756.166L949.55 757L981.76 738.421L1013.97 757L1014.45 756.166L1014.94 757L1047.15 738.421L1079.36 757L1079.84 756.166L1080.32 757L1112.53 738.421L1144.74 757L1145.23 756.166L1145.71 757L1177.92 738.421L1210.13 757L1210.61 756.166L1211.09 757L1243.3 738.421L1275.51 757L1276 756.166L1276.48 757L1308.69 738.421L1340.9 757L1341.38 756.166L1341.87 757L1374.08 738.421L1406.29 757L1406.77 756.166L1407.25 757L1439.46 738.421L1440.07 738.768V698.124L1440 698.128ZM1438.43 587.003V623.609L1406.71 641.905L1374.98 623.604V587.003L1406.71 568.702L1438.43 587.003ZM132.705 360.703L164.432 342.403L196.149 360.699V397.305L164.427 415.601L132.705 397.3V360.694V360.703ZM131.739 359.031L100.022 340.735V304.124L131.739 285.828L163.466 304.129V340.735L131.739 359.036V359.031ZM165.403 340.735V304.124L197.125 285.828L228.852 304.129V340.735L197.125 359.036L165.403 340.74V340.735ZM229.818 342.403L261.54 360.699V397.305L229.818 415.601L198.096 397.3V360.699L229.823 342.398L229.818 342.403ZM230.789 340.735V304.124L262.511 285.828L294.238 304.129V340.735L262.511 359.036L230.789 340.74V340.735ZM263.478 360.699L295.204 342.398L326.921 360.699V397.305L295.199 415.601L263.478 397.3V360.694V360.699ZM296.171 340.73V304.119L327.888 285.823L359.614 304.124V340.73L327.888 359.031L296.171 340.735V340.73ZM328.859 360.699L360.586 342.398L392.307 360.694V397.3L360.586 415.601L328.864 397.3V360.694L328.859 360.699ZM361.557 340.735V304.124L393.274 285.828L425.001 304.129V340.735L393.274 359.036L361.557 340.74V340.735ZM394.245 360.699L425.972 342.398L457.694 360.694V397.3L425.972 415.596L394.25 397.295V360.689L394.245 360.699ZM426.943 340.735V304.124L458.66 285.828L490.387 304.129V340.735L458.66 359.036L426.943 340.74V340.735ZM491.358 342.403L523.075 360.699V397.305L491.353 415.601L459.631 397.3V360.699L491.358 342.398V342.403ZM492.329 340.735V304.124L524.046 285.828L555.773 304.129V340.735L524.046 359.036L492.329 340.74V340.735ZM525.018 360.699L556.744 342.398L588.466 360.699V397.305L556.744 415.606L525.023 397.305V360.699H525.018ZM557.711 340.73V304.119L589.433 285.823L621.159 304.124V340.73L589.433 359.031L557.711 340.735V340.73ZM590.399 360.699L622.126 342.398L653.847 360.694V397.3L622.126 415.596L590.404 397.295V360.689L590.399 360.699ZM623.097 340.735V304.124L654.819 285.828L686.545 304.129V340.735L654.819 359.036L623.097 340.74V340.735ZM687.512 342.403L719.229 360.699V397.305L687.507 415.601L655.785 397.3V360.699L687.512 342.398V342.403ZM688.478 340.735V304.124L720.2 285.828L751.927 304.129V340.735L720.2 359.036L688.478 340.74V340.735ZM721.167 360.699L752.893 342.398L784.61 360.699V397.305L752.888 415.601L721.167 397.3V360.694V360.699ZM753.86 340.73V304.119L785.581 285.823L817.308 304.124V340.73L785.581 359.031L753.86 340.735V340.73ZM786.548 360.699L818.275 342.398L849.996 360.694V397.3L818.275 415.601L786.553 397.3V360.694L786.548 360.699ZM819.246 340.735V304.124L850.963 285.828L882.689 304.129V340.735L850.963 359.036L819.246 340.74V340.735ZM851.934 360.699L883.661 342.398L915.378 360.694V397.3L883.656 415.596L851.934 397.295V360.689V360.699ZM884.632 340.735V304.124L916.354 285.828L948.081 304.129V340.735L916.354 359.036L884.632 340.74V340.735ZM949.047 342.403L980.769 360.699V397.305L949.047 415.601L917.325 397.3V360.699L949.052 342.398L949.047 342.403ZM950.018 340.735V304.124L981.74 285.828L1013.47 304.129V340.735L981.74 359.036L950.018 340.74V340.735ZM982.706 360.699L1014.43 342.398L1046.15 360.699V397.305L1014.43 415.601L982.706 397.3V360.694V360.699ZM1015.4 340.73V304.119L1047.12 285.823L1078.85 304.124V340.73L1047.12 359.031L1015.4 340.735V340.73ZM1048.09 360.699L1079.81 342.398L1111.53 360.694V397.3L1079.81 415.601L1048.09 397.3V360.694V360.699ZM1080.79 340.735V304.124L1112.5 285.828L1144.23 304.129V340.735L1112.5 359.036L1080.79 340.74V340.735ZM1113.47 360.699L1145.2 342.398L1176.92 360.694V397.3L1145.2 415.596L1113.48 397.295V360.689L1113.47 360.699ZM1146.17 340.735V304.124L1177.89 285.828L1209.62 304.129V340.735L1177.89 359.036L1146.17 340.74V340.735ZM1210.59 342.403L1242.3 360.703V397.31L1210.58 415.606L1178.86 397.305V360.703L1210.59 342.403ZM1211.55 340.735V304.124L1243.27 285.828L1275 304.129V340.735L1243.27 359.036L1211.55 340.74V340.735ZM1244.24 360.703L1275.97 342.403L1307.69 360.699V397.305L1275.96 415.606L1244.24 397.305V360.699V360.703ZM1276.94 340.74V304.129L1308.66 285.833L1340.38 304.134V340.74L1308.66 359.041L1276.94 340.745V340.74ZM1309.63 360.703L1341.35 342.403L1373.08 360.699V397.305L1341.35 415.601L1309.63 397.3V360.694L1309.63 360.703ZM1341.35 302.461L1309.63 284.16V247.554L1341.35 229.253L1373.08 247.549V284.155L1341.35 302.451L1341.35 302.461ZM1340.38 227.585L1308.66 245.886L1276.94 227.59V190.979L1308.66 172.683L1340.38 190.984V227.59V227.585ZM1307.69 247.554V284.16L1275.97 302.461L1244.25 284.16V247.554L1275.97 229.253L1307.69 247.549V247.554ZM1275 227.585L1243.28 245.881L1211.56 227.585V190.974L1243.28 172.678L1275 190.974V227.581V227.585ZM1242.3 247.554V284.16L1210.58 302.456L1178.86 284.155V247.554L1210.59 229.253L1242.3 247.554ZM1209.62 227.585L1177.89 245.881L1146.17 227.585V190.974L1177.89 172.678L1209.62 190.974V227.581V227.585ZM1176.92 247.554V284.16L1145.2 302.456L1113.47 284.155V247.549L1145.2 229.248L1176.92 247.544L1176.92 247.554ZM1144.23 227.585L1112.5 245.886L1080.79 227.59V190.979L1112.5 172.683L1144.23 190.984V227.59V227.585ZM1111.54 247.554V284.16L1079.81 302.461L1048.09 284.16V247.554L1079.82 229.253L1111.54 247.549V247.554ZM1078.85 227.585L1047.12 245.881L1015.4 227.585V190.974L1047.12 172.678L1078.85 190.974V227.581V227.585ZM1046.15 247.554V284.16L1014.43 302.456L982.706 284.155V247.549L1014.43 229.248L1046.15 247.549V247.554ZM1013.46 227.585L981.735 245.881L950.013 227.585V190.974L981.735 172.678L1013.46 190.974V227.581V227.585ZM980.764 247.554V284.16L949.042 302.456L917.32 284.155V247.554L949.047 229.253L980.769 247.549L980.764 247.554ZM948.076 227.585L916.349 245.881L884.627 227.585V190.974L916.349 172.678L948.076 190.974V227.581V227.585ZM915.383 247.554V284.16L883.661 302.456L851.939 284.155V247.549L883.666 229.248L915.383 247.544V247.554ZM882.694 227.585L850.968 245.886L819.251 227.59V190.979L850.968 172.683L882.694 190.984V227.59V227.585ZM850.001 247.554V284.16L818.279 302.461L786.558 284.16V247.554L818.284 229.253L850.006 247.549L850.001 247.554ZM817.313 227.585L785.586 245.881L753.865 227.585V190.974L785.586 172.678L817.313 190.974V227.581V227.585ZM784.615 247.554V284.16L752.893 302.456L721.171 284.155V247.549L752.898 229.248L784.615 247.549V247.554ZM751.927 227.585L720.2 245.881L688.478 227.585V190.974L720.2 172.678L751.927 190.974V227.581V227.585ZM719.229 247.554V284.16L687.507 302.456L655.785 284.155V247.554L687.512 229.253L719.229 247.549V247.554ZM686.541 227.585L654.814 245.881L623.092 227.585V190.974L654.814 172.678L686.541 190.974V227.581V227.585ZM653.847 247.554V284.16L622.126 302.456L590.404 284.155V247.549L622.131 229.248L653.852 247.544L653.847 247.554ZM621.159 227.585L589.433 245.886L557.711 227.59V190.979L589.433 172.683L621.159 190.984V227.59V227.585ZM588.466 247.554V284.16L556.744 302.461L525.023 284.16V247.554L556.749 229.253L588.471 247.554H588.466ZM555.778 227.585L524.051 245.881L492.334 227.585V190.974L524.051 172.678L555.778 190.974V227.581V227.585ZM523.08 247.554V284.16L491.358 302.456L459.636 284.155V247.554L491.363 229.253L523.08 247.549V247.554ZM490.392 227.585L458.665 245.881L426.948 227.585V190.974L458.665 172.678L490.392 190.974V227.581V227.585ZM457.699 247.554V284.16L425.977 302.456L394.255 284.155V247.549L425.982 229.248L457.703 247.544L457.699 247.554ZM425.01 227.585L393.284 245.886L361.567 227.59V190.979L393.284 172.683L425.01 190.984V227.59V227.585ZM392.317 247.554V284.16L360.595 302.461L328.874 284.16V247.554L360.6 229.253L392.322 247.549L392.317 247.554ZM359.629 227.585L327.902 245.881L296.185 227.585V190.974L327.902 172.678L359.629 190.974V227.581V227.585ZM326.931 247.554V284.16L295.209 302.456L263.487 284.155V247.549L295.214 229.248L326.931 247.549V247.554ZM294.243 227.585L262.516 245.881L230.794 227.585V190.974L262.516 172.678L294.243 190.974V227.581V227.585ZM261.545 247.554V284.16L229.823 302.456L198.101 284.155V247.554L229.828 229.253L261.55 247.549L261.545 247.554ZM228.857 227.585L197.13 245.881L165.408 227.585V190.974L197.13 172.678L228.857 190.974V227.581V227.585ZM196.164 247.554V284.16L164.442 302.456L132.72 284.155V247.549L164.447 229.248L196.164 247.544V247.554ZM163.475 227.585L131.749 245.886L100.032 227.59V190.979L131.749 172.683L163.475 190.984V227.59V227.585ZM130.782 247.554V284.16L99.0604 302.461L67.3386 284.16V247.554L99.0653 229.253L130.782 247.549V247.554ZM99.0653 342.403L130.782 360.699V397.305L99.0604 415.606L67.3386 397.305V360.699L99.0653 342.398V342.403ZM99.0653 455.547L130.782 473.848V510.454L99.0604 528.75L67.3386 510.45V473.843L99.0653 455.543V455.547ZM100.037 453.88V417.268L131.754 398.973L163.48 417.273V453.875L131.754 472.176L100.037 453.88ZM132.725 473.848L164.451 455.547L196.168 473.848V510.454L164.447 528.75L132.725 510.45V473.843V473.848ZM165.423 453.88V417.268L197.145 398.973L228.871 417.273V453.875L197.145 472.176L165.423 453.88ZM229.838 455.547L261.559 473.848V510.454L229.838 528.75L198.116 510.45V473.848L229.843 455.547H229.838ZM230.809 453.88V417.268L262.531 398.973L294.257 417.273V453.875L262.531 472.176L230.809 453.88ZM263.497 473.848L295.224 455.547L326.941 473.848V510.454L295.219 528.75L263.497 510.45V473.843V473.848ZM296.19 453.88V417.268L327.907 398.973L359.634 417.273V453.875L327.907 472.176L296.19 453.88ZM328.879 473.848L360.605 455.547L392.327 473.848V510.454L360.605 528.75L328.883 510.45V473.843L328.879 473.848ZM361.577 453.88V417.268L393.293 398.973L425.02 417.273V453.875L393.293 472.176L361.577 453.88ZM394.265 473.848L425.991 455.547L457.713 473.848V510.454L425.991 528.75L394.27 510.45V473.843L394.265 473.848ZM426.963 453.88V417.268L458.68 398.973L490.406 417.273V453.875L458.68 472.176L426.963 453.88ZM491.378 455.547L523.095 473.848V510.454L491.373 528.75L459.651 510.45V473.848L491.378 455.547ZM492.349 453.88V417.268L524.066 398.973L555.793 417.273V453.875L524.066 472.176L492.349 453.88ZM525.037 473.848L556.764 455.547L588.486 473.848V510.454L556.764 528.75L525.042 510.45V473.843L525.037 473.848ZM557.73 453.88V417.268L589.452 398.973L621.179 417.273V453.875L589.452 472.176L557.73 453.88ZM590.419 473.848L622.145 455.547L653.867 473.848V510.454L622.145 528.75L590.423 510.45V473.843L590.419 473.848ZM623.117 453.88V417.268L654.838 398.973L686.565 417.273V453.875L654.838 472.176L623.117 453.88ZM687.531 455.547L719.248 473.848V510.454L687.527 528.75L655.805 510.45V473.848L687.531 455.547ZM688.498 453.88V417.268L720.22 398.973L751.946 417.273V453.875L720.22 472.176L688.498 453.88ZM721.186 473.848L752.913 455.547L784.63 473.848V510.454L752.908 528.75L721.186 510.45V473.843V473.848ZM753.879 453.88V417.268L785.601 398.973L817.328 417.273V453.875L785.601 472.176L753.879 453.88ZM786.567 473.848L818.294 455.547L850.016 473.848V510.454L818.294 528.75L786.572 510.45V473.843L786.567 473.848ZM819.265 453.88V417.268L850.982 398.973L882.709 417.273V453.875L850.982 472.176L819.265 453.88ZM851.954 473.848L883.68 455.547L915.397 473.848V510.454L883.675 528.75L851.954 510.45V473.843V473.848ZM884.652 453.88V417.268L916.373 398.973L948.1 417.273V453.875L916.373 472.176L884.652 453.88ZM949.067 455.547L980.788 473.848V510.454L949.067 528.75L917.345 510.45V473.848L949.071 455.547H949.067ZM950.038 453.88V417.268L981.76 398.973L1013.49 417.273V453.875L981.76 472.176L950.038 453.88ZM982.726 473.848L1014.45 455.547L1046.17 473.848V510.454L1014.45 528.75L982.726 510.45V473.843V473.848ZM1015.42 453.88V417.268L1047.14 398.973L1078.87 417.273V453.875L1047.14 472.176L1015.42 453.88ZM1048.11 473.848L1079.83 455.547L1111.55 473.848V510.454L1079.83 528.75L1048.11 510.45V473.843V473.848ZM1080.81 453.88V417.268L1112.52 398.973L1144.25 417.273V453.875L1112.52 472.176L1080.81 453.88ZM1113.49 473.848L1145.22 455.547L1176.94 473.848V510.454L1145.22 528.75L1113.5 510.45V473.843L1113.49 473.848ZM1146.19 453.88V417.268L1177.91 398.973L1209.64 417.273V453.875L1177.91 472.176L1146.19 453.88ZM1210.61 455.547L1242.32 473.848V510.454L1210.6 528.75L1178.88 510.45V473.848L1210.61 455.547ZM1211.57 453.88V417.268L1243.29 398.973L1275.02 417.273V453.875L1243.29 472.176L1211.57 453.88ZM1244.26 473.848L1275.99 455.547L1307.7 473.848V510.454L1275.98 528.75L1244.26 510.45V473.843V473.848ZM1276.96 453.88V417.268L1308.68 398.973L1340.4 417.273V453.875L1308.68 472.176L1276.96 453.88ZM1309.65 473.848L1341.37 455.547L1373.1 473.848V510.454L1341.37 528.75L1309.65 510.45V473.843L1309.65 473.848ZM1342.35 453.88V417.268L1374.07 398.973L1405.79 417.273V453.875L1374.07 472.176L1342.35 453.88ZM1342.35 340.735V304.124L1374.07 285.828L1405.79 304.129V340.735L1374.07 359.036L1342.35 340.74V340.735ZM1342.35 227.585V190.974L1374.07 172.678L1405.79 190.974V227.581L1374.07 245.876L1342.35 227.581V227.585ZM1342.35 114.436V77.8247L1374.07 59.5289L1405.79 77.8247V114.431L1374.07 132.732L1342.35 114.436ZM1373.1 134.404V171.011L1341.37 189.307L1309.65 171.006V134.4L1341.38 116.099L1373.1 134.4L1373.1 134.404ZM1340.41 114.431L1308.68 132.732L1276.96 114.436V77.8247L1308.68 59.5289L1340.41 77.8296V114.436V114.431ZM1307.71 134.404V171.011L1275.99 189.307L1244.27 171.006V134.4L1276 116.099L1307.71 134.4V134.404ZM1275.03 114.431L1243.3 132.732L1211.58 114.436V77.8247L1243.3 59.5289L1275.03 77.8247V114.431ZM1242.33 134.404V171.011L1210.61 189.307L1178.88 171.006V134.404L1210.61 116.104L1242.33 134.404ZM1209.64 114.431L1177.91 132.732L1146.19 114.436V77.8247L1177.91 59.5289L1209.64 77.8247V114.431ZM1176.94 134.404V171.011L1145.22 189.307L1113.5 171.006V134.4L1145.23 116.099L1176.95 134.4L1176.94 134.404ZM1144.25 114.431L1112.53 132.732L1080.81 114.436V77.8247L1112.53 59.5289L1144.25 77.8296V114.436V114.431ZM1111.56 134.404V171.011L1079.84 189.307L1048.12 171.006V134.4L1079.84 116.099L1111.56 134.4V134.404ZM1078.87 114.431L1047.15 132.732L1015.42 114.436V77.8247L1047.15 59.5289L1078.87 77.8247V114.431ZM1046.17 134.404V171.011L1014.45 189.307L982.731 171.006V134.4L1014.46 116.099L1046.17 134.4V134.404ZM1013.49 114.431L981.76 132.732L950.038 114.436V77.8247L981.76 59.5289L1013.49 77.8247V114.431ZM980.788 134.404V171.011L949.067 189.307L917.345 171.006V134.404L949.071 116.104L980.793 134.404H980.788ZM948.1 114.431L916.373 132.732L884.652 114.436V77.8247L916.373 59.5289L948.1 77.8247V114.431ZM915.407 134.404V171.011L883.685 189.307L851.963 171.006V134.4L883.69 116.099L915.407 134.4V134.404ZM882.719 114.431L850.992 132.732L819.275 114.436V77.8247L850.992 59.5289L882.719 77.8296V114.436V114.431ZM850.026 134.404V171.011L818.304 189.307L786.582 171.006V134.4L818.309 116.099L850.03 134.4L850.026 134.404ZM817.337 114.431L785.611 132.732L753.889 114.436V77.8247L785.611 59.5289L817.337 77.8247V114.431ZM784.639 134.404V171.011L752.918 189.307L721.196 171.006V134.4L752.923 116.099L784.639 134.4V134.404ZM751.951 114.431L720.225 132.732L688.503 114.436V77.8247L720.225 59.5289L751.951 77.8247V114.431ZM719.253 134.404V171.011L687.531 189.307L655.81 171.006V134.404L687.536 116.104L719.253 134.404ZM686.565 114.431L654.838 132.732L623.117 114.436V77.8247L654.838 59.5289L686.565 77.8247V114.431ZM653.872 134.404V171.011L622.15 189.307L590.428 171.006V134.4L622.155 116.099L653.877 134.4L653.872 134.404ZM621.184 114.431L589.457 132.732L557.735 114.436V77.8247L589.457 59.5289L621.184 77.8296V114.436V114.431ZM588.491 134.404V171.011L556.769 189.307L525.047 171.006V134.4L556.774 116.099L588.495 134.4L588.491 134.404ZM555.802 114.431L524.076 132.732L492.359 114.436V77.8247L524.076 59.5289L555.802 77.8247V114.431ZM523.104 134.404V171.011L491.383 189.307L459.661 171.006V134.404L491.387 116.104L523.104 134.404ZM490.416 114.431L458.689 132.732L426.973 114.436V77.8247L458.689 59.5289L490.416 77.8247V114.431ZM457.723 134.404V171.011L426.001 189.307L394.279 171.006V134.4L426.006 116.099L457.728 134.4L457.723 134.404ZM425.035 114.431L393.308 132.732L361.591 114.436V77.8247L393.308 59.5289L425.035 77.8296V114.436V114.431ZM392.342 134.404V171.011L360.62 189.307L328.898 171.006V134.4L360.625 116.099L392.347 134.4L392.342 134.404ZM359.653 114.431L327.927 132.732L296.21 114.436V77.8247L327.927 59.5289L359.653 77.8247V114.431ZM326.955 134.404V171.011L295.234 189.307L263.512 171.006V134.4L295.239 116.099L326.955 134.4V134.404ZM294.267 114.431L262.541 132.732L230.819 114.436V77.8247L262.541 59.5289L294.267 77.8247V114.431ZM261.569 134.404V171.011L229.847 189.307L198.126 171.006V134.404L229.852 116.104L261.574 134.404H261.569ZM228.881 114.431L197.154 132.732L165.433 114.436V77.8247L197.154 59.5289L228.881 77.8247V114.431ZM196.188 134.404V171.011L164.466 189.307L132.744 171.006V134.4L164.471 116.099L196.188 134.4V134.404ZM163.5 114.431L131.773 132.732L100.056 114.436V77.8247L131.773 59.5289L163.5 77.8296V114.436V114.431ZM130.807 134.404V171.011L99.0848 189.307L67.363 171.006V134.4L99.0897 116.099L130.807 134.4V134.404ZM98.1184 114.431L66.3917 132.732L34.665 114.431V77.8247L66.3917 59.5289L98.1184 77.8247V114.431ZM98.1184 190.974V227.581L66.3917 245.876L34.665 227.581V190.974L66.3917 172.678L98.1184 190.974ZM98.1184 304.124V340.73L66.3917 359.031L34.665 340.73V304.124L66.3917 285.823L98.1184 304.124ZM98.1184 417.273V453.875L66.3917 472.176L34.665 453.875V417.273L66.3917 398.973L98.1184 417.273ZM98.1184 530.423V567.029L66.3917 585.33L34.665 567.029V530.423L66.3917 512.122L98.1184 530.423ZM67.363 586.998L99.0897 568.697L130.807 586.998V623.604L99.0848 641.905L67.363 623.604V587.003V586.998ZM100.061 567.029V530.418L131.778 512.122L163.505 530.423V567.029L131.778 585.33L100.061 567.034V567.029ZM132.749 586.998L164.476 568.697L196.193 586.998V623.604L164.471 641.9L132.749 623.599V586.998ZM165.447 567.029V530.418L197.169 512.122L228.896 530.423V567.029L197.169 585.33L165.447 567.034V567.029ZM229.862 568.697L261.584 586.998V623.604L229.862 641.9L198.14 623.599V586.998L229.867 568.697H229.862ZM230.833 567.029V530.418L262.555 512.122L294.282 530.423V567.029L262.555 585.33L230.833 567.034V567.029ZM263.522 586.998L295.248 568.697L326.965 586.998V623.604L295.243 641.9L263.522 623.599V586.998ZM296.215 567.029V530.418L327.932 512.122L359.658 530.423V567.029L327.932 585.33L296.215 567.034V567.029ZM328.903 586.998L360.63 568.697L392.351 586.998V623.604L360.63 641.905L328.908 623.604V587.003L328.903 586.998ZM361.601 567.029V530.418L393.318 512.122L425.045 530.423V567.029L393.318 585.33L361.601 567.034V567.029ZM394.289 586.998L426.016 568.697L457.738 586.998V623.604L426.016 641.9L394.294 623.599V586.998H394.289ZM426.987 567.029V530.418L458.704 512.122L490.431 530.423V567.029L458.704 585.33L426.987 567.034V567.029ZM491.402 568.697L523.119 586.998V623.604L491.397 641.9L459.675 623.599V586.998L491.402 568.697ZM492.373 567.029V530.418L524.09 512.122L555.817 530.423V567.029L524.09 585.33L492.373 567.034V567.029ZM525.062 586.998L556.788 568.697L588.51 586.998V623.604L556.788 641.905L525.066 623.604V587.003L525.062 586.998ZM557.755 567.029V530.418L589.476 512.122L621.203 530.423V567.029L589.476 585.33L557.755 567.034V567.029ZM590.443 586.998L622.17 568.697L653.891 586.998V623.604L622.17 641.9L590.448 623.599V586.998H590.443ZM623.141 567.029V530.418L654.863 512.122L686.589 530.423V567.029L654.863 585.33L623.141 567.034V567.029ZM687.556 568.697L719.273 586.998V623.604L687.551 641.9L655.829 623.599V586.998L687.556 568.697ZM688.522 567.029V530.418L720.244 512.122L751.971 530.423V567.029L720.244 585.33L688.522 567.034V567.029ZM721.21 586.998L752.937 568.697L784.654 586.998V623.604L752.932 641.9L721.21 623.599V586.998ZM753.904 567.029V530.418L785.625 512.122L817.352 530.423V567.029L785.625 585.33L753.904 567.034V567.029ZM786.592 586.998L818.318 568.697L850.04 586.998V623.604L818.318 641.905L786.597 623.604V587.003L786.592 586.998ZM819.29 567.029V530.418L851.007 512.122L882.733 530.423V567.029L851.007 585.33L819.29 567.034V567.029ZM851.978 586.998L883.705 568.697L915.422 586.998V623.604L883.7 641.9L851.978 623.599V586.998ZM884.676 567.029V530.418L916.398 512.122L948.124 530.423V567.029L916.398 585.33L884.676 567.034V567.029ZM949.091 568.697L980.813 586.998V623.604L949.091 641.9L917.369 623.599V586.998L949.096 568.697H949.091ZM950.062 567.029V530.418L981.784 512.122L1013.51 530.423V567.029L981.784 585.33L950.062 567.034V567.029ZM982.75 586.998L1014.48 568.697L1046.19 586.998V623.604L1014.47 641.9L982.75 623.599V586.998ZM1015.44 567.029V530.418L1047.17 512.122L1078.89 530.423V567.029L1047.17 585.33L1015.44 567.034V567.029ZM1048.13 586.998L1079.86 568.697L1111.58 586.998V623.604L1079.85 641.905L1048.13 623.604V587.003V586.998ZM1080.83 567.029V530.418L1112.55 512.122L1144.27 530.423V567.029L1112.55 585.33L1080.83 567.034V567.029ZM1113.52 586.998L1145.24 568.697L1176.97 586.998V623.604L1145.24 641.9L1113.52 623.599V586.998H1113.52ZM1146.22 567.029V530.418L1177.94 512.122L1209.66 530.423V567.029L1177.94 585.33L1146.22 567.034V567.029ZM1210.63 568.697L1242.35 586.998V623.604L1210.63 641.9L1178.9 623.599V586.998L1210.63 568.697ZM1211.6 567.029V530.418L1243.31 512.122L1275.04 530.423V567.029L1243.31 585.33L1211.6 567.034V567.029ZM1244.29 586.998L1276.01 568.697L1307.73 586.998V623.604L1276.01 641.905L1244.29 623.604V587.003V586.998ZM1276.98 567.029V530.418L1308.7 512.122L1340.43 530.423V567.029L1308.7 585.33L1276.98 567.034V567.029ZM1309.67 586.998L1341.4 568.697L1373.12 586.998V623.604L1341.4 641.9L1309.68 623.599V586.998H1309.67ZM1342.37 567.029V530.418L1374.09 512.122L1405.82 530.423V567.029L1374.09 585.33L1342.37 567.034V567.029ZM1438.5 473.848V510.454L1406.78 528.75L1375.06 510.45V473.848L1406.78 455.547L1438.5 473.848ZM1438.5 360.699V397.305L1406.78 415.601L1375.06 397.3V360.699L1406.78 342.398L1438.5 360.694V360.699ZM1438.5 247.549V284.155L1406.78 302.451L1375.06 284.151V247.549L1406.78 229.248L1438.5 247.544V247.549ZM1438.5 134.404V171.011L1406.78 189.307L1375.06 171.006V134.404L1406.78 116.104L1438.5 134.404ZM1406.78 2.95897L1438.5 21.2548V57.8612L1406.78 76.157L1375.06 57.8563V21.2548L1406.78 2.9541V2.95897ZM1342.37 -35.3199L1374.09 -53.6158L1405.82 -35.3151V1.29128L1374.09 19.592L1342.37 1.29615V-35.3199ZM1341.4 2.95897L1373.12 21.2548V57.8612L1341.4 76.157L1309.68 57.8563V21.25L1341.4 2.9541L1341.4 2.95897ZM1308.71 -53.6158L1340.43 -35.3151V1.29128L1308.71 19.592L1276.99 1.29615V-35.3199L1308.71 -53.6158ZM1276.02 2.95897L1307.73 21.2548V57.8612L1276.01 76.157L1244.29 57.8563V21.25L1276.02 2.9541V2.95897ZM1211.6 -35.3199L1243.32 -53.6158L1275.05 -35.3151V1.2864L1243.32 19.5871L1211.6 1.29128V-35.3199ZM1210.64 2.95897L1242.35 21.2597V57.866L1210.63 76.1619L1178.91 57.8612V21.2597L1210.64 2.95897ZM1146.22 -35.3199L1177.94 -53.6158L1209.67 -35.3151V1.2864L1177.94 19.5871L1146.22 1.29128V-35.3199ZM1145.25 2.95897L1176.97 21.2548V57.8612L1145.25 76.157L1113.53 57.8563V21.25L1145.25 2.9541L1145.25 2.95897ZM1112.56 -53.6158L1144.28 -35.3151V1.29128L1112.56 19.592L1080.84 1.29615V-35.3199L1112.56 -53.6158ZM1079.87 2.95897L1111.59 21.2548V57.8612L1079.86 76.157L1048.14 57.8563V21.25L1079.87 2.9541V2.95897ZM1015.45 -35.3199L1047.18 -53.6158L1078.9 -35.3151V1.2864L1047.18 19.5871L1015.45 1.29128V-35.3199ZM1014.49 2.95897L1046.2 21.2597V57.866L1014.48 76.1619L982.76 57.8612V21.2548L1014.49 2.9541V2.95897ZM950.072 -35.3199L981.794 -53.6158L1013.52 -35.3151V1.2864L981.794 19.5871L950.072 1.29128V-35.3199ZM949.101 2.95897L980.822 21.2548V57.8612L949.101 76.157L917.379 57.8563V21.2548L949.106 2.9541L949.101 2.95897ZM884.686 -35.3199L916.408 -53.6158L948.134 -35.3151V1.29128L916.408 19.592L884.686 1.29615V-35.3199ZM883.719 2.95897L915.436 21.2548V57.8612L883.714 76.157L851.993 57.8563V21.25L883.719 2.9541V2.95897ZM851.026 -53.6158L882.753 -35.3151V1.29128L851.026 19.592L819.309 1.29615V-35.3199L851.026 -53.6158ZM818.338 2.95897L850.06 21.2548V57.8612L818.338 76.157L786.616 57.8563V21.25L818.343 2.9541L818.338 2.95897ZM753.923 -35.3199L785.645 -53.6158L817.372 -35.3151V1.2864L785.645 19.5871L753.923 1.29128V-35.3199ZM752.957 2.95897L784.674 21.2597V57.866L752.952 76.1619L721.23 57.8612V21.2548L752.957 2.9541V2.95897ZM688.542 -35.3199L720.264 -53.6158L751.99 -35.3151V1.2864L720.264 19.5871L688.542 1.29128V-35.3199ZM687.575 2.95897L719.292 21.2548V57.8612L687.57 76.157L655.849 57.8563V21.2548L687.575 2.9541V2.95897ZM654.882 -53.6158L686.609 -35.3151V1.29128L654.882 19.592L623.16 1.29615V-35.3199L654.882 -53.6158ZM622.194 2.95897L653.916 21.2548V57.8612L622.194 76.157L590.472 57.8563V21.25L622.199 2.9541L622.194 2.95897ZM557.779 -35.3199L589.501 -53.6158L621.228 -35.3151V1.29128L589.501 19.592L557.779 1.29615V-35.3199ZM556.813 2.95897L588.534 21.2597V57.866L556.813 76.1619L525.091 57.8612V21.2548L556.818 2.9541L556.813 2.95897ZM492.398 -35.3199L524.115 -53.6158L555.841 -35.3151V1.2864L524.115 19.5871L492.398 1.29128V-35.3199ZM491.426 2.95897L523.143 21.2548V57.8612L491.422 76.157L459.7 57.8563V21.2548L491.426 2.9541V2.95897ZM427.012 -35.3199L458.728 -53.6158L490.455 -35.3151V1.29128L458.728 19.592L427.012 1.29615V-35.3199ZM426.04 2.95897L457.762 21.2548V57.8612L426.04 76.157L394.318 57.8563V21.25L426.045 2.9541L426.04 2.95897ZM393.347 -53.6158L425.074 -35.3151V1.29128L393.347 19.592L361.63 1.29615V-35.3199L393.347 -53.6158ZM360.659 2.95897L392.381 21.2548V57.8612L360.659 76.157L328.937 57.8563V21.25L360.664 2.9541L360.659 2.95897ZM296.244 -35.3199L327.961 -53.6158L359.688 -35.3151V1.2864L327.961 19.5871L296.244 1.29128V-35.3199ZM295.278 2.95897L326.995 21.2597V57.866L295.273 76.1619L263.551 57.8612V21.2548L295.278 2.9541V2.95897ZM230.863 -35.3199L262.584 -53.6158L294.311 -35.3151V1.2864L262.584 19.5871L230.863 1.29128V-35.3199ZM229.891 2.95897L261.613 21.2548V57.8612L229.891 76.157L198.17 57.8563V21.2548L229.896 2.9541L229.891 2.95897ZM165.477 -35.3199L197.198 -53.6158L228.925 -35.3151V1.29128L197.198 19.592L165.477 1.29615V-35.3199ZM164.51 2.95897L196.227 21.2548V57.8612L164.505 76.157L132.783 57.8563V21.25L164.51 2.9541V2.95897ZM131.817 -53.6158L163.544 -35.3151V1.29128L131.817 19.592L100.1 1.29615V-35.3199L131.817 -53.6158ZM99.1287 2.95897L130.846 21.2548V57.8612L99.1239 76.157L67.4021 57.8563V21.25L99.1287 2.9541V2.95897ZM34.626 -35.3151L66.3527 -53.6158L98.0793 -35.3151V1.2864L66.3527 19.5871L34.626 1.2864V-35.3151ZM1.93289 57.8612V21.2548L33.6644 2.9541L65.3862 21.2548V57.8612L33.6644 76.157L1.93289 57.8612ZM1.93289 171.011V134.404L33.6644 116.104L65.3862 134.404V171.011L33.6644 189.307L1.93289 171.011ZM1.93289 284.16V247.554L33.6644 229.253L65.3862 247.554V284.16L33.6644 302.456L1.93289 284.155V284.16ZM1.93289 397.31V360.703L33.6644 342.403L65.3862 360.703V397.31L33.6644 415.606L1.93289 397.305V397.31ZM1.93289 510.459V473.853L33.6644 455.552L65.3862 473.853V510.459L33.6644 528.755L1.93289 510.454V510.459ZM1.93289 623.604V587.003L33.6644 568.702L65.3862 587.003V623.609L33.6644 641.905L1.93289 623.599V623.604ZM65.3862 736.758L33.6644 755.054L1.93289 736.749V700.147L33.6644 681.847L65.3862 700.147V736.754V736.758ZM34.6309 680.179V643.573L66.3575 625.272L98.0842 643.573V680.179L66.3575 698.475L34.6309 680.179ZM130.772 736.754L99.0506 755.054L67.3289 736.758V700.152L99.0555 681.851L130.772 700.147V736.754ZM100.022 680.179V643.568L131.739 625.272L163.466 643.573V680.179L131.739 698.48L100.022 680.184V680.179ZM196.154 736.754L164.432 755.049L132.71 736.749V700.142L164.437 681.842L196.154 700.138V736.744V736.754ZM165.403 680.179V643.568L197.125 625.272L228.852 643.573V680.179L197.125 698.475L165.403 680.179ZM261.535 736.754L229.813 755.049L198.092 736.754V700.147L229.818 681.847L261.54 700.142V736.749L261.535 736.754ZM230.785 680.179V643.568L262.506 625.272L294.233 643.573V680.179L262.506 698.475L230.785 680.179ZM326.916 736.754L295.195 755.049L263.473 736.754V700.147L295.199 681.847L326.916 700.147V736.754ZM296.166 680.179V643.568L327.883 625.272L359.61 643.573V680.179L327.883 698.475L296.166 680.179ZM392.303 736.754L360.581 755.054L328.859 736.758V700.152L360.586 681.851L392.307 700.147V736.754H392.303ZM361.552 680.179V643.568L393.269 625.272L424.996 643.573V680.179L393.269 698.48L361.552 680.184V680.179ZM457.684 736.754L425.962 755.049L394.24 736.749V700.142L425.967 681.842L457.689 700.138V736.744L457.684 736.754ZM426.933 680.179V643.568L458.65 625.272L490.377 643.573V680.179L458.65 698.475L426.933 680.179ZM523.065 736.754L491.344 755.049L459.622 736.754V700.147L491.348 681.847L523.065 700.142V736.749V736.754ZM492.315 680.179V643.568L524.032 625.272L555.758 643.573V680.179L524.032 698.475L492.315 680.179ZM588.451 736.754L556.73 755.054L525.008 736.758V700.152L556.735 681.851L588.456 700.152V736.758L588.451 736.754ZM557.701 680.179V643.568L589.423 625.272L621.149 643.573V680.179L589.423 698.48L557.701 680.184V680.179ZM653.838 736.754L622.116 755.049L590.394 736.749V700.142L622.121 681.842L653.843 700.138V736.744L653.838 736.754ZM623.087 680.179V643.568L654.809 625.272L686.536 643.573V680.179L654.809 698.475L623.087 680.179ZM719.219 736.754L687.497 755.049L655.775 736.754V700.147L687.502 681.847L719.219 700.142V736.749V736.754ZM688.469 680.179V643.568L720.19 625.272L751.917 643.573V680.179L720.19 698.475L688.469 680.179ZM784.6 736.754L752.879 755.049L721.157 736.754V700.147L752.883 681.847L784.6 700.147V736.754ZM753.85 680.179V643.568L785.572 625.272L817.298 643.573V680.179L785.572 698.475L753.85 680.179ZM849.987 736.754L818.265 755.054L786.543 736.758V700.152L818.27 681.851L849.991 700.147V736.754H849.987ZM819.236 680.179V643.568L850.953 625.272L882.68 643.573V680.179L850.953 698.48L819.236 680.184V680.179ZM915.368 736.754L883.646 755.049L851.924 736.749V700.142L883.651 681.842L915.368 700.138V736.744V736.754ZM884.617 680.179V643.568L916.339 625.272L948.066 643.573V680.179L916.339 698.475L884.617 680.179ZM980.749 736.754L949.027 755.049L917.306 736.754V700.147L949.032 681.847L980.754 700.142V736.749L980.749 736.754ZM949.999 680.179V643.568L981.721 625.272L1013.45 643.573V680.179L981.721 698.475L949.999 680.179ZM1046.13 736.754L1014.41 755.049L982.687 736.754V700.147L1014.41 681.847L1046.13 700.147V736.754ZM1015.38 680.179V643.568L1047.1 625.272L1078.83 643.573V680.179L1047.1 698.475L1015.38 680.179ZM1111.52 736.754L1079.79 755.054L1048.07 736.758V700.152L1079.8 681.851L1111.52 700.147V736.754ZM1080.77 680.179V643.568L1112.48 625.272L1144.21 643.573V680.179L1112.48 698.48L1080.77 680.184V680.179ZM1176.9 736.754L1145.18 755.049L1113.45 736.749V700.142L1145.18 681.842L1176.9 700.138V736.744L1176.9 736.754ZM1146.15 680.179V643.568L1177.87 625.272L1209.6 643.573V680.179L1177.87 698.475L1146.15 680.179ZM1242.28 736.754L1210.56 755.049L1178.84 736.754V700.147L1210.56 681.847L1242.28 700.147V736.754ZM1211.53 680.179V643.568L1243.25 625.272L1274.97 643.573V680.179L1243.25 698.475L1211.53 680.179ZM1307.67 736.754L1275.94 755.054L1244.22 736.758V700.152L1275.95 681.851L1307.67 700.147V736.754ZM1276.92 680.179V643.568L1308.63 625.272L1340.36 643.573V680.179L1308.63 698.48L1276.92 680.184V680.179ZM1373.05 736.754L1341.33 755.049L1309.6 736.749V700.142L1341.33 681.842L1373.05 700.138V736.744L1373.05 736.754ZM1342.3 680.179V643.568L1374.02 625.272L1405.74 643.573V680.179L1374.02 698.475L1342.3 680.179ZM1438.43 736.754L1406.71 755.049L1374.98 736.754V700.147L1406.71 681.847L1438.43 700.142V736.749V736.754Z" fill="url(#paint1_linear_112_27918)"/>
</g>
<defs>
<linearGradient id="paint0_linear_112_27918" x1="22" y1="541" x2="1409" y2="168.5" gradientUnits="userSpaceOnUse">
<stop stop-color="#FFD34E" stop-opacity="0.44"/>
<stop offset="1" stop-color="#FFD34E" stop-opacity="0.06"/>
</linearGradient>
<linearGradient id="paint1_linear_112_27918" x1="283.176" y1="382.665" x2="1472.34" y2="518.285" gradientUnits="userSpaceOnUse">
<stop stop-color="#FFD34E"/>
<stop offset="1" stop-color="#FFD34E" stop-opacity="0"/>
</linearGradient>
<clipPath id="clip0_112_27918">
<rect width="1440" height="674" fill="white"/>
</clipPath>
</defs>
</svg>
