<svg width="898" height="656" viewBox="0 0 898 656" fill="none" xmlns="http://www.w3.org/2000/svg">
<path d="M1009.95 610.079L1009.48 610.349L984.76 596.078V567.52L1009.48 553.249L1009.95 553.519V521.819L1009.48 522.09L984.76 507.818V479.261L1009.48 464.989L1009.95 465.26V433.556L1009.48 433.826L984.76 419.555V390.998L1009.48 376.726L1009.95 376.996V345.293L1009.48 345.563L984.76 331.292V302.734L1009.48 288.463L1009.95 288.733V257.03L1009.48 257.3L984.76 243.029V214.471L1009.48 200.2L1009.95 200.47V168.767L1009.48 169.037L984.76 154.766V126.208L1009.48 111.937L1009.95 112.207V80.5037L1009.48 80.7738L984.76 66.5026V37.9716L1009.48 23.7004L1009.95 23.9705V0H1008.72V22.3996L984.007 36.6708L959.291 22.3958V0H957.782V22.3996L933.066 36.6708L908.351 22.3958V0H906.841V22.3996L882.126 36.6746L857.41 22.3996V0H855.9V22.3996L831.185 36.6708L806.47 22.3958V0H804.96V22.3996L780.245 36.6708L755.529 22.3958V0H754.019V22.3996L729.304 36.6746L704.589 22.3996V0H703.079V22.3996L678.364 36.6708L653.648 22.3958V0H652.138V22.3996L627.423 36.6708L602.708 22.3958V0H601.198V22.3996L576.483 36.6708L551.767 22.3958V0H550.257V22.3996L525.542 36.6746L500.827 22.3996V0H499.317V22.3996L474.601 36.6708L449.886 22.3958V0H448.376V22.3996L423.661 36.6708L398.946 22.3958V0H397.436V22.3996L372.72 36.6708L348.005 22.3958V0H346.495V22.3996L321.78 36.6746L297.064 22.3996V0H295.555V22.3996L270.839 36.6708L246.124 22.3958V0H244.614V22.3996L219.899 36.6708L195.183 22.3958V0H193.674V22.3996L168.958 36.6746L144.243 22.3996V0H142.733V22.3996L118.018 36.6708L93.3023 22.3958V0H91.7926V22.3996L67.0772 36.6708L42.3618 22.3958V0H40.852V22.3996L16.1366 36.6708L-8.57874 22.3958V0H-10.0885V22.3996L-34.8039 36.6746L-59.5193 22.3996V0H-61.029V22.3996L-85.7444 36.6708L-110.494 22.3958V0H-112V22.8294H-111.247L-111.624 23.4798L-86.524 37.9716V66.5216L-111.624 81.0172L-111.247 81.6677H-112V111.089H-111.247L-111.624 111.739L-86.524 126.231V154.785L-111.624 169.277L-111.247 169.927H-112V199.348H-111.247L-111.624 199.998L-86.524 214.49V243.044L-111.624 257.536L-111.247 258.186H-112V287.607H-111.247L-111.624 288.258L-86.524 302.75V331.303L-111.624 345.791L-111.247 346.442H-112V375.863H-111.247L-111.624 376.513L-86.524 391.005V419.555L-111.624 434.051L-111.247 434.701H-112V464.122H-111.247L-111.624 464.773L-86.524 479.264V507.818L-111.624 522.31L-111.247 522.961H-112V552.378H-111.247L-111.624 553.028L-86.524 567.52V596.074L-111.624 610.569L-111.247 611.22H-112V640.641H-111.247L-111.624 641.291L-86.1475 656L-85.771 655.35L-85.3946 656L-60.2989 641.508L-35.2032 656L-34.8267 655.35L-34.4502 656L-9.35454 641.508L15.7411 656L16.1176 655.35L16.4941 656L41.5898 641.508L66.6855 656L67.062 655.35L67.4385 656L92.5341 641.508L117.63 656L118.006 655.35L118.383 656L143.478 641.508L168.574 656L168.951 655.35L169.327 656L194.423 641.508L219.518 656L219.895 655.35L220.271 656L245.367 641.508L270.463 656L270.839 655.35L271.216 656L296.311 641.508L321.407 656L321.784 655.35L322.16 656L347.256 641.508L372.351 656L372.728 655.35L373.104 656L398.2 641.508L423.292 656L423.669 655.35L424.045 656L449.141 641.508L474.236 656L474.613 655.35L474.989 656L500.085 641.508L525.181 656L525.557 655.35L525.934 656L551.029 641.508L576.125 656L576.501 655.35L576.878 656L601.974 641.508L627.069 656L627.446 655.35L627.822 656L652.918 641.508L678.014 656L678.39 655.35L678.767 656L703.862 641.508L728.958 656L729.335 655.35L729.711 656L754.807 641.508L779.902 656L780.279 655.35L780.655 656L805.751 641.508L830.847 656L831.223 655.35L831.6 656L856.695 641.508L881.791 656L882.168 655.35L882.544 656L907.64 641.508L932.735 656L933.112 655.35L933.488 656L958.584 641.508L983.68 656L984.056 655.35L984.433 656L1009.53 641.508L1010 641.778V610.075L1009.95 610.079ZM1008.72 523.398V551.952L984.007 566.223L959.291 551.948V523.398L984.011 509.123L1008.72 523.398ZM-8.60536 346.879L16.1138 332.604L40.8254 346.875V375.429L16.11 389.701L-8.60536 375.426V346.872V346.879ZM-9.35835 345.575L-34.0699 331.303V302.746L-9.35835 288.475L15.3608 302.75V331.303L-9.35835 345.578V345.575ZM16.8706 331.303V302.746L41.586 288.475L66.3052 302.75V331.303L41.586 345.578L16.8706 331.307V331.303ZM67.0582 332.604L91.7735 346.875V375.429L67.0582 389.701L42.3428 375.426V346.875L67.062 332.6L67.0582 332.604ZM67.8149 331.303V302.746L92.5303 288.475L117.25 302.75V331.303L92.5303 345.578L67.8149 331.307V331.303ZM93.2833 346.875L118.002 332.6L142.714 346.875V375.429L117.999 389.701L93.2833 375.426V346.872V346.875ZM118.755 331.3V302.742L143.467 288.471L168.186 302.746V331.3L143.467 345.575L118.755 331.303V331.3ZM144.224 346.875L168.943 332.6L193.658 346.872V375.426L168.943 389.701L144.228 375.426V346.872L144.224 346.875ZM169.7 331.303V302.746L194.411 288.475L219.131 302.75V331.303L194.411 345.578L169.7 331.307V331.303ZM195.168 346.875L219.887 332.6L244.603 346.872V375.426L219.887 389.697L195.172 375.422V346.868L195.168 346.875ZM220.644 331.303V302.746L245.356 288.475L270.075 302.75V331.303L245.356 345.578L220.644 331.307V331.303ZM270.832 332.604L295.543 346.875V375.429L270.828 389.701L246.113 375.426V346.875L270.832 332.6V332.604ZM271.588 331.303V302.746L296.3 288.475L321.019 302.75V331.303L296.3 345.578L271.588 331.307V331.303ZM297.057 346.875L321.776 332.6L346.491 346.875V375.429L321.776 389.704L297.061 375.429V346.875H297.057ZM322.529 331.3V302.742L347.244 288.471L371.964 302.746V331.3L347.244 345.575L322.529 331.303V331.3ZM347.997 346.875L372.717 332.6L397.432 346.872V375.426L372.717 389.697L348.001 375.422V346.868L347.997 346.875ZM373.473 331.303V302.746L398.189 288.475L422.908 302.75V331.303L398.189 345.578L373.473 331.307V331.303ZM423.661 332.604L448.372 346.875V375.429L423.657 389.701L398.942 375.426V346.875L423.661 332.6V332.604ZM424.414 331.303V302.746L449.129 288.475L473.848 302.75V331.303L449.129 345.578L424.414 331.307V331.303ZM449.882 346.875L474.601 332.6L499.313 346.875V375.429L474.598 389.701L449.882 375.426V346.872V346.875ZM475.354 331.3V302.742L500.07 288.471L524.789 302.746V331.3L500.07 345.575L475.354 331.303V331.3ZM500.823 346.875L525.542 332.6L550.257 346.872V375.426L525.542 389.701L500.827 375.426V346.872L500.823 346.875ZM526.299 331.303V302.746L551.01 288.475L575.73 302.75V331.303L551.01 345.578L526.299 331.307V331.303ZM551.767 346.875L576.486 332.6L601.198 346.872V375.426L576.483 389.697L551.767 375.422V346.868V346.875ZM577.243 331.303V302.746L601.958 288.475L626.678 302.75V331.303L601.958 345.578L577.243 331.307V331.303ZM627.431 332.604L652.146 346.875V375.429L627.431 389.701L602.715 375.426V346.875L627.434 332.6L627.431 332.604ZM628.187 331.303V302.746L652.903 288.475L677.622 302.75V331.303L652.903 345.578L628.187 331.307V331.303ZM653.656 346.875L678.375 332.6L703.087 346.875V375.429L678.371 389.701L653.656 375.426V346.872V346.875ZM679.128 331.3V302.742L703.843 288.471L728.563 302.746V331.3L703.843 345.575L679.128 331.303V331.3ZM704.596 346.875L729.316 332.6L754.027 346.872V375.426L729.312 389.701L704.596 375.426V346.872V346.875ZM730.072 331.303V302.746L754.784 288.475L779.503 302.75V331.303L754.784 345.578L730.072 331.307V331.303ZM755.541 346.875L780.26 332.6L804.975 346.872V375.426L780.26 389.697L755.544 375.422V346.868L755.541 346.875ZM781.017 331.303V302.746L805.732 288.475L830.451 302.75V331.303L805.732 345.578L781.017 331.307V331.303ZM831.204 332.604L855.916 346.879V375.433L831.2 389.704L806.485 375.429V346.879L831.204 332.604ZM831.957 331.303V302.746L856.669 288.475L881.388 302.75V331.303L856.669 345.578L831.957 331.307V331.303ZM857.425 346.879L882.145 332.604L906.856 346.875V375.429L882.141 389.704L857.425 375.429V346.875V346.879ZM882.901 331.307V302.75L907.613 288.478L932.332 302.753V331.307L907.613 345.582L882.901 331.311V331.307ZM908.37 346.879L933.089 332.604L957.804 346.875V375.429L933.089 389.701L908.374 375.426V346.872L908.37 346.879ZM933.085 301.449L908.37 287.174V258.62L933.089 244.345L957.804 258.616V287.17L933.089 301.441L933.085 301.449ZM932.332 243.044L907.613 257.319L882.901 243.048V214.49L907.613 200.219L932.332 214.494V243.048V243.044ZM906.86 258.62V287.174L882.145 301.449L857.429 287.174V258.62L882.148 244.345L906.86 258.616V258.62ZM881.392 243.044L856.673 257.315L831.961 243.044V214.486L856.673 200.215L881.392 214.486V243.04V243.044ZM855.916 258.62V287.174L831.2 301.445L806.485 287.17V258.62L831.204 244.345L855.916 258.62ZM830.447 243.044L805.728 257.315L781.013 243.044V214.486L805.728 200.215L830.447 214.486V243.04V243.044ZM804.971 258.62V287.174L780.256 301.445L755.541 287.17V258.616L780.26 244.341L804.975 258.612L804.971 258.62ZM779.503 243.044L754.784 257.319L730.072 243.048V214.49L754.784 200.219L779.503 214.494V243.048V243.044ZM754.031 258.62V287.174L729.316 301.449L704.6 287.174V258.62L729.319 244.345L754.031 258.616V258.62ZM728.563 243.044L703.843 257.315L679.128 243.044V214.486L703.843 200.215L728.563 214.486V243.04V243.044ZM703.087 258.62V287.174L678.371 301.445L653.656 287.17V258.616L678.375 244.341L703.087 258.616V258.62ZM677.618 243.044L652.899 257.315L628.184 243.044V214.486L652.899 200.215L677.618 214.486V243.04V243.044ZM652.142 258.62V287.174L627.427 301.445L602.711 287.17V258.62L627.431 244.345L652.146 258.616L652.142 258.62ZM626.674 243.044L601.955 257.315L577.239 243.044V214.486L601.955 200.215L626.674 214.486V243.04V243.044ZM601.202 258.62V287.174L576.486 301.445L551.771 287.17V258.616L576.49 244.341L601.202 258.612V258.62ZM575.733 243.044L551.014 257.319L526.303 243.048V214.49L551.014 200.219L575.733 214.494V243.048V243.044ZM550.261 258.62V287.174L525.546 301.449L500.83 287.174V258.62L525.55 244.345L550.265 258.616L550.261 258.62ZM524.793 243.044L500.074 257.315L475.358 243.044V214.486L500.074 200.215L524.793 214.486V243.04V243.044ZM499.317 258.62V287.174L474.601 301.445L449.886 287.17V258.616L474.605 244.341L499.317 258.616V258.62ZM473.848 243.044L449.129 257.315L424.414 243.044V214.486L449.129 200.215L473.848 214.486V243.04V243.044ZM448.372 258.62V287.174L423.657 301.445L398.942 287.17V258.62L423.661 244.345L448.372 258.616V258.62ZM422.904 243.044L398.185 257.315L373.47 243.044V214.486L398.185 200.215L422.904 214.486V243.04V243.044ZM397.432 258.62V287.174L372.717 301.445L348.001 287.17V258.616L372.72 244.341L397.436 258.612L397.432 258.62ZM371.964 243.044L347.244 257.319L322.529 243.048V214.49L347.244 200.219L371.964 214.494V243.048V243.044ZM346.491 258.62V287.174L321.776 301.449L297.061 287.174V258.62L321.78 244.345L346.495 258.62H346.491ZM321.023 243.044L296.304 257.315L271.592 243.044V214.486L296.304 200.215L321.023 214.486V243.04V243.044ZM295.547 258.62V287.174L270.832 301.445L246.116 287.17V258.62L270.835 244.345L295.547 258.616V258.62ZM270.079 243.044L245.36 257.315L220.648 243.044V214.486L245.36 200.215L270.079 214.486V243.04V243.044ZM244.607 258.62V287.174L219.891 301.445L195.176 287.17V258.616L219.895 244.341L244.61 258.612L244.607 258.62ZM219.138 243.044L194.419 257.319L169.707 243.048V214.49L194.419 200.219L219.138 214.494V243.048V243.044ZM193.666 258.62V287.174L168.951 301.449L144.235 287.174V258.62L168.954 244.345L193.67 258.616L193.666 258.62ZM168.198 243.044L143.478 257.315L118.767 243.044V214.486L143.478 200.215L168.198 214.486V243.04V243.044ZM142.722 258.62V287.174L118.006 301.445L93.2909 287.17V258.616L118.01 244.341L142.722 258.616V258.62ZM117.253 243.044L92.5341 257.315L67.8187 243.044V214.486L92.5341 200.215L117.253 214.486V243.04V243.044ZM91.7774 258.62V287.174L67.062 301.445L42.3466 287.17V258.62L67.0658 244.345L91.7811 258.616L91.7774 258.62ZM66.309 243.044L41.5898 257.315L16.8744 243.044V214.486L41.5898 200.215L66.309 214.486V243.04V243.044ZM40.8368 258.62V287.174L16.1214 301.445L-8.59395 287.17V258.616L16.1252 244.341L40.8368 258.612V258.62ZM15.3684 243.044L-9.35073 257.319L-34.0623 243.048V214.49L-9.35073 200.219L15.3684 214.494V243.048V243.044ZM-10.1037 258.62V287.174L-34.8191 301.449L-59.5345 287.174V258.62L-34.8153 244.345L-10.1037 258.616V258.62ZM-34.8153 332.604L-10.1037 346.875V375.429L-34.8191 389.704L-59.5345 375.429V346.875L-34.8153 332.6V332.604ZM-34.8153 420.86L-10.1037 435.135V463.689L-34.8191 477.96L-59.5345 463.685V435.131L-34.8153 420.856V420.86ZM-34.0585 419.559V391.001L-9.34694 376.73L15.3722 391.005V419.555L-9.34694 433.83L-34.0585 419.559ZM-8.59014 435.135L16.129 420.86L40.8406 435.135V463.689L16.1252 477.96L-8.59014 463.685V435.131V435.135ZM16.8858 419.559V391.001L41.6012 376.73L66.3204 391.005V419.555L41.6012 433.83L16.8858 419.559ZM67.0734 420.86L91.7887 435.135V463.689L67.0734 477.96L42.358 463.685V435.135L67.0772 420.86H67.0734ZM67.8302 419.559V391.001L92.5455 376.73L117.265 391.005V419.555L92.5455 433.83L67.8302 419.559ZM93.2985 435.135L118.018 420.86L142.729 435.135V463.689L118.014 477.96L93.2985 463.685V435.131V435.135ZM118.771 419.559V391.001L143.482 376.73L168.201 391.005V419.555L143.482 433.83L118.771 419.559ZM144.239 435.135L168.958 420.86L193.674 435.135V463.689L168.958 477.96L144.243 463.685V435.131L144.239 435.135ZM169.715 419.559V391.001L194.427 376.73L219.146 391.005V419.555L194.427 433.83L169.715 419.559ZM195.183 435.135L219.903 420.86L244.618 435.135V463.689L219.903 477.96L195.187 463.685V435.131L195.183 435.135ZM220.659 419.559V391.001L245.371 376.73L270.09 391.005V419.555L245.371 433.83L220.659 419.559ZM270.847 420.86L295.558 435.135V463.689L270.843 477.96L246.128 463.685V435.135L270.847 420.86ZM271.604 419.559V391.001L296.315 376.73L321.034 391.005V419.555L296.315 433.83L271.604 419.559ZM297.072 435.135L321.791 420.86L346.507 435.135V463.689L321.791 477.96L297.076 463.685V435.131L297.072 435.135ZM322.544 419.559V391.001L347.26 376.73L371.979 391.005V419.555L347.26 433.83L322.544 419.559ZM348.013 435.135L372.732 420.86L397.447 435.135V463.689L372.732 477.96L348.016 463.685V435.131L348.013 435.135ZM373.489 419.559V391.001L398.204 376.73L422.923 391.005V419.555L398.204 433.83L373.489 419.559ZM423.676 420.86L448.388 435.135V463.689L423.672 477.96L398.957 463.685V435.135L423.676 420.86ZM424.429 419.559V391.001L449.144 376.73L473.864 391.005V419.555L449.144 433.83L424.429 419.559ZM449.897 435.135L474.617 420.86L499.328 435.135V463.689L474.613 477.96L449.897 463.685V435.131V435.135ZM475.37 419.559V391.001L500.085 376.73L524.804 391.005V419.555L500.085 433.83L475.37 419.559ZM500.838 435.135L525.557 420.86L550.273 435.135V463.689L525.557 477.96L500.842 463.685V435.131L500.838 435.135ZM526.314 419.559V391.001L551.026 376.73L575.745 391.005V419.555L551.026 433.83L526.314 419.559ZM551.782 435.135L576.501 420.86L601.213 435.135V463.689L576.498 477.96L551.782 463.685V435.131V435.135ZM577.258 419.559V391.001L601.974 376.73L626.693 391.005V419.555L601.974 433.83L577.258 419.559ZM627.446 420.86L652.161 435.135V463.689L627.446 477.96L602.73 463.685V435.135L627.45 420.86H627.446ZM628.203 419.559V391.001L652.918 376.73L677.637 391.005V419.555L652.918 433.83L628.203 419.559ZM653.671 435.135L678.39 420.86L703.102 435.135V463.689L678.386 477.96L653.671 463.685V435.131V435.135ZM679.143 419.559V391.001L703.859 376.73L728.578 391.005V419.555L703.859 433.83L679.143 419.559ZM704.612 435.135L729.331 420.86L754.042 435.135V463.689L729.327 477.96L704.612 463.685V435.131V435.135ZM730.088 419.559V391.001L754.799 376.73L779.518 391.005V419.555L754.799 433.83L730.088 419.559ZM755.556 435.135L780.275 420.86L804.99 435.135V463.689L780.275 477.96L755.56 463.685V435.131L755.556 435.135ZM781.032 419.559V391.001L805.747 376.73L830.466 391.005V419.555L805.747 433.83L781.032 419.559ZM831.219 420.86L855.931 435.135V463.689L831.216 477.96L806.5 463.685V435.135L831.219 420.86ZM831.972 419.559V391.001L856.684 376.73L881.403 391.005V419.555L856.684 433.83L831.972 419.559ZM857.441 435.135L882.16 420.86L906.871 435.135V463.689L882.156 477.96L857.441 463.685V435.131V435.135ZM882.917 419.559V391.001L907.628 376.73L932.347 391.005V419.555L907.628 433.83L882.917 419.559ZM908.385 435.135L933.104 420.86L957.82 435.135V463.689L933.104 477.96L908.389 463.685V435.131L908.385 435.135ZM933.861 419.559V391.001L958.576 376.73L983.296 391.005V419.555L958.576 433.83L933.861 419.559ZM933.861 331.303V302.746L958.576 288.475L983.296 302.75V331.303L958.576 345.578L933.861 331.307V331.303ZM933.861 243.044V214.486L958.576 200.215L983.296 214.486V243.04L958.576 257.311L933.861 243.04V243.044ZM933.861 154.785V126.227L958.576 111.956L983.296 126.227V154.781L958.576 169.056L933.861 154.785ZM957.82 170.361V198.914L933.104 213.186L908.389 198.911V170.357L933.108 156.082L957.823 170.357L957.82 170.361ZM932.351 154.781L907.632 169.056L882.92 154.785V126.227L907.632 111.956L932.351 126.231V154.785V154.781ZM906.879 170.361V198.914L882.164 213.186L857.448 198.911V170.357L882.168 156.082L906.879 170.357V170.361ZM881.411 154.781L856.692 169.056L831.98 154.785V126.227L856.692 111.956L881.411 126.227V154.781ZM855.935 170.361V198.914L831.219 213.186L806.504 198.911V170.361L831.223 156.086L855.935 170.361ZM830.466 154.781L805.747 169.056L781.032 154.785V126.227L805.747 111.956L830.466 126.227V154.781ZM804.99 170.361V198.914L780.275 213.186L755.56 198.911V170.357L780.279 156.082L804.994 170.357L804.99 170.361ZM779.522 154.781L754.803 169.056L730.091 154.785V126.227L754.803 111.956L779.522 126.231V154.785V154.781ZM754.05 170.361V198.914L729.335 213.186L704.619 198.911V170.357L729.338 156.082L754.05 170.357V170.361ZM728.582 154.781L703.862 169.056L679.147 154.785V126.227L703.862 111.956L728.582 126.227V154.781ZM703.106 170.361V198.914L678.39 213.186L653.675 198.911V170.357L678.394 156.082L703.106 170.357V170.361ZM677.637 154.781L652.918 169.056L628.203 154.785V126.227L652.918 111.956L677.637 126.227V154.781ZM652.161 170.361V198.914L627.446 213.186L602.73 198.911V170.361L627.45 156.086L652.165 170.361H652.161ZM626.693 154.781L601.974 169.056L577.258 154.785V126.227L601.974 111.956L626.693 126.227V154.781ZM601.221 170.361V198.914L576.505 213.186L551.79 198.911V170.357L576.509 156.082L601.221 170.357V170.361ZM575.752 154.781L551.033 169.056L526.322 154.785V126.227L551.033 111.956L575.752 126.231V154.785V154.781ZM550.28 170.361V198.914L525.565 213.186L500.849 198.911V170.357L525.569 156.082L550.284 170.357L550.28 170.361ZM524.812 154.781L500.093 169.056L475.377 154.785V126.227L500.093 111.956L524.812 126.227V154.781ZM499.336 170.361V198.914L474.62 213.186L449.905 198.911V170.357L474.624 156.082L499.336 170.357V170.361ZM473.867 154.781L449.148 169.056L424.433 154.785V126.227L449.148 111.956L473.867 126.227V154.781ZM448.391 170.361V198.914L423.676 213.186L398.961 198.911V170.361L423.68 156.086L448.391 170.361ZM422.923 154.781L398.204 169.056L373.489 154.785V126.227L398.204 111.956L422.923 126.227V154.781ZM397.451 170.361V198.914L372.736 213.186L348.02 198.911V170.357L372.739 156.082L397.455 170.357L397.451 170.361ZM371.983 154.781L347.263 169.056L322.548 154.785V126.227L347.263 111.956L371.983 126.231V154.785V154.781ZM346.51 170.361V198.914L321.795 213.186L297.08 198.911V170.357L321.799 156.082L346.514 170.357L346.51 170.361ZM321.042 154.781L296.323 169.056L271.611 154.785V126.227L296.323 111.956L321.042 126.227V154.781ZM295.566 170.361V198.914L270.851 213.186L246.135 198.911V170.361L270.855 156.086L295.566 170.361ZM270.098 154.781L245.379 169.056L220.667 154.785V126.227L245.379 111.956L270.098 126.227V154.781ZM244.626 170.361V198.914L219.91 213.186L195.195 198.911V170.357L219.914 156.082L244.629 170.357L244.626 170.361ZM219.157 154.781L194.438 169.056L169.726 154.785V126.227L194.438 111.956L219.157 126.231V154.785V154.781ZM193.685 170.361V198.914L168.97 213.186L144.254 198.911V170.357L168.973 156.082L193.689 170.357L193.685 170.361ZM168.217 154.781L143.497 169.056L118.786 154.785V126.227L143.497 111.956L168.217 126.227V154.781ZM142.741 170.361V198.914L118.025 213.186L93.3099 198.911V170.357L118.029 156.082L142.741 170.357V170.361ZM117.272 154.781L92.5531 169.056L67.8378 154.785V126.227L92.5531 111.956L117.272 126.227V154.781ZM91.7964 170.361V198.914L67.081 213.186L42.3656 198.911V170.361L67.0848 156.086L91.8002 170.361H91.7964ZM66.328 154.781L41.6088 169.056L16.8934 154.785V126.227L41.6088 111.956L66.328 126.227V154.781ZM40.8558 170.361V198.914L16.1404 213.186L-8.57494 198.911V170.357L16.1442 156.082L40.8558 170.357V170.361ZM15.3875 154.781L-9.33172 169.056L-34.0433 154.785V126.227L-9.33172 111.956L15.3875 126.231V154.785V154.781ZM-10.0847 170.361V198.914L-34.8001 213.186L-59.5155 198.911V170.357L-34.7963 156.082L-10.0847 170.357V170.361ZM-35.5531 154.781L-60.2723 169.056L-84.9914 154.781V126.227L-60.2723 111.956L-35.5531 126.227V154.781ZM-35.5531 214.486V243.04L-60.2723 257.311L-84.9914 243.04V214.486L-60.2723 200.215L-35.5531 214.486ZM-35.5531 302.746V331.3L-60.2723 345.575L-84.9914 331.3V302.746L-60.2723 288.471L-35.5531 302.746ZM-35.5531 391.005V419.555L-60.2723 433.83L-84.9914 419.555V391.005L-60.2723 376.73L-35.5531 391.005ZM-35.5531 479.264V507.818L-60.2723 522.093L-84.9914 507.818V479.264L-60.2723 464.989L-35.5531 479.264ZM-59.5155 523.394L-34.7963 509.119L-10.0847 523.394V551.948L-34.8001 566.223L-59.5155 551.948V523.398V523.394ZM-34.0395 507.818V479.261L-9.32792 464.989L15.3913 479.264V507.818L-9.32792 522.093L-34.0395 507.822V507.818ZM-8.57113 523.394L16.148 509.119L40.8596 523.394V551.948L16.1442 566.219L-8.57113 551.944V523.394ZM16.9048 507.818V479.261L41.6202 464.989L66.3394 479.264V507.818L41.6202 522.093L16.9048 507.822V507.818ZM67.0924 509.119L91.8078 523.394V551.948L67.0924 566.219L42.377 551.944V523.394L67.0962 509.119H67.0924ZM67.8492 507.818V479.261L92.5645 464.989L117.284 479.264V507.818L92.5645 522.093L67.8492 507.822V507.818ZM93.3175 523.394L118.037 509.119L142.748 523.394V551.948L118.033 566.219L93.3175 551.944V523.394ZM118.79 507.818V479.261L143.501 464.989L168.22 479.264V507.818L143.501 522.093L118.79 507.822V507.818ZM144.258 523.394L168.977 509.119L193.693 523.394V551.948L168.977 566.223L144.262 551.948V523.398L144.258 523.394ZM169.734 507.818V479.261L194.446 464.989L219.165 479.264V507.818L194.446 522.093L169.734 507.822V507.818ZM195.202 523.394L219.922 509.119L244.637 523.394V551.948L219.922 566.219L195.206 551.944V523.394H195.202ZM220.678 507.818V479.261L245.39 464.989L270.109 479.264V507.818L245.39 522.093L220.678 507.822V507.818ZM270.866 509.119L295.577 523.394V551.948L270.862 566.219L246.147 551.944V523.394L270.866 509.119ZM271.623 507.818V479.261L296.334 464.989L321.053 479.264V507.818L296.334 522.093L271.623 507.822V507.818ZM297.091 523.394L321.81 509.119L346.526 523.394V551.948L321.81 566.223L297.095 551.948V523.398L297.091 523.394ZM322.563 507.818V479.261L347.279 464.989L371.998 479.264V507.818L347.279 522.093L322.563 507.822V507.818ZM348.032 523.394L372.751 509.119L397.466 523.394V551.948L372.751 566.219L348.035 551.944V523.394H348.032ZM373.508 507.818V479.261L398.223 464.989L422.942 479.264V507.818L398.223 522.093L373.508 507.822V507.818ZM423.695 509.119L448.407 523.394V551.948L423.691 566.219L398.976 551.944V523.394L423.695 509.119ZM424.448 507.818V479.261L449.163 464.989L473.883 479.264V507.818L449.163 522.093L424.448 507.822V507.818ZM449.916 523.394L474.636 509.119L499.347 523.394V551.948L474.632 566.219L449.916 551.944V523.394ZM475.389 507.818V479.261L500.104 464.989L524.823 479.264V507.818L500.104 522.093L475.389 507.822V507.818ZM500.857 523.394L525.576 509.119L550.292 523.394V551.948L525.576 566.223L500.861 551.948V523.398L500.857 523.394ZM526.333 507.818V479.261L551.045 464.989L575.764 479.264V507.818L551.045 522.093L526.333 507.822V507.818ZM551.801 523.394L576.521 509.119L601.232 523.394V551.948L576.517 566.219L551.801 551.944V523.394ZM577.277 507.818V479.261L601.993 464.989L626.712 479.264V507.818L601.993 522.093L577.277 507.822V507.818ZM627.465 509.119L652.18 523.394V551.948L627.465 566.219L602.749 551.944V523.394L627.469 509.119H627.465ZM628.222 507.818V479.261L652.937 464.989L677.656 479.264V507.818L652.937 522.093L628.222 507.822V507.818ZM653.69 523.394L678.409 509.119L703.121 523.394V551.948L678.405 566.219L653.69 551.944V523.394ZM679.162 507.818V479.261L703.878 464.989L728.597 479.264V507.818L703.878 522.093L679.162 507.822V507.818ZM704.631 523.394L729.35 509.119L754.061 523.394V551.948L729.346 566.223L704.631 551.948V523.398V523.394ZM730.107 507.818V479.261L754.818 464.989L779.537 479.264V507.818L754.818 522.093L730.107 507.822V507.818ZM755.575 523.394L780.294 509.119L805.009 523.394V551.948L780.294 566.219L755.579 551.944V523.394H755.575ZM781.051 507.818V479.261L805.766 464.989L830.485 479.264V507.818L805.766 522.093L781.051 507.822V507.818ZM831.238 509.119L855.95 523.394V551.948L831.235 566.219L806.519 551.944V523.394L831.238 509.119ZM831.991 507.818V479.261L856.703 464.989L881.422 479.264V507.818L856.703 522.093L831.991 507.822V507.818ZM857.46 523.394L882.179 509.119L906.89 523.394V551.948L882.175 566.223L857.46 551.948V523.398V523.394ZM882.936 507.818V479.261L907.647 464.989L932.366 479.264V507.818L907.647 522.093L882.936 507.822V507.818ZM908.404 523.394L933.123 509.119L957.839 523.394V551.948L933.123 566.219L908.408 551.944V523.394H908.404ZM933.88 507.818V479.261L958.595 464.989L983.315 479.264V507.818L958.595 522.093L933.88 507.822V507.818ZM1008.78 435.135V463.689L984.064 477.96L959.348 463.685V435.135L984.068 420.86L1008.78 435.135ZM1008.78 346.875V375.429L984.064 389.701L959.348 375.426V346.875L984.068 332.6L1008.78 346.872V346.875ZM1008.78 258.616V287.17L984.064 301.441L959.348 287.166V258.616L984.068 244.341L1008.78 258.612V258.616ZM1008.78 170.361V198.914L984.064 213.186L959.348 198.911V170.361L984.068 156.086L1008.78 170.361ZM984.068 67.8301L1008.78 82.1013V110.655L984.064 124.926L959.348 110.651V82.1013L984.068 67.8263V67.8301ZM933.88 37.9716L958.595 23.7004L983.315 37.9754V66.5292L958.595 80.8042L933.88 66.533V37.9716ZM933.123 67.8301L957.839 82.1013V110.655L933.123 124.926L908.408 110.651V82.0975L933.127 67.8263L933.123 67.8301ZM907.651 23.7004L932.37 37.9754V66.5292L907.651 80.8042L882.94 66.533V37.9716L907.651 23.7004ZM882.183 67.8301L906.894 82.1013V110.655L882.179 124.926L857.464 110.651V82.0975L882.183 67.8263V67.8301ZM831.995 37.9716L856.707 23.7004L881.426 37.9754V66.5254L856.707 80.8004L831.995 66.5292V37.9716ZM831.242 67.8301L855.954 82.1051V110.659L831.238 124.93L806.523 110.655V82.1051L831.242 67.8301ZM781.055 37.9716L805.77 23.7004L830.489 37.9754V66.5254L805.77 80.8004L781.055 66.5292V37.9716ZM780.298 67.8301L805.013 82.1013V110.655L780.298 124.926L755.583 110.651V82.0975L780.302 67.8263L780.298 67.8301ZM754.826 23.7004L779.545 37.9754V66.5292L754.826 80.8042L730.114 66.533V37.9716L754.826 23.7004ZM729.357 67.8301L754.069 82.1013V110.655L729.354 124.926L704.638 110.651V82.0975L729.357 67.8263V67.8301ZM679.17 37.9716L703.885 23.7004L728.604 37.9754V66.5254L703.885 80.8004L679.17 66.5292V37.9716ZM678.417 67.8301L703.128 82.1051V110.659L678.413 124.93L653.698 110.655V82.1013L678.417 67.8263V67.8301ZM628.229 37.9716L652.945 23.7004L677.664 37.9754V66.5254L652.945 80.8004L628.229 66.5292V37.9716ZM627.472 67.8301L652.188 82.1013V110.655L627.472 124.926L602.757 110.651V82.1013L627.476 67.8263L627.472 67.8301ZM577.285 37.9716L602 23.7004L626.719 37.9754V66.5292L602 80.8042L577.285 66.533V37.9716ZM576.532 67.8301L601.244 82.1013V110.655L576.528 124.926L551.813 110.651V82.0975L576.532 67.8263V67.8301ZM551.06 23.7004L575.779 37.9754V66.5292L551.06 80.8042L526.348 66.533V37.9716L551.06 23.7004ZM525.591 67.8301L550.307 82.1013V110.655L525.591 124.926L500.876 110.651V82.0975L525.595 67.8263L525.591 67.8301ZM475.404 37.9716L500.119 23.7004L524.838 37.9754V66.5254L500.119 80.8004L475.404 66.5292V37.9716ZM474.651 67.8301L499.362 82.1051V110.659L474.647 124.93L449.932 110.655V82.1013L474.651 67.8263V67.8301ZM424.463 37.9716L449.179 23.7004L473.898 37.9754V66.5254L449.179 80.8004L424.463 66.5292V37.9716ZM423.71 67.8301L448.422 82.1013V110.655L423.707 124.926L398.991 110.651V82.1013L423.71 67.8263V67.8301ZM398.238 23.7004L422.957 37.9754V66.5292L398.238 80.8042L373.523 66.533V37.9716L398.238 23.7004ZM372.77 67.8301L397.485 82.1013V110.655L372.77 124.926L348.054 110.651V82.0975L372.774 67.8263L372.77 67.8301ZM322.582 37.9716L347.298 23.7004L372.017 37.9754V66.5292L347.298 80.8042L322.582 66.533V37.9716ZM321.829 67.8301L346.545 82.1051V110.659L321.829 124.93L297.114 110.655V82.1013L321.833 67.8263L321.829 67.8301ZM271.642 37.9716L296.353 23.7004L321.072 37.9754V66.5254L296.353 80.8004L271.642 66.5292V37.9716ZM270.885 67.8301L295.597 82.1013V110.655L270.881 124.926L246.166 110.651V82.1013L270.885 67.8263V67.8301ZM220.697 37.9716L245.409 23.7004L270.128 37.9754V66.5292L245.409 80.8042L220.697 66.533V37.9716ZM219.941 67.8301L244.656 82.1013V110.655L219.941 124.926L195.225 110.651V82.0975L219.944 67.8263L219.941 67.8301ZM194.468 23.7004L219.188 37.9754V66.5292L194.468 80.8042L169.757 66.533V37.9716L194.468 23.7004ZM169 67.8301L193.715 82.1013V110.655L169 124.926L144.285 110.651V82.0975L169.004 67.8263L169 67.8301ZM118.813 37.9716L143.524 23.7004L168.243 37.9754V66.5254L143.524 80.8004L118.813 66.5292V37.9716ZM118.06 67.8301L142.771 82.1051V110.659L118.056 124.93L93.3404 110.655V82.1013L118.06 67.8263V67.8301ZM67.872 37.9716L92.5874 23.7004L117.307 37.9754V66.5254L92.5874 80.8004L67.872 66.5292V37.9716ZM67.1152 67.8301L91.8306 82.1013V110.655L67.1152 124.926L42.3998 110.651V82.1013L67.119 67.8263L67.1152 67.8301ZM16.9276 37.9716L41.643 23.7004L66.3622 37.9754V66.5292L41.643 80.8042L16.9276 66.533V37.9716ZM16.1747 67.8301L40.8862 82.1013V110.655L16.1709 124.926L-8.54451 110.651V82.0975L16.1747 67.8263V67.8301ZM-9.2975 23.7004L15.4217 37.9754V66.5292L-9.2975 80.8042L-34.0091 66.533V37.9716L-9.2975 23.7004ZM-34.7659 67.8301L-10.0543 82.1013V110.655L-34.7697 124.926L-59.485 110.651V82.0975L-34.7659 67.8263V67.8301ZM-85.0219 37.9754L-60.3027 23.7004L-35.5835 37.9754V66.5254L-60.3027 80.8004L-85.0219 66.5254V37.9754ZM-110.494 110.655V82.1013L-85.771 67.8263L-61.0557 82.1013V110.655L-85.771 124.926L-110.494 110.655ZM-110.494 198.914V170.361L-85.771 156.086L-61.0557 170.361V198.914L-85.771 213.186L-110.494 198.914ZM-110.494 287.174V258.62L-85.771 244.345L-61.0557 258.62V287.174L-85.771 301.445L-110.494 287.17V287.174ZM-110.494 375.433V346.879L-85.771 332.604L-61.0557 346.879V375.433L-85.771 389.704L-110.494 375.429V375.433ZM-110.494 463.692V435.139L-85.771 420.864L-61.0557 435.139V463.692L-85.771 477.964L-110.494 463.689V463.692ZM-110.494 551.948V523.398L-85.771 509.123L-61.0557 523.398V551.952L-85.771 566.223L-110.494 551.944V551.948ZM-61.0557 640.211L-85.771 654.482L-110.494 640.204V611.653L-85.771 597.379L-61.0557 611.653V640.207V640.211ZM-85.0181 596.078V567.524L-60.2989 553.249L-35.5797 567.524V596.078L-60.2989 610.349L-85.0181 596.078ZM-10.1113 640.207L-34.8267 654.482L-59.5421 640.211V611.657L-34.8229 597.382L-10.1113 611.653V640.207ZM-34.0699 596.078V567.52L-9.35835 553.249L15.3608 567.524V596.078L-9.35835 610.353L-34.0699 596.081V596.078ZM40.8292 640.207L16.1138 654.479L-8.60155 640.204V611.65L16.1176 597.375L40.8292 611.646V640.2V640.207ZM16.8706 596.078V567.52L41.586 553.249L66.3052 567.524V596.078L41.586 610.349L16.8706 596.078ZM91.7697 640.207L67.0543 654.479L42.339 640.207V611.653L67.0582 597.379L91.7735 611.65V640.204L91.7697 640.207ZM67.8111 596.078V567.52L92.5265 553.249L117.246 567.524V596.078L92.5265 610.349L67.8111 596.078ZM142.71 640.207L117.995 654.479L93.2795 640.207V611.653L117.999 597.379L142.71 611.653V640.207ZM118.752 596.078V567.52L143.463 553.249L168.182 567.524V596.078L143.463 610.349L118.752 596.078ZM193.655 640.207L168.939 654.482L144.224 640.211V611.657L168.943 597.382L193.658 611.653V640.207H193.655ZM169.696 596.078V567.52L194.408 553.249L219.127 567.524V596.078L194.408 610.353L169.696 596.081V596.078ZM244.595 640.207L219.88 654.479L195.164 640.204V611.65L219.884 597.375L244.599 611.646V640.2L244.595 640.207ZM220.637 596.078V567.52L245.348 553.249L270.067 567.524V596.078L245.348 610.349L220.637 596.078ZM295.536 640.207L270.82 654.479L246.105 640.207V611.653L270.824 597.379L295.536 611.65V640.204V640.207ZM271.577 596.078V567.52L296.289 553.249L321.008 567.524V596.078L296.289 610.349L271.577 596.078ZM346.48 640.207L321.765 654.482L297.049 640.211V611.657L321.768 597.382L346.484 611.657V640.211L346.48 640.207ZM322.521 596.078V567.52L347.237 553.249L371.956 567.524V596.078L347.237 610.353L322.521 596.081V596.078ZM397.424 640.207L372.709 654.479L347.994 640.204V611.65L372.713 597.375L397.428 611.646V640.2L397.424 640.207ZM373.466 596.078V567.52L398.181 553.249L422.9 567.524V596.078L398.181 610.349L373.466 596.078ZM448.365 640.207L423.649 654.479L398.934 640.207V611.653L423.653 597.379L448.365 611.65V640.204V640.207ZM424.406 596.078V567.52L449.122 553.249L473.841 567.524V596.078L449.122 610.349L424.406 596.078ZM499.305 640.207L474.59 654.479L449.875 640.207V611.653L474.594 597.379L499.305 611.653V640.207ZM475.347 596.078V567.52L500.062 553.249L524.781 567.524V596.078L500.062 610.349L475.347 596.078ZM550.25 640.207L525.534 654.482L500.819 640.211V611.657L525.538 597.382L550.254 611.653V640.207H550.25ZM526.291 596.078V567.52L551.003 553.249L575.722 567.524V596.078L551.003 610.353L526.291 596.081V596.078ZM601.19 640.207L576.475 654.479L551.76 640.204V611.65L576.479 597.375L601.19 611.646V640.2V640.207ZM577.232 596.078V567.52L601.947 553.249L626.666 567.524V596.078L601.947 610.349L577.232 596.078ZM652.131 640.207L627.415 654.479L602.7 640.207V611.653L627.419 597.379L652.135 611.65V640.204L652.131 640.207ZM628.172 596.078V567.52L652.888 553.249L677.607 567.524V596.078L652.888 610.349L628.172 596.078ZM703.071 640.207L678.356 654.479L653.641 640.207V611.653L678.36 597.379L703.071 611.653V640.207ZM679.113 596.078V567.52L703.828 553.249L728.547 567.524V596.078L703.828 610.349L679.113 596.078ZM754.016 640.207L729.3 654.482L704.585 640.211V611.657L729.304 597.382L754.016 611.653V640.207ZM730.057 596.078V567.52L754.769 553.249L779.488 567.524V596.078L754.769 610.353L730.057 596.081V596.078ZM804.956 640.207L780.241 654.479L755.525 640.204V611.65L780.245 597.375L804.96 611.646V640.2L804.956 640.207ZM780.998 596.078V567.52L805.713 553.249L830.432 567.524V596.078L805.713 610.349L780.998 596.078ZM855.897 640.207L831.181 654.479L806.466 640.207V611.653L831.185 597.379L855.897 611.653V640.207ZM831.938 596.078V567.52L856.65 553.249L881.369 567.524V596.078L856.65 610.349L831.938 596.078ZM906.841 640.207L882.126 654.482L857.41 640.211V611.657L882.13 597.382L906.841 611.653V640.207ZM882.883 596.078V567.52L907.594 553.249L932.313 567.524V596.078L907.594 610.353L882.883 596.081V596.078ZM957.782 640.207L933.066 654.479L908.351 640.204V611.65L933.07 597.375L957.785 611.646V640.2L957.782 640.207ZM933.823 596.078V567.52L958.538 553.249L983.258 567.524V596.078L958.538 610.349L933.823 596.078ZM1008.72 640.207L984.007 654.479L959.291 640.207V611.653L984.011 597.379L1008.72 611.65V640.204V640.207Z" fill="url(#paint0_linear_154_3291)"/>
<defs>
<linearGradient id="paint0_linear_154_3291" x1="851.5" y1="613.5" x2="73.5" y2="52.0001" gradientUnits="userSpaceOnUse">
<stop stop-color="#FFD34E" stop-opacity="0.69"/>
<stop offset="0.384164" stop-color="#FFD34E" stop-opacity="0.47"/>
<stop offset="1" stop-color="#FFD34E" stop-opacity="0"/>
</linearGradient>
</defs>
</svg>
