<svg width="226" height="97" viewBox="0 0 226 97" fill="none" xmlns="http://www.w3.org/2000/svg">
<g clip-path="url(#clip0_24_26482)">
<path d="M197.11 57.0971C208.992 56.2873 218.119 48.2436 217.494 39.1311C216.869 30.0185 206.73 23.2878 194.848 24.0976C182.965 24.9073 173.839 32.951 174.464 42.0635C175.088 51.1761 185.227 57.9068 197.11 57.0971Z" fill="#FFD34E"/>
<path d="M214.616 31.7993C214.493 40.4661 205.625 47.9226 194.206 48.6993C185.852 49.2686 178.366 46.1057 174.436 41.0141C174.43 41.3679 174.436 41.7217 174.46 42.0782C175.084 51.1919 185.222 57.9221 197.106 57.1134C208.989 56.3047 218.116 48.2631 217.492 39.1493C217.308 36.444 216.278 33.9514 214.618 31.7993H214.616Z" fill="#F0B900"/>
<path d="M210.8 36.835C210.891 38.1412 209.901 39.2717 208.591 39.3595C207.289 39.4473 206.147 38.463 206.059 37.1569C205.969 35.8508 206.967 34.7202 208.269 34.6324C209.579 34.542 210.712 35.5289 210.8 36.835Z" fill="#592B02"/>
<path d="M221.979 17.3706C219.904 17.5116 218.338 19.3019 218.479 21.3715C218.479 21.4087 218.498 21.438 218.5 21.4752C216.12 22.8505 214.13 24.5663 212.575 26.62C210.822 25.367 208.826 24.3269 206.641 23.5422C208.306 22.4116 209.677 20.8847 210.64 19.0518C212.188 16.1017 212.497 12.7339 211.505 9.55503C209.458 2.99507 202.434 -0.686598 195.854 1.36439C193.282 2.16244 191.095 3.74524 189.526 5.87071C187.055 3.33823 183.528 1.86184 179.726 2.12254C172.856 2.59072 167.64 8.54417 168.11 15.4021C168.55 21.845 173.846 26.8195 180.183 27.0084C175.402 30.4373 172.331 35.2602 172.067 40.522L170.981 41.1259L169.719 41.8255C169.182 42.1208 169.228 42.7619 169.799 42.98L171.143 43.504L172.301 43.9563C173.401 49.7927 177.968 54.6023 184.259 57.2092C184.267 57.2225 184.27 57.2385 184.278 57.2465L184.315 57.2358C188.152 58.8186 192.618 59.5847 197.33 59.2629C210.539 58.3637 220.723 49.2633 220.018 38.9764C219.746 34.9889 217.871 31.4056 214.914 28.5566C216.232 26.7902 217.94 25.3005 219.997 24.1061C220.696 24.6275 221.56 24.9175 222.492 24.8536C224.567 24.7126 226.133 22.9224 225.992 20.8581C225.851 18.7885 224.055 17.2269 221.979 17.3679V17.3706ZM175.108 42.0356C174.788 37.367 177.266 32.9884 181.434 29.8202C180.436 37.7953 180.972 45.6561 183.056 53.2934C178.488 50.7211 175.428 46.7095 175.108 42.0356ZM181.223 23.9625C176.018 24.3163 171.496 20.3819 171.141 15.1946C170.786 10.0073 174.732 5.49562 179.934 5.14182C183.147 4.92369 186.09 6.33091 187.96 8.66388C188.36 9.16133 188.715 9.69868 189.014 10.2759C189.577 11.3746 189.934 12.6036 190.022 13.9097L190.612 22.534C190.222 22.6138 189.838 22.7016 189.457 22.7947C188.56 23.0234 187.68 23.2788 186.823 23.5821L181.218 23.9625H181.223ZM196.471 56.2728C193.875 56.3899 191.377 56.1478 189.059 55.6025L189.296 55.5253C186.079 46.2281 185.415 36.5025 187.317 26.6226C187.354 26.604 187.392 26.596 187.429 26.5774C188.371 26.2316 189.355 25.939 190.366 25.6942C190.852 25.5692 191.348 25.4681 191.858 25.3724C192.503 25.2527 193.16 25.1622 193.832 25.0851C194.005 25.0664 194.179 25.0531 194.36 25.0345C194.27 25.4947 194.203 25.9629 194.12 26.4231C194.029 26.9764 193.944 27.5351 193.869 28.0857C192.551 37.6065 193.418 47.0554 196.468 56.2728H196.471ZM193.627 22.0631L193.053 13.7022C192.922 11.7843 192.343 10.0099 191.452 8.44042C192.607 6.50915 194.44 4.97423 196.759 4.25599C197.482 4.03253 198.202 3.89952 198.931 3.84898C203.194 3.55902 207.281 6.20855 208.607 10.4595C210.157 15.4234 207.369 20.7277 202.391 22.2706L202.129 22.3504C199.787 21.9328 197.311 21.7891 194.774 21.962C194.387 21.9886 194.003 22.0232 193.624 22.0631H193.627ZM216.99 39.1839C217.497 46.5845 210.993 53.2722 201.839 55.512C198.514 45.9886 197.738 36.1833 199.528 26.3274C199.606 25.9124 199.691 25.4894 199.776 25.0744C200.641 25.1596 201.494 25.2899 202.322 25.4628C210.443 27.1334 216.531 32.4777 216.99 39.1839Z" fill="#592B02"/>
<path d="M202.391 22.2706L202.129 22.3504C199.787 21.9328 197.311 21.7892 194.774 21.9621C194.387 21.9887 194.003 22.0232 193.624 22.0632L193.05 13.7023C192.92 11.7843 192.341 10.0099 191.449 8.44045C192.605 6.50917 194.438 4.97426 196.756 4.25601C197.479 4.03256 198.199 3.89955 198.928 3.84901C203.191 3.55905 207.279 6.20857 208.605 10.4595C210.155 15.4234 207.367 20.7277 202.388 22.2706H202.391Z" fill="#CEEAF2"/>
<path d="M190.022 13.9071L190.612 22.5313C190.222 22.6111 189.838 22.6989 189.457 22.792C188.56 23.0208 187.68 23.2762 186.823 23.5794L181.218 23.9598C176.013 24.3136 171.49 20.3793 171.135 15.1919C170.781 10.0046 174.727 5.49298 179.929 5.13918C183.141 4.92104 186.084 6.32827 187.954 8.66123C188.355 9.15868 188.71 9.69604 189.008 10.2733C189.571 11.3719 189.929 12.6009 190.017 13.9071H190.022Z" fill="#CEEAF2"/>
<path d="M179.561 8.55217C180.393 9.78649 179.716 11.6938 178.048 12.8111C176.381 13.9284 174.353 13.8353 173.521 12.6009C172.688 11.3666 173.366 9.45929 175.033 8.34202C176.701 7.22475 178.729 7.31785 179.561 8.55217Z" fill="white"/>
<path d="M199.696 6.39744C200.462 7.53067 199.838 9.28372 198.306 10.3105C196.772 11.3374 194.91 11.2496 194.147 10.1164C193.381 8.98312 194.005 7.23007 195.537 6.20325C197.071 5.17643 198.933 5.26421 199.696 6.39744Z" fill="white"/>
<path d="M36.5488 54.3628C36.6608 54.7645 36.4207 55.1821 36.0178 55.2939C35.9511 55.3125 35.8818 55.3205 35.8151 55.3205C35.4816 55.3205 35.1748 55.0997 35.0841 54.7645C34.7372 53.5062 34.361 52.3092 33.9635 51.2079C33.8221 50.8142 34.0275 50.3806 34.4224 50.2396C34.8173 50.0986 35.2521 50.3034 35.3935 50.6971C35.8017 51.8357 36.1913 53.07 36.5488 54.3655V54.3628ZM29.4786 40.7082C29.1798 40.4156 28.6996 40.4182 28.4061 40.7162C28.1126 41.0141 28.1153 41.4929 28.4141 41.7856C29.2332 42.5916 30.0095 43.536 30.7219 44.5894C30.8686 44.8075 31.1088 44.9246 31.3515 44.9246C31.4983 44.9246 31.645 44.882 31.7757 44.7942C32.1226 44.5601 32.216 44.0893 31.9812 43.7434C31.2128 42.6049 30.3697 41.586 29.4813 40.7082H29.4786ZM22.6379 36.7898C21.3466 36.4599 19.9966 36.3216 18.6546 36.3828C18.2357 36.4014 17.9102 36.7552 17.9289 37.1728C17.9476 37.5905 18.3104 37.931 18.7186 37.8964C19.9139 37.8459 21.1118 37.9656 22.2617 38.2582C22.3257 38.2741 22.3871 38.2821 22.4511 38.2821C22.79 38.2821 23.0994 38.0534 23.1848 37.7129C23.2889 37.3085 23.0434 36.8962 22.6379 36.7924V36.7898ZM38.1869 61.8193C38.1096 61.4069 37.712 61.1356 37.3012 61.2154C36.8903 61.2925 36.6181 61.6889 36.6955 62.0986C36.9516 63.4553 37.2051 64.6789 37.4692 65.8361C37.5493 66.1872 37.8614 66.424 38.2083 66.424C38.2643 66.424 38.3203 66.4187 38.379 66.4054C38.7872 66.3123 39.0434 65.9053 38.95 65.4983C38.6885 64.3597 38.4404 63.1573 38.1869 61.8193ZM68.8608 77.4584C68.1831 78.4506 67.3934 79.3817 66.5156 80.2302C66.2141 80.5229 66.2088 81.0017 66.4996 81.2996C66.649 81.4539 66.8465 81.5284 67.0439 81.5284C67.2413 81.5284 67.4254 81.4566 67.5722 81.3156C68.522 80.3978 69.3757 79.3843 70.1121 78.3096C70.3495 77.9638 70.2588 77.4929 69.912 77.2589C69.5651 77.0248 69.0929 77.1125 68.8581 77.4584H68.8608ZM41.071 72.6541C40.9216 72.2631 40.4814 72.0689 40.0919 72.2178C39.6997 72.3668 39.5049 72.8057 39.6543 73.1941C40.1399 74.4604 40.6735 75.6495 41.2364 76.7295C41.3725 76.9875 41.6366 77.1365 41.9114 77.1365C42.0288 77.1365 42.1489 77.1099 42.2609 77.0514C42.6318 76.8572 42.7759 76.3996 42.5838 76.0299C42.0475 75.003 41.5379 73.8671 41.071 72.6541ZM60.4273 84.1114C59.2694 84.5424 58.0928 84.8244 56.9295 84.9547C56.5133 85.0026 56.2119 85.375 56.2599 85.7926C56.3026 86.1784 56.6307 86.4657 57.0123 86.4657C57.0416 86.4657 57.0683 86.4657 57.0976 86.4604C58.3863 86.3167 59.6856 86.0055 60.9582 85.5293C61.3504 85.383 61.5505 84.9467 61.4038 84.5557C61.257 84.1646 60.8221 83.9678 60.4273 84.1114ZM65.2403 35.7922C65.147 35.3613 65.0669 34.925 64.9975 34.4861C64.9335 34.0737 64.5467 33.7891 64.1304 33.853C63.7169 33.9168 63.4314 34.3025 63.4955 34.7175C63.5675 35.1884 63.6555 35.6539 63.7543 36.1141C63.9197 36.8829 64.1278 37.6863 64.3679 38.5003C64.4639 38.8301 64.7681 39.0429 65.0963 39.0429C65.1683 39.0429 65.2403 39.0323 65.3097 39.011C65.7126 38.894 65.942 38.4737 65.8246 38.072C65.5952 37.2925 65.3977 36.5238 65.2377 35.7922H65.2403ZM49.9634 83.7603C48.9042 83.2495 47.8984 82.5872 46.9753 81.7891C46.6578 81.5151 46.1776 81.5524 45.9054 81.8663C45.6306 82.1828 45.6653 82.6616 45.9828 82.9356C47.0073 83.8188 48.1252 84.553 49.3044 85.1223C49.4112 85.1728 49.5232 85.1968 49.6353 85.1968C49.9181 85.1968 50.1875 85.0398 50.3183 84.7685C50.4997 84.3934 50.3423 83.9385 49.9661 83.7576L49.9634 83.7603ZM11.1202 38.6918C10.005 39.3409 8.93243 40.115 7.93193 40.9928C7.61711 41.2695 7.58776 41.7483 7.86256 42.0622C8.01197 42.2325 8.22274 42.3176 8.43351 42.3176C8.61227 42.3176 8.79102 42.2564 8.9351 42.1287C9.86356 41.3147 10.856 40.5965 11.8859 39.9979C12.2487 39.7878 12.3715 39.3249 12.158 38.9631C11.9473 38.6013 11.4804 38.479 11.1202 38.6918ZM4.11671 46.8106C3.74586 46.6164 3.28696 46.7601 3.0922 47.1325C2.91611 47.4677 2.7507 47.8082 2.59595 48.1513C2.21977 48.9813 1.8836 49.8512 1.59012 50.737C1.45939 51.1334 1.6755 51.5617 2.07303 51.692C2.15307 51.7186 2.23044 51.7293 2.31048 51.7293C2.63064 51.7293 2.92678 51.5271 3.03084 51.2079C3.30564 50.3699 3.6258 49.5506 3.97797 48.7712C4.12204 48.4546 4.27412 48.1407 4.43687 47.8321C4.63163 47.4597 4.48756 47.0048 4.11404 46.8106H4.11671ZM67.6068 46.9117C67.927 47.6539 68.2472 48.3961 68.562 49.1409C68.6847 49.4309 68.9648 49.6038 69.261 49.6038C69.3597 49.6038 69.4584 49.5852 69.5545 49.5453C69.9413 49.383 70.1228 48.9387 69.96 48.553C69.6452 47.8029 69.3224 47.058 68.9995 46.3105L68.4659 45.0682C68.3005 44.6825 67.855 44.5042 67.4681 44.6692C67.0812 44.8341 66.9025 45.2784 67.0679 45.6641L67.6042 46.9117H67.6068ZM64.2398 27.8144C64.2932 27.825 64.3466 27.8303 64.3972 27.8303C64.7494 27.8303 65.0642 27.5856 65.1389 27.2318C65.4004 26.0055 65.7873 24.8616 66.2915 23.8295C66.4756 23.4544 66.3182 22.9995 65.942 22.8186C65.5658 22.635 65.1096 22.7893 64.9255 23.1671C64.3679 24.3083 63.9384 25.5719 63.6502 26.9179C63.5622 27.3276 63.8263 27.7293 64.2345 27.817L64.2398 27.8144ZM127.439 35.5368L128.031 39.277C128.09 39.6495 128.413 39.9155 128.781 39.9155C128.821 39.9155 128.861 39.9128 128.901 39.9075C129.315 39.841 129.598 39.4553 129.534 39.0429L128.941 35.3027C128.877 34.8904 128.488 34.6031 128.074 34.6723C127.661 34.7361 127.378 35.1245 127.442 35.5368H127.439ZM127.055 28.6922C127.082 28.6922 127.106 28.6922 127.132 28.6896C127.549 28.647 127.853 28.2746 127.81 27.8596C127.722 27.0004 127.677 26.1837 127.677 25.4335C127.677 25.0212 127.69 24.6142 127.719 24.2099C127.749 23.7922 127.434 23.4304 127.018 23.4012C126.599 23.3666 126.236 23.6858 126.207 24.1008C126.175 24.5397 126.161 24.984 126.161 25.4309C126.161 26.2316 126.209 27.0988 126.303 28.0112C126.343 28.3996 126.673 28.6922 127.058 28.6922H127.055ZM3.42303 85.4655C3.44971 85.4655 3.47639 85.4655 3.5004 85.4628C3.91661 85.4202 4.22076 85.0478 4.17807 84.6328C4.05801 83.4783 3.90594 82.2413 3.71384 80.8474C3.65514 80.4324 3.27362 80.1371 2.85742 80.201C2.44121 80.2595 2.15307 80.6399 2.20909 81.0549C2.40119 82.4302 2.5506 83.6486 2.66799 84.7845C2.70801 85.1755 3.03884 85.4655 3.42303 85.4655ZM3.76453 91.5093C3.34566 91.4694 2.99348 91.8232 2.98014 92.2409C2.93746 93.5151 2.8334 94.7574 2.67599 95.9385C2.61996 96.3535 2.91344 96.7339 3.32698 96.7898C3.36167 96.7951 3.39635 96.7951 3.42837 96.7951C3.80188 96.7951 4.13005 96.5184 4.18074 96.138C4.34615 94.909 4.45287 93.6135 4.49823 92.2914C4.51157 91.8738 4.18341 91.5226 3.76453 91.5093ZM2.57461 73.3537C2.50791 72.9095 2.44121 72.4679 2.37718 72.0236C2.26245 71.2283 2.15573 70.4302 2.05702 69.6242C2.00633 69.2092 1.62747 68.9059 1.21127 68.9645C0.795061 69.015 0.498914 69.3927 0.549606 69.8077C0.648321 70.6217 0.757709 71.4331 0.8751 72.2391C0.939132 72.686 1.00583 73.1303 1.07253 73.5772C1.12856 73.9523 1.45405 74.2209 1.82224 74.2209C1.85959 74.2209 1.89694 74.2183 1.93696 74.213C2.3505 74.1518 2.63597 73.7661 2.57461 73.3511V73.3537ZM0.768381 62.9259C1.18726 62.9232 1.52342 62.5801 1.52075 62.1624V61.7155C1.52075 60.5876 1.56077 59.4863 1.64081 58.4462C1.67283 58.0285 1.36067 57.6641 0.9418 57.6322C0.520258 57.6029 0.160079 57.9115 0.125395 58.3291C0.0426878 59.4091 0 60.5504 0 61.7155V62.1757C0.00533598 62.5907 0.344171 62.9259 0.760377 62.9259H0.765713H0.768381ZM152.844 42.6235C151.715 42.1473 150.664 41.5461 149.722 40.8385C149.389 40.5858 148.911 40.6523 148.658 40.9875C148.404 41.32 148.471 41.7962 148.807 42.0489C149.848 42.8337 151.008 43.496 152.254 44.0201C152.35 44.06 152.452 44.0813 152.55 44.0813C152.846 44.0813 153.127 43.9084 153.249 43.6184C153.412 43.2327 153.231 42.7884 152.846 42.6262L152.844 42.6235ZM132.231 62.3619C132.258 62.3619 132.287 62.3619 132.314 62.3566C132.73 62.3114 133.031 61.9363 132.986 61.5213C132.866 60.4253 132.703 59.2229 132.479 57.7412C132.418 57.3289 132.031 57.0496 131.615 57.1054C131.201 57.1693 130.916 57.555 130.977 57.9673C131.198 59.4304 131.356 60.6115 131.476 61.6889C131.519 62.0773 131.847 62.3619 132.231 62.3619ZM131.302 50.2582L130.71 46.518C130.646 46.1057 130.257 45.821 129.843 45.8875C129.429 45.9514 129.147 46.3398 129.211 46.7521L129.803 50.4923C129.862 50.8647 130.185 51.1307 130.553 51.1307C130.593 51.1307 130.633 51.1281 130.673 51.1227C131.086 51.0562 131.369 50.6705 131.305 50.2582H131.302ZM132.482 68.4058C132.065 68.3659 131.695 68.6772 131.66 69.0921C131.623 69.5284 131.572 69.9647 131.511 70.3983C131.401 71.1751 131.249 71.9492 131.057 72.6993C130.953 73.1037 131.198 73.516 131.604 73.6197C131.668 73.6357 131.729 73.6437 131.793 73.6437C132.132 73.6437 132.442 73.4149 132.527 73.0744C132.732 72.2684 132.898 71.4384 133.015 70.6058C133.079 70.1456 133.133 69.6827 133.173 69.2225C133.21 68.8075 132.901 68.4377 132.484 68.4032L132.482 68.4058ZM127.946 79.2061C127.183 80.1744 126.321 81.0097 125.382 81.6907C125.043 81.9381 124.969 82.4089 125.214 82.7494C125.363 82.9516 125.593 83.0607 125.828 83.0607C125.982 83.0607 126.14 83.0128 126.273 82.917C127.324 82.1535 128.288 81.2198 129.136 80.1425C129.395 79.8153 129.339 79.3391 129.008 79.0811C128.677 78.8204 128.2 78.8789 127.941 79.2087L127.946 79.2061ZM134.061 16.2826C132.615 16.0644 131.252 16.3039 130.022 16.9795L129.91 17.0434C129.547 17.2509 129.419 17.7137 129.627 18.0755C129.768 18.3203 130.024 18.4559 130.286 18.4559C130.414 18.4559 130.542 18.424 130.662 18.3548L130.758 18.3016C131.689 17.7882 132.716 17.61 133.832 17.7776C134.245 17.8388 134.632 17.5568 134.696 17.1445C134.76 16.7295 134.475 16.3438 134.058 16.2826H134.061ZM118.72 83.9119C117.546 83.9438 116.348 83.8215 115.14 83.5528C114.732 83.465 114.326 83.7204 114.233 84.1274C114.142 84.5344 114.401 84.9387 114.809 85.0318C115.999 85.2952 117.191 85.4309 118.349 85.4309C118.488 85.4309 118.624 85.4309 118.763 85.4256C119.182 85.4123 119.513 85.0638 119.499 84.6461C119.486 84.2285 119.142 83.9119 118.717 83.9093L118.72 83.9119ZM144.416 31.669C144.317 31.262 143.906 31.0119 143.5 31.1103C143.092 31.2087 142.841 31.6158 142.94 32.0228C143.306 33.5364 143.653 34.6829 144.071 35.7417C144.189 36.0396 144.474 36.2232 144.778 36.2232C144.872 36.2232 144.965 36.2072 145.056 36.17C145.445 36.0183 145.638 35.5767 145.485 35.1884C145.096 34.1961 144.765 33.1108 144.418 31.669H144.416ZM164.404 43.6131C164.271 43.2167 163.839 43.0039 163.444 43.1369C162.331 43.5093 161.144 43.7381 159.919 43.8206C159.5 43.8499 159.183 44.209 159.212 44.6266C159.239 45.0283 159.572 45.3342 159.97 45.3342C159.986 45.3342 160.005 45.3342 160.021 45.3342C161.376 45.2438 162.691 44.9884 163.929 44.5761C164.327 44.4431 164.54 44.0148 164.407 43.6184L164.404 43.6131ZM142.15 23.2389C141.785 22.3664 141.299 21.5125 140.707 20.7091C140.459 20.3739 139.984 20.2994 139.645 20.5468C139.306 20.7942 139.234 21.2677 139.482 21.6056C140.005 22.3132 140.43 23.0607 140.75 23.8215C140.88 24.1327 141.001 24.4466 141.113 24.7605C141.222 25.0718 141.515 25.2659 141.828 25.2659C141.913 25.2659 141.998 25.2526 142.081 25.2234C142.476 25.0824 142.684 24.6514 142.543 24.2577C142.42 23.9172 142.292 23.5767 142.15 23.2416V23.2389ZM74.2848 16.2719C72.9161 16.4528 71.6195 16.8492 70.4296 17.453C70.0561 17.6419 69.9066 18.0995 70.0987 18.4719C70.2321 18.7352 70.4989 18.8842 70.7764 18.8842C70.8911 18.8842 71.0112 18.8576 71.1206 18.8017C72.1584 18.275 73.2897 17.9292 74.4876 17.7696C74.9038 17.7137 75.1946 17.3333 75.1412 16.921C75.0852 16.506 74.701 16.2134 74.2902 16.2693L74.2848 16.2719ZM85.6024 19.1609C84.4739 18.4453 83.2973 17.8441 82.0994 17.3706C81.7098 17.2163 81.2696 17.4078 81.1149 17.7962C80.9601 18.1846 81.1522 18.6262 81.5417 18.7778C82.649 19.2141 83.7402 19.7727 84.786 20.4377C84.9114 20.5176 85.0528 20.5548 85.1942 20.5548C85.445 20.5548 85.6905 20.4324 85.8345 20.2037C86.0586 19.8499 85.9546 19.3843 85.6024 19.1582V19.1609ZM92.5205 26.2874C92.1683 25.6729 91.7681 25.0638 91.3359 24.4785C91.0878 24.1407 90.6129 24.0715 90.2741 24.3163C89.9352 24.5637 89.8632 25.0372 90.1113 25.375C90.5089 25.915 90.877 26.4763 91.1999 27.0403C91.472 27.5138 91.7335 28.0086 91.9816 28.5087C92.115 28.7747 92.3818 28.9316 92.6619 28.9316C92.774 28.9316 92.8887 28.9077 92.9981 28.8545C93.3743 28.671 93.529 28.2161 93.3423 27.841C93.0808 27.3143 92.8033 26.7902 92.5152 26.2901L92.5205 26.2874ZM105.74 78.2325C105.447 77.9319 104.967 77.9292 104.668 78.2218C104.369 78.5144 104.364 78.9933 104.657 79.2912C105.57 80.2196 106.578 81.0709 107.656 81.8237C107.789 81.9168 107.941 81.962 108.091 81.962C108.331 81.962 108.566 81.8503 108.713 81.6401C108.953 81.297 108.87 80.8261 108.528 80.5867C107.528 79.8871 106.589 79.0944 105.74 78.2325ZM73.0522 66.4586C72.6307 66.4213 72.2705 66.7379 72.2385 67.1555C72.1424 68.4032 71.961 69.6215 71.6942 70.784C71.6008 71.191 71.8569 71.598 72.2651 71.6911C72.3212 71.7044 72.3799 71.7097 72.4359 71.7097C72.7827 71.7097 73.0949 71.473 73.1749 71.1219C73.4577 69.8875 73.6525 68.592 73.7539 67.2699C73.7859 66.8523 73.4737 66.4905 73.0549 66.4586H73.0522ZM72.612 60.428C72.652 60.428 72.6947 60.4253 72.7374 60.4174C73.1509 60.3482 73.4311 59.9598 73.3617 59.5475C73.1563 58.3052 72.8788 57.0389 72.5373 55.778C72.4279 55.3737 72.0117 55.1343 71.6062 55.2433C71.2006 55.3524 70.9605 55.7674 71.0699 56.1717C71.3954 57.3821 71.6622 58.6031 71.8623 59.7975C71.9236 60.1673 72.2465 60.4307 72.6093 60.4307L72.612 60.428ZM100.298 68.7676C100.167 68.3712 99.7374 68.1505 99.3399 68.2861C98.9424 68.4165 98.7236 68.8447 98.857 69.2411C99.2732 70.502 99.7534 71.7124 100.284 72.843C100.412 73.117 100.687 73.2792 100.973 73.2792C101.079 73.2792 101.191 73.2553 101.296 73.2074C101.674 73.0292 101.837 72.5796 101.661 72.1992C101.154 71.1245 100.698 69.97 100.3 68.7676H100.298ZM97.3549 57.1214C96.9387 57.1613 96.6319 57.5311 96.6719 57.9487C96.8053 59.3134 96.9547 60.5557 97.1335 61.7448C97.1895 62.1199 97.515 62.3912 97.8832 62.3912C97.9205 62.3912 97.9579 62.3885 97.9952 62.3832C98.4088 62.322 98.6969 61.9363 98.6356 61.524C98.4621 60.3588 98.3127 59.1431 98.1847 57.8051C98.1446 57.3901 97.7711 57.0868 97.3549 57.1241V57.1214ZM96.9547 51.0775C97.3736 51.0536 97.6937 50.6971 97.6724 50.2795C97.6057 49.0212 97.5337 47.755 97.4483 46.4887C97.4216 46.0711 97.0588 45.7731 96.6399 45.7838C96.221 45.813 95.9062 46.1722 95.9329 46.5898C96.0183 47.8481 96.0876 49.109 96.157 50.3593C96.1783 50.7636 96.5145 51.0749 96.9147 51.0749C96.928 51.0749 96.9414 51.0749 96.9574 51.0749L96.9547 51.0775ZM96.6479 38.8966C96.4371 37.5559 96.197 36.3216 95.9115 35.1245C95.8155 34.7175 95.4046 34.4648 94.9964 34.5632C94.5882 34.659 94.3348 35.0686 94.4335 35.473C94.7083 36.6302 94.943 37.8272 95.1458 39.1307C95.2045 39.5031 95.5273 39.7692 95.8955 39.7692C95.9355 39.7692 95.9756 39.7665 96.0129 39.7612C96.4265 39.6973 96.7093 39.3089 96.6452 38.8966H96.6479Z" fill="#592B02"/>
</g>
<defs>
<clipPath id="clip0_24_26482">
<rect width="226" height="96" fill="white" transform="translate(0 0.795105)"/>
</clipPath>
</defs>
</svg>
