<svg width="230" height="76" viewBox="0 0 230 76" fill="none" xmlns="http://www.w3.org/2000/svg">
<path d="M14.3814 38.936C6.73116 35.6759 2.54928 28.2326 5.04089 22.3109C7.53249 16.3893 15.7541 14.2317 23.4043 17.4918C31.0545 20.7519 35.2364 28.1952 32.7447 34.1168C30.2531 40.0385 22.0316 42.1961 14.3814 38.936Z" fill="#FFD34E"/>
<path d="M8.61605 18.0669C6.71968 23.8617 10.8642 30.8569 18.2133 33.9903C23.5917 36.2827 29.2492 35.895 33.0029 33.4059C32.9247 33.6419 32.841 33.876 32.7442 34.1083C30.2523 40.0303 22.0303 42.186 14.3815 38.9253C6.73085 35.6646 2.55099 28.2218 5.04289 22.2997C5.78358 20.541 7.03047 19.1176 8.61605 18.0669Z" fill="#F0B900"/>
<path d="M9.98391 22.2922C9.62659 23.1406 10.0193 24.1201 10.8642 24.4797C11.7035 24.8374 12.6805 24.4423 13.0378 23.5938C13.3952 22.7454 12.9969 21.764 12.1576 21.4063C11.3145 21.0467 10.3412 21.4438 9.98391 22.2922Z" fill="#592B02"/>
<path d="M7.05837 6.77717C8.39458 7.34653 9.01802 8.89728 8.45227 10.242C8.44111 10.2664 8.42436 10.2813 8.4132 10.3057C9.66753 11.7665 10.5887 13.3622 11.1452 15.0872C12.5875 14.6545 14.1414 14.4186 15.7605 14.398C14.9212 13.2649 14.3647 11.9332 14.1489 10.493C13.8009 8.17434 14.3666 5.8632 15.7475 3.97345C18.5948 0.0759691 24.0681 -0.763085 27.9372 2.10805C29.4502 3.22804 30.5333 4.78254 31.0804 6.55617C33.2876 5.43618 35.9507 5.262 38.3979 6.30707C42.8216 8.19307 44.9004 13.351 43.0244 17.8066C41.2621 21.9925 36.6356 24.0902 32.4148 22.766C34.7838 26.1429 35.7069 30.0553 34.6796 33.6176L35.2565 34.2693L35.9284 35.0241C36.215 35.3425 36.0382 35.7601 35.612 35.7751L34.6052 35.8145L33.7398 35.85C31.6815 39.4816 27.5724 41.6373 22.8287 41.9313C22.8193 41.9388 22.8156 41.9482 22.8082 41.9519L22.7859 41.9369C19.8938 42.1111 16.7748 41.5979 13.7413 40.3038C5.23644 36.6779 0.600638 28.2892 3.41264 21.6048C4.5032 19.0128 6.5559 17.0593 9.15761 15.8401C8.69235 14.3624 7.90513 12.9802 6.82202 11.7141C6.24324 11.9014 5.60677 11.8958 5.00752 11.6411C3.67131 11.0717 3.04787 9.52095 3.61176 8.17996C4.17751 6.83523 5.71843 6.20781 7.05464 6.77717H7.05837ZM32.331 33.9303C33.6077 30.8981 32.9731 27.4145 30.9501 24.3524C29.787 29.8886 27.6375 34.9979 24.5203 39.6014C28.1195 38.9366 31.0525 36.9682 32.331 33.9303ZM32.4259 20.5017C35.7758 21.9288 39.656 20.3481 41.076 16.9769C42.4941 13.6057 40.9234 9.70075 37.5735 8.27173C35.5059 7.3896 33.2448 7.65368 31.4768 8.77554C31.1009 9.01527 30.7417 9.29059 30.4142 9.60711C29.7926 10.2102 29.2752 10.9443 28.9179 11.7946L26.56 17.4002C26.8001 17.5425 27.0308 17.6886 27.2616 17.8385C27.8013 18.1962 28.3224 18.5689 28.8174 18.9641L32.4259 20.5017ZM14.9938 38.5114C16.678 39.1838 18.379 39.5958 20.0353 39.7625L19.8957 39.6576C24.1388 34.2075 26.8001 27.8865 27.7994 20.8763C27.779 20.8557 27.7566 20.8407 27.7362 20.8201C27.1927 20.3743 26.6121 19.9529 25.9998 19.5596C25.7077 19.3649 25.4043 19.1851 25.0898 19.0034C24.6915 18.7749 24.2784 18.5651 23.8541 18.361C23.7443 18.3086 23.6326 18.2599 23.5172 18.2055C23.4707 18.5333 23.4093 18.8592 23.3572 19.1851C23.292 19.5746 23.2195 19.9661 23.1432 20.35C21.8386 26.9894 19.1103 33.0782 14.9938 38.5114ZM24.6804 16.3963L26.9676 10.9631C27.4924 9.71573 28.2777 8.66879 29.225 7.82786C28.9049 6.27898 28.0451 4.83686 26.681 3.82737C26.2548 3.51272 25.81 3.25988 25.341 3.05948C22.596 1.88893 19.2964 2.71674 17.4522 5.2414C15.2971 8.18933 15.9243 12.3584 18.8535 14.5272L19.008 14.6396C20.6475 14.898 22.3113 15.37 23.9453 16.0667C24.1946 16.1735 24.4403 16.284 24.6804 16.3982V16.3963ZM5.36671 22.4383C3.34192 27.2479 6.10553 33.1887 11.629 36.7771C15.995 31.1997 18.7456 24.8543 19.8157 17.8834C19.8585 17.5894 19.8994 17.2878 19.9385 16.9919C19.3485 16.8496 18.7549 16.7428 18.1724 16.6679C12.4367 15.9187 7.20167 18.0819 5.36856 22.4383H5.36671Z" fill="#592B02"/>
<path d="M18.8535 14.5253L19.008 14.6377C20.6475 14.8961 22.3113 15.3681 23.9453 16.0648C24.1946 16.1716 24.4403 16.2821 24.6804 16.3963L26.9676 10.9631C27.4924 9.71574 28.2777 8.66879 29.225 7.82786C28.9049 6.27898 28.0451 4.83686 26.681 3.82737C26.2548 3.51272 25.81 3.25988 25.341 3.05948C22.596 1.88893 19.2964 2.71675 17.4522 5.2414C15.2971 8.18933 15.9243 12.3584 18.8535 14.5272V14.5253Z" fill="#CEEAF2"/>
<path d="M28.9179 11.7946L26.56 17.4002C26.8001 17.5425 27.0308 17.6886 27.2616 17.8385C27.8013 18.1962 28.3224 18.5689 28.8174 18.9641L32.4259 20.5017C35.7758 21.9288 39.656 20.3481 41.0759 16.9769C42.494 13.6057 40.9233 9.70075 37.5735 8.27173C35.5059 7.3896 33.2448 7.65368 31.4768 8.77554C31.1009 9.01527 30.7417 9.29059 30.4142 9.6071C29.7926 10.2102 29.2752 10.9443 28.9179 11.7946Z" fill="#CEEAF2"/>
<path d="M37.0376 10.6278C36.2075 11.259 36.2187 12.6824 37.0636 13.8099C37.9085 14.9355 39.2671 15.3382 40.0971 14.707C40.9271 14.0758 40.9159 12.6524 40.071 11.5249C39.2261 10.3993 37.8676 9.99667 37.0376 10.6278Z" fill="white"/>
<path d="M24.2718 7.50844C23.4958 6.47404 23.4852 5.16563 24.2481 4.58604C25.011 4.00644 26.2585 4.37514 27.0344 5.40955C27.8104 6.44395 27.821 7.75234 27.0581 8.33194C26.2952 8.91153 25.0477 8.54284 24.2718 7.50844Z" fill="white"/>
<path d="M169.085 71.7968C168.852 72.0505 168.992 72.3751 169.4 72.5206C170.653 72.9684 171.945 73.3826 173.243 73.7501C173.357 73.7818 173.476 73.7967 173.592 73.7967C173.913 73.7967 174.223 73.6811 174.366 73.4833C174.559 73.2165 174.366 72.9012 173.94 72.78C172.693 72.4274 171.445 72.03 170.24 71.5972C169.832 71.4516 169.317 71.5393 169.085 71.7949V71.7968ZM178.161 63.006C179.343 62.549 180.495 62.0564 181.588 61.5359C181.96 61.3587 182.493 61.4053 182.776 61.6385C183.059 61.8717 182.987 62.2057 182.612 62.3829C181.478 62.9221 180.278 63.437 179.049 63.9109C178.912 63.965 178.757 63.9892 178.605 63.9892C178.319 63.9892 178.042 63.8997 177.882 63.7374C177.638 63.4874 177.76 63.1609 178.158 63.006H178.161ZM190.18 55.9484C190.445 55.7059 190.972 55.6443 191.359 55.8104C191.746 55.9764 191.844 56.3066 191.579 56.5473C190.775 57.2823 189.882 58.0043 188.929 58.6927C188.763 58.814 188.527 58.8756 188.289 58.8756C188.093 58.8756 187.893 58.8327 187.733 58.745C187.378 58.5528 187.343 58.217 187.649 57.995C188.56 57.3383 189.412 56.648 190.183 55.9466L190.18 55.9484ZM166.759 66.1011C167.441 65.9835 168.117 65.8567 168.79 65.7224C169.436 65.5918 170.076 65.45 170.713 65.3007C171.151 65.1963 171.639 65.3362 171.806 65.6104C171.972 65.8847 171.749 66.1906 171.311 66.2951C170.647 66.4518 169.981 66.5992 169.308 66.7335C168.611 66.8753 167.912 67.0059 167.206 67.1272C167.132 67.1402 167.054 67.1458 166.98 67.1458C166.608 67.1458 166.265 66.991 166.164 66.7559C166.039 66.4742 166.304 66.1813 166.756 66.1029L166.759 66.1011ZM147.617 52.8888C148.076 52.8273 148.525 53.012 148.62 53.2993C148.903 54.1388 149.261 54.9839 149.683 55.8104C149.826 56.0902 149.579 56.3887 149.135 56.4783C149.049 56.4951 148.963 56.5044 148.876 56.5044C148.519 56.5044 148.186 56.3607 148.07 56.135C147.629 55.2731 147.257 54.3925 146.962 53.5194C146.867 53.2321 147.159 52.9504 147.617 52.8907V52.8888ZM151.818 60.3737C152.229 60.2319 152.744 60.3252 152.967 60.5826C153.631 61.3382 154.36 62.0844 155.137 62.8045C155.399 63.0471 155.298 63.3773 154.911 63.5415C154.765 63.603 154.601 63.6329 154.438 63.6329C154.167 63.6329 153.899 63.5508 153.735 63.3997C152.928 62.6534 152.172 61.8792 151.481 61.0956C151.255 60.8382 151.404 60.5154 151.815 60.3737H151.818ZM166.402 29.134C167.822 28.8728 169.272 28.6975 170.71 28.6079C171.174 28.5855 171.591 28.7926 171.636 29.0836C171.68 29.3747 171.341 29.6359 170.874 29.6638C169.543 29.7459 168.197 29.9101 166.879 30.1526C166.798 30.1676 166.718 30.1732 166.64 30.1732C166.274 30.1732 165.935 30.022 165.828 29.7907C165.697 29.509 165.953 29.2142 166.402 29.1322V29.134ZM149.049 40.8594C148.951 40.8594 148.853 40.8482 148.757 40.8258C148.32 40.7251 148.094 40.4191 148.254 40.1448C148.76 39.2829 149.356 38.4453 150.026 37.6561C150.246 37.3968 150.758 37.2998 151.172 37.436C151.586 37.574 151.74 37.8949 151.52 38.1542C150.886 38.9005 150.32 39.6934 149.844 40.5105C149.719 40.7251 149.394 40.8575 149.049 40.8575V40.8594ZM154.414 67.185C155.801 67.1719 157.2 67.1234 158.573 67.0413C158.713 67.0339 158.85 67.0469 158.972 67.0768C159.007 66.9854 159.085 66.8977 159.201 66.8249C159.534 66.6197 160.07 66.6216 160.398 66.8324C161.365 67.4499 162.389 68.0469 163.44 68.6085C163.797 68.7987 163.839 69.1327 163.538 69.3566C163.372 69.4797 163.133 69.5431 162.892 69.5431C162.699 69.5431 162.502 69.5021 162.345 69.4163C161.35 68.8864 160.377 68.3249 159.454 67.7428C159.35 67.9331 159.076 68.0768 158.736 68.0973C157.319 68.1831 155.872 68.2335 154.438 68.2465H154.426C153.964 68.2465 153.586 68.0133 153.577 67.7242C153.571 67.4313 153.943 67.1887 154.411 67.185H154.414ZM181.793 74.4292C182.061 74.4665 182.329 74.5019 182.6 74.5374C183.672 74.6736 184.776 74.7836 185.881 74.8638C186.345 74.8974 186.679 75.1605 186.625 75.4515C186.575 75.722 186.208 75.9216 185.786 75.9216C185.753 75.9216 185.72 75.9216 185.687 75.9179C184.535 75.834 183.383 75.7202 182.267 75.5784C181.984 75.5429 181.704 75.5056 181.424 75.4664C180.969 75.403 180.68 75.1194 180.781 74.8321C180.882 74.5467 181.335 74.3657 181.793 74.4292ZM156.408 34.048C156.245 34.1488 156.03 34.1991 155.816 34.1991C155.602 34.1991 155.375 34.145 155.212 34.0387C154.884 33.8298 154.89 33.4921 155.223 33.2887C156.262 32.6507 157.391 32.0612 158.573 31.5351C158.954 31.3634 159.484 31.4213 159.755 31.6601C160.025 31.8989 159.936 32.2309 159.555 32.4007C158.445 32.8951 157.388 33.4492 156.408 34.048ZM194.169 74.9403C195.535 74.8694 196.92 74.7538 198.289 74.6008C198.748 74.5486 199.191 74.7407 199.272 75.0299C199.355 75.3191 199.048 75.5952 198.587 75.6455C197.167 75.806 195.729 75.9235 194.309 75.9981C194.285 75.9981 194.261 76 194.237 76C193.803 76 193.431 75.7911 193.395 75.5131C193.356 75.222 193.702 74.9646 194.169 74.9403ZM99.568 27.0371C99.4668 27.274 99.1244 27.4307 98.7493 27.4307C98.6779 27.4307 98.6034 27.4251 98.529 27.4121C98.0765 27.3356 97.8086 27.0464 97.9306 26.7628C98.3266 25.8338 98.8327 24.9644 99.434 24.179C99.6365 23.914 100.143 23.8021 100.565 23.929C100.988 24.0558 101.167 24.373 100.964 24.636C100.408 25.3636 99.9401 26.1696 99.571 27.0352L99.568 27.0371ZM196.08 48.4748C196.539 48.5345 196.833 48.8162 196.738 49.1035C196.446 49.9841 196.044 50.8665 195.55 51.7266C195.425 51.943 195.101 52.0773 194.752 52.0773C194.657 52.0773 194.559 52.068 194.464 52.0456C194.023 51.9467 193.797 51.6426 193.955 51.3665C194.422 50.5531 194.8 49.7192 195.077 48.8871C195.172 48.5998 195.622 48.417 196.08 48.4767V48.4748ZM183.014 31.3093C182.874 31.3093 182.728 31.2869 182.597 31.2403C181.4 30.8149 180.15 30.4679 178.888 30.2086C178.444 30.1172 178.2 29.8168 178.349 29.5389C178.495 29.2609 178.974 29.1098 179.418 29.2012C180.787 29.4829 182.139 29.8597 183.434 30.3187C183.842 30.4623 183.985 30.7869 183.755 31.0425C183.6 31.216 183.312 31.3131 183.017 31.3131L183.014 31.3093ZM220.468 67.8659C220.816 67.6701 221.352 67.6906 221.665 67.9107C221.974 68.129 221.945 68.4648 221.593 68.6607C220.525 69.2558 219.396 69.8267 218.238 70.3584C218.086 70.4274 217.911 70.461 217.738 70.461C217.476 70.461 217.22 70.3864 217.053 70.2446C216.776 70.0077 216.86 69.6756 217.235 69.5021C218.351 68.989 219.438 68.4387 220.468 67.8659ZM196.384 44.2417C196.348 44.2436 196.315 44.2455 196.283 44.2455C195.86 44.2455 195.494 44.0477 195.443 43.7772C195.282 42.9358 195.011 42.0888 194.642 41.2549C194.517 40.9732 194.779 40.6803 195.232 40.6019C195.681 40.5217 196.149 40.6877 196.277 40.9713C196.67 41.8556 196.958 42.7567 197.128 43.6522C197.185 43.9432 196.851 44.2081 196.387 44.2436L196.384 44.2417ZM206.297 73.2109C207.592 72.905 208.878 72.558 210.12 72.183C210.543 72.0561 211.049 72.1662 211.251 72.4292C211.454 72.6923 211.278 73.0113 210.858 73.1382C209.572 73.5281 208.238 73.8863 206.899 74.2034C206.8 74.2277 206.699 74.237 206.601 74.237C206.259 74.237 205.937 74.1064 205.809 73.8937C205.642 73.6195 205.866 73.3135 206.303 73.2091L206.297 73.2109ZM228.426 61.9016C228.667 61.6497 229.188 61.5695 229.59 61.7206C229.991 61.8717 230.119 62.1982 229.878 62.4501C229.14 63.2168 228.324 63.9724 227.455 64.6925C227.288 64.8306 227.035 64.9034 226.779 64.9034C226.601 64.9034 226.422 64.8679 226.27 64.7951C225.898 64.6179 225.824 64.2858 226.103 64.0508C226.937 63.3586 227.72 62.6348 228.429 61.8997L228.426 61.9016ZM191.311 36.5629C190.573 35.8316 189.751 35.1375 188.867 34.4976C188.56 34.2756 188.599 33.9417 188.95 33.7477C189.304 33.5555 189.837 33.5798 190.144 33.8018C191.085 34.4809 191.96 35.2196 192.743 35.9957C192.993 36.2439 192.874 36.5722 192.478 36.7289C192.338 36.7849 192.18 36.811 192.025 36.811C191.746 36.811 191.469 36.7233 191.308 36.5629H191.311ZM99.2256 39.518C99.6811 39.4434 100.14 39.6206 100.25 39.906C100.58 40.7474 100.961 41.5963 101.387 42.4246C101.53 42.7045 101.283 43.003 100.839 43.0925C100.753 43.1093 100.667 43.1186 100.58 43.1186C100.223 43.1186 99.8895 42.975 99.7734 42.7492C99.3388 41.8967 98.9458 41.0254 98.6064 40.1598C98.4933 39.8743 98.7731 39.587 99.2256 39.518ZM97.7222 31.6265H97.7252C98.1926 31.6265 98.5707 31.8615 98.5737 32.1544C98.5766 32.6246 98.6064 33.0966 98.657 33.5592C98.7017 33.9566 98.7553 34.354 98.8208 34.7514C98.8684 35.0424 98.529 35.3036 98.0646 35.3334C98.0348 35.3334 98.0051 35.3353 97.9783 35.3353C97.5496 35.3353 97.1804 35.132 97.1358 34.8577C97.0703 34.4491 97.0137 34.0406 96.9661 33.632C96.9125 33.1451 96.8827 32.6488 96.8797 32.1582C96.8797 31.8653 97.2548 31.6265 97.7222 31.6246V31.6265ZM100.3 44.2958C100.619 44.2417 100.937 44.1858 101.256 44.1261C102.298 43.9358 103.316 43.7324 104.29 43.5179C104.73 43.419 105.215 43.5664 105.37 43.8444C105.525 44.1205 105.293 44.4246 104.849 44.5197C103.849 44.7398 102.801 44.9488 101.732 45.1447C101.405 45.2044 101.077 45.2622 100.75 45.3201C100.675 45.3331 100.601 45.3387 100.527 45.3387C100.154 45.3387 99.8121 45.1839 99.7109 44.9469C99.5888 44.6652 99.8538 44.3723 100.303 44.294L100.3 44.2958ZM87.9576 45.6838C89.3479 45.6074 90.7471 45.5047 92.1135 45.3779C92.5779 45.335 93.0066 45.5346 93.0751 45.8256C93.1436 46.1148 92.825 46.3853 92.3606 46.4282C90.9584 46.5588 89.5265 46.6633 88.1035 46.7416C88.0797 46.7416 88.0529 46.7435 88.029 46.7435C87.5944 46.7435 87.2253 46.5346 87.1866 46.2585C87.1449 45.9674 87.4902 45.7081 87.9576 45.6838ZM51.2271 41.7082C52.4953 42.0702 53.7933 42.4134 55.0853 42.7287C55.5229 42.8351 55.7373 43.1429 55.5676 43.4153C55.4366 43.6261 55.118 43.7529 54.7787 43.7529C54.6774 43.7529 54.5732 43.7417 54.472 43.7175C53.1502 43.3947 51.8225 43.044 50.5245 42.6746C50.0988 42.5533 49.9112 42.2381 50.1047 41.9713C50.2982 41.7045 50.8014 41.587 51.2271 41.7082ZM39.1523 37.9509C39.4202 37.7102 39.9471 37.6505 40.3312 37.8184C41.4654 38.3128 42.6443 38.7941 43.8351 39.2512C44.234 39.4042 44.362 39.7307 44.1179 39.9807C43.9572 40.1448 43.6803 40.2344 43.3945 40.2344C43.2457 40.2344 43.0909 40.2101 42.9539 40.156C41.7333 39.6896 40.5247 39.1953 39.3636 38.6897C38.9796 38.5218 38.8843 38.1916 39.1523 37.9509ZM75.4124 45.6838C76.7967 45.7585 78.2019 45.8088 79.5922 45.835C80.0595 45.8443 80.4287 46.0887 80.4138 46.3816C80.4019 46.6707 80.0238 46.8984 79.5683 46.8984H79.5445C78.1215 46.8722 76.6836 46.82 75.2665 46.7435C74.7992 46.7174 74.4538 46.4618 74.4955 46.1689C74.5372 45.876 74.948 45.6559 75.4124 45.6857V45.6838ZM103.34 47.0383C103.763 46.9114 104.269 47.0233 104.471 47.2883C105.07 48.0718 105.722 48.8535 106.403 49.6091C106.635 49.8647 106.493 50.1874 106.085 50.3329C105.954 50.3796 105.808 50.402 105.668 50.402C105.373 50.402 105.087 50.305 104.93 50.1333C104.227 49.3572 103.56 48.555 102.944 47.7472C102.742 47.4823 102.92 47.1651 103.343 47.0383H103.34ZM63.0488 44.3443C64.4004 44.5663 65.7728 44.766 67.1274 44.9376C67.5858 44.9954 67.8835 45.2753 67.7912 45.5626C67.7109 45.8144 67.3566 45.9879 66.9606 45.9879C66.9041 45.9879 66.8475 45.9842 66.791 45.9767C65.4037 45.8014 63.9985 45.598 62.6172 45.3704C62.1647 45.2958 61.8937 45.0066 62.0128 44.7231C62.1319 44.4395 62.5934 44.2716 63.0459 44.3443H63.0488ZM146.066 48.139C146.066 47.2304 146.147 46.3182 146.301 45.4301C146.352 45.1391 146.769 44.9301 147.236 44.96C147.701 44.9917 148.037 45.2548 147.986 45.5458C147.837 46.3946 147.76 47.2677 147.76 48.1371C147.76 48.43 147.379 48.6688 146.912 48.6688C146.444 48.6688 146.063 48.43 146.066 48.1371V48.139ZM121.738 37.1524C121.571 37.1524 121.402 37.1207 121.253 37.0573C120.869 36.8894 120.776 36.5591 121.041 36.3185C121.821 35.617 122.503 34.8708 123.066 34.1003C123.259 33.8335 123.762 33.716 124.188 33.8391C124.614 33.9604 124.801 34.2756 124.605 34.5424C124 35.3708 123.268 36.173 122.429 36.9267C122.265 37.0741 122 37.1543 121.732 37.1543L121.738 37.1524ZM130.211 63.8026C131.449 64.1795 132.735 64.5302 134.03 64.8493C134.465 64.9575 134.682 65.2653 134.509 65.5377C134.378 65.7466 134.06 65.8753 133.72 65.8753C133.616 65.8753 133.512 65.8641 133.411 65.8399C132.074 65.5115 130.746 65.1496 129.469 64.7616C129.049 64.6328 128.871 64.3157 129.076 64.0526C129.279 63.7877 129.788 63.6795 130.208 63.8064L130.211 63.8026ZM105.662 20.9906C105.373 20.9906 105.093 20.8992 104.936 20.7332C104.694 20.4813 104.825 20.1548 105.227 20.0056C106.037 19.7015 106.909 19.4534 107.817 19.2649C108.353 19.1549 108.907 19.0672 109.458 19.0075C109.919 18.959 110.357 19.1511 110.437 19.4403C110.518 19.7295 110.208 20.0037 109.746 20.0541C109.276 20.1063 108.803 20.1791 108.344 20.2742C107.555 20.4365 106.799 20.653 106.097 20.916C105.96 20.9664 105.811 20.9906 105.662 20.9906ZM142.003 66.3753C143.354 66.5656 144.735 66.7242 146.105 66.8473C146.569 66.8884 146.888 67.1589 146.822 67.448C146.763 67.713 146.4 67.9033 145.986 67.9033C145.944 67.9033 145.905 67.9033 145.864 67.8977C144.453 67.7708 143.03 67.6066 141.633 67.4107C141.178 67.3473 140.889 67.0637 140.99 66.7764C141.092 66.491 141.544 66.31 142.003 66.3753ZM124.518 26.6789C124.411 26.3934 124.694 26.108 125.15 26.0408C125.605 25.9755 126.061 26.1509 126.168 26.4363C126.474 27.2535 126.629 28.1079 126.629 28.9754V29.2012C126.617 29.4903 126.239 29.7217 125.778 29.7217H125.76C125.292 29.7161 124.92 29.4736 124.929 29.1807V28.9773C124.932 28.19 124.792 27.4177 124.515 26.6789H124.518ZM111.018 53.9653C111.866 54.6556 112.765 55.3309 113.685 55.9764C113.998 56.1947 113.968 56.5305 113.62 56.7264C113.459 56.8178 113.256 56.8626 113.054 56.8626C112.822 56.8626 112.59 56.8029 112.423 56.6853C111.476 56.0231 110.55 55.3253 109.675 54.6164C109.389 54.385 109.458 54.0511 109.827 53.872C110.196 53.6929 110.729 53.7358 111.015 53.9672L111.018 53.9653ZM119.699 59.592C120.267 59.883 120.842 60.1684 121.428 60.4464C121.952 60.6945 122.482 60.9352 123.018 61.1684C123.402 61.3363 123.497 61.6665 123.229 61.9072C123.066 62.0546 122.801 62.1348 122.533 62.1348C122.366 62.1348 122.196 62.1031 122.05 62.0396C121.494 61.7971 120.946 61.549 120.407 61.2934C119.803 61.008 119.207 60.7132 118.621 60.411C118.261 60.2244 118.207 59.8905 118.505 59.6647C118.803 59.439 119.335 59.4054 119.699 59.592ZM112.286 42.3761C111.991 42.3761 111.705 42.281 111.551 42.1093C111.318 41.8556 111.458 41.531 111.863 41.3836C113.093 40.9415 114.254 40.4639 115.316 39.9639C115.692 39.7885 116.221 39.8352 116.501 40.0702C116.781 40.3053 116.707 40.6374 116.332 40.8146C115.212 41.3407 113.995 41.8426 112.706 42.3052C112.572 42.3537 112.429 42.3761 112.286 42.3761ZM118.189 19.9832C119.493 20.4216 120.705 20.9757 121.786 21.6305C122.122 21.8339 122.134 22.1697 121.806 22.3805C121.64 22.4887 121.419 22.5428 121.196 22.5428C120.973 22.5428 120.773 22.4943 120.61 22.3936C119.639 21.8078 118.555 21.3115 117.385 20.9179C116.975 20.7798 116.82 20.4571 117.04 20.1996C117.26 19.9403 117.775 19.8433 118.186 19.9832H118.189Z" fill="#592B02"/>
</svg>
