<svg width="1440" height="741" viewBox="0 0 1440 741" fill="none" xmlns="http://www.w3.org/2000/svg">
<g clip-path="url(#clip0_54_26763)">
<path d="M694 661.5C841.5 628.5 1211.5 736.5 1440 610V0.000244141L0 0.000244141V577.164V737.574C0 752.265 368.069 734.42 694 661.5Z" fill="url(#paint0_linear_54_26763)"/>
<path opacity="0.9" fill-rule="evenodd" clip-rule="evenodd" d="M655.775 664.841V657.147L687.502 638.847L713.78 654.005C714.868 653.889 715.962 653.778 717.063 653.671L688.469 637.179V600.568L720.19 582.272L751.917 600.573V637.179L724.416 653.038C725.872 652.927 727.339 652.824 728.817 652.729L752.883 638.847L775.442 651.863C776.773 651.887 778.109 651.914 779.452 651.945L753.85 637.179V600.568L785.572 582.272L817.298 600.573V637.179L791.1 652.286C792.31 652.329 793.525 652.375 794.743 652.422L818.27 638.851L847.082 655.469C849.358 655.635 851.645 655.805 853.942 655.978L883.651 638.842L915.368 657.138V661.044C915.413 661.048 915.458 661.052 915.504 661.056C916.104 661.107 916.705 661.159 917.306 661.21V657.147L949.032 638.847L980.754 657.142V666.448C981.398 666.497 982.042 666.546 982.687 666.595V657.147L1014.41 638.847L1046.13 657.147V670.709C1046.78 670.742 1047.43 670.775 1048.07 670.808V657.152L1079.8 638.851L1111.52 657.147V672.828C1112.16 672.835 1112.81 672.842 1113.45 672.848V657.142L1145.18 638.842L1176.9 657.138V671.803C1177.55 671.774 1178.19 671.744 1178.84 671.714V657.147L1210.56 638.847L1242.28 657.147V666.497C1242.93 666.419 1243.57 666.34 1244.22 666.26V657.152L1275.95 638.851L1305.55 655.927C1306.48 655.724 1307.41 655.519 1308.34 655.311L1276.92 637.184V637.179V600.568L1308.63 582.272L1340.36 600.573V637.179L1309.29 655.098C1311.44 654.615 1313.58 654.122 1315.72 653.616L1341.33 638.842L1350.57 644.171C1351.41 643.914 1352.24 643.655 1353.07 643.394L1342.3 637.179V600.568L1374.02 582.272L1405.74 600.573V623.462C1406.39 623.172 1407.03 622.881 1407.67 622.588V600.568L1439.39 582.272L1440 582.618V541.979L1439.39 542.325L1407.67 524.029V487.418L1439.39 469.122L1440 469.468V428.824L1439.39 429.171L1407.67 410.875V374.264L1439.39 355.968L1440 356.314V315.67L1439.39 316.016L1407.67 297.72V261.109L1439.39 242.813L1440 243.16V202.516L1439.39 202.862L1407.67 184.566V147.955L1439.39 129.659L1440 130.005V89.3612L1439.39 89.7074L1407.67 71.4116V34.8003L1439.39 16.5045L1440 16.8507V-23.7932L1439.39 -23.447L1407.67 -41.7429V-78.3199L1439.39 -96.6158L1440 -96.2696V-127H1438.43V-98.2835L1406.71 -79.9876L1374.98 -98.2884V-127H1373.05V-98.2835L1341.33 -79.9876L1309.6 -98.2884V-127H1307.67V-98.2835L1275.94 -79.9828L1244.22 -98.2835V-127H1242.28V-98.2835L1210.56 -79.9876L1178.84 -98.2884V-127H1176.9V-98.2835L1145.18 -79.9876L1113.46 -98.2884V-127H1111.52V-98.2835L1079.8 -79.9828L1048.08 -98.2835V-127H1046.14V-98.2835L1014.42 -79.9876L982.697 -98.2884V-127H980.759V-98.2835L949.037 -79.9876L917.315 -98.2884V-127H915.378V-98.2835L883.656 -79.9876L851.934 -98.2884V-127H849.996V-98.2835L818.275 -79.9828L786.553 -98.2835V-127H784.615V-98.2835L752.893 -79.9876L721.171 -98.2884V-127H719.234V-98.2835L687.512 -79.9876L655.79 -98.2884V-127H653.852V-98.2835L622.131 -79.9876L590.409 -98.2884V-127H588.471V-98.2835L556.749 -79.9828L525.027 -98.2835V-127H523.09V-98.2835L491.368 -79.9876L459.646 -98.2884V-127H457.708V-98.2835L425.987 -79.9876L394.265 -98.2884V-127H392.327V-98.2835L360.605 -79.9828L328.883 -98.2835V-127H326.946V-98.2835L295.224 -79.9876L263.502 -98.2884V-127H261.564V-98.2835L229.843 -79.9876L198.121 -98.2884V-127H196.183V-98.2835L164.461 -79.9876L132.739 -98.2884V-127H130.802V-98.2835L99.0799 -79.9828L67.3581 -98.2835V-127H65.4204V-98.2835L33.6986 -79.9876L1.93289 -98.2884V-127H0V-97.7325H0.966443L0.483221 -96.8986L32.698 -78.3199V-41.7185L0.483221 -23.1349L0.966443 -22.3011H0V15.4171H0.966443L0.483221 16.2509L32.698 34.8296V71.4359L0.483221 90.0146L0.966443 90.8485H0V128.567H0.966443L0.483221 129.4L32.698 147.979V184.585L0.483221 203.164L0.966443 203.998H0V241.716H0.966443L0.483221 242.55L32.698 261.129V297.735L0.483221 316.309L0.966443 317.143H0V354.861H0.966443L0.483221 355.695L32.698 374.273V410.875L0.483221 429.458L0.966443 430.292H0V468.01H0.966443L0.483221 468.844L32.698 487.423V524.029L0.483221 542.608L0.966443 543.442H0V581.155H0.966443L0.483221 581.989L32.698 600.568V637.174L0.483221 655.758L0.966443 656.591H0V694.31H0.966443L0.483221 695.143L33.1812 714L33.6644 713.166L34.1477 714L66.3575 695.421L98.5674 714L99.0506 713.166L99.5339 714L131.744 695.421L163.954 714L164.437 713.166L164.92 714L197.13 695.421L229.34 714L229.823 713.166L230.306 714L262.516 695.421L294.726 714L295.209 713.166L295.692 714L327.902 695.421L360.112 714L360.595 713.166L361.079 714L393.289 695.421L417.035 709.118C418.032 708.954 419.029 708.79 420.028 708.626L394.24 693.749V657.142L425.967 638.842L457.689 657.138V693.744L457.684 693.754L436.704 705.854C438.529 705.548 440.356 705.241 442.185 704.932L458.675 695.421L467.631 700.588C468.615 700.417 469.599 700.247 470.584 700.076L459.622 693.754V657.147L491.348 638.847L523.065 657.142V690.734C523.713 690.616 524.36 690.498 525.008 690.379V657.152L556.735 638.851L588.456 657.152V678.402C589.102 678.276 589.748 678.15 590.394 678.024V657.142L622.121 638.842L653.843 657.138V665.243C654.487 665.109 655.131 664.975 655.775 664.841ZM1438.43 580.609V544.003L1406.71 525.702L1374.98 544.003V580.604L1406.71 598.905L1438.43 580.609ZM164.432 299.403L132.705 317.703V354.3L164.427 372.601L196.149 354.305V317.699L164.432 299.403ZM100.022 297.735L131.739 316.031V316.036L163.466 297.735V261.129L131.739 242.828L100.022 261.124V297.735ZM165.403 261.124V297.735V297.74L197.125 316.036L228.852 297.735V261.129L197.125 242.828L165.403 261.124ZM261.54 317.699L229.818 299.403L229.823 299.398L198.096 317.699V354.3L229.818 372.601L261.54 354.305V317.699ZM230.789 261.124V297.735V297.74L262.511 316.036L294.238 297.735V261.129L262.511 242.828L230.789 261.124ZM295.204 299.398L263.478 317.699V354.3L295.199 372.601L326.921 354.305V317.699L295.204 299.398ZM296.171 261.119V297.73V297.735L327.888 316.031L359.614 297.73V261.124L327.888 242.823L296.171 261.119ZM328.864 317.696V354.3L360.586 372.601L392.307 354.3V317.694L360.586 299.398L328.864 317.696ZM361.557 261.124V297.735V297.74L393.274 316.036L425.001 297.735V261.129L393.274 242.828L361.557 261.124ZM394.25 317.696V354.295L425.972 372.596L457.694 354.3V317.694L425.972 299.398L394.25 317.696ZM426.943 261.124V297.735V297.74L458.66 316.036L490.387 297.735V261.129L458.66 242.828L426.943 261.124ZM523.075 317.699L491.358 299.403V299.398L459.631 317.699V354.3L491.353 372.601L523.075 354.305V317.699ZM492.329 261.124V297.735V297.74L524.046 316.036L555.773 297.735V261.129L524.046 242.828L492.329 261.124ZM556.744 299.398L525.018 317.699H525.023V354.305L556.744 372.606L588.466 354.305V317.699L556.744 299.398ZM557.711 261.119V297.73V297.735L589.433 316.031L621.159 297.73V261.124L589.433 242.823L557.711 261.119ZM590.404 317.696V354.295L622.126 372.596L653.847 354.3V317.694L622.126 299.398L590.404 317.696ZM623.097 261.124V297.735V297.74L654.819 316.036L686.545 297.735V261.129L654.819 242.828L623.097 261.124ZM719.229 317.699L687.512 299.403V299.398L655.785 317.699V354.3L687.507 372.601L719.229 354.305V317.699ZM688.478 261.124V297.735V297.74L720.2 316.036L751.927 297.735V261.129L720.2 242.828L688.478 261.124ZM752.893 299.398L721.167 317.699V354.3L752.888 372.601L784.61 354.305V317.699L752.893 299.398ZM753.86 261.119V297.73V297.735L785.581 316.031L817.308 297.73V261.124L785.581 242.823L753.86 261.119ZM786.553 317.696V354.3L818.275 372.601L849.996 354.3V317.694L818.275 299.398L786.553 317.696ZM819.246 261.124V297.735V297.74L850.963 316.036L882.689 297.735V261.129L850.963 242.828L819.246 261.124ZM883.661 299.398L851.934 317.699V354.295L883.656 372.596L915.378 354.3V317.694L883.661 299.398ZM884.632 261.124V297.735V297.74L916.354 316.036L948.081 297.735V261.129L916.354 242.828L884.632 261.124ZM980.769 317.699L949.047 299.403L949.052 299.398L917.325 317.699V354.3L949.047 372.601L980.769 354.305V317.699ZM950.018 261.124V297.735V297.74L981.74 316.036L1013.47 297.735V261.129L981.74 242.828L950.018 261.124ZM1014.43 299.398L982.706 317.699V354.3L1014.43 372.601L1046.15 354.305V317.699L1014.43 299.398ZM1015.4 261.119V297.73V297.735L1047.12 316.031L1078.85 297.73V261.124L1047.12 242.823L1015.4 261.119ZM1079.81 299.398L1048.09 317.699V354.3L1079.81 372.601L1111.53 354.3V317.694L1079.81 299.398ZM1080.79 261.124V297.735V297.74L1112.5 316.036L1144.23 297.735V261.129L1112.5 242.828L1080.79 261.124ZM1113.48 317.696V354.295L1145.2 372.596L1176.92 354.3V317.694L1145.2 299.398L1113.48 317.696ZM1146.17 261.124V297.735V297.74L1177.89 316.036L1209.62 297.735V261.129L1177.89 242.828L1146.17 261.124ZM1242.3 317.703L1210.59 299.403L1178.86 317.703V354.305L1210.58 372.606L1242.3 354.31V317.703ZM1211.55 261.124V297.735V297.74L1243.27 316.036L1275 297.735V261.129L1243.27 242.828L1211.55 261.124ZM1275.97 299.403L1244.24 317.703V354.305L1275.96 372.606L1307.69 354.305V317.699L1275.97 299.403ZM1276.94 261.129V297.74V297.745L1308.66 316.041L1340.38 297.74V261.134L1308.66 242.833L1276.94 261.129ZM1309.63 317.701V354.3L1341.35 372.601L1373.08 354.305V317.699L1341.35 299.403L1309.63 317.701ZM1309.63 241.16L1341.35 259.461L1341.35 259.451L1373.08 241.155V204.549L1341.35 186.253L1309.63 204.554V241.16ZM1308.66 202.886L1340.38 184.585V147.984L1308.66 129.683L1276.94 147.979V184.59L1308.66 202.886ZM1307.69 241.16V204.554V204.549L1275.97 186.253L1244.25 204.554V241.16L1275.97 259.461L1307.69 241.16ZM1243.28 202.881L1275 184.585V184.581V147.974L1243.28 129.678L1211.56 147.974V184.585L1243.28 202.881ZM1242.3 241.16V204.554L1210.59 186.253L1178.86 204.554V241.155L1210.58 259.456L1242.3 241.16ZM1177.89 202.881L1209.62 184.585V184.581V147.974L1177.89 129.678L1146.17 147.974V184.585L1177.89 202.881ZM1176.92 241.16V204.554L1176.92 204.544L1145.2 186.248L1113.47 204.549V241.155L1145.2 259.456L1176.92 241.16ZM1112.5 202.886L1144.23 184.585V147.984L1112.5 129.683L1080.79 147.979V184.59L1112.5 202.886ZM1111.54 241.16V204.554V204.549L1079.82 186.253L1048.09 204.554V241.16L1079.81 259.461L1111.54 241.16ZM1047.12 202.881L1078.85 184.585V184.581V147.974L1047.12 129.678L1015.4 147.974V184.585L1047.12 202.881ZM1046.15 241.16V204.554V204.549L1014.43 186.248L982.706 204.549V241.155L1014.43 259.456L1046.15 241.16ZM981.735 202.881L1013.46 184.585V184.581V147.974L981.735 129.678L950.013 147.974V184.585L981.735 202.881ZM980.764 241.16V204.554L980.769 204.549L949.047 186.253L917.32 204.554V241.155L949.042 259.456L980.764 241.16ZM916.349 202.881L948.076 184.585V184.581V147.974L916.349 129.678L884.627 147.974V184.585L916.349 202.881ZM915.383 241.16V204.554V204.544L883.666 186.248L851.939 204.549V241.155L883.661 259.456L915.383 241.16ZM850.968 202.886L882.694 184.585V147.984L850.968 129.683L819.251 147.979V184.59L850.968 202.886ZM850.001 241.16V204.554L850.006 204.549L818.284 186.253L786.558 204.554V241.16L818.279 259.461L850.001 241.16ZM785.586 202.881L817.313 184.585V184.581V147.974L785.586 129.678L753.865 147.974V184.585L785.586 202.881ZM784.615 241.16V204.554V204.549L752.898 186.248L721.171 204.549V241.155L752.893 259.456L784.615 241.16ZM720.2 202.881L751.927 184.585V184.581V147.974L720.2 129.678L688.478 147.974V184.585L720.2 202.881ZM719.229 241.16V204.554V204.549L687.512 186.253L655.785 204.554V241.155L687.507 259.456L719.229 241.16ZM654.814 202.881L686.541 184.585V184.581V147.974L654.814 129.678L623.092 147.974V184.585L654.814 202.881ZM653.847 241.16V204.554L653.852 204.544L622.131 186.248L590.404 204.549V241.155L622.126 259.456L653.847 241.16ZM589.433 202.886L621.159 184.585V147.984L589.433 129.683L557.711 147.979V184.59L589.433 202.886ZM588.466 241.16V204.554H588.471L556.749 186.253L525.023 204.554V241.16L556.744 259.461L588.466 241.16ZM524.051 202.881L555.778 184.585V184.581V147.974L524.051 129.678L492.334 147.974V184.585L524.051 202.881ZM523.08 241.16V204.554V204.549L491.363 186.253L459.636 204.554V241.155L491.358 259.456L523.08 241.16ZM458.665 202.881L490.392 184.585V184.581V147.974L458.665 129.678L426.948 147.974V184.585L458.665 202.881ZM457.699 241.16V204.554L457.703 204.544L425.982 186.248L394.255 204.549V241.155L425.977 259.456L457.699 241.16ZM393.284 202.886L425.01 184.585V147.984L393.284 129.683L361.567 147.979V184.59L393.284 202.886ZM392.317 241.16V204.554L392.322 204.549L360.6 186.253L328.874 204.554V241.16L360.595 259.461L392.317 241.16ZM327.902 202.881L359.629 184.585V184.581V147.974L327.902 129.678L296.185 147.974V184.585L327.902 202.881ZM326.931 241.16V204.554V204.549L295.214 186.248L263.487 204.549V241.155L295.209 259.456L326.931 241.16ZM262.516 202.881L294.243 184.585V184.581V147.974L262.516 129.678L230.794 147.974V184.585L262.516 202.881ZM261.545 241.16V204.554L261.55 204.549L229.828 186.253L198.101 204.554V241.155L229.823 259.456L261.545 241.16ZM197.13 202.881L228.857 184.585V184.581V147.974L197.13 129.678L165.408 147.974V184.585L197.13 202.881ZM196.164 241.16V204.554V204.544L164.447 186.248L132.72 204.549V241.155L164.442 259.456L196.164 241.16ZM131.749 202.886L163.475 184.585V147.984L131.749 129.683L100.032 147.979V184.59L131.749 202.886ZM130.782 241.16V204.554V204.549L99.0653 186.253L67.3386 204.554V241.16L99.0604 259.461L130.782 241.16ZM130.782 317.699L99.0653 299.403V299.398L67.3386 317.699V354.305L99.0604 372.606L130.782 354.305V317.699ZM130.782 430.848L99.0653 412.547V412.543L67.3386 430.843V467.45L99.0604 485.75L130.782 467.454V430.848ZM100.037 374.268V410.88L131.754 429.176L163.48 410.875V374.273L131.754 355.973L100.037 374.268ZM164.451 412.547L132.725 430.848V467.45L164.447 485.75L196.168 467.454V430.848L164.451 412.547ZM165.423 374.268V410.88L197.145 429.176L228.871 410.875V374.273L197.145 355.973L165.423 374.268ZM229.84 412.549L198.116 430.848V467.45L229.838 485.75L261.559 467.454V430.848L229.84 412.549ZM230.809 374.268V410.88L262.531 429.176L294.257 410.875V374.273L262.531 355.973L230.809 374.268ZM295.224 412.547L263.497 430.848V467.45L295.219 485.75L326.941 467.454V430.848L295.224 412.547ZM296.19 374.268V410.88L327.907 429.176L359.634 410.875V374.273L327.907 355.973L296.19 374.268ZM328.883 430.845V467.45L360.605 485.75L392.327 467.454V430.848L360.605 412.547L328.883 430.845ZM361.577 374.268V410.88L393.293 429.176L425.02 410.875V374.273L393.293 355.973L361.577 374.268ZM394.27 430.845V467.45L425.991 485.75L457.713 467.454V430.848L425.991 412.547L394.27 430.845ZM426.963 374.268V410.88L458.68 429.176L490.406 410.875V374.273L458.68 355.973L426.963 374.268ZM523.095 430.848L491.378 412.547L459.651 430.848V467.45L491.373 485.75L523.095 467.454V430.848ZM492.349 374.268V410.88L524.066 429.176L555.793 410.875V374.273L524.066 355.973L492.349 374.268ZM525.042 430.845V467.45L556.764 485.75L588.486 467.454V430.848L556.764 412.547L525.042 430.845ZM557.73 374.268V410.88L589.452 429.176L621.179 410.875V374.273L589.452 355.973L557.73 374.268ZM590.423 430.845V467.45L622.145 485.75L653.867 467.454V430.848L622.145 412.547L590.423 430.845ZM623.117 374.268V410.88L654.838 429.176L686.565 410.875V374.273L654.838 355.973L623.117 374.268ZM719.248 430.848L687.531 412.547L655.805 430.848V467.45L687.526 485.75L719.248 467.454V430.848ZM688.498 374.268V410.88L720.22 429.176L751.946 410.875V374.273L720.22 355.973L688.498 374.268ZM752.913 412.547L721.186 430.848V467.45L752.908 485.75L784.63 467.454V430.848L752.913 412.547ZM753.879 374.268V410.88L785.601 429.176L817.328 410.875V374.273L785.601 355.973L753.879 374.268ZM786.572 430.845V467.45L818.294 485.75L850.016 467.454V430.848L818.294 412.547L786.572 430.845ZM819.265 374.268V410.88L850.982 429.176L882.709 410.875V374.273L850.982 355.973L819.265 374.268ZM883.68 412.547L851.954 430.848V467.45L883.675 485.75L915.397 467.454V430.848L883.68 412.547ZM884.652 374.268V410.88L916.373 429.176L948.1 410.875V374.273L916.373 355.973L884.652 374.268ZM949.069 412.549L917.345 430.848V467.45L949.067 485.75L980.788 467.454V430.848L949.069 412.549ZM950.038 374.268V410.88L981.76 429.176L1013.49 410.875V374.273L981.76 355.973L950.038 374.268ZM1014.45 412.547L982.726 430.848V467.45L1014.45 485.75L1046.17 467.454V430.848L1014.45 412.547ZM1015.42 374.268V410.88L1047.14 429.176L1078.87 410.875V374.273L1047.14 355.973L1015.42 374.268ZM1079.83 412.547L1048.11 430.848V467.45L1079.83 485.75L1111.55 467.454V430.848L1079.83 412.547ZM1080.81 374.268V410.88L1112.52 429.176L1144.25 410.875V374.273L1112.52 355.973L1080.81 374.268ZM1113.5 430.843V430.845V467.45L1145.22 485.75L1176.94 467.454V430.848L1145.22 412.547L1113.5 430.843ZM1146.19 374.268V410.88L1177.91 429.176L1209.64 410.875V374.273L1177.91 355.973L1146.19 374.268ZM1242.32 430.848L1210.61 412.547L1178.88 430.848V467.45L1210.6 485.75L1242.32 467.454V430.848ZM1211.57 374.268V410.88L1243.29 429.176L1275.02 410.875V374.273L1243.29 355.973L1211.57 374.268ZM1275.99 412.547L1244.26 430.848V467.45L1275.98 485.75L1307.7 467.454V430.848L1275.99 412.547ZM1276.96 374.268V410.88L1308.68 429.176L1340.4 410.875V374.273L1308.68 355.973L1276.96 374.268ZM1309.65 430.843V430.845V467.45L1341.37 485.75L1373.1 467.454V430.848L1341.37 412.547L1309.65 430.843ZM1342.35 374.268V410.88L1374.07 429.176L1405.79 410.875V374.273L1374.07 355.973L1342.35 374.268ZM1342.35 261.124V297.735V297.74L1374.07 316.036L1405.79 297.735V261.129L1374.07 242.828L1342.35 261.124ZM1342.35 147.974V184.581L1374.07 202.876L1405.79 184.581V147.974L1374.07 129.678L1342.35 147.974ZM1342.35 34.8247V71.4359L1374.07 89.7318L1405.79 71.4311V34.8247L1374.07 16.5289L1342.35 34.8247ZM1373.1 128.011V91.4044L1373.1 91.3995L1341.38 73.0988L1309.65 91.3995V128.006L1341.37 146.307L1373.1 128.011ZM1308.68 89.7318L1340.41 71.4311V34.8296L1308.68 16.5289L1276.96 34.8247V71.4359L1308.68 89.7318ZM1307.71 128.011V91.4044V91.3995L1276 73.0988L1244.27 91.3995V128.006L1275.99 146.307L1307.71 128.011ZM1243.3 89.7318L1275.03 71.4311V34.8247L1243.3 16.5289L1211.58 34.8247V71.4359L1243.3 89.7318ZM1242.33 128.011V91.4044L1210.61 73.1036L1178.88 91.4044V128.006L1210.61 146.307L1242.33 128.011ZM1177.91 89.7318L1209.64 71.4311V34.8247L1177.91 16.5289L1146.19 34.8247V71.4359L1177.91 89.7318ZM1176.94 128.011V91.4044L1176.95 91.3995L1145.23 73.0988L1113.5 91.3995V128.006L1145.22 146.307L1176.94 128.011ZM1112.53 89.7318L1144.25 71.4311V34.8296L1112.53 16.5289L1080.81 34.8247V71.4359L1112.53 89.7318ZM1111.56 128.011V91.4044V91.3995L1079.84 73.0988L1048.12 91.3995V128.006L1079.84 146.307L1111.56 128.011ZM1047.15 89.7318L1078.87 71.4311V34.8247L1047.15 16.5289L1015.42 34.8247V71.4359L1047.15 89.7318ZM1046.17 128.011V91.4044V91.3995L1014.46 73.0988L982.731 91.3995V128.006L1014.45 146.307L1046.17 128.011ZM981.76 89.7318L1013.49 71.4311V34.8247L981.76 16.5289L950.038 34.8247V71.4359L981.76 89.7318ZM980.788 128.011V91.4044H980.793L949.071 73.1036L917.345 91.4044V128.006L949.067 146.307L980.788 128.011ZM916.373 89.7318L948.1 71.4311V34.8247L916.373 16.5289L884.652 34.8247V71.4359L916.373 89.7318ZM915.407 128.011V91.4044V91.3995L883.69 73.0988L851.963 91.3995V128.006L883.685 146.307L915.407 128.011ZM850.992 89.7318L882.719 71.4311V34.8296L850.992 16.5289L819.275 34.8247V71.4359L850.992 89.7318ZM850.026 128.011V91.4044L850.031 91.3995L818.309 73.0988L786.582 91.3995V128.006L818.304 146.307L850.026 128.011ZM785.611 89.7318L817.337 71.4311V34.8247L785.611 16.5289L753.889 34.8247V71.4359L785.611 89.7318ZM784.639 128.011V91.4044V91.3995L752.923 73.0988L721.196 91.3995V128.006L752.918 146.307L784.639 128.011ZM720.225 89.7318L751.951 71.4311V34.8247L720.225 16.5289L688.503 34.8247V71.4359L720.225 89.7318ZM719.253 128.011V91.4044L687.536 73.1036L655.81 91.4044V128.006L687.531 146.307L719.253 128.011ZM654.838 89.7318L686.565 71.4311V34.8247L654.838 16.5289L623.117 34.8247V71.4359L654.838 89.7318ZM653.872 128.011V91.4044L653.877 91.3995L622.155 73.0988L590.428 91.3995V128.006L622.15 146.307L653.872 128.011ZM589.457 89.7318L621.184 71.4311V34.8296L589.457 16.5289L557.735 34.8247V71.4359L589.457 89.7318ZM588.491 128.011V91.4044L588.495 91.3995L556.774 73.0988L525.047 91.3995V128.006L556.769 146.307L588.491 128.011ZM524.076 89.7318L555.802 71.4311V34.8247L524.076 16.5289L492.359 34.8247V71.4359L524.076 89.7318ZM523.104 128.011V91.4044L491.387 73.1036L459.661 91.4044V128.006L491.383 146.307L523.104 128.011ZM458.689 89.7318L490.416 71.4311V34.8247L458.689 16.5289L426.973 34.8247V71.4359L458.689 89.7318ZM457.723 128.011V91.4044L457.728 91.3995L426.006 73.0988L394.279 91.3995V128.006L426.001 146.307L457.723 128.011ZM393.308 89.7318L425.035 71.4311V34.8296L393.308 16.5289L361.591 34.8247V71.4359L393.308 89.7318ZM392.342 128.011V91.4044L392.347 91.3995L360.625 73.0988L328.898 91.3995V128.006L360.62 146.307L392.342 128.011ZM327.927 89.7318L359.653 71.4311V34.8247L327.927 16.5289L296.21 34.8247V71.4359L327.927 89.7318ZM326.955 128.011V91.4044V91.3995L295.239 73.0988L263.512 91.3995V128.006L295.234 146.307L326.955 128.011ZM262.541 89.7318L294.267 71.4311V34.8247L262.541 16.5289L230.819 34.8247V71.4359L262.541 89.7318ZM261.569 128.011V91.4044H261.574L229.852 73.1036L198.126 91.4044V128.006L229.847 146.307L261.569 128.011ZM197.154 89.7318L228.881 71.4311V34.8247L197.154 16.5289L165.433 34.8247V71.4359L197.154 89.7318ZM196.188 128.011V91.4044V91.3995L164.471 73.0988L132.744 91.3995V128.006L164.466 146.307L196.188 128.011ZM131.773 89.7318L163.5 71.4311V34.8296L131.773 16.5289L100.056 34.8247V71.4359L131.773 89.7318ZM130.807 128.011V91.4044V91.3995L99.0897 73.0988L67.363 91.3995V128.006L99.0848 146.307L130.807 128.011ZM66.3917 89.7318L98.1184 71.4311V34.8247L66.3917 16.5289L34.665 34.8247V71.4311L66.3917 89.7318ZM98.1184 184.581V147.974L66.3917 129.678L34.665 147.974V184.581L66.3917 202.876L98.1184 184.581ZM98.1184 297.73V261.124L66.3917 242.823L34.665 261.124V297.73L66.3917 316.031L98.1184 297.73ZM98.1184 410.875V374.273L66.3917 355.973L34.665 374.273V410.875L66.3917 429.176L98.1184 410.875ZM98.1184 524.029V487.423L66.3917 469.122L34.665 487.423V524.029L66.3917 542.33L98.1184 524.029ZM99.0897 525.697L67.363 543.998V544.003V580.604L99.0848 598.905L130.807 580.604V543.998L99.0897 525.697ZM100.061 487.418V524.029V524.034L131.778 542.33L163.505 524.029V487.423L131.778 469.122L100.061 487.418ZM164.476 525.697L132.749 543.998V580.599L164.471 598.9L196.193 580.604V543.998L164.476 525.697ZM165.447 487.418V524.029V524.034L197.169 542.33L228.896 524.029V487.423L197.169 469.122L165.447 487.418ZM229.865 525.698L261.584 543.998V580.604L229.862 598.9L198.14 580.599V543.998L229.865 525.698ZM230.833 487.418V524.029V524.034L262.555 542.33L294.282 524.029V487.423L262.555 469.122L230.833 487.418ZM295.248 525.697L263.522 543.998V580.599L295.243 598.9L326.965 580.604V543.998L295.248 525.697ZM296.215 487.418V524.029V524.034L327.932 542.33L359.658 524.029V487.423L327.932 469.122L296.215 487.418ZM360.63 525.697L328.903 543.998L328.908 544.003V580.604L360.63 598.905L392.351 580.604V543.998L360.63 525.697ZM361.601 487.418V524.029V524.034L393.318 542.33L425.045 524.029V487.423L393.318 469.122L361.601 487.418ZM426.016 525.697L394.289 543.998H394.294V580.599L426.016 598.9L457.738 580.604V543.998L426.016 525.697ZM426.987 487.418V524.029V524.034L458.704 542.33L490.431 524.029V487.423L458.704 469.122L426.987 487.418ZM523.119 543.998L491.402 525.697L459.675 543.998V580.599L491.397 598.9L523.119 580.604V543.998ZM492.373 487.418V524.029V524.034L524.09 542.33L555.817 524.029V487.423L524.09 469.122L492.373 487.418ZM556.788 525.697L525.062 543.998L525.066 544.003V580.604L556.788 598.905L588.51 580.604V543.998L556.788 525.697ZM557.755 487.418V524.029V524.034L589.477 542.33L621.203 524.029V487.423L589.477 469.122L557.755 487.418ZM622.17 525.697L590.443 543.998H590.448V580.599L622.17 598.9L653.891 580.604V543.998L622.17 525.697ZM623.141 487.418V524.029V524.034L654.863 542.33L686.589 524.029V487.423L654.863 469.122L623.141 487.418ZM719.273 543.998L687.556 525.697L655.829 543.998V580.599L687.551 598.9L719.273 580.604V543.998ZM688.522 487.418V524.029V524.034L720.244 542.33L751.971 524.029V487.423L720.244 469.122L688.522 487.418ZM752.937 525.697L721.21 543.998V580.599L752.932 598.9L784.654 580.604V543.998L752.937 525.697ZM753.904 487.418V524.029V524.034L785.625 542.33L817.352 524.029V487.423L785.625 469.122L753.904 487.418ZM818.318 525.697L786.592 543.998L786.597 544.003V580.604L818.318 598.905L850.04 580.604V543.998L818.318 525.697ZM819.29 487.418V524.029V524.034L851.007 542.33L882.733 524.029V487.423L851.007 469.122L819.29 487.418ZM883.705 525.697L851.978 543.998V580.599L883.7 598.9L915.422 580.604V543.998L883.705 525.697ZM884.676 487.418V524.029V524.034L916.398 542.33L948.124 524.029V487.423L916.398 469.122L884.676 487.418ZM949.093 525.698L980.813 543.998V580.604L949.091 598.9L917.369 580.599V543.998L949.093 525.698ZM950.062 487.418V524.029V524.034L981.784 542.33L1013.51 524.029V487.423L981.784 469.122L950.062 487.418ZM1014.48 525.697L982.75 543.998V580.599L1014.47 598.9L1046.19 580.604V543.998L1014.48 525.697ZM1015.44 487.418V524.029V524.034L1047.17 542.33L1078.89 524.029V487.423L1047.17 469.122L1015.44 487.418ZM1079.86 525.697L1048.13 543.998V544.003V580.604L1079.85 598.905L1111.58 580.604V543.998L1079.86 525.697ZM1080.83 487.418V524.029V524.034L1112.55 542.33L1144.27 524.029V487.423L1112.55 469.122L1080.83 487.418ZM1145.24 525.697L1113.52 543.998H1113.52V580.599L1145.24 598.9L1176.97 580.604V543.998L1145.24 525.697ZM1146.22 487.418V524.029V524.034L1177.94 542.33L1209.66 524.029V487.423L1177.94 469.122L1146.22 487.418ZM1242.35 543.998L1210.63 525.697L1178.9 543.998V580.599L1210.63 598.9L1242.35 580.604V543.998ZM1211.6 487.418V524.029V524.034L1243.31 542.33L1275.04 524.029V487.423L1243.31 469.122L1211.6 487.418ZM1276.01 525.697L1244.29 543.998V544.003V580.604L1276.01 598.905L1307.73 580.604V543.998L1276.01 525.697ZM1276.98 487.418V524.029V524.034L1308.7 542.33L1340.43 524.029V487.423L1308.7 469.122L1276.98 487.418ZM1341.4 525.697L1309.67 543.998H1309.68V580.599L1341.4 598.9L1373.12 580.604V543.998L1341.4 525.697ZM1342.37 487.418V524.029V524.034L1374.09 542.33L1405.82 524.029V487.423L1374.09 469.122L1342.37 487.418ZM1438.5 467.454V430.848L1406.78 412.547L1375.06 430.848V467.45L1406.78 485.75L1438.5 467.454ZM1438.5 354.305V317.699V317.694L1406.78 299.398L1375.06 317.699V354.3L1406.78 372.601L1438.5 354.305ZM1438.5 241.155V204.549V204.544L1406.78 186.248L1375.06 204.549V241.151L1406.78 259.451L1438.5 241.155ZM1438.5 128.011V91.4044L1406.78 73.1036L1375.06 91.4044V128.006L1406.78 146.307L1438.5 128.011ZM1438.5 -21.7452L1406.78 -40.041V-40.0459L1375.06 -21.7452V14.8563L1406.78 33.157L1438.5 14.8612V-21.7452ZM1374.09 -96.6158L1342.37 -78.3199V-41.7038L1374.09 -23.408L1405.82 -41.7087V-78.3151L1374.09 -96.6158ZM1373.12 -21.7452L1341.4 -40.041L1309.68 -21.7501V14.8563L1341.4 33.157L1373.12 14.8612V-21.7452ZM1340.43 -78.3151L1308.71 -96.6158L1276.99 -78.3199V-41.7038L1308.71 -23.408L1340.43 -41.7087V-78.3151ZM1307.73 -21.7452L1276.02 -40.041V-40.0459L1244.29 -21.7501V14.8563L1276.01 33.157L1307.73 14.8612V-21.7452ZM1243.32 -96.6158L1211.6 -78.3199V-41.7087L1243.32 -23.4129L1275.05 -41.7136V-78.3151L1243.32 -96.6158ZM1242.35 -21.7403L1210.64 -40.041L1178.91 -21.7403V14.8612L1210.63 33.1619L1242.35 14.866V-21.7403ZM1177.94 -96.6158L1146.22 -78.3199V-41.7087L1177.94 -23.4129L1209.67 -41.7136V-78.3151L1177.94 -96.6158ZM1176.97 -21.7452L1145.25 -40.041L1113.53 -21.7501V14.8563L1145.25 33.157L1176.97 14.8612V-21.7452ZM1144.28 -78.3151L1112.56 -96.6158L1080.84 -78.3199V-41.7038L1112.56 -23.408L1144.28 -41.7087V-78.3151ZM1111.59 -21.7452L1079.87 -40.041V-40.0459L1048.14 -21.7501V14.8563L1079.86 33.157L1111.59 14.8612V-21.7452ZM1047.18 -96.6158L1015.45 -78.3199V-41.7087L1047.18 -23.4129L1078.9 -41.7136V-78.3151L1047.18 -96.6158ZM1046.2 -21.7403L1014.49 -40.041V-40.0459L982.76 -21.7452V14.8612L1014.48 33.1619L1046.2 14.866V-21.7403ZM981.794 -96.6158L950.072 -78.3199V-41.7087L981.794 -23.4129L1013.52 -41.7136V-78.3151L981.794 -96.6158ZM980.822 -21.7452L949.101 -40.041L949.106 -40.0459L917.379 -21.7452V14.8563L949.101 33.157L980.822 14.8612V-21.7452ZM916.408 -96.6158L884.686 -78.3199V-41.7038L916.408 -23.408L948.134 -41.7087V-78.3151L916.408 -96.6158ZM915.436 -21.7452L883.719 -40.041V-40.0459L851.993 -21.7501V14.8563L883.714 33.157L915.436 14.8612V-21.7452ZM882.753 -78.3151L851.026 -96.6158L819.309 -78.3199V-41.7038L851.026 -23.408L882.753 -41.7087V-78.3151ZM850.06 -21.7452L818.338 -40.041L818.343 -40.0459L786.616 -21.7501V14.8563L818.338 33.157L850.06 14.8612V-21.7452ZM785.645 -96.6158L753.923 -78.3199V-41.7087L785.645 -23.4129L817.372 -41.7136V-78.3151L785.645 -96.6158ZM784.674 -21.7403L752.957 -40.041V-40.0459L721.23 -21.7452V14.8612L752.952 33.1619L784.674 14.866V-21.7403ZM720.264 -96.6158L688.542 -78.3199V-41.7087L720.264 -23.4129L751.99 -41.7136V-78.3151L720.264 -96.6158ZM719.292 -21.7452L687.575 -40.041V-40.0459L655.849 -21.7452V14.8563L687.57 33.157L719.292 14.8612V-21.7452ZM686.609 -78.3151L654.882 -96.6158L623.16 -78.3199V-41.7038L654.882 -23.408L686.609 -41.7087V-78.3151ZM653.916 -21.7452L622.194 -40.041L622.199 -40.0459L590.472 -21.7501V14.8563L622.194 33.157L653.916 14.8612V-21.7452ZM589.501 -96.6158L557.779 -78.3199V-41.7038L589.501 -23.408L621.228 -41.7087V-78.3151L589.501 -96.6158ZM588.534 -21.7403L556.813 -40.041L556.818 -40.0459L525.091 -21.7452V14.8612L556.813 33.1619L588.534 14.866V-21.7403ZM524.115 -96.6158L492.398 -78.3199V-41.7087L524.115 -23.4129L555.841 -41.7136V-78.3151L524.115 -96.6158ZM523.143 -21.7452L491.426 -40.041V-40.0459L459.7 -21.7452V14.8563L491.422 33.157L523.143 14.8612V-21.7452ZM458.728 -96.6158L427.012 -78.3199V-41.7038L458.728 -23.408L490.455 -41.7087V-78.3151L458.728 -96.6158ZM457.762 -21.7452L426.04 -40.041L426.045 -40.0459L394.318 -21.7501V14.8563L426.04 33.157L457.762 14.8612V-21.7452ZM425.074 -78.3151L393.347 -96.6158L361.63 -78.3199V-41.7038L393.347 -23.408L425.074 -41.7087V-78.3151ZM392.381 -21.7452L360.659 -40.041L360.664 -40.0459L328.937 -21.7501V14.8563L360.659 33.157L392.381 14.8612V-21.7452ZM327.961 -96.6158L296.244 -78.3199V-41.7087L327.961 -23.4129L359.688 -41.7136V-78.3151L327.961 -96.6158ZM326.995 -21.7403L295.278 -40.041V-40.0459L263.551 -21.7452V14.8612L295.273 33.1619L326.995 14.866V-21.7403ZM262.584 -96.6158L230.863 -78.3199V-41.7087L262.584 -23.4129L294.311 -41.7136V-78.3151L262.584 -96.6158ZM261.613 -21.7452L229.891 -40.041L229.896 -40.0459L198.17 -21.7452V14.8563L229.891 33.157L261.613 14.8612V-21.7452ZM197.198 -96.6158L165.477 -78.3199V-41.7038L197.198 -23.408L228.925 -41.7087V-78.3151L197.198 -96.6158ZM196.227 -21.7452L164.51 -40.041V-40.0459L132.783 -21.7501V14.8563L164.505 33.157L196.227 14.8612V-21.7452ZM163.544 -78.3151L131.817 -96.6158L100.1 -78.3199V-41.7038L131.817 -23.408L163.544 -41.7087V-78.3151ZM130.846 -21.7452L99.1287 -40.041V-40.0459L67.4021 -21.7501V14.8563L99.1239 33.157L130.846 14.8612V-21.7452ZM66.3527 -96.6158L34.626 -78.3151V-41.7136L66.3527 -23.4129L98.0793 -41.7136V-78.3151L66.3527 -96.6158ZM1.93289 -21.7452V14.8612L33.6644 33.157L65.3862 14.8612V-21.7452L33.6644 -40.0459L1.93289 -21.7452ZM1.93289 91.4044V128.011L33.6644 146.307L65.3862 128.011V91.4044L33.6644 73.1036L1.93289 91.4044ZM1.93289 204.554V241.155L33.6644 259.456L65.3862 241.16V204.554L33.6644 186.253L1.93289 204.554ZM1.93289 317.703V354.305L33.6644 372.606L65.3862 354.31V317.703L33.6644 299.403L1.93289 317.703ZM1.93289 430.853V467.454L33.6644 485.755L65.3862 467.459V430.853L33.6644 412.552L1.93289 430.853ZM1.93289 544.003V580.599L33.6644 598.905L65.3862 580.609V544.003L33.6644 525.702L1.93289 544.003ZM33.6644 712.054L65.3862 693.758V693.754V657.147L33.6644 638.847L1.93289 657.147V693.749L33.6644 712.054ZM34.6309 600.573V637.179L66.3575 655.475L98.0842 637.179V600.573L66.3575 582.272L34.6309 600.573ZM99.0506 712.054L130.772 693.754V657.147L99.0555 638.851L67.3289 657.152V693.758L99.0506 712.054ZM100.022 600.568V637.179V637.184L131.739 655.48L163.466 637.179V600.573L131.739 582.272L100.022 600.568ZM164.432 712.049L196.154 693.754V693.744V657.138L164.437 638.842L132.71 657.142V693.749L164.432 712.049ZM165.403 600.568V637.179L197.125 655.475L228.852 637.179V600.573L197.125 582.272L165.403 600.568ZM229.813 712.049L261.535 693.754L261.54 693.749V657.142L229.818 638.847L198.092 657.147V693.754L229.813 712.049ZM230.785 600.568V637.179L262.506 655.475L294.233 637.179V600.573L262.506 582.272L230.785 600.568ZM295.195 712.049L326.916 693.754V657.147L295.199 638.847L263.473 657.147V693.754L295.195 712.049ZM296.166 600.568V637.179L327.883 655.475L359.61 637.179V600.573L327.883 582.272L296.166 600.568ZM360.581 712.054L392.303 693.754H392.307V657.147L360.586 638.851L328.859 657.152V693.758L360.581 712.054ZM361.552 600.568V637.179V637.184L393.269 655.48L424.996 637.179V600.573L393.269 582.272L361.552 600.568ZM426.934 600.568V637.179L458.65 655.475L490.377 637.179V600.573L458.65 582.272L426.934 600.568ZM492.315 600.568V637.179L524.032 655.475L555.758 637.179V600.573L524.032 582.272L492.315 600.568ZM557.701 600.568V637.179V637.184L589.423 655.48L621.149 637.179V600.573L589.423 582.272L557.701 600.568ZM623.087 600.568V637.179L654.809 655.475L686.536 637.179V600.573L654.809 582.272L623.087 600.568ZM819.236 600.568V637.179V637.184L850.953 655.48L882.68 637.179V600.573L850.953 582.272L819.236 600.568ZM884.617 600.568V637.179L916.339 655.475L948.066 637.179V600.573L916.339 582.272L884.617 600.568ZM949.999 600.568V637.179L981.721 655.475L1013.45 637.179V600.573L981.721 582.272L949.999 600.568ZM1015.38 600.568V637.179L1047.1 655.475L1078.83 637.179V600.573L1047.1 582.272L1015.38 600.568ZM1080.77 600.568V637.179V637.184L1112.48 655.48L1144.21 637.179V600.573L1112.48 582.272L1080.77 600.568ZM1146.15 600.568V637.179L1177.87 655.475L1209.6 637.179V600.573L1177.87 582.272L1146.15 600.568ZM1211.53 600.568V637.179L1243.25 655.475L1274.97 637.179V600.573L1243.25 582.272L1211.53 600.568Z" fill="url(#paint1_linear_54_26763)"/>
</g>
<defs>
<linearGradient id="paint0_linear_54_26763" x1="1421" y1="689.305" x2="282.528" y2="-81.7188" gradientUnits="userSpaceOnUse">
<stop stop-color="#FFE5B3" stop-opacity="0.18"/>
<stop offset="0.57141" stop-color="#FFFAD5"/>
<stop offset="1" stop-color="#FFFAD5" stop-opacity="0"/>
</linearGradient>
<linearGradient id="paint1_linear_54_26763" x1="1223.5" y1="533.5" x2="406.5" y2="-84.9999" gradientUnits="userSpaceOnUse">
<stop stop-color="#FFD34E"/>
<stop offset="1" stop-color="#FFD34E" stop-opacity="0"/>
</linearGradient>
<clipPath id="clip0_54_26763">
<rect width="1440" height="741" fill="white"/>
</clipPath>
</defs>
</svg>
