<svg width="30" height="23" viewBox="0 0 30 23" fill="none" xmlns="http://www.w3.org/2000/svg">
<path d="M3.14044e-08 11.501C-0.000187469 10.4425 0.83925 9.58405 1.87481 9.58405L28.1248 9.58252C29.1604 9.58252 29.9998 10.4404 30 11.4989C30.0002 12.5573 29.1607 13.4158 28.1252 13.4158L1.87519 13.4173C0.839625 13.4175 0.000187531 12.5595 3.14044e-08 11.501Z" fill="#592B02"/>
<path d="M3.14044e-08 1.91844C-0.000187469 0.859945 0.83925 0.00153347 1.87481 0.00153347L28.1248 0C29.1604 0 29.9998 0.857836 30 1.91633C30.0002 2.97483 29.1607 3.83324 28.1252 3.83324L1.87519 3.83477C0.839625 3.83496 0.000187531 2.97694 3.14044e-08 1.91844Z" fill="#592B02"/>
<path d="M3.14044e-08 21.0835C-0.000187469 20.025 0.83925 19.1666 1.87481 19.1666L28.1248 19.165C29.1604 19.165 29.9998 20.0229 30 21.0814C30.0002 22.1399 29.1607 22.9983 28.1252 22.9983L1.87519 22.9998C0.839625 23 0.000187531 22.142 3.14044e-08 21.0835Z" fill="#592B02"/>
</svg>
