<svg width="25" height="25" viewBox="0 0 25 25" fill="none" xmlns="http://www.w3.org/2000/svg">
<path d="M11.2041 0.308997L1.29531 5.40555C0.493325 5.81827 0 6.57959 0 7.40379L0 17.5964C0 18.4206 0.493325 19.1817 1.29531 19.5947L11.2041 24.691C12.006 25.103 12.9929 25.103 13.795 24.691L23.7046 19.5947C24.5066 19.1817 25 18.4206 25 17.5964V7.40384C25 6.57959 24.5066 5.81827 23.7046 5.4056L13.795 0.308997C12.9929 -0.103 12.006 -0.103 11.2041 0.308997Z" fill="#FFFAD5"/>
<path d="M10.2002 2.08046C11.1095 2.24093 11.9168 3.28398 12.0272 4.43401L12.0697 4.90651L11.6873 5.19179C10.6251 6.00305 10.5401 7.59883 11.5089 8.49924C12.1462 9.08763 12.9365 9.20352 13.7098 8.82018C15.095 8.15156 15.2649 6.12786 14.0073 5.21853C13.7098 5.00457 13.6758 4.93325 13.6673 4.61231C13.6673 3.96152 13.8883 3.37313 14.3642 2.83823C14.857 2.26768 15.0185 2.1607 15.4944 2.07155L15.8343 2.01806L15.5284 2.00023C15.1205 1.99131 14.4321 2.36574 14.0497 2.81149C13.6758 3.23941 13.3529 3.93477 13.2764 4.46967L13.2254 4.85302L12.826 4.82627L12.4351 4.79953L12.3757 4.38052C12.2227 3.19483 11.067 1.97348 10.1322 2.00023L9.80078 2.00914L10.2002 2.08046Z" fill="#592B02"/>
<path d="M19.2262 7.54604C17.977 7.67977 16.4049 8.19684 15.3597 8.82088C14.9263 9.07942 14 9.75696 14 9.82828C14 9.83719 14.3144 9.67672 14.7053 9.47168C15.5806 8.98135 16.5239 8.66041 17.5691 8.48212C18.5804 8.31273 19.2432 8.31273 20.076 8.48212C22.005 8.86546 22.8718 10.069 22.26 11.5043L22.073 11.9411L21.6651 11.8876C21.4442 11.852 20.9598 11.8074 20.5859 11.7896C19.8806 11.7361 19.9655 11.8074 20.8408 11.9857C21.0788 12.0392 21.3847 12.1283 21.5207 12.1818L21.7756 12.2888L21.2572 12.788C20.6454 13.3853 19.6936 13.9381 18.6314 14.3125C17.7136 14.6424 17.9855 14.678 19.1158 14.3749C20.3904 14.0361 21.5547 13.5012 22.311 12.9129L22.5999 12.6989L22.9313 13.0377C23.3137 13.4299 23.4837 13.8935 23.3987 14.3393C23.1608 15.6587 20.5859 16.461 18.4359 15.8726C17.8071 15.7032 17.7901 15.7656 18.3934 16.0064C20.7389 16.9157 23.8406 16.3808 24.5459 14.9366C24.9538 14.0807 24.5544 13.1892 23.4582 12.5206L23.1013 12.3066L23.4497 11.8609C24.6394 10.3632 24.41 8.86546 22.8548 8.04528C22.0135 7.59953 20.5604 7.4034 19.2262 7.54604Z" fill="#592B02"/>
<path d="M4.16473 7.5513C3.09399 7.65828 2.2357 7.98813 1.64085 8.54086C0.72307 9.37887 0.782556 10.6715 1.77681 11.9196L2.11673 12.3476L1.8193 12.4902C1.4199 12.6863 0.774058 13.2925 0.621095 13.6135C0.459635 13.9344 0.459635 14.612 0.621095 14.9329C0.935519 15.5748 1.95527 16.1721 3.09399 16.3771C3.99477 16.5376 5.56689 16.4395 6.39968 16.1542C7.06252 15.9314 7.59789 15.655 7.12201 15.7887C7.00304 15.8155 6.55265 15.9135 6.11075 15.9938C5.43942 16.1097 5.19298 16.1186 4.52164 16.0294C2.09124 15.7085 1.029 14.2732 2.29519 13.0073L2.57562 12.722L2.95802 12.9894C3.79932 13.5867 4.98903 14.1216 6.14475 14.4158C7.01153 14.6298 7.41943 14.6387 6.78209 14.4158C5.60088 14.0147 4.53014 13.3995 3.76533 12.6863C3.53588 12.4724 3.4509 12.3386 3.51039 12.2762C3.62936 12.1514 4.53864 11.9107 4.91255 11.9107C5.15049 11.9018 5.18448 11.884 5.06551 11.8216C4.92954 11.7324 3.4594 11.8483 3.28944 11.9553C3.17897 12.0355 2.88154 11.5095 2.78807 11.0638C2.53313 9.86919 3.33193 8.91529 4.91255 8.51412C5.48191 8.37148 7.156 8.36256 7.84433 8.5052C8.63464 8.67459 9.69688 9.04901 10.4192 9.42344L11.0735 9.76221L10.7336 9.4591C10.5467 9.28972 10.0708 8.97769 9.67138 8.75482C7.9548 7.81875 5.98328 7.38191 4.16473 7.5513Z" fill="#592B02"/>
<path d="M12.4387 10.3011C11.8821 10.624 11.0181 11.3571 10.6775 11.7934L10.4199 12.1338H12.8375H15.255L15.0972 11.8894C14.7648 11.4182 13.9507 10.7025 13.2528 10.2749L12.879 10.048L12.4387 10.3011Z" fill="#592B02"/>
<path d="M9.78893 13.1986C9.7557 13.2597 9.63939 13.504 9.5397 13.7484L9.36523 14.1847L12.8129 14.2109C14.7154 14.2197 16.2855 14.2109 16.3022 14.1935C16.3271 14.1673 16.244 13.9142 16.1194 13.6262L15.8868 13.0938H12.8711C10.5532 13.0938 9.83877 13.12 9.78893 13.1986Z" fill="#592B02"/>
<path d="M9.09969 15.5287C9.09969 15.712 9.07477 15.9912 9.04985 16.1396L9 16.4102H12.8298H16.6597V16.1222C16.6597 15.9738 16.6348 15.6945 16.6098 15.5112L16.5517 15.1883H12.8298H9.09969V15.5287Z" fill="#592B02"/>
<path d="M9.12383 17.5188C9.14875 17.6061 9.21521 17.8854 9.26506 18.1297L9.36475 18.5923H12.8457H16.3183L16.4512 18.1385C16.6921 17.2832 17.0826 17.3705 12.8291 17.3705C9.3066 17.3705 9.0906 17.3792 9.12383 17.5188Z" fill="#592B02"/>
<path d="M9.93717 19.875C10.0452 20.0583 10.2196 20.3376 10.3276 20.4859L10.527 20.7739H12.8698H15.2126L15.5615 20.2154C15.7526 19.9099 15.9104 19.6307 15.9104 19.6045C15.9104 19.5783 14.523 19.5521 12.8282 19.5521H9.74609L9.93717 19.875Z" fill="#592B02"/>
<path d="M11.7982 22.0482C12.0308 22.2227 12.3631 22.4409 12.5459 22.5369L12.8865 22.7114L13.3767 22.3972C13.6508 22.2314 13.9665 22.0132 14.0828 21.9085L14.2905 21.734H12.8367H11.3828L11.7982 22.0482Z" fill="#592B02"/>
</svg>
