<svg width="41" height="40" viewBox="0 0 41 40" fill="none" xmlns="http://www.w3.org/2000/svg">
<g clip-path="url(#clip0_137_28166)">
<path d="M20.6707 4H20.6627C11.8407 4 4.66669 11.176 4.66669 20C4.66669 23.5 5.79469 26.744 7.71269 29.378L5.71869 35.322L11.8687 33.356C14.3987 35.032 17.4167 36 20.6707 36C29.4927 36 36.6667 28.822 36.6667 20C36.6667 11.178 29.4927 4 20.6707 4ZM29.9807 26.594C29.5947 27.684 28.0627 28.588 26.8407 28.852C26.0047 29.03 24.9127 29.172 21.2367 27.648C16.5347 25.7 13.5067 20.922 13.2707 20.612C13.0447 20.302 11.3707 18.082 11.3707 15.786C11.3707 13.49 12.5367 12.372 13.0067 11.892C13.3927 11.498 14.0307 11.318 14.6427 11.318C14.8407 11.318 15.0187 11.328 15.1787 11.336C15.6487 11.356 15.8847 11.384 16.1947 12.126C16.5807 13.056 17.5207 15.352 17.6327 15.588C17.7467 15.824 17.8607 16.144 17.7007 16.454C17.5507 16.774 17.4187 16.916 17.1827 17.188C16.9467 17.46 16.7227 17.668 16.4867 17.96C16.2707 18.214 16.0267 18.486 16.2987 18.956C16.5707 19.416 17.5107 20.95 18.8947 22.182C20.6807 23.772 22.1287 24.28 22.6467 24.496C23.0327 24.656 23.4927 24.618 23.7747 24.318C24.1327 23.932 24.5747 23.292 25.0247 22.662C25.3447 22.21 25.7487 22.154 26.1727 22.314C26.6047 22.464 28.8907 23.594 29.3607 23.828C29.8307 24.064 30.1407 24.176 30.2547 24.374C30.3667 24.572 30.3667 25.502 29.9807 26.594Z" fill="#592B02"/>
</g>
<defs>
<clipPath id="clip0_137_28166">
<rect width="32" height="32" fill="white" transform="translate(4.66669 4)"/>
</clipPath>
</defs>
</svg>
