<svg width="24" height="21" viewBox="0 0 24 21" fill="none" xmlns="http://www.w3.org/2000/svg">
<g clip-path="url(#clip0_57_26783)">
<path d="M9.39046 0.0790916C10.2794 0.236183 11.0686 1.25727 11.1766 2.38309L11.2182 2.84564L10.8443 3.12491C9.80585 3.91909 9.72277 5.48127 10.6698 6.36273C11.2929 6.93873 12.0655 7.05218 12.8215 6.67691C14.1757 6.02236 14.3418 4.04127 13.1123 3.15109C12.8215 2.94164 12.7883 2.87182 12.78 2.55764C12.78 1.92055 12.996 1.34455 13.4612 0.82091C13.9431 0.262364 14.1009 0.157637 14.5662 0.0703644L14.8985 0.0180007L14.5994 0.000546174C14.2006 -0.0081811 13.5277 0.358364 13.1538 0.794728C12.7883 1.21364 12.4726 1.89436 12.3978 2.418L12.348 2.79327L11.9575 2.76709L11.5754 2.74091L11.5172 2.33073C11.3677 1.17 10.2378 -0.0256356 9.324 0.000546174L9 0.00927345L9.39046 0.0790916Z" fill="#DB9E36"/>
<path d="M18.1092 5.27949C16.888 5.4104 15.3511 5.91658 14.3292 6.52749C13.9055 6.78058 13 7.44386 13 7.51368C13 7.5224 13.3074 7.36531 13.6895 7.16458C14.5452 6.68458 15.4674 6.3704 16.4892 6.19586C17.4778 6.03004 18.1258 6.03004 18.94 6.19586C20.8258 6.57113 21.6732 7.74931 21.0751 9.1544L20.8923 9.58204L20.4935 9.52968C20.2775 9.49477 19.804 9.45113 19.4385 9.43368C18.7489 9.38131 18.832 9.45113 19.6877 9.62568C19.9203 9.67804 20.2194 9.76531 20.3523 9.81768L20.6015 9.9224L20.0948 10.4111C19.4966 10.9959 18.5662 11.5369 17.5277 11.9035C16.6305 12.2264 16.8963 12.2613 18.0012 11.9646C19.2474 11.6329 20.3855 11.1093 21.1249 10.5333L21.4074 10.3239L21.7314 10.6555C22.1052 11.0395 22.2714 11.4933 22.1883 11.9297C21.9557 13.2213 19.4385 14.0068 17.3366 13.4308C16.7218 13.2649 16.7052 13.326 17.2951 13.5617C19.588 14.4519 22.6203 13.9282 23.3098 12.5144C23.7086 11.6766 23.3182 10.8039 22.2465 10.1493L21.8975 9.93986L22.2382 9.50349C23.4012 8.03731 23.1769 6.57113 21.6566 5.76822C20.8342 5.33186 19.4135 5.13986 18.1092 5.27949Z" fill="#DB9E36"/>
<path d="M3.58269 5.28464C2.53592 5.38937 1.69685 5.71227 1.11531 6.25337C0.218077 7.07373 0.276231 8.33918 1.24823 9.561L1.58054 9.97991L1.28977 10.1195C0.899308 10.3115 0.267923 10.905 0.118385 11.2192C-0.0394615 11.5334 -0.0394615 12.1966 0.118385 12.5108C0.425769 13.1392 1.42269 13.7239 2.53592 13.9246C3.41654 14.0817 4.95346 13.9857 5.76762 13.7065C6.41562 13.4883 6.939 13.2177 6.47377 13.3486C6.35746 13.3748 5.91715 13.4708 5.48515 13.5494C4.82885 13.6628 4.58792 13.6715 3.93162 13.5843C1.55562 13.2701 0.517154 11.865 1.755 10.6257L2.02915 10.3465L2.403 10.6083C3.22546 11.193 4.38854 11.7166 5.51838 12.0046C6.36577 12.2141 6.76454 12.2228 6.14146 12.0046C4.98669 11.6119 3.93992 11.0097 3.19223 10.3115C2.96792 10.1021 2.88485 9.97118 2.943 9.91009C3.05931 9.78791 3.94823 9.55227 4.31377 9.55227C4.54638 9.54355 4.57962 9.52609 4.46331 9.465C4.33038 9.37773 2.89315 9.49118 2.727 9.59591C2.619 9.67446 2.32823 9.15955 2.23685 8.72318C1.98762 7.55373 2.76854 6.61991 4.31377 6.22718C4.87038 6.08755 6.507 6.07882 7.17992 6.21846C7.95254 6.38427 8.991 6.75082 9.69715 7.11737L10.3368 7.449L10.0045 7.15227C9.82177 6.98646 9.35654 6.681 8.96608 6.46282C7.28792 5.54646 5.36054 5.11882 3.58269 5.28464Z" fill="#DB9E36"/>
<path d="M11.4387 8.14774C10.8821 8.47065 10.0181 9.20374 9.67746 9.64011L9.41992 9.98047H11.8375H14.255L14.0972 9.73611C13.7648 9.26483 12.9507 8.5492 12.2528 8.12156L11.879 7.89465L11.4387 8.14774Z" fill="#DB9E36"/>
<path d="M8.78893 11.0452C8.7557 11.1063 8.63939 11.3507 8.5397 11.5951L8.36523 12.0314L11.8129 12.0576C13.7154 12.0663 15.2855 12.0576 15.3022 12.0402C15.3271 12.014 15.244 11.7609 15.1194 11.4729L14.8868 10.9405H11.8711C9.55323 10.9405 8.83877 10.9667 8.78893 11.0452Z" fill="#DB9E36"/>
<path d="M8.09969 13.3754C8.09969 13.5587 8.07477 13.8379 8.04985 13.9863L8 14.2568H11.8298H15.6597V13.9688C15.6597 13.8205 15.6348 13.5412 15.6098 13.3579L15.5517 13.035H11.8298H8.09969V13.3754Z" fill="#DB9E36"/>
<path d="M8.12383 15.3655C8.14875 15.4528 8.21521 15.7321 8.26506 15.9764L8.36475 16.439H11.8457H15.3183L15.4512 15.9851C15.6921 15.1299 16.0826 15.2171 11.8291 15.2171C8.3066 15.2171 8.0906 15.2259 8.12383 15.3655Z" fill="#DB9E36"/>
<path d="M8.93717 17.7217C9.04517 17.905 9.21963 18.1842 9.32763 18.3326L9.52702 18.6206H11.8698H14.2126L14.5615 18.0621C14.7526 17.7566 14.9104 17.4773 14.9104 17.4512C14.9104 17.425 13.523 17.3988 11.8282 17.3988H8.74609L8.93717 17.7217Z" fill="#DB9E36"/>
<path d="M10.7982 19.8948C11.0308 20.0694 11.3631 20.2876 11.5459 20.3836L11.8865 20.5581L12.3767 20.2439C12.6508 20.0781 12.9665 19.8599 13.0828 19.7552L13.2905 19.5807H11.8367H10.3828L10.7982 19.8948Z" fill="#DB9E36"/>
</g>
<defs>
<clipPath id="clip0_57_26783">
<rect width="23.4627" height="20.5579" fill="white"/>
</clipPath>
</defs>
</svg>
