<svg width="22" height="23" viewBox="0 0 22 23" fill="none" xmlns="http://www.w3.org/2000/svg">
<path d="M17.3276 16.5342C17.9309 13.2624 14.9553 9.97711 10.6814 9.19634C6.40758 8.41556 2.4539 10.4349 1.85062 13.7067C1.24735 16.9785 4.22294 20.2638 8.49678 21.0446C12.7706 21.8254 16.7243 19.806 17.3276 16.5342Z" fill="#FFD34E"/>
<path d="M16.971 13.6797C16.144 16.7267 12.3356 18.5634 8.22869 17.813C5.22363 17.2642 2.86311 15.4766 1.93431 13.3276C1.90104 13.4516 1.87062 13.5775 1.84685 13.7052C1.24412 16.9774 4.21972 20.262 8.49298 21.0427C12.7662 21.8233 16.7201 19.803 17.3228 16.5317C17.5015 15.5599 17.3637 14.5881 16.971 13.6806V13.6797Z" fill="#F0B900"/>
<path d="M15.1666 15.1141C15.0801 15.5834 14.6286 15.8928 14.157 15.8067C13.6883 15.7216 13.3746 15.2711 13.4611 14.8018C13.5476 14.3324 14.0021 14.023 14.4707 14.1091C14.9423 14.1952 15.2531 14.6447 15.1666 15.1141Z" fill="#864104"/>
<path d="M20.8773 9.24723C20.131 9.11097 19.4151 9.60304 19.2782 10.3459C19.2754 10.3591 19.2792 10.3714 19.2763 10.3847C18.3105 10.6572 17.452 11.083 16.7162 11.6688C16.2104 11.0688 15.5982 10.5228 14.8966 10.0497C15.5877 9.79986 16.2104 9.38444 16.7162 8.8233C17.53 7.92055 17.9445 6.76041 17.8798 5.54917C17.7486 3.05005 15.5982 1.12153 13.0875 1.25401C12.1064 1.30511 11.189 1.66659 10.4437 2.27694C9.79912 1.16127 8.68588 0.324762 7.31787 0.0749437C4.84708 -0.376432 2.4647 1.25779 2.01028 3.72001C1.58438 6.03367 3.00659 8.2631 5.22925 8.899C3.22904 9.68063 1.70797 11.1067 1.13852 12.9396L0.700263 13.056L0.190706 13.1904C-0.0250962 13.2462 -0.067881 13.4771 0.114648 13.6049L0.542449 13.9105L0.910363 14.1736C0.771565 16.332 1.95134 18.4394 3.93919 19.9241C3.9411 19.9298 3.93919 19.9355 3.94204 19.9383H3.95631C5.17031 20.8411 6.67997 21.512 8.37406 21.8214C13.1255 22.6891 17.548 20.3906 18.2287 16.6973C18.493 15.2656 18.1536 13.8329 17.3655 12.5621C17.991 12.0567 18.7297 11.6839 19.5644 11.4473C19.764 11.6943 20.0435 11.8741 20.3782 11.9356C21.1244 12.0719 21.8403 11.5808 21.9772 10.8398C22.1141 10.097 21.6207 9.38445 20.8735 9.24818L20.8773 9.24723ZM2.07778 13.7477C2.38675 12.0719 3.65875 10.748 5.41748 10.0043C4.34323 12.7286 3.82321 15.5523 3.86979 18.4337C2.48752 17.1165 1.76881 15.4264 2.07778 13.7477ZM5.87285 7.91771C4.00098 7.5761 2.75751 5.78196 3.1007 3.91873C3.44389 2.05551 5.24636 0.817773 7.11823 1.15938C8.2733 1.3704 9.18594 2.13121 9.63751 3.12197C9.73352 3.33299 9.81147 3.55441 9.86471 3.78531C9.96453 4.22438 9.97975 4.689 9.89324 5.15836L9.32283 8.25553C9.17738 8.24891 9.03478 8.24512 8.89123 8.24418C8.55374 8.24418 8.21911 8.25553 7.88922 8.28581L5.87285 7.91771ZM8.34269 20.6887C7.41484 20.4966 6.55354 20.1881 5.78254 19.7869L5.8738 19.7812C5.57719 16.2119 6.2208 12.7191 7.78655 9.40337C7.80081 9.40053 7.81507 9.40053 7.83028 9.39769C8.19439 9.36079 8.5699 9.3447 8.94827 9.34943C9.13175 9.34943 9.31523 9.35795 9.50536 9.3693C9.74493 9.38539 9.9845 9.41189 10.2288 9.44501C10.2916 9.45352 10.3543 9.46488 10.4209 9.47434C10.3477 9.62953 10.2811 9.78851 10.2108 9.9437C10.128 10.1301 10.0482 10.3203 9.97119 10.5086C8.64406 13.7506 8.09742 17.1629 8.34269 20.6897V20.6887ZM10.4294 8.36057L10.9827 5.35897C11.1101 4.67008 11.0654 3.99254 10.8924 3.35759C11.4752 2.78036 12.2623 2.40279 13.1464 2.35642C13.4221 2.34223 13.6893 2.36021 13.9507 2.40752C15.4841 2.68762 16.6896 3.9897 16.7742 5.60879C16.8731 7.49946 15.409 9.12138 13.5096 9.21979L13.4098 9.22452C12.6198 8.86683 11.7575 8.5943 10.8449 8.42776C10.7061 8.40221 10.5663 8.3795 10.4294 8.36057ZM17.1411 16.4986C16.6515 19.1567 13.7472 20.9328 10.3087 20.9016C9.99496 17.2424 10.6053 13.7127 12.1302 10.3941C12.1958 10.255 12.2633 10.1131 12.3317 9.97398C12.6302 10.0819 12.9202 10.2049 13.1968 10.3392C15.9167 11.6574 17.5861 14.0893 17.1421 16.4976L17.1411 16.4986Z" fill="#864104"/>
<path d="M13.5094 9.21966L13.4096 9.22439C12.6195 8.8667 11.7573 8.59417 10.8446 8.42762C10.7058 8.40207 10.5661 8.37936 10.4292 8.36044L10.9825 5.35884C11.1099 4.66995 11.0652 3.99241 10.8922 3.35745C11.4749 2.78022 12.2621 2.40266 13.1462 2.35629C13.4219 2.3421 13.689 2.36008 13.9505 2.40739C15.4839 2.68749 16.6894 3.98957 16.774 5.60865C16.8728 7.49932 15.4088 9.12125 13.5094 9.21966Z" fill="#CEEAF2"/>
<path d="M9.89318 5.15918L9.32278 8.25636C9.17733 8.24973 9.03473 8.24595 8.89117 8.245C8.55369 8.245 8.21905 8.25636 7.88917 8.28664L5.8728 7.91853C4.00093 7.57693 2.75746 5.78278 3.10065 3.91955C3.44384 2.05633 5.24631 0.818595 7.11818 1.1602C8.27324 1.37122 9.18589 2.13203 9.63745 3.12279C9.73347 3.33381 9.81142 3.55524 9.86466 3.78613C9.96448 4.2252 9.9797 4.68983 9.89318 5.15918Z" fill="#CEEAF2"/>
<path d="M6.67906 2.33087C6.86159 2.84092 6.44995 3.45316 5.75881 3.69825C5.06767 3.94333 4.36037 3.72758 4.17689 3.21754C3.99342 2.70749 4.406 2.09525 5.09714 1.85016C5.78828 1.60508 6.49558 1.82083 6.67906 2.33087Z" fill="white"/>
<path d="M13.1475 4.63803C13.7821 4.41311 14.1605 3.85041 13.9926 3.38122C13.8248 2.91202 13.1743 2.714 12.5397 2.93893C11.9051 3.16385 11.5267 3.72655 11.6945 4.19574C11.8624 4.66494 12.5129 4.86296 13.1475 4.63803Z" fill="white"/>
</svg>
