<svg width="63" height="54" viewBox="0 0 63 54" fill="none" xmlns="http://www.w3.org/2000/svg">
<path d="M24.4633 2.94553C26.5375 3.29899 28.379 5.59644 28.631 8.12953L28.7279 9.17026L27.8556 9.79862C25.4326 11.5855 25.2387 15.1004 27.4486 17.0837C28.9024 18.3797 30.7052 18.635 32.4692 17.7906C35.6289 16.3179 36.0166 11.8604 33.1476 9.85753C32.4692 9.38626 32.3916 9.22917 32.3722 8.52226C32.3722 7.08881 32.8762 5.79281 33.9618 4.61462C35.0861 3.3579 35.4544 3.12226 36.5399 2.9259L37.3153 2.80808L36.6175 2.76881C35.687 2.74917 34.1169 3.5739 33.2446 4.55572C32.3916 5.49826 31.655 7.0299 31.4806 8.20808L31.3642 9.05244L30.4532 8.99353L29.5615 8.93462L29.4258 8.01172C29.0769 5.40008 26.4406 2.7099 24.3082 2.76881L23.5522 2.78844L24.4633 2.94553Z" fill="#592B02"/>
<path d="M48.7523 12.7636C45.9028 13.0582 42.3167 14.1971 39.9323 15.5716C38.9437 16.1411 36.8308 17.6334 36.8308 17.7905C36.8308 17.8102 37.548 17.4567 38.4397 17.0051C40.4363 15.9251 42.588 15.2182 44.9723 14.8254C47.2791 14.4524 48.7911 14.4524 50.6908 14.8254C55.0911 15.6698 57.0684 18.3207 55.6727 21.4822L55.2462 22.4444L54.3157 22.3265C53.8117 22.248 52.7068 22.1498 51.8539 22.1105C50.245 21.9927 50.4388 22.1498 52.4354 22.5425C52.9782 22.6604 53.676 22.8567 53.9862 22.9745L54.5677 23.2102L53.3853 24.3098C51.9896 25.6254 49.8185 26.8429 47.3954 27.6676C45.3019 28.3942 45.9222 28.4727 48.5003 27.8051C51.408 27.0589 54.0637 25.8807 55.789 24.5847L56.448 24.1134L57.204 24.8596C58.0764 25.7236 58.464 26.7447 58.2702 27.7265C57.7274 30.6327 51.8539 32.4 46.9496 31.104C45.5151 30.7309 45.4763 30.8684 46.8527 31.3985C52.2028 33.4014 59.2782 32.2233 60.8871 29.0422C61.8176 27.1571 60.9065 25.1934 58.4059 23.7207L57.5917 23.2494L58.3865 22.2676C61.1004 18.9687 60.577 15.6698 57.0296 13.8633C55.1105 12.8814 51.7957 12.4494 48.7523 12.7636Z" fill="#592B02"/>
<path d="M9.14953 13.1761C6.70707 13.4117 4.74922 14.1383 3.3923 15.3557C1.29876 17.2015 1.43446 20.0488 3.70246 22.7979L4.47784 23.7404L3.79938 24.0546C2.8883 24.4866 1.41507 25.8219 1.06615 26.5288C0.69784 27.2357 0.69784 28.7281 1.06615 29.435C1.78338 30.8488 4.10953 32.1644 6.70707 32.6161C8.76184 32.9695 12.348 32.7535 14.2477 32.1252C15.7597 31.6343 16.9809 31.0255 15.8954 31.3201C15.624 31.379 14.5966 31.595 13.5886 31.7717C12.0572 32.027 11.4951 32.0466 9.96369 31.8503C4.41969 31.1434 1.99661 27.9819 4.88492 25.1935L5.52461 24.5652L6.39692 25.1543C8.31599 26.4699 11.0298 27.6481 13.6661 28.2961C15.6434 28.7674 16.5738 28.787 15.12 28.2961C12.4255 27.4124 9.98307 26.0575 8.23846 24.4866C7.71507 24.0154 7.52122 23.7208 7.65692 23.5834C7.9283 23.3084 10.0025 22.7783 10.8554 22.7783C11.3981 22.7586 11.4757 22.7194 11.2043 22.5819C10.8941 22.3855 7.54061 22.6408 7.15292 22.8764C6.90092 23.0532 6.22246 21.8946 6.00922 20.9128C5.42769 18.2815 7.24984 16.1804 10.8554 15.2968C12.1541 14.9826 15.9729 14.963 17.5431 15.2772C19.3458 15.6503 21.7689 16.475 23.4166 17.2997L24.9092 18.0459L24.1338 17.3783C23.7074 17.0052 22.6218 16.3179 21.7108 15.827C17.7951 13.7652 13.2978 12.803 9.14953 13.1761Z" fill="#592B02"/>
<path d="M29.8911 23.5636C28.5924 24.2902 26.5764 25.9396 25.7816 26.9214L25.1807 27.6873H30.8216H36.4625L36.0942 27.1374C35.3188 26.0771 33.4191 24.4669 31.7908 23.5047L30.9185 22.9942L29.8911 23.5636Z" fill="#592B02"/>
<path d="M23.7074 30.0829C23.6298 30.2203 23.3584 30.7702 23.1258 31.32L22.7188 32.3018L30.7634 32.3607C35.2024 32.3803 38.8661 32.3607 38.9049 32.3214C38.9631 32.2625 38.7692 31.6931 38.4784 31.0451L37.9357 29.8472H30.8991C25.4907 29.8472 23.8237 29.9062 23.7074 30.0829Z" fill="#592B02"/>
<path d="M22.0985 35.3258C22.0985 35.7382 22.0403 36.3665 21.9822 36.7004L21.8658 37.3091H30.8022H39.7385V36.6611C39.7385 36.3273 39.6803 35.6989 39.6222 35.2865L39.4865 34.56H30.8022H22.0985V35.3258Z" fill="#592B02"/>
<path d="M22.1566 39.803C22.2148 39.9994 22.3699 40.6277 22.4862 41.1775L22.7188 42.2183H30.841H38.9437L39.2539 41.1972C39.816 39.2728 40.7271 39.4692 30.8022 39.4692C22.5831 39.4692 22.0791 39.4888 22.1566 39.803Z" fill="#592B02"/>
<path d="M24.0563 45.1047C24.3083 45.517 24.7154 46.1454 24.9674 46.4792L25.4326 47.1272H30.8991H36.3656L37.1797 45.8705C37.6256 45.1832 37.9939 44.5548 37.9939 44.4959C37.9939 44.437 34.7566 44.3781 30.8022 44.3781H23.6105L24.0563 45.1047Z" fill="#592B02"/>
<path d="M28.3984 49.9942C28.9412 50.3869 29.7166 50.8778 30.143 51.0938L30.9378 51.4866L32.0815 50.7797C32.7212 50.4066 33.4578 49.9157 33.7292 49.68L34.2138 49.2873H30.8215H27.4292L28.3984 49.9942Z" fill="#592B02"/>
</svg>
