<svg width="66" height="55" viewBox="0 0 66 55" fill="none" xmlns="http://www.w3.org/2000/svg">
<path d="M25.7865 0.209553C28.2041 0.625609 30.3506 3.32997 30.6443 6.3117L30.7573 7.53675L29.7406 8.27641C26.9163 10.3798 26.6903 14.5172 29.2661 16.8518C30.9607 18.3773 33.0619 18.6778 35.118 17.6839C38.8009 15.9503 39.2528 10.7034 35.9088 8.34575C35.118 7.79101 35.0276 7.60609 35.0051 6.77398C35.0051 5.08665 35.5925 3.56111 36.8578 2.17426C38.1683 0.694951 38.5976 0.417581 39.8628 0.186439L40.7666 0.0477538L39.9532 0.00152545C38.8687 -0.0215887 37.0385 0.949207 36.0218 2.10492C35.0276 3.2144 34.1691 5.0173 33.9657 6.40416L33.8301 7.39807L32.7682 7.32872L31.7289 7.25938L31.5707 6.17301C31.164 3.09883 28.0912 -0.0678171 25.6058 0.00152545L24.7246 0.0246396L25.7865 0.209553Z" fill="#592B02"/>
<path d="M51.4385 14.5722C48.1171 14.9189 43.9372 16.2595 41.1581 17.8775C40.0058 18.5478 37.543 20.3045 37.543 20.4894C37.543 20.5125 38.379 20.0965 39.4183 19.5648C41.7455 18.2936 44.2535 17.4615 47.0326 16.9992C49.7213 16.56 51.4837 16.56 53.698 16.9992C58.8269 17.9931 61.1315 21.1135 59.5047 24.8349L59.0076 25.9675L57.9231 25.8288C57.3356 25.7363 56.0478 25.6208 55.0536 25.5745C53.1783 25.4359 53.4042 25.6208 55.7314 26.0831C56.3641 26.2217 57.1775 26.4529 57.539 26.5916L58.2168 26.8689L56.8386 28.1633C55.2118 29.712 52.6812 31.1451 49.8569 32.1159C47.4167 32.9711 48.1397 33.0635 51.1448 32.2777C54.5339 31.3993 57.6294 30.0125 59.6403 28.4869L60.4085 27.9322L61.2897 28.8105C62.3064 29.8276 62.7583 31.0295 62.5324 32.1852C61.8997 35.6061 55.0536 37.6864 49.3372 36.1608C47.6653 35.7217 47.6201 35.8835 49.2243 36.5076C55.4603 38.8652 63.7073 37.4784 65.5826 33.7339C66.6671 31.5149 65.6052 29.2035 62.6905 27.4699L61.7416 26.9152L62.6679 25.7595C65.8311 21.8763 65.2211 17.9931 61.0863 15.8666C58.8495 14.7109 54.9858 14.2024 51.4385 14.5722Z" fill="#592B02"/>
<path d="M9.74383 14.5858C6.89694 14.8632 4.6149 15.7184 3.0333 17.1515C0.593103 19.3242 0.751263 22.6758 3.39481 25.9118L4.29858 27.0212L3.50778 27.3911C2.44584 27.8996 0.728669 29.4713 0.32197 30.3035C-0.107323 31.1356 -0.107323 32.8922 0.32197 33.7244C1.15796 35.3886 3.86929 36.9372 6.89694 37.4689C9.29194 37.8849 13.4719 37.6307 15.6862 36.891C17.4485 36.3132 18.872 35.5966 17.6067 35.9433C17.2904 36.0127 16.0928 36.2669 14.9179 36.4749C13.133 36.7754 12.4777 36.7985 10.6928 36.5674C4.2308 35.7353 1.4065 32.0139 4.77306 28.7317L5.51868 27.992L6.53543 28.6855C8.77227 30.2341 11.9355 31.621 15.0083 32.3837C17.3129 32.9385 18.3975 32.9616 16.7029 32.3837C13.5623 31.3436 10.7154 29.7487 8.68189 27.8996C8.07184 27.3448 7.8459 26.9981 8.00406 26.8363C8.32038 26.5127 10.738 25.8886 11.7321 25.8886C12.3648 25.8655 12.4552 25.8193 12.1388 25.6575C11.7773 25.4264 7.86849 25.7268 7.41661 26.0042C7.12288 26.2122 6.33208 24.8485 6.08354 23.6928C5.40571 20.5955 7.52958 18.1223 11.7321 17.0821C13.246 16.7123 17.6971 16.6892 19.5272 17.059C21.6285 17.4982 24.4528 18.469 26.3733 19.4398L28.1131 20.3181L27.2093 19.5322C26.7122 19.0931 25.4469 18.2841 24.385 17.7062C19.8209 15.2792 14.579 14.1466 9.74383 14.5858Z" fill="#592B02"/>
<path d="M31.7463 21.9147C30.2325 22.7616 27.8827 24.6842 26.9563 25.8286L26.2559 26.7212H32.8308H39.4058L38.9765 26.0803C38.0727 24.8444 35.8585 22.9676 33.9605 21.8461L32.9438 21.251L31.7463 21.9147Z" fill="#592B02"/>
<path d="M24.5351 29.5138C24.4447 29.674 24.1284 30.3148 23.8573 30.9557L23.3828 32.1001L32.7595 32.1688C37.9336 32.1916 42.2039 32.1688 42.2491 32.123C42.3169 32.0543 42.091 31.3906 41.752 30.6353L41.1194 29.2391H32.9176C26.6138 29.2391 24.6707 29.3078 24.5351 29.5138Z" fill="#592B02"/>
<path d="M22.6618 35.6249C22.6618 36.1055 22.594 36.8379 22.5262 37.227L22.3906 37.9365H32.8066H43.2226V37.1812C43.2226 36.7921 43.1549 36.0597 43.0871 35.5791L42.9289 34.7322H32.8066H22.6618V35.6249Z" fill="#592B02"/>
<path d="M22.7281 40.843C22.7959 41.0719 22.9767 41.8043 23.1122 42.4451L23.3834 43.6582H32.8504H42.2949L42.6564 42.468C43.3116 40.225 44.3736 40.4539 32.8052 40.4539C23.2252 40.4539 22.6378 40.4768 22.7281 40.843Z" fill="#592B02"/>
<path d="M24.9455 47.0219C25.2392 47.5026 25.7137 48.235 26.0074 48.6241L26.5497 49.3794H32.9213H39.2929L40.2418 47.9146C40.7615 47.1135 41.1908 46.3811 41.1908 46.3124C41.1908 46.2438 37.4176 46.1751 32.8083 46.1751H24.4258L24.9455 47.0219Z" fill="#592B02"/>
<path d="M30.0047 52.722C30.6374 53.1797 31.5411 53.7519 32.0382 54.0037L32.9646 54.4614L34.2977 53.6375C35.0433 53.2026 35.9019 52.6304 36.2182 52.3557L36.783 51.898H32.829H28.875L30.0047 52.722Z" fill="#592B02"/>
</svg>
