<svg width="60" height="60" viewBox="0 0 60 60" fill="none" xmlns="http://www.w3.org/2000/svg">
<g clip-path="url(#clip0_75_27144)">
<path d="M40.7701 36.3963C40.5774 36.3967 40.4074 36.2707 40.3515 36.0864C40.2955 35.9021 40.3671 35.703 40.527 35.5962L42.3614 34.3691L39.4946 36.0284C39.2911 36.1444 39.0324 36.0792 38.9081 35.8809C38.7841 35.6822 38.8385 35.4211 39.0316 35.2887L44.1546 31.8214L38.5391 35.0624C38.3343 35.1752 38.0777 35.1068 37.9557 34.9073C37.8342 34.7078 37.8913 34.4479 38.0848 34.3176L39.651 33.308L37.8334 34.356C37.631 34.4675 37.3768 34.4019 37.2536 34.2068C37.1301 34.0113 37.1804 33.7538 37.368 33.6187L45.7819 27.8392L36.6107 33.1349C36.4056 33.2496 36.1465 33.1813 36.0245 32.9805C35.9022 32.7798 35.961 32.5183 36.1573 32.3892L39.1192 30.492L35.849 32.3784C35.6435 32.4992 35.3792 32.4324 35.2553 32.2289C35.1313 32.0254 35.1933 31.7599 35.3948 31.6327L39.7533 28.8287L35.027 31.5576C34.8231 31.6699 34.5664 31.6023 34.4444 31.4036C34.3225 31.2049 34.3776 30.9454 34.5704 30.8143L41.2959 26.433L34.0734 30.6028C33.8687 30.7155 33.6116 30.6471 33.49 30.4476C33.3685 30.2481 33.4253 29.9882 33.6192 29.8579L38.9077 26.4654L33.2181 29.7503C33.0118 29.8695 32.7483 29.8011 32.6256 29.5968C32.5033 29.3929 32.5664 29.1282 32.7683 29.0019L34.6559 27.8164L32.5184 29.0498C32.3133 29.1646 32.0542 29.0962 31.9323 28.8955C31.8104 28.6948 31.8691 28.4333 32.0654 28.3038L36.893 25.2331L31.6992 28.2314C31.4937 28.3521 31.2294 28.2854 31.1055 28.0819C30.9815 27.8783 31.0439 27.6129 31.245 27.4857L38.0493 23.1184L30.778 27.3162C30.5729 27.4309 30.3138 27.3626 30.1914 27.1619C30.0695 26.9607 30.1283 26.6992 30.3246 26.5701L36.7878 22.4335L29.8792 26.4218C29.6749 26.5325 29.4194 26.4642 29.2982 26.2658C29.1771 26.0675 29.2323 25.8088 29.4242 25.6777L37.8965 20.1897L28.8624 25.4042C28.6589 25.5138 28.4054 25.4458 28.2839 25.2495C28.1623 25.0528 28.2151 24.7957 28.4038 24.6625L39.0808 17.608L27.6605 24.1995C27.4558 24.3107 27.1999 24.2415 27.0792 24.042C26.9584 23.8429 27.0152 23.5842 27.2079 23.4538L33.3125 19.5671L26.7913 23.3263C26.5858 23.4415 26.3255 23.3727 26.204 23.1708C26.0824 22.9689 26.1428 22.7066 26.3407 22.5786L29.6597 20.4935L26.0492 22.5838C25.8441 22.7006 25.5834 22.6334 25.4603 22.4319C25.3371 22.2304 25.3963 21.9681 25.5938 21.8389L33.4297 16.7859L25.0709 21.6098C24.8645 21.7262 24.6031 21.6566 24.4815 21.4535C24.36 21.2504 24.4227 20.9873 24.6226 20.8606L24.7422 20.7862L24.4279 20.9669C24.224 21.0781 23.9693 21.0101 23.8474 20.8126C23.7258 20.6151 23.7798 20.3568 23.9701 20.2248L33.2985 14.0967L24.3284 19.2752C24.1237 19.4032 23.8546 19.3408 23.7266 19.1365C23.5987 18.9318 23.6611 18.6623 23.8654 18.5344L33.53 12.0188L24.663 17.137C24.4607 17.2473 24.208 17.1818 24.0845 16.9874C23.9613 16.7931 24.0105 16.5364 24.1964 16.4009L32.6688 10.533L25.4375 14.7052C25.2352 14.8236 24.9757 14.7608 24.8493 14.5633C24.723 14.3658 24.7754 14.1039 24.9677 13.9699L30.6632 9.96246L26.7661 12.2119C26.569 12.3246 26.3179 12.2679 26.1892 12.0803C26.0604 11.8932 26.0964 11.6385 26.2727 11.4946L29.8312 8.61224C29.6677 8.61864 29.5141 8.53508 29.4302 8.39474C29.3094 8.18603 29.3806 7.91934 29.5889 7.79819L33.9842 5.26528C34.1813 5.15213 34.4324 5.20931 34.5612 5.39643C34.6899 5.58395 34.6539 5.83864 34.4776 5.98258L31.1586 8.67102L38.6266 4.35767C38.8285 4.24452 39.0836 4.3081 39.2084 4.50321C39.3331 4.69833 39.2839 4.95662 39.0964 5.09216L33.3965 9.10483L41.4406 4.46003C41.6437 4.34208 41.9036 4.40525 42.0292 4.60357C42.1551 4.80188 42.1015 5.06417 41.908 5.19731L33.4357 11.0604L43.9491 4.9946C44.153 4.87625 44.4141 4.94142 44.5389 5.14134C44.6636 5.34125 44.6072 5.60394 44.4113 5.73508L34.7451 12.2527L45.9842 5.76387C46.189 5.64792 46.4488 5.71429 46.572 5.9146C46.6955 6.11492 46.638 6.37721 46.442 6.50715L37.1157 12.6337L47.5968 6.58152C47.7307 6.50155 47.897 6.49875 48.0334 6.57432C48.1697 6.65029 48.2553 6.79303 48.2581 6.94936C48.2605 7.10529 48.1797 7.25083 48.0458 7.33079L47.9198 7.40956L48.3872 7.13968C48.5919 7.02693 48.849 7.0957 48.9706 7.29521C49.0921 7.49432 49.0353 7.75421 48.8414 7.88456L41.0024 12.9392L49.5803 7.98771C49.7858 7.87656 50.0421 7.94653 50.1624 8.14684C50.2828 8.34676 50.2244 8.60624 50.0301 8.73539L46.7191 10.8153L50.3308 8.73299C50.5367 8.60784 50.8054 8.67342 50.9305 8.87973C51.0557 9.08564 50.9901 9.35432 50.7838 9.47947L44.6752 13.369L51.1952 9.60182C51.3991 9.48946 51.655 9.55664 51.7778 9.75415C51.9001 9.95206 51.8461 10.2112 51.6546 10.3435L40.976 17.3993L52.2032 10.9172C52.4083 10.8005 52.669 10.8677 52.7921 11.0692C52.9149 11.2707 52.8557 11.5334 52.6582 11.6625L44.193 17.1466L53.0096 12.0588C53.2147 11.9444 53.4738 12.0124 53.5958 12.2131C53.7177 12.4142 53.6589 12.6757 53.4626 12.8048L46.995 16.9415L53.5342 13.1663C53.7393 13.0495 54 13.1171 54.1231 13.3182C54.2463 13.5197 54.1867 13.7824 53.9896 13.9116L47.1765 18.2901L54.0768 14.3054C54.2831 14.1802 54.5518 14.2458 54.6769 14.4521C54.8021 14.6584 54.7365 14.9271 54.5302 15.0523L49.701 18.1233L54.4174 15.4005C54.6241 15.2762 54.8924 15.3429 55.0172 15.5497C55.1415 15.7564 55.0747 16.0246 54.868 16.149L52.9912 17.3257L54.6785 16.3517C54.8836 16.2374 55.1427 16.3053 55.2651 16.506C55.387 16.7072 55.3282 16.9686 55.1319 17.0978L49.837 20.4935L54.9344 17.5512C55.1391 17.4368 55.3974 17.5044 55.5197 17.7043C55.6425 17.9038 55.5853 18.1649 55.3906 18.2953L48.6651 22.6754L55.0639 18.9826C55.2687 18.8658 55.5293 18.933 55.6525 19.1345C55.7756 19.336 55.7165 19.5987 55.5189 19.7279L51.1604 22.5306L55.1291 20.2396C55.335 20.1189 55.5993 20.1857 55.7233 20.3892C55.8472 20.5927 55.7848 20.8582 55.5833 20.9853L52.6314 22.8765L55.0168 21.4991C55.2191 21.3847 55.4758 21.4491 55.6005 21.6458C55.7249 21.8425 55.6733 22.102 55.483 22.236L47.0682 28.0159L54.6733 23.6242C54.878 23.5114 55.1351 23.5798 55.2567 23.7793C55.3782 23.9788 55.3214 24.2387 55.1275 24.3691L53.5622 25.3754L54.3067 24.9464C54.5098 24.8305 54.7689 24.8956 54.8928 25.0943C55.0172 25.2927 54.9628 25.5541 54.7693 25.6861L49.6387 29.1582L53.453 26.9571C53.6569 26.8388 53.918 26.904 54.0428 27.1039C54.1675 27.3038 54.1111 27.5665 53.9152 27.6976L52.0808 28.9207L52.4215 28.724C52.6194 28.6112 52.8709 28.6692 52.9988 28.8575C53.1272 29.0458 53.0892 29.3009 52.9117 29.4437L49.5795 32.0957C49.7682 32.1141 49.9234 32.2529 49.9633 32.4384C50.0033 32.6239 49.9186 32.8142 49.7542 32.9086L45.3597 35.4415C45.1618 35.5566 44.9087 35.4995 44.7796 35.3103C44.6504 35.1208 44.6896 34.8641 44.8691 34.7218L47.7751 32.41L40.9848 36.3403C40.9192 36.3775 40.8453 36.3967 40.7701 36.3963Z" fill="#FFD34E"/>
<path d="M40.8358 32.8832C40.6475 32.8832 40.4808 32.7628 40.4212 32.5845C40.362 32.4062 40.4232 32.2099 40.5736 32.0971L44.5303 29.1704L39.2021 32.2431C39.0022 32.353 38.7511 32.2902 38.6264 32.0987C38.5016 31.9076 38.5452 31.6525 38.7264 31.5138L44.8405 27.0441L37.9743 31.0124C37.7724 31.1271 37.5161 31.0644 37.3905 30.8693C37.265 30.6737 37.3142 30.4143 37.5025 30.2787L44.0884 25.5943L36.776 29.8157C36.5737 29.9321 36.3158 29.8693 36.1902 29.673C36.0643 29.4767 36.1151 29.216 36.305 29.0812L43.7094 23.8403L35.5269 28.5667C35.323 28.6774 35.0683 28.6098 34.9464 28.4123C34.8248 28.2148 34.8784 27.9565 35.0691 27.8242L38.7471 25.404L34.7005 27.7402C34.4982 27.855 34.2411 27.7902 34.1167 27.5935C33.9924 27.3968 34.044 27.1373 34.2343 27.0033L41.833 21.7624L33.517 26.5663C33.3115 26.6923 33.0424 26.6275 32.9165 26.422C32.7909 26.2161 32.8553 25.9474 33.0612 25.8214L36.1986 23.7871L32.7361 25.7854C32.5314 25.905 32.2687 25.8386 32.1444 25.6367C32.0204 25.4344 32.0804 25.1701 32.2795 25.0414L35.6301 22.8691L31.9469 24.9854C31.7438 25.0997 31.4867 25.0346 31.3627 24.8371C31.2388 24.6395 31.2916 24.3801 31.4831 24.2465L39.0634 19.0935L30.8146 23.8555C30.611 23.9694 30.354 23.9035 30.2304 23.7051C30.1069 23.5072 30.1612 23.2469 30.3536 23.1146L37.2722 18.469L29.7606 22.8035C29.5563 22.9199 29.2972 22.8539 29.1737 22.6544C29.0497 22.4549 29.1057 22.1934 29.3 22.0623L35.4953 17.9352L28.7698 21.8168C28.6375 21.8991 28.4708 21.9043 28.3336 21.8304C28.1961 21.7568 28.1081 21.6152 28.1033 21.4593C28.0985 21.3034 28.1769 21.1566 28.3096 21.0743L33.8832 17.3867L27.8338 20.8804C27.6291 21.0019 27.3652 20.9375 27.2397 20.7356C27.1142 20.5337 27.1733 20.2686 27.3724 20.1387L33.2699 16.1952L27.8326 19.3342C27.6287 19.4506 27.3696 19.3846 27.2457 19.1851C27.1222 18.9856 27.1781 18.7241 27.3724 18.5929L31.3639 15.9369L28.0781 17.8337C27.8762 17.9472 27.6211 17.8833 27.4964 17.6885C27.3716 17.4934 27.4208 17.2351 27.6083 17.0992L32.6794 13.5311L28.757 15.7934C28.5543 15.9049 28.3004 15.8393 28.1769 15.6442C28.0537 15.4487 28.1037 15.1912 28.2912 15.0565L29.6435 14.1261C29.4424 14.2252 29.1985 14.1561 29.0797 13.9657C28.961 13.7754 29.0057 13.5259 29.1833 13.3888L31.6358 11.4672C31.5626 11.4296 31.5023 11.3717 31.4611 11.3005C31.3403 11.0918 31.4115 10.8247 31.6198 10.7039L35.395 8.52408C35.5933 8.41173 35.8444 8.47091 35.9715 8.65963C36.0991 8.84834 36.0603 9.10343 35.8824 9.24537L34.5721 10.2741L38.7811 7.84518C38.9842 7.72923 39.2425 7.7936 39.3673 7.99151C39.492 8.18903 39.4388 8.45012 39.2469 8.58326L37.9087 9.50206L40.6835 7.90035C40.8862 7.782 41.1457 7.84478 41.2721 8.04229C41.398 8.23981 41.346 8.50169 41.1537 8.63564L36.0799 12.2053L42.8278 8.30978C43.0325 8.18863 43.2964 8.253 43.4219 8.45491C43.5475 8.65643 43.4883 8.92191 43.2892 9.05146L39.3045 11.7023L44.3251 8.80356C44.5299 8.67562 44.7993 8.73839 44.9269 8.9431C45.0544 9.14782 44.9917 9.4173 44.7869 9.54484L38.8887 13.4883L45.7017 9.55364C45.9057 9.43769 46.1647 9.50366 46.2887 9.70278C46.4122 9.90229 46.3563 10.1638 46.162 10.2953L40.5904 13.9881L46.8736 10.3609C47.0772 10.2497 47.3318 10.3169 47.4538 10.5136C47.5761 10.7103 47.5238 10.9682 47.3338 11.1014L41.1389 15.2284L47.9872 11.2725C48.1911 11.1585 48.4482 11.2245 48.5717 11.4228C48.6949 11.6208 48.6409 11.881 48.4486 12.0134L41.5299 16.659L48.9332 12.3888C49.1363 12.2745 49.3934 12.34 49.5173 12.5372C49.6413 12.7347 49.5881 12.9946 49.397 13.1277L41.8146 18.2811L49.8364 13.6519C49.9695 13.5703 50.1358 13.5663 50.273 13.6407C50.4101 13.715 50.4969 13.8574 50.5009 14.0133C50.5049 14.1693 50.4253 14.3156 50.2922 14.3968L46.9504 16.5622L50.3517 14.5995C50.5577 14.4735 50.8263 14.5383 50.9523 14.7442C51.0782 14.9497 51.0135 15.2188 50.8076 15.3447L47.6633 17.3815L50.798 15.5726C51.0003 15.4623 51.253 15.5275 51.3765 15.7222C51.4997 15.9165 51.4505 16.1732 51.2646 16.3087L43.6654 21.5493L51.2917 17.1492C51.4961 17.0328 51.7559 17.0996 51.8791 17.2999C52.0026 17.5002 51.9451 17.7621 51.7491 17.8924L48.0719 20.3126L51.4925 18.3379C51.6944 18.2215 51.9523 18.2843 52.0782 18.4806C52.2041 18.6769 52.1534 18.9376 51.9631 19.0723L44.559 24.3085L51.634 20.2254C51.8351 20.1143 52.0882 20.1779 52.2125 20.3714C52.3369 20.5645 52.2901 20.8212 52.1058 20.9583L45.5198 25.6431L51.4321 22.2306C51.6324 22.1206 51.8835 22.1834 52.0082 22.3749C52.133 22.566 52.0894 22.8211 51.9083 22.9599L45.7889 27.4311L50.7432 24.5708C50.9439 24.4528 51.2018 24.5132 51.3293 24.7075C51.4569 24.9022 51.4097 25.1629 51.2218 25.3001L47.2739 28.2244L49.4102 26.9945C49.6105 26.8778 49.8672 26.9382 49.9947 27.1317C50.1222 27.3256 50.0759 27.5851 49.8895 27.723L47.9104 29.1972C47.9508 29.2304 47.9844 29.2707 48.01 29.3159C48.1307 29.525 48.0591 29.7921 47.85 29.9125L43.841 32.2271C43.6406 32.3438 43.3843 32.2834 43.2568 32.0899C43.1293 31.8964 43.1752 31.6369 43.3616 31.4986L43.3827 31.483L41.0542 32.8272C40.9874 32.8648 40.9122 32.8844 40.8358 32.8832Z" fill="#BF6B04"/>
<path d="M21.7119 55.7052C21.5208 55.7052 21.352 55.5817 21.2945 55.3998C21.2369 55.2179 21.3045 55.0195 21.4612 54.9104L23.0201 53.8229L19.8619 55.6433C19.6648 55.754 19.4153 55.6965 19.2873 55.5097C19.1594 55.3234 19.195 55.0699 19.3693 54.926L23.6263 51.4767L16.4082 55.6433C16.2091 55.7556 15.9568 55.6957 15.8296 55.5053C15.7029 55.3146 15.7445 55.0587 15.9252 54.918L19.6076 52.1076L13.4838 55.6433C13.2819 55.7564 13.0268 55.6929 12.9021 55.4977C12.7773 55.3026 12.8265 55.0443 13.014 54.9084L14.9548 53.547L11.3124 55.6433C11.1137 55.7536 10.863 55.6929 10.737 55.5029C10.6107 55.3134 10.6515 55.0591 10.8306 54.918L14.4882 52.1312L8.40402 55.6433C8.20251 55.7536 7.94941 55.6893 7.82587 55.4953C7.70192 55.3014 7.7495 55.0447 7.93502 54.9084L9.79262 53.5986L6.39528 55.5645C6.19337 55.6797 5.93708 55.6165 5.81154 55.4214C5.68559 55.2259 5.73517 54.9664 5.92349 54.8308L8.12374 53.2587L5.30775 54.8884C5.10904 55.0011 4.85755 54.942 4.73 54.7525C4.60246 54.5633 4.64204 54.3078 4.82116 54.1659L7.79708 51.8437L4.98029 53.469C4.78198 53.581 4.53089 53.5222 4.40334 53.3335C4.2758 53.1447 4.31498 52.8897 4.4929 52.7477L5.72797 51.7781L4.97909 52.2096C4.78998 52.3135 4.55288 52.2635 4.42173 52.092C4.29059 51.9201 4.30498 51.6782 4.45532 51.523L5.60882 50.3647L4.97909 50.7274C4.79597 50.8317 4.56447 50.7906 4.42853 50.629C4.29299 50.4675 4.29179 50.2324 4.42653 50.0697L4.84635 49.5667C4.75919 49.5299 4.68682 49.4655 4.64044 49.3832C4.52009 49.1749 4.59126 48.9082 4.79917 48.7874L6.22056 47.9666C6.40408 47.8598 6.63758 47.9006 6.77392 48.0629C6.91066 48.2253 6.91066 48.4624 6.77432 48.6251L6.67916 48.7386L8.03698 47.9526C8.2265 47.8482 8.46359 47.8986 8.59474 48.0701C8.72588 48.2421 8.71149 48.484 8.56115 48.6391L7.40925 49.799L10.6035 47.957C10.8014 47.845 11.0525 47.9038 11.18 48.0925C11.3076 48.2812 11.2688 48.5363 11.0909 48.6783L9.85899 49.6451L12.7861 47.957C12.9844 47.8442 13.2363 47.9034 13.3639 48.0925C13.4914 48.282 13.4514 48.5375 13.2727 48.6791L10.294 51.0041L15.5733 47.957C15.7748 47.8418 16.0315 47.9046 16.1571 48.1001C16.2826 48.2952 16.2334 48.5547 16.0447 48.6907L13.8473 50.2576L17.8372 47.957C18.0387 47.8462 18.2918 47.9106 18.4153 48.1045C18.5393 48.2984 18.4913 48.5551 18.3062 48.6915L16.4458 50.0017L19.9814 47.957C20.1805 47.8442 20.4328 47.9042 20.56 48.0949C20.6867 48.2852 20.6451 48.5415 20.4644 48.6819L16.8056 51.4691L22.8898 47.957C23.0917 47.8434 23.3472 47.9074 23.4719 48.1021C23.5967 48.2972 23.5475 48.5555 23.36 48.6915L21.4184 50.0533L25.0612 47.957C25.2604 47.8442 25.513 47.9042 25.6398 48.0949C25.7665 48.2852 25.725 48.5415 25.5442 48.6819L21.861 51.4927L27.9856 47.957C28.1827 47.8438 28.4338 47.901 28.5625 48.0881C28.6913 48.2752 28.6553 48.5303 28.479 48.6739L24.222 52.1204L31.4393 47.9542C31.6412 47.8422 31.8951 47.907 32.019 48.1017C32.143 48.2964 32.0942 48.5539 31.9075 48.6895L30.349 49.777L33.5064 47.957C33.7079 47.8414 33.9642 47.9034 34.0906 48.0981C34.2165 48.2928 34.1685 48.5523 33.981 48.6887L31.3038 50.6206L35.9234 47.957C36.1241 47.8418 36.3792 47.903 36.5059 48.0965C36.6323 48.2896 36.5867 48.5483 36.4012 48.6863L33.2777 50.9893L38.2696 48.1069C38.4683 47.995 38.7198 48.0553 38.8469 48.2449C38.9737 48.4348 38.9329 48.6903 38.7533 48.831L35.2081 51.5494L39.2959 49.1909C39.4978 49.0765 39.7545 49.1401 39.8793 49.336C40.0044 49.5319 39.954 49.7914 39.7649 49.9265L39.5506 50.0757C39.7277 50.0385 39.9092 50.1117 40.0112 50.2608C40.1383 50.4535 40.094 50.7118 39.9096 50.8505L39.1996 51.3887L39.4295 51.2568C39.621 51.1396 39.8705 51.1868 40.0056 51.3659C40.1411 51.545 40.1184 51.7977 39.9532 51.9501L38.7733 53.0708L39.4295 52.6917C39.6158 52.5846 39.8525 52.629 39.9872 52.7969C40.1224 52.9644 40.1148 53.2051 39.97 53.3643L39.5814 53.7905C39.7521 53.8361 39.8785 53.98 39.9017 54.1551C39.9248 54.3302 39.8401 54.5022 39.6869 54.5905L37.8597 55.6433C37.6734 55.7492 37.4379 55.7044 37.3036 55.5373C37.1692 55.3706 37.1756 55.1307 37.3192 54.9716L37.4231 54.8568L36.0597 55.6433C35.8686 55.752 35.6259 55.7016 35.494 55.5257C35.362 55.3494 35.3816 55.1027 35.5399 54.9496L36.7154 53.8257L33.5676 55.6433C33.3681 55.7568 33.115 55.6965 32.9878 55.5053C32.8611 55.3138 32.9035 55.0571 33.0858 54.9172L33.7939 54.381L31.6104 55.6441C31.4089 55.7548 31.1558 55.6901 31.0319 55.4961C30.9083 55.3022 30.9559 55.0455 31.1414 54.9096L31.1726 54.8868L29.8628 55.6441C29.6637 55.758 29.4102 55.6988 29.2822 55.5081C29.1547 55.3174 29.1963 55.0603 29.3778 54.92L32.9223 52.2028L26.954 55.6433C26.7537 55.7552 26.5006 55.6933 26.3751 55.5009C26.2495 55.309 26.2939 55.0523 26.477 54.9136L29.6033 52.6086L24.346 55.6433C24.1448 55.7584 23.8881 55.6965 23.7622 55.5017C23.6359 55.307 23.6842 55.0475 23.8718 54.9112L26.5498 52.9764L21.9302 55.6433C21.8638 55.6825 21.7887 55.704 21.7119 55.7052Z" fill="#FFD34E"/>
<path d="M14.9765 48.7176C14.785 48.718 14.6158 48.5928 14.5591 48.4097C14.5027 48.227 14.5719 48.0283 14.7302 47.9203L15.2448 47.5709L13.3572 48.6556C13.1561 48.7712 12.8994 48.7092 12.7734 48.5145C12.6471 48.3197 12.6955 48.0603 12.883 47.9239L15.6298 45.9332L10.9134 48.6556C10.7151 48.7676 10.464 48.7088 10.3365 48.5201C10.2093 48.3313 10.2481 48.0762 10.426 47.9343L14.4219 44.7997L7.742 48.6556C7.54248 48.7668 7.29139 48.706 7.16504 48.5157C7.0391 48.3253 7.08068 48.0703 7.2606 47.9299L10.8095 45.2495L5.6429 48.2322C5.44059 48.3465 5.1835 48.2818 5.05915 48.0854C4.93481 47.8887 4.98638 47.6288 5.1767 47.4949L5.6465 47.171L5.12672 47.4705C4.92721 47.5825 4.67492 47.5213 4.54857 47.3306C4.42263 47.1395 4.46501 46.8836 4.64653 46.7436L6.5681 45.2946L4.98199 46.2103C4.78807 46.317 4.54497 46.2626 4.41583 46.0831C4.28668 45.9036 4.31227 45.6557 4.4754 45.5062L6.30062 43.8893L4.98199 44.6501C4.81126 44.7453 4.59775 44.7157 4.45981 44.5774C4.32147 44.439 4.29228 44.2259 4.38784 44.0552L5.25507 42.5478L5.24107 42.5554C5.03396 42.6642 4.77767 42.5898 4.66052 42.3871C4.54377 42.1844 4.60695 41.9257 4.80446 41.8002L6.22545 40.9789C6.39578 40.8817 6.61048 40.9101 6.74962 41.0481C6.88796 41.1872 6.91675 41.4015 6.81959 41.5723L5.95237 43.0796L9.61439 40.9693C9.80831 40.861 10.0526 40.9149 10.1825 41.0949C10.3125 41.2752 10.2861 41.5239 10.1222 41.6734L8.29656 43.2903L12.3188 40.9693C12.5183 40.8574 12.7706 40.9185 12.8966 41.1097C13.0229 41.3004 12.9805 41.5563 12.799 41.6962L10.8774 43.146L14.6462 40.9693C14.8485 40.859 15.1016 40.9245 15.2248 41.1192C15.3479 41.3136 15.2987 41.5703 15.1128 41.7058L14.6422 42.0317L16.4814 40.9693C16.6809 40.8558 16.9344 40.9161 17.0612 41.1073C17.1883 41.2984 17.1455 41.5555 16.9636 41.6954L13.4148 44.3758L19.3194 40.9693C19.5177 40.8554 19.7704 40.9137 19.8988 41.1033C20.0271 41.2928 19.9875 41.5491 19.8076 41.691L15.8105 44.8264L22.4916 40.9693C22.6928 40.8538 22.9494 40.9161 23.0754 41.1109C23.2017 41.3056 23.1534 41.5651 22.9658 41.7014L20.2214 43.6901L24.9382 40.9693C25.1405 40.8594 25.3936 40.9257 25.5163 41.1208C25.6391 41.316 25.5887 41.5727 25.402 41.7074L24.8874 42.0568L26.7722 40.9693C26.9697 40.8594 27.2188 40.9181 27.346 41.1049C27.4735 41.2916 27.4371 41.5447 27.2624 41.6882L23.1134 45.0012L30.0968 40.9693C30.2955 40.8546 30.549 40.9129 30.6773 41.1033C30.8061 41.2936 30.7649 41.5507 30.5842 41.6918L26.6535 44.7489L33.2042 40.9669C33.4069 40.8542 33.6624 40.9193 33.786 41.1156C33.9099 41.312 33.8583 41.5707 33.6688 41.705L32.9807 42.1756L35.077 40.9669C35.2781 40.8494 35.536 40.9105 35.6632 41.1057C35.7899 41.3008 35.7415 41.5615 35.5528 41.6978L32.6557 43.8109L37.5819 40.9669C37.7855 40.849 38.0457 40.9129 38.1709 41.112C38.296 41.3112 38.2413 41.5735 38.0465 41.7058L37.7575 41.9021L38.7183 41.3459C38.9202 41.2324 39.1753 41.2964 39.3 41.4915C39.4248 41.6862 39.376 41.9449 39.1881 42.0804L37.7035 43.1288L39.2948 42.2108C39.4959 42.1008 39.7478 42.1656 39.8718 42.3583C39.9953 42.5514 39.9485 42.8073 39.7646 42.9445L39.4967 43.1348C39.6978 43.0648 39.9201 43.15 40.0229 43.3367C40.1253 43.5234 40.0785 43.7569 39.9113 43.8893L38.7682 44.7845L39.426 44.4046C39.6051 44.3015 39.8322 44.3387 39.9697 44.493C40.1073 44.6473 40.1173 44.8768 39.9945 45.0432L38.6555 46.8512L39.3544 46.4486C39.5615 46.3402 39.8178 46.4142 39.9345 46.6169C40.0517 46.8196 39.9885 47.0787 39.791 47.2042L37.2773 48.6556C37.0982 48.758 36.8719 48.7208 36.7347 48.5672C36.5976 48.4133 36.5868 48.1842 36.7087 48.0183L38.0473 46.2103L33.8096 48.6556C33.6117 48.7656 33.3622 48.706 33.2354 48.5181C33.1091 48.3301 33.1471 48.0766 33.323 47.9343L34.4637 47.0415L31.6689 48.6564C31.4674 48.7664 31.2155 48.7016 31.0919 48.5089C30.9684 48.3157 31.0152 48.0599 31.1991 47.9227L31.4066 47.7752L29.8765 48.6556C29.6754 48.7656 29.4235 48.7008 29.2995 48.5077C29.176 48.3149 29.2227 48.0591 29.4067 47.9219L30.8852 46.874L27.803 48.6556C27.5998 48.77 27.3428 48.7044 27.2192 48.5073C27.0953 48.3097 27.148 48.0499 27.3392 47.9167L27.6342 47.7168L26.0073 48.6556C25.8062 48.7731 25.5483 48.712 25.4212 48.5169C25.294 48.3217 25.3424 48.0611 25.5311 47.9247L28.4283 45.8116L23.5012 48.6556C23.2985 48.7684 23.043 48.7032 22.9195 48.5069C22.7959 48.3105 22.8475 48.0519 23.0366 47.9175L23.7247 47.4469L21.6288 48.6556C21.4301 48.7708 21.1762 48.7124 21.0479 48.5221C20.9195 48.3317 20.9603 48.0747 21.1414 47.9335L25.0717 44.8764L18.521 48.6584C18.3234 48.7684 18.0747 48.71 17.9472 48.5229C17.8201 48.3361 17.8564 48.083 18.0312 47.9395L22.1798 44.6265L15.1948 48.6556C15.1288 48.6952 15.0536 48.7168 14.9765 48.7176Z" fill="#DB9E36"/>
<path d="M16.8713 41.7301C16.6802 41.7301 16.5111 41.6062 16.4543 41.4238C16.3971 41.2415 16.4651 41.0432 16.6222 40.9344L17.8285 40.096L15.1069 41.6681C14.9066 41.7805 14.6535 41.7185 14.5279 41.5262C14.4024 41.3339 14.4468 41.0772 14.6299 40.9388L17.6986 38.6826L12.526 41.6681C12.3269 41.7825 12.0734 41.7229 11.9455 41.5322C11.8179 41.3415 11.8595 41.0844 12.041 40.944L15.8282 38.0313L9.5249 41.6681C9.32819 41.7785 9.07949 41.7209 8.95115 41.535C8.8232 41.3491 8.85799 41.0964 9.03111 40.952L13.3041 37.4799L6.25711 41.5518C6.0572 41.6657 5.8029 41.6046 5.67656 41.4122C5.54981 41.2195 5.59459 40.962 5.77852 40.8237L8.84599 38.5527L5.17238 40.6682C4.97646 40.7825 4.72537 40.7273 4.59503 40.5414C4.46468 40.3555 4.49827 40.1008 4.67299 39.9553L7.93359 37.2136L4.97926 38.9213C4.78854 39.0329 4.54465 38.9841 4.4111 38.8082C4.27756 38.6318 4.29635 38.3839 4.45549 38.2304L6.24152 36.4964L4.97766 37.2256C4.80134 37.3264 4.57943 37.292 4.44149 37.1433C4.30355 36.9945 4.28596 36.7702 4.39951 36.6023L5.06242 35.6231C4.8921 35.6363 4.72897 35.5524 4.64061 35.4064C4.52026 35.1981 4.59143 34.9318 4.79934 34.8107L6.22072 33.9898C6.39665 33.8883 6.61975 33.9219 6.75809 34.0706C6.89683 34.2193 6.91443 34.444 6.80048 34.6124L6.18914 35.5192L8.85759 33.9818C9.04831 33.8703 9.2922 33.9191 9.42574 34.095C9.55929 34.2709 9.54049 34.5192 9.38136 34.6727L7.59373 36.404L11.7931 33.9818C11.989 33.8699 12.2377 33.9255 12.3673 34.1102C12.4968 34.2949 12.4644 34.5476 12.2929 34.6935L9.03671 37.4304L15.0145 33.9818C15.2145 33.8707 15.4663 33.9327 15.5919 34.1238C15.7174 34.3153 15.6739 34.5712 15.4919 34.7103L12.4221 36.9821L17.6266 33.9818C17.8237 33.8715 18.072 33.9291 18.2004 34.115C18.3283 34.3009 18.2935 34.5536 18.1204 34.6979L13.8466 38.1708L21.1023 33.9782C21.3014 33.8643 21.5549 33.9235 21.6825 34.1142C21.81 34.3049 21.7684 34.562 21.5869 34.7023L17.7981 37.6179L24.1034 33.9818C24.3037 33.8695 24.5568 33.9319 24.6824 34.1238C24.8079 34.3161 24.7635 34.5728 24.5804 34.7111L21.5117 36.9682L26.6843 33.9818C26.8862 33.8715 27.1393 33.9371 27.2625 34.1314C27.3856 34.3261 27.3368 34.5828 27.1509 34.7183L25.9446 35.5532L28.6679 33.9818C28.8694 33.8651 29.1273 33.9271 29.2536 34.1226C29.3803 34.3185 29.3308 34.5788 29.1413 34.7147L26.5804 36.5567L31.0392 33.9818C31.2415 33.8703 31.4958 33.9359 31.6194 34.1314C31.7425 34.3265 31.6926 34.5844 31.505 34.7191L30.4787 35.4264L32.982 33.9818C33.1815 33.8659 33.437 33.9251 33.5649 34.1174C33.6929 34.3097 33.6489 34.5684 33.465 34.7075L29.8262 37.4755L35.8764 33.9818C36.0783 33.8727 36.3302 33.9379 36.4529 34.1318C36.5761 34.3253 36.5285 34.5812 36.3438 34.7171L34.8992 35.7199L37.8479 34.0186C38.0458 33.9051 38.2981 33.9634 38.4261 34.1522C38.5544 34.3413 38.5156 34.5968 38.3369 34.7391L34.3322 37.9009L39.2549 35.059C39.454 34.9462 39.7063 35.0062 39.8334 35.1969C39.9602 35.3872 39.9186 35.6435 39.7379 35.7839L37.4617 37.5219L39.4288 36.3864C39.6195 36.2749 39.8634 36.3236 39.997 36.4996C40.1305 36.6755 40.1117 36.9238 39.9526 37.0773L37.8083 39.1656L39.4312 38.2292C39.6207 38.1241 39.859 38.1736 39.9906 38.3464C40.1221 38.5191 40.1073 38.7618 39.9554 38.9169L39.5424 39.3283C39.7163 39.3051 39.887 39.3899 39.9738 39.543C40.0937 39.7518 40.0222 40.018 39.8139 40.1388L37.163 41.6681C36.9735 41.7737 36.7352 41.7237 36.6036 41.551C36.4721 41.3787 36.4869 41.1356 36.6388 40.9808L36.9567 40.6654L35.2186 41.6681C35.0279 41.7797 34.784 41.7309 34.6505 41.555C34.5169 41.3791 34.5357 41.1308 34.6945 40.9772L36.8379 38.8897L32.0228 41.6681C31.8233 41.7833 31.569 41.7237 31.4411 41.5326C31.3131 41.3411 31.3559 41.0832 31.539 40.9432L33.8212 39.2068L29.5483 41.6681C29.3504 41.7793 29.1001 41.7205 28.9725 41.5326C28.8454 41.3443 28.8834 41.09 29.0601 40.9476L33.0664 37.785L26.3413 41.6681C26.1393 41.7773 25.8875 41.7121 25.7643 41.5182C25.6412 41.3247 25.6891 41.0688 25.8739 40.9328L27.32 39.9265L24.3005 41.6681C24.1014 41.7817 23.8479 41.7213 23.7208 41.5302C23.594 41.3391 23.6364 41.082 23.8187 40.9424L27.4556 38.1744L21.4046 41.6681C21.2019 41.7797 20.948 41.7141 20.8244 41.5186C20.7013 41.3235 20.7513 41.0656 20.9388 40.9308L21.9659 40.2235L19.4618 41.6681C19.2603 41.7849 19.0024 41.7229 18.8761 41.5274C18.7497 41.3315 18.7989 41.0712 18.9884 40.9352L21.5501 39.0932L17.0896 41.6681C17.0237 41.7077 16.9481 41.7289 16.8713 41.7301Z" fill="#FFD34E"/>
<path d="M26.604 34.7427C26.414 34.7423 26.2461 34.6192 26.1885 34.438C26.1314 34.2569 26.1973 34.0594 26.3525 33.9494L28.3116 32.5668L24.65 34.6807C24.4501 34.7935 24.197 34.7323 24.0706 34.5408C23.9443 34.3489 23.9879 34.0922 24.1706 33.953L27.5228 31.4505L21.9268 34.6823C21.7261 34.7983 21.4694 34.7371 21.3426 34.5432C21.2159 34.3489 21.2631 34.0894 21.4498 33.9522L24.5165 31.698L19.3423 34.6807C19.144 34.7947 18.8909 34.7367 18.7625 34.5468C18.6342 34.3573 18.6742 34.101 18.8541 33.959L22.8272 30.8516L16.1892 34.6807C15.9893 34.7967 15.7338 34.7375 15.6059 34.5452C15.4779 34.3529 15.5219 34.0942 15.7062 33.9546L19.3223 31.219L13.3165 34.6807C13.1166 34.7951 12.8623 34.7347 12.7351 34.5428C12.608 34.3509 12.652 34.0934 12.8351 33.9538L16.3456 31.3082L10.5005 34.6807C10.2986 34.7955 10.0423 34.7327 9.91674 34.5376C9.7912 34.3421 9.84038 34.0826 10.0287 33.947L12.2126 32.3985L8.25826 34.6807C8.05714 34.7935 7.80325 34.7303 7.67811 34.5368C7.55296 34.3433 7.59974 34.0858 7.78486 33.9486L10.4053 32.0587L6.13317 34.5304C5.92926 34.6547 5.66337 34.5924 5.53623 34.3904C5.40868 34.1885 5.46746 33.9215 5.66777 33.7915L6.08519 33.5068L5.32872 33.9434C5.12641 34.0598 4.86812 33.9958 4.74297 33.7991C4.61742 33.602 4.6694 33.3413 4.86052 33.207L5.46506 32.7843L5.00726 33.0462C4.80894 33.1606 4.55625 33.1022 4.42791 32.9127C4.29956 32.7232 4.33914 32.4665 4.51907 32.3249L6.45743 30.8016L4.98287 31.6524C4.78695 31.7648 4.53746 31.7092 4.40791 31.5241C4.27837 31.3386 4.31156 31.0855 4.48428 30.9395L5.30433 30.2522L4.98287 30.4374C4.80894 30.5389 4.58784 30.5081 4.4483 30.363C4.30836 30.2178 4.28637 29.9959 4.39432 29.826L5.15239 28.6165C4.95728 28.6753 4.74697 28.5929 4.64421 28.417C4.52386 28.2087 4.59503 27.9424 4.80294 27.8217L6.22393 27.0004C6.39826 26.8989 6.61896 26.9297 6.7589 27.0748C6.89844 27.2199 6.92083 27.4418 6.81288 27.6118L6.0632 28.8061L9.20785 26.9924C9.40336 26.8825 9.65086 26.9389 9.7796 27.1228C9.90835 27.3067 9.87676 27.5582 9.70643 27.7045L8.88439 28.3918L11.3085 26.9944C11.5069 26.8801 11.7595 26.9385 11.8879 27.128C12.0162 27.3175 11.9763 27.5742 11.7967 27.7157L9.86117 29.2355L13.7479 26.9916C13.9498 26.8801 14.2037 26.9445 14.3276 27.1392C14.4516 27.3339 14.4028 27.5914 14.2161 27.7273L13.6116 28.1507L15.6207 26.9916C15.8234 26.8789 16.0789 26.9445 16.2024 27.1408C16.326 27.3371 16.2744 27.5958 16.0853 27.7297L15.6667 28.0164L17.4407 26.9944C17.6418 26.8817 17.8957 26.9445 18.0209 27.138C18.146 27.3315 18.0992 27.589 17.9141 27.7261L15.294 29.6165L19.8357 26.996C20.0372 26.8841 20.2911 26.9477 20.4158 27.142C20.5402 27.3359 20.4926 27.5934 20.3067 27.7297L18.1228 29.2803L22.0803 26.9944C22.2802 26.8801 22.5345 26.9401 22.6617 27.132C22.7888 27.3243 22.7452 27.5818 22.5617 27.7209L19.054 30.3658L24.8939 26.9944C25.0934 26.8781 25.3489 26.9377 25.4768 27.13C25.6048 27.3223 25.5612 27.581 25.3769 27.7201L21.7676 30.4565L27.7699 26.9944C27.9686 26.8801 28.2213 26.9385 28.3496 27.128C28.4779 27.3175 28.438 27.5742 28.2584 27.7157L24.2858 30.82L30.9241 26.9916C31.1248 26.8785 31.3787 26.9405 31.5046 27.1336C31.6302 27.3267 31.5846 27.5842 31.3999 27.7221L28.3344 29.9764L33.4998 26.9944C33.6993 26.8837 33.9508 26.9457 34.0763 27.1364C34.2015 27.3271 34.1591 27.5822 33.9784 27.7221L30.627 30.2262L36.223 26.9944C36.4249 26.8809 36.68 26.9449 36.8048 27.14C36.9295 27.3347 36.8807 27.5934 36.6932 27.7289L34.7341 29.1079L38.1798 27.1184C38.3769 27.0072 38.626 27.0652 38.7539 27.2515C38.8823 27.4378 38.8467 27.6913 38.6724 27.8357L34.6021 31.1207L39.3397 28.385C39.534 28.2703 39.7839 28.3227 39.9154 28.5058C40.0474 28.6889 40.0182 28.9424 39.8479 29.0907L36.8679 31.7004L39.4296 30.2262C39.6251 30.1163 39.8718 30.1727 40.0006 30.3558C40.1293 30.5393 40.0985 30.7904 39.929 30.9371L39.2977 31.4709L39.4296 31.3949C39.6052 31.2934 39.8271 31.3262 39.9662 31.4737C40.1049 31.6212 40.1241 31.8451 40.0122 32.0139L39.3237 33.0446C39.4988 33.0234 39.6699 33.1074 39.7607 33.2585C39.8814 33.4672 39.8103 33.7343 39.6016 33.8551L38.1918 34.6691C38.0162 34.7707 37.7943 34.7379 37.6552 34.5904C37.5165 34.4428 37.4973 34.2189 37.6092 34.0498L38.2557 33.0742L35.4709 34.6807C35.2758 34.7903 35.0291 34.7343 34.9 34.5508C34.7712 34.3677 34.802 34.1162 34.9716 33.9698L35.6029 33.4377L33.4474 34.6807C33.2531 34.7899 33.008 34.7355 32.8781 34.5544C32.7485 34.3733 32.7757 34.1238 32.9416 33.975L35.9199 31.3658L30.178 34.6851C29.9809 34.7979 29.7298 34.7411 29.6011 34.5536C29.4723 34.3665 29.5087 34.1118 29.6846 33.9678L33.7573 30.6812L26.8223 34.6807C26.7563 34.7203 26.6811 34.7419 26.604 34.7427Z" fill="#DB9E36"/>
<path d="M15.0135 27.7554C14.8228 27.7554 14.6537 27.6318 14.5965 27.4499C14.5389 27.268 14.6065 27.0697 14.7628 26.9605L16.4225 25.7994L13.1375 27.693C12.9352 27.8033 12.6825 27.7382 12.5594 27.5435C12.4358 27.3491 12.485 27.0924 12.6709 26.9569L13.8728 26.1253L11.1564 27.693C10.9561 27.8081 10.7006 27.747 10.5742 27.5535C10.4475 27.3603 10.4935 27.1016 10.6786 26.9637L13.7709 24.6875L8.5643 27.693C8.36319 27.8093 8.1069 27.7482 7.98015 27.5539C7.85301 27.3595 7.90019 27.1 8.08731 26.9629L11.0936 24.7595L6.23131 27.569C6.03139 27.6838 5.7771 27.6234 5.64996 27.4315C5.52281 27.2396 5.56639 26.9817 5.74991 26.8426L9.09247 24.3216L5.15057 26.5979C4.95546 26.709 4.70756 26.6534 4.57802 26.4699C4.44848 26.2864 4.47926 26.0345 4.64919 25.8878L7.8714 23.1366L4.98025 24.8038C4.78593 24.917 4.53724 24.8634 4.40609 24.6807C4.27495 24.498 4.30414 24.2453 4.47366 24.0973L5.75271 22.9766L4.98025 23.422C4.80632 23.5228 4.58602 23.4916 4.44688 23.3469C4.30774 23.2017 4.28535 22.9806 4.3925 22.8107L5.13778 21.636C4.92587 21.6956 4.70277 21.588 4.6172 21.3853C4.53124 21.1826 4.61001 20.9479 4.80032 20.8375L6.22171 20.0167C6.39564 19.9159 6.61594 19.9471 6.75508 20.0919C6.89422 20.2366 6.91661 20.4581 6.80946 20.628L6.08017 21.7783L9.15445 20.0071C9.34876 19.8959 9.59546 19.9499 9.7258 20.1314C9.85615 20.3134 9.82856 20.5641 9.66103 20.7128L8.38238 21.8315L11.5494 20.0071C11.7445 19.8979 11.99 19.9539 12.1192 20.1362C12.2479 20.3186 12.2187 20.5689 12.0508 20.716L8.83059 23.4648L14.8248 20.0071C15.0247 19.8924 15.279 19.9527 15.4062 20.1446C15.5333 20.3366 15.4897 20.5944 15.3062 20.7336L11.9616 23.2517L17.5884 20.0071C17.7891 19.8908 18.0458 19.9519 18.1726 20.1462C18.2993 20.3406 18.2521 20.6 18.0654 20.7372L15.0583 22.9406L20.1417 20.0071C20.342 19.892 20.5971 19.9531 20.7239 20.1466C20.8506 20.3398 20.8046 20.5984 20.6191 20.7364L17.5256 23.0134L22.7338 20.0071C22.9361 19.8939 23.1916 19.9583 23.3155 20.1542C23.4399 20.3498 23.3895 20.6084 23.2012 20.7432L21.9993 21.5748L24.7157 20.0071C24.9177 19.8951 25.1715 19.9599 25.2955 20.1546C25.4194 20.3494 25.3707 20.6068 25.1839 20.7424L23.5243 21.9015L26.8092 20.0071C27.0104 19.8943 27.2642 19.9571 27.3894 20.1506C27.5149 20.3442 27.4682 20.6016 27.2826 20.7388L24.6258 22.6604L29.2174 20.0071C29.4177 19.8931 29.6716 19.9543 29.7984 20.1466C29.9247 20.3394 29.8799 20.5968 29.696 20.7352L26.4418 23.1513L31.8903 20.0071C32.0918 19.8963 32.3449 19.9607 32.4684 20.1546C32.5924 20.3486 32.5444 20.6052 32.3593 20.7416L30.6124 21.9687L34.0081 20.0071C34.2109 19.8967 34.4639 19.9631 34.5863 20.1582C34.709 20.3534 34.6591 20.6104 34.4719 20.7448L33.9366 21.111L35.8493 20.0071C36.0509 19.8916 36.3071 19.9535 36.4335 20.1482C36.5594 20.343 36.5115 20.6024 36.3235 20.7388L33.5907 22.7147L38.102 20.1111C38.3047 19.9947 38.5626 20.0583 38.6877 20.2554C38.8133 20.4525 38.7613 20.7132 38.5702 20.8471L37.206 21.7975L39.0628 20.7248C39.2591 20.6136 39.5082 20.67 39.6369 20.8555C39.7657 21.0411 39.7321 21.2941 39.5589 21.4393L36.0713 24.3164L39.427 22.3793C39.6217 22.2677 39.8692 22.3217 39.9996 22.5044C40.1299 22.6871 40.1007 22.939 39.932 23.0866L38.1064 24.6747L39.4278 23.9122C39.6205 23.7967 39.8696 23.8462 40.0032 24.027C40.1367 24.2077 40.1115 24.46 39.9448 24.6107L39.4574 25.0701C39.6681 24.9738 39.9176 25.0585 40.0255 25.2636C40.1339 25.4683 40.0631 25.7218 39.8644 25.8414L36.6522 27.693C36.4591 27.8105 36.2088 27.7614 36.0745 27.5802C35.9401 27.3987 35.9657 27.1448 36.134 26.9945L36.617 26.5403L34.6239 27.693C34.4296 27.8025 34.1841 27.7482 34.0541 27.5666C33.9246 27.3851 33.9526 27.1348 34.1193 26.9865L35.9429 25.3996L31.9686 27.693C31.7723 27.8065 31.5216 27.7506 31.3921 27.5642C31.2625 27.3779 31.2969 27.1236 31.4716 26.9789L34.9653 24.0965L28.736 27.693C28.5341 27.8077 28.2774 27.7442 28.1523 27.5483C28.0275 27.3523 28.0779 27.0928 28.267 26.9577L29.6296 26.0093L26.7105 27.693C26.5094 27.8085 26.2531 27.7466 26.1267 27.5519C26.0004 27.3571 26.0488 27.0976 26.2363 26.9613L28.9727 24.9854L24.2711 27.693C24.0688 27.8033 23.8153 27.737 23.693 27.5419C23.5702 27.3467 23.6202 27.0897 23.8073 26.9553L24.3383 26.5927L22.4307 27.693C22.2292 27.8037 21.9761 27.7394 21.8526 27.5455C21.7286 27.3515 21.7766 27.0948 21.9617 26.9585L23.7086 25.7314L20.3128 27.693C20.1125 27.8069 19.8582 27.7458 19.7319 27.5535C19.6055 27.3607 19.6503 27.1032 19.8342 26.9649L23.0892 24.5487L17.64 27.693C17.4389 27.8085 17.1822 27.7466 17.0562 27.5519C16.9299 27.3571 16.9783 27.0976 17.1658 26.9613L19.8235 25.0397L15.2318 27.693C15.1659 27.7326 15.0907 27.7542 15.0135 27.7554Z" fill="#FFD34E"/>
<path d="M51.2778 8.87078C41.0718 -1.25167 24.1175 6.30468 23.3406 20.0612H13.3925C11.2682 20.0612 8.88807 19.7573 6.77858 20.0612C4.35163 20.4106 4.10413 21.7904 4.10413 24.0195C4.10413 25.9926 4.41 26.999 5.75942 27.4192C4.61351 28.0617 3.9402 29.3196 4.09893 31.7409C4.20369 33.3302 4.60752 34.1111 5.63547 34.4825C4.56194 35.1447 3.9506 36.4021 4.10093 38.7327C4.20289 40.2872 4.59512 41.0577 5.5735 41.4324C4.38721 42.1313 3.74509 43.4763 4.09534 46.0268C4.21249 47.0399 4.83822 47.9232 5.75502 48.3702C4.61071 49.0139 3.939 50.2733 4.09814 52.6999C4.24047 54.8658 4.92698 55.5523 7.01448 55.7202C9.96761 55.9577 13.0411 55.7202 16.0006 55.7202H37.6993C37.7089 55.7202 37.7185 55.7158 37.728 55.7158C37.8304 55.725 37.934 55.7162 38.0331 55.6886C40.5336 55.0125 40.9195 52.2561 40.3037 49.8839C40.1798 49.1802 39.7444 48.5701 39.1194 48.2242C40.6288 47.1255 40.8095 44.8565 40.3037 42.8961C40.179 42.162 39.712 41.5307 39.0463 41.1965C40.4557 40.2357 40.7587 38.3293 40.4209 36.4897C53.8011 35.3734 61.5302 19.034 51.2778 8.87078ZM5.811 21.4222C7.00328 19.9492 10.2159 20.6517 12.1511 20.6517H23.3966C23.6881 20.884 24.1011 20.884 24.3926 20.6517H26.9255C27.1734 20.7728 27.4637 20.7728 27.7116 20.6517H35.3359C36.0664 20.5461 36.808 20.5461 37.5385 20.6517C39.0775 21.3126 40.1406 26.017 38.1403 26.9842C37.5265 26.9278 36.91 26.9098 36.2939 26.9298H13.3609C11.0331 26.9298 8.599 26.5728 6.81017 27.0122C5.13409 26.2085 4.67829 22.822 5.811 21.4222ZM40.3065 28.9213C40.179 28.1401 39.6576 27.4796 38.9271 27.1745C40.5668 26.1689 40.8307 23.9959 40.3065 21.9339C39.772 19.8237 38.0767 20.0612 36.3247 20.0612H28.0994C28.7675 9.81677 41.4149 4.33913 48.467 12.7923C54.6528 20.2087 49.7457 31.2299 40.4001 32.1547C40.6284 31.0852 40.5964 29.9761 40.3065 28.9213ZM5.82939 28.392C6.31318 27.9598 6.92852 27.7031 7.57624 27.6627C8.80931 27.7299 10.0552 27.7414 11.305 27.7203C11.6193 27.7414 11.9164 27.757 12.1827 27.757H35.3663C36.0972 27.6503 36.8392 27.6503 37.5701 27.757C39.0547 28.4148 40.1982 33.1723 37.9072 33.9164H12.5217C10.6905 33.7425 8.84649 33.7601 7.01888 33.9688C6.9569 33.9576 6.89653 33.94 6.83815 33.9164C5.29482 33.2343 4.58832 29.7022 5.82939 28.392ZM37.8984 54.8678H9.04081C8.31032 54.9737 7.56864 54.9737 6.83815 54.8678C5.29282 54.1857 4.58992 50.6752 5.83099 49.3649C6.12486 49.0855 6.48591 48.8867 6.87934 48.7884C9.71172 49.5493 13.9611 48.766 16.1725 48.766H37.6249C39.0959 49.5133 40.1642 54.1373 37.8984 54.8678ZM37.8836 47.848H12.0291C10.3522 47.6829 8.66257 47.7084 6.99169 47.924C6.88014 47.9152 6.77058 47.8896 6.66703 47.848C5.14968 47.1143 4.69828 43.5862 5.91735 42.3967C6.32038 42.0437 6.81576 41.8138 7.34554 41.7338C9.09958 41.8518 10.8864 41.821 12.6736 41.7774H35.541C35.7289 41.7774 36.0312 41.7458 36.3578 41.719H37.5509C37.6173 41.7302 37.6821 41.7498 37.7436 41.7774C39.1974 42.4807 40.0498 47.1491 37.8836 47.848ZM37.9272 40.9138C37.4906 40.871 37.0268 40.8654 36.5298 40.8602C28.8715 40.773 21.208 40.8602 13.5505 40.8602C11.3014 40.8602 8.78132 40.5195 6.89213 40.9346C6.87494 40.9286 6.85295 40.9258 6.83815 40.919C5.29722 40.2333 4.58632 36.6896 5.82659 35.3718C6.15165 35.0563 6.55868 34.8384 7.00128 34.7436H7.01088C9.96401 34.9787 13.0379 34.7436 15.997 34.7436H37.5885C39.0539 35.4373 40.1878 40.1485 37.9272 40.9138ZM40.1982 35.5725C40.0239 34.9799 39.6056 34.4897 39.0479 34.2239C39.5229 33.8952 39.8987 33.4418 40.1334 32.9136C50.9903 31.9652 57.23 18.4566 48.0792 10.7232C39.8487 3.76817 27.6128 9.83836 26.8423 20.0612H24.6125C25.3034 6.79287 41.7291 -0.256894 50.9607 10.3233C59.4067 20.0072 52.6008 34.7524 40.2026 35.5725H40.1982Z" fill="#592B02"/>
<path d="M39.9372 11.3145C39.6445 11.3145 39.3546 11.3313 39.0635 11.3581C38.8068 11.3809 38.3754 11.4384 38.2223 11.6823C38.0792 11.9102 38.3446 11.9906 38.543 11.973C38.8348 11.9462 39.1247 11.9322 39.4166 11.9294C39.7296 11.9438 40.0347 11.8263 40.2574 11.6056C40.4062 11.3669 40.1275 11.3129 39.9372 11.3145Z" fill="#592B02"/>
<path d="M42.8096 12.8005C45.2598 13.9264 47.0358 16.1422 47.6012 18.7791C47.7419 19.402 49.009 19.0702 48.8658 18.4404C48.2177 15.5413 46.2389 13.1183 43.5281 11.9033C42.964 11.6422 42.0703 12.457 42.8096 12.8005Z" fill="#592B02"/>
<path d="M47.5998 22.1785C47.5367 22.474 47.4615 22.7638 47.3743 23.0521C47.232 23.5159 48.5098 23.3472 48.6418 22.9018C48.7289 22.6135 48.8049 22.3236 48.8677 22.0285C48.9736 21.5332 47.6958 21.7279 47.5998 22.1785Z" fill="#592B02"/>
</g>
<defs>
<clipPath id="clip0_75_27144">
<rect width="52" height="52" fill="white" transform="translate(4 4)"/>
</clipPath>
</defs>
</svg>
