<svg width="60" height="60" viewBox="0 0 60 60" fill="none" xmlns="http://www.w3.org/2000/svg">
<path d="M24.3692 33.3698C24.2618 33.3698 24.1571 33.3352 24.0709 33.2711C23.9846 33.207 23.9213 33.1168 23.8903 33.0139C23.8594 32.911 23.8624 32.8008 23.8989 32.6997C23.9355 32.5987 24.0036 32.5121 24.0932 32.4528L30.9792 27.8808L21.8692 33.1398C21.7566 33.2038 21.6235 33.2216 21.498 33.1894C21.3724 33.1572 21.2643 33.0776 21.1964 32.9673C21.1284 32.8569 21.106 32.7245 21.1337 32.5979C21.1615 32.4714 21.2373 32.3605 21.3452 32.2888L29.1262 27.1728L19.6872 32.6218C19.5744 32.6915 19.4385 32.7136 19.3093 32.6831C19.1802 32.6526 19.0685 32.5721 18.9987 32.4593C18.929 32.3464 18.9069 32.2105 18.9374 32.0814C18.9679 31.9522 19.0484 31.8405 19.1612 31.7708L28.4262 25.6708L17.5832 31.9308C17.4708 31.9937 17.3384 32.0107 17.2136 31.9784C17.0889 31.946 16.9815 31.8668 16.9138 31.7571C16.846 31.6475 16.8233 31.516 16.8502 31.3899C16.8771 31.2639 16.9516 31.1532 17.0582 31.0808L27.7072 24.0608L15.5482 31.0808C15.4351 31.15 15.2991 31.1714 15.1702 31.1404C15.0413 31.1094 14.93 31.0284 14.8607 30.9153C14.7915 30.8021 14.7701 30.6662 14.8011 30.5372C14.8321 30.4083 14.9131 30.297 15.0262 30.2278L24.3922 24.1718L14.0002 30.1738C13.8869 30.2426 13.7508 30.2636 13.6219 30.232C13.4931 30.2005 13.3821 30.1191 13.3132 30.0058C13.2444 29.8924 13.2235 29.7563 13.255 29.6275C13.2865 29.4986 13.3679 29.3876 13.4812 29.3188L20.9172 24.5848L13.6072 28.8048C13.4942 28.8679 13.3611 28.8848 13.2359 28.8518C13.1108 28.8189 13.0032 28.7386 12.936 28.628C12.8688 28.5174 12.8471 28.385 12.8755 28.2587C12.9039 28.1323 12.9801 28.022 13.0882 27.9508L20.8882 22.9678L13.7502 27.0888C13.6373 27.153 13.5038 27.1708 13.378 27.1384C13.2522 27.1059 13.1439 27.0257 13.0762 26.9149C13.0085 26.804 12.9866 26.6711 13.0151 26.5443C13.0437 26.4175 13.1205 26.3069 13.2292 26.2358L22.1852 20.4458L14.0482 25.1458C13.9347 25.2112 13.8 25.2295 13.6732 25.1967C13.5463 25.1638 13.4374 25.0825 13.3699 24.9702C13.3024 24.8578 13.2817 24.7235 13.3123 24.5961C13.3428 24.4686 13.4222 24.3583 13.5332 24.2888L14.2332 23.8498C14.1183 23.8862 13.9941 23.88 13.8835 23.8321C13.7728 23.7842 13.6832 23.698 13.6311 23.5893C13.579 23.4806 13.5679 23.3567 13.5999 23.2405C13.6319 23.1242 13.7048 23.0235 13.8052 22.9568L24.8052 15.6038L15.1052 21.2038C14.9922 21.266 14.8594 21.282 14.7348 21.2486C14.6101 21.2151 14.5032 21.1348 14.4364 21.0244C14.3697 20.9139 14.3482 20.7819 14.3765 20.656C14.4048 20.5301 14.4806 20.42 14.5882 20.3488L15.6522 19.6788C15.5599 19.6865 15.4673 19.6684 15.3847 19.6266C15.302 19.5847 15.2326 19.5207 15.1842 19.4418C15.1162 19.3308 15.0942 19.1977 15.1227 19.0707C15.1513 18.9437 15.2283 18.8329 15.3372 18.7618L20.2002 15.5998L17.1642 17.3528C17.0517 17.418 16.9181 17.4368 16.7919 17.4052C16.6657 17.3736 16.5567 17.294 16.4883 17.1833C16.4198 17.0727 16.3972 16.9397 16.4252 16.8126C16.4532 16.6855 16.5296 16.5744 16.6382 16.5028L21.6722 13.1598L18.5392 14.9688C18.4266 15.0328 18.2935 15.0506 18.168 15.0184C18.0424 14.9863 17.9343 14.9066 17.8664 14.7963C17.7984 14.6859 17.776 14.5535 17.8037 14.4269C17.8315 14.3004 17.9073 14.1895 18.0152 14.1178L19.5802 13.0908C19.4668 13.1369 19.3403 13.1398 19.2249 13.0988C19.1094 13.0579 19.013 12.976 18.9539 12.8687C18.8949 12.7614 18.8772 12.6362 18.9044 12.5167C18.9315 12.3973 19.0016 12.292 19.1012 12.2208L23.8842 8.84576L21.1652 10.4148C21.0548 10.4775 20.9246 10.4959 20.8011 10.4662C20.6776 10.4365 20.57 10.3608 20.5003 10.2547C20.4305 10.1485 20.4038 10.0198 20.4255 9.89458C20.4472 9.76942 20.5158 9.65721 20.6172 9.58076L24.4732 6.72576L22.7002 7.74176C22.5917 7.80331 22.4641 7.82208 22.3425 7.79437C22.2209 7.76667 22.114 7.6945 22.0429 7.59204C21.9717 7.48957 21.9414 7.36421 21.958 7.24057C21.9745 7.11692 22.0367 7.00393 22.1322 6.92376L26.6132 3.21776C26.5672 3.17928 26.5289 3.13246 26.5002 3.07976C26.4339 2.96492 26.416 2.82845 26.4503 2.70036C26.4846 2.57228 26.5684 2.46307 26.6832 2.39676L29.7892 0.599763C29.8977 0.538216 30.0253 0.519452 30.147 0.547154C30.2686 0.574856 30.3755 0.647025 30.4466 0.74949C30.5178 0.851955 30.5481 0.977316 30.5315 1.10096C30.515 1.2246 30.4528 1.3376 30.3572 1.41776L27.3632 3.89976L31.5682 1.46976C31.6787 1.40698 31.8089 1.38858 31.9324 1.41832C32.0559 1.44806 32.1635 1.52369 32.2332 1.62986C32.303 1.73603 32.3297 1.86478 32.308 1.98994C32.2863 2.11511 32.2177 2.22731 32.1162 2.30376L28.2642 5.15576L32.9152 2.47176C33.0263 2.4112 33.1562 2.39499 33.2788 2.42641C33.4013 2.45783 33.5074 2.53454 33.5756 2.64108C33.6439 2.74762 33.6692 2.87606 33.6465 3.00052C33.6238 3.12498 33.5547 3.2362 33.4532 3.31176L28.6662 6.68976L34.1662 3.51776C34.2787 3.45486 34.4111 3.4378 34.5358 3.47015C34.6606 3.5025 34.768 3.58176 34.8357 3.69139C34.9034 3.80103 34.9262 3.93257 34.8993 4.05859C34.8724 4.18461 34.7978 4.29536 34.6912 4.36776L33.1912 5.35376L35.0062 4.29976C35.1185 4.23778 35.2503 4.22131 35.3744 4.25377C35.4985 4.28623 35.6054 4.36513 35.6729 4.47416C35.7405 4.58319 35.7635 4.71401 35.7374 4.83957C35.7112 4.96513 35.6377 5.07582 35.5322 5.14876L30.5002 8.49976L36.0002 5.31676C36.113 5.25378 36.2457 5.23685 36.3706 5.26952C36.4956 5.30219 36.603 5.38193 36.6705 5.49204C36.7379 5.60215 36.7602 5.73409 36.7325 5.86023C36.7049 5.98637 36.6296 6.09694 36.5222 6.16876L31.6632 9.33176L36.8822 6.31876C36.9955 6.25529 37.1291 6.23838 37.2546 6.27161C37.3801 6.30484 37.4878 6.38561 37.5549 6.49683C37.6219 6.60804 37.643 6.74098 37.6138 6.86751C37.5846 6.99403 37.5073 7.10423 37.3982 7.17476L37.4552 7.14176C37.5674 7.07887 37.6996 7.06163 37.8242 7.09364C37.9487 7.12564 38.0562 7.20444 38.1242 7.31363C38.1922 7.42282 38.2155 7.55402 38.1892 7.67994C38.163 7.80587 38.0892 7.91683 37.9832 7.98976L26.9852 15.3458L38.3852 8.76376C38.4983 8.70414 38.6299 8.69007 38.753 8.72445C38.8761 8.75883 38.9814 8.83905 39.0472 8.94863C39.113 9.0582 39.1343 9.18882 39.1068 9.31363C39.0793 9.43845 39.005 9.548 38.8992 9.61976L38.4832 9.88076L38.8932 9.64476C39.0059 9.58363 39.1377 9.56808 39.2614 9.60131C39.3852 9.63454 39.4915 9.71403 39.5583 9.82336C39.6252 9.93269 39.6475 10.0635 39.6207 10.1888C39.5939 10.3141 39.52 10.4244 39.4142 10.4968L30.4492 16.2968L39.6602 10.9798C39.7731 10.9177 39.9054 10.9016 40.0299 10.9347C40.1543 10.9678 40.2611 11.0477 40.3281 11.1576C40.3951 11.2675 40.4172 11.3991 40.3896 11.5249C40.3621 11.6506 40.2871 11.7609 40.1802 11.8328L32.3802 16.8148L40.3632 12.2048C40.4766 12.1359 40.6127 12.115 40.7415 12.1465C40.8704 12.178 40.9814 12.2594 41.0502 12.3728C41.1191 12.4861 41.14 12.6222 41.1085 12.7511C41.077 12.8799 40.9956 12.9909 40.8822 13.0598L33.4502 17.7908L41.0592 13.3998C41.1722 13.3355 41.3057 13.3177 41.4315 13.3502C41.5573 13.3826 41.6656 13.4628 41.7333 13.5737C41.801 13.6846 41.8229 13.8175 41.7944 13.9442C41.7658 14.071 41.689 14.1816 41.5802 14.2528L32.2172 20.3078L41.8392 14.7528C41.9517 14.6899 42.0841 14.6728 42.2088 14.7052C42.3336 14.7375 42.441 14.8168 42.5087 14.9264C42.5764 15.036 42.5992 15.1676 42.5723 15.2936C42.5454 15.4196 42.4708 15.5304 42.3642 15.6028L31.7172 22.6188L42.7172 16.2698C42.8297 16.2069 42.9621 16.1898 43.0868 16.2222C43.2116 16.2545 43.319 16.3338 43.3867 16.4434C43.4544 16.553 43.4772 16.6846 43.4503 16.8106C43.4234 16.9366 43.3488 17.0474 43.2422 17.1198L33.9782 23.2198L43.5382 17.6998C43.6509 17.6357 43.784 17.6179 43.9095 17.6501C44.035 17.6823 44.1432 17.7619 44.2111 17.8723C44.2791 17.9826 44.3015 18.115 44.2737 18.2416C44.246 18.3682 44.1701 18.479 44.0622 18.5508L36.2762 23.6698L44.3082 19.0338C44.4208 18.9685 44.5544 18.9497 44.6806 18.9813C44.8068 19.013 44.9157 19.0926 44.9842 19.2032C45.0527 19.3139 45.0753 19.4468 45.0473 19.5739C45.0193 19.701 44.9429 19.8121 44.8342 19.8838L37.9542 24.4518L44.9322 20.4238C45.044 20.3616 45.1754 20.3446 45.2993 20.3764C45.4232 20.4081 45.5302 20.4861 45.5984 20.5943C45.6665 20.7026 45.6906 20.8328 45.6656 20.9583C45.6407 21.0837 45.5686 21.1948 45.4642 21.2688L38.6192 25.9588L45.4302 22.0268C45.5408 21.9634 45.6714 21.9447 45.7953 21.9744C45.9193 22.0041 46.0272 22.08 46.097 22.1866C46.1668 22.2932 46.1933 22.4225 46.1711 22.548C46.1488 22.6734 46.0795 22.7857 45.9772 22.8618L39.0142 27.9998L45.9042 24.0208C46.014 23.9553 46.1447 23.9344 46.2695 23.9623C46.3942 23.9902 46.5035 24.0648 46.575 24.1708C46.6464 24.2768 46.6745 24.4061 46.6536 24.5322C46.6326 24.6583 46.5641 24.7716 46.4622 24.8488L41.3462 28.8388L46.2282 26.0208C46.3371 25.9583 46.4655 25.9391 46.5879 25.967C46.7102 25.9948 46.8177 26.0677 46.8888 26.1711C46.96 26.2745 46.9896 26.4008 46.9719 26.5251C46.9542 26.6493 46.8904 26.7624 46.7932 26.8418L44.1052 29.0298L46.3812 27.7168C46.4878 27.653 46.6142 27.6312 46.736 27.6555C46.8577 27.6798 46.9661 27.7486 47.0399 27.8484C47.1138 27.9482 47.1478 28.0719 47.1355 28.1954C47.1232 28.319 47.0654 28.4335 46.9732 28.5168L46.5142 28.9448C46.6178 28.9586 46.7144 29.0045 46.7905 29.0761C46.8665 29.1476 46.9183 29.2412 46.9385 29.3437C46.9587 29.4462 46.9463 29.5524 46.903 29.6475C46.8597 29.7426 46.7878 29.8217 46.6972 29.8738L43.5692 31.6808C43.4627 31.7435 43.3367 31.7646 43.2156 31.7399C43.0944 31.7153 42.9867 31.6466 42.9132 31.5471C42.8397 31.4476 42.8057 31.3245 42.8177 31.2014C42.8298 31.0784 42.8869 30.9641 42.9782 30.8808L43.1042 30.7638L39.2002 33.0228C39.0915 33.0838 38.9639 33.102 38.8425 33.0739C38.721 33.0457 38.6144 32.9732 38.5437 32.8705C38.473 32.7678 38.4431 32.6424 38.4601 32.5189C38.477 32.3954 38.5395 32.2826 38.6352 32.2028L41.3242 30.0138L35.6242 33.3018C35.5146 33.3652 35.385 33.3847 35.2616 33.3563C35.1381 33.3279 35.0301 33.2537 34.9592 33.1487C34.8884 33.0437 34.86 32.9158 34.8799 32.7906C34.8997 32.6655 34.9663 32.5526 35.0662 32.4748L40.1802 28.4858L31.8352 33.2998C31.7247 33.3631 31.5941 33.3818 31.4701 33.3521C31.3462 33.3224 31.2383 33.2465 31.1685 33.1399C31.0986 33.0333 31.0721 32.904 31.0944 32.7786C31.1167 32.6531 31.186 32.5408 31.2882 32.4648L38.2522 27.3198L27.9002 33.2998C27.7884 33.3637 27.6561 33.382 27.5311 33.3508C27.4061 33.3196 27.298 33.2414 27.2292 33.1324C27.1605 33.0235 27.1365 32.8921 27.1622 32.7659C27.1879 32.6396 27.2613 32.5282 27.3672 32.4548L34.2122 27.7648L24.6192 33.2998C24.5436 33.345 24.4573 33.3691 24.3692 33.3698Z" fill="#FFD34E"/>
<path d="M29.4545 59.4711C29.3598 59.4712 29.267 59.4444 29.187 59.3937C29.1069 59.3431 29.0429 59.2708 29.0023 59.1852C28.9618 59.0996 28.9464 59.0042 28.9579 58.9102C28.9695 58.8162 29.0075 58.7274 29.0675 58.6541L29.8465 57.7031L28.2995 58.6001C28.1956 58.6596 28.0738 58.6798 27.9562 58.657C27.8386 58.6342 27.7332 58.57 27.6589 58.4761C27.5847 58.3821 27.5467 58.2646 27.5517 58.145C27.5568 58.0253 27.6046 57.9115 27.6865 57.8241L29.2645 56.1501L28.2805 56.7181C28.1768 56.7783 28.0549 56.7991 27.937 56.7768C27.8192 56.7546 27.7133 56.6907 27.6386 56.5969C27.5639 56.5031 27.5255 56.3855 27.5302 56.2657C27.535 56.1459 27.5826 56.0318 27.6645 55.9441L29.3355 54.1441L28.2805 54.7521C28.1763 54.8117 28.0541 54.8317 27.9363 54.8085C27.8185 54.7854 27.713 54.7207 27.639 54.6262C27.565 54.5317 27.5274 54.4137 27.5332 54.2938C27.539 54.1739 27.5878 54.0601 27.6705 53.9731L29.1465 52.4411L28.2805 52.9411C28.1746 53.0059 28.0484 53.029 27.9264 53.0059C27.8045 52.9828 27.6955 52.9152 27.6206 52.8161C27.5458 52.7171 27.5105 52.5937 27.5215 52.4701C27.5326 52.3464 27.5893 52.2313 27.6805 52.1471L28.6205 51.2471L28.2755 51.4471C28.169 51.5088 28.0435 51.529 27.923 51.5039C27.8025 51.4789 27.6955 51.4102 27.6225 51.3111C27.5493 51.2116 27.5155 51.0885 27.5277 50.9655C27.5398 50.8425 27.5972 50.7284 27.6885 50.6451L28.2425 50.1391C28.1337 50.1921 28.0094 50.2037 27.8926 50.172C27.7759 50.1402 27.6746 50.0672 27.6076 49.9665C27.5405 49.8658 27.5123 49.7442 27.5281 49.6242C27.5439 49.5042 27.6027 49.3941 27.6935 49.3141L28.0985 48.9551C28.0103 48.9668 27.9207 48.9553 27.8383 48.9218C27.7559 48.8883 27.6836 48.834 27.6285 48.7641C27.5545 48.6674 27.5183 48.547 27.5268 48.4254C27.5352 48.3039 27.5878 48.1897 27.6745 48.1041L28.8515 46.9401L28.2755 47.2721C28.1725 47.3309 28.0519 47.3512 27.9354 47.3292C27.8188 47.3073 27.7138 47.2447 27.6392 47.1525C27.5645 47.0603 27.5251 46.9446 27.5279 46.826C27.5307 46.7074 27.5756 46.5937 27.6545 46.5051L29.4715 44.5001L28.2795 45.1881C28.1767 45.2476 28.056 45.2685 27.9392 45.2471C27.8223 45.2257 27.7169 45.1634 27.6418 45.0713C27.5667 44.9793 27.5269 44.8635 27.5294 44.7447C27.5319 44.6259 27.5766 44.5119 27.6555 44.4231L29.5475 42.2921L28.2795 43.0231C28.1732 43.0802 28.0498 43.0969 27.9321 43.0701C27.8144 43.0433 27.7104 42.9748 27.6393 42.8774C27.5681 42.7799 27.5346 42.66 27.5449 42.5397C27.5553 42.4195 27.6088 42.307 27.6955 42.2231L28.1445 41.8231C28.0536 41.8453 27.9583 41.841 27.8698 41.8109C27.7812 41.7808 27.7031 41.7261 27.6445 41.6531C27.5679 41.5609 27.527 41.4443 27.5292 41.3244C27.5314 41.2046 27.5766 41.0895 27.6565 41.0001L29.5135 38.9251L28.2795 39.6371C28.1736 39.6976 28.0492 39.7172 27.9298 39.6923C27.8104 39.6674 27.7043 39.5998 27.6313 39.5021C27.5583 39.4044 27.5235 39.2834 27.5335 39.1618C27.5435 39.0403 27.5975 38.9266 27.6855 38.8421L28.1055 38.4421C28.0234 38.4548 27.9394 38.4467 27.8612 38.4187C27.783 38.3907 27.713 38.3437 27.6575 38.2819C27.602 38.22 27.5628 38.1453 27.5434 38.0645C27.5241 37.9838 27.5251 37.8994 27.5465 37.8191L27.8215 36.7771C27.7274 36.7361 27.6489 36.6661 27.5975 36.5771C27.5315 36.4625 27.5135 36.3264 27.5476 36.1985C27.5817 36.0707 27.6651 35.9616 27.7795 35.8951L28.2855 35.6031C28.371 35.5536 28.4692 35.5305 28.5678 35.5367C28.6664 35.5429 28.761 35.5782 28.8395 35.6381C28.918 35.6981 28.977 35.7799 29.0091 35.8734C29.0411 35.9668 29.0447 36.0676 29.0195 36.1631L28.8195 36.9181L31.1365 35.5801C31.2431 35.5142 31.3705 35.4907 31.4935 35.5143C31.6166 35.5378 31.7263 35.6067 31.801 35.7073C31.8757 35.8079 31.9099 35.9328 31.8968 36.0574C31.8838 36.182 31.8244 36.2972 31.7305 36.3801L31.4135 36.6801L31.7195 36.5041C31.8225 36.4447 31.9432 36.4239 32.0601 36.4454C32.177 36.4669 32.2824 36.5294 32.3574 36.6217C32.4325 36.7139 32.4722 36.8298 32.4694 36.9486C32.4667 37.0675 32.4217 37.1815 32.3425 37.2701L30.4865 39.3431L31.7195 38.6321C31.8259 38.5751 31.9493 38.5584 32.0669 38.5852C32.1846 38.612 32.2886 38.6804 32.3598 38.7779C32.4309 38.8754 32.4644 38.9953 32.4541 39.1156C32.4438 39.2358 32.3903 39.3482 32.3035 39.4321L31.8535 39.8321C31.9444 39.8118 32.0392 39.8169 32.1274 39.8469C32.2156 39.8769 32.2938 39.9306 32.3535 40.0021C32.4287 40.0941 32.4686 40.2098 32.4662 40.3285C32.4639 40.4473 32.4193 40.5613 32.3405 40.6501L30.4485 42.7811L31.7165 42.0501C31.8195 41.9914 31.9401 41.9711 32.0567 41.9931C32.1733 42.015 32.2782 42.0776 32.3529 42.1698C32.4275 42.262 32.4669 42.3777 32.4641 42.4963C32.4613 42.6149 32.4164 42.7286 32.3375 42.8171L30.5245 44.8241L31.7165 44.1371C31.8217 44.078 31.9447 44.0589 32.0628 44.0833C32.181 44.1077 32.2863 44.1741 32.3594 44.2701C32.4325 44.366 32.4684 44.4852 32.4605 44.6056C32.4527 44.726 32.4015 44.8395 32.3165 44.9251L31.1395 46.0891L31.7155 45.7571C31.8228 45.6951 31.9493 45.6751 32.0705 45.701C32.1917 45.7269 32.299 45.7969 32.3714 45.8975C32.4439 45.998 32.4765 46.1219 32.4629 46.245C32.4492 46.3682 32.3903 46.4819 32.2975 46.5641L31.8975 46.9221C31.9873 46.9107 32.0785 46.9232 32.1619 46.9583C32.2453 46.9934 32.318 47.0499 32.3725 47.1221C32.4455 47.2216 32.4791 47.3445 32.4669 47.4673C32.4548 47.59 32.3976 47.704 32.3065 47.7871L31.7525 48.2941C31.8598 48.2427 31.9819 48.2312 32.0968 48.2617C32.2118 48.2921 32.3122 48.3626 32.3799 48.4604C32.4476 48.5582 32.4782 48.677 32.4662 48.7953C32.4542 48.9137 32.4004 49.0239 32.3145 49.1061L31.3725 50.0061L31.7195 49.8061C31.8238 49.7466 31.9459 49.7266 32.0637 49.7497C32.1815 49.7729 32.2871 49.8376 32.3611 49.9321C32.4351 50.0266 32.4726 50.1446 32.4668 50.2645C32.461 50.3844 32.4123 50.4982 32.3295 50.5851L30.8535 52.1161L31.7195 51.6161C31.8233 51.556 31.9452 51.5352 32.063 51.5575C32.1808 51.5797 32.2867 51.6436 32.3614 51.7374C32.4361 51.8312 32.4746 51.9488 32.4698 52.0686C32.465 52.1884 32.4174 52.3025 32.3355 52.3901L30.6655 54.1901L31.7195 53.5811C31.8235 53.5217 31.9453 53.5015 32.0628 53.5243C32.1804 53.5471 32.2859 53.6113 32.3601 53.7052C32.4343 53.7992 32.4724 53.9167 32.4673 54.0363C32.4622 54.1559 32.4144 54.2698 32.3325 54.3571L30.7525 56.0321L31.7195 55.4751C31.8208 55.4175 31.939 55.3971 32.0537 55.4174C32.1684 55.4376 32.2725 55.4973 32.3479 55.5861C32.4233 55.6749 32.4653 55.7873 32.4667 55.9038C32.4681 56.0202 32.4288 56.1336 32.3555 56.2241L31.5795 57.1721L31.7195 57.0921C31.8338 57.0324 31.9667 57.0191 32.0906 57.055C32.2144 57.0909 32.3196 57.1733 32.3842 57.285C32.4487 57.3966 32.4676 57.5289 32.4369 57.6541C32.4062 57.7794 32.3284 57.888 32.2195 57.9571L29.7045 59.4001C29.6291 59.4459 29.5427 59.4704 29.4545 59.4711Z" fill="#6E8C03"/>
<path d="M41.0895 56.405C40.9841 56.4043 40.8817 56.3704 40.7967 56.308C40.7118 56.2456 40.6487 56.158 40.6166 56.0576C40.5844 55.9572 40.5848 55.8493 40.6176 55.7492C40.6505 55.649 40.7142 55.5618 40.7995 55.5L44.0095 53.2L38.6505 56.3C38.5382 56.3651 38.405 56.384 38.2791 56.3526C38.1531 56.3213 38.0443 56.2422 37.9756 56.1321C37.9069 56.0219 37.8837 55.8894 37.9109 55.7625C37.9382 55.6356 38.0137 55.5243 38.1215 55.452L40.7805 53.659L37.0055 55.839C36.894 55.9013 36.7628 55.9186 36.639 55.8873C36.5151 55.8559 36.4079 55.7783 36.3395 55.6705C36.271 55.5626 36.2464 55.4326 36.2708 55.3072C36.2952 55.1817 36.3666 55.0704 36.4705 54.996L41.7035 51.356L35.4275 54.979C35.316 55.0413 35.1848 55.0586 35.061 55.0273C34.9371 54.9959 34.8299 54.9183 34.7615 54.8105C34.693 54.7026 34.6684 54.5726 34.6928 54.4472C34.7172 54.3217 34.7886 54.2104 34.8925 54.136L39.3815 51.013L34.2725 53.961C34.1608 54.0241 34.0292 54.0418 33.9048 54.0105C33.7804 53.9793 33.6727 53.9014 33.6042 53.793C33.5356 53.6846 33.5113 53.554 33.5363 53.4281C33.5613 53.3023 33.6337 53.1909 33.7385 53.117L37.3115 50.646L33.4365 52.88C33.326 52.942 33.1961 52.9596 33.073 52.9295C32.95 52.8993 32.843 52.8235 32.7736 52.7175C32.7043 52.6114 32.6778 52.483 32.6995 52.3582C32.7212 52.2334 32.7895 52.1214 32.8905 52.045L38.3105 48.045L32.6785 51.3C32.5662 51.3706 32.4305 51.3936 32.3012 51.3641C32.1719 51.3345 32.0596 51.2548 31.989 51.1425C31.9185 51.0302 31.8954 50.8945 31.925 50.7651C31.9545 50.6358 32.0342 50.5236 32.1465 50.453L33.1685 49.76L32.3935 50.207C32.2843 50.2693 32.1556 50.2882 32.0331 50.2598C31.9106 50.2315 31.8033 50.158 31.7325 50.0541C31.6618 49.9501 31.6328 49.8234 31.6513 49.699C31.6698 49.5746 31.7345 49.4618 31.8325 49.383L36.9555 45.323L32.3485 47.983C32.2387 48.0461 32.109 48.0651 31.9857 48.0362C31.8624 48.0074 31.7546 47.9328 31.6841 47.8275C31.6137 47.7223 31.5858 47.5942 31.6061 47.4692C31.6264 47.3442 31.6934 47.2316 31.7935 47.154L34.2515 45.262L32.8715 46.062C32.7639 46.1237 32.6372 46.1432 32.5161 46.1167C32.3949 46.0902 32.2879 46.0196 32.2158 45.9187C32.1438 45.8177 32.1119 45.6936 32.1262 45.5704C32.1406 45.4472 32.2002 45.3337 32.2935 45.252L34.0615 43.714C33.9534 43.6738 33.863 43.5966 33.8065 43.496C33.7405 43.3814 33.7225 43.2453 33.7566 43.1174C33.7907 42.9896 33.8741 42.8805 33.9885 42.814L37.3395 40.878C37.4471 40.8163 37.5738 40.7968 37.695 40.8233C37.8162 40.8498 37.9232 40.9204 37.9952 41.0214C38.0672 41.1223 38.0992 41.2465 38.0848 41.3697C38.0705 41.4929 38.0109 41.6063 37.9175 41.688L36.8685 42.6L40.2685 40.637C40.3783 40.5752 40.5074 40.5572 40.6299 40.5864C40.7525 40.6157 40.8595 40.6902 40.9295 40.7949C40.9995 40.8997 41.0273 41.027 41.0075 41.1514C40.9877 41.2759 40.9216 41.3882 40.8225 41.466L38.3645 43.359L42.3595 41.053C42.4688 40.9907 42.5974 40.9719 42.7199 41.0002C42.8424 41.0286 42.9498 41.102 43.0205 41.206C43.0913 41.3099 43.1203 41.4367 43.1018 41.561C43.0832 41.6854 43.0185 41.7982 42.9205 41.877L37.7995 45.934L44.4935 42.069C44.6057 42.0025 44.7395 41.9825 44.8663 42.0133C44.993 42.044 45.1027 42.1231 45.172 42.2336C45.2413 42.3441 45.2647 42.4773 45.2371 42.6048C45.2096 42.7323 45.1333 42.844 45.0245 42.916L44.0075 43.606L45.5635 42.706C45.6741 42.6441 45.804 42.6264 45.927 42.6566C46.0501 42.6868 46.1571 42.7625 46.2264 42.8686C46.2958 42.9746 46.3223 43.103 46.3006 43.2278C46.2789 43.3527 46.2106 43.4646 46.1095 43.541L40.6895 47.541L47.4215 43.654C47.5332 43.5909 47.6649 43.5732 47.7893 43.6045C47.9137 43.6358 48.0213 43.7137 48.0899 43.8221C48.1585 43.9305 48.1828 44.0611 48.1578 44.1869C48.1328 44.3127 48.0604 44.4241 47.9555 44.498L44.3805 46.972L49.1575 44.214C49.2691 44.1517 49.4002 44.1344 49.5241 44.1658C49.648 44.1971 49.7551 44.2747 49.8236 44.3826C49.892 44.4905 49.9166 44.6205 49.8922 44.7459C49.8679 44.8713 49.7964 44.9826 49.6925 45.057L45.1995 48.178L51.4825 44.551C51.5941 44.4887 51.7252 44.4714 51.8491 44.5028C51.973 44.5341 52.0801 44.6117 52.1486 44.7196C52.217 44.8275 52.2416 44.9575 52.2172 45.0829C52.1929 45.2083 52.1214 45.3196 52.0175 45.394L46.7865 49.033L52.7105 45.613C52.8228 45.5479 52.956 45.5291 53.082 45.5604C53.2079 45.5918 53.3168 45.6709 53.3855 45.781C53.4542 45.8911 53.4774 46.0236 53.4501 46.1505C53.4229 46.2774 53.3474 46.3888 53.2395 46.461L50.5815 48.253L52.4475 47.176C52.5588 47.1107 52.691 47.091 52.8165 47.1209C52.942 47.1508 53.0511 47.228 53.121 47.3365C53.1908 47.445 53.216 47.5763 53.1914 47.7029C53.1667 47.8295 53.094 47.9417 52.9885 48.016L49.7725 50.316L51.6825 49.216C51.7912 49.155 51.9189 49.1367 52.0403 49.1649C52.1618 49.1931 52.2683 49.2656 52.3391 49.3683C52.4098 49.471 52.4397 49.5964 52.4227 49.7199C52.4058 49.8434 52.3433 49.9562 52.2475 50.036L49.8395 52C49.9367 52.0234 50.0246 52.0754 50.0919 52.1493C50.1593 52.2232 50.2029 52.3156 50.2172 52.4145C50.2315 52.5134 50.2159 52.6143 50.1723 52.7043C50.1286 52.7942 50.0591 52.869 49.9725 52.919L45.6085 55.439C45.4996 55.5014 45.3713 55.5206 45.2489 55.4928C45.1265 55.465 45.0191 55.3921 44.9479 55.2887C44.8768 55.1853 44.8471 55.059 44.8648 54.9347C44.8825 54.8105 44.9463 54.6974 45.0435 54.618L46.7905 53.194L41.3395 56.338C41.2637 56.3823 41.1774 56.4054 41.0895 56.405Z" fill="#9DBF69"/>
<path d="M20.6992 56.4539C20.5958 56.4539 20.495 56.4218 20.4105 56.3621C20.3261 56.3024 20.2623 56.2179 20.2279 56.1204C20.1934 56.0229 20.1901 55.9172 20.2183 55.8177C20.2464 55.7182 20.3048 55.6299 20.3852 55.5649L22.4642 53.8859L18.3642 56.2539C18.2546 56.3161 18.1256 56.3347 18.0029 56.3058C17.8803 56.277 17.773 56.2029 17.7026 56.0984C17.6323 55.9939 17.6039 55.8667 17.6233 55.7422C17.6427 55.6177 17.7084 55.5051 17.8072 55.4269L21.9362 52.2129L15.8362 55.7359C15.7251 55.8004 15.5934 55.8195 15.4686 55.7895C15.3437 55.7595 15.2351 55.6826 15.1654 55.5747C15.0957 55.4668 15.0702 55.3362 15.0942 55.21C15.1182 55.0839 15.1898 54.9717 15.2942 54.8969L19.2242 52.0779L13.9992 55.0879C13.8881 55.1524 13.7564 55.1715 13.6316 55.1415C13.5067 55.1115 13.3981 55.0346 13.3284 54.9267C13.2587 54.8188 13.2332 54.6882 13.2572 54.562C13.2812 54.4359 13.3528 54.3237 13.4572 54.2489L18.6572 50.5169L12.2712 54.1999C12.1598 54.2641 12.028 54.283 11.9031 54.2526C11.7782 54.2222 11.6698 54.1448 11.6005 54.0366C11.5311 53.9283 11.5061 53.7976 11.5306 53.6714C11.5552 53.5452 11.6273 53.4333 11.7322 53.3589L17.0322 49.6149L10.8432 53.1879C10.7324 53.2496 10.6024 53.2668 10.4794 53.2362C10.3564 53.2056 10.2496 53.1295 10.1806 53.0231C10.1117 52.9168 10.0856 52.7882 10.1078 52.6634C10.13 52.5387 10.1988 52.4269 10.3002 52.3509L16.6912 47.7209L9.51121 51.8659C9.39985 51.9301 9.26803 51.949 9.14313 51.9186C9.01823 51.8882 8.90985 51.8108 8.84048 51.7026C8.77112 51.5943 8.7461 51.4636 8.77063 51.3374C8.79516 51.2112 8.86735 51.0993 8.97221 51.0249L14.0662 47.4199L8.59621 50.5779C8.48533 50.6426 8.35383 50.6622 8.22893 50.6326C8.10403 50.6029 7.9953 50.5264 7.92526 50.4189C7.85521 50.3113 7.82923 50.1809 7.85267 50.0547C7.87612 49.9285 7.9472 49.8162 8.05121 49.7409L12.9422 46.1759L7.88021 49.0999C7.77815 49.159 7.65852 49.18 7.54244 49.1594C7.42636 49.1388 7.32129 49.0778 7.24581 48.9872C7.17032 48.8967 7.12926 48.7824 7.12988 48.6645C7.1305 48.5466 7.17277 48.4327 7.24921 48.3429L8.92421 46.3719L7.38421 47.2609C7.2874 47.3174 7.17442 47.3397 7.06341 47.3243C6.9524 47.3089 6.84979 47.2566 6.77205 47.1759C6.69431 47.0951 6.64596 46.9906 6.63474 46.8791C6.62353 46.7676 6.6501 46.6555 6.71021 46.5609L6.96021 46.1609C6.86399 46.1363 6.77727 46.0837 6.71111 46.0096C6.64495 45.9355 6.60234 45.8435 6.58871 45.7451C6.57509 45.6467 6.59107 45.5465 6.63461 45.4573C6.67815 45.368 6.74729 45.2937 6.83321 45.2439L8.03321 44.5509C8.13001 44.4944 8.24299 44.4721 8.354 44.4875C8.46501 44.503 8.56762 44.5553 8.64536 44.636C8.7231 44.7167 8.77146 44.8212 8.78267 44.9328C8.79389 45.0443 8.76731 45.1563 8.70721 45.2509L8.61721 45.3959L10.9242 44.0649C11.0262 44.0065 11.1454 43.9858 11.2611 44.0065C11.3768 44.0273 11.4814 44.0881 11.5567 44.1783C11.632 44.2685 11.6732 44.3824 11.6729 44.4999C11.6726 44.6174 11.6309 44.7311 11.5552 44.8209L9.88121 46.7869L20.5672 40.6179C20.6781 40.5532 20.8096 40.5337 20.9345 40.5633C21.0594 40.5929 21.1681 40.6694 21.2382 40.777C21.3082 40.8845 21.3342 41.0149 21.3107 41.1411C21.2873 41.2673 21.2162 41.3797 21.1122 41.4549L16.2212 45.0209L22.9412 41.1419C23.0523 41.08 23.1829 41.0628 23.3063 41.0938C23.4297 41.1248 23.5366 41.2016 23.6053 41.3087C23.674 41.4158 23.6993 41.545 23.6761 41.6701C23.6528 41.7952 23.5828 41.9067 23.4802 41.9819L18.3902 45.5819L24.5652 42.0169C24.676 41.9553 24.806 41.938 24.929 41.9686C25.052 41.9992 25.1588 42.0754 25.2278 42.1817C25.2968 42.2881 25.3228 42.4166 25.3006 42.5414C25.2784 42.6662 25.2096 42.7779 25.1082 42.8539L18.7182 47.4839L25.9652 43.2999C26.0766 43.2357 26.2084 43.2169 26.3333 43.2473C26.4582 43.2777 26.5666 43.355 26.6359 43.4633C26.7053 43.5715 26.7303 43.7023 26.7058 43.8285C26.6813 43.9547 26.6091 44.0666 26.5042 44.1409L21.2042 47.8879L26.8572 44.6239C26.9683 44.5595 27.1 44.5403 27.2249 44.5703C27.3497 44.6003 27.4583 44.6773 27.528 44.7852C27.5977 44.8931 27.6232 45.0236 27.5992 45.1498C27.5752 45.276 27.5036 45.3881 27.3992 45.4629L22.1992 49.1999L27.4622 46.1619C27.5733 46.0975 27.705 46.0783 27.8299 46.1083C27.9547 46.1383 28.0633 46.2153 28.133 46.3232C28.2027 46.4311 28.2282 46.5616 28.2042 46.6878C28.1802 46.814 28.1086 46.9261 28.0042 47.0009L24.0792 49.8179L27.6992 47.7269C27.8088 47.6634 27.9384 47.6439 28.0619 47.6723C28.1853 47.7007 28.2934 47.7749 28.3642 47.88C28.4351 47.985 28.4635 48.1129 28.4436 48.238C28.4237 48.3631 28.3571 48.476 28.2572 48.5539L24.1282 51.7679L27.4992 49.8229C27.6082 49.7602 27.7369 49.7408 27.8595 49.7687C27.9822 49.7966 28.0898 49.8696 28.161 49.9734C28.2321 50.0771 28.2616 50.2038 28.2435 50.3283C28.2254 50.4527 28.161 50.5658 28.0632 50.6449L25.9822 52.3259L26.5822 51.9789C26.697 51.9137 26.8329 51.8965 26.9603 51.9311C27.0878 51.9656 27.1963 52.0492 27.2623 52.1636C27.3284 52.2779 27.3465 52.4137 27.3127 52.5414C27.279 52.669 27.1961 52.7782 27.0822 52.8449L20.9492 56.3869C20.8734 56.4312 20.787 56.4544 20.6992 56.4539Z" fill="#9DBF69"/>
<path d="M39.7754 23.7681C39.6653 23.7681 39.5583 23.7318 39.471 23.6648C39.3837 23.5977 39.3209 23.5038 39.2924 23.3975C39.2639 23.2912 39.2713 23.1784 39.3134 23.0768C39.3556 22.9751 39.4301 22.8901 39.5254 22.8351L44.4464 19.9931C44.5033 19.9569 44.5669 19.9326 44.6335 19.9217C44.7 19.9107 44.7681 19.9134 44.8336 19.9294C44.8991 19.9454 44.9606 19.9746 45.0146 20.015C45.0685 20.0555 45.1137 20.1064 45.1475 20.1648C45.1812 20.2232 45.2028 20.2878 45.211 20.3547C45.2191 20.4217 45.2136 20.4896 45.1948 20.5543C45.176 20.6191 45.1443 20.6794 45.1016 20.7316C45.0589 20.7838 45.0061 20.8268 44.9464 20.8581L40.0254 23.7001C39.9495 23.7443 39.8632 23.7678 39.7754 23.7681Z" fill="#FFD34E"/>
<path d="M32.7851 8.84017C32.6751 8.84017 32.5681 8.80384 32.4808 8.73684C32.3934 8.66984 32.3307 8.57589 32.3022 8.46958C32.2737 8.36327 32.2811 8.25053 32.3232 8.14884C32.3653 8.04715 32.4398 7.96221 32.5351 7.90717L34.8891 6.54817C35.0034 6.48839 35.1364 6.47508 35.2602 6.51101C35.3841 6.54694 35.4892 6.62934 35.5538 6.74099C35.6183 6.85264 35.6372 6.98491 35.6065 7.11017C35.5759 7.23543 35.498 7.34399 35.3891 7.41317L33.0351 8.77217C32.9592 8.81641 32.873 8.83986 32.7851 8.84017Z" fill="#FFD34E"/>
<path d="M29.7002 39.4352C29.5953 39.4352 29.493 39.4022 29.4078 39.3408C29.3227 39.2795 29.259 39.1929 29.2259 39.0933C29.1927 38.9938 29.1916 38.8863 29.2229 38.7861C29.2542 38.686 29.3162 38.5982 29.4002 38.5352L30.7422 37.5062L28.6792 38.7002C28.568 38.7636 28.4367 38.782 28.3123 38.7515C28.188 38.721 28.0801 38.644 28.0109 38.5363C27.9416 38.4286 27.9163 38.2984 27.9402 38.1727C27.9641 38.0469 28.0353 37.935 28.1392 37.8602L29.8002 36.6782L27.6212 37.9362C27.5109 38.0027 27.3792 38.024 27.2536 37.9958C27.1279 37.9676 27.018 37.8919 26.9468 37.7847C26.8755 37.6775 26.8483 37.5469 26.8709 37.4201C26.8936 37.2933 26.9642 37.1802 27.0682 37.1042L32.2752 33.1462L26.1002 36.7082C25.9889 36.7735 25.8567 36.7933 25.7312 36.7634C25.6057 36.7335 25.4966 36.6562 25.4268 36.5477C25.3569 36.4392 25.3317 36.308 25.3564 36.1813C25.381 36.0547 25.4537 35.9425 25.5592 35.8682L29.5202 33.0422L24.9712 35.6682C24.8596 35.7323 24.7276 35.7508 24.6026 35.72C24.4777 35.6892 24.3694 35.6114 24.3004 35.5028C24.2313 35.3942 24.2068 35.2632 24.2319 35.137C24.257 35.0108 24.3298 34.8991 24.4352 34.8252L27.6722 32.5732L24.0072 34.6892C23.8948 34.7531 23.762 34.771 23.6367 34.7392C23.5114 34.7073 23.4034 34.6281 23.3352 34.5183C23.267 34.4084 23.244 34.2765 23.271 34.15C23.2981 34.0236 23.373 33.9126 23.4802 33.8402L25.1882 32.7062L23.2452 33.8282C23.132 33.8929 22.998 33.9108 22.8717 33.8781C22.7455 33.8454 22.637 33.7647 22.5695 33.6532C22.5019 33.5417 22.4806 33.4081 22.51 33.2811C22.5395 33.1541 22.6174 33.0436 22.7272 32.9732L24.1872 32.0492L22.5622 32.9862C22.4501 33.0474 22.3188 33.0634 22.1953 33.0309C22.0717 32.9983 21.9653 32.9198 21.8979 32.8113C21.8305 32.7028 21.8072 32.5726 21.8327 32.4474C21.8582 32.3223 21.9307 32.2116 22.0352 32.1382L32.8352 24.9282L21.5732 31.4282C21.4606 31.4902 21.3286 31.5065 21.2043 31.4737C21.0801 31.4409 20.9733 31.3615 20.906 31.252C20.8387 31.1426 20.8162 31.0114 20.843 30.8858C20.8699 30.7601 20.9441 30.6496 21.0502 30.5772L31.0802 24.0122L21.3392 29.6362C21.2258 29.705 21.0897 29.726 20.9609 29.6945C20.8321 29.663 20.721 29.5816 20.6522 29.4682C20.5834 29.3548 20.5624 29.2188 20.5939 29.0899C20.6254 28.9611 20.7068 28.85 20.8202 28.7812L26.4092 25.2292L22.1002 27.7182C21.9871 27.7874 21.8511 27.8089 21.7222 27.7778C21.5932 27.7468 21.4819 27.6658 21.4127 27.5527C21.3435 27.4396 21.322 27.3036 21.3531 27.1747C21.3841 27.0458 21.4651 26.9344 21.5782 26.8652L29.5622 21.7072L22.1672 25.9772C22.0542 26.0467 21.9183 26.0685 21.7892 26.0377C21.6602 26.0069 21.5487 25.9262 21.4792 25.8132C21.4097 25.7002 21.3879 25.5643 21.4187 25.4352C21.4495 25.3062 21.5302 25.1947 21.6432 25.1252L30.0872 19.6252L21.3872 24.6492C21.2743 24.7135 21.1408 24.7313 21.0149 24.6988C20.8891 24.6664 20.7809 24.5862 20.7131 24.4753C20.6454 24.3644 20.6235 24.2315 20.6521 24.1047C20.6806 23.978 20.7574 23.8673 20.8662 23.7962L26.5482 20.1452L20.2812 23.7622C20.168 23.8285 20.0334 23.8477 19.9062 23.8157C19.779 23.7836 19.6695 23.7029 19.6013 23.5909C19.5331 23.4788 19.5117 23.3445 19.5416 23.2168C19.5715 23.0891 19.6503 22.9783 19.7612 22.9082L24.8972 19.6082L17.9642 23.6082C17.8523 23.6695 17.7212 23.6858 17.5978 23.6536C17.4743 23.6215 17.3679 23.5433 17.3001 23.4352C17.2324 23.3271 17.2086 23.1972 17.2335 23.0721C17.2584 22.947 17.3302 22.8361 17.4342 22.7622L28.6562 15.1572L16.2832 22.3002C16.1712 22.3652 16.0383 22.3842 15.9125 22.3532C15.7867 22.3222 15.6779 22.2436 15.6089 22.1339C15.54 22.0243 15.5163 21.8921 15.5428 21.7653C15.5693 21.6386 15.6441 21.527 15.7512 21.4542L26.3882 14.1902L15.4212 20.5232C15.311 20.5864 15.1809 20.6052 15.0573 20.5759C14.9337 20.5466 14.8259 20.4713 14.7558 20.3654C14.6856 20.2595 14.6584 20.1309 14.6797 20.0057C14.7009 19.8805 14.769 19.768 14.8702 19.6912L21.3952 14.7912L14.7582 18.6222C14.6478 18.685 14.5176 18.7034 14.394 18.6737C14.2705 18.6439 14.163 18.5683 14.0932 18.4621C14.0234 18.3559 13.9967 18.2272 14.0184 18.102C14.0402 17.9769 14.1087 17.8647 14.2102 17.7882L20.1762 13.3532L14.2662 16.7652C14.1537 16.8355 14.018 16.8582 13.8888 16.8284C13.7595 16.7986 13.6475 16.7187 13.5772 16.6062C13.5069 16.4938 13.4842 16.358 13.514 16.2288C13.5438 16.0996 13.6237 15.9875 13.7362 15.9172L14.4362 15.4482L14.0442 15.6742C13.9331 15.737 13.8023 15.7549 13.6784 15.7244C13.5546 15.6938 13.4471 15.6171 13.378 15.5099C13.3088 15.4027 13.2833 15.2731 13.3066 15.1477C13.3299 15.0222 13.4002 14.9105 13.5032 14.8352L16.6452 12.5832L13.8122 14.2192C13.7035 14.2821 13.5752 14.3019 13.4526 14.2745C13.3301 14.2471 13.2223 14.1747 13.1507 14.0715C13.0792 13.9683 13.0491 13.842 13.0664 13.7176C13.0837 13.5932 13.1472 13.4799 13.2442 13.4002L16.4122 10.7932L13.6332 12.3932C13.5277 12.4549 13.4032 12.4758 13.2833 12.4519C13.1634 12.4281 13.0564 12.3611 12.9825 12.2637C12.9086 12.1663 12.873 12.0452 12.8823 11.9233C12.8917 11.8015 12.9453 11.6872 13.0332 11.6022L13.5992 11.0522C13.5044 11.063 13.4086 11.0451 13.3242 11.0009C13.2397 10.9567 13.1704 10.8882 13.1252 10.8042C13.0589 10.6894 13.0409 10.5529 13.0752 10.4248C13.1096 10.2967 13.1934 10.1875 13.3082 10.1212L16.4412 8.31221C16.5467 8.25051 16.6712 8.22962 16.7911 8.25348C16.911 8.27734 17.018 8.3443 17.0919 8.44169C17.1658 8.53909 17.2014 8.66018 17.1921 8.78207C17.1827 8.90396 17.129 9.0182 17.0412 9.10321L16.6152 9.51721L21.1432 6.90021C21.2518 6.83838 21.3797 6.81949 21.5015 6.84725C21.6234 6.875 21.7305 6.94739 21.8016 7.05016C21.8727 7.15292 21.9028 7.2786 21.8859 7.40244C21.869 7.52628 21.8063 7.63929 21.7102 7.71921L18.5412 10.3272L24.9592 6.62721C25.0702 6.56444 25.2011 6.5465 25.3249 6.57705C25.4488 6.6076 25.5563 6.68433 25.6254 6.79154C25.6945 6.89875 25.7201 7.02832 25.6968 7.15374C25.6735 7.27916 25.6032 7.39095 25.5002 7.46621L22.3632 9.71121L26.4232 7.36721C26.5355 7.30212 26.6687 7.28326 26.7947 7.3146C26.9206 7.34594 27.0294 7.42504 27.0981 7.53516C27.1668 7.64529 27.19 7.77781 27.1628 7.90472C27.1355 8.03163 27.06 8.14297 26.9522 8.21521L26.2522 8.68821L27.1572 8.16621C27.2674 8.10899 27.3949 8.0948 27.5149 8.12639C27.6349 8.15798 27.7389 8.23309 27.8067 8.33712C27.8744 8.44114 27.901 8.56664 27.8813 8.6892C27.8616 8.81176 27.7971 8.92262 27.7002 9.00021L21.7362 13.4342L28.0412 9.79421C28.1514 9.73106 28.2815 9.71223 28.4051 9.74153C28.5287 9.77083 28.6365 9.84607 28.7066 9.95197C28.7768 10.0579 28.804 10.1865 28.7827 10.3117C28.7615 10.4369 28.6933 10.5494 28.5922 10.6262L22.0672 15.5262L37.3372 6.71121C37.4492 6.64619 37.5821 6.62718 37.7079 6.6582C37.8337 6.68922 37.9425 6.76783 38.0114 6.87749C38.0804 6.98714 38.1041 7.11928 38.0776 7.24607C38.051 7.37286 37.9763 7.4844 37.8692 7.55721L27.2332 14.8252L40.1942 7.34321C40.3061 7.28025 40.438 7.26279 40.5625 7.29444C40.687 7.32609 40.7945 7.40443 40.8628 7.51321C40.9311 7.62199 40.9549 7.75288 40.9292 7.87874C40.9036 8.00459 40.8306 8.11576 40.7252 8.18921L29.5002 15.7942L42.7002 8.17321C42.8131 8.10893 42.9466 8.09113 43.0725 8.12359C43.1983 8.15606 43.3065 8.23622 43.3742 8.34712C43.442 8.45801 43.4639 8.59091 43.4353 8.71767C43.4067 8.84443 43.3299 8.95509 43.2212 9.02621L38.0842 12.3262L44.2002 8.80021C44.3131 8.73593 44.4466 8.71813 44.5725 8.75059C44.6983 8.78306 44.8065 8.86322 44.8742 8.97412C44.942 9.08501 44.9639 9.21791 44.9353 9.34467C44.9067 9.47143 44.8299 9.58209 44.7212 9.65321L39.0322 13.3102L45.6162 9.51021C45.7288 9.44617 45.862 9.42836 45.9875 9.46054C46.113 9.49272 46.2211 9.57237 46.2891 9.68271C46.357 9.79305 46.3795 9.92546 46.3517 10.052C46.3239 10.1786 46.2481 10.2894 46.1402 10.3612L37.7012 15.8612L46.3922 10.8452C46.5048 10.7841 46.6366 10.7685 46.7604 10.8018C46.8841 10.835 46.9904 10.9145 47.0573 11.0238C47.1241 11.1331 47.1465 11.264 47.1196 11.3893C47.0928 11.5146 47.0189 11.6248 46.9132 11.6972L38.9302 16.8482L46.2822 12.6002C46.3952 12.537 46.5283 12.5202 46.6535 12.5531C46.7787 12.5861 46.8862 12.6663 46.9534 12.777C47.0207 12.8876 47.0424 13.02 47.014 13.1463C46.9856 13.2726 46.9093 13.383 46.8012 13.4542L41.2012 17.0132L46.0672 14.2042C46.1798 14.1402 46.313 14.1224 46.4385 14.1545C46.564 14.1867 46.6721 14.2664 46.7401 14.3767C46.808 14.4871 46.8305 14.6195 46.8027 14.746C46.7749 14.8726 46.6991 14.9834 46.5912 15.0552L36.5692 21.6172L45.6152 16.4002C45.7274 16.3373 45.8595 16.3201 45.9841 16.3521C46.1087 16.3841 46.2161 16.4629 46.2841 16.5721C46.3521 16.6813 46.3754 16.8125 46.3492 16.9384C46.3229 17.0643 46.2492 17.1753 46.1432 17.2482L35.3432 24.4572L44.8342 18.9782C44.9473 18.916 45.08 18.9 45.2047 18.9334C45.3293 18.9668 45.4362 19.0472 45.503 19.1576C45.5698 19.268 45.5913 19.4 45.563 19.5259C45.5347 19.6519 45.4588 19.762 45.3512 19.8332L39.0582 23.8182C39.1368 23.8599 39.2031 23.9217 39.2502 23.9972C39.3189 24.1078 39.3418 24.2408 39.3139 24.368C39.2861 24.4951 39.2098 24.6064 39.1012 24.6782L37.4002 25.8062L37.4722 25.7652C37.5835 25.7049 37.7136 25.689 37.8361 25.7209C37.9586 25.7527 38.0645 25.8298 38.1324 25.9367C38.2003 26.0435 38.2252 26.1722 38.2019 26.2966C38.1787 26.4211 38.1091 26.5321 38.0072 26.6072L34.7662 28.8612L38.0212 26.9832C38.1324 26.9198 38.2637 26.9014 38.388 26.9319C38.5124 26.9624 38.6203 27.0394 38.6895 27.1471C38.7588 27.2548 38.784 27.385 38.7602 27.5108C38.7363 27.6365 38.6651 27.7484 38.5612 27.8232L34.6002 30.6462L38.6112 28.3302C38.7213 28.2661 38.8517 28.2465 38.9758 28.2754C39.0999 28.3042 39.2083 28.3793 39.2789 28.4854C39.3494 28.5915 39.3769 28.7204 39.3556 28.846C39.3343 28.9716 39.2658 29.0844 39.1642 29.1612L33.9592 33.1202L38.4462 30.5302C38.5574 30.4668 38.6887 30.4484 38.813 30.4789C38.9374 30.5094 39.0453 30.5864 39.1145 30.6941C39.1838 30.8018 39.209 30.932 39.1852 31.0578C39.1613 31.1835 39.0901 31.2954 38.9862 31.3702L37.0502 32.7482C37.16 32.7306 37.2726 32.7501 37.37 32.8037C37.4675 32.8572 37.5444 32.9417 37.5884 33.0438C37.6325 33.1459 37.6412 33.2598 37.6133 33.3675C37.5854 33.4751 37.5223 33.5704 37.4342 33.6382L34.1342 36.1662C34.1823 36.2049 34.2227 36.2524 34.2532 36.3062C34.3192 36.421 34.337 36.5572 34.3027 36.685C34.2684 36.8129 34.1848 36.9219 34.0702 36.9882L29.9492 39.3672C29.8737 39.4116 29.7878 39.4351 29.7002 39.4352Z" fill="#FFD34E"/>
<path d="M31.3933 30.3662C31.2902 30.3661 31.1897 30.3341 31.1055 30.2746C31.0213 30.2152 30.9575 30.1311 30.9229 30.034C30.8883 29.9369 30.8846 29.8315 30.9122 29.7321C30.9399 29.6328 30.9975 29.5445 31.0773 29.4792L34.2123 26.9272L28.4753 30.2392C28.3647 30.3026 28.2341 30.3213 28.1102 30.2916C27.9863 30.2619 27.8784 30.1859 27.8085 30.0793C27.7387 29.9727 27.7122 29.8435 27.7345 29.718C27.7567 29.5925 27.8261 29.4803 27.9283 29.4042L32.4503 26.0642L26.3283 29.6002C26.2177 29.6636 26.0871 29.6823 25.9632 29.6526C25.8393 29.6229 25.7314 29.5469 25.6615 29.4403C25.5917 29.3337 25.5652 29.2045 25.5875 29.079C25.6097 28.9535 25.6791 28.8413 25.7813 28.7652L32.4483 23.8442L24.3893 28.5002C24.2767 28.5655 24.1432 28.5843 24.0169 28.5527C23.8907 28.521 23.7818 28.4414 23.7133 28.3308C23.6449 28.2201 23.6222 28.0871 23.6502 27.9601C23.6782 27.833 23.7547 27.7218 23.8633 27.6502L25.5993 26.5002L23.4683 27.7292C23.3575 27.79 23.2277 27.8066 23.1051 27.7756C22.9825 27.7446 22.8763 27.6683 22.8077 27.5621C22.7391 27.4559 22.7133 27.3276 22.7355 27.2031C22.7577 27.0786 22.8262 26.9672 22.9273 26.8912L30.5093 21.4602L22.1733 26.2722C22.0618 26.3345 21.9306 26.3518 21.8068 26.3204C21.6829 26.2891 21.5757 26.2115 21.5073 26.1036C21.4388 25.9958 21.4142 25.8658 21.4386 25.7404C21.463 25.6149 21.5344 25.5036 21.6383 25.4292L28.0473 20.9872L21.3253 24.8682C21.2128 24.9302 21.0807 24.9465 20.9565 24.9137C20.8322 24.8809 20.7254 24.8015 20.6581 24.692C20.5909 24.5826 20.5683 24.4514 20.5951 24.3258C20.622 24.2001 20.6962 24.0896 20.8023 24.0172L22.0903 23.1772L20.8903 23.8652C20.7793 23.928 20.6484 23.9459 20.5246 23.9154C20.4007 23.8848 20.2932 23.8081 20.2241 23.7009C20.155 23.5937 20.1294 23.4641 20.1527 23.3387C20.176 23.2132 20.2463 23.1015 20.3493 23.0262L27.6123 17.8332L20.4053 22.0002C20.2947 22.0636 20.1641 22.0823 20.0402 22.0526C19.9163 22.0229 19.8084 21.9469 19.7385 21.8403C19.6687 21.7337 19.6422 21.6045 19.6645 21.479C19.6867 21.3535 19.7561 21.2413 19.8583 21.1652L26.9863 15.8932L20.3093 19.7442C20.197 19.8093 20.0638 19.8282 19.9379 19.7968C19.8119 19.7655 19.7031 19.6864 19.6344 19.5763C19.5657 19.4661 19.5425 19.3336 19.5697 19.2067C19.597 19.0798 19.6725 18.9684 19.7803 18.8962L20.4043 18.4792C20.2906 18.5193 20.1663 18.5169 20.0542 18.4726C19.9421 18.4282 19.8498 18.3449 19.7943 18.2379C19.7388 18.1309 19.7238 18.0074 19.7521 17.8903C19.7804 17.7731 19.8501 17.6701 19.9483 17.6002L22.4283 15.8362L21.0283 16.6432C20.9219 16.7025 20.7974 16.7209 20.6784 16.695C20.5593 16.669 20.4539 16.6005 20.3818 16.5023C20.3097 16.404 20.276 16.2828 20.2869 16.1615C20.2979 16.0401 20.3528 15.9269 20.4413 15.8432L23.3743 13.1662C23.257 13.2004 23.1311 13.1905 23.0206 13.1382C22.9101 13.086 22.8226 12.995 22.7746 12.8826C22.7265 12.7702 22.7214 12.6441 22.76 12.5281C22.7987 12.4121 22.8785 12.3143 22.9843 12.2532L26.8113 10.0442C26.9178 9.98488 27.0422 9.96647 27.1612 9.99242C27.2803 10.0184 27.3858 10.0869 27.4579 10.1852C27.5299 10.2834 27.5637 10.4046 27.5527 10.5259C27.5417 10.6473 27.4868 10.7605 27.3983 10.8442L24.5183 13.4742L31.0733 9.69021C31.1845 9.62677 31.3158 9.60841 31.4402 9.63891C31.5645 9.66941 31.6724 9.74644 31.7417 9.85413C31.8109 9.96183 31.8362 10.092 31.8123 10.2178C31.7884 10.3435 31.7172 10.4554 31.6133 10.5302L29.1373 12.2922L32.9173 10.1092C33.0298 10.0424 33.164 10.0223 33.2911 10.0533C33.4183 10.0843 33.5282 10.1639 33.5973 10.275C33.6664 10.3861 33.6892 10.5199 33.6607 10.6476C33.6323 10.7754 33.555 10.8869 33.4453 10.9582L32.9213 11.3092L34.1273 10.6092C34.2379 10.5459 34.3685 10.5271 34.4924 10.5568C34.6164 10.5866 34.7243 10.6625 34.7941 10.7691C34.8639 10.8757 34.8904 11.0049 34.8682 11.1304C34.8459 11.2559 34.7766 11.3681 34.6743 11.4442L27.5463 16.7202L36.0233 11.8252C36.1344 11.7624 36.2652 11.7445 36.3891 11.7751C36.5129 11.8056 36.6204 11.8823 36.6895 11.9895C36.7587 12.0967 36.7842 12.2263 36.7609 12.3517C36.7377 12.4772 36.6673 12.5889 36.5643 12.6642L29.3003 17.8642L37.4003 13.1872C37.513 13.1232 37.6461 13.1054 37.7716 13.1375C37.8971 13.1697 38.0053 13.2494 38.0732 13.3597C38.1411 13.4701 38.1636 13.6025 38.1358 13.729C38.108 13.8556 38.0322 13.9664 37.9243 14.0382L36.6493 14.8702L38.0493 14.0622C38.1609 13.9999 38.292 13.9826 38.4159 14.014C38.5398 14.0453 38.6469 14.1229 38.7154 14.2308C38.7838 14.3386 38.8084 14.4686 38.784 14.5941C38.7597 14.7195 38.6882 14.8308 38.5843 14.9052L32.1743 19.3472L38.8433 15.4972C38.9544 15.4344 39.0852 15.4165 39.2091 15.4471C39.3329 15.4776 39.4404 15.5543 39.5095 15.6615C39.5787 15.7687 39.6042 15.8983 39.5809 16.0237C39.5577 16.1492 39.4873 16.2609 39.3843 16.3362L31.8033 21.7662L39.4613 17.3452C39.5735 17.2848 39.7046 17.2695 39.8277 17.3024C39.9508 17.3354 40.0566 17.4141 40.1237 17.5225C40.1907 17.6308 40.2138 17.7607 40.1883 17.8856C40.1627 18.0104 40.0905 18.1208 39.9863 18.1942L38.2513 19.3412L39.6513 18.5302C39.7619 18.4669 39.8925 18.4481 40.0164 18.4778C40.1404 18.5076 40.2483 18.5835 40.3181 18.6901C40.3879 18.7967 40.4144 18.9259 40.3922 19.0514C40.3699 19.1769 40.3006 19.2891 40.1983 19.3652L33.5263 24.2892L39.6333 20.7652C39.7438 20.7033 39.8738 20.6856 39.9968 20.7158C40.1199 20.7459 40.2269 20.8217 40.2962 20.9277C40.3656 21.0338 40.3921 21.1622 40.3704 21.287C40.3487 21.4119 40.2804 21.5238 40.1793 21.6002L35.6713 24.9302L39.1293 22.9302C39.238 22.8692 39.3656 22.8509 39.4871 22.8791C39.6086 22.9073 39.7151 22.9798 39.7859 23.0825C39.8566 23.1852 39.8864 23.3106 39.8695 23.4341C39.8526 23.5576 39.7901 23.6704 39.6943 23.7502L36.5593 26.3062L37.5943 25.7062C37.7086 25.6464 37.8415 25.6331 37.9654 25.6691C38.0892 25.705 38.1944 25.7874 38.259 25.899C38.3235 26.0107 38.3424 26.1429 38.3117 26.2682C38.281 26.3935 38.2032 26.502 38.0943 26.5712L31.6433 30.3002C31.5673 30.344 31.481 30.3668 31.3933 30.3662Z" fill="#DB9E36"/>
<path d="M52.6392 44.6909C45.9292 43.8249 38.2922 36.6029 32.7232 44.2909V38.0999C40.3912 28.5879 51.7232 35.6189 45.6672 19.9259C51.6882 4.22593 40.8322 11.3609 33.7982 2.51193C32.7782 1.70493 31.4542 0.450929 30.0692 0.499929C26.7252 1.29393 24.2112 4.47593 21.9372 6.90493C12.4832 8.88793 10.7992 10.6479 14.3512 20.0739C8.26416 36.0199 19.5422 28.7099 27.2752 38.2939V43.9059C21.9682 36.7479 14.6002 43.5829 8.27516 44.5789C7.35916 44.6529 6.33716 45.1019 6.28516 46.1729C6.77816 55.4159 21.7142 60.3189 27.2852 52.7519C27.7272 54.8579 25.8492 59.6899 29.3422 59.2979C33.5362 60.0739 32.7972 55.9359 32.7822 53.1109C37.5402 59.2039 48.3252 55.9699 52.2182 50.3539C52.9452 49.2149 54.9642 45.1359 52.6392 44.6909ZM45.8392 29.3539C44.0612 31.1619 41.0582 31.6219 38.6552 32.2969C39.3707 31.484 39.7409 30.4241 39.6871 29.3425C39.6334 28.2608 39.1598 27.2428 38.3672 26.5049C39.0239 25.6972 39.5552 24.795 39.9432 23.8289C40.8486 23.9738 41.7765 23.8627 42.6221 23.5082C43.4678 23.1538 44.1976 22.5701 44.7292 21.8229C45.3812 24.2329 46.1642 26.8579 45.8432 29.3539H45.8392ZM38.0272 24.8099C33.5882 33.1339 20.4852 29.1459 20.7362 19.9449C21.5202 3.99993 45.1092 10.9199 38.0272 24.8099ZM45.7842 13.5729C45.0782 16.6249 44.7572 23.7519 40.2712 22.8829C40.668 21.5317 40.7871 20.1142 40.6215 18.7157C40.4559 17.3172 40.009 15.9667 39.3076 14.7455C38.6062 13.5243 37.6648 12.4578 36.5403 11.61C35.4157 10.7623 34.1312 10.151 32.7642 9.81293C34.0052 5.18793 39.9992 8.30793 43.0532 9.20693C45.3062 9.68393 46.5592 11.2719 45.7842 13.5729ZM26.9082 3.49993C30.2782 -0.649071 33.3082 3.94393 35.9762 6.49993C34.9901 6.46057 34.017 6.73582 33.1977 7.28589C32.3783 7.83597 31.7551 8.63236 31.4182 9.55993C30.4959 9.44795 29.5632 9.45299 28.6422 9.57493C28.1132 7.33493 25.8672 6.43893 23.6952 6.67493C24.6733 5.52659 25.7483 4.46435 26.9082 3.49993ZM14.0992 10.7709C16.1552 8.21093 26.1412 4.97093 27.1712 9.87093C21.5962 11.3309 17.8712 17.5999 19.7712 23.1709C14.6082 22.6699 14.4042 14.7909 14.0992 10.7709ZM21.0262 32.0209C19.2302 31.6093 17.4819 31.0125 15.8092 30.2399C12.3552 29.1309 14.8392 24.3929 15.1932 21.8559C15.7023 22.6039 16.4316 23.1749 17.2798 23.4897C18.1281 23.8045 19.0533 23.8476 19.9272 23.6129C20.3292 24.7211 20.9125 25.7548 21.6532 26.6719C20.9432 27.3517 20.4923 28.2577 20.3783 29.234C20.2642 30.2103 20.494 31.1958 21.0282 32.0209H21.0262ZM24.9812 53.8819C19.8262 57.9659 10.7652 54.3999 8.37616 48.6339C6.24616 43.6809 9.72016 45.9629 12.7092 44.2999C20.2552 37.3159 32.4472 45.1199 24.9832 53.8819H24.9812ZM30.9482 58.7019C30.0862 58.7019 28.8632 58.9519 28.7212 57.8019C28.7212 51.6193 28.7212 45.4323 28.7212 39.2409C29.1269 39.4265 29.5721 39.5088 30.0174 39.4808C30.4626 39.4527 30.894 39.315 31.2732 39.0799C31.2692 45.4473 31.2692 51.8156 31.2732 58.1849C31.2406 58.3576 31.2305 58.5337 31.2432 58.7089C31.1472 58.7139 31.0192 58.6999 30.9502 58.6999L30.9482 58.7019ZM31.2632 58.7019C31.2761 58.6914 31.2863 58.6781 31.2932 58.6629C31.2812 58.6869 31.2932 58.6959 31.3062 58.6999C31.2992 58.7059 31.2782 58.6999 31.2652 58.7049L31.2632 58.7019ZM30.5762 38.3509C27.8672 38.1729 25.6762 35.0329 23.7482 33.2339C22.2552 31.7569 20.9282 29.4239 22.4062 27.4959C26.3482 31.5839 33.4522 31.4219 37.4492 27.4959C40.3152 31.9389 33.5882 35.9649 30.5782 38.3539L30.5762 38.3509ZM50.9162 50.3789C48.1162 54.8139 41.3302 57.1789 36.5492 54.7689C26.7492 48.0689 37.6352 36.1089 46.1732 43.9309C50.2992 45.8819 54.5772 44.0829 50.9182 50.3819L50.9162 50.3789Z" fill="#592B02"/>
<path d="M29.8059 14.73C29.3459 14.77 28.8896 14.8449 28.4409 14.954C27.527 15.076 26.6812 15.5035 26.0409 16.167C26.0033 16.2179 25.9699 16.2717 25.9409 16.328C24.6289 17.059 23.1939 22.111 25.7269 19.805C25.7125 18.9159 25.9619 18.0425 26.4435 17.2949C26.9251 16.5474 27.6174 15.9594 28.4329 15.605C28.9159 15.412 29.4329 15.398 29.9329 15.241C30.1333 15.1824 30.3289 15.1085 30.5179 15.02C30.6429 14.957 30.8429 14.856 30.6549 14.755C30.378 14.6791 30.0869 14.6705 29.8059 14.73Z" fill="#592B02"/>
</svg>
