<svg width="90" height="80" viewBox="0 0 90 80" fill="none" xmlns="http://www.w3.org/2000/svg">
<g clip-path="url(#clip0_124_27933)">
<path d="M47.0334 73.9426C46.894 73.9412 46.7586 73.8962 46.6462 73.8139C46.5337 73.7316 46.4499 73.6161 46.4065 73.4836C46.3631 73.3512 46.3623 73.2085 46.4042 73.0756C46.4461 72.9427 46.5285 72.8262 46.64 72.7426L55.9734 65.9639L42.6627 73.6466C42.5134 73.7306 42.3376 73.7538 42.1716 73.7116C42.0057 73.6694 41.8623 73.565 41.7713 73.4199C41.6802 73.2749 41.6485 73.1004 41.6827 72.9326C41.7168 72.7648 41.8142 72.6165 41.9547 72.5186L55.2774 63.4799L38.7867 72.9933C38.6364 73.0773 38.4594 73.0998 38.2929 73.0563C38.1263 73.0127 37.983 72.9064 37.8931 72.7596C37.8031 72.6128 37.7735 72.4368 37.8103 72.2687C37.8471 72.1005 37.9476 71.9531 38.0907 71.8573L52.6147 62.4399L35.748 72.1733C35.5967 72.2649 35.4152 72.2926 35.2434 72.2503C35.0716 72.2081 34.9236 72.0993 34.832 71.9479C34.7405 71.7966 34.7127 71.6151 34.755 71.4433C34.7973 71.2715 34.906 71.1235 35.0574 71.0319L50.368 61.3333L33.1974 71.2506C33.0461 71.3326 32.869 71.353 32.7031 71.3074C32.5372 71.2619 32.3953 71.1539 32.3071 71.0062C32.2189 70.8584 32.1913 70.6823 32.23 70.5146C32.2687 70.347 32.3707 70.2008 32.5147 70.1066L40.4827 65.1999L31.3734 70.4586C31.2221 70.5406 31.045 70.561 30.8791 70.5154C30.7132 70.4699 30.5713 70.3619 30.4831 70.2142C30.3949 70.0664 30.3673 69.8903 30.406 69.7226C30.4447 69.555 30.5467 69.4088 30.6907 69.3146L44.3054 60.8959L29.4387 69.4786C29.2879 69.5615 29.1109 69.5829 28.9447 69.5384C28.7785 69.4938 28.636 69.3867 28.547 69.2394C28.458 69.0922 28.4293 68.9162 28.467 68.7483C28.5047 68.5804 28.6059 68.4336 28.7494 68.3386L52.516 53.3719L27.0774 68.0586C26.9255 68.1452 26.7457 68.1686 26.5767 68.1239C26.4077 68.0791 26.2631 67.9698 26.1739 67.8194C26.0847 67.6691 26.0582 67.4897 26.1 67.32C26.1418 67.1502 26.2486 67.0037 26.3974 66.9119L28.092 65.8853L25.8174 67.1973C25.6661 67.2793 25.489 67.2997 25.3231 67.2541C25.1572 67.2085 25.0153 67.1006 24.9271 66.9528C24.8389 66.8051 24.8113 66.629 24.85 66.4613C24.8887 66.2937 24.9907 66.1475 25.1347 66.0533L39.7747 57.0666L24.2547 66.0266C24.1028 66.1113 23.9237 66.1332 23.7558 66.0876C23.5879 66.0421 23.4445 65.9328 23.3561 65.783C23.2677 65.6332 23.2414 65.4547 23.2827 65.2858C23.3241 65.1168 23.4298 64.9707 23.5774 64.8786L26.7267 62.9719L23.1014 65.0639C22.9501 65.146 22.773 65.1663 22.6071 65.1208C22.4412 65.0752 22.2993 64.9673 22.2111 64.8195C22.1229 64.6718 22.0953 64.4956 22.134 64.328C22.1727 64.1603 22.2747 64.0141 22.4187 63.9199L38.9027 53.7973L21.6667 63.7439C21.5914 63.7888 21.508 63.8183 21.4213 63.8309C21.3346 63.8435 21.2463 63.8389 21.1613 63.8174C21.0764 63.7958 20.9965 63.7578 20.9263 63.7054C20.8561 63.653 20.7969 63.5872 20.752 63.5119C20.7072 63.4367 20.6777 63.3533 20.6651 63.2666C20.6525 63.1798 20.6571 63.0915 20.6786 63.0066C20.7002 62.9216 20.7382 62.8418 20.7906 62.7715C20.843 62.7013 20.9088 62.6421 20.984 62.5973L36.1547 53.3106L20.3694 62.4239C20.2185 62.5057 20.0419 62.5261 19.8764 62.4809C19.7108 62.4357 19.5691 62.3285 19.4806 62.1814C19.3921 62.0344 19.3638 61.8589 19.4014 61.6915C19.4391 61.5241 19.5398 61.3776 19.6827 61.2826L48.056 43.5146L18.676 60.4746C18.5251 60.5553 18.3488 60.5747 18.1839 60.529C18.0189 60.4833 17.8779 60.3759 17.7899 60.229C17.702 60.0821 17.674 59.907 17.7116 59.74C17.7492 59.5731 17.8496 59.4269 17.992 59.3319L41.752 44.6226L17.3454 58.7133C17.1943 58.7929 17.0184 58.8115 16.854 58.7652C16.6896 58.719 16.5492 58.6114 16.4618 58.4646C16.3744 58.3179 16.3466 58.1432 16.3843 57.9766C16.4219 57.81 16.5221 57.6642 16.664 57.5693L35.8987 45.7559L16.2587 57.0893C16.1073 57.1702 15.9306 57.1896 15.7653 57.1435C15.6 57.0973 15.4588 56.9892 15.3712 56.8417C15.2836 56.6941 15.2563 56.5184 15.2949 56.3512C15.3336 56.184 15.4352 56.0381 15.5787 55.9439L28.5347 48.0519L15.3894 55.6453C15.2383 55.7249 15.0624 55.7435 14.898 55.6972C14.7336 55.651 14.5932 55.5434 14.5058 55.3966C14.4184 55.2499 14.3906 55.0752 14.4283 54.9086C14.4659 54.742 14.5661 54.5962 14.708 54.5013L33.7747 42.7946L14.4774 53.9373C14.3262 54.0205 14.1487 54.0419 13.9821 53.997C13.8155 53.952 13.6728 53.8442 13.584 53.6962C13.4953 53.5482 13.4674 53.3716 13.5062 53.2035C13.5449 53.0353 13.6474 52.8888 13.792 52.7946L39.016 37.1399L13.516 51.8666C13.3642 51.9532 13.1844 51.9766 13.0154 51.9319C12.8464 51.8871 12.7017 51.7778 12.6126 51.6274C12.5234 51.4771 12.4968 51.2977 12.5386 51.128C12.5805 50.9582 12.6873 50.8117 12.836 50.7199L22.1814 45.0453L12.932 50.3813C12.7808 50.4633 12.6037 50.4837 12.4378 50.4381C12.2718 50.3925 12.1299 50.2846 12.0418 50.1368C11.9536 49.9891 11.926 49.813 11.9647 49.6453C12.0034 49.4777 12.1054 49.3315 12.2494 49.2373L32.256 36.9173L12.28 48.4493C12.1285 48.5405 11.947 48.5678 11.7753 48.5252C11.6036 48.4825 11.4559 48.3735 11.3647 48.2219C11.2735 48.0704 11.2462 47.8889 11.2888 47.7172C11.3314 47.5455 11.4405 47.3978 11.592 47.3066L39.624 29.7226L11.608 45.8973C11.4562 45.9878 11.2745 46.0143 11.1031 45.9709C10.9317 45.9275 10.7846 45.8178 10.694 45.6659C10.6035 45.5141 10.577 45.3324 10.6204 45.161C10.6638 44.9896 10.7735 44.8425 10.9254 44.7519L29.3254 33.4186L11.208 43.8666C11.0573 43.9461 10.8818 43.9649 10.7177 43.919C10.5536 43.8732 10.4132 43.7662 10.3255 43.6201C10.2378 43.474 10.2093 43.2999 10.246 43.1334C10.2827 42.967 10.3817 42.821 10.5227 42.7253L33.9707 28.0959L10.88 41.4266C10.7298 41.4997 10.5576 41.5136 10.3976 41.4658C10.2376 41.418 10.1013 41.3118 10.0158 41.1683C9.9303 41.0248 9.90179 40.8544 9.93591 40.6909C9.97003 40.5274 10.0643 40.3826 10.2 40.2853L31.5947 26.9333L10.7334 38.9826C10.582 39.0635 10.4053 39.0829 10.24 39.0368C10.0747 38.9907 9.93351 38.8826 9.84589 38.735C9.75827 38.5874 9.73094 38.4117 9.76959 38.2445C9.80824 38.0773 9.90989 37.9314 10.0534 37.8373L15.7867 34.3413L10.72 37.2639C10.5689 37.3436 10.393 37.3622 10.2286 37.3159C10.0642 37.2696 9.92384 37.162 9.83644 37.0153C9.74905 36.8686 9.72131 36.6939 9.75894 36.5273C9.79658 36.3607 9.89672 36.2149 10.0387 36.1199L20.3054 29.8079L10.812 35.2919C10.6602 35.3826 10.4785 35.4093 10.3069 35.366C10.1354 35.3228 9.98808 35.2132 9.89738 35.0613C9.80667 34.9094 9.78002 34.7277 9.82328 34.5562C9.86654 34.3846 9.97616 34.2373 10.128 34.1466L20.8347 27.5413L11.0227 33.2066C10.9476 33.2519 10.8643 33.2819 10.7776 33.295C10.6909 33.308 10.6024 33.3039 10.5173 33.2828C10.3454 33.2402 10.1975 33.131 10.106 32.9793C10.0146 32.8276 9.98723 32.6458 10.0299 32.4739C10.0725 32.302 10.1817 32.154 10.3334 32.0626L16.096 28.5333L11.328 31.2799C11.1765 31.3637 10.9983 31.3853 10.8312 31.34C10.664 31.2947 10.5211 31.1862 10.4325 31.0373C10.344 30.8885 10.3168 30.7111 10.3568 30.5426C10.3968 30.3741 10.5008 30.2278 10.6467 30.1346L11.5734 29.5679C11.4194 29.614 11.254 29.6028 11.1076 29.5365C10.9612 29.4702 10.8436 29.3533 10.7766 29.2072C10.7096 29.0612 10.6976 28.8958 10.7428 28.7416C10.788 28.5874 10.8874 28.4547 11.0227 28.3679L12.032 27.7493C11.8923 27.7864 11.7443 27.777 11.6104 27.7227C11.4764 27.6683 11.3638 27.5719 11.2894 27.4479C11.1994 27.2984 11.1716 27.1196 11.212 26.9498C11.2524 26.7801 11.3577 26.6329 11.5054 26.5399L22.1027 19.8733L13.0734 25.0866C12.922 25.1739 12.7424 25.1983 12.5733 25.1545C12.4041 25.1107 12.2589 25.0022 12.1689 24.8525C12.0789 24.7027 12.0513 24.5236 12.0921 24.3537C12.1328 24.1838 12.2386 24.0366 12.3867 23.9439L16.7334 21.2159L14.0507 22.7679C13.9012 22.8496 13.7262 22.8709 13.5615 22.8275C13.3968 22.7841 13.2549 22.6794 13.165 22.5347C13.0751 22.39 13.044 22.2165 13.078 22.0496C13.1121 21.8827 13.2087 21.7352 13.348 21.6373L27.1174 12.4733L16.2414 18.7519C16.0922 18.8337 15.9175 18.8554 15.7528 18.8125C15.5882 18.7696 15.4463 18.6654 15.356 18.5213C15.2656 18.3771 15.2339 18.2039 15.2671 18.0371C15.3003 17.8703 15.3961 17.7225 15.5347 17.6239L23.772 12.0679L19.212 14.6986C19.0646 14.7801 18.8917 14.8028 18.7282 14.762C18.5647 14.7212 18.4227 14.62 18.3308 14.4787C18.2389 14.3375 18.2038 14.1667 18.2328 14.0007C18.2617 13.8347 18.3524 13.6858 18.4867 13.5839L24.0747 9.52527C23.9368 9.46905 23.8215 9.3687 23.7467 9.23994C23.6583 9.08682 23.6344 8.90486 23.6801 8.73407C23.7259 8.56329 23.8376 8.41768 23.9907 8.32927L32.4467 3.44794C32.5945 3.36389 32.7687 3.33946 32.9339 3.37964C33.0991 3.41983 33.2427 3.52159 33.3353 3.66411C33.4279 3.80664 33.4626 3.97918 33.4323 4.14643C33.4019 4.31369 33.3088 4.46304 33.172 4.56394L29.572 7.17727L39.6307 1.36927C39.7802 1.28408 39.9568 1.25998 40.1237 1.30202C40.2905 1.34406 40.4347 1.44899 40.5259 1.59485C40.6172 1.74071 40.6486 1.91621 40.6134 2.08465C40.5783 2.25309 40.4794 2.40141 40.3374 2.49861L32.096 8.05994L44.616 0.831939C44.7659 0.746707 44.9429 0.722831 45.11 0.765321C45.2771 0.807811 45.4212 0.913364 45.5121 1.05983C45.603 1.20629 45.6336 1.38228 45.5976 1.55085C45.5615 1.71942 45.4616 1.86748 45.3187 1.96394L31.5494 11.1266L49.1854 0.945272C49.3363 0.863538 49.5129 0.843133 49.6784 0.888302C49.8439 0.933471 49.9857 1.04074 50.0742 1.18777C50.1626 1.33481 50.191 1.5103 50.1533 1.67772C50.1157 1.84514 50.0149 1.99159 49.872 2.08661L45.5147 4.80927L51.684 1.24927C51.8347 1.16877 52.0105 1.14915 52.1751 1.19445C52.3398 1.23976 52.4808 1.34654 52.5691 1.49277C52.6573 1.63899 52.6861 1.81351 52.6494 1.98032C52.6128 2.14714 52.5135 2.29352 52.372 2.38927L41.8 9.04661L54.3707 1.78661C54.522 1.70459 54.6991 1.68423 54.865 1.72978C55.0309 1.77534 55.1728 1.88328 55.261 2.03104C55.3492 2.17879 55.3768 2.35491 55.3381 2.52257C55.2994 2.69023 55.1974 2.83643 55.0534 2.93061L54.7467 3.11994L56.2134 2.27594C56.3649 2.19215 56.5431 2.17062 56.7103 2.2159C56.8774 2.26118 57.0204 2.36971 57.1089 2.51854C57.1974 2.66736 57.2246 2.84479 57.1846 3.01328C57.1446 3.18176 57.0407 3.32808 56.8947 3.42127L56.5054 3.65994L57.9374 2.83327C58.0886 2.75125 58.2657 2.73089 58.4317 2.77645C58.5976 2.822 58.7395 2.92995 58.8276 3.0777C58.9158 3.22546 58.9434 3.40158 58.9048 3.56924C58.8661 3.73689 58.7641 3.8831 58.62 3.97727L52.8374 7.52661L59.76 3.52661C59.9119 3.4359 60.0936 3.40925 60.2652 3.45251C60.4367 3.49576 60.584 3.60539 60.6747 3.75727C60.7654 3.90915 60.7921 4.09085 60.7488 4.26238C60.7056 4.43391 60.5959 4.58124 60.444 4.67194L49.7414 11.2759L61.676 4.38661C61.8273 4.30459 62.0044 4.28423 62.1703 4.32978C62.3363 4.37534 62.4781 4.48328 62.5663 4.63104C62.6545 4.77879 62.6821 4.95491 62.6434 5.12257C62.6047 5.29023 62.5027 5.43643 62.3587 5.53061L52.092 11.8439L63.4254 5.29994C63.5769 5.21615 63.7551 5.19462 63.9223 5.2399C64.0894 5.28518 64.2324 5.39371 64.3209 5.54254C64.4094 5.69136 64.4366 5.86879 64.3966 6.03728C64.3566 6.20576 64.2527 6.35208 64.1067 6.44527L58.3547 9.95061L64.9054 6.16927C65.0561 6.08977 65.2316 6.07101 65.3957 6.11685C65.5599 6.16269 65.7002 6.26965 65.7879 6.41576C65.8757 6.56186 65.9041 6.73601 65.8674 6.90243C65.8308 7.06886 65.7317 7.21492 65.5907 7.31061L44.2174 20.6439L66.9307 7.52661C67.0816 7.44487 67.2582 7.42447 67.4237 7.46964C67.5893 7.5148 67.731 7.62207 67.8195 7.76911C67.908 7.91615 67.9363 8.09164 67.8987 8.25905C67.861 8.42647 67.7603 8.57293 67.6174 8.66794L44.14 23.3199L68.896 9.02794C69.0479 8.93724 69.2296 8.91058 69.4012 8.95384C69.5727 8.9971 69.72 9.10673 69.8107 9.25861C69.9014 9.41049 69.9281 9.59218 69.8848 9.76371C69.8416 9.93525 69.7319 10.0826 69.58 10.1733L51.18 21.5066L70.4427 10.3906C70.5938 10.306 70.7718 10.2834 70.9392 10.3277C71.1066 10.372 71.2502 10.4797 71.3395 10.628C71.4289 10.7763 71.4571 10.9536 71.4181 11.1223C71.3792 11.291 71.2761 11.4379 71.1307 11.5319L43.1 29.1159L72.3067 12.2533C72.4586 12.1627 72.6402 12.1363 72.8116 12.1796C72.983 12.223 73.1302 12.3327 73.2207 12.4846C73.3112 12.6365 73.3377 12.8181 73.2943 12.9895C73.251 13.1609 73.1413 13.3081 72.9894 13.3986L52.9894 25.7173L73.6667 13.7813C73.8186 13.6947 73.9984 13.6713 74.1674 13.716C74.3364 13.7608 74.481 13.8701 74.5702 14.0204C74.6594 14.1708 74.6859 14.3502 74.6441 14.5199C74.6023 14.6897 74.4955 14.8362 74.3467 14.9279L65.028 20.5853L74.6547 15.0279C74.8064 14.9371 74.988 14.9102 75.1595 14.9532C75.3311 14.9962 75.4785 15.1056 75.5694 15.2573C75.6603 15.409 75.6872 15.5906 75.6441 15.7621C75.6011 15.9336 75.4918 16.0811 75.34 16.1719L50.0947 31.8346L75.972 16.8946C76.1233 16.8126 76.3004 16.7922 76.4663 16.8378C76.6323 16.8833 76.7741 16.9913 76.8623 17.139C76.9505 17.2868 76.9781 17.4629 76.9394 17.6306C76.9007 17.7982 76.7987 17.9444 76.6547 18.0386L57.5787 29.7493L77 18.5333C77.1519 18.4467 77.3317 18.4233 77.5007 18.468C77.6697 18.5128 77.8144 18.6221 77.9035 18.7724C77.9927 18.9228 78.0192 19.1022 77.9774 19.2719C77.9356 19.4417 77.8288 19.5882 77.68 19.6799L64.7467 27.5613L77.828 20.0093C77.9793 19.9273 78.1564 19.9069 78.3223 19.9525C78.4883 19.998 78.6301 20.1059 78.7183 20.2537C78.8065 20.4015 78.8341 20.5776 78.7954 20.7452C78.7567 20.9129 78.6547 21.0591 78.5107 21.1533L59.2734 32.9679L78.6827 21.7679C78.8342 21.6826 79.0129 21.6598 79.181 21.7044C79.349 21.749 79.4929 21.8575 79.5821 22.0067C79.6713 22.1559 79.6987 22.334 79.6585 22.5031C79.6183 22.6722 79.5136 22.8189 79.3667 22.9119L55.6067 37.6146L79.5414 23.7959C79.6924 23.7113 79.8705 23.6888 80.0379 23.7331C80.2052 23.7774 80.3488 23.8851 80.4382 24.0334C80.5276 24.1816 80.5558 24.3589 80.5168 24.5276C80.4778 24.6963 80.3748 24.8432 80.2294 24.9373L51.8614 42.7026L80.3947 26.2319C80.5463 26.1482 80.7245 26.1266 80.8916 26.1719C81.0587 26.2172 81.2017 26.3257 81.2902 26.4745C81.3788 26.6234 81.4059 26.8008 81.3659 26.9693C81.326 27.1378 81.222 27.2841 81.076 27.3773L65.9014 36.6666L80.884 28.0173C81.0353 27.9353 81.2124 27.9149 81.3783 27.9605C81.5443 28.006 81.6861 28.1139 81.7743 28.2617C81.8625 28.4095 81.8901 28.5856 81.8514 28.7532C81.8127 28.9209 81.7107 29.0671 81.5667 29.1613L65.0627 39.2946L81.3027 29.9186C81.4547 29.834 81.6337 29.8121 81.8016 29.8576C81.9695 29.9031 82.1129 30.0124 82.2013 30.1622C82.2897 30.3121 82.316 30.4905 82.2747 30.6595C82.2334 30.8284 82.1276 30.9745 81.98 31.0666L78.84 32.9666L81.56 31.3973C81.7113 31.3153 81.8884 31.2949 82.0543 31.3405C82.2203 31.386 82.3621 31.494 82.4503 31.6417C82.5385 31.7895 82.5661 31.9656 82.5274 32.1332C82.4887 32.3009 82.3867 32.4471 82.2427 32.5413L67.592 41.5399L81.8 33.3413C81.9515 33.2614 82.1279 33.2429 82.2927 33.2896C82.4574 33.3362 82.5979 33.4445 82.685 33.5919C82.7721 33.7394 82.7991 33.9147 82.7604 34.0815C82.7218 34.2483 82.6204 34.3938 82.4774 34.4879L80.7934 35.5093L81.916 34.8613C82.0659 34.7881 82.2378 34.7738 82.3978 34.8211C82.5577 34.8685 82.6941 34.9741 82.78 35.1171C82.8659 35.2601 82.8951 35.4301 82.8617 35.5935C82.8284 35.757 82.7351 35.902 82.6 35.9999L58.8334 50.9693L81.9494 37.6239C82.1004 37.5433 82.2766 37.5238 82.4416 37.5695C82.6065 37.6153 82.7476 37.7227 82.8355 37.8696C82.9234 38.0165 82.9515 38.1915 82.9138 38.3585C82.8762 38.5255 82.7758 38.6716 82.6334 38.7666L69.0334 47.1746L80.512 40.5479C80.6636 40.4642 80.8418 40.4426 81.0089 40.4879C81.1761 40.5332 81.319 40.6417 81.4076 40.7905C81.4961 40.9394 81.5232 41.1168 81.4833 41.2853C81.4433 41.4538 81.3393 41.6001 81.1934 41.6933L73.1774 46.6266L77.8054 43.9599C77.9563 43.8737 78.135 43.8498 78.3033 43.8934C78.4716 43.937 78.6163 44.0446 78.7064 44.1933C78.7964 44.342 78.8249 44.52 78.7856 44.6894C78.7463 44.8588 78.6424 45.0061 78.4961 45.0999L63.2027 54.7866L74.296 48.3866C74.4469 48.2943 74.6282 48.2657 74.8001 48.3071C74.972 48.3485 75.1204 48.4565 75.2127 48.6073C75.305 48.7581 75.3336 48.9394 75.2922 49.1113C75.2508 49.2832 75.1429 49.4317 74.992 49.5239L60.4667 58.9333L70.528 53.1253C70.6773 53.0413 70.8532 53.0181 71.0191 53.0603C71.1851 53.1025 71.3284 53.2069 71.4195 53.352C71.5105 53.497 71.5423 53.6715 71.5081 53.8393C71.474 54.0071 71.3765 54.1554 71.236 54.2533L57.9027 63.2959L66.3027 58.4493C66.4504 58.3671 66.6238 58.3441 66.7878 58.3849C66.9518 58.4257 67.0942 58.5272 67.1861 58.669C67.2781 58.8108 67.3128 58.9822 67.2832 59.1486C67.2536 59.315 67.1619 59.4639 67.0267 59.5653L57.6934 66.3439L62.008 63.8546C62.1532 63.7728 62.3237 63.7484 62.4859 63.786C62.6482 63.8236 62.7905 63.9206 62.8848 64.0579C62.9791 64.1952 63.0186 64.3629 62.9956 64.5278C62.9725 64.6928 62.8884 64.8432 62.76 64.9493L58.7334 68.2106C58.8863 68.1899 59.0417 68.2229 59.1731 68.3039C59.3044 68.385 59.4036 68.5091 59.4536 68.6551C59.5036 68.8011 59.5015 68.96 59.4474 69.1046C59.3934 69.2492 59.2909 69.3705 59.1574 69.4479L52.2627 73.4279C52.1176 73.5097 51.9471 73.5342 51.7848 73.4966C51.6226 73.4589 51.4803 73.3619 51.3859 73.2246C51.2916 73.0873 51.2521 72.9197 51.2752 72.7547C51.2983 72.5898 51.3823 72.4394 51.5107 72.3333L55.2974 69.2666L47.3654 73.8533C47.2647 73.9123 47.1501 73.9431 47.0334 73.9426Z" fill="#FFD34E"/>
<path d="M44.9587 68.5919C44.8187 68.5919 44.6824 68.5479 44.5689 68.4661C44.4553 68.3843 44.3705 68.2688 44.3262 68.1361C44.282 68.0034 44.2806 67.8601 44.3223 67.7265C44.364 67.5929 44.4467 67.4759 44.5587 67.3919L51.6787 62.1813L41.4453 68.0879C41.2966 68.171 41.1217 68.1941 40.9566 68.1523C40.7914 68.1105 40.6485 68.007 40.5573 67.8632C40.466 67.7194 40.4332 67.546 40.4657 67.3788C40.4982 67.2116 40.5935 67.0631 40.732 66.9639L53.2387 58.2839L37.7573 67.2173C37.6064 67.299 37.4299 67.3194 37.2643 67.2742C37.0988 67.2291 36.957 67.1218 36.8685 66.9748C36.7801 66.8277 36.7517 66.6522 36.7894 66.4848C36.827 66.3174 36.9278 66.171 37.0707 66.0759L37.18 66.0066L36.0627 66.6506C35.9128 66.7321 35.7375 66.7531 35.5726 66.7093C35.4078 66.6654 35.266 66.5601 35.1765 66.4149C35.087 66.2697 35.0566 66.0957 35.0914 65.9287C35.1263 65.7618 35.2239 65.6145 35.364 65.5173L54.352 53.0466L33.052 65.3466C32.9006 65.438 32.7192 65.4656 32.5475 65.4232C32.3759 65.3808 32.2281 65.272 32.1367 65.1206C32.0453 64.9693 32.0177 64.7878 32.0601 64.6161C32.1025 64.4445 32.2113 64.2967 32.3627 64.2053L47.864 54.4253L30.9533 64.1893C30.8016 64.2802 30.62 64.307 30.4485 64.264C30.277 64.221 30.1295 64.1116 30.0387 63.9599C29.9478 63.8082 29.9209 63.6266 29.9639 63.4551C30.0069 63.2836 30.1163 63.1362 30.268 63.0453L41.224 56.2453L29.3 63.1306C29.1485 63.2218 28.9669 63.2491 28.7952 63.2065C28.6236 63.1639 28.4759 63.0548 28.3847 62.9033C28.2934 62.7517 28.2661 62.5702 28.3088 62.3985C28.3514 62.2269 28.4605 62.0792 28.612 61.9879L44.532 52.0253L27.5427 61.8293C27.3917 61.9099 27.2154 61.9294 27.0505 61.8837C26.8855 61.8379 26.7445 61.7305 26.6566 61.5836C26.5686 61.4368 26.5406 61.2617 26.5782 61.0947C26.6158 60.9277 26.7163 60.7816 26.8587 60.6866L38.832 53.2759L26.12 60.6093C26.0451 60.6546 25.9619 60.6848 25.8753 60.698C25.7887 60.7112 25.7004 60.7072 25.6153 60.6863C25.5303 60.6654 25.4502 60.6279 25.3796 60.576C25.309 60.5242 25.2493 60.4589 25.204 60.3839C25.1586 60.309 25.1285 60.2259 25.1153 60.1393C25.1021 60.0527 25.106 59.9643 25.127 59.8793C25.1479 59.7942 25.1854 59.7141 25.2372 59.6435C25.2891 59.573 25.3544 59.5133 25.4293 59.4679L47.676 45.3906L24.3427 58.8573C24.1913 58.9487 24.0098 58.9762 23.8382 58.9338C23.6665 58.8915 23.5187 58.7826 23.4273 58.6313C23.3359 58.4799 23.3084 58.2985 23.3508 58.1268C23.3931 57.9551 23.502 57.8074 23.6533 57.7159L45.892 43.6866L22.7533 57.0439C22.6026 57.1269 22.4256 57.1483 22.2594 57.1037C22.0932 57.0591 21.9506 56.952 21.8616 56.8047C21.7726 56.6575 21.7439 56.4815 21.7816 56.3136C21.8194 56.1457 21.9205 55.9989 22.064 55.9039L45.9427 40.7853L21.2787 55.0239C21.1275 55.1072 20.95 55.1286 20.7834 55.0836C20.6168 55.0387 20.4741 54.9309 20.3853 54.7829C20.2966 54.6349 20.2686 54.4583 20.3074 54.2901C20.3462 54.122 20.4487 53.9754 20.5933 53.8813L39.212 42.2666L20.172 53.2626C20.0207 53.3446 19.8436 53.365 19.6777 53.3194C19.5118 53.2739 19.3699 53.1659 19.2817 53.0182C19.1936 52.8704 19.1659 52.6943 19.2046 52.5266C19.2433 52.359 19.3453 52.2128 19.4893 52.1186L31.1987 44.9119L19.3507 51.7519C19.1997 51.8326 19.0234 51.8521 18.8585 51.8063C18.6935 51.7606 18.5525 51.6532 18.4646 51.5063C18.3766 51.3594 18.3486 51.1844 18.3862 51.0174C18.4238 50.8504 18.5243 50.7043 18.6667 50.6093L33.2947 41.5599L18.556 50.0679C18.4066 50.1407 18.2355 50.1552 18.076 50.1083C17.9166 50.0615 17.7804 49.9568 17.6941 49.8148C17.6079 49.6728 17.5777 49.5037 17.6096 49.3406C17.6416 49.1776 17.7332 49.0323 17.8667 48.9333L40.0907 34.9159L17.6907 47.8493C17.5388 47.9358 17.359 47.9593 17.19 47.9145C17.021 47.8698 16.8763 47.7605 16.7872 47.6101C16.698 47.4597 16.6715 47.2804 16.7133 47.1106C16.7551 46.9409 16.8619 46.7944 17.0107 46.7026L20.8413 44.3666L17.2413 46.4413C17.0911 46.5217 16.9157 46.5416 16.7512 46.4967C16.5868 46.4518 16.4458 46.3457 16.3571 46.2001C16.2685 46.0544 16.2391 45.8804 16.2748 45.7137C16.3106 45.5471 16.4088 45.4004 16.5493 45.3039L41.308 29.4666L16.6 43.7333C16.4481 43.8198 16.2683 43.8433 16.0993 43.7985C15.9303 43.7538 15.7857 43.6445 15.6965 43.4941C15.6073 43.3437 15.5808 43.1644 15.6226 42.9946C15.6644 42.8249 15.7712 42.6784 15.92 42.5866L16.8093 42.0439L16.3587 42.3106C16.2834 42.356 16.1999 42.3862 16.1129 42.3994C16.026 42.4125 15.9373 42.4085 15.8519 42.3873C15.7665 42.3662 15.6862 42.3285 15.6154 42.2763C15.5446 42.2242 15.4848 42.1586 15.4393 42.0833C15.3939 42.008 15.3637 41.9245 15.3506 41.8375C15.3374 41.7506 15.3415 41.6619 15.3626 41.5765C15.3837 41.4912 15.4214 41.4108 15.4736 41.34C15.5258 41.2692 15.5914 41.2094 15.6667 41.1639L30.6 31.8426L16.1333 40.1933C15.982 40.2847 15.8005 40.3122 15.6289 40.2698C15.4572 40.2275 15.3094 40.1186 15.218 39.9673C15.1266 39.8159 15.099 39.6345 15.1414 39.4628C15.1838 39.2911 15.2926 39.1434 15.444 39.0519L32.992 27.9626L16.044 37.7466C15.8926 37.8339 15.713 37.8583 15.5439 37.8145C15.3747 37.7707 15.2296 37.6622 15.1396 37.5125C15.0496 37.3627 15.0219 37.1836 15.0627 37.0137C15.1034 36.8438 15.2092 36.6966 15.3573 36.6039L28.5653 28.3133L16.144 35.4839C15.9936 35.5667 15.8171 35.5882 15.6512 35.544C15.4853 35.4998 15.3428 35.3934 15.2535 35.2468C15.1641 35.1002 15.1348 34.9248 15.1715 34.7572C15.2082 34.5895 15.3082 34.4424 15.4507 34.3466L33.2373 22.8973L16.5173 32.5493C16.3672 32.6308 16.1914 32.6515 16.0264 32.6072C15.8614 32.5629 15.7197 32.4569 15.6305 32.3112C15.5414 32.1654 15.5116 31.9909 15.5474 31.8239C15.5831 31.6568 15.6817 31.5098 15.8227 31.4133L30.56 21.9173L17.1787 29.6426C17.0276 29.7272 16.8496 29.7498 16.6822 29.7055C16.5148 29.6612 16.3712 29.5535 16.2818 29.4052C16.1924 29.2569 16.1643 29.0797 16.2032 28.911C16.2422 28.7422 16.3453 28.5953 16.4907 28.5013L21.1333 25.5826L17.8693 27.4666C17.7198 27.5518 17.5432 27.5759 17.3763 27.5339C17.2095 27.4918 17.0654 27.3869 16.9741 27.241C16.8828 27.0952 16.8515 26.9197 16.8866 26.7512C16.9218 26.5828 17.0207 26.4345 17.1627 26.3373L31.296 16.7933L19.632 23.5266C19.4827 23.6151 19.3049 23.6418 19.1362 23.6013C18.9675 23.5607 18.8213 23.4559 18.7286 23.3092C18.6359 23.1626 18.604 22.9855 18.6398 22.8157C18.6755 22.646 18.776 22.4968 18.92 22.3999L28.6213 15.6866L22.3467 19.3133C22.1999 19.3968 22.0269 19.4215 21.8626 19.3825C21.6983 19.3434 21.555 19.2434 21.4616 19.1028C21.3681 18.9621 21.3315 18.7912 21.3592 18.6246C21.3869 18.458 21.4768 18.3082 21.6107 18.2053L27.1893 13.9826C27.0566 13.956 26.9351 13.8895 26.841 13.7921C26.7469 13.6947 26.6847 13.5709 26.6627 13.4373C26.6407 13.3037 26.6599 13.1665 26.7178 13.0441C26.7757 12.9217 26.8695 12.8198 26.9867 12.7519L34.7333 8.27861C34.8801 8.19507 35.0531 8.17034 35.2174 8.20942C35.3817 8.24849 35.525 8.34845 35.6184 8.48912C35.7119 8.62978 35.7484 8.80066 35.7208 8.96725C35.6931 9.13384 35.6032 9.28371 35.4693 9.38661L30.9587 12.7999L42.0653 6.38661C42.2144 6.29988 42.3912 6.27427 42.5587 6.31516C42.7262 6.35605 42.8714 6.46025 42.9637 6.60589C43.056 6.75153 43.0883 6.92727 43.0538 7.09622C43.0193 7.26516 42.9207 7.41416 42.7787 7.51194L33.0827 14.2213L47.0587 6.15594C47.2082 6.07074 47.3848 6.04665 47.5516 6.08869C47.7185 6.13073 47.8626 6.23565 47.9539 6.38152C48.0452 6.52738 48.0765 6.70288 48.0414 6.87132C48.0062 7.03976 47.9073 7.18808 47.7653 7.28527L33.632 16.8319L51.3427 6.60394C51.494 6.51666 51.6736 6.49229 51.8428 6.53608C52.0119 6.57987 52.1571 6.68832 52.2471 6.83809C52.3371 6.98785 52.3647 7.16696 52.324 7.33687C52.2833 7.50679 52.1774 7.65392 52.0293 7.74661L47.3773 10.6666L53.5933 7.07861C53.7435 6.9971 53.9192 6.97636 54.0843 7.02067C54.2493 7.06498 54.391 7.17096 54.4801 7.31673C54.5693 7.4625 54.599 7.63693 54.5633 7.80402C54.5275 7.9711 54.429 8.11808 54.288 8.21461L39.5493 17.7133L56.444 7.95994C56.5946 7.87423 56.7726 7.85051 56.9403 7.89379C57.1081 7.93707 57.2524 8.04396 57.3427 8.19182C57.433 8.33967 57.4622 8.51688 57.4242 8.68589C57.3861 8.85491 57.2837 9.00245 57.1387 9.09727L39.348 20.5479L59.168 9.10661C59.3195 9.01537 59.5011 8.98807 59.6728 9.0307C59.8444 9.07334 59.9921 9.18241 60.0833 9.33394C60.1746 9.48547 60.2019 9.66703 60.1592 9.83869C60.1166 10.0103 60.0075 10.158 59.856 10.2493L46.656 18.5319L61.1707 10.1533C61.322 10.0617 61.5036 10.034 61.6753 10.0762C61.8471 10.1185 61.9951 10.2273 62.0867 10.3786C62.1783 10.53 62.206 10.7115 62.1637 10.8833C62.1215 11.0551 62.0127 11.203 61.8613 11.2946L44.2987 22.3999L63.2427 11.4666C63.3934 11.3871 63.5689 11.3683 63.733 11.4142C63.8971 11.46 64.0375 11.567 64.1252 11.7131C64.2129 11.8592 64.2414 12.0333 64.2047 12.1998C64.168 12.3662 64.069 12.5123 63.928 12.6079L49.012 21.9159L64.9573 12.7093C65.1092 12.6227 65.289 12.5993 65.458 12.644C65.627 12.6888 65.7717 12.7981 65.8608 12.9484C65.95 13.0988 65.9765 13.2782 65.9347 13.4479C65.8929 13.6177 65.7861 13.7642 65.6373 13.8559L64.7493 14.3973L66.0693 13.6359C66.2196 13.5555 66.395 13.5357 66.5594 13.5805C66.7239 13.6254 66.8649 13.7315 66.9535 13.8772C67.0421 14.0228 67.0716 14.1968 67.0358 14.3635C67.0001 14.5301 66.9019 14.6768 66.7613 14.7733L42.0093 30.6039L68.0827 15.5519C68.234 15.471 68.4108 15.4516 68.5761 15.4978C68.7414 15.5439 68.8825 15.652 68.9702 15.7996C69.0578 15.9471 69.0851 16.1228 69.0465 16.29C69.0078 16.4572 68.9062 16.6031 68.7627 16.6973L64.9653 19.0146L69.08 16.6386C69.2311 16.554 69.4091 16.5314 69.5765 16.5757C69.7439 16.62 69.8874 16.7277 69.9768 16.876C70.0662 17.0243 70.0944 17.2016 70.0554 17.3703C70.0165 17.539 69.9134 17.6859 69.768 17.7799L47.5333 31.7973L70.5733 18.4959C70.7242 18.4174 70.8993 18.3995 71.063 18.4458C71.2266 18.4922 71.3663 18.5993 71.4536 18.7453C71.5408 18.8913 71.5689 19.0651 71.5322 19.2312C71.4955 19.3973 71.3967 19.543 71.256 19.6386L56.6453 28.6786L71.64 20.0226C71.7913 19.9406 71.9684 19.9202 72.1343 19.9658C72.3002 20.0113 72.4421 20.1193 72.5303 20.267C72.6184 20.4148 72.6461 20.5909 72.6074 20.7586C72.5687 20.9262 72.4667 21.0724 72.3227 21.1666L60.616 28.3666L72.5413 21.4813C72.6927 21.394 72.8723 21.3696 73.0414 21.4134C73.2106 21.4572 73.3558 21.5657 73.4458 21.7154C73.5358 21.8652 73.5634 22.0443 73.5227 22.2142C73.4819 22.3841 73.3761 22.5313 73.228 22.6239L54.608 34.2413L73.5333 23.3186C73.6847 23.2272 73.8661 23.1997 74.0378 23.242C74.2095 23.2844 74.3573 23.3933 74.4487 23.5446C74.5401 23.696 74.5676 23.8774 74.5252 24.0491C74.4829 24.2207 74.374 24.3685 74.2227 24.4599L50.34 39.5786L74.5267 25.6146C74.6773 25.5341 74.8531 25.5145 75.0178 25.5598C75.1824 25.6051 75.3234 25.7119 75.4117 25.8581C75.4999 26.0043 75.5287 26.1788 75.492 26.3457C75.4554 26.5125 75.3561 26.6589 75.2147 26.7546L52.9653 40.7999L75.3187 27.8933C75.4696 27.807 75.6483 27.7831 75.8166 27.8267C75.9849 27.8703 76.1295 27.9779 76.2196 28.1266C76.3097 28.2753 76.3382 28.4534 76.2989 28.6227C76.2596 28.7921 76.1557 28.9394 76.0093 29.0333L53.7613 43.1173L75.9413 30.3173C76.0928 30.232 76.2716 30.2092 76.4396 30.2538C76.6076 30.2983 76.7515 30.4068 76.8408 30.556C76.93 30.7052 76.9574 30.8833 76.9171 31.0524C76.8769 31.2215 76.7722 31.3682 76.6253 31.4613L64.6533 38.8639L76.2813 32.1519C76.4329 32.0607 76.6144 32.0334 76.7861 32.076C76.8711 32.0971 76.9511 32.1348 77.0215 32.1868C77.092 32.2389 77.1515 32.3042 77.1967 32.3793C77.2418 32.4543 77.2718 32.5375 77.2848 32.6241C77.2978 32.7107 77.2937 32.799 77.2726 32.884C77.2515 32.969 77.2138 33.049 77.1618 33.1195C77.1098 33.1899 77.0444 33.2494 76.9693 33.2946L61.072 43.2426L76.5227 34.3226C76.6741 34.2373 76.8529 34.2145 77.0209 34.2591C77.1889 34.3037 77.3329 34.4121 77.4221 34.5613C77.5113 34.7105 77.5387 34.8887 77.4985 35.0578C77.4582 35.2269 77.3535 35.3736 77.2067 35.4666L66.2333 42.2813L76.6147 36.2879C76.7654 36.205 76.9424 36.1836 77.1086 36.2282C77.2748 36.2728 77.4174 36.3799 77.5064 36.5271C77.5954 36.6744 77.6241 36.8504 77.5864 37.0183C77.5486 37.1861 77.4475 37.3329 77.304 37.4279L61.8 47.1999L73.7533 40.2999C73.9033 40.2161 74.0798 40.1933 74.2461 40.2365C74.4125 40.2796 74.5557 40.3853 74.646 40.5314C74.7363 40.6776 74.7666 40.853 74.7307 41.021C74.6948 41.1891 74.5955 41.3367 74.4533 41.4333L55.472 53.9093L68.9133 46.1493C69.0647 46.062 69.2443 46.0376 69.4134 46.0814C69.5826 46.1252 69.7278 46.2337 69.8178 46.3834C69.9078 46.5332 69.9354 46.7123 69.8947 46.8822C69.8539 47.0521 69.7481 47.1993 69.6 47.2919L66.8307 49.0253C66.9355 49.032 67.0372 49.0634 67.1276 49.117C67.2179 49.1705 67.2944 49.2446 67.3507 49.3333C67.443 49.4786 67.4756 49.6539 67.4415 49.8227C67.4075 49.9914 67.3094 50.1405 67.168 50.2386L54.66 58.9186L61.6827 54.8653C61.8302 54.782 62.004 54.758 62.1686 54.7982C62.3332 54.8385 62.4763 54.9398 62.5688 55.0818C62.6613 55.2237 62.6964 55.3956 62.6667 55.5624C62.6371 55.7292 62.5451 55.8785 62.4093 55.9799L55.2893 61.1919L57.4907 59.9199C57.6364 59.8334 57.8096 59.8057 57.975 59.8423C58.1405 59.8789 58.2858 59.9772 58.3814 60.1171C58.477 60.257 58.5157 60.4281 58.4897 60.5956C58.4637 60.763 58.3749 60.9143 58.2413 61.0186L54.748 63.8186C54.8708 63.8578 54.9795 63.9318 55.0611 64.0316C55.1427 64.1313 55.1936 64.2526 55.2077 64.3807C55.2218 64.5087 55.1985 64.6382 55.1406 64.7533C55.0827 64.8684 54.9926 64.9643 54.8813 65.0293L48.9693 68.4439C48.8238 68.5281 48.6519 68.5542 48.488 68.517C48.324 68.4798 48.1802 68.382 48.0853 68.2433C47.9904 68.1045 47.9514 67.935 47.9761 67.7688C48.0009 67.6025 48.0875 67.4517 48.2187 67.3466L50.5827 65.4533L45.296 68.5039C45.1937 68.5634 45.077 68.5938 44.9587 68.5919Z" fill="#FFFAD5"/>
<path d="M41.6013 41.6973C41.4676 41.6977 41.3369 41.6578 41.2261 41.5829C41.1154 41.508 41.0297 41.4015 40.9803 41.2773C40.9308 41.1531 40.9199 41.0169 40.9488 40.8863C40.9778 40.7558 41.0453 40.637 41.1426 40.5453L44.3506 37.524L41.3733 39.2427C41.2375 39.3207 41.0786 39.3483 40.9244 39.3209C40.7702 39.2934 40.6306 39.2126 40.5301 39.0925C40.4296 38.9724 40.3745 38.8207 40.3746 38.6641C40.3747 38.5075 40.43 38.356 40.5306 38.236L42.4879 35.916C42.333 35.9665 42.165 35.9586 42.0156 35.8936C41.8661 35.8287 41.7456 35.7113 41.6769 35.5636C41.6081 35.4159 41.5958 35.2481 41.6423 35.0919C41.6888 34.9358 41.7909 34.802 41.9293 34.716L45.0973 32.888C45.2331 32.8092 45.3924 32.7809 45.547 32.808C45.7017 32.8351 45.8418 32.916 45.9427 33.0363C46.0436 33.1567 46.0988 33.3087 46.0985 33.4658C46.0983 33.6228 46.0426 33.7747 45.9413 33.8947L44.0053 36.1893L48.6386 33.5147C48.7807 33.4283 48.9499 33.3981 49.1131 33.43C49.2762 33.462 49.4216 33.5537 49.5206 33.6873C49.6196 33.8209 49.6651 33.9866 49.6482 34.152C49.6313 34.3174 49.5532 34.4705 49.4293 34.5813L46.2293 37.6013L50.4093 35.1893C50.5523 35.109 50.7198 35.0842 50.8799 35.1197C51.04 35.1551 51.1814 35.2483 51.2771 35.3815C51.3728 35.5147 51.4161 35.6784 51.3987 35.8415C51.3812 36.0045 51.3043 36.1554 51.1826 36.2653L50.944 36.476L51.028 36.428C51.181 36.341 51.3622 36.318 51.5321 36.3642C51.702 36.4103 51.8468 36.5218 51.9348 36.6742C52.0228 36.8267 52.047 37.0078 52.002 37.178C51.957 37.3482 51.8465 37.4936 51.6946 37.5827L45.7946 40.988C45.6516 41.0683 45.4841 41.0931 45.324 41.0577C45.1639 41.0222 45.0225 40.929 44.9268 40.7958C44.8311 40.6627 44.7878 40.4989 44.8052 40.3359C44.8227 40.1728 44.8996 40.0219 45.0213 39.912L45.2586 39.7027L41.9333 41.608C41.8326 41.667 41.718 41.6979 41.6013 41.6973Z" fill="#9DBF69"/>
<path d="M66.8507 41.3401C66.704 41.3401 66.5613 41.2916 66.4449 41.2023C66.3285 41.1129 66.2448 40.9877 66.2068 40.8459C66.1688 40.7042 66.1787 40.5539 66.2348 40.4183C66.291 40.2827 66.3903 40.1694 66.5174 40.0961L71.3027 37.3334C71.4551 37.2537 71.6323 37.2359 71.7975 37.2838C71.9626 37.3318 72.1029 37.4416 72.1889 37.5905C72.275 37.7394 72.3002 37.9157 72.2593 38.0827C72.2184 38.2497 72.1145 38.3945 71.9694 38.4867L67.1841 41.2507C67.0827 41.3092 66.9677 41.3401 66.8507 41.3401Z" fill="#BF6B04"/>
<path d="M63.0454 79.0933C62.9097 79.0934 62.7773 79.0522 62.6657 78.975C62.5541 78.8979 62.4688 78.7886 62.4209 78.6617C62.3731 78.5347 62.3652 78.3962 62.3981 78.2647C62.4311 78.1331 62.5034 78.0147 62.6054 77.9253L67.3507 73.756L61.4974 77.136C61.3499 77.2204 61.1758 77.2454 61.0106 77.2058C60.8453 77.1662 60.7014 77.0649 60.6083 76.9228C60.5152 76.7807 60.4799 76.6083 60.5096 76.441C60.5393 76.2737 60.6317 76.1241 60.768 76.0226L69.7787 69.372L59.62 75.2386C59.4704 75.3225 59.2943 75.3455 59.1281 75.3028C58.962 75.2601 58.8188 75.1551 58.7281 75.0095C58.6375 74.8639 58.6064 74.689 58.6414 74.5211C58.6764 74.3532 58.7748 74.2052 58.916 74.108L68.2494 67.8413L58.096 73.708C57.9468 73.7887 57.7723 73.8094 57.6083 73.766C57.4443 73.7226 57.303 73.6182 57.2132 73.4742C57.1234 73.3302 57.0919 73.1574 57.1252 72.991C57.1584 72.8246 57.2538 72.6771 57.392 72.5786L70.176 64L56.38 71.9626C56.2291 72.0489 56.0504 72.0728 55.8821 72.0292C55.7138 71.9856 55.5692 71.878 55.4791 71.7293C55.389 71.5806 55.3605 71.4026 55.3998 71.2332C55.4391 71.0638 55.543 70.9165 55.6894 70.8226L61.0654 67.4026L55.2107 70.7813C55.0607 70.8652 54.8842 70.8879 54.7179 70.8448C54.5516 70.8017 54.4083 70.696 54.3181 70.5498C54.2278 70.4036 54.1974 70.2282 54.2333 70.0602C54.2692 69.8922 54.3686 69.7445 54.5107 69.648L68.4227 60.476L53.5334 69.0773C53.3834 69.1664 53.2044 69.1932 53.0349 69.1518C52.8654 69.1105 52.7189 69.0044 52.6268 68.8562C52.5346 68.7081 52.5043 68.5297 52.5421 68.3594C52.58 68.1891 52.6831 68.0404 52.8294 67.9453L69.1987 57.0573L51.652 67.1826C51.5014 67.2669 51.3239 67.2894 51.157 67.2454C50.9901 67.2014 50.8467 67.0945 50.757 66.9469C50.6674 66.7994 50.6385 66.6229 50.6763 66.4545C50.7142 66.2861 50.8159 66.1389 50.96 66.044L61.9694 58.9773L50.236 65.7493C50.0863 65.832 49.9106 65.8539 49.7451 65.8106C49.5797 65.7674 49.4372 65.6622 49.3471 65.5168C49.257 65.3714 49.2263 65.197 49.2612 65.0296C49.2961 64.8622 49.394 64.7146 49.5347 64.6173L66.5467 53.3506L48.3574 63.852C48.2073 63.939 48.0292 63.9641 47.8609 63.9219C47.6926 63.8797 47.5474 63.7736 47.4561 63.626C47.3648 63.4785 47.3346 63.3012 47.3719 63.1318C47.4093 62.9623 47.5112 62.8141 47.656 62.7186L64.5894 51.5093L46.484 61.9586C46.3332 62.0471 46.1536 62.0727 45.984 62.0299C45.8145 61.9872 45.6685 61.8795 45.5775 61.7302C45.4866 61.5808 45.458 61.4017 45.4979 61.2315C45.5377 61.0612 45.6429 60.9134 45.7907 60.82L56.7694 53.7826L45.0747 60.5333C44.9248 60.6138 44.7497 60.6339 44.5855 60.5895C44.4212 60.5451 44.2801 60.4395 44.1911 60.2945C44.1022 60.1494 44.072 59.9758 44.1069 59.8093C44.1418 59.6427 44.239 59.4958 44.3787 59.3986L57.2307 51.0426L43.5254 58.956C43.3771 59.0406 43.202 59.065 43.0362 59.0244C42.8704 58.9837 42.7266 58.881 42.6343 58.7374C42.5419 58.5938 42.5082 58.4203 42.5401 58.2526C42.5719 58.0849 42.6669 57.9358 42.8054 57.836L51.8187 51.4226L42.0387 57.0666C41.8909 57.1507 41.7167 57.1751 41.5515 57.1349C41.3863 57.0948 41.2427 56.993 41.1501 56.8505C41.0575 56.7079 41.0228 56.5354 41.0531 56.3681C41.0835 56.2009 41.1766 56.0515 41.3134 55.9506L51.0907 48.8453L40.8667 54.7493C40.7174 54.83 40.543 54.8508 40.379 54.8073C40.2149 54.7639 40.0736 54.6596 39.9839 54.5156C39.8941 54.3716 39.8626 54.1987 39.8958 54.0323C39.9291 53.8659 40.0245 53.7185 40.1627 53.62L43.9294 51.0866L40.3707 53.14C40.2227 53.2218 40.0492 53.2443 39.8852 53.2029C39.7213 53.1616 39.5791 53.0595 39.4876 52.9173C39.3961 52.7751 39.362 52.6035 39.3923 52.4371C39.4226 52.2708 39.515 52.1221 39.6507 52.0213L46.936 46.8306L40.0667 50.8C39.9184 50.8846 39.7433 50.909 39.5776 50.8684C39.4118 50.8277 39.2679 50.725 39.1756 50.5814C39.0833 50.4378 39.0496 50.2643 39.0814 50.0966C39.1132 49.9289 39.2082 49.7798 39.3467 49.68L44.8374 45.768L40.1734 48.4573C40.026 48.5399 39.8528 48.5635 39.6887 48.5232C39.5246 48.483 39.3819 48.382 39.2895 48.2406C39.197 48.0992 39.1617 47.928 39.1906 47.7615C39.2196 47.5951 39.3106 47.4459 39.4454 47.344L43.8547 44.0973L40.8574 45.8306C40.7153 45.917 40.5461 45.9472 40.3829 45.9153C40.2198 45.8833 40.0744 45.7916 39.9754 45.658C39.8764 45.5245 39.8309 45.3587 39.8478 45.1933C39.8646 45.0279 39.9427 44.8748 40.0667 44.764L43.7414 41.3146C43.598 41.3552 43.4453 41.3472 43.307 41.2917C43.1688 41.2362 43.0528 41.1364 42.9774 41.008C42.889 40.8549 42.865 40.6729 42.9108 40.5021C42.9565 40.3313 43.0682 40.1857 43.2214 40.0973L48.008 37.3333C48.1501 37.2483 48.3187 37.2192 48.481 37.2516C48.6433 37.2841 48.7878 37.3757 48.8863 37.5088C48.9847 37.6419 49.0302 37.8068 49.0137 37.9715C48.9973 38.1363 48.9202 38.289 48.7974 38.4L45.1854 41.7906L53.5854 36.9373C53.7328 36.8528 53.9069 36.8279 54.0722 36.8675C54.2374 36.9071 54.3813 37.0083 54.4744 37.1505C54.5675 37.2926 54.6028 37.4649 54.5731 37.6322C54.5435 37.7995 54.451 37.9492 54.3147 38.0506L49.8974 41.304L56.2454 37.6386C56.3934 37.555 56.5679 37.531 56.733 37.5718C56.8982 37.6125 57.0415 37.7148 57.1337 37.8578C57.2258 38.0007 57.2599 38.1735 57.2288 38.3407C57.1978 38.5079 57.104 38.657 56.9667 38.7573L51.4854 42.6666L58.36 38.6986C58.5083 38.6141 58.6834 38.5896 58.8492 38.6302C59.015 38.6709 59.1588 38.7736 59.2511 38.9172C59.3435 39.0608 59.3772 39.2343 59.3453 39.402C59.3135 39.5698 59.2185 39.7189 59.08 39.8186L51.792 45.012L60.2107 40.1506C60.3606 40.0569 60.5417 40.0266 60.7139 40.0664C60.8862 40.1061 61.0357 40.2127 61.1294 40.3626C61.2231 40.5126 61.2534 40.6936 61.2136 40.8659C61.1739 41.0382 61.0673 41.1876 60.9174 41.2813L57.1467 43.8146L61.424 41.3466C61.5718 41.2626 61.7461 41.2382 61.9112 41.2783C62.0764 41.3185 62.22 41.4203 62.3126 41.5628C62.4053 41.7053 62.44 41.8779 62.4096 42.0451C62.3793 42.2124 62.2862 42.3617 62.1494 42.4626L52.376 49.5653L63.3307 43.2413C63.479 43.1567 63.654 43.1322 63.8198 43.1729C63.9856 43.2136 64.1295 43.3163 64.2218 43.4599C64.3141 43.6035 64.3478 43.777 64.316 43.9447C64.2842 44.1124 64.1892 44.2615 64.0507 44.3613L55.0334 50.776L78.4187 37.2706C78.5692 37.1831 78.7479 37.158 78.9167 37.2005C79.0855 37.243 79.2309 37.3498 79.322 37.4982C79.4131 37.6465 79.4425 37.8246 79.404 37.9944C79.3655 38.1641 79.2622 38.3121 79.116 38.4066L66.2667 46.7586L80.9454 38.2853C81.0958 38.2026 81.2723 38.1811 81.4382 38.2252C81.6041 38.2694 81.7465 38.3759 81.8359 38.5224C81.9252 38.669 81.9546 38.8444 81.9179 39.0121C81.8811 39.1798 81.7811 39.3268 81.6387 39.4226L70.6574 46.464L82.7494 39.4813C82.8238 39.4352 82.9066 39.4041 82.993 39.39C83.0794 39.3758 83.1677 39.3789 83.253 39.3988C83.3382 39.4188 83.4187 39.4554 83.4898 39.5065C83.5609 39.5576 83.6212 39.6222 83.6674 39.6966C83.7135 39.7711 83.7445 39.8538 83.7587 39.9402C83.7728 40.0266 83.7698 40.115 83.7498 40.2002C83.7298 40.2855 83.6932 40.366 83.6421 40.4371C83.591 40.5082 83.5264 40.5685 83.452 40.6146L66.5267 51.8213L84.6147 41.3786C84.7648 41.2916 84.9429 41.2665 85.1112 41.3087C85.2795 41.3509 85.4247 41.457 85.516 41.6046C85.6073 41.7521 85.6375 41.9294 85.6001 42.0988C85.5628 42.2683 85.4609 42.4165 85.316 42.512L68.304 53.7853L86.004 43.5666C86.1543 43.4862 86.3297 43.4664 86.4941 43.5112C86.6586 43.5561 86.7996 43.6622 86.8882 43.8079C86.9768 43.9535 87.0063 44.1275 86.9705 44.2942C86.9348 44.4608 86.8366 44.6075 86.696 44.704L75.6814 51.7706L86.7334 45.392C86.8832 45.3067 87.0602 45.2829 87.2273 45.3254C87.3944 45.3678 87.5385 45.4734 87.6294 45.6199C87.7203 45.7663 87.751 45.9423 87.7149 46.1109C87.6788 46.2795 87.5789 46.4275 87.436 46.524L71.0667 57.412L87.2467 48.0706C87.3963 47.9901 87.571 47.9697 87.7351 48.0136C87.8993 48.0575 88.0404 48.1625 88.1298 48.307C88.2192 48.4515 88.25 48.6247 88.216 48.7911C88.1819 48.9576 88.0856 49.1048 87.9467 49.2026L74.0307 58.376L87.1774 50.788C87.3279 50.7064 87.504 50.6859 87.6693 50.7306C87.8345 50.7754 87.9762 50.882 88.065 51.0284C88.1538 51.1747 88.1829 51.3497 88.1462 51.5169C88.1095 51.6841 88.0099 51.8308 87.868 51.9266L82.4827 55.3546L86.712 52.9133C86.8613 52.8326 87.0357 52.8118 87.1998 52.8553C87.3638 52.8987 87.5051 53.0031 87.5949 53.1471C87.6846 53.2911 87.7161 53.4639 87.6829 53.6303C87.6496 53.7967 87.5542 53.9442 87.416 54.0426L74.6374 62.612L84.6454 56.8346C84.7951 56.7479 84.9727 56.7227 85.1406 56.7645C85.3086 56.8063 85.4537 56.9118 85.5453 57.0586C85.6369 57.2054 85.6678 57.3821 85.6315 57.5513C85.5952 57.7205 85.4945 57.869 85.3507 57.9653L76.0094 64.232L79.4 62.2826C79.5475 62.1982 79.7216 62.1732 79.8868 62.2128C80.0521 62.2524 80.1959 62.3537 80.2891 62.4958C80.3822 62.6379 80.4175 62.8103 80.3878 62.9776C80.3581 63.1449 80.2657 63.2945 80.1294 63.396L71.12 70.044L72.5214 69.236C72.6645 69.1542 72.8329 69.1284 72.994 69.1636C73.155 69.1987 73.2974 69.2922 73.3935 69.4262C73.4896 69.5601 73.5327 69.7249 73.5145 69.8887C73.4962 70.0526 73.4179 70.2038 73.2947 70.3133L66.5347 76.252C66.5657 76.2876 66.5933 76.326 66.6174 76.3666C66.7058 76.5198 66.7297 76.7017 66.684 76.8725C66.6382 77.0433 66.5265 77.1889 66.3734 77.2773L63.384 79.0106C63.2807 79.0684 63.1637 79.097 63.0454 79.0933Z" fill="#BF6B04"/>
<path d="M82.992 39.0227C84.2187 3.71469 40.6867 -12.88 18.0227 14.124C-4.49596 42.0707 21.4894 81.7507 56.1294 72.6187L59.3734 75.8974C60.9734 77.512 62.2774 79.9254 64.68 79.004C67.9 77.768 71.7627 71.8734 74.1467 69.4574C77.5618 66.0049 80.976 62.5534 84.3894 59.1027C86.8447 56.2448 88.0749 52.5345 87.8133 48.7758C87.5517 45.0171 85.8195 41.513 82.992 39.0227ZM17.1 56.952C12.8983 50.6207 10.8254 43.1143 11.1827 35.5241C11.54 27.9338 14.3088 20.6553 19.0867 14.7467C40.4947 -10.7533 81.7414 4.94803 81.5334 38.0134C80.3668 37.3289 79.0855 36.8622 77.752 36.636C76.968 8.98936 41.4947 -4.34131 22.8187 16.5227C2.7987 38.8907 23.6307 71.9667 51.6694 68.1147L55.056 71.5387C47.9965 73.2347 40.5884 72.7484 33.8112 70.1438C27.034 67.5393 21.2068 62.9394 17.1 56.952ZM42.3947 40.9414C39.2867 35.3267 47.3894 31.216 50.3947 36.6867C47.2864 37.0435 44.4282 38.5636 42.3947 40.9414ZM51.9827 36.5987C51.604 35.5284 50.9301 34.5872 50.0389 33.8839C49.1477 33.1805 48.0757 32.7437 46.9467 32.624V20.0587C46.9467 19.1427 45.72 18.896 45.72 19.9414V32.6414C44.3686 32.8302 43.119 33.4655 42.1701 34.4461C41.2211 35.4267 40.6272 36.6964 40.4827 38.0534H32.936C31.892 38.0534 32.1467 39.28 33.0694 39.28H40.4667C40.5555 40.3092 40.8863 41.3029 41.432 42.18C34.564 52.8867 43.416 60 50.6 67.0214C23.8254 70.2947 5.5067 38.1334 24.0987 17.3334C41.9094 -2.60131 75.4627 10.1614 76.176 36.476C72.0267 36.048 68.176 38.6587 65.2134 41.3467C62.6347 43.1094 63.7827 42.5187 61.1854 40.208C58.6523 37.9364 55.3847 36.6549 51.9827 36.5987ZM83.716 57.9787L70.7734 71.0667C69.3067 72.5547 66.6174 76.5734 64.628 77.2787C62.712 77.9587 61.676 76.0454 60.22 74.5747C59.1987 73.5414 58.1654 72.5147 57.132 71.4894C57.1131 71.4311 57.0807 71.3781 57.0373 71.3347C56.994 71.2914 56.941 71.2589 56.8827 71.24C52.8747 67.2627 48.8267 63.3094 44.992 59.18C37.9534 52.0747 39.4414 38.9254 51.1654 38.1134C51.2321 38.132 51.3026 38.132 51.3694 38.1134C56.0574 37.98 59.88 41.0867 63.2427 44.4947C63.46 44.7147 63.8227 44.5774 64.0067 44.392C75.3507 29.9894 94.2347 43.3654 83.716 57.9787Z" fill="#592B02"/>
<path d="M45.5707 12.196V14.8626C45.5707 15.696 47.096 15.236 47.096 14.4706V11.804C47.096 10.9706 45.5707 11.4306 45.5707 12.196Z" fill="#592B02"/>
<path d="M34.1668 14.968C33.6454 14.064 32.7494 15.1013 33.1668 15.82L34.5001 18.1293C35.0228 19.0333 35.9174 17.996 35.5001 17.2773L34.1668 14.968Z" fill="#592B02"/>
<path d="M24.1213 25.3707L26.4307 26.7041C27.2307 27.1667 27.6307 25.6747 26.976 25.2961L24.6667 23.9627C23.8627 23.5001 23.4667 24.9921 24.1213 25.3707Z" fill="#592B02"/>
<path d="M23.8133 36.5934H21.1467C20.392 36.5934 19.9253 38.0734 20.8533 38.0734H23.52C24.2747 38.0734 24.7413 36.5934 23.8133 36.5934Z" fill="#592B02"/>
<path d="M26.4227 48.1174C25.6107 48.8401 23.5014 49.1081 23.7561 50.4587C23.9521 50.8347 24.3894 50.7147 24.6774 50.5494C25.4894 49.8267 27.5987 49.5587 27.3441 48.2081C27.1481 47.8321 26.7107 47.9521 26.4227 48.1174Z" fill="#592B02"/>
<path d="M34.1547 59.8481C34.5374 58.7694 36.1147 57.5908 35.3814 56.4281C34.292 55.4788 33.796 58.0814 33.1787 58.6948C32.7227 59.2814 33.5334 60.5588 34.1547 59.8481Z" fill="#592B02"/>
<path d="M66.2146 26.7467L68.524 25.4134C69.1906 25.0307 68.7546 23.4974 68.0213 23.9201L65.712 25.2534C65.0506 25.6361 65.4813 27.1694 66.2146 26.7467Z" fill="#592B02"/>
<path d="M58.4934 15.0734C58.1814 16.0281 56.4934 17.4614 57.2387 18.3788C58.4721 18.6708 58.8227 16.4641 59.5054 15.7121C60.0561 14.8254 59.0481 14.1934 58.4934 15.0734Z" fill="#592B02"/>
</g>
<defs>
<clipPath id="clip0_124_27933">
<rect width="80" height="80" fill="white" transform="translate(9)"/>
</clipPath>
</defs>
</svg>
