<svg width="90" height="80" viewBox="0 0 90 80" fill="none" xmlns="http://www.w3.org/2000/svg">
<g clip-path="url(#clip0_124_27935)">
<path d="M38.3146 79.2948C38.0277 79.2948 37.7729 79.1112 37.6822 78.8389C37.5914 78.5667 37.6851 78.2669 37.9146 78.0948L44.2733 73.2001L37.04 77.3721C36.7298 77.5439 36.3394 77.4428 36.1515 77.1421C35.9637 76.8413 36.0441 76.4461 36.3346 76.2428L36.828 75.9108C36.5599 75.9557 36.2907 75.8374 36.1426 75.6094C35.9516 75.3065 36.034 74.9068 36.3293 74.7041L38.0853 73.5041L37.04 74.1068C36.7294 74.2838 36.3344 74.1843 36.1447 73.8812C35.9551 73.5781 36.0383 73.1794 36.3333 72.9774L37.0146 72.5174C36.7078 72.6767 36.3301 72.5749 36.1448 72.2831C35.9595 71.9912 36.028 71.6061 36.3026 71.3961L44.1 65.4214L37.04 69.4921C36.7306 69.6707 36.3355 69.5736 36.144 69.2721C35.9521 68.9702 36.0327 68.5707 36.3266 68.3668L38.9666 66.5374L37.04 67.6494C36.732 67.8163 36.3475 67.7165 36.1597 67.4208C35.9718 67.1252 36.0448 66.7347 36.3266 66.5268L39.1506 64.5628L37.04 65.7814C36.7328 65.9578 36.3413 65.863 36.1487 65.5658C35.956 65.2685 36.0295 64.8725 36.316 64.6641L41.624 60.8321L37.04 63.4774C36.735 63.6522 36.3468 63.5601 36.1527 63.2671C35.9587 62.9741 36.0254 62.5807 36.3053 62.3681L43.5826 56.8761L37.0386 60.6534C36.729 60.8232 36.3407 60.722 36.1532 60.4228C35.9657 60.1235 36.0441 59.73 36.332 59.5254L36.8653 59.1668C36.5891 59.2302 36.3026 59.1154 36.1466 58.8788C35.954 58.5792 36.0309 58.1811 36.3213 57.9748L40.7693 54.8121L37.036 56.9641C36.7291 57.1361 36.3413 57.0401 36.1502 56.7446C35.9592 56.4492 36.0305 56.0561 36.3133 55.8468L41.5533 52.0668L37.036 54.6748C36.7268 54.8522 36.3328 54.755 36.1416 54.4543C35.9503 54.1535 36.0295 53.7555 36.3213 53.5508L39.632 51.2374L37.036 52.7348C36.7319 52.9068 36.3466 52.815 36.1529 52.5242C35.9591 52.2334 36.0228 51.8425 36.2986 51.6281L43.9893 45.7534L37.036 49.7681C36.7261 49.9452 36.3317 49.8469 36.1413 49.545C35.9508 49.2431 36.032 48.8448 36.3253 48.6414L38.2506 47.3188L37.036 48.0201C36.7308 48.1924 36.3444 48.0991 36.1515 47.8065C35.9587 47.5139 36.0253 47.1219 36.304 46.9094L43.1893 41.7641L37.036 45.3161C36.7288 45.4924 36.3373 45.3977 36.1447 45.1004C35.952 44.8032 36.0255 44.4071 36.312 44.1988L41.7786 40.2454L37.0413 42.9788C36.7366 43.1498 36.3516 43.0565 36.1589 42.765C35.9662 42.4736 36.0313 42.0828 36.308 41.8694L43.508 36.4468L37.0413 40.1801C36.7307 40.3571 36.3357 40.2576 36.1461 39.9545C35.9564 39.6515 36.0396 39.2527 36.3346 39.0508L37.012 38.5908C36.7027 38.7494 36.3233 38.6438 36.1406 38.348C35.9579 38.0523 36.033 37.6658 36.3133 37.4601L42.344 33.0428L37.0413 36.1094C36.7352 36.2848 36.3456 36.1913 36.1523 35.8963C35.959 35.6012 36.029 35.2067 36.312 34.9961L42.6333 30.3374L37.0413 33.5641C36.7371 33.7339 36.3534 33.6408 36.1608 33.3504C35.9683 33.06 36.0318 32.6703 36.3066 32.4561L43.7333 26.8161L37.036 30.6828C36.7322 30.8515 36.3497 30.7585 36.1573 30.4691C35.9648 30.1797 36.0269 29.7911 36.3 29.5761L43.9453 23.7454L37.0386 27.7334C36.7323 27.9134 36.3386 27.8214 36.1437 27.5244C35.9487 27.2273 36.021 26.8296 36.308 26.6201L42.9746 21.6694L37.0426 25.0948C36.7328 25.2719 36.3384 25.1736 36.1479 24.8717C35.9575 24.5698 36.0386 24.1715 36.332 23.9681L38.4573 22.5014L37.0426 23.3188C36.7361 23.4959 36.3446 23.4025 36.151 23.1061C35.9574 22.8096 36.0293 22.4136 36.3146 22.2041L42.544 17.6214L37.0386 20.8001C36.7341 20.9734 36.3474 20.8815 36.1535 20.5896C35.9597 20.2977 36.0248 19.9056 36.3026 19.6921L43.7853 14.0121L37.0386 17.9068C36.7295 18.0842 36.3355 17.987 36.1442 17.6863C35.953 17.3855 36.0322 16.9875 36.324 16.7828L39.5613 14.5161L37.0386 15.9721C36.7354 16.1419 36.3526 16.0503 36.1591 15.7616C35.9657 15.4729 36.0264 15.0841 36.2986 14.8681L44.152 8.80277L37.0386 12.9094C36.7362 13.0827 36.3514 12.9938 36.1556 12.7054C35.9599 12.417 36.0193 12.0265 36.292 11.8094L42.8946 6.5681L37.0386 9.95344C36.7321 10.1305 36.3406 10.0371 36.147 9.74072C35.9534 9.44431 36.0253 9.04827 36.3106 8.83877L37.424 8.02144L37.0386 8.2441C36.7467 8.41053 36.3765 8.33365 36.175 8.06472C35.9735 7.79579 36.0036 7.41891 36.2453 7.18544L38.8293 4.70544L37.0386 5.7401C36.7692 5.89582 36.4278 5.84438 36.2162 5.61618C36.0046 5.38797 35.9791 5.04372 36.1546 4.78677L37.1613 3.30944C36.8482 3.34157 36.5553 3.15032 36.4587 2.85072C36.3622 2.55113 36.4883 2.22483 36.7613 2.0681L38.9426 0.810768C39.2121 0.655055 39.5534 0.70649 39.7651 0.934694C39.9767 1.1629 40.0022 1.50715 39.8266 1.7641L38.8933 3.12544L42.9333 0.800102C43.2258 0.621096 43.6064 0.69321 43.8132 0.966815C44.0199 1.24042 43.9854 1.62625 43.7333 1.85877L41.1426 4.33344L47.2733 0.800102C47.5799 0.623004 47.9714 0.716404 48.165 1.01282C48.3586 1.30923 48.2867 1.70527 48.0013 1.91477L46.8866 2.73344L50.052 0.900102C50.3546 0.723225 50.7425 0.810933 50.9397 1.1008C51.1368 1.39067 51.0757 1.78368 50.8 2.0001L44.1973 7.24144L52.0906 2.68277C52.3948 2.50435 52.7853 2.59361 52.9817 2.88645C53.1781 3.17929 53.1125 3.57443 52.832 3.7881L44.9773 9.85344L52.2933 5.62944C52.6025 5.45202 52.9965 5.54916 53.1877 5.84995C53.379 6.15074 53.2998 6.54875 53.008 6.75344L49.7706 9.0201L52.2933 7.55877C52.5978 7.38544 52.9845 7.47742 53.1784 7.76928C53.3723 8.06114 53.3071 8.45327 53.0293 8.66677L45.5466 14.3468L52.2933 10.4521C52.5999 10.275 52.9914 10.3684 53.185 10.6648C53.3786 10.9612 53.3067 11.3573 53.0213 11.5668L46.792 16.1494L52.2933 12.9734C52.6032 12.7963 52.9976 12.8947 53.188 13.1965C53.3784 13.4984 53.2973 13.8967 53.004 14.1001L50.8786 15.5668L52.2933 14.7508C52.5989 14.577 52.9869 14.6704 53.18 14.9642C53.373 15.258 53.3047 15.6512 53.024 15.8628L46.3573 20.8148L52.292 17.3894C52.5958 17.2208 52.9783 17.3137 53.1707 17.6031C53.3631 17.8925 53.301 18.2811 53.028 18.4961L45.3826 24.3268L52.292 20.3388C52.5962 20.169 52.9799 20.2621 53.1725 20.5525C53.365 20.8429 53.3015 21.2326 53.0266 21.4468L45.6 27.0788L52.2973 23.2121C52.6042 23.0299 53.0001 23.1217 53.1956 23.4203C53.391 23.719 53.3165 24.1185 53.0266 24.3268L46.708 28.9828L52.2973 25.7561C52.6047 25.5711 53.0034 25.6626 53.1994 25.9631C53.3955 26.2636 53.3185 26.6653 53.0253 26.8721L46.992 31.2908L52.2973 28.2241C52.6079 28.0471 53.0029 28.1466 53.1926 28.4497C53.3822 28.7528 53.299 29.1515 53.004 29.3534L52.3266 29.8121C52.6348 29.6542 53.0126 29.7585 53.1961 30.0521C53.3796 30.3458 53.3077 30.731 53.0306 30.9388L45.8306 36.3614L52.2973 32.6281C52.6045 32.4518 52.996 32.5465 53.1886 32.8438C53.3813 33.1411 53.3078 33.5371 53.0213 33.7454L47.5546 37.7001L52.292 34.9654C52.5971 34.7931 52.9836 34.8865 53.1764 35.1791C53.3693 35.4717 53.3027 35.8636 53.024 36.0761L46.1386 41.2201L52.292 37.6681C52.6019 37.491 52.9963 37.5893 53.1867 37.8912C53.3771 38.1931 53.296 38.5914 53.0026 38.7948L51.0813 40.1134L52.292 39.4161C52.5961 39.2441 52.9814 39.3359 53.1751 39.6267C53.3688 39.9174 53.3052 40.3084 53.0293 40.5228L45.3413 46.4001L52.2946 42.3854C52.6038 42.208 52.9978 42.3052 53.1891 42.606C53.3803 42.9067 53.3011 43.3048 53.0093 43.5094L49.6986 45.8228L52.2946 44.3254C52.6016 44.1534 52.9893 44.2495 53.1804 44.5449C53.3715 44.8404 53.3001 45.2334 53.0173 45.4428L47.7773 49.2228L52.2946 46.6148C52.6026 46.4391 52.9941 46.5352 53.1858 46.8333C53.3774 47.1315 53.3023 47.5276 53.0147 47.7348L48.56 50.9054L52.2933 48.7508C52.603 48.581 52.9913 48.6822 53.1787 48.9814C53.3662 49.2807 53.2878 49.6742 53 49.8788L52.4666 50.2374C52.7394 50.1744 53.0229 50.2856 53.18 50.5174C53.374 50.8115 53.3056 51.2058 53.024 51.4174L45.7546 56.9054L52.288 53.1321C52.5952 52.9558 52.9867 53.0505 53.1793 53.3478C53.3719 53.6451 53.2984 54.0411 53.012 54.2494L47.704 58.0814L52.288 55.4348C52.5968 55.2622 52.9865 55.3609 53.1761 55.6595C53.3656 55.9582 53.2889 56.3528 53.0013 56.5588L50.1773 58.5228L52.288 57.3041C52.5968 57.1316 52.9865 57.2302 53.1761 57.5289C53.3656 57.8275 53.2889 58.2222 53.0013 58.4281L50.3586 60.2668L52.2946 59.1494C52.5981 58.9818 52.9793 59.0746 53.1717 59.363C53.364 59.6514 53.3033 60.039 53.032 60.2548L45.2346 66.2308L52.3013 62.1548C52.6119 61.9778 53.0069 62.0773 53.1966 62.3804C53.3862 62.6834 53.303 63.0822 53.008 63.2841L52.3413 63.7401C52.6548 63.5807 53.0382 63.6923 53.2173 63.995C53.3963 64.2978 53.3094 64.6875 53.0186 64.8854L51.252 66.0974L52.308 65.4881C52.6192 65.3077 53.0175 65.4068 53.2079 65.712C53.3983 66.0173 53.3122 66.4185 53.0133 66.6188L52.52 66.9521C52.8227 66.8968 53.124 67.0558 53.249 67.337C53.3741 67.6181 53.2905 67.9484 53.0466 68.1361L46.6666 73.0348L52.292 69.7881C52.5924 69.6194 52.9719 69.7074 53.1674 69.9911C53.3629 70.2749 53.31 70.6608 53.0453 70.8814L49.3746 73.8668L52.2946 72.1828C52.5917 72.015 52.9675 72.0986 53.1654 72.3765C53.3634 72.6544 53.3196 73.0368 53.064 73.2628L51.5973 74.5281L52.2933 74.1281C52.5632 73.9744 52.9034 74.0274 53.1138 74.2559C53.3241 74.4844 53.3488 74.8279 53.1733 75.0841L52.1506 76.5508L52.2933 76.4694C52.6119 76.2883 53.0169 76.3983 53.2002 76.7156C53.3834 77.033 53.2761 77.4388 52.96 77.6241L50.2373 79.2001C49.9674 79.3538 49.6272 79.3008 49.4168 79.0723C49.2065 78.8438 49.1818 78.5003 49.3573 78.2441L50.3786 76.7708L46.168 79.2001C45.8709 79.3679 45.4951 79.2843 45.2972 79.0064C45.0993 78.7285 45.143 78.3461 45.3986 78.1201L46.8653 76.8561L42.8 79.2001C42.4994 79.3718 42.1173 79.2848 41.9207 78.9999C41.724 78.715 41.7782 78.327 42.0453 78.1068L45.72 75.1188L38.6533 79.2001C38.5511 79.2618 38.434 79.2946 38.3146 79.2948Z" fill="#BF6B04"/>
<path d="M26.332 55.2948C26.033 55.2953 25.7702 55.0966 25.6891 54.8088C25.6081 54.5209 25.7286 54.2143 25.984 54.0588L34.4573 48.8881L23.5147 55.2001C23.2005 55.3731 22.8058 55.2666 22.6213 54.959C22.4368 54.6515 22.5288 54.2531 22.8293 54.0574L44.388 40.6801L19.2307 55.2001C18.9165 55.3731 18.5218 55.2666 18.3373 54.959C18.1528 54.6515 18.2448 54.2531 18.5453 54.0574L43.3933 38.6334L14.6893 55.2001C14.3743 55.3743 13.9779 55.2669 13.7938 54.9575C13.6098 54.6481 13.7046 54.2485 14.008 54.0548L34.104 41.7468L12.4253 54.2668C12.1109 54.4348 11.7199 54.3257 11.5378 54.0191C11.3558 53.7126 11.4472 53.317 11.7453 53.1214L32.3627 40.5014L11.7067 52.4201C11.393 52.5876 11.0032 52.4795 10.8206 52.1745C10.6379 51.8694 10.7269 51.4747 11.0227 51.2774L39.0227 33.9121L11.7067 49.6788C11.3907 49.8588 10.9887 49.7524 10.8032 49.4396C10.6177 49.1268 10.7171 48.723 11.0267 48.5321L26.736 38.9241L11.7067 47.6001C11.3922 47.7682 11.0012 47.6591 10.8192 47.3525C10.6371 47.0459 10.7286 46.6504 11.0267 46.4548L22.1787 39.6441L11.7067 45.6894C11.3896 45.8768 10.9807 45.7718 10.7933 45.4548C10.6059 45.1377 10.711 44.7288 11.028 44.5414L12.2587 43.7961L11.7053 44.1148C11.391 44.2852 10.9983 44.1773 10.8151 43.8703C10.6318 43.5633 10.7234 43.1664 11.0227 42.9708L23.0413 35.5574L11.708 42.1014C11.3953 42.2709 11.0048 42.1651 10.8203 41.861C10.6359 41.557 10.7226 41.1617 11.0173 40.9628L31.6173 27.8334L11.7053 39.3334C11.3922 39.5085 10.9967 39.4043 10.8103 39.0977C10.624 38.7912 10.7137 38.3921 11.0133 38.1948L28.4107 27.0494L11.7053 36.6881C11.393 36.8626 10.9986 36.7595 10.8117 36.4544C10.6248 36.1493 10.712 35.7511 11.0093 35.5521L27.04 25.1188L11.7067 33.9721C11.3937 34.1595 10.9883 34.0606 10.7968 33.7502C10.6052 33.4397 10.6988 33.033 11.0067 32.8374L24.5013 23.9508L11.7013 31.3374C11.3874 31.5214 10.984 31.4197 10.7948 31.109C10.6056 30.7982 10.7005 30.3932 11.008 30.1988L17.2133 26.1988L11.7053 29.3801C11.3951 29.5519 11.0047 29.4508 10.8169 29.1501C10.629 28.8493 10.7095 28.4541 11 28.2508L20.0667 22.1361L11.7053 26.9601C11.3954 27.1372 11.001 27.0389 10.8106 26.737C10.6202 26.4351 10.7013 26.0368 10.9947 25.8334L18 21.0134L11.7053 24.6441C11.3944 24.8157 11.0035 24.7135 10.8164 24.4116C10.6293 24.1096 10.7118 23.7141 11.004 23.5121L11.5907 23.1214C11.2792 23.2313 10.9343 23.0966 10.7798 22.8048C10.6252 22.513 10.7075 22.152 10.9733 21.9561L15.8 18.3681L11.7053 20.7321C11.4043 20.9047 11.0212 20.8175 10.8245 20.5317C10.6278 20.2459 10.6833 19.8569 10.952 19.6374L14.408 16.8374L11.7053 18.4001C11.4189 18.5639 11.0557 18.4936 10.8512 18.2346C10.6467 17.9757 10.6623 17.6061 10.888 17.3654L13.2107 14.9094L11.7053 15.7788C11.4264 15.9387 11.0732 15.8768 10.8652 15.6316C10.6573 15.3864 10.654 15.0278 10.8573 14.7788L11.54 13.9441C11.392 13.8916 11.268 13.7874 11.1907 13.6508C11.0063 13.3323 11.115 12.9246 11.4333 12.7401L13.6093 11.4828C13.8883 11.3212 14.2429 11.3823 14.4516 11.6281C14.6603 11.8738 14.6633 12.2336 14.4587 12.4828L14.2 12.8001L16.5053 11.4668C16.7921 11.3009 17.1572 11.3708 17.3624 11.631C17.5677 11.8911 17.5507 12.2624 17.3227 12.5028L15 14.9534L21.0453 11.4668C21.3465 11.2908 21.7325 11.3768 21.9304 11.664C22.1284 11.9512 22.0716 12.3425 21.8 12.5614L18.3413 15.3614L25.0947 11.4668C25.4005 11.2888 25.7922 11.3808 25.9868 11.6764C26.1814 11.972 26.1111 12.3682 25.8267 12.5788L21.0013 16.1628L29.1413 11.4668C29.4527 11.2896 29.8484 11.3903 30.0374 11.6946C30.2263 11.999 30.1409 12.3983 29.844 12.5988L29.4133 12.8868L31.8667 11.4668C32.176 11.2921 32.5679 11.3907 32.7578 11.6908C32.9477 11.991 32.8689 12.3874 32.5787 12.5921L25.5773 17.4134L35.8813 11.4668C36.1915 11.2949 36.5819 11.396 36.7698 11.6968C36.9576 11.9976 36.8772 12.3927 36.5867 12.5961L27.52 18.7108L40.0747 11.4668C40.3871 11.2949 40.7795 11.3994 40.9652 11.7039C41.1508 12.0084 41.0639 12.4051 40.768 12.6041L34.572 16.6041L43.4667 11.4668C43.7796 11.2794 44.185 11.3782 44.3766 11.6887C44.5681 11.9991 44.4745 12.4058 44.1667 12.6014L30.6667 21.4841L48.028 11.4668C48.3403 11.2922 48.7347 11.3954 48.9216 11.7005C49.1085 12.0055 49.0213 12.4037 48.724 12.6028L32.688 23.0334L52.732 11.4668C53.0451 11.2917 53.4407 11.3959 53.627 11.7025C53.8133 12.009 53.7236 12.4081 53.424 12.6054L36.0307 23.7441L57.3053 11.4668C57.6162 11.3036 58.0004 11.4095 58.1837 11.709C58.367 12.0084 58.2867 12.3987 58 12.6014L37.396 25.7334L62.1093 11.4668C62.4256 11.2779 62.8351 11.3811 63.024 11.6974C63.2129 12.0137 63.1096 12.4232 62.7933 12.6121L50.756 20.0348L65.6 11.4668C65.917 11.2793 66.3259 11.3844 66.5133 11.7014C66.7007 12.0184 66.5957 12.4273 66.2787 12.6148L65.0493 13.3601L68.3253 11.4668C68.642 11.2786 69.0512 11.3828 69.2393 11.6994C69.4275 12.0161 69.3233 12.4253 69.0067 12.6134L57.884 19.4001L71.6347 11.4668C71.9506 11.2867 72.3526 11.3931 72.5381 11.7059C72.7237 12.0187 72.6242 12.4225 72.3147 12.6134L56.6013 22.2188L74.852 11.6854C75.1669 11.508 75.5659 11.6139 75.7514 11.9241C75.9369 12.2344 75.8414 12.636 75.536 12.8294L47.536 30.1988L76.6667 13.3814C76.9817 13.2072 77.3781 13.3146 77.5622 13.624C77.7462 13.9334 77.6514 14.333 77.348 14.5268L56.7253 27.1454L77.696 15.0388C78.011 14.8646 78.4075 14.972 78.5915 15.2814C78.7756 15.5907 78.6807 15.9904 78.3773 16.1841L58.2667 28.5028L78.7253 16.6921C78.9297 16.5697 79.1838 16.5656 79.392 16.6813C79.6002 16.7971 79.7308 17.0151 79.7347 17.2533C79.7385 17.4915 79.615 17.7137 79.4107 17.8361L54.5707 33.2614L79.9333 18.6188C80.1377 18.4963 80.3918 18.4922 80.6 18.608C80.8082 18.7238 80.9388 18.9418 80.9427 19.18C80.9465 19.4182 80.823 19.6403 80.6187 19.7628L59.0587 33.1441L81.0667 20.4361C81.3826 20.256 81.7846 20.3624 81.9701 20.6753C82.1557 20.9881 82.0562 21.3919 81.7467 21.5828L73.2787 26.7508L81.9013 21.7734C82.2155 21.6004 82.6102 21.7069 82.7947 22.0145C82.9791 22.322 82.8872 22.7204 82.5867 22.9161L63.012 35.1614L83.044 23.6001C83.2479 23.477 83.502 23.4719 83.7105 23.5869C83.9191 23.7019 84.0505 23.9195 84.0552 24.1576C84.0599 24.3957 83.9372 24.6183 83.7333 24.7414L64.2253 37.0481L84.2253 25.4988C84.5404 25.3246 84.9368 25.432 85.1208 25.7414C85.3049 26.0507 85.2101 26.4504 84.9067 26.6441L83.852 27.2881L84.9493 26.6548C85.2632 26.4754 85.6629 26.5789 85.8503 26.8881C86.0376 27.1974 85.9443 27.5996 85.64 27.7948L67.98 39.0668L86.1547 28.5734C86.4678 28.3984 86.8633 28.5025 87.0496 28.8091C87.236 29.1157 87.1463 29.5147 86.8467 29.7121L72.4173 38.9121L87.2613 30.3428C87.5769 30.1528 87.9867 30.2546 88.1767 30.5701C88.3666 30.8856 88.2649 31.2954 87.9493 31.4854L81.7493 35.3654L88.0413 31.7334C88.3543 31.546 88.7597 31.6449 88.9512 31.9553C89.1427 32.2658 89.0492 32.6725 88.7413 32.8681L74.0747 42.5094L87.5413 34.7348C87.8558 34.5429 88.2662 34.6423 88.458 34.9568C88.6498 35.2712 88.5504 35.6816 88.236 35.8734L81.408 40.2668L85.5867 37.8534C85.9005 37.6695 86.3039 37.7711 86.4931 38.0819C86.6824 38.3926 86.5875 38.7977 86.28 38.9921L84.2973 40.2614C84.5503 40.2344 84.796 40.3559 84.928 40.5734C85.1175 40.8784 85.0314 41.2786 84.7333 41.4788L80.8667 44.0681L82.1733 43.3134C82.4783 43.1387 82.8665 43.2307 83.0606 43.5238C83.2546 43.8168 83.1879 44.2102 82.908 44.4228L77.4133 48.5561L79.7373 47.2148C80.0401 47.046 80.4218 47.1374 80.6152 47.4251C80.8086 47.7128 80.7492 48.1007 80.4787 48.3174L78.4627 49.8801C78.6268 49.9087 78.7745 49.9971 78.8773 50.1281C79.082 50.3907 79.0615 50.7641 78.8293 51.0028L77.0453 52.8401C77.2049 52.9825 77.2864 53.1929 77.2645 53.4057C77.2426 53.6185 77.1199 53.8078 76.9347 53.9148L74.732 55.1868C74.4436 55.3552 74.075 55.2842 73.8698 55.0207C73.6646 54.7572 73.686 54.3825 73.92 54.1441L74.536 53.5108L71.6 55.2001C71.2972 55.3689 70.9156 55.2774 70.7221 54.9897C70.5287 54.702 70.5881 54.3141 70.8587 54.0974L71.9987 53.2108L68.5533 55.2001C68.2484 55.3748 67.8601 55.2828 67.6661 54.9897C67.472 54.6967 67.5388 54.3034 67.8187 54.0908L73.312 49.9574L64.2373 55.2001C63.9271 55.3719 63.5367 55.2708 63.3489 54.9701C63.161 54.6693 63.2415 54.2741 63.532 54.0708L67.3853 51.4894L60.9533 55.2001C60.6408 55.372 60.2485 55.2675 60.0628 54.963C59.8772 54.6585 59.9641 54.2618 60.26 54.0628L61.144 53.4961L58.192 55.2001C57.879 55.3783 57.481 55.2756 57.2933 54.9682C57.1055 54.6608 57.1959 54.2599 57.4973 54.0628L64.32 49.6721L54.7427 55.2001C54.4311 55.3743 54.0376 55.2723 53.85 54.9686C53.6624 54.6649 53.7474 54.2673 54.0427 54.0668L68.7173 44.4268L50.0507 55.2041C49.7366 55.38 49.3397 55.2749 49.1538 54.9667C48.968 54.6584 49.0604 54.2583 49.3627 54.0628L55.5627 50.1828L46.8627 55.2001C46.55 55.3695 46.1594 55.2637 45.975 54.9597C45.7906 54.6557 45.8773 54.2604 46.172 54.0614L60.5933 44.8614L42.6933 55.2001C42.3828 55.3598 42.0017 55.2528 41.8196 54.9548C41.6375 54.6569 41.7162 54.2689 42 54.0654L59.6773 42.7828L38.1613 55.2001C37.8463 55.3743 37.4499 55.2669 37.2658 54.9575C37.0818 54.6481 37.1766 54.2485 37.48 54.0548L38.5147 53.4228L35.4347 55.2001C35.1218 55.3673 34.7329 55.2603 34.5496 54.9566C34.3664 54.6529 34.453 54.2589 34.7467 54.0601L54.2493 41.7548L30.9627 55.2001C30.6492 55.3699 30.2576 55.2631 30.0739 54.9576C29.8901 54.6521 29.9791 54.2561 30.276 54.0588L49.8667 41.8094L26.6667 55.2001C26.5654 55.2607 26.45 55.2934 26.332 55.2948Z" fill="#FFD34E"/>
<path d="M10.368 45.9174C10.368 49.2507 9.18132 53.9334 13.2013 55.02C13.2381 55.0242 13.2752 55.0242 13.312 55.02C13.3296 55.0237 13.3474 55.0263 13.3653 55.028H35.6973V73.8947C35.6973 75.9307 35.0813 78.2374 37.2387 79.156C39.2773 80.024 43.1227 79.2547 45.2493 79.2547C47.0613 79.2547 50.9893 80.0187 52.6707 78.7214C54.0773 77.6334 53.636 75.6134 53.636 74.0227V55.032H65.7187C69.5053 55.032 74.6813 56.0987 77.5987 53.1454C80.3987 50.308 82.3173 45.596 84.4227 42.2267C85.8613 39.9254 89.6227 35.992 89.632 33.0747C89.644 29.4054 84.156 23.5467 82.3493 20.656C80.556 17.788 78.6893 12.5667 75.132 11.6467C75.0974 11.6432 75.0626 11.6432 75.028 11.6467C75.0083 11.6419 74.9882 11.6388 74.968 11.6374H53.6253C53.6253 11.6147 53.644 11.596 53.644 11.5734C53.644 8.95738 54.396 5.21204 53.416 2.73738C52.2053 -0.321291 47.2813 0.640042 44.756 0.640042C42.256 0.640042 37.908 -0.198625 36.26 2.32138C34.8093 4.53738 35.6173 8.77338 35.6787 11.416C28.92 11.1302 22.1509 11.2032 15.4 11.6347C8.10932 12.224 10.368 20.276 10.368 25.8094V45.9174ZM51.7013 77.2387C51.1787 78.4107 51.32 77.9574 49.7933 78.0747C48.2307 78.196 46.6 78.0747 45.0347 78.0747C43.168 78.0747 38.6493 79.0214 37.64 77.0987C36.9067 75.7 37.64 72.0587 37.64 70.4934V55.0267H51.6973V70.708C51.6973 72.3587 52.38 75.708 51.6973 77.2387H51.7013ZM37.644 4.18538C38.424 1.03071 41.8533 2.02671 44.2573 2.02671C46.7133 2.02671 51.2107 1.01338 51.6893 4.34004C51.8607 6.76858 51.8607 9.20617 51.6893 11.6347H47.4667C44.2227 11.6347 40.9413 11.5534 37.648 11.4667C37.6267 9.21738 37.1133 6.33738 37.644 4.18538ZM12.2987 14.6534C13.2 11.2467 16.204 12.3654 19.1373 12.3654H73.5653C77.7133 13.4774 81.1027 22.2694 83.1893 25.608C85.432 29.1974 88.464 32.0214 86.5107 36.208C84.2667 41.0187 80.6933 45.5174 77.8773 50.024C75.9213 53.1507 75.6587 54.3014 72.076 54.3014H53.556C53.3053 53.948 52.512 54.02 52.0467 54.3014H37.556C37.3053 53.948 36.512 54.02 36.0467 54.3014H14.7693C10.8347 53.2 12.2987 45.9534 12.2987 43.2254V25.292C12.2987 22.1694 11.4853 17.712 12.2987 14.6534Z" fill="#592B02"/>
<path d="M40.612 31.2414C41.748 32.9827 43.2106 33.3214 45.0346 33.8294V42.8001C44.0525 42.6202 43.1768 42.0705 42.588 41.2641C41.9869 40.4291 41.6536 39.4313 41.632 38.4027C41.5653 37.7361 39.624 38.1641 39.7013 38.9201C39.967 41.7815 42.1838 44.0749 45.0346 44.4374V46.9201C45.0346 47.4294 46.9653 47.0947 46.9653 46.4027V44.4467C48.7487 44.194 50.3371 43.186 51.3253 41.6801C53.0185 39.1092 52.3793 35.6601 49.8773 33.8667C48.9887 33.3401 47.994 33.018 46.9653 32.9241V23.4827C48.9962 24.1939 50.3591 26.1069 50.368 28.2587C50.384 28.8961 52.32 28.5107 52.2986 27.7414C52.1911 24.8003 49.8989 22.4055 46.9653 22.1694V19.7414C46.9653 19.2321 45.0346 19.5667 45.0346 20.2587V22.3121C41.132 23.2867 37.9826 27.2107 40.612 31.2414ZM41.7413 28.8161C41.1904 26.4151 42.6501 24.0116 45.0346 23.3934V32.3041C43.3826 31.8295 42.1203 30.4926 41.7413 28.8161ZM50.2573 39.8574C49.8617 41.4189 48.5605 42.5857 46.9653 42.8094V34.4921C49.2 35.4414 50.844 36.9921 50.2573 39.8574Z" fill="#592B02"/>
<path d="M40.284 17.8573C40.9813 17.8573 42.3453 16.8093 41.0493 16.8093H17.0493C16.352 16.8093 14.988 17.8573 16.284 17.8573H40.284Z" fill="#592B02"/>
<path d="M70.9613 17.8948C71.7053 17.8948 73.0053 16.7721 71.7053 16.7721H51.7053C50.9613 16.7721 49.6613 17.8948 50.9613 17.8948H70.9613Z" fill="#592B02"/>
<path d="M41.2973 48.9574H17.2973C16.9067 48.9574 15.1213 49.7094 16.036 49.7094H40.036C40.4267 49.7094 42.212 48.9574 41.2973 48.9574Z" fill="#592B02"/>
<path d="M71.4253 48.6481H51.4253C50.3386 48.6481 49.928 50.0187 51.2413 50.0187H71.2413C72.328 50.0187 72.7386 48.6481 71.4253 48.6481Z" fill="#592B02"/>
</g>
<defs>
<clipPath id="clip0_124_27935">
<rect width="80" height="80" fill="white" transform="translate(10)"/>
</clipPath>
</defs>
</svg>
