<svg width="90" height="80" viewBox="0 0 90 80" fill="none" xmlns="http://www.w3.org/2000/svg">
<g clip-path="url(#clip0_124_27934)">
<path d="M17.028 59.7881C16.8796 59.7881 16.7353 59.7398 16.6168 59.6505C16.4983 59.5612 16.4121 59.4358 16.3712 59.2931C16.3303 59.1505 16.3369 58.9984 16.3901 58.8599C16.4432 58.7214 16.54 58.6039 16.6659 58.5253L36.7996 45.8986L12.8966 59.6951C12.742 59.7801 12.5606 59.8021 12.3903 59.7564C12.2199 59.7107 12.0738 59.6009 11.9826 59.45C11.8913 59.299 11.8619 59.1187 11.9006 58.9466C11.9393 58.7745 12.043 58.624 12.19 58.5266L36.7695 43.0655L10.8808 58.0128C10.7259 58.0995 10.5434 58.1226 10.3719 58.0772C10.2003 58.0318 10.0531 57.9214 9.96151 57.7694C9.86989 57.6174 9.84099 57.4358 9.88094 57.2628C9.92089 57.0899 10.0265 56.9393 10.1756 56.8429L36.5891 40.1873L8.98519 56.1268C8.82951 56.2196 8.64335 56.2467 8.46766 56.2022C8.29196 56.1578 8.14113 56.0453 8.04834 55.8897C7.95555 55.734 7.9284 55.5478 7.97287 55.3721C8.01734 55.1964 8.12978 55.0456 8.28546 54.9528L26.3487 43.7912L7.51602 54.659C7.36087 54.7484 7.1768 54.7734 7.00342 54.7285C6.83005 54.6837 6.68122 54.5725 6.58897 54.419C6.49672 54.2655 6.46843 54.0819 6.51017 53.9077C6.55192 53.7336 6.66037 53.5828 6.81219 53.4877L31.2304 38.1906L7.11559 52.1115C6.96093 52.1953 6.77993 52.2162 6.61024 52.1699C6.44056 52.1236 6.29526 52.0137 6.20458 51.8629C6.11391 51.7122 6.08484 51.5324 6.12343 51.3608C6.16202 51.1892 6.26529 51.039 6.41176 50.9416L28.6433 37.0194L7.11559 49.4479C6.96044 49.5308 6.77929 49.5507 6.60985 49.5034C6.44041 49.4561 6.29572 49.3453 6.20591 49.1941C6.11611 49.0428 6.0881 48.8627 6.12771 48.6913C6.16732 48.5199 6.27151 48.3704 6.41859 48.2739L13.7098 43.8076L7.11559 47.6138C6.96066 47.6991 6.77867 47.7211 6.60791 47.675C6.43714 47.6289 6.29089 47.5184 6.19991 47.3667C6.10894 47.215 6.08032 47.034 6.12008 46.8616C6.15985 46.6893 6.26489 46.5391 6.41312 46.4426L20.3531 37.756L7.11559 45.3998C6.96131 45.4834 6.78077 45.5045 6.61138 45.4586C6.442 45.4127 6.29676 45.3035 6.20575 45.1534C6.11474 45.0034 6.08494 44.8241 6.12253 44.6527C6.16012 44.4813 6.26221 44.3309 6.40766 44.2327L23.3461 33.4674L7.11559 42.8373C6.96202 42.9209 6.78226 42.9424 6.6133 42.8975C6.44434 42.8525 6.29904 42.7445 6.20729 42.5957C6.11555 42.4469 6.08433 42.2685 6.12008 42.0974C6.15582 41.9262 6.25581 41.7753 6.39946 41.6756L25.2116 29.3264L7.11559 39.7732C6.96066 39.8586 6.77867 39.8805 6.60791 39.8344C6.43714 39.7883 6.29089 39.6778 6.19991 39.5262C6.10894 39.3745 6.08032 39.1934 6.12008 39.0211C6.15985 38.8487 6.26489 38.6985 6.41312 38.602L7.77979 37.7478L7.11012 38.1332C6.95678 38.2192 6.77621 38.2428 6.60594 38.199C6.43568 38.1553 6.28882 38.0476 6.1959 37.8984C6.10298 37.7491 6.07115 37.5698 6.10703 37.3977C6.1429 37.2256 6.24372 37.074 6.38852 36.9743L20.5458 27.4678L7.11559 35.2168C6.96136 35.3065 6.77817 35.3323 6.60516 35.2887C6.43215 35.2451 6.28305 35.1356 6.18971 34.9836C6.09637 34.8315 6.0662 34.649 6.10565 34.475C6.1451 34.301 6.25104 34.1493 6.40082 34.0524L12.9895 29.7501L7.11286 33.1408C6.96108 33.2266 6.78226 33.2511 6.613 33.2094C6.44374 33.1676 6.29683 33.0627 6.20236 32.9162C6.10788 32.7697 6.07298 32.5926 6.10479 32.4212C6.1366 32.2498 6.23273 32.097 6.37349 31.9942L16.9515 24.431L7.11149 30.1123C6.95908 30.2013 6.77812 30.2279 6.60654 30.1865C6.43495 30.1451 6.28604 30.0389 6.19101 29.8902C6.09597 29.7414 6.06217 29.5617 6.0967 29.3886C6.13122 29.2155 6.23139 29.0624 6.37622 28.9615L11.97 25.0269L7.11559 27.8368C6.96674 27.9237 6.79054 27.9512 6.62229 27.9137C6.45404 27.8762 6.30618 27.7765 6.20834 27.6346C6.1105 27.4927 6.06991 27.319 6.09471 27.1484C6.11951 26.9778 6.20786 26.8229 6.34206 26.7147L12.5618 21.6403L7.11559 24.7836C6.96565 24.8692 6.78889 24.8949 6.62081 24.8554C6.45274 24.816 6.30582 24.7144 6.20958 24.5711C6.11334 24.4278 6.07491 24.2533 6.10202 24.0829C6.12914 23.9124 6.21977 23.7584 6.35572 23.652L7.93969 22.422L7.11969 22.8963C6.98075 22.9763 6.81808 23.005 6.66015 22.9772C6.50223 22.9494 6.3591 22.867 6.25582 22.7443C6.15254 22.6216 6.09569 22.4666 6.09521 22.3062C6.09474 22.1459 6.15067 21.9905 6.25322 21.8672L8.31006 19.3976C8.14983 19.471 7.96744 19.4796 7.80099 19.4217C7.63454 19.3638 7.49691 19.2438 7.41682 19.0868C7.33674 18.9299 7.32041 18.748 7.37124 18.5792C7.42207 18.4105 7.53612 18.2679 7.68959 18.1813L10.9368 16.3062C11.0757 16.2253 11.2388 16.196 11.3972 16.2235C11.5556 16.2509 11.6993 16.3333 11.803 16.4562C11.9066 16.5792 11.9636 16.7347 11.9639 16.8955C11.9642 17.0563 11.9078 17.212 11.8046 17.3353L9.75462 19.7953L15.9484 16.2201C16.0983 16.1327 16.276 16.1057 16.4452 16.1445C16.6144 16.1833 16.7625 16.2851 16.8594 16.4291C16.9563 16.5732 16.9947 16.7487 16.9669 16.92C16.9391 17.0914 16.8471 17.2457 16.7096 17.3517L15.1215 18.5817L19.2147 16.2201C19.3632 16.1343 19.5385 16.1075 19.7058 16.145C19.8732 16.1824 20.0203 16.2815 20.1181 16.4224C20.2151 16.5645 20.255 16.7381 20.2297 16.9084C20.2043 17.0786 20.1157 17.2331 19.9814 17.3408L13.7631 22.4152L24.4996 16.2201C24.6517 16.1347 24.8307 16.1106 25 16.1529C25.1692 16.1952 25.3159 16.3007 25.4099 16.4476C25.5039 16.5946 25.5382 16.772 25.5056 16.9434C25.4731 17.1147 25.3762 17.2672 25.2349 17.3695L19.6411 21.3041L28.4506 16.2201C28.6024 16.1329 28.7818 16.1072 28.9519 16.1484C29.1221 16.1896 29.2699 16.2945 29.3649 16.4415C29.4604 16.5889 29.4955 16.7673 29.4629 16.9398C29.4303 17.1123 29.3326 17.2657 29.19 17.3681L18.6106 24.9299L33.7 16.2201C33.8539 16.1326 34.0359 16.1083 34.2074 16.1522C34.379 16.1962 34.5267 16.3051 34.6196 16.4559C34.7124 16.6067 34.7431 16.7876 34.7052 16.9606C34.6672 17.1336 34.5636 17.2851 34.4161 17.3831L27.8247 21.6868L37.3025 16.2201C37.4555 16.1374 37.6343 16.1161 37.8025 16.1606C37.9706 16.2051 38.1154 16.3121 38.2074 16.4597C38.2994 16.6073 38.3317 16.7844 38.2977 16.955C38.2636 17.1256 38.1658 17.2767 38.0241 17.3777L23.8709 26.8801L42.3455 16.2201C42.5005 16.1348 42.6824 16.1128 42.8532 16.1589C43.024 16.205 43.1702 16.3155 43.2612 16.4672C43.3522 16.6189 43.3808 16.7999 43.341 16.9723C43.3013 17.1446 43.1962 17.2948 43.048 17.3913L41.6718 18.2469L45.1868 16.2201C45.3404 16.1365 45.5202 16.115 45.6891 16.16C45.8581 16.2049 46.0034 16.3129 46.0951 16.4617C46.1869 16.6106 46.2181 16.7889 46.1823 16.96C46.1466 17.1312 46.0466 17.2821 45.903 17.3818L27.0963 29.7241L50.4936 16.2201C50.6479 16.1365 50.8284 16.1154 50.9978 16.1613C51.1672 16.2072 51.3124 16.3165 51.4034 16.4665C51.4944 16.6165 51.5242 16.7959 51.4867 16.9673C51.4491 17.1387 51.347 17.2891 51.2015 17.3872L34.2549 28.1538L54.9325 16.2201C55.0875 16.1348 55.2694 16.1128 55.4402 16.1589C55.611 16.205 55.7572 16.3155 55.8482 16.4672C55.9392 16.6189 55.9678 16.7999 55.928 16.9723C55.8883 17.1446 55.7832 17.2948 55.635 17.3913L41.7087 26.0601L58.6799 16.2666C58.8353 16.1807 59.0179 16.1586 59.1892 16.205C59.3606 16.2514 59.5071 16.3627 59.5978 16.5152C59.6886 16.6678 59.7164 16.8496 59.6754 17.0223C59.6345 17.195 59.5279 17.345 59.3783 17.4405L52.0502 21.9273L60.95 16.7914C61.1048 16.7046 61.2873 16.6815 61.4589 16.7269C61.6304 16.7724 61.7776 16.8827 61.8692 17.0347C61.9608 17.1867 61.9897 17.3684 61.9498 17.5413C61.9098 17.7142 61.8042 17.8648 61.6552 17.9612L39.4209 31.8848L63.3498 18.0692C63.505 17.9797 63.689 17.9548 63.8624 17.9997C64.0358 18.0445 64.1846 18.1557 64.2769 18.3092C64.3691 18.4627 64.3974 18.6463 64.3557 18.8205C64.3139 18.9946 64.2055 19.1454 64.0537 19.2404L39.6464 34.5334L65.1538 19.8049C65.3091 19.7174 65.4923 19.6941 65.6645 19.7398C65.8367 19.7855 65.9843 19.8966 66.0757 20.0496C66.1672 20.2025 66.1952 20.3851 66.154 20.5584C66.1128 20.7318 66.0054 20.8821 65.8549 20.9775L47.7685 32.1541L66.2349 21.4941C66.3894 21.4091 66.5708 21.3871 66.7412 21.4328C66.9115 21.4785 67.0576 21.5883 67.1489 21.7393C67.2401 21.8902 67.2695 22.0706 67.2308 22.2426C67.1922 22.4147 67.0885 22.5652 66.9414 22.6626L40.5388 39.3168L67.3473 23.8352C67.5017 23.7527 67.6819 23.7325 67.8507 23.779C68.0195 23.8254 68.164 23.9349 68.2545 24.0848C68.3449 24.2346 68.3744 24.4135 68.3368 24.5845C68.2993 24.7555 68.1975 24.9055 68.0525 25.0037L43.4717 40.4661L68.3983 26.0751C68.5531 25.9884 68.7356 25.9653 68.9072 26.0107C69.0788 26.0561 69.2259 26.1665 69.3175 26.3185C69.4092 26.4705 69.4381 26.6522 69.3981 26.8251C69.3582 26.998 69.2525 27.1486 69.1035 27.245L48.9903 39.8634L69.3536 28.1101C69.5089 28.0242 69.6916 28.0022 69.8629 28.0486C70.0342 28.095 70.1808 28.2062 70.2715 28.3588C70.3622 28.5113 70.3901 28.6932 70.3491 28.8659C70.3081 29.0386 70.2016 29.1886 70.052 29.2841L65.7005 31.9368L69.9959 29.4631C70.1512 29.3757 70.3344 29.3523 70.5066 29.398C70.6788 29.4437 70.8264 29.5549 70.9178 29.7078C71.0093 29.8607 71.0373 30.0433 70.9961 30.2167C70.9549 30.39 70.8475 30.5404 70.697 30.6357L62.3426 35.8003L70.708 30.9719C70.8624 30.8894 71.0425 30.8693 71.2113 30.9157C71.3801 30.9622 71.5246 31.0716 71.6151 31.2215C71.7056 31.3714 71.735 31.5503 71.6975 31.7212C71.6599 31.8922 71.5581 32.0423 71.4132 32.1404L58.177 40.4661L71.5471 32.7472C71.7017 32.6526 71.8875 32.6233 72.0637 32.6657C72.2399 32.7081 72.3921 32.8188 72.4867 32.9734C72.5813 33.128 72.6106 33.3138 72.5682 33.49C72.5258 33.6662 72.4151 33.8184 72.2605 33.913L54.7672 45.2563L72.594 34.9626C72.7483 34.8747 72.9308 34.8504 73.1027 34.8948C73.2747 34.9391 73.4226 35.0487 73.5152 35.2003C73.6077 35.3518 73.6377 35.5334 73.5986 35.7067C73.5596 35.8799 73.4546 36.0312 73.306 36.1283L60.2338 44.5566L73.5055 36.8937C73.6604 36.8069 73.8429 36.7838 74.0144 36.8292C74.186 36.8747 74.3332 36.985 74.4248 37.137C74.5164 37.289 74.5453 37.4707 74.5053 37.6436C74.4654 37.8165 74.3597 37.9671 74.2107 38.0635L70.7517 40.2379L74.1561 38.2713C74.233 38.225 74.3182 38.1943 74.407 38.1809C74.4958 38.1676 74.5863 38.1718 74.6734 38.1935C74.7606 38.2151 74.8426 38.2537 74.9148 38.307C74.987 38.3604 75.048 38.4274 75.0943 38.5043C75.1406 38.5812 75.1713 38.6665 75.1846 38.7552C75.198 38.844 75.1937 38.9345 75.1721 39.0217C75.1504 39.1088 75.1119 39.1908 75.0585 39.263C75.0052 39.3352 74.9382 39.3962 74.8613 39.4425L74.428 39.7158L74.8121 39.4944C74.9655 39.4055 75.1476 39.3797 75.3197 39.4225C75.4919 39.4654 75.6406 39.5735 75.7345 39.724C75.8284 39.8745 75.8601 40.0556 75.8228 40.229C75.7856 40.4025 75.6824 40.5547 75.535 40.6534L64.0783 48.3368L77.4388 40.6233C77.5925 40.5273 77.778 40.4962 77.9546 40.5369C78.1312 40.5777 78.2844 40.6869 78.3804 40.8406C78.4765 40.9943 78.5075 41.1798 78.4668 41.3564C78.426 41.533 78.3168 41.6862 78.1631 41.7822L68.1755 48.4953L79.948 41.6975C80.1014 41.6066 80.2842 41.5793 80.4574 41.6213C80.6306 41.6634 80.7806 41.7714 80.8753 41.9224C80.97 42.0735 81.0019 42.2555 80.9642 42.4298C80.9266 42.604 80.8223 42.7566 80.6737 42.8551L71.6291 48.9777L82.4135 42.7539C82.5662 42.672 82.7444 42.6513 82.912 42.6958C83.0795 42.7404 83.2238 42.8469 83.3157 42.9939C83.4076 43.1409 83.4402 43.3173 83.4069 43.4874C83.3737 43.6575 83.277 43.8086 83.1364 43.9101L75.9478 48.7632L83.966 44.1356C84.1187 44.0527 84.2972 44.031 84.4653 44.075C84.6333 44.119 84.7783 44.2254 84.8708 44.3725C84.9632 44.5196 84.9961 44.6964 84.9629 44.8669C84.9296 45.0375 84.8326 45.1889 84.6917 45.2905L78.7631 49.329L84.253 46.1501C84.4063 46.0642 84.5869 46.0406 84.7572 46.0843C84.9274 46.1281 85.0743 46.2358 85.1672 46.385C85.2601 46.5342 85.292 46.7135 85.2561 46.8856C85.2202 47.0577 85.1194 47.2094 84.9746 47.309L83.5806 48.2425L84.2639 47.853C84.4135 47.7685 84.5894 47.7434 84.7566 47.7828C84.9239 47.8221 85.0701 47.923 85.1663 48.0654C85.2625 48.2078 85.3015 48.3811 85.2756 48.551C85.2497 48.7208 85.1608 48.8746 85.0265 48.9818L79.0446 53.6668L84.2639 50.6601C84.4139 50.5745 84.5906 50.5489 84.7587 50.5883C84.9268 50.6278 85.0737 50.7293 85.1699 50.8727C85.2662 51.016 85.3046 51.1904 85.2775 51.3609C85.2504 51.5314 85.1597 51.6853 85.0238 51.7917L82.8781 53.4536L84.2694 52.65C84.3472 52.6005 84.4341 52.5673 84.5251 52.5524C84.616 52.5374 84.709 52.541 84.7986 52.5629C84.8881 52.5849 84.9722 52.6247 85.046 52.68C85.1197 52.7353 85.1815 52.8049 85.2276 52.8847C85.2737 52.9645 85.3032 53.0528 85.3143 53.1443C85.3254 53.2357 85.3179 53.3285 85.2923 53.417C85.2666 53.5056 85.2233 53.588 85.1649 53.6593C85.1066 53.7306 85.0344 53.7894 84.9527 53.8321L74.8107 59.6801C74.6608 59.764 74.4848 59.7884 74.3178 59.7485C74.1507 59.7085 74.0048 59.6071 73.9092 59.4644C73.8136 59.3217 73.7752 59.1482 73.8017 58.9785C73.8282 58.8088 73.9176 58.6553 74.0522 58.5485L76.1979 56.888L71.3571 59.6801C71.2076 59.7646 71.0316 59.7897 70.8644 59.7503C70.6972 59.711 70.5509 59.6101 70.4547 59.4677C70.3586 59.3253 70.3196 59.152 70.3455 58.9821C70.3714 58.8123 70.4603 58.6585 70.5945 58.5512L76.5696 53.8759L66.5014 59.6801C66.3484 59.7628 66.1696 59.7841 66.0014 59.7396C65.8333 59.6951 65.6885 59.5881 65.5965 59.4405C65.5044 59.2929 65.4722 59.1158 65.5062 58.9452C65.5403 58.7746 65.6381 58.6235 65.7798 58.5225L67.1874 57.5782L63.5453 59.6801C63.3926 59.7631 63.2141 59.7847 63.046 59.7407C62.8779 59.6967 62.7329 59.5903 62.6405 59.4432C62.548 59.2961 62.5151 59.1193 62.5484 58.9488C62.5816 58.7783 62.6786 58.6269 62.8196 58.5253L68.7427 54.4868L59.7487 59.6801C59.5959 59.762 59.4177 59.7828 59.2502 59.7382C59.0826 59.6937 58.9383 59.5871 58.8464 59.4402C58.7545 59.2932 58.7219 59.1168 58.7552 58.9466C58.7885 58.7765 58.8852 58.6254 59.0257 58.5239L66.2212 53.6668L55.8017 59.6801C55.6488 59.7639 55.4697 59.7861 55.301 59.7422C55.1323 59.6982 54.9867 59.5914 54.8942 59.4437C54.8016 59.2959 54.769 59.1184 54.8031 58.9474C54.8371 58.7764 54.9353 58.6249 55.0774 58.5239L64.1124 52.4053L51.509 59.6815C51.3558 59.7688 51.1747 59.7935 51.0037 59.7504C50.8327 59.7073 50.685 59.5998 50.5914 59.4503C50.4979 59.3008 50.4657 59.1209 50.5018 58.9482C50.5378 58.7756 50.6392 58.6235 50.7847 58.5239L60.7805 51.8054L47.1357 59.6815C46.9827 59.7642 46.8039 59.7855 46.6358 59.741C46.4676 59.6964 46.3228 59.5895 46.2308 59.4419C46.1388 59.2943 46.1065 59.1171 46.1406 58.9466C46.1746 58.776 46.2725 58.6249 46.4141 58.5239L57.864 50.8432L42.5574 59.6828C42.4025 59.7696 42.22 59.7927 42.0485 59.7473C41.8769 59.7019 41.7297 59.5915 41.6381 59.4395C41.5465 59.2875 41.5176 59.1058 41.5575 58.9329C41.5975 58.76 41.7032 58.6094 41.8522 58.513L42.2977 58.2396L39.7871 59.6883C39.6323 59.7751 39.4498 59.7982 39.2782 59.7528C39.1067 59.7073 38.9595 59.597 38.8679 59.445C38.7763 59.293 38.7474 59.1113 38.7873 58.9384C38.8273 58.7654 38.9329 58.6148 39.0819 58.5184L42.5164 56.3618L36.749 59.6897C36.5951 59.7732 36.415 59.7945 36.2458 59.7491C36.0767 59.7036 35.9314 59.595 35.8401 59.4456C35.7487 59.2962 35.7182 59.1174 35.7548 58.9461C35.7915 58.7749 35.8925 58.6242 36.037 58.5253L49.1146 50.0957L32.4946 59.6897C32.3404 59.7794 32.1572 59.8052 31.9842 59.7616C31.8112 59.718 31.662 59.6085 31.5687 59.4565C31.4754 59.3044 31.4452 59.1219 31.4847 58.9479C31.5241 58.7739 31.63 58.6222 31.7798 58.5253L49.2814 47.1819L27.6074 59.6924C27.453 59.7749 27.2728 59.795 27.104 59.7486C26.9352 59.7022 26.7907 59.5927 26.7003 59.4428C26.6098 59.293 26.5803 59.1141 26.6179 58.9431C26.6555 58.7721 26.7572 58.6221 26.9022 58.5239L40.137 50.1982L23.6892 59.6938C23.5345 59.7743 23.355 59.7927 23.1873 59.7452C23.0195 59.6976 22.8763 59.5878 22.7869 59.4382C22.6975 59.2885 22.6687 59.1104 22.7063 58.9401C22.744 58.7699 22.8452 58.6205 22.9894 58.5225L31.3329 53.3593L20.3668 59.6938C20.2115 59.7797 20.0288 59.8017 19.8575 59.7553C19.6862 59.7089 19.5396 59.5977 19.4489 59.4451C19.3581 59.2926 19.3303 59.1107 19.3713 58.938C19.4123 58.7653 19.5188 58.6153 19.6684 58.5198L23.9994 55.8671L17.3697 59.6938C17.2661 59.7547 17.1482 59.7872 17.028 59.7881Z" fill="#BF6B04"/>
<path d="M75.4849 59.8167C75.3543 59.8167 75.2264 59.7793 75.1164 59.7089C75.0063 59.6384 74.9188 59.5379 74.8642 59.4193C74.8095 59.3006 74.79 59.1688 74.808 59.0394C74.826 58.91 74.8806 58.7885 74.9656 58.6892L77.0306 56.2757L75.4494 57.1886C75.3337 57.2552 75.2011 57.2865 75.0679 57.2787C74.9347 57.2708 74.8067 57.2241 74.6997 57.1443C74.5927 57.0645 74.5115 56.9551 74.4659 56.8296C74.4204 56.7042 74.4126 56.5682 74.4435 56.4383L74.8535 54.7368C74.7132 54.68 74.5962 54.5774 74.5214 54.4457C74.4311 54.2891 74.4066 54.103 74.4532 53.9283C74.4998 53.7536 74.6138 53.6045 74.7701 53.5137L75.4535 53.116C75.5691 53.0489 75.7019 53.0173 75.8354 53.025C75.9689 53.0326 76.0971 53.0793 76.2044 53.1592C76.3116 53.239 76.393 53.3486 76.4386 53.4743C76.4841 53.6 76.4918 53.7363 76.4607 53.8663L76.1395 55.2124L79.8036 53.0968C79.9432 53.0162 80.1068 52.9875 80.2655 53.0159C80.4242 53.0443 80.5678 53.1278 80.6708 53.2518C80.7738 53.3758 80.8297 53.5322 80.8286 53.6934C80.8275 53.8546 80.7694 54.0103 80.6646 54.1328L78.5995 56.5367L84.2507 53.2759C84.3886 53.1968 84.5497 53.1683 84.7063 53.1952C84.863 53.2222 85.0053 53.3029 85.1089 53.4234C85.2124 53.544 85.2707 53.6969 85.2737 53.8558C85.2768 54.0147 85.2243 54.1696 85.1254 54.294L83.212 56.6898L84.2302 56.1021C84.308 56.0527 84.3949 56.0195 84.4859 56.0045C84.5768 55.9896 84.6698 55.9932 84.7594 56.0151C84.8489 56.037 84.933 56.0768 85.0068 56.1321C85.0805 56.1874 85.1423 56.257 85.1884 56.3368C85.2345 56.4166 85.264 56.5049 85.2751 56.5964C85.2862 56.6879 85.2787 56.7807 85.2531 56.8692C85.2274 56.9577 85.1841 57.0401 85.1257 57.1114C85.0674 57.1828 84.9952 57.2416 84.9135 57.2843L80.7534 59.6869C80.6155 59.7659 80.4544 59.7945 80.2978 59.7675C80.1411 59.7406 79.9988 59.6599 79.8952 59.5393C79.7916 59.4188 79.7333 59.2659 79.7303 59.107C79.7273 58.9481 79.7798 58.7931 79.8787 58.6687L81.7921 56.273L75.8266 59.717C75.7238 59.7805 75.6057 59.815 75.4849 59.8167Z" fill="#D8E5C3"/>
<path d="M24.0565 63.7881C23.9198 63.7882 23.7862 63.7472 23.673 63.6705C23.5598 63.5938 23.4722 63.4849 23.4216 63.3578C23.3709 63.2308 23.3596 63.0915 23.389 62.958C23.4183 62.8244 23.4871 62.7028 23.5864 62.6087L23.7231 62.4789L21.8863 63.5394C21.7409 63.6184 21.5718 63.6419 21.4104 63.6057C21.2489 63.5695 21.1061 63.4759 21.0085 63.3423C20.9108 63.2088 20.8649 63.0443 20.8793 62.8795C20.8937 62.7147 20.9674 62.5607 21.0868 62.4461L23.2147 60.5218L19.8991 62.4351C19.751 62.5203 19.5763 62.5469 19.4095 62.5096C19.2427 62.4723 19.0959 62.3739 18.9981 62.2337C18.9003 62.0936 18.8586 61.9218 18.8812 61.7524C18.9038 61.583 18.989 61.4282 19.1201 61.3186L21.1701 59.6198L18.7498 61.0165C18.605 61.1051 18.4326 61.1367 18.2659 61.1051C18.0992 61.0735 17.9502 60.981 17.8479 60.8457C17.7456 60.7103 17.6973 60.5417 17.7125 60.3727C17.7276 60.2038 17.8051 60.0464 17.9298 59.9314L21.4298 56.5762L18.0596 58.5183C17.921 58.5994 17.7583 58.6291 17.6 58.6022C17.4418 58.5753 17.298 58.4936 17.194 58.3713C17.0899 58.249 17.0323 58.094 17.0311 57.9334C17.03 57.7729 17.0854 57.6171 17.1877 57.4933L19.3197 54.8857L19.306 54.8966C19.1498 54.9783 18.9681 54.9965 18.7989 54.9474C18.6296 54.8983 18.4858 54.7857 18.3976 54.6331C18.3094 54.4805 18.2836 54.2997 18.3255 54.1285C18.3675 53.9574 18.4739 53.809 18.6227 53.7144L21.8699 51.8394C22.0083 51.759 22.1705 51.7299 22.3283 51.7569C22.486 51.7839 22.6293 51.8655 22.733 51.9873C22.8368 52.1091 22.8945 52.2635 22.8961 52.4236C22.8977 52.5836 22.8431 52.7391 22.7418 52.863L20.6098 55.472L25.646 52.5651C25.7907 52.4765 25.9632 52.445 26.1299 52.4765C26.2966 52.5081 26.4455 52.6006 26.5478 52.736C26.6501 52.8713 26.6984 53.0399 26.6833 53.2089C26.6681 53.3779 26.5907 53.5352 26.466 53.6502L22.9646 57.0067L27.4636 54.4101C27.6118 54.3263 27.7858 54.3008 27.9517 54.3386C28.1176 54.3764 28.2635 54.4747 28.3607 54.6144C28.458 54.754 28.4996 54.9249 28.4775 55.0936C28.4554 55.2623 28.3712 55.4168 28.2413 55.5266L26.1926 57.2199L28.106 56.1184C28.2513 56.0394 28.4204 56.0159 28.5819 56.0521C28.7433 56.0884 28.8861 56.182 28.9838 56.3155C29.0814 56.4491 29.1273 56.6135 29.1129 56.7783C29.0985 56.9432 29.0248 57.0972 28.9055 57.2117L26.7762 59.1374L28.0827 58.383C28.2283 58.2929 28.4025 58.2608 28.5706 58.293C28.7388 58.3252 28.8888 58.4193 28.9908 58.5568C29.0929 58.6942 29.1396 58.865 29.1218 59.0353C29.104 59.2056 29.0229 59.363 28.8945 59.4763L27.6645 60.6448C27.7666 60.706 27.851 60.7928 27.9093 60.8965C27.9675 61.0003 27.9977 61.1176 27.9967 61.2366C27.9957 61.3556 27.9637 61.4723 27.9038 61.5752C27.8438 61.678 27.7581 61.7634 27.655 61.8229L24.4078 63.6979C24.3012 63.7598 24.1797 63.791 24.0565 63.7881Z" fill="#592B02"/>
<path d="M74.6233 63.7883C74.4874 63.7883 74.3546 63.7478 74.2419 63.6719C74.1291 63.5961 74.0416 63.4883 73.9904 63.3625C73.9392 63.2366 73.9267 63.0983 73.9544 62.9653C73.9822 62.8323 74.049 62.7106 74.1463 62.6157L74.5809 62.1934L72.3191 63.4986C72.1737 63.5766 72.0051 63.5994 71.8443 63.5628C71.6835 63.5261 71.5413 63.4326 71.4441 63.2994C71.3468 63.1662 71.301 63.0023 71.3152 62.8379C71.3293 62.6736 71.4024 62.5199 71.5209 62.4053L73.6816 60.4619L70.3866 62.3629C70.241 62.453 70.0669 62.4851 69.8987 62.4529C69.7305 62.4207 69.5806 62.3266 69.4785 62.1891C69.3764 62.0516 69.3297 61.8809 69.3475 61.7106C69.3654 61.5403 69.4465 61.3829 69.5748 61.2696L73.1965 57.8529L68.9776 60.2883C68.8286 60.3741 68.6528 60.4005 68.4851 60.3624C68.3175 60.3243 68.1704 60.2245 68.0732 60.0827C67.9759 59.941 67.9356 59.7678 67.9604 59.5977C67.9852 59.4276 68.0731 59.273 68.2068 59.1649L69.3001 58.2807L68.6291 58.6674C68.4915 58.7467 68.3305 58.7755 68.174 58.7489C68.0174 58.7224 67.875 58.6421 67.7711 58.522C67.6673 58.4018 67.6086 58.2492 67.605 58.0905C67.6015 57.9317 67.6533 57.7767 67.7517 57.652L70.0094 54.8148L69.8727 54.8941C69.7166 54.9758 69.5349 54.994 69.3656 54.9448C69.1963 54.8957 69.0526 54.7831 68.9644 54.6305C68.8762 54.478 68.8504 54.2972 68.8923 54.126C68.9342 53.9548 69.0407 53.8065 69.1894 53.7119L72.438 51.8368C72.5756 51.7576 72.7365 51.7288 72.8931 51.7553C73.0497 51.7819 73.1921 51.8621 73.2959 51.9823C73.3997 52.1025 73.4585 52.255 73.462 52.4138C73.4656 52.5725 73.4137 52.7276 73.3154 52.8523L71.0672 55.6854L76.3371 52.6418C76.486 52.5576 76.6611 52.5323 76.8278 52.5709C76.9944 52.6095 77.1406 52.7093 77.2372 52.8505C77.3339 52.9916 77.3741 53.1639 77.3499 53.3333C77.3257 53.5026 77.2389 53.6568 77.1065 53.7652L76.0132 54.6508L77.5684 53.7529C77.7132 53.6703 77.8832 53.6435 78.0464 53.6775C78.2095 53.7115 78.3546 53.8039 78.4544 53.9375C78.5542 54.071 78.6017 54.2364 78.588 54.4025C78.5744 54.5686 78.5005 54.724 78.3802 54.8394L74.7586 58.2561L78.6577 56.0065C78.803 55.9285 78.9717 55.9058 79.1325 55.9424C79.2933 55.979 79.4355 56.0725 79.5327 56.2057C79.63 56.339 79.6757 56.5029 79.6616 56.6672C79.6475 56.8315 79.5744 56.9852 79.4558 57.0999L77.2937 59.0433L78.6795 58.2438C78.8238 58.1594 78.9939 58.1309 79.1578 58.1635C79.3216 58.1961 79.4679 58.2876 79.5688 58.4207C79.6698 58.5538 79.7185 58.7193 79.7057 58.8859C79.693 59.0525 79.6196 59.2086 79.4995 59.3248L78.1834 60.604C78.306 60.6635 78.4075 60.7588 78.4745 60.8773C78.5653 61.0341 78.59 61.2205 78.5434 61.3955C78.4968 61.5706 78.3825 61.7199 78.2258 61.8108L74.9786 63.6858C74.8722 63.7527 74.749 63.7883 74.6233 63.7883Z" fill="#592B02"/>
<path d="M9.46663 59.7757C9.33781 59.7757 9.2116 59.7393 9.10257 59.6707C8.99353 59.6021 8.90612 59.5041 8.8504 59.3879C8.79468 59.2717 8.77293 59.1422 8.78766 59.0142C8.80238 58.8863 8.85299 58.765 8.93363 58.6646L9.36003 58.1343L6.75106 59.6377C6.60635 59.7262 6.43386 59.7578 6.26717 59.7262C6.10047 59.6946 5.95149 59.6021 5.8492 59.4668C5.74691 59.3314 5.69864 59.1628 5.71377 58.9939C5.7289 58.8249 5.80636 58.6676 5.93106 58.5525L7.0818 57.4592L5.7493 58.2286C5.62535 58.3003 5.48204 58.3312 5.33959 58.317C5.19714 58.3028 5.06274 58.2442 4.95537 58.1495C4.848 58.0548 4.77307 57.9288 4.74118 57.7893C4.70928 57.6497 4.72202 57.5036 4.7776 57.3717L5.6591 55.2876C5.4992 55.3303 5.32921 55.3136 5.1807 55.2405C5.03219 55.1674 4.91527 55.0429 4.85164 54.8901C4.78801 54.7373 4.78201 54.5666 4.83475 54.4097C4.88749 54.2528 4.99539 54.1204 5.1384 54.0371L6.7251 53.1214C6.84904 53.0497 6.99235 53.0188 7.1348 53.033C7.27726 53.0472 7.41166 53.1058 7.51903 53.2005C7.6264 53.2952 7.70132 53.4212 7.73322 53.5607C7.76511 53.7003 7.75237 53.8464 7.6968 53.9783L6.83033 56.0283L11.3403 53.4316C11.485 53.3431 11.6575 53.3115 11.8242 53.3431C11.9909 53.3747 12.1399 53.4671 12.2422 53.6025C12.3445 53.7379 12.3928 53.9064 12.3776 54.0754C12.3625 54.2444 12.285 54.4017 12.1603 54.5168L11.0082 55.6101L11.8282 55.1331C11.9661 55.0549 12.1269 55.027 12.283 55.0542C12.4392 55.0815 12.581 55.1622 12.6843 55.2825C12.7875 55.4028 12.8456 55.5553 12.8488 55.7138C12.8519 55.8723 12.7999 56.0269 12.7015 56.1513L12.1549 56.8346C12.2802 56.8319 12.4041 56.8618 12.5143 56.9214C12.6245 56.9811 12.7173 57.0685 12.7835 57.1749C12.8741 57.3319 12.8987 57.5184 12.8518 57.6934C12.8049 57.8685 12.6904 58.0177 12.5334 58.1084L9.80283 59.68C9.70121 59.7411 9.58519 59.7741 9.46663 59.7757Z" fill="#D8E5C3"/>
<path d="M64.4989 40.6424C64.3577 40.6426 64.2199 40.599 64.1045 40.5177C63.989 40.4363 63.9016 40.3212 63.8543 40.1882C63.8069 40.0551 63.802 39.9107 63.8401 39.7747C63.8782 39.6387 63.9575 39.5179 64.0671 39.4288L65.047 38.6334L62.561 40.0684C62.4117 40.1535 62.2359 40.1793 62.0684 40.1406C61.901 40.1018 61.7544 40.0014 61.6576 39.8594C61.5609 39.7173 61.5213 39.5441 61.5466 39.3741C61.5719 39.2042 61.6604 39.05 61.7943 38.9423L63.6297 37.4882L61.1998 38.8904C61.0545 38.9683 60.8858 38.9911 60.725 38.9545C60.5642 38.9179 60.422 38.8244 60.3248 38.6911C60.2275 38.5579 60.1817 38.394 60.1959 38.2297C60.21 38.0654 60.2831 37.9117 60.4017 37.797L64.9527 33.6957L60.4153 36.3101C60.2656 36.3951 60.0892 36.4205 59.9216 36.3811C59.754 36.3417 59.6074 36.2404 59.5112 36.0976C59.415 35.9547 59.3763 35.7809 59.4028 35.6107C59.4293 35.4406 59.519 35.2867 59.6541 35.1799L61.387 33.8255L60.4153 34.3872C60.2733 34.4694 60.1063 34.4977 59.9451 34.467C59.7839 34.4362 59.6391 34.3485 59.5372 34.2197C59.4354 34.091 59.3833 33.9299 59.3904 33.7659C59.3976 33.602 59.4635 33.446 59.5762 33.3267L62.1018 30.6466L60.4153 31.6197C60.2772 31.6986 60.1159 31.7268 59.9592 31.6995C59.8025 31.6722 59.6602 31.591 59.5569 31.4701C59.4536 31.3491 59.3957 31.1959 59.3933 31.0369C59.3908 30.8778 59.4439 30.7229 59.5434 30.5988L60.2664 29.705C60.1394 29.6654 60.0268 29.5897 59.9423 29.487C59.8578 29.3844 59.8051 29.2594 59.7906 29.1272C59.776 28.9951 59.8004 28.8615 59.8606 28.743C59.9209 28.6245 60.0144 28.5261 60.1297 28.46L62.397 27.1521C62.5351 27.0732 62.6965 27.045 62.8532 27.0723C63.0099 27.0996 63.1521 27.1807 63.2554 27.3017C63.3587 27.4226 63.4166 27.5758 63.4191 27.7349C63.4215 27.8939 63.3684 28.0489 63.2689 28.173L62.9273 28.5953L65.4542 27.137C65.5961 27.0558 65.7625 27.0282 65.923 27.0591C66.0836 27.0901 66.2277 27.1776 66.3293 27.3057C66.4308 27.4339 66.483 27.5942 66.4765 27.7576C66.4699 27.921 66.4049 28.0766 66.2934 28.1962L63.7678 30.8762L69.1893 27.7466C69.3391 27.6598 69.5163 27.6331 69.685 27.672C69.8537 27.7108 70.0014 27.8122 70.0982 27.9557C70.195 28.0992 70.2338 28.2741 70.2066 28.4451C70.1795 28.6161 70.0885 28.7703 69.9519 28.8768L68.2108 30.2353L69.9027 29.2608C70.0481 29.1818 70.2172 29.1583 70.3786 29.1945C70.5401 29.2308 70.6829 29.3244 70.7805 29.4579C70.8782 29.5915 70.9241 29.7559 70.9097 29.9207C70.8953 30.0856 70.8216 30.2396 70.7022 30.3542L66.1567 34.4446L71.0234 31.6361C71.1727 31.551 71.3485 31.5252 71.516 31.5639C71.6834 31.6027 71.83 31.7031 71.9268 31.8451C72.0235 31.9872 72.0631 32.1604 72.0378 32.3304C72.0124 32.5004 71.924 32.6545 71.7901 32.7622L69.9533 34.2164L71.7505 33.1804C71.8991 33.0955 72.0742 33.0695 72.2411 33.1075C72.408 33.1455 72.5545 33.2448 72.6517 33.3856C72.749 33.5265 72.7898 33.6987 72.7661 33.8682C72.7425 34.0378 72.6561 34.1922 72.524 34.3011L71.5455 35.0979L72.4188 34.5949C72.5536 34.5169 72.7111 34.4873 72.8651 34.511C73.0191 34.5347 73.1603 34.6103 73.2654 34.7253C73.3706 34.8403 73.4332 34.9878 73.443 35.1433C73.4528 35.2988 73.4092 35.453 73.3194 35.5803L71.7423 37.8134L73.4615 36.8226C73.5565 36.7678 73.6633 36.7367 73.7729 36.7318C73.8825 36.727 73.9916 36.7486 74.0911 36.7949C74.1905 36.8411 74.2774 36.9106 74.3443 36.9975C74.4112 37.0844 74.4563 37.1861 74.4756 37.2941L74.7653 38.9341C74.8971 38.9209 75.0299 38.9456 75.1481 39.0055C75.2663 39.0653 75.3649 39.1576 75.4323 39.2717C75.5224 39.4285 75.5468 39.6147 75.4999 39.7894C75.453 39.9641 75.3387 40.1131 75.1822 40.2037L74.5918 40.544C74.4968 40.5988 74.39 40.63 74.2804 40.6348C74.1708 40.6396 74.0617 40.618 73.9622 40.5717C73.8628 40.5255 73.7759 40.456 73.709 40.3691C73.6421 40.2822 73.597 40.1805 73.5777 40.0725L73.3044 38.4899L69.751 40.5399C69.6163 40.6181 69.4589 40.6479 69.3049 40.6244C69.1509 40.6009 69.0096 40.5255 68.9043 40.4106C68.7991 40.2958 68.7362 40.1485 68.7262 39.993C68.7161 39.8376 68.7595 39.6834 68.849 39.5559L70.4193 37.3337L64.8406 40.5468C64.7371 40.6082 64.6193 40.6412 64.4989 40.6424Z" fill="#FFD34E"/>
<path d="M83.8746 43.0423C81.4256 41.5144 77.9365 41.0935 75.8318 39.2594C70.7929 31.5815 69.8731 17.0907 58.7102 16.38C-0.486949 18.7785 5.39245 3.41446 5.74368 53.2117C3.83718 53.9401 4.43578 56.3195 4.36472 57.9294C4.72415 61.0085 10.788 59.9412 12.9132 59.5544H16.9244C18.3935 65.3559 27.2741 65.2684 29.1752 59.84H67.5785C69.3456 65.4119 78.0458 64.76 79.7842 59.5366C86.3606 60.2131 86.023 55.2152 85.6171 50.3458C85.6226 47.9992 86.3907 44.3297 83.8746 43.0423ZM73.3335 38.6868C73.4374 38.9082 73.5372 39.2102 73.6533 39.5068C69.69 38.9 63.1081 41.5322 61.1962 36.8267C60.7725 28.9547 59.589 27.5211 68.4012 28.2167L73.3335 38.6868ZM6.58828 54.4075H6.57872L6.61972 54.372C6.63202 54.3747 6.62382 54.3939 6.58828 54.4075ZM6.56642 54.4157C6.59102 54.3816 6.60742 54.372 6.61698 54.3734C6.59965 54.3864 6.58184 54.4005 6.56642 54.4157ZM6.57735 54.4089H6.58555H6.57052H6.57735ZM7.42742 58.39C7.20646 58.4107 6.98362 58.3959 6.76732 58.3463C6.01292 57.611 6.37782 55.5815 6.49398 54.4895C6.46118 54.5579 6.55548 54.4157 6.56778 54.4185C6.61288 54.4185 6.62518 54.4185 6.61835 54.4185C8.00005 54.4827 9.43095 54.3296 10.7976 54.4649C10.7238 54.4034 10.9684 54.5934 10.9657 54.5893C11.5055 55.699 11.0545 57.1668 11.1953 58.3955L7.42742 58.39ZM24.7062 62.244C17.7116 64.4853 16.4283 51.9762 23.8424 53.1434C28.2171 53.9401 28.9538 60.6915 24.7076 62.2413L24.7062 62.244ZM33.5335 58.4296H29.5264C30.6566 49.2197 15.4866 49.7376 16.7508 58.7153H13.2043C13.6061 53.7119 12.9679 52.4423 7.72262 52.8974V25.3249C7.35772 21.8016 8.02192 17.0784 12.4731 17.1522H56.1559C62.5314 16.4238 65.9481 22.0039 67.9243 27.1917C65.0707 27.3926 61.1196 26.2788 59.3908 29.2527C58.9166 32.5668 57.9203 37.782 61.2645 39.8894C65.4192 41.2793 70.1 40.1723 74.4405 40.5099C76.9812 41.5745 79.5942 42.4697 82.0447 43.7202C84.9502 45.5324 83.328 50.4278 83.6437 53.2869H78.2002C74.2916 49.5832 66.6861 52.9343 67.2751 58.4255L33.5335 58.4296ZM75.2031 62.4804C68.2195 64.4266 67.0168 51.666 74.4351 53.0094C78.8221 53.9975 79.53 60.917 75.2031 62.4804ZM83.2446 58.0142C82.5927 59.0446 81.1823 58.8191 80.0343 58.7604C80.2073 57.9413 80.1977 57.0942 80.0061 56.2792C79.8145 55.4643 79.4457 54.7016 78.9259 54.0454H83.6491C83.6573 55.2767 83.917 56.9468 83.2405 58.0142H83.2446Z" fill="#592B02"/>
<path d="M62.8432 52.9015C60.7781 53.4933 28.0287 51.3517 33.9887 54.4322C36.0551 53.8404 68.8046 55.982 62.8432 52.9015Z" fill="#592B02"/>
</g>
<defs>
<clipPath id="clip0_124_27934">
<rect width="90" height="80" fill="white"/>
</clipPath>
</defs>
</svg>
