<svg width="161" height="59" viewBox="0 0 161 59" fill="none" xmlns="http://www.w3.org/2000/svg">
<path d="M20.2947 40.7557C11.9337 39.8246 5.72863 33.7863 6.43518 27.2686C7.14174 20.7509 14.4924 16.222 22.8534 17.1531C31.2143 18.0841 37.4194 24.1225 36.7129 30.6402C36.0063 37.1578 28.6556 41.6867 20.2947 40.7557Z" fill="#FFD34E"/>
<path d="M8.67776 22.0815C8.51195 28.3013 14.5508 33.9118 22.585 34.8056C28.4637 35.4606 33.8393 33.4134 36.7598 29.8767C36.7522 30.1307 36.739 30.3847 36.7127 30.6387C36.0061 37.1563 28.6558 41.6841 20.2938 40.7541C11.9336 39.8222 5.72711 33.7858 6.43368 27.2682C6.64283 25.3337 7.44173 23.5749 8.67587 22.0815H8.67776Z" fill="#F0B900"/>
<path d="M11.2252 25.8072C11.1234 26.741 11.7885 27.5813 12.7099 27.6844C13.6275 27.7856 14.4603 27.1134 14.5621 26.1796C14.6638 25.2458 13.993 24.4055 13.0773 24.3024C12.1559 24.1993 11.3269 24.8734 11.2252 25.8072Z" fill="#592B02"/>
<path d="M3.90601 11.5152C5.36626 11.6776 6.41952 13.0086 6.25937 14.4886C6.2556 14.5153 6.2443 14.5363 6.24053 14.563C7.87978 15.621 9.23451 16.9081 10.2708 18.4282C11.5445 17.5803 12.984 16.8928 14.5479 16.3944C13.4061 15.5351 12.4829 14.3988 11.8573 13.0544C10.8511 10.8927 10.7306 8.46742 11.5257 6.21594C13.1612 1.56976 18.2259 -0.861234 22.8101 0.802075C24.6001 1.44945 26.0999 2.65062 27.1438 4.22035C28.962 2.47684 31.4925 1.52201 34.168 1.81992C39.0029 2.35844 42.5094 6.78311 41.978 11.689C41.4787 16.297 37.5973 19.7076 33.1204 19.658C36.3933 22.2589 38.4188 25.809 38.4527 29.5901L39.2007 30.0561L40.0693 30.5965C40.4386 30.8237 40.3896 31.2821 39.9789 31.4234L39.0142 31.7595L38.1851 32.0497C37.2393 36.2032 33.8741 39.5184 29.3596 41.2027C29.3539 41.2123 29.352 41.2237 29.3464 41.2294L29.32 41.2218C26.5653 42.2435 23.3923 42.6617 20.0762 42.2912C10.7814 41.2562 3.86079 34.4273 4.65969 27.0713C4.96869 24.2182 6.39503 21.7051 8.56562 19.7477C7.68758 18.4415 6.52504 17.3225 5.10813 16.4059C4.60128 16.7591 3.98137 16.9425 3.32568 16.868C1.86543 16.7057 0.812164 15.3746 0.97232 13.9004C1.13248 12.4204 2.44576 11.3529 3.90601 11.5152ZM36.2595 30.5908C36.6213 27.2527 35.0008 24.0368 32.1538 21.6421C32.6249 27.3921 32.0163 33.0141 30.3224 38.4299C33.6197 36.7188 35.8958 33.9327 36.2595 30.5889V30.5908ZM32.4741 17.4466C36.1351 17.8553 39.4419 15.1665 39.8451 11.456C40.2483 7.74558 37.5954 4.39413 33.9344 3.98547C31.6752 3.73339 29.5574 4.65767 28.1688 6.27323C27.8729 6.61697 27.6054 6.99317 27.3774 7.39802C26.9478 8.16952 26.6595 9.04032 26.5578 9.97414L25.8889 16.1423C26.1621 16.2111 26.4297 16.2836 26.6953 16.3638C27.3228 16.5548 27.9351 16.7649 28.5305 17.0055L32.4741 17.4447V17.4466ZM20.7695 40.1715C22.5972 40.3319 24.3665 40.2326 26.0189 39.908L25.8531 39.8449C28.3949 33.2719 29.1485 26.315 28.0934 19.171C28.067 19.1577 28.0425 19.1481 28.0161 19.1348C27.3604 18.8598 26.6746 18.6191 25.968 18.4148C25.6289 18.3117 25.2822 18.2238 24.9242 18.1398C24.472 18.0348 24.0122 17.9508 23.5393 17.8763C23.4168 17.8572 23.2944 17.8438 23.1681 17.8247C23.219 18.1589 23.251 18.495 23.2962 18.8292C23.3452 19.2283 23.3867 19.6313 23.4244 20.0304C24.0763 26.8994 23.1888 33.65 20.7658 40.1696L20.7695 40.1715ZM23.7767 15.7184L24.4249 9.73925C24.5737 8.36812 25.0335 7.11157 25.708 6.01161C24.9506 4.59274 23.6995 3.4374 22.0847 2.85304C21.5816 2.67163 21.0767 2.55514 20.5642 2.49785C17.5626 2.16366 14.6026 3.94536 13.5437 6.95307C12.3057 10.4668 14.1165 14.353 17.5834 15.6095L17.7661 15.6745C19.4318 15.4434 21.1822 15.4147 22.9665 15.6133C23.2378 15.6439 23.5092 15.6802 23.7748 15.7203L23.7767 15.7184ZM6.79071 27.3081C6.21603 32.6016 10.6119 37.5916 17.0049 39.4668C19.6277 32.7334 20.4643 25.725 19.4883 18.602C19.445 18.3021 19.3978 17.9966 19.3489 17.6949C18.7346 17.7312 18.1298 17.7999 17.5419 17.8973C11.7631 18.8559 7.31075 22.5091 6.79071 27.3062V27.3081Z" fill="#592B02"/>
<path d="M17.5843 15.6078L17.767 15.6727C19.4327 15.4417 21.1831 15.413 22.9674 15.6116C23.2387 15.6422 23.5101 15.6785 23.7757 15.7186L24.4239 9.73945C24.5727 8.36832 25.0325 7.11177 25.707 6.01181C24.9496 4.59293 23.6985 3.43759 22.0837 2.85324C21.5807 2.67182 21.0757 2.55533 20.5632 2.49804C17.5617 2.16385 14.6016 3.94556 13.5427 6.95327C12.3048 10.467 14.1155 14.3532 17.5824 15.6097L17.5843 15.6078Z" fill="#CEEAF2"/>
<path d="M26.555 9.9741L25.8861 16.1423C26.1593 16.211 26.4269 16.2836 26.6925 16.3638C27.32 16.5548 27.9323 16.7648 28.5277 17.0054L32.4713 17.4447C36.1323 17.8533 39.4391 15.1645 39.8423 11.4541C40.2455 7.74362 37.5926 4.39218 33.9316 3.98351C31.6724 3.73144 29.5546 4.65571 28.166 6.27128C27.8701 6.61502 27.6026 6.99122 27.3746 7.39606C26.945 8.16756 26.6567 9.03837 26.555 9.97219V9.9741Z" fill="#CEEAF2"/>
<path d="M34.092 6.44298C33.4683 7.30423 33.8904 8.69255 35.036 9.54235C36.1797 10.3941 37.6136 10.3864 38.2372 9.52516C38.8609 8.66391 38.4388 7.27559 37.2933 6.42579C36.1495 5.57409 34.7157 5.58173 34.092 6.44298Z" fill="white"/>
<path d="M19.949 4.30255C19.3762 5.09315 19.7643 6.3688 20.8157 7.15176C21.8671 7.93472 23.1841 7.92708 23.7569 7.13457C24.3297 6.34397 23.9416 5.06833 22.8902 4.28537C21.8388 3.50241 20.5218 3.51005 19.949 4.30255Z" fill="white"/>
<path d="M136.442 33.0272C136.738 33.0043 136.959 32.7427 136.936 32.4428C136.866 31.5319 136.75 30.6077 136.586 29.6949C136.533 29.3989 136.256 29.2003 135.962 29.2575C135.67 29.311 135.478 29.5936 135.53 29.8896C135.687 30.7662 135.802 31.6542 135.868 32.5269C135.89 32.8114 136.124 33.0291 136.401 33.0291C136.414 33.0291 136.429 33.0291 136.442 33.0291V33.0272ZM130.049 20.0034C130.952 20.0301 131.868 20.1008 132.77 20.2115C133.064 20.2478 133.273 20.519 133.237 20.8169C133.205 21.0919 132.974 21.2943 132.706 21.2943C132.685 21.2943 132.663 21.2943 132.642 21.2905C131.771 21.1835 130.888 21.1167 130.017 21.09C129.721 21.0804 129.488 20.8302 129.497 20.5304C129.507 20.2306 129.755 20.0034 130.049 20.0034ZM134.083 24.7756C133.763 23.9544 133.398 23.1371 133 22.3484C132.864 22.0811 132.97 21.7526 133.234 21.617C133.497 21.4795 133.822 21.5865 133.955 21.8538C134.37 22.6731 134.749 23.5229 135.082 24.3765C135.191 24.6553 135.056 24.9723 134.781 25.0811C134.716 25.1079 134.649 25.1193 134.583 25.1193C134.37 25.1193 134.166 24.9895 134.083 24.7756ZM135.223 40.24C135.423 39.4513 135.585 38.6397 135.7 37.8281C135.741 37.5302 136.015 37.3258 136.307 37.3678C136.601 37.4118 136.804 37.6868 136.761 37.9828C136.64 38.8345 136.471 39.6862 136.262 40.5111L136.211 40.7078C136.147 40.9504 135.93 41.1108 135.693 41.1108C135.647 41.1108 135.6 41.105 135.553 41.0917C135.267 41.0134 135.097 40.7155 135.174 40.4252L135.221 40.2419L135.223 40.24ZM116.836 22.9595C117.097 22.8182 117.421 22.9175 117.561 23.1829C117.7 23.4484 117.602 23.7768 117.34 23.9182C116.568 24.3364 115.82 24.8061 115.119 25.3103C115.025 25.379 114.916 25.4115 114.808 25.4115C114.64 25.4115 114.475 25.3313 114.371 25.1823C114.2 24.9379 114.256 24.598 114.497 24.4242C115.234 23.8933 116.022 23.4006 116.834 22.9595H116.836ZM125.946 52.6795C126.694 52.2918 127.43 51.8239 128.135 51.2873C128.372 51.1059 128.708 51.1555 128.887 51.3943C129.064 51.6349 129.017 51.9748 128.781 52.1562C128.028 52.731 127.238 53.2332 126.435 53.6476C126.358 53.6877 126.273 53.7068 126.192 53.7068C125.996 53.7068 125.81 53.598 125.714 53.4108C125.58 53.1435 125.684 52.815 125.947 52.6795H125.946ZM118.482 53.9322C119.034 54.0277 119.594 54.0792 120.146 54.0869H120.334C120.568 54.0869 120.8 54.0811 121.032 54.0678C121.32 54.0563 121.582 54.2778 121.599 54.5776C121.618 54.8775 121.391 55.1353 121.096 55.1524C120.843 55.1677 120.589 55.1754 120.334 55.1754H120.129C119.524 55.1639 118.91 55.1066 118.303 55.0035C118.011 54.9538 117.815 54.6731 117.864 54.3771C117.913 54.0811 118.192 53.8844 118.482 53.9322ZM121.928 20.9315C122.799 20.6947 123.7 20.4999 124.602 20.3528C124.898 20.3032 125.169 20.5075 125.216 20.8035C125.263 21.0995 125.064 21.3783 124.772 21.4261C123.903 21.5674 123.04 21.7545 122.204 21.9818C122.156 21.9951 122.111 22.0009 122.064 22.0009C121.827 22.0009 121.61 21.8405 121.546 21.5979C121.469 21.3077 121.638 21.0098 121.925 20.9334L121.928 20.9315ZM124.7 12.5691C124.598 12.5691 124.497 12.5404 124.406 12.4793C123.671 11.9885 122.908 11.5436 122.141 11.1559C121.876 11.0223 121.768 10.6957 121.902 10.4265C122.034 10.1572 122.356 10.0502 122.622 10.182C123.428 10.5888 124.227 11.0566 124.996 11.5684C125.243 11.7327 125.312 12.0707 125.15 12.3208C125.047 12.4793 124.877 12.5653 124.702 12.5653L124.7 12.5691ZM133.196 45.3139C133.341 45.0523 133.669 44.9606 133.927 45.1077C134.185 45.2547 134.276 45.587 134.131 45.8486C133.678 46.6602 133.175 47.447 132.634 48.1841C132.529 48.3273 132.367 48.4037 132.203 48.4037C132.092 48.4037 131.979 48.3694 131.885 48.2968C131.647 48.1173 131.598 47.7774 131.773 47.5368C132.288 46.8359 132.766 46.0892 133.196 45.3158V45.3139ZM71.7826 38.0076C71.7562 38.0076 71.7298 38.0076 71.7034 38.0019C71.4114 37.9579 71.2079 37.681 71.2512 37.385C71.4076 36.3099 71.5112 35.4868 71.5866 34.7153C71.6149 34.4174 71.8787 34.2036 72.1726 34.2284C72.4665 34.2589 72.6832 34.5244 72.6531 34.8223C72.5758 35.611 72.4703 36.4512 72.312 37.5435C72.2725 37.8128 72.0445 38.0076 71.7826 38.0076ZM130.586 18.0765C130.428 18.0765 130.272 18.0059 130.166 17.8703C129.624 17.1733 129.041 16.4992 128.436 15.8671C128.231 15.6513 128.235 15.3075 128.448 15.0994C128.661 14.8912 129 14.895 129.205 15.1108C129.835 15.7678 130.441 16.4705 131.007 17.1962C131.189 17.4311 131.15 17.7729 130.918 17.96C130.82 18.0383 130.703 18.0765 130.586 18.0765ZM138.099 21.3649C138.96 21.6342 139.825 21.9474 140.665 22.293C140.94 22.4057 141.072 22.7227 140.961 23.0015C140.876 23.2135 140.676 23.3414 140.463 23.3414C140.395 23.3414 140.328 23.3281 140.262 23.3013C139.448 22.9671 138.613 22.6654 137.78 22.4038C137.498 22.316 137.339 22.0104 137.426 21.724C137.515 21.4375 137.814 21.2771 138.097 21.3649H138.099ZM72.1632 29.8877C72.133 29.8935 72.1048 29.8954 72.0746 29.8954C71.8165 29.8954 71.5904 29.7063 71.547 29.4409C71.4057 28.5815 71.1853 27.7317 70.8895 26.9144C70.7877 26.6318 70.9309 26.3205 71.2079 26.2174C71.4849 26.1123 71.7939 26.2575 71.8956 26.5401C72.214 27.4205 72.4533 28.3371 72.6041 29.2633C72.6531 29.5593 72.4552 29.84 72.1632 29.8877ZM89.7728 30.7948C89.7672 31.0507 89.7634 31.3066 89.7634 31.5625C89.7634 32.1621 89.7785 32.7866 89.8105 33.4722C89.8237 33.772 89.5957 34.026 89.2999 34.0393C89.2924 34.0393 89.283 34.0393 89.2754 34.0393C88.9909 34.0393 88.7535 33.8121 88.7403 33.5199C88.7083 32.8171 88.6932 32.1755 88.6932 31.5587C88.6932 31.2951 88.697 31.0297 88.7026 30.7662C88.7102 30.4664 88.9664 30.2353 89.2509 30.2353C89.5467 30.2429 89.7823 30.4912 89.7747 30.791L89.7728 30.7948ZM145.524 24.7851C146.295 25.2645 147.056 25.7801 147.787 26.3205C148.026 26.4981 148.079 26.838 147.906 27.0805C147.8 27.2257 147.638 27.304 147.472 27.304C147.363 27.304 147.252 27.2696 147.158 27.2008C146.449 26.6776 145.713 26.1773 144.967 25.7132C144.714 25.5566 144.635 25.2224 144.789 24.9666C144.944 24.7107 145.274 24.6305 145.526 24.787L145.524 24.7851ZM151.919 29.9068C152.558 30.5561 153.18 31.2398 153.766 31.9349C153.958 32.1621 153.931 32.5059 153.705 32.7007C153.604 32.7885 153.481 32.8305 153.357 32.8305C153.206 32.8305 153.055 32.7656 152.948 32.6395C152.381 31.9654 151.778 31.3047 151.158 30.6745C150.949 30.4625 150.949 30.1188 151.158 29.9068C151.367 29.6949 151.708 29.6949 151.917 29.9068H151.919ZM156.219 36.2221C156.471 36.0655 156.801 36.1476 156.956 36.4035C157.427 37.1864 157.869 37.9999 158.273 38.8192C158.405 39.0884 158.297 39.415 158.033 39.5487C157.956 39.5869 157.875 39.606 157.794 39.606C157.598 39.606 157.408 39.4952 157.314 39.3061C156.924 38.5136 156.494 37.7269 156.038 36.9687C155.884 36.7128 155.965 36.3786 156.217 36.2221H156.219ZM159.616 43.5838C159.901 43.4978 160.198 43.6621 160.283 43.9485C160.543 44.8327 160.767 45.7359 160.944 46.6316C161.003 46.9257 160.814 47.2121 160.524 47.2713C160.488 47.2789 160.453 47.2828 160.417 47.2828C160.166 47.2828 159.944 47.1052 159.891 46.8474C159.72 45.9842 159.505 45.1134 159.252 44.2598C159.168 43.9714 159.33 43.6697 159.612 43.5838H159.616ZM66.5407 20.1771C67.3849 20.5514 68.1819 21.0919 68.9073 21.7832C69.124 21.9894 69.1334 22.3331 68.9318 22.5508C68.8263 22.6654 68.6831 22.7227 68.5418 22.7227C68.4099 22.7227 68.278 22.6731 68.1743 22.5757C67.5375 21.9703 66.8441 21.4986 66.1111 21.1721C65.8398 21.0518 65.7155 20.7309 65.8361 20.456C65.9548 20.181 66.2694 20.0549 66.5426 20.1771H66.5407ZM71.0873 42.3043C71.3812 42.3349 71.596 42.6022 71.5659 42.9001C71.466 43.874 71.4114 44.7429 71.402 45.5622C71.3982 45.8601 71.1589 46.0988 70.865 46.0988H70.8574C70.5616 46.095 70.3242 45.8486 70.328 45.5488C70.3393 44.6971 70.3939 43.7957 70.4975 42.7894C70.5277 42.4914 70.7877 42.2737 71.0873 42.3062V42.3043ZM71.4999 50.3898C71.7807 50.2962 72.084 50.4471 72.1782 50.7316C72.4609 51.5871 72.8151 52.3873 73.2277 53.1053C73.3766 53.365 73.2899 53.6973 73.0337 53.8482C72.9489 53.8978 72.8566 53.9226 72.7642 53.9226C72.5796 53.9226 72.4006 53.8252 72.3007 53.6534C71.8504 52.8704 71.466 52.0034 71.1608 51.0772C71.0666 50.7927 71.2173 50.4853 71.4981 50.3898H71.4999ZM76.8039 56.5828C77.2128 56.7737 77.6424 56.9246 78.0852 57.0296C78.4507 57.1175 78.8238 57.1729 79.1931 57.1958C79.4889 57.213 79.7131 57.4727 79.6962 57.7706C79.6792 58.0589 79.4437 58.2805 79.1611 58.2805C79.1498 58.2805 79.1385 58.2805 79.1272 58.2805C78.6957 58.2537 78.2623 58.1888 77.8384 58.0876C77.3259 57.9654 76.8247 57.7916 76.3517 57.5701C76.0823 57.444 75.9655 57.1213 76.0898 56.8482C76.2142 56.5751 76.5326 56.4567 76.8021 56.5828H76.8039ZM85.7501 53.9685C85.946 53.7412 86.2833 53.7183 86.5075 53.9169C86.7299 54.1155 86.7525 54.4573 86.5584 54.6846C85.9159 55.4274 85.2206 56.071 84.4914 56.5981C84.3972 56.6668 84.288 56.6993 84.1806 56.6993C84.0129 56.6993 83.8471 56.6191 83.7434 56.472C83.572 56.2276 83.6285 55.8877 83.8697 55.7139C84.531 55.2365 85.1641 54.6502 85.752 53.9704L85.7501 53.9685ZM40.3561 30.7356C40.5182 30.4835 40.8498 30.411 41.0985 30.5771L41.2134 30.6497C41.4659 30.8063 41.5469 31.1405 41.3924 31.3964C41.2907 31.5644 41.1155 31.6561 40.9346 31.6561C40.8404 31.6561 40.7424 31.6312 40.6557 31.5759L40.5144 31.4861C40.2657 31.3219 40.196 30.9858 40.358 30.7337L40.3561 30.7356ZM89.0342 46.9562C89.0851 46.6602 89.3621 46.4616 89.6541 46.5132C89.9462 46.5647 90.1421 46.8455 90.0913 47.1415C89.9368 48.0466 89.6937 48.9614 89.364 49.857C89.283 50.0766 89.0795 50.2122 88.8609 50.2122C88.7987 50.2122 88.7365 50.2007 88.6744 50.1778C88.3974 50.0728 88.2561 49.7615 88.3578 49.4789C88.6631 48.6444 88.891 47.7965 89.0342 46.9562ZM114.735 7.9248C115.65 8.00119 116.566 8.13678 117.454 8.33156C117.744 8.39458 117.928 8.68294 117.864 8.97702C117.81 9.23292 117.587 9.4067 117.34 9.4067C117.303 9.4067 117.265 9.40288 117.227 9.39524C116.383 9.21191 115.515 9.08206 114.646 9.0114C114.35 8.98657 114.132 8.72495 114.154 8.42513C114.179 8.12723 114.437 7.90189 114.733 7.92671L114.735 7.9248ZM53.0876 26.1085C53.4739 25.7018 53.8639 25.2912 54.2615 24.8806C54.4687 24.6667 54.8098 24.6648 55.0189 24.8749C55.2299 25.085 55.2318 25.4287 55.0246 25.6426C54.6308 26.0474 54.2426 26.4561 53.8601 26.8609L53.1573 27.6C53.0518 27.7069 52.9162 27.7585 52.7786 27.7585C52.6411 27.7585 52.5035 27.705 52.3999 27.6C52.1907 27.388 52.1907 27.0443 52.3999 26.8323L53.0895 26.1085H53.0876ZM58.4086 21.2695C59.2659 20.7023 60.0874 20.2879 60.9221 19.9995C61.2028 19.9022 61.5062 20.0549 61.6023 20.3395C61.6984 20.624 61.5476 20.9315 61.2669 21.0288C60.5189 21.2867 59.7765 21.6629 58.9964 22.1785C58.906 22.2377 58.8043 22.2663 58.7044 22.2663C58.5292 22.2663 58.3577 22.1804 58.2541 22.02C58.092 21.7679 58.1617 21.4318 58.4105 21.2676L58.4086 21.2695ZM45.9578 31.1023C46.7153 30.8788 47.5047 30.5351 48.3036 30.0806C48.5618 29.9336 48.8896 30.0271 49.0328 30.2888C49.1779 30.5504 49.0856 30.8808 48.8275 31.0278C47.957 31.5224 47.0921 31.8986 46.2574 32.1449C46.2065 32.1602 46.1576 32.1659 46.1067 32.1659C45.8749 32.1659 45.6601 32.0113 45.5923 31.7745C45.5094 31.4861 45.6733 31.1844 45.9578 31.1004V31.1023ZM107.437 35.273C107.724 35.3474 107.897 35.6453 107.822 35.9356C107.603 36.793 107.452 37.6638 107.371 38.5232C107.345 38.8058 107.111 39.0159 106.838 39.0159C106.821 39.0159 106.804 39.0159 106.787 39.014C106.493 38.9853 106.275 38.7218 106.303 38.422C106.388 37.5053 106.55 36.5753 106.781 35.6625C106.855 35.3723 107.149 35.1947 107.435 35.273H107.437ZM107.13 43.3336C107.416 43.2553 107.71 43.4234 107.789 43.7136C108.014 44.5424 108.321 45.3636 108.703 46.1561C108.833 46.4253 108.722 46.7519 108.456 46.8817C108.381 46.9199 108.3 46.9371 108.221 46.9371C108.023 46.9371 107.831 46.8245 107.739 46.6316C107.328 45.778 106.998 44.8938 106.755 44.0001C106.676 43.7117 106.844 43.4119 107.13 43.3317V43.3336ZM89.8181 42.1725C89.5317 42.1725 89.2924 41.9415 89.2829 41.6493C89.2547 40.8721 89.2057 40.0165 89.1266 38.9586C89.104 38.6588 89.3263 38.3991 89.6202 38.3761C89.9273 38.3513 90.1723 38.5786 90.1949 38.8765C90.274 39.9497 90.3249 40.8186 90.3532 41.6111C90.3645 41.9109 90.1327 42.163 89.8369 42.1744C89.8312 42.1744 89.8237 42.1744 89.8181 42.1744V42.1725ZM111.735 50.3726C112.362 50.9837 113.041 51.5337 113.749 52.0072C113.996 52.1715 114.066 52.5095 113.902 52.7597C113.798 52.9182 113.629 53.0041 113.453 53.0041C113.352 53.0041 113.25 52.9754 113.159 52.9143C112.396 52.4045 111.667 51.8125 110.993 51.1555C110.78 50.9474 110.772 50.6037 110.978 50.3879C111.183 50.1721 111.522 50.1663 111.735 50.3726ZM110.501 28.2435C110.687 28.0105 111.025 27.9743 111.255 28.1614C111.484 28.3505 111.522 28.6923 111.336 28.9253C110.791 29.6127 110.288 30.3403 109.843 31.0908C109.742 31.2608 109.564 31.3543 109.384 31.3543C109.289 31.3543 109.193 31.3295 109.108 31.276C108.854 31.1214 108.773 30.7872 108.926 30.5313C109.397 29.7388 109.926 28.9692 110.503 28.2454L110.501 28.2435ZM106.584 8.74978C107.469 8.49961 108.368 8.30101 109.259 8.15396C109.551 8.10622 109.826 8.30674 109.873 8.60464C109.921 8.90064 109.721 9.17945 109.429 9.22719C108.577 9.36659 107.718 9.55756 106.87 9.79627C106.821 9.80963 106.774 9.81536 106.727 9.81536C106.491 9.81536 106.276 9.65686 106.211 9.41815C106.131 9.1298 106.297 8.82998 106.584 8.74787V8.74978ZM89.9707 25.9577C89.9236 25.9577 89.8746 25.9519 89.8256 25.9367C89.5411 25.8565 89.3734 25.5566 89.4525 25.2683C89.6956 24.3822 90.0046 23.498 90.3682 22.6425C90.4851 22.3656 90.8016 22.2396 91.0729 22.358C91.3443 22.4764 91.4705 22.7972 91.3537 23.0722C91.0089 23.8838 90.7168 24.7202 90.4851 25.5605C90.4191 25.8011 90.2024 25.9577 89.9688 25.9577H89.9707ZM94.9468 15.7563C95.1522 15.5405 95.4914 15.5348 95.7043 15.7429C95.9172 15.9511 95.9228 16.2967 95.7175 16.5106C95.107 17.1503 94.5304 17.8264 94.0047 18.5196C93.8992 18.659 93.741 18.7315 93.5789 18.7315C93.4659 18.7315 93.3509 18.6953 93.2529 18.6189C93.0174 18.4355 92.9741 18.0937 93.155 17.8569C93.7052 17.1312 94.3081 16.4228 94.9468 15.7544V15.7563ZM101.504 10.7969C101.766 10.6594 102.09 10.7606 102.227 11.0261C102.365 11.2915 102.265 11.62 102.001 11.7594C101.231 12.17 100.471 12.6264 99.744 13.1172C99.6517 13.1802 99.5499 13.2088 99.4482 13.2088C99.2748 13.2088 99.1052 13.1248 99.0016 12.9663C98.8377 12.7161 98.9036 12.38 99.1505 12.2139C99.9079 11.7021 100.699 11.2266 101.504 10.7988V10.7969Z" fill="#592B02"/>
</svg>
