<svg width="135" height="78" viewBox="0 0 135 78" fill="none" xmlns="http://www.w3.org/2000/svg">
<g clip-path="url(#clip0_145_28222)">
<g clip-path="url(#clip1_145_28222)">
<path d="M23.6497 45.7453C13.9229 45.0874 6.45226 38.5519 6.96359 31.148C7.47493 23.744 15.7746 18.2753 25.5014 18.9332C35.2282 19.5911 42.6989 26.1266 42.1875 33.5306C41.6762 40.9345 33.3765 46.4032 23.6497 45.7453Z" fill="#FFD34E"/>
<path d="M9.31997 25.1907C9.42044 32.2325 16.68 38.2908 26.0274 38.9219C32.8654 39.3845 38.9936 36.8146 42.2106 32.6777C42.215 32.9652 42.2106 33.2526 42.1909 33.5423C41.6799 40.9472 33.3808 46.4155 23.6534 45.7584C13.926 45.1013 6.4546 38.5675 6.96565 31.1626C7.11634 28.9644 7.95936 26.9392 9.31779 25.1907H9.31997Z" fill="#F0B900"/>
<path d="M12.4443 29.2826C12.37 30.3438 13.1803 31.2624 14.2526 31.3337C15.3184 31.4051 16.2531 30.6053 16.3252 29.5441C16.3994 28.4829 15.5826 27.5643 14.5169 27.493C13.4445 27.4195 12.5163 28.2213 12.4443 29.2826Z" fill="#592B02"/>
<path d="M3.29312 13.4677C4.99225 13.5822 6.27424 15.0368 6.15849 16.7184C6.15849 16.7486 6.14321 16.7724 6.14102 16.8027C8.08913 17.9201 9.71836 19.3142 10.9916 20.9828C12.4265 19.9648 14.0601 19.1197 15.8488 18.4821C14.486 17.5635 13.3634 16.3229 12.575 14.8337C11.3083 12.4367 11.055 9.70037 11.8674 7.11752C13.5425 1.78755 19.2929 -1.2038 24.6786 0.462623C26.7839 1.11104 28.5748 2.39706 29.859 4.12401C31.8813 2.06637 34.7685 0.866802 37.8807 1.07862C43.5044 1.45902 47.7741 6.2962 47.3897 11.8682C47.0294 17.1031 42.6942 21.1449 37.5072 21.2984C41.4209 24.0844 43.9347 28.003 44.1509 32.2782L45.0398 32.7688L46.0728 33.3373C46.5118 33.5772 46.4746 34.0981 46.0073 34.2753L44.9065 34.7011L43.9587 35.0685C43.0589 39.8106 39.3199 43.7184 34.1701 45.8365C34.1636 45.8473 34.1614 45.8603 34.1548 45.8668L34.1243 45.8581C30.9837 47.1442 27.3277 47.7666 23.4708 47.5051C12.658 46.7746 4.32177 39.3805 4.89834 31.0224C5.12111 27.7825 6.65643 24.8711 9.07627 22.5563C7.99739 21.1211 6.59965 19.9107 4.91581 18.9403C4.3436 19.3639 3.636 19.5995 2.8738 19.5476C1.17466 19.4331 -0.107326 17.9785 0.00842433 16.3012C0.124175 14.6197 1.59398 13.3509 3.29312 13.4655V13.4677ZM41.6612 33.508C41.9232 29.7148 39.8943 26.1571 36.483 23.5829C37.2998 30.0628 36.8608 36.4497 35.1551 42.655C38.8941 40.5649 41.3991 37.3056 41.6612 33.508ZM36.6555 18.8236C40.9164 19.111 44.6183 15.9144 44.9087 11.6997C45.1992 7.48496 41.9691 3.81925 37.7104 3.53179C35.0809 3.35455 32.6719 4.49792 31.141 6.39346C30.8134 6.79764 30.5229 7.23424 30.2783 7.70326C29.8175 8.59591 29.5248 9.59447 29.4528 10.6557L28.9701 17.6629C29.2889 17.7278 29.6034 17.7991 29.9158 17.8747C30.6496 18.0606 31.3703 18.2681 32.0713 18.5145L36.6599 18.8236H36.6555ZM24.1741 45.0757C26.2991 45.1708 28.3433 44.9741 30.2412 44.5311L30.0468 44.4684C32.6807 36.9143 33.2245 29.0123 31.6673 20.985C31.6367 20.9698 31.6061 20.9633 31.5756 20.9482C30.8046 20.6672 29.9987 20.4295 29.171 20.2306C28.7735 20.129 28.3673 20.0469 27.9502 19.9691C27.4217 19.8718 26.8844 19.7984 26.334 19.7357C26.1921 19.7205 26.0501 19.7097 25.9016 19.6946C25.9759 20.0685 26.0305 20.4489 26.0982 20.8228C26.1724 21.2724 26.2423 21.7263 26.3035 22.1737C27.3823 29.9093 26.6725 37.5865 24.1763 45.0757H24.1741ZM26.5022 17.2803L26.9717 10.4871C27.0788 8.92876 27.5527 7.48712 28.2821 6.2119C27.3365 4.64274 25.8361 3.39562 23.9382 2.81205C23.3464 2.63049 22.7567 2.52242 22.1605 2.48135C18.6705 2.24576 15.3246 4.3985 14.2392 7.85239C12.9703 11.8855 15.2525 16.1953 19.3278 17.4489L19.5419 17.5138C21.4594 17.1744 23.4861 17.0577 25.5631 17.1982C25.8798 17.2198 26.1943 17.2479 26.5044 17.2803H26.5022ZM7.37715 31.191C6.96219 37.204 12.2867 42.6377 19.7799 44.4576C22.5012 36.7198 23.1367 28.753 21.6713 20.745C21.6079 20.4079 21.538 20.0642 21.4681 19.727C20.7605 19.7962 20.0617 19.9021 19.3846 20.0426C12.7366 21.3999 7.75279 25.7422 7.37715 31.191Z" fill="#592B02"/>
<path d="M19.3277 17.4488L19.5417 17.5136C21.4592 17.1743 23.486 17.0576 25.5629 17.198C25.8796 17.2197 26.1941 17.2478 26.5042 17.2802L26.9738 10.4869C27.0808 8.92859 27.5547 7.48695 28.2842 6.21173C27.3385 4.64257 25.8381 3.39545 23.9402 2.81188C23.3484 2.63032 22.7587 2.52225 22.1625 2.48119C18.6725 2.24559 15.3266 4.39833 14.2412 7.85222C12.9723 11.8854 15.2546 16.1952 19.3299 17.4488H19.3277Z" fill="#CEEAF2"/>
<path d="M29.4531 10.6537L28.9704 17.6609C29.2893 17.7257 29.6037 17.797 29.9161 17.8727C30.6499 18.0586 31.3706 18.266 32.0716 18.5124L36.6602 18.8215C40.9211 19.109 44.6229 15.9123 44.9134 11.6976C45.2039 7.4829 41.9738 3.8172 37.715 3.52973C35.0855 3.3525 32.6766 4.49587 31.1456 6.3914C30.818 6.79558 30.5276 7.23218 30.283 7.7012C29.8221 8.59385 29.5295 9.59241 29.4574 10.6537H29.4531Z" fill="#CEEAF2"/>
<path d="M38.0146 6.30241C37.3332 7.30529 37.8879 8.855 39.2529 9.76278C40.6179 10.6706 42.2777 10.5949 42.9591 9.59203C43.6405 8.58915 43.0858 7.03944 41.7208 6.13166C40.3558 5.22388 38.696 5.29953 38.0146 6.30241Z" fill="white"/>
<path d="M21.5336 4.55185C20.9068 5.47259 21.4179 6.89695 22.6715 7.73124C23.9273 8.56553 25.4517 8.49421 26.0763 7.57346C26.7031 6.65271 26.192 5.22836 24.9384 4.39406C23.6827 3.55977 22.1583 3.6311 21.5336 4.55185Z" fill="white"/>
<path d="M155.082 43.5238C154.99 43.8502 155.187 44.1895 155.516 44.2803C155.571 44.2954 155.628 44.3019 155.682 44.3019C155.955 44.3019 156.206 44.1225 156.281 43.8502C156.565 42.8279 156.873 41.8552 157.198 40.9604C157.314 40.6405 157.146 40.2882 156.822 40.1737C156.499 40.0591 156.143 40.2256 156.027 40.5454C155.693 41.4705 155.374 42.4734 155.082 43.526V43.5238ZM160.869 32.4294C161.114 32.1917 161.507 32.1939 161.747 32.4359C161.987 32.678 161.985 33.0671 161.741 33.3048C161.07 33.9597 160.435 34.727 159.852 35.5829C159.731 35.7601 159.535 35.8552 159.336 35.8552C159.216 35.8552 159.096 35.8207 158.989 35.7493C158.705 35.5591 158.629 35.1766 158.821 34.8956C159.45 33.9705 160.14 33.1427 160.867 32.4294H160.869ZM166.469 29.2457C167.526 28.9777 168.631 28.8653 169.73 28.915C170.073 28.9302 170.339 29.2176 170.324 29.557C170.308 29.8963 170.011 30.173 169.677 30.1449C168.699 30.1038 167.718 30.2011 166.777 30.4388C166.725 30.4518 166.674 30.4583 166.622 30.4583C166.344 30.4583 166.091 30.2724 166.021 29.9957C165.936 29.6672 166.137 29.3322 166.469 29.2479V29.2457ZM153.741 49.5822C153.804 49.2472 154.13 49.0267 154.466 49.0915C154.802 49.1542 155.025 49.4763 154.962 49.8091C154.752 50.9114 154.544 51.9057 154.328 52.8459C154.263 53.1312 154.007 53.3235 153.723 53.3235C153.677 53.3235 153.632 53.3192 153.584 53.3084C153.249 53.2328 153.04 52.9021 153.116 52.5714C153.33 51.6463 153.533 50.6694 153.741 49.5822ZM128.632 62.289C129.186 63.0951 129.833 63.8516 130.551 64.5411C130.798 64.7789 130.803 65.1679 130.564 65.41C130.442 65.5354 130.281 65.5959 130.119 65.5959C129.957 65.5959 129.807 65.5375 129.687 65.423C128.909 64.6773 128.21 63.8538 127.607 62.9806C127.413 62.6996 127.487 62.3171 127.771 62.1269C128.055 61.9366 128.442 62.008 128.634 62.289H128.632ZM151.38 58.3855C151.502 58.0678 151.863 57.91 152.181 58.031C152.502 58.1521 152.662 58.5087 152.54 58.8243C152.142 59.8531 151.705 60.8192 151.245 61.6967C151.133 61.9064 150.917 62.0274 150.692 62.0274C150.596 62.0274 150.498 62.0058 150.406 61.9583C150.102 61.8005 149.984 61.4287 150.142 61.1283C150.581 60.294 150.998 59.3711 151.38 58.3855ZM135.535 67.6946C136.483 68.0447 137.446 68.2738 138.398 68.3797C138.739 68.4186 138.986 68.7212 138.947 69.0606C138.912 69.374 138.643 69.6074 138.331 69.6074C138.307 69.6074 138.285 69.6074 138.261 69.6031C137.206 69.4864 136.142 69.2335 135.101 68.8466C134.78 68.7277 134.616 68.3732 134.736 68.0555C134.856 67.7378 135.212 67.5779 135.535 67.6946ZM131.595 28.4352C131.672 28.0851 131.737 27.7306 131.794 27.374C131.846 27.039 132.163 26.8077 132.504 26.8596C132.842 26.9114 133.076 27.2248 133.024 27.562C132.965 27.9446 132.893 28.3228 132.812 28.6967C132.676 29.3214 132.506 29.9741 132.309 30.6355C132.231 30.9035 131.982 31.0764 131.713 31.0764C131.654 31.0764 131.595 31.0678 131.539 31.0505C131.209 30.9554 131.021 30.6139 131.117 30.2875C131.305 29.6542 131.466 29.0296 131.597 28.4352H131.595ZM144.101 67.4093C144.968 66.9943 145.791 66.4561 146.547 65.8077C146.807 65.5851 147.2 65.6153 147.423 65.8704C147.648 66.1276 147.619 66.5166 147.359 66.7392C146.521 67.4568 145.605 68.0534 144.64 68.5159C144.553 68.557 144.461 68.5764 144.369 68.5764C144.138 68.5764 143.917 68.4489 143.81 68.2284C143.662 67.9237 143.791 67.5541 144.099 67.4071L144.101 67.4093ZM175.897 30.7911C176.81 31.3185 177.688 31.9475 178.507 32.6607C178.765 32.8855 178.789 33.2745 178.564 33.5296C178.442 33.6679 178.269 33.7371 178.096 33.7371C177.95 33.7371 177.804 33.6874 177.686 33.5836C176.926 32.9222 176.113 32.3387 175.27 31.8524C174.973 31.6816 174.873 31.3055 175.048 31.0116C175.22 30.7176 175.602 30.6182 175.897 30.7911ZM181.63 37.3877C181.934 37.2299 182.309 37.3466 182.469 37.6492C182.613 37.9215 182.748 38.1982 182.875 38.477C183.183 39.1513 183.458 39.8581 183.698 40.5779C183.805 40.8999 183.628 41.2479 183.303 41.3538C183.238 41.3754 183.174 41.3841 183.109 41.3841C182.847 41.3841 182.604 41.2198 182.519 40.9604C182.294 40.2796 182.032 39.6139 181.744 38.9806C181.626 38.7234 181.501 38.4684 181.368 38.2176C181.209 37.915 181.327 37.5454 181.632 37.3877H181.63ZM129.658 37.4698C129.396 38.0728 129.134 38.6758 128.876 39.281C128.776 39.5166 128.546 39.6571 128.304 39.6571C128.223 39.6571 128.142 39.642 128.064 39.6096C127.747 39.4777 127.599 39.1168 127.732 38.8034C127.99 38.1939 128.254 37.5887 128.518 36.9813L128.955 35.972C129.09 35.6585 129.455 35.5137 129.772 35.6477C130.088 35.7817 130.235 36.1427 130.099 36.4561L129.66 37.4698H129.658ZM132.414 21.9532C132.371 21.9619 132.327 21.9662 132.285 21.9662C131.997 21.9662 131.739 21.7673 131.678 21.4799C131.464 20.4835 131.148 19.5541 130.735 18.7155C130.584 18.4107 130.713 18.0411 131.021 17.8941C131.329 17.745 131.702 17.8704 131.853 18.1773C132.309 19.1045 132.661 20.1312 132.897 21.2248C132.969 21.5577 132.753 21.8841 132.419 21.9554L132.414 21.9532ZM80.6803 28.2277L80.1955 31.2666C80.1474 31.5692 79.8832 31.7854 79.5818 31.7854C79.549 31.7854 79.5163 31.7832 79.4835 31.7789C79.145 31.7248 78.9135 31.4114 78.9659 31.0764L79.4508 28.0375C79.5032 27.7025 79.822 27.4691 80.1605 27.5253C80.4991 27.5771 80.7306 27.8927 80.6781 28.2277H80.6803ZM80.9948 22.6665C80.973 22.6665 80.9533 22.6665 80.9315 22.6643C80.5908 22.6297 80.3418 22.3271 80.3768 21.99C80.4488 21.2918 80.486 20.6283 80.486 20.0188C80.486 19.6838 80.475 19.3531 80.451 19.0245C80.427 18.6852 80.6847 18.3913 81.0254 18.3675C81.3683 18.3394 81.6653 18.5988 81.6893 18.9359C81.7155 19.2926 81.7265 19.6535 81.7265 20.0166C81.7265 20.6672 81.6871 21.3718 81.6107 22.1132C81.5779 22.4287 81.3071 22.6665 80.9926 22.6665H80.9948ZM182.198 68.7947C182.176 68.7947 182.154 68.7947 182.135 68.7926C181.794 68.758 181.545 68.4554 181.58 68.1182C181.678 67.1802 181.803 66.1751 181.96 65.0426C182.008 64.7054 182.32 64.4655 182.661 64.5173C183.002 64.5649 183.238 64.874 183.192 65.2111C183.034 66.3286 182.912 67.3185 182.816 68.2414C182.783 68.5591 182.512 68.7947 182.198 68.7947ZM181.918 73.7054C182.261 73.673 182.55 73.9604 182.561 74.2998C182.595 75.3351 182.681 76.3444 182.809 77.3041C182.855 77.6413 182.615 77.9503 182.277 77.9957C182.248 78 182.22 78 182.194 78C181.888 78 181.619 77.7753 181.578 77.4662C181.442 76.4676 181.355 75.415 181.318 74.3408C181.307 74.0015 181.576 73.7162 181.918 73.7054ZM182.892 58.9539C182.947 58.593 183.002 58.2342 183.054 57.8733C183.148 57.227 183.235 56.5786 183.316 55.9237C183.358 55.5865 183.668 55.3401 184.008 55.3877C184.349 55.4287 184.592 55.7356 184.55 56.0728C184.469 56.7342 184.38 57.3934 184.284 58.0483C184.231 58.4114 184.177 58.7724 184.122 59.1355C184.076 59.4403 183.81 59.6585 183.508 59.6585C183.478 59.6585 183.447 59.6564 183.414 59.6521C183.076 59.6024 182.842 59.289 182.892 58.9518V58.9539ZM184.371 50.4813C184.028 50.4792 183.753 50.2003 183.755 49.861V49.4979C183.755 48.5815 183.722 47.6867 183.657 46.8415C183.631 46.5022 183.886 46.2061 184.229 46.1802C184.574 46.1564 184.869 46.4071 184.897 46.7464C184.965 47.624 185 48.5512 185 49.4979V49.8718C184.996 50.209 184.718 50.4813 184.378 50.4813H184.373H184.371ZM59.8845 33.9856C60.8084 33.5988 61.6688 33.1103 62.4398 32.5354C62.7128 32.33 63.1037 32.3841 63.3112 32.6564C63.5187 32.9266 63.4641 33.3135 63.1889 33.5188C62.3371 34.1564 61.3871 34.6946 60.3672 35.1204C60.2886 35.1528 60.2056 35.1701 60.1248 35.1701C59.8823 35.1701 59.653 35.0296 59.5526 34.794C59.4193 34.4806 59.5679 34.1196 59.8823 33.9878L59.8845 33.9856ZM76.7579 50.0231C76.7361 50.0231 76.7121 50.0231 76.6902 50.0188C76.3495 49.982 76.1027 49.6773 76.1398 49.3401C76.2381 48.4496 76.3714 47.4727 76.5548 46.2688C76.605 45.9338 76.9217 45.7068 77.2624 45.7522C77.6009 45.8041 77.8346 46.1175 77.7844 46.4525C77.6031 47.6413 77.4743 48.6009 77.376 49.4763C77.341 49.7918 77.0724 50.0231 76.7579 50.0231ZM77.5179 40.1888L78.0028 37.1499C78.0552 36.8149 78.3741 36.5836 78.7126 36.6377C79.0511 36.6895 79.2826 37.0051 79.2302 37.3401L78.7453 40.379C78.6973 40.6816 78.433 40.8977 78.1316 40.8977C78.0989 40.8977 78.0661 40.8956 78.0334 40.8913C77.6948 40.8372 77.4633 40.5238 77.5158 40.1888H77.5179ZM76.5526 54.9338C76.8933 54.9013 77.1969 55.1542 77.2253 55.4914C77.2559 55.8459 77.2974 56.2003 77.3476 56.5526C77.4371 57.1838 77.5616 57.8127 77.7189 58.4222C77.804 58.7508 77.6031 59.0858 77.2711 59.1701C77.2187 59.183 77.1685 59.1895 77.1161 59.1895C76.8387 59.1895 76.5854 59.0036 76.5155 58.727C76.3473 58.0721 76.2119 57.3977 76.1158 56.7212C76.0634 56.3473 76.0197 55.9712 75.987 55.5973C75.9564 55.2601 76.2097 54.9597 76.5504 54.9316L76.5526 54.9338ZM80.2654 63.709C80.89 64.4957 81.5954 65.1744 82.3642 65.7277C82.6415 65.9287 82.7027 66.3113 82.5018 66.5879C82.3795 66.7522 82.1916 66.8408 81.9995 66.8408C81.8728 66.8408 81.7439 66.8019 81.6347 66.7241C80.7742 66.1038 79.9858 65.3451 79.2913 64.4698C79.0795 64.2039 79.1253 63.8171 79.3962 63.6074C79.667 63.3956 80.0579 63.4431 80.2697 63.7111L80.2654 63.709ZM75.2597 12.5836C76.4434 12.4064 77.5594 12.6009 78.5662 13.1499L78.658 13.2018C78.955 13.3704 79.0598 13.7465 78.8895 14.0404C78.7737 14.2392 78.5641 14.3495 78.35 14.3495C78.2452 14.3495 78.1404 14.3235 78.0421 14.2673L77.9635 14.2241C77.2013 13.807 76.3604 13.6622 75.4475 13.7983C75.109 13.848 74.7923 13.6189 74.7399 13.2839C74.6875 12.9467 74.9212 12.6333 75.2619 12.5836H75.2597ZM87.8176 67.5325C88.7785 67.5584 89.7591 67.459 90.7484 67.2407C91.0826 67.1694 91.4146 67.3769 91.491 67.7075C91.5653 68.0382 91.3534 68.3668 91.0193 68.4424C90.0452 68.6564 89.069 68.7666 88.1211 68.7666C88.0076 68.7666 87.8962 68.7666 87.7826 68.7623C87.4397 68.7515 87.1689 68.4683 87.1798 68.129C87.1908 67.7897 87.4725 67.5325 87.8197 67.5303L87.8176 67.5325ZM66.7837 25.0851C66.8645 24.7544 67.2008 24.5512 67.5328 24.6312C67.867 24.7111 68.0722 25.0418 67.9914 25.3725C67.6922 26.6024 67.4083 27.5339 67.0654 28.3941C66.9693 28.6362 66.7357 28.7854 66.4867 28.7854C66.4102 28.7854 66.3338 28.7724 66.2596 28.7421C65.9407 28.6189 65.7834 28.2601 65.9079 27.9446C66.2268 27.1384 66.4976 26.2565 66.7815 25.0851H66.7837ZM50.4214 34.7897C50.5306 34.4676 50.8844 34.2947 51.2076 34.4028C52.1183 34.7054 53.0902 34.8913 54.0926 34.9583C54.4355 34.982 54.6954 35.2738 54.6714 35.6132C54.6496 35.9395 54.3765 36.1881 54.0511 36.1881C54.038 36.1881 54.0227 36.1881 54.0096 36.1881C52.9002 36.1146 51.8235 35.9071 50.8101 35.5721C50.4847 35.464 50.31 35.116 50.4192 34.794L50.4214 34.7897ZM68.6379 18.2356C68.9371 17.5267 69.3346 16.8329 69.8194 16.1802C70.0225 15.9078 70.4113 15.8473 70.6887 16.0483C70.966 16.2493 71.025 16.6341 70.8219 16.9086C70.3938 17.4835 70.0466 18.0908 69.7845 18.709C69.6775 18.9619 69.5792 19.2169 69.4875 19.472C69.3979 19.7248 69.1577 19.8826 68.9022 19.8826C68.8323 19.8826 68.7624 19.8718 68.6947 19.848C68.3715 19.7335 68.2011 19.3833 68.3169 19.0635C68.4173 18.7868 68.5222 18.5101 68.6379 18.2378V18.2356ZM124.192 12.575C125.312 12.722 126.373 13.044 127.347 13.5346C127.653 13.6881 127.776 14.0599 127.618 14.3624C127.509 14.5764 127.291 14.6975 127.064 14.6975C126.97 14.6975 126.871 14.6758 126.782 14.6305C125.932 14.2025 125.006 13.9215 124.026 13.7918C123.685 13.7465 123.447 13.4374 123.491 13.1024C123.536 12.7652 123.851 12.5274 124.187 12.5728L124.192 12.575ZM114.927 14.9222C115.851 14.3408 116.814 13.8524 117.795 13.4676C118.114 13.3423 118.474 13.4979 118.601 13.8135C118.727 14.129 118.57 14.4878 118.251 14.611C117.345 14.9655 116.452 15.4194 115.596 15.9597C115.493 16.0245 115.377 16.0548 115.261 16.0548C115.056 16.0548 114.855 15.9554 114.737 15.7695C114.554 15.482 114.639 15.1038 114.927 14.9201V14.9222ZM109.264 20.7126C109.552 20.2133 109.88 19.7184 110.234 19.2428C110.437 18.9684 110.826 18.9122 111.103 19.111C111.38 19.312 111.439 19.6967 111.236 19.9712C110.911 20.41 110.61 20.866 110.345 21.3243C110.122 21.709 109.908 22.111 109.705 22.5173C109.596 22.7335 109.378 22.861 109.148 22.861C109.057 22.861 108.963 22.8416 108.873 22.7983C108.565 22.6492 108.439 22.2796 108.592 21.9748C108.806 21.5469 109.033 21.1211 109.269 20.7147L109.264 20.7126ZM98.4426 62.9179C98.6828 62.6737 99.0759 62.6715 99.3205 62.9093C99.5651 63.147 99.5695 63.5361 99.3293 63.7781C98.5824 64.5325 97.7568 65.2241 96.8745 65.8358C96.7653 65.9114 96.6408 65.9482 96.5185 65.9482C96.3219 65.9482 96.1298 65.8574 96.0096 65.6866C95.8131 65.4078 95.8808 65.0253 96.1603 64.8307C96.9793 64.2623 97.7481 63.6182 98.4426 62.9179ZM125.201 53.3516C125.546 53.3214 125.841 53.5786 125.867 53.9179C125.945 54.9316 126.094 55.9215 126.312 56.866C126.389 57.1967 126.179 57.5274 125.845 57.6031C125.799 57.6139 125.751 57.6182 125.705 57.6182C125.421 57.6182 125.166 57.4258 125.1 57.1405C124.869 56.1377 124.709 55.0851 124.626 54.0109C124.6 53.6715 124.856 53.3776 125.198 53.3516H125.201ZM125.561 48.4518C125.528 48.4518 125.493 48.4496 125.458 48.4431C125.12 48.3869 124.891 48.0714 124.947 47.7364C125.115 46.727 125.343 45.6982 125.622 44.6737C125.712 44.3452 126.052 44.1506 126.384 44.2392C126.716 44.3279 126.913 44.665 126.823 44.9936C126.557 45.977 126.338 46.9691 126.175 47.9395C126.124 48.24 125.86 48.4539 125.563 48.4539L125.561 48.4518ZM102.898 55.2277C103.005 54.9057 103.357 54.7263 103.682 54.8365C104.007 54.9424 104.186 55.2904 104.077 55.6124C103.737 56.6369 103.343 57.6204 102.909 58.539C102.804 58.7616 102.579 58.8934 102.345 58.8934C102.258 58.8934 102.166 58.874 102.081 58.8351C101.771 58.6902 101.638 58.325 101.782 58.0159C102.197 57.1427 102.57 56.2047 102.896 55.2277H102.898ZM105.307 45.7652C105.648 45.7976 105.899 46.098 105.866 46.4374C105.757 47.5462 105.634 48.5555 105.488 49.5217C105.442 49.8264 105.176 50.0469 104.874 50.0469C104.844 50.0469 104.813 50.0447 104.783 50.0404C104.444 49.9907 104.208 49.6773 104.259 49.3423C104.4 48.3956 104.523 47.4078 104.628 46.3207C104.66 45.9835 104.966 45.7371 105.307 45.7673V45.7652ZM105.634 40.8545C105.292 40.8351 105.029 40.5454 105.047 40.2061C105.102 39.1838 105.16 38.1549 105.23 37.1261C105.252 36.7868 105.549 36.5447 105.892 36.5534C106.235 36.5771 106.493 36.8689 106.471 37.2083C106.401 38.2306 106.344 39.2551 106.287 40.2709C106.27 40.5995 105.995 40.8524 105.667 40.8524C105.656 40.8524 105.645 40.8524 105.632 40.8524L105.634 40.8545ZM105.886 30.9575C106.058 29.8682 106.255 28.8653 106.488 27.8927C106.567 27.562 106.903 27.3567 107.237 27.4367C107.572 27.5145 107.779 27.8473 107.698 28.1758C107.473 29.116 107.281 30.0887 107.115 31.1477C107.067 31.4503 106.803 31.6665 106.501 31.6665C106.469 31.6665 106.436 31.6643 106.405 31.66C106.067 31.6081 105.835 31.2926 105.888 30.9575H105.886Z" fill="#592B02"/>
</g>
</g>
<defs>
<clipPath id="clip0_145_28222">
<rect width="135" height="78" fill="white"/>
</clipPath>
<clipPath id="clip1_145_28222">
<rect width="185" height="78" fill="white" transform="matrix(-1 0 0 1 185 0)"/>
</clipPath>
</defs>
</svg>
