<svg width="123" height="51" viewBox="0 0 123 51" fill="none" xmlns="http://www.w3.org/2000/svg">
<g clip-path="url(#clip0_24_26626)">
<path d="M110.861 34.3556C114.669 30.4579 113.653 23.2796 108.593 18.3224C103.532 13.3651 96.3438 12.5061 92.5364 16.4038C88.729 20.3014 89.7446 27.4797 94.8048 32.437C99.8651 37.3942 107.054 38.2532 110.861 34.3556Z" fill="#FFD34E"/>
<path d="M112.996 30.1608C109.092 33.5495 102.265 32.5713 97.4032 27.8089C93.8464 24.3233 92.2908 19.7419 93.0028 15.972C92.8442 16.1102 92.6872 16.2531 92.5382 16.4056C88.7308 20.3025 89.7457 27.4818 94.8058 32.438C99.8658 37.3957 107.054 38.2548 110.861 34.3578C111.992 33.2002 112.694 31.7535 112.994 30.1608H112.996Z" fill="#F0B900"/>
<path d="M109.245 30.4657C108.7 31.0246 107.806 31.0342 107.247 30.4879C106.692 29.9448 106.68 29.046 107.225 28.487C107.771 27.928 108.668 27.9217 109.223 28.4648C109.781 29.0111 109.791 29.9067 109.245 30.4657Z" fill="#592B02"/>
<path d="M122.326 27.6994C121.443 26.8339 120.025 26.8498 119.161 27.7343C119.145 27.7502 119.139 27.7692 119.123 27.7851C117.569 27.2754 116.02 27.0721 114.489 27.1976C114.355 25.9208 114.028 24.6202 113.513 23.3387C114.675 23.6293 115.896 23.6325 117.093 23.3308C119.018 22.8465 120.639 21.6459 121.66 19.9404C123.769 16.4246 122.627 11.8417 119.113 9.7328C117.742 8.90705 116.172 8.56404 114.605 8.71172C114.754 6.60763 114.017 4.4559 112.396 2.86949C109.471 0.00316633 104.758 0.052394 101.892 2.98542C99.1998 5.74059 99.0825 10.0695 101.504 12.9596C98.0882 12.1974 94.7265 12.75 92.2813 14.7223L91.5836 14.4809L90.7733 14.1982C90.4307 14.0776 90.1628 14.3523 90.2912 14.6921L90.5909 15.4972L90.8478 16.1912C88.6864 18.9987 88.3534 22.9386 89.6807 26.7688C89.6775 26.7783 89.6712 26.7847 89.6712 26.791L89.6902 26.8037C90.5037 29.1365 91.9292 31.4248 93.9368 33.3907C99.5629 38.9027 107.639 39.811 111.938 35.4107C113.605 33.7052 114.458 31.4486 114.554 29.0031C115.861 28.8872 117.201 29.0539 118.546 29.4938C118.59 30.0115 118.803 30.5101 119.199 30.8992C120.082 31.7646 121.5 31.7487 122.361 30.8674C123.225 29.9829 123.211 28.5632 122.326 27.6978V27.6994ZM92.8125 16.6755C94.7629 14.6794 97.6918 14.0394 100.749 14.6334C96.8053 17.3583 93.5213 20.7201 90.9477 24.679C90.2864 21.6285 90.8589 18.6748 92.8125 16.6755ZM103.272 12.2117C101.055 10.0409 101.017 6.46789 103.185 4.24946C105.352 2.03103 108.92 1.99133 111.136 4.16212C112.502 5.50239 113.04 7.36828 112.743 9.12619C112.68 9.50096 112.582 9.87255 112.442 10.2346C112.176 10.9206 111.771 11.5685 111.224 12.1275L107.62 15.8164C107.43 15.6751 107.241 15.5401 107.048 15.4067C106.591 15.0986 106.128 14.8096 105.657 14.5492L103.27 12.2101L103.272 12.2117ZM94.9279 31.8218C93.8496 30.715 92.9695 29.5113 92.294 28.2615L92.4224 28.3361C95.2862 23.2133 99.3504 19.0527 104.499 15.9736C104.521 15.9831 104.541 15.9958 104.563 16.0054C105.089 16.2865 105.609 16.6072 106.118 16.9598C106.366 17.1265 106.607 17.3059 106.853 17.4949C107.162 17.7347 107.461 17.9904 107.761 18.2587C107.839 18.3286 107.913 18.4001 107.993 18.4731C107.752 18.616 107.517 18.7717 107.279 18.9193C106.997 19.0988 106.715 19.283 106.44 19.4688C101.681 22.6654 97.8218 26.8053 94.9279 31.8218ZM109.023 16.9677L112.517 13.3915C113.318 12.5705 113.879 11.6098 114.225 10.5887C115.539 10.3347 116.949 10.5395 118.186 11.2827C118.571 11.5145 118.915 11.7829 119.226 12.0862C121.042 13.8648 121.479 16.7343 120.112 19.0114C118.517 21.6713 115.055 22.54 112.398 20.9424L112.26 20.8583C111.519 19.6514 110.603 18.4954 109.523 17.4377C109.358 17.2774 109.191 17.1186 109.023 16.9677ZM110.647 34.1482C107.555 37.3147 102.007 37.0812 97.3889 33.9037C100.311 28.6442 104.366 24.4027 109.459 21.2823C109.675 21.1521 109.897 21.0218 110.116 20.8948C110.42 21.314 110.699 21.7444 110.95 22.1795C113.419 26.4512 113.449 31.2787 110.647 34.1466V34.1482Z" fill="#592B02"/>
<path d="M112.399 20.944L112.261 20.8599C111.521 19.653 110.604 18.4969 109.524 17.4393C109.36 17.279 109.193 17.1202 109.025 16.9693L112.518 13.3931C113.319 12.5721 113.88 11.6114 114.226 10.5903C115.541 10.3362 116.95 10.5411 118.187 11.2843C118.573 11.5161 118.917 11.7845 119.228 12.0878C121.043 13.8664 121.481 16.7359 120.114 19.013C118.519 21.6729 115.057 22.5416 112.399 20.944Z" fill="#CEEAF2"/>
<path d="M111.228 12.1275L107.623 15.8164C107.433 15.6751 107.244 15.5401 107.051 15.4067C106.594 15.0987 106.131 14.8096 105.66 14.5492L103.274 12.2101C101.057 10.0393 101.019 6.46632 103.186 4.24789C105.354 2.02947 108.922 1.98977 111.137 4.16055C112.504 5.50082 113.042 7.36671 112.745 9.12462C112.682 9.49939 112.583 9.87098 112.444 10.233C112.177 10.9191 111.773 11.567 111.226 12.1259L111.228 12.1275Z" fill="#CEEAF2"/>
<path d="M109.467 5.35081C109.687 4.49018 108.928 3.55183 107.771 3.25494C106.613 2.95804 105.497 3.41505 105.277 4.27568C105.057 5.13631 105.816 6.07466 106.973 6.37155C108.13 6.66845 109.247 6.21144 109.467 5.35081Z" fill="white"/>
<path d="M118.395 13.4407C118.192 14.2316 117.166 14.6508 116.104 14.3777C115.04 14.1045 114.342 13.2422 114.545 12.453C114.748 11.6638 115.774 11.243 116.836 11.5161C117.9 11.7892 118.598 12.6515 118.395 13.4407Z" fill="white"/>
<path d="M11.3885 45.6469C11.5946 45.7882 11.6454 46.0693 11.5042 46.2757C11.417 46.4028 11.2759 46.471 11.1316 46.471C11.0428 46.471 10.954 46.4456 10.8763 46.3916C10.2452 45.9565 9.62831 45.4928 9.04318 45.0101C8.84972 44.8513 8.82276 44.567 8.98133 44.3749C9.13991 44.1812 9.42375 44.1542 9.61562 44.313C10.1817 44.7782 10.778 45.2276 11.3885 45.6485V45.6469ZM18.724 0.95756C18.242 1.09572 17.7631 1.24975 17.2969 1.41649C17.0447 1.50701 16.7942 1.6007 16.5468 1.69915C16.3153 1.79126 16.2011 2.05328 16.2931 2.28512C16.3629 2.46298 16.5326 2.57096 16.7133 2.57096C16.7688 2.57096 16.8243 2.55985 16.8798 2.5392C17.1177 2.44551 17.3587 2.35341 17.6013 2.26765C18.0485 2.10727 18.51 1.95958 18.9746 1.82619C19.214 1.75791 19.352 1.50701 19.2838 1.26722C19.2156 1.02743 18.9651 0.889276 18.7256 0.95756H18.724ZM12.462 3.79689C11.823 4.20501 11.1918 4.65123 10.5861 5.12287C10.3895 5.27531 10.353 5.55957 10.5068 5.75648C10.5956 5.87081 10.7288 5.93116 10.8636 5.93116C10.9603 5.93116 11.057 5.90098 11.1395 5.83588C11.7246 5.38171 12.3336 4.95136 12.9488 4.55754C13.1581 4.42256 13.22 4.14308 13.0868 3.93346C12.952 3.72384 12.6745 3.66191 12.4636 3.79689H12.462ZM17.2858 48.6942C16.596 48.4433 15.9062 48.1575 15.237 47.8478C15.0118 47.743 14.7423 47.8415 14.6376 48.067C14.533 48.2941 14.6313 48.5624 14.8564 48.6672C15.5494 48.9896 16.263 49.285 16.9766 49.5438C17.0273 49.5629 17.0796 49.5708 17.1304 49.5708C17.3143 49.5708 17.4888 49.4565 17.5538 49.2723C17.6394 49.0372 17.5173 48.7784 17.2842 48.6926L17.2858 48.6942ZM30.3395 49.5724C29.6307 49.7439 28.9012 49.8805 28.1686 49.9757C27.9212 50.0091 27.7468 50.2346 27.7801 50.4823C27.8102 50.7094 28.0037 50.8745 28.2273 50.8745C28.2463 50.8745 28.2669 50.8745 28.2875 50.8714C29.0503 50.7713 29.813 50.6284 30.552 50.4506C30.7946 50.3918 30.9436 50.1472 30.885 49.9059C30.8263 49.6629 30.5805 49.5152 30.3411 49.5724H30.3395ZM23.7587 50.098C23.0309 50.0456 22.2919 49.9551 21.5625 49.8312C21.3167 49.7899 21.0836 49.9551 21.0424 50.2012C21.0011 50.4474 21.1661 50.6808 21.4118 50.7221C22.1682 50.8507 22.9357 50.9444 23.6937 51C23.7048 51 23.7159 51 23.727 51C23.9617 51 24.1599 50.819 24.1773 50.5808C24.1948 50.3315 24.0093 50.1155 23.7603 50.0964L23.7587 50.098ZM25.5284 0C24.7625 0.00317599 23.9902 0.0412878 23.2354 0.112748C22.9881 0.136567 22.8041 0.355711 22.8279 0.605026C22.8501 0.840049 23.0467 1.01473 23.2767 1.01473C23.2909 1.01473 23.3052 1.01473 23.3195 1.01314C24.0489 0.944856 24.7926 0.908332 25.5331 0.905156C25.7821 0.905156 25.9835 0.700305 25.9819 0.45099C25.9819 0.201675 25.7742 0.0158799 25.5284 0.00158799V0ZM5.07569 39.4728C4.93139 39.2695 4.64913 39.2234 4.44616 39.3679C4.24319 39.5125 4.19561 39.7951 4.3415 39.9984C4.78233 40.6161 5.25964 41.2243 5.76073 41.8071C5.84953 41.9103 5.97638 41.9643 6.10324 41.9643C6.2079 41.9643 6.31256 41.9278 6.3966 41.8547C6.5853 41.6912 6.6075 41.4069 6.44417 41.218C5.96053 40.6558 5.50067 40.0698 5.07569 39.4743V39.4728ZM32.3407 0.828933C31.6001 0.644725 30.8453 0.489102 30.0953 0.365238C29.8495 0.323951 29.6164 0.492278 29.5767 0.738417C29.5371 0.984556 29.7036 1.2164 29.9494 1.25769C30.6741 1.37679 31.4051 1.52765 32.1234 1.7055C32.1599 1.71503 32.1964 1.71821 32.2328 1.71821C32.4358 1.71821 32.6197 1.58005 32.6705 1.3752C32.7308 1.13383 32.5833 0.887688 32.3407 0.827345V0.828933ZM0.439029 26.6322C0.19007 26.6386 -0.00655987 26.8466 -0.000216969 27.0959C0.0188117 27.8661 0.0758979 28.6395 0.16787 29.3922C0.196413 29.6208 0.389872 29.7892 0.615045 29.7892C0.634073 29.7892 0.651516 29.7892 0.670545 29.786C0.917918 29.7558 1.09393 29.5303 1.06381 29.2826C0.975004 28.5585 0.919504 27.8153 0.900475 27.0737C0.894132 26.8244 0.703845 26.6227 0.437443 26.6338L0.439029 26.6322ZM0.684817 23.0275C0.708603 23.0323 0.732388 23.0338 0.756174 23.0338C0.973419 23.0338 1.16529 22.875 1.20176 22.6527C1.31752 21.9286 1.46817 21.1981 1.64735 20.4788C1.70761 20.2374 1.56172 19.9913 1.31911 19.9309C1.07808 19.8722 0.832289 20.0167 0.772032 20.2596C0.586502 21.0044 0.4311 21.7603 0.310585 22.5098C0.270942 22.7559 0.439029 22.9878 0.684817 23.0275ZM3.86895 13.6694C3.64854 13.5503 3.37579 13.6329 3.25845 13.8537C2.8969 14.527 2.55914 15.2209 2.25469 15.918C2.15478 16.1467 2.25944 16.4135 2.48779 16.5135C2.54646 16.539 2.6083 16.5517 2.66856 16.5517C2.84299 16.5517 3.0079 16.45 3.08243 16.2801C3.37738 15.6052 3.70404 14.9335 4.05448 14.2824C4.17183 14.0633 4.09096 13.7885 3.87054 13.671L3.86895 13.6694ZM7.22118 8.24169C6.71058 8.80384 6.21424 9.39616 5.74804 10.0028C5.59581 10.1997 5.63228 10.4839 5.8305 10.6364C5.91295 10.6999 6.00968 10.7301 6.10483 10.7301C6.23961 10.7301 6.3744 10.6697 6.4632 10.5538C6.91355 9.96784 7.39402 9.39457 7.88718 8.85148C8.05527 8.66727 8.041 8.38143 7.85705 8.2131C7.67311 8.04478 7.38768 8.05907 7.21959 8.24327L7.22118 8.24169ZM2.0422 33.5892C1.96291 33.3526 1.70602 33.2272 1.46975 33.3066C1.23348 33.386 1.10662 33.6432 1.18749 33.8798C1.43169 34.6008 1.71712 35.3217 2.03586 36.0205C2.11197 36.1872 2.2753 36.2841 2.44656 36.2841C2.50999 36.2841 2.57342 36.2714 2.63367 36.2428C2.86043 36.1396 2.96033 35.8712 2.85726 35.6441C2.55122 34.9724 2.27689 34.2816 2.0422 33.5876V33.5892ZM77.805 11.4844C77.5957 11.3478 77.3166 11.4081 77.1802 11.6178C76.7679 12.2545 76.4175 12.9644 76.1384 13.7298C76.0528 13.9648 76.1733 14.2237 76.408 14.3094C76.4587 14.3285 76.5111 14.338 76.5634 14.338C76.7473 14.338 76.9202 14.2237 76.9868 14.041C77.2421 13.3407 77.5624 12.6912 77.9382 12.1116C78.0746 11.902 78.0143 11.6225 77.805 11.486V11.4844ZM75.7309 17.8538C75.4819 17.8363 75.2663 18.0206 75.2472 18.2699C75.1949 18.9527 75.1648 19.68 75.1505 20.555C75.1473 20.8043 75.3455 21.0107 75.5945 21.0139H75.6024C75.8482 21.0139 76.0496 20.817 76.0528 20.5693C76.0671 19.7118 76.0972 19.0035 76.1463 18.3381C76.1654 18.0888 75.9798 17.8729 75.7309 17.8538ZM75.5691 24.6298C75.3218 24.6187 75.1077 24.8092 75.0966 25.0585C75.0585 25.8557 74.9935 26.5798 74.8984 27.269C74.8651 27.5168 75.0379 27.7438 75.2837 27.7788C75.3043 27.7819 75.3249 27.7835 75.3455 27.7835C75.5675 27.7835 75.761 27.62 75.7927 27.3929C75.891 26.6751 75.9576 25.9272 75.9989 25.103C76.0116 24.8537 75.8197 24.6425 75.5707 24.6298H75.5691ZM69.0201 35.4694C68.3541 35.6378 67.6389 35.7108 66.9095 35.6886C66.6463 35.6695 66.4512 35.876 66.4433 36.1253C66.4354 36.3746 66.6304 36.5842 66.8794 36.5921C66.9793 36.5953 67.0776 36.5969 67.1775 36.5969C67.8911 36.5969 68.5856 36.5127 69.2421 36.346C69.4831 36.2857 69.6306 36.0395 69.5687 35.7965C69.5085 35.5536 69.2595 35.4059 69.0201 35.4694ZM74.3196 31.2549C74.0944 31.1453 73.8248 31.239 73.7154 31.4629C73.3888 32.133 72.9987 32.7349 72.5531 33.2542C72.3913 33.4431 72.412 33.729 72.6007 33.891C72.6863 33.964 72.7909 34.0005 72.894 34.0005C73.0209 34.0005 73.1477 33.9465 73.2365 33.8433C73.7329 33.2653 74.1658 32.5983 74.5257 31.8583C74.6351 31.6344 74.5416 31.3629 74.318 31.2533L74.3196 31.2549ZM83.2837 8.36237H83.2805C82.4861 8.36873 81.6932 8.49735 80.9273 8.74349C80.6894 8.81972 80.5594 9.07538 80.6355 9.31199C80.6974 9.50414 80.875 9.62642 81.0653 9.62642C81.1112 9.62642 81.1572 9.62006 81.2032 9.60418C81.874 9.38822 82.5939 9.27071 83.2884 9.26594C83.5374 9.26435 83.7388 9.0595 83.7356 8.81019C83.734 8.56246 83.5326 8.36237 83.2837 8.36237ZM88.4532 11.8353C88.3089 11.2208 88.0456 10.6681 87.6698 10.1917C87.5144 9.99642 87.2306 9.96307 87.0355 10.1171C86.8405 10.2727 86.8072 10.557 86.961 10.7523C87.2543 11.1239 87.4605 11.5574 87.5731 12.0418C87.6222 12.2498 87.8078 12.3911 88.0123 12.3911C88.0472 12.3911 88.0805 12.3879 88.1154 12.38C88.358 12.3228 88.5087 12.0799 88.4516 11.8369L88.4532 11.8353ZM62.7438 34.6198C62.0968 34.315 61.4609 33.9481 60.852 33.5305C60.6459 33.3892 60.3652 33.4416 60.2256 33.648C60.0845 33.8544 60.1369 34.1355 60.343 34.2753C60.9916 34.7199 61.6702 35.1105 62.36 35.4361C62.4219 35.4647 62.4885 35.479 62.5519 35.479C62.7216 35.479 62.8833 35.3837 62.9594 35.2201C63.0657 34.9946 62.969 34.7247 62.7438 34.6183V34.6198ZM47.6112 10.4284C47.4542 10.233 47.1704 10.2044 46.9769 10.3617C46.7835 10.5189 46.7533 10.8031 46.9103 10.9969C47.3765 11.5733 47.8173 12.1736 48.2233 12.7818C48.3105 12.912 48.4532 12.9818 48.5991 12.9818C48.6847 12.9818 48.772 12.9564 48.8497 12.9056C49.0574 12.7675 49.1129 12.4864 48.9733 12.2784C48.5531 11.6495 48.0948 11.0254 47.6112 10.4284ZM42.6447 5.68343C42.4449 5.53416 42.1611 5.57703 42.0136 5.77712C41.8645 5.97721 41.9073 6.25987 42.1071 6.40914C42.7018 6.84902 43.2838 7.31906 43.8356 7.80181C43.9212 7.87645 44.0275 7.91297 44.1321 7.91297C44.2574 7.91297 44.3827 7.86057 44.4715 7.75894C44.6364 7.57155 44.6174 7.28571 44.4286 7.12056C43.8578 6.62034 43.2568 6.13601 42.6431 5.68025L42.6447 5.68343ZM51.1727 16.3039C51.0697 16.0768 50.8033 15.9752 50.5749 16.0784C50.3482 16.1817 50.2467 16.4484 50.3497 16.6771C50.632 17.3012 50.9159 17.9761 51.2203 18.7399C51.2901 18.9162 51.4598 19.0242 51.6389 19.0242C51.6944 19.0242 51.7515 19.013 51.8054 18.9924C52.037 18.9003 52.1496 18.6367 52.0576 18.4048C51.7484 17.6283 51.4582 16.9407 51.1712 16.3055L51.1727 16.3039ZM57.2905 30.0274C57.0035 29.6145 56.7212 29.173 56.4516 28.7173C56.3248 28.5029 56.0489 28.4314 55.8332 28.5585C55.6191 28.6855 55.5478 28.9634 55.6746 29.1778C55.9553 29.6526 56.2486 30.1115 56.5484 30.5419C56.68 30.7309 56.8163 30.9166 56.9575 31.1009C57.0463 31.2168 57.1795 31.2755 57.3143 31.2755C57.411 31.2755 57.5077 31.2454 57.5902 31.1818C57.7868 31.0294 57.8233 30.7451 57.671 30.5482C57.5378 30.3767 57.411 30.202 57.2873 30.0258L57.2905 30.0274ZM53.6671 22.6337C53.5783 22.4002 53.3182 22.2843 53.0851 22.3732C52.852 22.4622 52.7363 22.7242 52.8251 22.956C53.1406 23.7818 53.4054 24.4535 53.6623 25.0697C53.7353 25.2427 53.9018 25.3476 54.0794 25.3476C54.1365 25.3476 54.1967 25.3364 54.2522 25.3126C54.4822 25.2173 54.5916 24.9521 54.4948 24.7219C54.2427 24.1153 53.9795 23.4515 53.6671 22.6337ZM38.7581 3.25697C38.0826 2.90603 37.3849 2.57731 36.684 2.28195C36.454 2.18508 36.1892 2.29306 36.0925 2.52173C35.9958 2.75199 36.102 3.01719 36.3319 3.11406C37.0106 3.40148 37.6877 3.72067 38.341 4.0605C38.4076 4.09544 38.479 4.11132 38.5488 4.11132C38.7121 4.11132 38.8691 4.02239 38.95 3.86676C39.0641 3.64445 38.9785 3.3729 38.7565 3.25697H38.7581Z" fill="#592B02"/>
</g>
<defs>
<clipPath id="clip0_24_26626">
<rect width="123" height="51" fill="white"/>
</clipPath>
</defs>
</svg>
