<svg width="183" height="190" viewBox="0 0 183 190" fill="none" xmlns="http://www.w3.org/2000/svg">
<g clip-path="url(#clip0_129_28119)">
<g clip-path="url(#clip1_129_28119)">
<path fill-rule="evenodd" clip-rule="evenodd" d="M83.826 41.6849C88.1115 45.4222 97.7116 108.786 132.065 144.675C140.456 153.45 150.118 161.004 160.112 167.517C159.744 165.599 159.567 163.197 159.768 160.116C160.136 154.499 163.567 144.324 165.054 136.295C164.175 135.434 163.414 134.718 163.17 134.721C150.896 134.805 156.218 108.246 157.509 106.954C158.997 107.138 162.803 118.061 163.571 119.535C166.578 125.33 166.523 130.523 165.113 133.494C165.003 133.729 165.123 134.112 165.367 134.569C166.006 131.752 169.01 123.123 170.518 114.475C168.623 111.522 165.511 103.984 166.469 101.039C166.617 100.566 164.561 87.0139 163.834 79.4249C163.57 76.5884 163.483 74.5818 163.774 74.4064C165.513 75.0664 184.99 110.387 172.338 114.985C171.81 120.222 170.832 125.487 169.766 130.674C171.043 129.844 172.295 128.954 172.23 128.385C171.876 125.107 173.525 120.185 178.269 115.703C179.478 114.566 182.379 103.903 183.845 104.211C184.642 105.854 185.221 134.295 173.658 130.174C173.308 130.054 171.235 131.126 169.503 131.913C169.049 134.087 168.589 136.243 168.146 138.375C168.43 138.788 168.597 139.103 168.533 139.241C168.424 139.266 168.243 139.18 168.008 139.015C167.286 142.508 166.618 145.928 166.125 149.258C168.061 148.73 172.585 148.132 172.682 147.243C173.037 144.068 176.303 139.98 183.307 137.267C185.084 136.578 191.304 127.508 193.051 128.259C193.643 130.044 187.418 156.819 174.029 149.366C173.465 149.052 168.132 149.871 166.05 149.813C164.864 158.136 164.844 165.833 167.923 172.361C194.629 188.152 221.993 196.864 232.878 201.321C236.477 202.796 230.871 206.894 230.871 206.894C228.873 208.114 213.037 205.315 192.227 194.774C171.714 184.377 152.285 172.372 135.901 157.309L135.898 157.305C133.67 155.258 131.509 153.158 129.399 150.996C127.203 149.262 124.898 147.785 122.501 146.52C120.492 147.92 117.572 149.683 117.381 150.155C111.641 164.36 87.812 152.23 87.1546 150.47C88.0436 148.787 100.744 147.141 102.558 146.557C109.717 144.278 114.827 145.412 117.096 147.662C117.555 148.117 119.721 147.002 121.573 146.05C108.99 139.768 93.9601 139.182 78.4707 138.083C77.4266 140.262 75.9342 143.014 75.9994 143.491C78.1357 158.665 50.9085 154.834 49.4557 153.635C49.3892 151.735 60.0914 149.2 61.369 147.792C66.4248 142.23 71.414 140.663 74.5004 141.47C75.1062 141.632 76.3582 139.726 77.4613 138.01C71.0367 137.543 64.5369 136.965 58.1038 135.829C56.5615 137.042 53.7602 138.776 53.6868 139.215C51.5298 151.302 27.1129 136.691 26.0785 135.187C26.5348 133.759 37.2411 136.527 38.8211 136.045C45.0735 134.146 50.1651 135.152 52.8379 137.084C53.4028 137.492 55.3491 136.443 56.9324 135.617C54.0317 135.075 51.1413 134.418 48.2836 133.595C45.7215 132.857 43.5396 132.1 41.6936 131.338C31.1371 134.257 9.74478 108.631 9.75629 106.938C10.023 106.724 11.8614 107.526 14.4137 108.801C21.2335 112.208 33.1382 119.012 33.6305 119.038C37.0827 119.23 44.0624 126.218 45.271 128.526C47.7869 129.367 50.5271 130.15 53.3121 130.681C57.8174 131.546 62.4822 131.989 66.7421 132.223C65.9158 130.842 65.0073 129.413 64.401 129.462C61.1155 129.706 56.2501 127.89 51.9282 122.994C50.8308 121.756 42.0119 114.268 42.3709 112.812C44.0432 112.068 70.7371 116.67 66.2415 128.09C66.1077 128.435 67.1 130.524 67.8275 132.274C74.7907 132.606 80.4974 132.407 82.3554 132.68C85.9513 133.2 89.9729 133.464 93.9704 133.668C93.3904 132.703 92.8506 131.994 92.4781 132.058C89.3314 132.596 84.5021 130.584 79.9553 124.601C78.8018 123.081 69.358 114.422 69.5985 112.536C71.1542 111.475 97.6104 115.262 94.1505 130.186C94.0697 130.516 94.6789 132.066 95.336 133.744C101.862 134.066 108.21 134.299 112.473 135.324C114.154 135.737 115.669 136.182 117.051 136.657C109.271 126.356 102.778 114.839 97.9389 101.833C91.945 85.6918 80.9885 60.0494 83.8295 41.6851L83.826 41.6849Z" fill="#9DBF69"/>
<path fill-rule="evenodd" clip-rule="evenodd" d="M102.494 16.5221C130.74 8.12135 172.393 32.7695 165.349 45.2923C163.651 48.3159 149.59 49.0258 135.642 42.4583C119.162 34.696 102.545 18.9701 102.496 16.5205L102.494 16.5221Z" fill="#ECBE35" fill-opacity="0.8"/>
<path fill-rule="evenodd" clip-rule="evenodd" d="M99.3964 22.9248C107.356 27.2968 110.566 26.0305 122.318 33.6578C134.716 41.698 158.211 58.2666 150.336 68.814C135.43 88.7829 100.214 31.2635 99.3964 22.9248Z" fill="#EAC85B" fill-opacity="0.6"/>
<path fill-rule="evenodd" clip-rule="evenodd" d="M96.0205 27.3301C111.284 37.2028 121.408 67.9627 122.407 79.378C123.646 93.484 112.444 101.754 105.624 82.2862C100.38 67.3012 96.5638 40.1402 96.9728 37.5932C97.8234 32.2733 94.0555 30.0193 96.0171 27.3299L96.0205 27.3301Z" fill="#ECBE35" fill-opacity="0.8"/>
<path fill-rule="evenodd" clip-rule="evenodd" d="M87.5256 33.319C92.0937 50.5861 69.2681 87.4953 87.0317 96.4517C107.668 106.852 97.7274 31.5842 87.5256 33.319Z" fill="#EAC85B" fill-opacity="0.6"/>
<path fill-rule="evenodd" clip-rule="evenodd" d="M59.4409 33.0717C30.0801 30.5405 -5.72097 63.0938 3.71133 73.9384C5.98831 76.5524 19.9013 74.406 32.2277 65.1662C46.8016 54.2368 59.8871 35.4809 59.4428 33.07L59.4409 33.0717Z" fill="#ECBE35" fill-opacity="0.8"/>
<path fill-rule="evenodd" clip-rule="evenodd" d="M63.7715 38.7175C56.8599 44.6058 53.4635 44.0071 43.502 53.8509C32.9918 64.23 13.331 85.1942 23.1802 93.9373C41.8191 110.48 64.6628 47.0468 63.7715 38.7175Z" fill="#EAC85B" fill-opacity="0.6"/>
<path fill-rule="evenodd" clip-rule="evenodd" d="M67.9662 42.345C55.0199 55.0927 51.3337 87.2646 52.6654 98.6479C54.314 112.709 66.9554 118.542 69.6884 98.1018C71.7952 82.3726 70.0247 54.9999 69.1107 52.5919C67.1991 47.5481 70.4331 44.5775 67.9646 42.3431L67.9662 42.345Z" fill="#ECBE35" fill-opacity="0.8"/>
<path fill-rule="evenodd" clip-rule="evenodd" d="M80.0813 38.1769C71.2479 45.1677 56.6512 74.093 65.6389 84.495C72.3395 92.2493 87.1837 49.9149 81.9731 37.9471C81.8936 37.765 80.2933 38.0054 80.0813 38.1769Z" fill="#EAC85B" fill-opacity="0.6"/>
<path fill-rule="evenodd" clip-rule="evenodd" d="M113.247 21.0371C100.593 4.76522 92.0015 1.8383 81.5368 2.79903C60.1751 4.7656 49.1117 20.0305 48.1907 40.1213C63.7324 59.1816 113.289 31.2868 113.245 21.0353L113.247 21.0371Z" fill="#FFD34E"/>
<path fill-rule="evenodd" clip-rule="evenodd" d="M96.4734 22.7269C95.6395 25.1978 91.21 26.6527 90.2558 22.2564C88.8264 15.6734 97.8604 18.6637 96.4734 22.7269Z" fill="#DFA839"/>
<path fill-rule="evenodd" clip-rule="evenodd" d="M98.7536 12.6926C98.1623 14.427 95.0598 15.4441 94.3883 12.3587C93.3814 7.74014 99.7166 9.83837 98.7536 12.6926Z" fill="#DFA839"/>
<path fill-rule="evenodd" clip-rule="evenodd" d="M87.56 12.705C86.9723 14.4361 83.8662 15.4565 83.1947 12.3711C82.1927 7.75802 88.5334 9.85137 87.56 12.705Z" fill="#DFA839"/>
<path fill-rule="evenodd" clip-rule="evenodd" d="M80.7289 18.5547C78.9396 18.9297 77.5529 21.8905 80.5351 22.9284C84.9989 24.4838 83.6838 17.9373 80.7289 18.5547Z" fill="#DFA839"/>
<path fill-rule="evenodd" clip-rule="evenodd" d="M86.2227 29.6319C84.4286 30.0014 83.0467 32.9677 86.0241 34.0001C90.4934 35.5506 89.1728 29.0089 86.2227 29.6319Z" fill="#DFA839"/>
<path fill-rule="evenodd" clip-rule="evenodd" d="M103.191 20.3986C101.399 20.7769 100.015 23.7344 102.998 24.7723C107.457 26.3221 106.136 19.7805 103.191 20.3986Z" fill="#DFA839"/>
<path fill-rule="evenodd" clip-rule="evenodd" d="M65.5585 18.9157C63.7656 19.294 62.377 22.2564 65.3543 23.2887C69.8237 24.8392 68.5031 18.2976 65.5585 18.9157Z" fill="#DFA839"/>
</g>
</g>
<defs>
<clipPath id="clip0_129_28119">
<rect width="183" height="190" fill="white"/>
</clipPath>
<clipPath id="clip1_129_28119">
<rect width="168.981" height="260.513" fill="white" transform="matrix(-0.748444 0.663198 0.663198 0.748444 105.473 -30)"/>
</clipPath>
</defs>
</svg>
