<svg width="1440" height="272" viewBox="0 0 1440 272" fill="none" xmlns="http://www.w3.org/2000/svg">
<g opacity="0.4" clip-path="url(#clip0_140_28188)">
<path d="M1439.93 510.956L1439.33 511.332L1407.61 491.427V451.594L1439.33 431.688L1439.93 432.064V387.849L1439.33 388.226L1407.61 368.32V328.487L1439.33 308.581L1439.93 308.958V264.737L1439.33 265.114L1407.61 245.208V205.375L1439.33 185.469L1439.93 185.846V141.625L1439.33 142.002L1407.61 122.096V82.2628L1439.33 62.3569L1439.93 62.7336V18.513L1439.33 18.8897L1407.61 -1.0162V-40.8492L1439.33 -60.7551L1439.93 -60.3784V-104.599L1439.33 -104.222L1407.61 -124.128V-163.961L1439.33 -183.867L1439.93 -183.49V-227.711L1439.33 -227.334L1407.61 -247.24V-287.036L1439.33 -306.942L1439.93 -306.565V-340H1438.36V-308.756L1406.64 -288.851L1374.92 -308.762V-340H1372.98V-308.756L1341.26 -288.851L1309.54 -308.762V-340H1307.6V-308.756L1275.88 -288.845L1244.16 -308.756V-340H1242.23V-308.756L1210.51 -288.851L1178.78 -308.762V-340H1176.85V-308.756L1145.13 -288.851L1113.41 -308.762V-340H1111.47V-308.756L1079.75 -288.845L1048.03 -308.756V-340H1046.09V-308.756L1014.37 -288.851L982.65 -308.762V-340H980.712V-308.756L948.992 -288.851L917.272 -308.762V-340H915.334V-308.756L883.614 -288.851L851.894 -308.762V-340H849.956V-308.756L818.236 -288.845L786.515 -308.756V-340H784.578V-308.756L752.857 -288.851L721.137 -308.762V-340H719.2V-308.756L687.479 -288.851L655.759 -308.762V-340H653.821V-308.756L622.101 -288.851L590.381 -308.762V-340H588.443V-308.756L556.723 -288.845L525.003 -308.756V-340H523.065V-308.756L491.345 -288.851L459.624 -308.762V-340H457.687V-308.756L425.966 -288.851L394.246 -308.762V-340H392.308V-308.756L360.588 -288.845L328.868 -308.756V-340H326.93V-308.756L295.21 -288.851L263.49 -308.762V-340H261.552V-308.756L229.832 -288.851L198.111 -308.762V-340H196.174V-308.756L164.453 -288.851L132.733 -308.762V-340H130.796V-308.756L99.0752 -288.845L67.3549 -308.756V-340H65.4173V-308.756L33.697 -288.851L1.93279 -308.762V-340H0V-308.157H0.966397L0.483199 -307.25L32.6964 -287.036V-247.214L0.483199 -226.995L0.966397 -226.088H0V-185.05H0.966397L0.483199 -184.143L32.6964 -163.929V-124.102L0.483199 -103.888L0.966397 -102.981H0V-61.9435H0.966397L0.483199 -61.0363L32.6964 -40.8227V-0.994995L0.483199 19.2186L0.966397 20.1258H0V61.1632H0.966397L0.483199 62.0704L32.6964 82.284V122.112L0.483199 142.32L0.966397 143.227H0V184.265H0.966397L0.483199 185.172L32.6964 205.385V245.208L0.483199 265.427L0.966397 266.334H0V307.371H0.966397L0.483199 308.279L32.6964 328.492V368.32L0.483199 388.533L0.966397 389.441H0V430.473H0.966397L0.483199 431.38L32.6964 451.594V491.421L0.483199 511.64L0.966397 512.547H0V553.585H0.966397L0.483199 554.492L33.1796 575.008L33.6628 574.101L34.146 575.008L66.3544 554.794L98.5627 575.008L99.0459 574.101L99.5291 575.008L131.738 554.794L163.946 575.008L164.429 574.101L164.912 575.008L197.121 554.794L229.329 575.008L229.812 574.101L230.295 575.008L262.504 554.794L294.712 575.008L295.195 574.101L295.678 575.008L327.887 554.794L360.095 575.008L360.578 574.101L361.062 575.008L393.27 554.794L425.478 575.008L425.961 574.101L426.445 575.008L458.653 554.794L490.861 575.008L491.345 574.101L491.828 575.008L524.036 554.794L556.245 575.008L556.728 574.101L557.211 575.008L589.419 554.794L621.628 575.008L622.111 574.101L622.594 575.008L654.802 554.794L687.006 575.008L687.489 574.101L687.972 575.008L720.181 554.794L752.389 575.008L752.872 574.101L753.355 575.008L785.564 554.794L817.772 575.008L818.255 574.101L818.738 575.008L850.947 554.794L883.155 575.008L883.638 574.101L884.122 575.008L916.33 554.794L948.538 575.008L949.021 574.101L949.505 575.008L981.713 554.794L1013.92 575.008L1014.4 574.101L1014.89 575.008L1047.1 554.794L1079.3 575.008L1079.79 574.101L1080.27 575.008L1112.48 554.794L1144.69 575.008L1145.17 574.101L1145.65 575.008L1177.86 554.794L1210.07 575.008L1210.55 574.101L1211.04 575.008L1243.25 554.794L1275.45 575.008L1275.94 574.101L1276.42 575.008L1308.63 554.794L1340.84 575.008L1341.32 574.101L1341.8 575.008L1374.01 554.794L1406.22 575.008L1406.7 574.101L1407.19 575.008L1439.39 554.794L1440 555.171V510.95L1439.93 510.956ZM1438.36 390.051V429.878L1406.64 449.784L1374.92 429.873V390.051L1406.64 370.14L1438.36 390.051ZM132.699 143.837L164.424 123.926L196.14 143.832V183.66L164.419 203.566L132.699 183.654V143.827V143.837ZM131.733 142.018L100.017 122.112V82.2787L131.733 62.3728L163.458 82.284V122.112L131.733 142.023V142.018ZM165.395 122.112V82.2787L197.116 62.3728L228.841 82.284V122.112L197.116 142.023L165.395 122.117V122.112ZM229.807 123.926L261.528 143.832V183.66L229.807 203.566L198.087 183.654V143.832L229.812 123.921L229.807 123.926ZM230.779 122.112V82.2787L262.499 62.3728L294.224 82.284V122.112L262.499 142.023L230.779 122.117V122.112ZM263.465 143.832L295.19 123.921L326.906 143.832V183.66L295.185 203.566L263.465 183.654V143.827V143.832ZM296.157 122.106V82.2734L327.872 62.3675L359.597 82.2787V122.106L327.872 142.018L296.157 122.112V122.106ZM328.843 143.832L360.569 123.921L392.289 143.827V183.654L360.569 203.566L328.848 183.654V143.827L328.843 143.832ZM361.54 122.112V82.2787L393.255 62.3728L424.98 82.284V122.112L393.255 142.023L361.54 122.117V122.112ZM394.227 143.832L425.952 123.921L457.672 143.827V183.654L425.952 203.56L394.231 183.649V143.821L394.227 143.832ZM426.923 122.112V82.2787L458.638 62.3728L490.364 82.284V122.112L458.638 142.023L426.923 122.117V122.112ZM491.335 123.926L523.05 143.832V183.66L491.33 203.566L459.61 183.654V143.832L491.335 123.921V123.926ZM492.306 122.112V82.2787L524.021 62.3728L555.747 82.284V122.112L524.021 142.023L492.306 122.117V122.112ZM524.993 143.832L556.718 123.921L588.438 143.832V183.66L556.718 203.571L524.998 183.66V143.832H524.993ZM557.684 122.106V82.2734L589.405 62.3675L621.13 82.2787V122.106L589.405 142.018L557.684 122.112V122.106ZM590.371 143.832L622.096 123.921L653.816 143.827V183.654L622.096 203.56L590.376 183.649V143.821L590.371 143.832ZM623.067 122.112V82.2787L654.788 62.3728L686.513 82.284V122.112L654.788 142.023L623.067 122.117V122.112ZM687.479 123.926L719.195 143.832V183.66L687.474 203.566L655.754 183.654V143.832L687.479 123.921V123.926ZM688.446 122.112V82.2787L720.166 62.3728L751.891 82.284V122.112L720.166 142.023L688.446 122.117V122.112ZM721.132 143.832L752.857 123.921L784.573 143.832V183.66L752.853 203.566L721.132 183.654V143.827V143.832ZM753.824 122.106V82.2734L785.544 62.3675L817.269 82.2787V122.106L785.544 142.018L753.824 122.112V122.106ZM786.511 143.832L818.236 123.921L849.956 143.827V183.654L818.236 203.566L786.515 183.654V143.827L786.511 143.832ZM819.207 122.112V82.2787L850.922 62.3728L882.648 82.284V122.112L850.922 142.023L819.207 122.117V122.112ZM851.894 143.832L883.619 123.921L915.334 143.827V183.654L883.614 203.56L851.894 183.649V143.821V143.832ZM884.59 122.112V82.2787L916.31 62.3728L948.036 82.284V122.112L916.31 142.023L884.59 122.117V122.112ZM949.002 123.926L980.722 143.832V183.66L949.002 203.566L917.282 183.654V143.832L949.007 123.921L949.002 123.926ZM949.973 122.112V82.2787L981.693 62.3728L1013.42 82.284V122.112L981.693 142.023L949.973 122.117V122.112ZM982.66 143.832L1014.39 123.921L1046.1 143.832V183.66L1014.38 203.566L982.66 183.654V143.827V143.832ZM1015.35 122.106V82.2734L1047.07 62.3675L1078.8 82.2787V122.106L1047.07 142.018L1015.35 122.112V122.106ZM1048.04 143.832L1079.76 123.921L1111.48 143.827V183.654L1079.76 203.566L1048.04 183.654V143.827V143.832ZM1080.73 122.112V82.2787L1112.45 62.3728L1144.18 82.284V122.112L1112.45 142.023L1080.73 122.117V122.112ZM1113.42 143.832L1145.15 123.921L1176.87 143.827V183.654L1145.15 203.56L1113.43 183.649V143.821L1113.42 143.832ZM1146.12 122.112V82.2787L1177.84 62.3728L1209.56 82.284V122.112L1177.84 142.023L1146.12 122.117V122.112ZM1210.53 123.926L1242.24 143.837V183.665L1210.52 203.571L1178.8 183.66V143.837L1210.53 123.926ZM1211.5 122.112V82.2787L1243.21 62.3728L1274.94 82.284V122.112L1243.21 142.023L1211.5 122.117V122.112ZM1244.18 143.837L1275.91 123.926L1307.62 143.832V183.66L1275.9 203.571L1244.18 183.66V143.832V143.837ZM1276.88 122.117V82.284L1308.59 62.3781L1340.32 82.2893V122.117L1308.59 142.028L1276.88 122.122V122.117ZM1309.57 143.837L1341.29 123.926L1373.01 143.832V183.66L1341.29 203.566L1309.57 183.654V143.827L1309.57 143.837ZM1341.29 80.4696L1309.57 60.5584V20.7307L1341.29 0.819489L1373.01 20.7253V60.5531L1341.29 80.459L1341.29 80.4696ZM1340.32 -0.994995L1308.59 18.9162L1276.88 -0.989685V-40.8227L1308.59 -60.7286L1340.32 -40.8174V-0.989685V-0.994995ZM1307.63 20.7307V60.5584L1275.91 80.4696L1244.19 60.5584V20.7307L1275.91 0.819489L1307.63 20.7253V20.7307ZM1274.94 -0.994995L1243.22 18.9109L1211.5 -0.994995V-40.828L1243.22 -60.7339L1274.94 -40.828V-1.00031V-0.994995ZM1242.24 20.7307V60.5584L1210.52 80.4643L1178.8 60.5531V20.7307L1210.53 0.819489L1242.24 20.7307ZM1209.56 -0.994995L1177.83 18.9109L1146.11 -0.994995V-40.828L1177.83 -60.7339L1209.56 -40.828V-1.00031V-0.994995ZM1176.86 20.7307V60.5584L1145.14 80.4643L1113.42 60.5531V20.7253L1145.15 0.814178L1176.87 20.72L1176.86 20.7307ZM1144.18 -0.994995L1112.45 18.9162L1080.73 -0.989685V-40.8227L1112.45 -60.7286L1144.18 -40.8174V-0.989685V-0.994995ZM1111.48 20.7307V60.5584L1079.76 80.4696L1048.04 60.5584V20.7307L1079.77 0.819489L1111.48 20.7253V20.7307ZM1078.8 -0.994995L1047.07 18.9109L1015.35 -0.994995V-40.828L1047.07 -60.7339L1078.8 -40.828V-1.00031V-0.994995ZM1046.1 20.7307V60.5584L1014.38 80.4643L982.66 60.5531V20.7253L1014.39 0.814178L1046.1 20.7253V20.7307ZM1013.41 -0.994995L981.689 18.9109L949.968 -0.994995V-40.828L981.689 -60.7339L1013.41 -40.828V-1.00031V-0.994995ZM980.717 20.7307V60.5584L948.997 80.4643L917.277 60.5531V20.7307L949.002 0.819489L980.722 20.7253L980.717 20.7307ZM948.031 -0.994995L916.305 18.9109L884.585 -0.994995V-40.828L916.305 -60.7339L948.031 -40.828V-1.00031V-0.994995ZM915.339 20.7307V60.5584L883.619 80.4643L851.899 60.5531V20.7253L883.624 0.814178L915.339 20.72V20.7307ZM882.652 -0.994995L850.927 18.9162L819.212 -0.989685V-40.8227L850.927 -60.7286L882.652 -40.8174V-0.989685V-0.994995ZM849.961 20.7307V60.5584L818.241 80.4696L786.52 60.5584V20.7307L818.245 0.819489L849.966 20.7253L849.961 20.7307ZM817.274 -0.994995L785.549 18.9109L753.829 -0.994995V-40.828L785.549 -60.7339L817.274 -40.828V-1.00031V-0.994995ZM784.578 20.7307V60.5584L752.857 80.4643L721.137 60.5531V20.7253L752.862 0.814178L784.578 20.7253V20.7307ZM751.891 -0.994995L720.166 18.9109L688.446 -0.994995V-40.828L720.166 -60.7339L751.891 -40.828V-1.00031V-0.994995ZM719.195 20.7307V60.5584L687.474 80.4643L655.754 60.5531V20.7307L687.479 0.819489L719.195 20.7253V20.7307ZM686.508 -0.994995L654.783 18.9109L623.063 -0.994995V-40.828L654.783 -60.7339L686.508 -40.828V-1.00031V-0.994995ZM653.816 20.7307V60.5584L622.096 80.4643L590.376 60.5531V20.7253L622.101 0.814178L653.821 20.72L653.816 20.7307ZM621.13 -0.994995L589.405 18.9162L557.684 -0.989685V-40.8227L589.405 -60.7286L621.13 -40.8174V-0.989685V-0.994995ZM588.438 20.7307V60.5584L556.718 80.4696L524.998 60.5584V20.7307L556.723 0.819489L588.443 20.7307H588.438ZM555.752 -0.994995L524.026 18.9109L492.311 -0.994995V-40.828L524.026 -60.7339L555.752 -40.828V-1.00031V-0.994995ZM523.055 20.7307V60.5584L491.335 80.4643L459.615 60.5531V20.7307L491.34 0.819489L523.055 20.7253V20.7307ZM490.368 -0.994995L458.643 18.9109L426.928 -0.994995V-40.828L458.643 -60.7339L490.368 -40.828V-1.00031V-0.994995ZM457.677 20.7307V60.5584L425.957 80.4643L394.236 60.5531V20.7253L425.961 0.814178L457.682 20.72L457.677 20.7307ZM424.99 -0.994995L393.265 18.9162L361.55 -0.989685V-40.8227L393.265 -60.7286L424.99 -40.8174V-0.989685V-0.994995ZM392.299 20.7307V60.5584L360.578 80.4696L328.858 60.5584V20.7307L360.583 0.819489L392.304 20.7253L392.299 20.7307ZM359.612 -0.994995L327.887 18.9109L296.171 -0.994995V-40.828L327.887 -60.7339L359.612 -40.828V-1.00031V-0.994995ZM326.916 20.7307V60.5584L295.195 80.4643L263.475 60.5531V20.7253L295.2 0.814178L326.916 20.7253V20.7307ZM294.229 -0.994995L262.504 18.9109L230.783 -0.994995V-40.828L262.504 -60.7339L294.229 -40.828V-1.00031V-0.994995ZM261.532 20.7307V60.5584L229.812 80.4643L198.092 60.5531V20.7307L229.817 0.819489L261.537 20.7253L261.532 20.7307ZM228.846 -0.994995L197.121 18.9109L165.4 -0.994995V-40.828L197.121 -60.7339L228.846 -40.828V-1.00031V-0.994995ZM196.154 20.7307V60.5584L164.434 80.4643L132.714 60.5531V20.7253L164.439 0.814178L196.154 20.72V20.7307ZM163.468 -0.994995L131.742 18.9162L100.027 -0.989685V-40.8227L131.742 -60.7286L163.468 -40.8174V-0.989685V-0.994995ZM130.776 20.7307V60.5584L99.0557 80.4696L67.3354 60.5584V20.7307L99.0606 0.819489L130.776 20.7253V20.7307ZM99.0606 123.926L130.776 143.832V183.66L99.0557 203.571L67.3354 183.66V143.832L99.0606 123.921V123.926ZM99.0606 247.028L130.776 266.939V306.766L99.0557 326.672L67.3354 306.761V266.933L99.0606 247.022V247.028ZM100.032 245.213V205.38L131.747 185.474L163.472 205.385V245.208L131.747 265.119L100.032 245.213ZM132.719 266.939L164.444 247.028L196.159 266.939V306.766L164.439 326.672L132.719 306.761V266.933V266.939ZM165.415 245.213V205.38L197.135 185.474L228.86 205.385V245.208L197.135 265.119L165.415 245.213ZM229.827 247.028L261.547 266.939V306.766L229.827 326.672L198.107 306.761V266.939L229.832 247.028H229.827ZM230.798 245.213V205.38L262.518 185.474L294.243 205.385V245.208L262.518 265.119L230.798 245.213ZM263.485 266.939L295.21 247.028L326.925 266.939V306.766L295.205 326.672L263.485 306.761V266.933V266.939ZM296.176 245.213V205.38L327.892 185.474L359.617 205.385V245.208L327.892 265.119L296.176 245.213ZM328.863 266.939L360.588 247.028L392.308 266.939V306.766L360.588 326.672L328.868 306.761V266.933L328.863 266.939ZM361.559 245.213V205.38L393.275 185.474L425 205.385V245.208L393.275 265.119L361.559 245.213ZM394.246 266.939L425.971 247.028L457.692 266.939V306.766L425.971 326.672L394.251 306.761V266.933L394.246 266.939ZM426.943 245.213V205.38L458.658 185.474L490.383 205.385V245.208L458.658 265.119L426.943 245.213ZM491.354 247.028L523.07 266.939V306.766L491.349 326.672L459.629 306.761V266.939L491.354 247.028ZM492.326 245.213V205.38L524.041 185.474L555.766 205.385V245.208L524.041 265.119L492.326 245.213ZM525.012 266.939L556.737 247.028L588.458 266.939V306.766L556.737 326.672L525.017 306.761V266.933L525.012 266.939ZM557.704 245.213V205.38L589.424 185.474L621.149 205.385V245.208L589.424 265.119L557.704 245.213ZM590.391 266.939L622.116 247.028L653.836 266.939V306.766L622.116 326.672L590.395 306.761V266.933L590.391 266.939ZM623.087 245.213V205.38L654.807 185.474L686.532 205.385V245.208L654.807 265.119L623.087 245.213ZM687.499 247.028L719.214 266.939V306.766L687.494 326.672L655.774 306.761V266.939L687.499 247.028ZM688.465 245.213V205.38L720.185 185.474L751.911 205.385V245.208L720.185 265.119L688.465 245.213ZM721.152 266.939L752.877 247.028L784.592 266.939V306.766L752.872 326.672L721.152 306.761V266.933V266.939ZM753.843 245.213V205.38L785.564 185.474L817.289 205.385V245.208L785.564 265.119L753.843 245.213ZM786.53 266.939L818.255 247.028L849.976 266.939V306.766L818.255 326.672L786.535 306.761V266.933L786.53 266.939ZM819.227 245.213V205.38L850.942 185.474L882.667 205.385V245.208L850.942 265.119L819.227 245.213ZM851.913 266.939L883.638 247.028L915.354 266.939V306.766L883.633 326.672L851.913 306.761V266.933V266.939ZM884.61 245.213V205.38L916.33 185.474L948.055 205.385V245.208L916.33 265.119L884.61 245.213ZM949.021 247.028L980.742 266.939V306.766L949.021 326.672L917.301 306.761V266.939L949.026 247.028H949.021ZM949.993 245.213V205.38L981.713 185.474L1013.44 205.385V245.208L981.713 265.119L949.993 245.213ZM982.679 266.939L1014.4 247.028L1046.12 266.939V306.766L1014.4 326.672L982.679 306.761V266.933V266.939ZM1015.37 245.213V205.38L1047.09 185.474L1078.82 205.385V245.208L1047.09 265.119L1015.37 245.213ZM1048.06 266.939L1079.78 247.028L1111.5 266.939V306.766L1079.78 326.672L1048.06 306.761V266.933V266.939ZM1080.75 245.213V205.38L1112.47 185.474L1144.19 205.385V245.208L1112.47 265.119L1080.75 245.213ZM1113.44 266.939L1145.17 247.028L1176.89 266.939V306.766L1145.17 326.672L1113.45 306.761V266.933L1113.44 266.939ZM1146.14 245.213V205.38L1177.86 185.474L1209.58 205.385V245.208L1177.86 265.119L1146.14 245.213ZM1210.55 247.028L1242.26 266.939V306.766L1210.54 326.672L1178.82 306.761V266.939L1210.55 247.028ZM1211.52 245.213V205.38L1243.23 185.474L1274.96 205.385V245.208L1243.23 265.119L1211.52 245.213ZM1244.2 266.939L1275.93 247.028L1307.64 266.939V306.766L1275.92 326.672L1244.2 306.761V266.933V266.939ZM1276.9 245.213V205.38L1308.61 185.474L1340.34 205.385V245.208L1308.61 265.119L1276.9 245.213ZM1309.59 266.939L1341.31 247.028L1373.03 266.939V306.766L1341.31 326.672L1309.59 306.761V266.933L1309.59 266.939ZM1342.28 245.213V205.38L1374 185.474L1405.73 205.385V245.208L1374 265.119L1342.28 245.213ZM1342.28 122.112V82.2787L1374 62.3728L1405.73 82.284V122.112L1374 142.023L1342.28 122.117V122.112ZM1342.28 -0.994995V-40.828L1374 -60.7339L1405.73 -40.828V-1.00031L1374 18.9056L1342.28 -1.00031V-0.994995ZM1342.28 -124.102V-163.935L1374 -183.841L1405.73 -163.935V-124.107L1374 -104.196L1342.28 -124.102ZM1373.03 -102.376V-62.5483L1341.31 -42.6425L1309.59 -62.5536V-102.381L1341.32 -122.293L1373.04 -102.381L1373.03 -102.376ZM1340.34 -124.107L1308.62 -104.196L1276.9 -124.102V-163.935L1308.62 -183.841L1340.34 -163.929V-124.102V-124.107ZM1307.65 -102.376V-62.5483L1275.93 -42.6425L1244.21 -62.5536V-102.381L1275.94 -122.293L1307.65 -102.381V-102.376ZM1274.97 -124.107L1243.24 -104.196L1211.53 -124.102V-163.935L1243.24 -183.841L1274.97 -163.935V-124.107ZM1242.27 -102.376V-62.5483L1210.55 -42.6425L1178.83 -62.5536V-102.376L1210.55 -122.287L1242.27 -102.376ZM1209.58 -124.107L1177.86 -104.196L1146.14 -124.102V-163.935L1177.86 -183.841L1209.58 -163.935V-124.107ZM1176.89 -102.376V-62.5483L1145.17 -42.6425L1113.45 -62.5536V-102.381L1145.17 -122.293L1176.89 -102.381L1176.89 -102.376ZM1144.2 -124.107L1112.47 -104.196L1080.76 -124.102V-163.935L1112.47 -183.841L1144.2 -163.929V-124.102V-124.107ZM1111.51 -102.376V-62.5483L1079.79 -42.6425L1048.07 -62.5536V-102.381L1079.79 -122.293L1111.51 -102.381V-102.376ZM1078.82 -124.107L1047.1 -104.196L1015.38 -124.102V-163.935L1047.1 -183.841L1078.82 -163.935V-124.107ZM1046.12 -102.376V-62.5483L1014.4 -42.6425L982.684 -62.5536V-102.381L1014.41 -122.293L1046.12 -102.381V-102.376ZM1013.44 -124.107L981.713 -104.196L949.993 -124.102V-163.935L981.713 -183.841L1013.44 -163.935V-124.107ZM980.742 -102.376V-62.5483L949.021 -42.6425L917.301 -62.5536V-102.376L949.026 -122.287L980.747 -102.376H980.742ZM948.055 -124.107L916.33 -104.196L884.61 -124.102V-163.935L916.33 -183.841L948.055 -163.935V-124.107ZM915.363 -102.376V-62.5483L883.643 -42.6425L851.923 -62.5536V-102.381L883.648 -122.293L915.363 -102.381V-102.376ZM882.677 -124.107L850.952 -104.196L819.236 -124.102V-163.935L850.952 -183.841L882.677 -163.929V-124.102V-124.107ZM849.985 -102.376V-62.5483L818.265 -42.6425L786.545 -62.5536V-102.381L818.27 -122.293L849.99 -102.381L849.985 -102.376ZM817.299 -124.107L785.573 -104.196L753.853 -124.102V-163.935L785.573 -183.841L817.299 -163.935V-124.107ZM784.602 -102.376V-62.5483L752.882 -42.6425L721.162 -62.5536V-102.381L752.887 -122.293L784.602 -102.381V-102.376ZM751.916 -124.107L720.19 -104.196L688.47 -124.102V-163.935L720.19 -183.841L751.916 -163.935V-124.107ZM719.219 -102.376V-62.5483L687.499 -42.6425L655.779 -62.5536V-102.376L687.504 -122.287L719.219 -102.376ZM686.532 -124.107L654.807 -104.196L623.087 -124.102V-163.935L654.807 -183.841L686.532 -163.935V-124.107ZM653.841 -102.376V-62.5483L622.121 -42.6425L590.4 -62.5536V-102.381L622.125 -122.293L653.846 -102.381L653.841 -102.376ZM621.154 -124.107L589.429 -104.196L557.709 -124.102V-163.935L589.429 -183.841L621.154 -163.929V-124.102V-124.107ZM588.463 -102.376V-62.5483L556.742 -42.6425L525.022 -62.5536V-102.381L556.747 -122.293L588.468 -102.381L588.463 -102.376ZM555.776 -124.107L524.051 -104.196L492.335 -124.102V-163.935L524.051 -183.841L555.776 -163.935V-124.107ZM523.079 -102.376V-62.5483L491.359 -42.6425L459.639 -62.5536V-102.376L491.364 -122.287L523.079 -102.376ZM490.393 -124.107L458.668 -104.196L426.952 -124.102V-163.935L458.668 -183.841L490.393 -163.935V-124.107ZM457.701 -102.376V-62.5483L425.981 -42.6425L394.261 -62.5536V-102.381L425.986 -122.293L457.706 -102.381L457.701 -102.376ZM425.015 -124.107L393.289 -104.196L361.574 -124.102V-163.935L393.289 -183.841L425.015 -163.929V-124.102V-124.107ZM392.323 -102.376V-62.5483L360.603 -42.6425L328.883 -62.5536V-102.381L360.608 -122.293L392.328 -102.381L392.323 -102.376ZM359.636 -124.107L327.911 -104.196L296.196 -124.102V-163.935L327.911 -183.841L359.636 -163.935V-124.107ZM326.94 -102.376V-62.5483L295.22 -42.6425L263.499 -62.5536V-102.381L295.225 -122.293L326.94 -102.381V-102.376ZM294.253 -124.107L262.528 -104.196L230.808 -124.102V-163.935L262.528 -183.841L294.253 -163.935V-124.107ZM261.557 -102.376V-62.5483L229.837 -42.6425L198.116 -62.5536V-102.376L229.841 -122.287L261.562 -102.376H261.557ZM228.87 -124.107L197.145 -104.196L165.425 -124.102V-163.935L197.145 -183.841L228.87 -163.935V-124.107ZM196.179 -102.376V-62.5483L164.458 -42.6425L132.738 -62.5536V-102.381L164.463 -122.293L196.179 -102.381V-102.376ZM163.492 -124.107L131.767 -104.196L100.051 -124.102V-163.935L131.767 -183.841L163.492 -163.929V-124.102V-124.107ZM130.8 -102.376V-62.5483L99.0801 -42.6425L67.3598 -62.5536V-102.381L99.085 -122.293L130.8 -102.381V-102.376ZM98.1137 -124.107L66.3886 -104.196L34.6634 -124.107V-163.935L66.3886 -183.841L98.1137 -163.935V-124.107ZM98.1137 -40.828V-1.00031L66.3886 18.9056L34.6634 -1.00031V-40.828L66.3886 -60.7339L98.1137 -40.828ZM98.1137 82.2787V122.106L66.3886 142.018L34.6634 122.106V82.2787L66.3886 62.3675L98.1137 82.2787ZM98.1137 205.385V245.208L66.3886 265.119L34.6634 245.208V205.385L66.3886 185.474L98.1137 205.385ZM98.1137 328.492V368.32L66.3886 388.231L34.6634 368.32V328.492L66.3886 308.581L98.1137 328.492ZM67.3598 390.045L99.085 370.134L130.8 390.045V429.873L99.0801 449.784L67.3598 429.873V390.051V390.045ZM100.056 368.32V328.487L131.772 308.581L163.497 328.492V368.32L131.772 388.231L100.056 368.325V368.32ZM132.743 390.045L164.468 370.134L196.184 390.045V429.873L164.463 449.779L132.743 429.868V390.045ZM165.439 368.32V328.487L197.16 308.581L228.885 328.492V368.32L197.16 388.231L165.439 368.325V368.32ZM229.851 370.134L261.571 390.045V429.873L229.851 449.779L198.131 429.868V390.045L229.856 370.134H229.851ZM230.822 368.32V328.487L262.543 308.581L294.268 328.492V368.32L262.543 388.231L230.822 368.325V368.32ZM263.509 390.045L295.234 370.134L326.95 390.045V429.873L295.229 449.779L263.509 429.868V390.045ZM296.201 368.32V328.487L327.916 308.581L359.641 328.492V368.32L327.916 388.231L296.201 368.325V368.32ZM328.887 390.045L360.613 370.134L392.333 390.045V429.873L360.613 449.784L328.892 429.873V390.051L328.887 390.045ZM361.584 368.32V328.487L393.299 308.581L425.024 328.492V368.32L393.299 388.231L361.584 368.325V368.32ZM394.27 390.045L425.996 370.134L457.716 390.045V429.873L425.996 449.779L394.275 429.868V390.045H394.27ZM426.967 368.32V328.487L458.682 308.581L490.408 328.492V368.32L458.682 388.231L426.967 368.325V368.32ZM491.379 370.134L523.094 390.045V429.873L491.374 449.779L459.654 429.868V390.045L491.379 370.134ZM492.35 368.32V328.487L524.065 308.581L555.791 328.492V368.32L524.065 388.231L492.35 368.325V368.32ZM525.037 390.045L556.762 370.134L588.482 390.045V429.873L556.762 449.784L525.042 429.873V390.051L525.037 390.045ZM557.728 368.32V328.487L589.448 308.581L621.174 328.492V368.32L589.448 388.231L557.728 368.325V368.32ZM590.415 390.045L622.14 370.134L653.86 390.045V429.873L622.14 449.779L590.42 429.868V390.045H590.415ZM623.111 368.32V328.487L654.832 308.581L686.557 328.492V368.32L654.832 388.231L623.111 368.325V368.32ZM687.523 370.134L719.239 390.045V429.873L687.518 449.779L655.798 429.868V390.045L687.523 370.134ZM688.49 368.32V328.487L720.21 308.581L751.935 328.492V368.32L720.21 388.231L688.49 368.325V368.32ZM721.176 390.045L752.901 370.134L784.617 390.045V429.873L752.897 449.779L721.176 429.868V390.045ZM753.868 368.32V328.487L785.588 308.581L817.313 328.492V368.32L785.588 388.231L753.868 368.325V368.32ZM786.555 390.045L818.28 370.134L850 390.045V429.873L818.28 449.784L786.559 429.873V390.051L786.555 390.045ZM819.251 368.32V328.487L850.966 308.581L882.691 328.492V368.32L850.966 388.231L819.251 368.325V368.32ZM851.938 390.045L883.663 370.134L915.378 390.045V429.873L883.658 449.779L851.938 429.868V390.045ZM884.634 368.32V328.487L916.354 308.581L948.079 328.492V368.32L916.354 388.231L884.634 368.325V368.32ZM949.046 370.134L980.766 390.045V429.873L949.046 449.779L917.326 429.868V390.045L949.051 370.134H949.046ZM950.017 368.32V328.487L981.737 308.581L1013.46 328.492V368.32L981.737 388.231L950.017 368.325V368.32ZM982.704 390.045L1014.43 370.134L1046.14 390.045V429.873L1014.42 449.779L982.704 429.868V390.045ZM1015.4 368.32V328.487L1047.12 308.581L1078.84 328.492V368.32L1047.12 388.231L1015.4 368.325V368.32ZM1048.08 390.045L1079.81 370.134L1111.52 390.045V429.873L1079.8 449.784L1048.08 429.873V390.051V390.045ZM1080.78 368.32V328.487L1112.49 308.581L1144.22 328.492V368.32L1112.49 388.231L1080.78 368.325V368.32ZM1113.47 390.045L1145.19 370.134L1176.91 390.045V429.873L1145.19 449.779L1113.47 429.868V390.045H1113.47ZM1146.16 368.32V328.487L1177.88 308.581L1209.61 328.492V368.32L1177.88 388.231L1146.16 368.325V368.32ZM1210.57 370.134L1242.29 390.045V429.873L1210.57 449.779L1178.85 429.868V390.045L1210.57 370.134ZM1211.54 368.32V328.487L1243.26 308.581L1274.98 328.492V368.32L1243.26 388.231L1211.54 368.325V368.32ZM1244.23 390.045L1275.95 370.134L1307.67 390.045V429.873L1275.95 449.784L1244.23 429.873V390.051V390.045ZM1276.92 368.32V328.487L1308.64 308.581L1340.36 328.492V368.32L1308.64 388.231L1276.92 368.325V368.32ZM1309.61 390.045L1341.33 370.134L1373.06 390.045V429.873L1341.33 449.779L1309.61 429.868V390.045H1309.61ZM1342.31 368.32V328.487L1374.03 308.581L1405.75 328.492V368.32L1374.03 388.231L1342.31 368.325V368.32ZM1438.43 266.939V306.766L1406.71 326.672L1374.99 306.761V266.939L1406.72 247.028L1438.43 266.939ZM1438.43 143.832V183.66L1406.71 203.566L1374.99 183.654V143.832L1406.72 123.921L1438.43 143.827V143.832ZM1438.43 20.7253V60.5531L1406.71 80.459L1374.99 60.5478V20.7253L1406.72 0.814178L1438.43 20.72V20.7253ZM1438.43 -102.376V-62.5483L1406.71 -42.6425L1374.99 -62.5536V-102.376L1406.72 -122.287L1438.43 -102.376ZM1406.72 -245.389L1438.43 -225.483V-185.655L1406.71 -165.749L1374.99 -185.66V-225.483L1406.72 -245.394V-245.389ZM1342.31 -287.036L1374.03 -306.942L1405.75 -287.031V-247.203L1374.03 -227.292L1342.31 -247.198V-287.036ZM1341.33 -245.389L1373.06 -225.483V-185.655L1341.33 -165.749L1309.61 -185.66V-225.488L1341.34 -245.394L1341.33 -245.389ZM1308.64 -306.942L1340.37 -287.031V-247.203L1308.64 -227.292L1276.93 -247.198V-287.036L1308.64 -306.942ZM1275.96 -245.389L1307.67 -225.483V-185.655L1275.95 -165.749L1244.23 -185.66V-225.488L1275.96 -245.394V-245.389ZM1211.54 -287.036L1243.26 -306.942L1274.99 -287.031V-247.208L1243.26 -227.297L1211.54 -247.203V-287.036ZM1210.58 -245.389L1242.29 -225.477V-185.65L1210.57 -165.744L1178.85 -185.655V-225.477L1210.58 -245.389ZM1146.17 -287.036L1177.89 -306.942L1209.61 -287.031V-247.208L1177.89 -227.297L1146.17 -247.203V-287.036ZM1145.2 -245.389L1176.92 -225.483V-185.655L1145.2 -165.749L1113.47 -185.66V-225.488L1145.2 -245.394L1145.2 -245.389ZM1112.5 -306.942L1144.23 -287.031V-247.203L1112.5 -227.292L1080.79 -247.198V-287.036L1112.5 -306.942ZM1079.82 -245.389L1111.53 -225.483V-185.655L1079.81 -165.749L1048.09 -185.66V-225.488L1079.82 -245.394V-245.389ZM1015.41 -287.036L1047.13 -306.942L1078.85 -287.031V-247.208L1047.13 -227.297L1015.41 -247.203V-287.036ZM1014.44 -245.389L1046.15 -225.477V-185.65L1014.43 -165.744L982.714 -185.655V-225.483L1014.44 -245.394V-245.389ZM950.027 -287.036L981.747 -306.942L1013.47 -287.031V-247.208L981.747 -227.297L950.027 -247.203V-287.036ZM949.056 -245.389L980.776 -225.483V-185.655L949.056 -165.749L917.335 -185.66V-225.483L949.06 -245.394L949.056 -245.389ZM884.644 -287.036L916.364 -306.942L948.089 -287.031V-247.203L916.364 -227.292L884.644 -247.198V-287.036ZM883.677 -245.389L915.393 -225.483V-185.655L883.673 -165.749L851.952 -185.66V-225.488L883.677 -245.394V-245.389ZM850.986 -306.942L882.711 -287.031V-247.203L850.986 -227.292L819.271 -247.198V-287.036L850.986 -306.942ZM818.299 -245.389L850.019 -225.483V-185.655L818.299 -165.749L786.579 -185.66V-225.488L818.304 -245.394L818.299 -245.389ZM753.887 -287.036L785.608 -306.942L817.333 -287.031V-247.208L785.608 -227.297L753.887 -247.203V-287.036ZM752.921 -245.389L784.636 -225.477V-185.65L752.916 -165.744L721.196 -185.655V-225.483L752.921 -245.394V-245.389ZM688.509 -287.036L720.229 -306.942L751.955 -287.031V-247.208L720.229 -227.297L688.509 -247.203V-287.036ZM687.543 -245.389L719.258 -225.483V-185.655L687.538 -165.749L655.818 -185.66V-225.483L687.543 -245.394V-245.389ZM654.851 -306.942L686.576 -287.031V-247.203L654.851 -227.292L623.131 -247.198V-287.036L654.851 -306.942ZM622.164 -245.389L653.885 -225.483V-185.655L622.164 -165.749L590.444 -185.66V-225.488L622.169 -245.394L622.164 -245.389ZM557.753 -287.036L589.473 -306.942L621.198 -287.031V-247.203L589.473 -227.292L557.753 -247.198V-287.036ZM556.786 -245.389L588.507 -225.477V-185.65L556.786 -165.744L525.066 -185.655V-225.483L556.791 -245.394L556.786 -245.389ZM492.374 -287.036L524.09 -306.942L555.815 -287.031V-247.208L524.09 -227.297L492.374 -247.203V-287.036ZM491.403 -245.389L523.119 -225.483V-185.655L491.398 -165.749L459.678 -185.66V-225.483L491.403 -245.394V-245.389ZM426.991 -287.036L458.707 -306.942L490.432 -287.031V-247.203L458.707 -227.292L426.991 -247.198V-287.036ZM426.02 -245.389L457.74 -225.483V-185.655L426.02 -165.749L394.3 -185.66V-225.488L426.025 -245.394L426.02 -245.389ZM393.328 -306.942L425.054 -287.031V-247.203L393.328 -227.292L361.613 -247.198V-287.036L393.328 -306.942ZM360.642 -245.389L392.362 -225.483V-185.655L360.642 -165.749L328.922 -185.66V-225.488L360.647 -245.394L360.642 -245.389ZM296.23 -287.036L327.945 -306.942L359.671 -287.031V-247.208L327.945 -227.297L296.23 -247.203V-287.036ZM295.264 -245.389L326.979 -225.477V-185.65L295.259 -165.744L263.538 -185.655V-225.483L295.264 -245.394V-245.389ZM230.852 -287.036L262.572 -306.942L294.297 -287.031V-247.208L262.572 -227.297L230.852 -247.203V-287.036ZM229.88 -245.389L261.601 -225.483V-185.655L229.88 -165.749L198.16 -185.66V-225.483L229.885 -245.394L229.88 -245.389ZM165.469 -287.036L197.189 -306.942L228.914 -287.031V-247.203L197.189 -227.292L165.469 -247.198V-287.036ZM164.502 -245.389L196.218 -225.483V-185.655L164.497 -165.749L132.777 -185.66V-225.488L164.502 -245.394V-245.389ZM131.811 -306.942L163.536 -287.031V-247.203L131.811 -227.292L100.095 -247.198V-287.036L131.811 -306.942ZM99.124 -245.389L130.839 -225.483V-185.655L99.1192 -165.749L67.3989 -185.66V-225.488L99.124 -245.394V-245.389ZM34.6243 -287.031L66.3495 -306.942L98.0747 -287.031V-247.208L66.3495 -227.297L34.6243 -247.208V-287.031ZM1.93279 -185.655V-225.483L33.6628 -245.394L65.3831 -225.483V-185.655L33.6628 -165.749L1.93279 -185.655ZM1.93279 -62.5483V-102.376L33.6628 -122.287L65.3831 -102.376V-62.5483L33.6628 -42.6425L1.93279 -62.5483ZM1.93279 60.5584V20.7307L33.6628 0.819489L65.3831 20.7307V60.5584L33.6628 80.4643L1.93279 60.5531V60.5584ZM1.93279 183.665V143.837L33.6628 123.926L65.3831 143.837V183.665L33.6628 203.571L1.93279 183.66V183.665ZM1.93279 306.772V266.944L33.6628 247.033L65.3831 266.944V306.772L33.6628 326.678L1.93279 306.766V306.772ZM1.93279 429.873V390.051L33.6628 370.14L65.3831 390.051V429.878L33.6628 449.784L1.93279 429.868V429.873ZM65.3831 552.985L33.6628 572.891L1.93279 552.975V513.152L33.6628 493.241L65.3831 513.152V552.98V552.985ZM34.6292 491.427V451.599L66.3544 431.688L98.0795 451.599V491.427L66.3544 511.332L34.6292 491.427ZM130.766 552.98L99.0459 572.891L67.3257 552.985V513.157L99.0508 493.246L130.766 513.152V552.98ZM100.017 491.427V451.594L131.733 431.688L163.458 451.599V491.427L131.733 511.338L100.017 491.432V491.427ZM196.144 552.98L164.424 572.886L132.704 552.975V513.147L164.429 493.236L196.144 513.142V552.969V552.98ZM165.395 491.427V451.594L197.116 431.688L228.841 451.599V491.427L197.116 511.332L165.395 491.427ZM261.523 552.98L229.802 572.886L198.082 552.98V513.152L229.807 493.241L261.528 513.147V552.975L261.523 552.98ZM230.774 491.427V451.594L262.494 431.688L294.219 451.599V491.427L262.494 511.332L230.774 491.427ZM326.901 552.98L295.181 572.886L263.46 552.98V513.152L295.185 493.241L326.901 513.152V552.98ZM296.152 491.427V451.594L327.867 431.688L359.592 451.599V491.427L327.867 511.332L296.152 491.427ZM392.284 552.98L360.564 572.891L328.843 552.985V513.157L360.569 493.246L392.289 513.152V552.98H392.284ZM361.535 491.427V451.594L393.25 431.688L424.976 451.599V491.427L393.25 511.338L361.535 491.432V491.427ZM457.662 552.98L425.942 572.886L394.222 552.975V513.147L425.947 493.236L457.667 513.142V552.969L457.662 552.98ZM426.913 491.427V451.594L458.629 431.688L490.354 451.599V491.427L458.629 511.332L426.913 491.427ZM523.04 552.98L491.32 572.886L459.6 552.98V513.152L491.325 493.241L523.04 513.147V552.975V552.98ZM492.291 491.427V451.594L524.007 431.688L555.732 451.599V491.427L524.007 511.332L492.291 491.427ZM588.424 552.98L556.703 572.891L524.983 552.985V513.157L556.708 493.246L588.428 513.157V552.985L588.424 552.98ZM557.675 491.427V451.594L589.395 431.688L621.12 451.599V491.427L589.395 511.338L557.675 491.432V491.427ZM653.807 552.98L622.086 572.886L590.366 552.975V513.147L622.091 493.236L653.812 513.142V552.969L653.807 552.98ZM623.058 491.427V451.594L654.778 431.688L686.503 451.599V491.427L654.778 511.332L623.058 491.427ZM719.185 552.98L687.465 572.886L655.744 552.98V513.152L687.47 493.241L719.185 513.147V552.975V552.98ZM688.436 491.427V451.594L720.156 431.688L751.881 451.599V491.427L720.156 511.332L688.436 491.427ZM784.563 552.98L752.843 572.886L721.123 552.98V513.152L752.848 493.241L784.563 513.152V552.98ZM753.814 491.427V451.594L785.534 431.688L817.26 451.599V491.427L785.534 511.332L753.814 491.427ZM849.946 552.98L818.226 572.891L786.506 552.985V513.157L818.231 493.246L849.951 513.152V552.98H849.946ZM819.197 491.427V451.594L850.913 431.688L882.638 451.599V491.427L850.913 511.338L819.197 491.432V491.427ZM915.324 552.98L883.604 572.886L851.884 552.975V513.147L883.609 493.236L915.324 513.142V552.969V552.98ZM884.575 491.427V451.594L916.296 431.688L948.021 451.599V491.427L916.296 511.332L884.575 491.427ZM980.703 552.98L948.982 572.886L917.262 552.98V513.152L948.987 493.241L980.708 513.147V552.975L980.703 552.98ZM949.954 491.427V451.594L981.674 431.688L1013.4 451.599V491.427L981.674 511.332L949.954 491.427ZM1046.08 552.98L1014.36 572.886L982.64 552.98V513.152L1014.37 493.241L1046.08 513.152V552.98ZM1015.33 491.427V451.594L1047.05 431.688L1078.78 451.599V491.427L1047.05 511.332L1015.33 491.427ZM1111.46 552.98L1079.74 572.891L1048.02 552.985V513.157L1079.75 493.246L1111.46 513.152V552.98ZM1080.71 491.427V451.594L1112.43 431.688L1144.16 451.599V491.427L1112.43 511.338L1080.71 491.432V491.427ZM1176.84 552.98L1145.12 572.886L1113.4 552.975V513.147L1145.13 493.236L1176.85 513.142V552.969L1176.84 552.98ZM1146.09 491.427V451.594L1177.81 431.688L1209.54 451.599V491.427L1177.81 511.332L1146.09 491.427ZM1242.22 552.98L1210.5 572.886L1178.78 552.98V513.152L1210.51 493.241L1242.22 513.152V552.98ZM1211.47 491.427V451.594L1243.19 431.688L1274.91 451.599V491.427L1243.19 511.332L1211.47 491.427ZM1307.6 552.98L1275.88 572.891L1244.16 552.985V513.157L1275.89 493.246L1307.6 513.152V552.98ZM1276.85 491.427V451.594L1308.57 431.688L1340.3 451.599V491.427L1308.57 511.338L1276.85 491.432V491.427ZM1372.98 552.98L1341.26 572.886L1309.54 552.975V513.147L1341.27 493.236L1372.99 513.142V552.969L1372.98 552.98ZM1342.23 491.427V451.594L1373.95 431.688L1405.68 451.599V491.427L1373.95 511.332L1342.23 491.427ZM1438.36 552.98L1406.64 572.886L1374.92 552.98V513.152L1406.64 493.241L1438.36 513.147V552.975V552.98Z" fill="url(#paint0_linear_140_28188)"/>
</g>
<defs>
<linearGradient id="paint0_linear_140_28188" x1="149.5" y1="22.5" x2="1625.5" y2="252" gradientUnits="userSpaceOnUse">
<stop stop-color="#FFFCEA"/>
<stop offset="1" stop-color="#FFFCEA" stop-opacity="0.83"/>
</linearGradient>
<clipPath id="clip0_140_28188">
<rect width="1440" height="272" fill="white"/>
</clipPath>
</defs>
</svg>
