<svg width="157" height="77" viewBox="0 0 157 77" fill="none" xmlns="http://www.w3.org/2000/svg">
<g clip-path="url(#clip0_106_27874)">
<path d="M12.441 38.936C4.79076 35.6759 0.608883 28.2326 3.10049 22.311C5.59209 16.3893 13.8137 14.2317 21.4639 17.4918C29.1141 20.7519 33.296 28.1952 30.8043 34.1168C28.3127 40.0385 20.0912 42.1961 12.441 38.936Z" fill="#FFD34E"/>
<path d="M6.67569 18.067C4.77931 23.8617 8.9238 30.8569 16.273 33.9903C21.6513 36.2827 27.3088 35.895 31.0625 33.4059C30.9843 33.6419 30.9006 33.876 30.8038 34.1083C28.3119 40.0303 20.0899 42.186 12.4411 38.9253C4.79048 35.6646 0.61062 28.2218 3.10253 22.2997C3.84321 20.5411 5.0901 19.1177 6.67569 18.067Z" fill="#F0B900"/>
<path d="M8.04348 22.2922C7.68616 23.1406 8.07883 24.1201 8.92374 24.4797C9.76306 24.8375 10.7401 24.4423 11.0974 23.5939C11.4547 22.7454 11.0565 21.764 10.2171 21.4063C9.3741 21.0467 8.40079 21.4438 8.04348 22.2922Z" fill="#592B02"/>
<path d="M5.118 6.77718C6.45421 7.34654 7.07765 8.89729 6.5119 10.242C6.50074 10.2664 6.484 10.2814 6.47283 10.3057C7.72716 11.7666 8.64836 13.3623 9.20481 15.0872C10.6471 14.6546 12.201 14.4186 13.8201 14.398C12.9808 13.2649 12.4244 11.9332 12.2085 10.493C11.8605 8.17436 12.4262 5.86321 13.8071 3.97347C16.6545 0.0759825 22.1277 -0.763072 25.9968 2.10807C27.5098 3.22806 28.5929 4.78255 29.14 6.55618C31.3472 5.43619 34.0103 5.26201 36.4576 6.30709C40.8812 8.19309 42.96 13.351 41.0841 17.8066C39.3217 21.9925 34.6952 24.0902 30.4744 22.766C32.8435 26.1429 33.7665 30.0553 32.7393 33.6176L33.3162 34.2693L33.988 35.0241C34.2746 35.3425 34.0978 35.7602 33.6716 35.7751L32.6648 35.8145L31.7994 35.8501C29.7412 39.4816 25.632 41.6373 20.8883 41.9313C20.879 41.9388 20.8753 41.9482 20.8678 41.9519L20.8455 41.9369C17.9535 42.1111 14.8344 41.5979 11.8009 40.3038C3.29607 36.6779 -1.33973 28.2892 1.47227 21.6049C2.56283 19.0128 4.61553 17.0593 7.21724 15.8401C6.75198 14.3624 5.96476 12.9802 4.88165 11.7141C4.30287 11.9014 3.6664 11.8958 3.06715 11.6411C1.73094 11.0717 1.1075 9.52097 1.67139 8.17998C2.23714 6.83524 3.77806 6.20782 5.11428 6.77718H5.118ZM30.3906 33.9303C31.6673 30.8981 31.0327 27.4146 29.0098 24.3524C27.8466 29.8886 25.6972 34.9979 22.58 39.6014C26.1792 38.9366 29.1121 36.9682 30.3906 33.9303ZM30.4856 20.5017C33.8354 21.9289 37.7156 20.3481 39.1356 16.9769C40.5537 13.6057 38.983 9.70076 35.6332 8.27175C33.5656 7.38962 31.3044 7.65369 29.5364 8.77556C29.1605 9.01529 28.8013 9.2906 28.4738 9.60712C27.8522 10.2102 27.3349 10.9444 26.9775 11.7947L24.6196 17.4002C24.8597 17.5426 25.0905 17.6886 25.3212 17.8385C25.8609 18.1962 26.382 18.5689 26.877 18.9641L30.4856 20.5017ZM13.0534 38.5114C14.7376 39.1838 16.4386 39.5958 18.0949 39.7625L17.9553 39.6576C22.1984 34.2075 24.8597 27.8865 25.8591 20.8763C25.8386 20.8557 25.8163 20.8407 25.7958 20.8201C25.2524 20.3744 24.6717 19.953 24.0595 19.5597C23.7673 19.3649 23.4639 19.1851 23.1494 19.0034C22.7512 18.7749 22.338 18.5652 21.9137 18.361C21.8039 18.3086 21.6922 18.2599 21.5769 18.2056C21.5303 18.5333 21.4689 18.8592 21.4168 19.1851C21.3517 19.5746 21.2791 19.9661 21.2028 20.35C19.8982 26.9894 17.17 33.0782 13.0534 38.5114ZM22.74 16.3963L25.0272 10.9631C25.552 9.71575 26.3373 8.6688 27.2846 7.82787C26.9645 6.27899 26.1047 4.83687 24.7406 3.82738C24.3144 3.51274 23.8696 3.2599 23.4007 3.0595C20.6557 1.88894 17.3561 2.71676 15.5118 5.24141C13.3567 8.18934 13.9839 12.3584 16.9131 14.5272L17.0676 14.6396C18.7072 14.898 20.3709 15.37 22.0049 16.0667C22.2543 16.1735 22.4999 16.284 22.74 16.3982V16.3963ZM3.42634 22.4383C1.40155 27.2479 4.16516 33.1887 9.68867 36.7771C14.0546 31.1997 16.8052 24.8543 17.8753 17.8834C17.9181 17.5894 17.959 17.2878 17.9981 16.9919C17.4082 16.8496 16.8145 16.7428 16.232 16.6679C10.4964 15.9188 5.2613 18.0819 3.42819 22.4383H3.42634Z" fill="#592B02"/>
<path d="M16.9132 14.5253L17.0677 14.6377C18.7072 14.8962 20.371 15.3681 22.005 16.0648C22.2543 16.1716 22.5 16.2821 22.7401 16.3963L25.0272 10.9631C25.5521 9.71575 26.3374 8.6688 27.2847 7.82787C26.9646 6.27899 26.1048 4.83687 24.7407 3.82738C24.3145 3.51274 23.8697 3.2599 23.4007 3.0595C20.6557 1.88894 17.3561 2.71676 15.5119 5.24141C13.3568 8.18934 13.984 12.3584 16.9132 14.5272V14.5253Z" fill="#CEEAF2"/>
<path d="M26.9776 11.7947L24.6197 17.4002C24.8598 17.5426 25.0905 17.6886 25.3213 17.8385C25.861 18.1962 26.3821 18.5689 26.8771 18.9641L30.4856 20.5017C33.8354 21.9289 37.7157 20.3481 39.1356 16.9769C40.5537 13.6057 38.983 9.70076 35.6332 8.27175C33.5656 7.38962 31.3045 7.6537 29.5365 8.77556C29.1606 9.01529 28.8014 9.2906 28.4738 9.60712C27.8523 10.2102 27.3349 10.9444 26.9776 11.7947Z" fill="#CEEAF2"/>
<path d="M35.0972 10.6278C34.2672 11.259 34.2783 12.6824 35.1232 13.8099C35.9681 14.9355 37.3267 15.3382 38.1567 14.707C38.9867 14.0758 38.9756 12.6524 38.1307 11.525C37.2857 10.3994 35.9272 9.99668 35.0972 10.6278Z" fill="white"/>
<path d="M22.3314 7.50845C21.5555 6.47405 21.5449 5.16565 22.3078 4.58605C23.0706 4.00646 24.3181 4.37516 25.0941 5.40956C25.87 6.44396 25.8806 7.75236 25.1177 8.33195C24.3548 8.91155 23.1073 8.54286 22.3314 7.50845Z" fill="white"/>
<path d="M118.575 72.186C118.43 72.4407 118.517 72.7666 118.772 72.9127C119.556 73.3622 120.364 73.7779 121.175 74.1469C121.246 74.1787 121.32 74.1937 121.393 74.1937C121.594 74.1937 121.787 74.0776 121.877 73.8791C121.997 73.6113 121.877 73.2947 121.61 73.173C120.831 72.819 120.051 72.4201 119.297 71.9856C119.042 71.8395 118.72 71.9275 118.575 72.1841V72.186ZM124.249 63.3609C124.988 62.9021 125.708 62.4076 126.391 61.8851C126.624 61.7072 126.957 61.754 127.134 61.9881C127.311 62.2222 127.266 62.5575 127.032 62.7354C126.322 63.2766 125.573 63.7936 124.804 64.2693C124.718 64.3236 124.622 64.3479 124.527 64.3479C124.348 64.3479 124.175 64.258 124.074 64.0951C123.922 63.8441 123.998 63.5164 124.247 63.3609H124.249ZM131.762 56.2758C131.928 56.0323 132.257 55.9705 132.499 56.1372C132.741 56.3039 132.803 56.6354 132.637 56.877C132.134 57.6149 131.576 58.3397 130.981 59.0308C130.876 59.1525 130.729 59.2144 130.581 59.2144C130.458 59.2144 130.333 59.1713 130.232 59.0832C130.011 58.8903 129.989 58.5532 130.18 58.3303C130.75 57.6711 131.282 56.9781 131.764 56.2739L131.762 56.2758ZM117.122 66.4681C117.548 66.3501 117.97 66.2227 118.391 66.0879C118.795 65.9568 119.195 65.8144 119.593 65.6646C119.867 65.5597 120.172 65.7002 120.276 65.9755C120.38 66.2508 120.241 66.558 119.967 66.6628C119.552 66.8202 119.135 66.9681 118.715 67.103C118.279 67.2453 117.842 67.3764 117.401 67.4981C117.354 67.5113 117.306 67.5169 117.259 67.5169C117.027 67.5169 116.813 67.3614 116.749 67.1254C116.671 66.8426 116.837 66.5486 117.12 66.4699L117.122 66.4681ZM105.155 53.2043C105.442 53.1424 105.723 53.3279 105.782 53.6163C105.959 54.4591 106.183 55.3075 106.447 56.1372C106.536 56.4181 106.382 56.7178 106.104 56.8077C106.05 56.8245 105.996 56.8339 105.942 56.8339C105.719 56.8339 105.511 56.6897 105.438 56.4631C105.163 55.5978 104.93 54.7138 104.746 53.8373C104.686 53.5489 104.869 53.2661 105.155 53.2061V53.2043ZM107.781 60.7183C108.038 60.5759 108.36 60.6696 108.5 60.928C108.915 61.6866 109.37 62.4357 109.856 63.1587C110.02 63.4021 109.957 63.7336 109.715 63.8984C109.624 63.9603 109.521 63.9902 109.419 63.9902C109.249 63.9902 109.082 63.9078 108.98 63.7561C108.475 63.007 108.003 62.2297 107.571 61.4431C107.429 61.1846 107.522 60.8606 107.779 60.7183H107.781ZM116.898 29.3567C117.786 29.0945 118.692 28.9185 119.591 28.8286C119.882 28.8061 120.142 29.014 120.17 29.3062C120.198 29.5983 119.986 29.8605 119.694 29.8886C118.862 29.971 118.02 30.1359 117.196 30.3793C117.146 30.3943 117.096 30.3999 117.047 30.3999C116.818 30.3999 116.606 30.2482 116.539 30.016C116.457 29.7332 116.617 29.4373 116.898 29.3549V29.3567ZM106.05 41.1279C105.989 41.1279 105.928 41.1166 105.868 41.0941C105.594 40.993 105.453 40.6859 105.554 40.4105C105.87 39.5453 106.242 38.7043 106.661 37.9121C106.799 37.6518 107.119 37.5544 107.377 37.6911C107.636 37.8297 107.733 38.1518 107.595 38.4122C107.199 39.1613 106.845 39.9573 106.547 40.7776C106.469 40.993 106.266 41.126 106.05 41.126V41.1279ZM109.404 67.5562C110.271 67.5431 111.146 67.4944 112.004 67.412C112.091 67.4045 112.177 67.4176 112.253 67.4476C112.276 67.3558 112.324 67.2678 112.396 67.1947C112.605 66.9887 112.94 66.9906 113.145 67.2022C113.749 67.8222 114.39 68.4215 115.047 68.9852C115.27 69.1763 115.296 69.5115 115.108 69.7362C115.004 69.8599 114.855 69.9235 114.704 69.9235C114.583 69.9235 114.46 69.8823 114.362 69.7962C113.74 69.2643 113.132 68.7005 112.555 68.1162C112.49 68.3072 112.318 68.4514 112.106 68.472C111.22 68.5582 110.316 68.6088 109.419 68.6219H109.411C109.123 68.6219 108.887 68.3878 108.881 68.0975C108.877 67.8034 109.11 67.5599 109.402 67.5562H109.404ZM126.52 74.8286C126.687 74.8661 126.855 74.9017 127.024 74.9373C127.694 75.074 128.385 75.1845 129.075 75.265C129.365 75.2987 129.574 75.5628 129.54 75.855C129.509 76.1265 129.28 76.3269 129.015 76.3269C128.995 76.3269 128.974 76.3269 128.954 76.3232C128.234 76.2389 127.514 76.1247 126.816 75.9823C126.639 75.9467 126.464 75.9093 126.289 75.87C126.004 75.8063 125.824 75.5216 125.887 75.2332C125.95 74.9466 126.233 74.765 126.52 74.8286ZM110.651 34.2899C110.548 34.3911 110.414 34.4416 110.281 34.4416C110.147 34.4416 110.005 34.3873 109.903 34.2806C109.698 34.0708 109.702 33.7318 109.91 33.5277C110.56 32.8871 111.265 32.2953 112.004 31.7672C112.242 31.5948 112.573 31.6529 112.743 31.8926C112.912 32.1324 112.856 32.4657 112.618 32.6362C111.924 33.1325 111.263 33.6887 110.651 34.2899ZM134.256 75.3418C135.11 75.2706 135.976 75.1545 136.832 75.0009C137.118 74.9485 137.396 75.1414 137.446 75.4317C137.498 75.722 137.306 75.9992 137.018 76.0498C136.13 76.2108 135.231 76.3288 134.343 76.4037C134.329 76.4037 134.314 76.4056 134.299 76.4056C134.027 76.4056 133.794 76.1958 133.772 75.9168C133.748 75.6246 133.964 75.3662 134.256 75.3418ZM75.1184 27.2516C75.0551 27.4895 74.8411 27.6468 74.6066 27.6468C74.5619 27.6468 74.5154 27.6412 74.4689 27.6281C74.186 27.5513 74.0185 27.261 74.0948 26.9763C74.3423 26.0436 74.6587 25.1708 75.0346 24.3823C75.1612 24.1164 75.4776 24.004 75.7418 24.1314C76.0061 24.2587 76.1178 24.5771 75.9912 24.8412C75.6432 25.5716 75.351 26.3807 75.1203 27.2497L75.1184 27.2516ZM135.451 48.773C135.737 48.8329 135.922 49.1157 135.862 49.4042C135.68 50.2882 135.428 51.174 135.12 52.0374C135.041 52.2547 134.839 52.3895 134.621 52.3895C134.561 52.3895 134.5 52.3802 134.44 52.3577C134.165 52.2584 134.023 51.9532 134.122 51.676C134.414 50.8594 134.651 50.0222 134.824 49.1869C134.883 48.8985 135.164 48.7149 135.451 48.7749V48.773ZM127.283 31.5405C127.195 31.5405 127.104 31.5181 127.022 31.4712C126.274 31.0442 125.492 30.6959 124.703 30.4355C124.426 30.3438 124.274 30.0422 124.367 29.7632C124.458 29.4841 124.757 29.3324 125.035 29.4242C125.891 29.707 126.736 30.0853 127.545 30.546C127.8 30.6902 127.889 31.0161 127.746 31.2727C127.649 31.4469 127.469 31.5443 127.285 31.5443L127.283 31.5405ZM150.696 68.2398C150.914 68.0432 151.249 68.0638 151.444 68.2848C151.638 68.5039 151.619 68.841 151.4 69.0377C150.732 69.6351 150.026 70.2082 149.302 70.742C149.207 70.8113 149.098 70.845 148.99 70.845C148.826 70.845 148.666 70.7701 148.562 70.6277C148.389 70.3899 148.441 70.0565 148.675 69.8823C149.373 69.3673 150.052 68.8148 150.696 68.2398ZM135.641 44.5234C135.618 44.5253 135.598 44.5271 135.577 44.5271C135.313 44.5271 135.084 44.3286 135.053 44.0571C134.952 43.2124 134.783 42.3621 134.552 41.5249C134.474 41.2421 134.638 40.9481 134.92 40.8694C135.201 40.7889 135.494 40.9555 135.574 41.2402C135.819 42.128 136 43.0326 136.106 43.9316C136.141 44.2237 135.933 44.4897 135.642 44.5253L135.641 44.5234ZM141.838 73.6056C142.647 73.2985 143.451 72.9501 144.227 72.5737C144.492 72.4463 144.808 72.5568 144.935 72.8209C145.061 73.085 144.951 73.4052 144.689 73.5326C143.885 73.924 143.051 74.2836 142.214 74.602C142.152 74.6264 142.089 74.6357 142.028 74.6357C141.814 74.6357 141.613 74.5046 141.533 74.2911C141.428 74.0158 141.568 73.7086 141.842 73.6038L141.838 73.6056ZM155.671 62.2522C155.822 61.9993 156.147 61.9188 156.398 62.0705C156.65 62.2222 156.73 62.55 156.579 62.8028C156.117 63.5726 155.608 64.3311 155.064 65.054C154.96 65.1926 154.802 65.2657 154.642 65.2657C154.53 65.2657 154.418 65.2301 154.323 65.157C154.091 64.9791 154.044 64.6457 154.219 64.4097C154.74 63.7149 155.23 62.9882 155.673 62.2503L155.671 62.2522ZM132.469 36.8146C132.008 36.0804 131.494 35.3837 130.942 34.7413C130.75 34.5184 130.774 34.1832 130.994 33.9884C131.215 33.7955 131.548 33.8198 131.74 34.0427C132.328 34.7244 132.875 35.4661 133.365 36.2452C133.521 36.4943 133.446 36.824 133.199 36.9813C133.111 37.0375 133.013 37.0637 132.916 37.0637C132.741 37.0637 132.568 36.9757 132.468 36.8146H132.469ZM74.9044 39.7812C75.1891 39.7063 75.4757 39.8843 75.5446 40.1708C75.7511 41.0155 75.9893 41.8676 76.2555 42.6992C76.3448 42.9801 76.1903 43.2798 75.913 43.3697C75.8591 43.3866 75.8051 43.3959 75.7511 43.3959C75.5278 43.3959 75.3194 43.2517 75.2468 43.0251C74.9751 42.1692 74.7294 41.2945 74.5173 40.4255C74.4466 40.139 74.6215 39.8505 74.9044 39.7812ZM73.9646 31.8589H73.9664C74.2586 31.8589 74.4949 32.0949 74.4968 32.389C74.4987 32.8609 74.5173 33.3348 74.5489 33.7992C74.5768 34.1982 74.6103 34.5971 74.6513 34.996C74.681 35.2882 74.4689 35.5504 74.1786 35.5804C74.16 35.5804 74.1414 35.5822 74.1246 35.5822C73.8566 35.5822 73.6259 35.3781 73.5979 35.1028C73.557 34.6926 73.5216 34.2824 73.4919 33.8723C73.4584 33.3835 73.4398 32.8853 73.4379 32.3927C73.4379 32.0987 73.6724 31.8589 73.9646 31.8571V31.8589ZM75.5762 44.5777C75.7753 44.5234 75.9745 44.4672 76.1736 44.4073C76.8249 44.2162 77.4614 44.0121 78.07 43.7967C78.3454 43.6975 78.6487 43.8454 78.7455 44.1245C78.8423 44.4017 78.6971 44.7069 78.4198 44.8025C77.7945 45.0235 77.1395 45.2332 76.4714 45.4299C76.2666 45.4898 76.0619 45.5479 75.8572 45.6059C75.8107 45.619 75.7642 45.6247 75.7176 45.6247C75.485 45.6247 75.271 45.4692 75.2077 45.2314C75.1314 44.9486 75.297 44.6545 75.5781 44.5758L75.5762 44.5777ZM67.8604 45.9711C68.7295 45.8944 69.6042 45.7914 70.4584 45.664C70.7487 45.6209 71.0167 45.8213 71.0595 46.1135C71.1023 46.4038 70.9032 46.6754 70.6129 46.7184C69.7363 46.8495 68.8412 46.9544 67.9516 47.0331C67.9367 47.0331 67.92 47.0349 67.9051 47.0349C67.6334 47.0349 67.4026 46.8252 67.3784 46.548C67.3524 46.2558 67.5682 45.9955 67.8604 45.9711ZM44.8992 41.98C45.6919 42.3434 46.5034 42.688 47.311 43.0045C47.5846 43.1112 47.7186 43.4203 47.6125 43.6937C47.5306 43.9054 47.3315 44.0327 47.1193 44.0327C47.0561 44.0327 46.9909 44.0215 46.9277 43.9971C46.1014 43.6731 45.2714 43.321 44.46 42.9502C44.1938 42.8284 44.0766 42.5119 44.1975 42.2441C44.3185 41.9763 44.633 41.8583 44.8992 41.98ZM37.3509 38.208C37.5183 37.9664 37.8478 37.9065 38.0878 38.075C38.7969 38.5714 39.5338 39.0546 40.2782 39.5134C40.5276 39.667 40.6076 39.9948 40.455 40.2457C40.3545 40.4105 40.1815 40.5004 40.0028 40.5004C39.9098 40.5004 39.813 40.4761 39.7274 40.4218C38.9644 39.9536 38.2088 39.4572 37.483 38.9497C37.2429 38.7811 37.1834 38.4496 37.3509 38.208ZM60.0181 45.9711C60.8835 46.0461 61.7618 46.0966 62.6309 46.1229C62.9231 46.1322 63.1539 46.3776 63.1446 46.6716C63.1371 46.9619 62.9008 47.1904 62.6161 47.1904H62.6012C61.7116 47.1642 60.8127 47.1117 59.9269 47.0349C59.6347 47.0087 59.4188 46.7521 59.4449 46.4581C59.4709 46.1641 59.7278 45.9431 60.0181 45.973V45.9711ZM77.4763 47.3309C77.7406 47.2035 78.0569 47.3159 78.1835 47.5818C78.5576 48.3684 78.9651 49.1532 79.3913 49.9117C79.5365 50.1683 79.4471 50.4923 79.1922 50.6384C79.1103 50.6852 79.0191 50.7077 78.9316 50.7077C78.7474 50.7077 78.5687 50.6103 78.4701 50.438C78.0309 49.6589 77.614 48.8535 77.2288 48.0426C77.1022 47.7766 77.2139 47.4582 77.4782 47.3309H77.4763ZM52.2893 44.6264C53.1342 44.8493 53.9921 45.0497 54.8389 45.222C55.1255 45.2801 55.3116 45.561 55.2539 45.8494C55.2036 46.1022 54.9822 46.2764 54.7346 46.2764C54.6993 46.2764 54.6639 46.2727 54.6286 46.2652C53.7613 46.0891 52.8829 45.885 52.0194 45.6565C51.7365 45.5816 51.5672 45.2913 51.6416 45.0066C51.7161 44.7219 52.0045 44.5534 52.2874 44.6264H52.2893ZM104.186 48.4359C104.186 47.5238 104.236 46.6079 104.333 45.7164C104.364 45.4243 104.625 45.2145 104.917 45.2445C105.207 45.2763 105.418 45.5404 105.386 45.8326C105.293 46.6847 105.245 47.5612 105.245 48.434C105.245 48.728 105.006 48.9678 104.714 48.9678C104.422 48.9678 104.184 48.728 104.186 48.434V48.4359ZM88.9774 37.4064C88.8732 37.4064 88.7671 37.3746 88.6741 37.3109C88.434 37.1423 88.3763 36.8108 88.5419 36.5692C89.0295 35.865 89.4557 35.1159 89.8074 34.3424C89.9284 34.0746 90.2429 33.9566 90.509 34.0802C90.7751 34.2019 90.8924 34.5184 90.7696 34.7863C90.3918 35.6178 89.934 36.4232 89.4092 37.1798C89.3068 37.3278 89.1412 37.4083 88.9737 37.4083L88.9774 37.4064ZM94.2739 64.1607C95.0481 64.539 95.852 64.8911 96.6616 65.2113C96.9333 65.32 97.0691 65.629 96.9612 65.9024C96.8793 66.1122 96.6802 66.2414 96.468 66.2414C96.4029 66.2414 96.3377 66.2302 96.2745 66.2058C95.4389 65.8762 94.6089 65.5129 93.8105 65.1233C93.5481 64.9941 93.4364 64.6757 93.5648 64.4116C93.6914 64.1457 94.0096 64.037 94.272 64.1644L94.2739 64.1607ZM78.9279 21.1816C78.7474 21.1816 78.5724 21.0898 78.4738 20.9231C78.3231 20.6703 78.405 20.3425 78.6562 20.1927C79.1624 19.8874 79.7077 19.6383 80.2753 19.4492C80.6103 19.3387 80.9564 19.2506 81.3007 19.1907C81.5892 19.142 81.8627 19.3349 81.913 19.6252C81.9632 19.9155 81.7697 20.1908 81.4812 20.2414C81.1872 20.2938 80.8913 20.3669 80.6047 20.4624C80.1115 20.6253 79.6388 20.8426 79.1996 21.1067C79.114 21.1572 79.0209 21.1816 78.9279 21.1816ZM101.645 66.7434C102.49 66.9344 103.354 67.0936 104.21 67.2172C104.5 67.2584 104.699 67.53 104.658 67.8203C104.621 68.0862 104.394 68.2773 104.135 68.2773C104.109 68.2773 104.085 68.2773 104.059 68.2716C103.177 68.1443 102.287 67.9795 101.415 67.7828C101.13 67.7191 100.949 67.4345 101.013 67.146C101.076 66.8595 101.359 66.6778 101.645 66.7434ZM90.7156 26.892C90.6486 26.6055 90.8254 26.3189 91.1101 26.2515C91.3949 26.1859 91.6796 26.362 91.7466 26.6485C91.9383 27.4689 92.0351 28.3267 92.0351 29.1975V29.4242C92.0276 29.7145 91.7913 29.9467 91.5028 29.9467H91.4916C91.1995 29.9411 90.9668 29.6976 90.9724 29.4036V29.1994C90.9743 28.4091 90.8868 27.6337 90.7137 26.892H90.7156ZM82.2759 54.2849C82.8063 54.9779 83.3683 55.6559 83.9433 56.3039C84.1388 56.523 84.1201 56.8601 83.9024 57.0568C83.8019 57.1486 83.6754 57.1935 83.5488 57.1935C83.4036 57.1935 83.2585 57.1336 83.1543 57.0156C82.5625 56.3507 81.9837 55.6502 81.4366 54.9385C81.2579 54.7063 81.3007 54.3711 81.5315 54.1913C81.7622 54.0115 82.0954 54.0545 82.274 54.2868L82.2759 54.2849ZM87.7026 59.9335C88.0581 60.2257 88.4172 60.5123 88.7839 60.7913C89.1114 61.0404 89.4427 61.282 89.7776 61.5161C90.0177 61.6847 90.0773 62.0162 89.9098 62.2578C89.8074 62.4058 89.6418 62.4863 89.4743 62.4863C89.3701 62.4863 89.264 62.4545 89.1728 62.3908C88.8248 62.1473 88.4824 61.8982 88.1455 61.6416C87.7677 61.3551 87.3955 61.0591 87.0289 60.7557C86.8037 60.5684 86.7702 60.2332 86.9563 60.0066C87.1424 59.78 87.4756 59.7463 87.7026 59.9335ZM83.0687 42.6505C82.8844 42.6505 82.7058 42.555 82.609 42.3827C82.4638 42.128 82.5513 41.8021 82.8044 41.6541C83.573 41.2103 84.2988 40.7308 84.9632 40.2289C85.1977 40.0528 85.5289 40.0996 85.7039 40.3356C85.8788 40.5716 85.8323 40.905 85.5978 41.0829C84.8981 41.6111 84.1369 42.1149 83.3311 42.5793C83.2473 42.628 83.158 42.6505 83.0687 42.6505ZM86.7591 20.1702C87.5742 20.6103 88.3316 21.1666 89.0072 21.824C89.2175 22.0281 89.2249 22.3652 89.0202 22.5769C88.916 22.6855 88.7783 22.7398 88.6387 22.7398C88.4991 22.7398 88.3744 22.6911 88.2721 22.59C87.6654 22.0019 86.988 21.5037 86.2566 21.1085C85.9998 20.9699 85.903 20.6459 86.0407 20.3875C86.1784 20.1271 86.5004 20.0298 86.7572 20.1702H86.7591Z" fill="#592B02"/>
</g>
<defs>
<clipPath id="clip0_106_27874">
<rect width="156" height="76" fill="white" transform="matrix(-1 0 0 1 156.653 0.40374)"/>
</clipPath>
</defs>
</svg>
